<svg width="1729" height="1665" viewBox="0 0 1729 1665" fill="none" xmlns="http://www.w3.org/2000/svg">
<path style="mix-blend-mode:multiply" d="M966.83 1664.37C1387.49 1664.37 1728.5 1345.35 1728.5 951.819C1728.5 558.289 1387.49 239.27 966.83 239.27C546.171 239.27 205.16 558.289 205.16 951.819C205.16 1345.35 546.171 1664.37 966.83 1664.37Z" fill="url(#paint0_radial_153_52)"/>
<path d="M322.18 193.667C367.13 193.667 408.15 199.337 445.23 210.667C482.31 222.007 514.1 238.137 540.61 259.077C567.12 280.027 587.67 305.377 602.27 335.147C616.87 364.927 624.17 398.067 624.17 434.567C624.17 461.467 619.17 485.287 609.18 506.037C599.18 526.787 586.71 545.517 571.72 562.227C556.73 578.947 540.6 593.837 523.31 606.897C506.02 619.967 489.88 631.967 474.9 642.917C459.91 653.867 447.43 664.337 437.44 674.327C427.44 684.327 422.45 694.497 422.45 704.877V755.047H220.73V670.867C220.73 656.657 224.48 643.207 231.97 630.527C239.46 617.847 248.97 605.557 260.5 593.647C272.02 581.747 284.31 570.017 297.38 558.487C310.43 546.957 322.74 534.957 334.26 522.467C345.79 509.987 355.3 497.017 362.79 483.567C370.28 470.127 374.03 455.327 374.03 439.187C374.03 428.437 372.3 418.067 368.84 408.067C365.38 398.077 360.29 389.337 353.57 381.847C346.85 374.357 338.68 368.307 329.08 363.697C319.47 359.087 308.52 356.777 296.23 356.777C280.09 356.777 267.03 359.657 257.04 365.427C247.04 371.187 239.26 378.687 233.7 387.897C228.12 397.117 224.38 407.687 222.46 419.597C220.53 431.507 219.58 443.617 219.58 455.907V471.757C219.58 476.947 219.96 482.227 220.73 487.607H3.45999C2.68999 479.927 1.91999 472.527 1.14999 465.417C0.379994 458.317 0 450.917 0 443.227C0 404.807 8.06999 370.237 24.21 339.487C40.34 308.757 62.72 282.537 91.35 260.817C119.97 239.107 153.97 222.487 193.36 210.967C232.74 199.437 275.68 193.677 322.17 193.677L322.18 193.667Z" fill="url(#paint1_linear_153_52)"/>
<path d="M425.28 829.337H221.37V1019.69H425.28V829.337Z" fill="url(#paint2_linear_153_52)"/>
<path d="M1268.62 178.407C1476.22 386.007 1502.67 706.107 1348.08 942.437L1405.74 1173.62L1183.12 1111.29C977.02 1253.44 702.98 1254.35 496.07 1113.97V104.727C733.18 -56.1828 1058.5 -31.7027 1268.62 178.407Z" fill="url(#paint3_linear_153_52)"/>
<path d="M555.8 178.408C537.16 150.538 517.11 126.068 496.07 104.728V1113.97C517.11 1092.63 537.15 1068.12 555.8 1040.24C715.02 802.248 715.02 416.398 555.8 178.408Z" fill="url(#paint4_linear_153_52)"/>
<path fill-rule="evenodd" clip-rule="evenodd" d="M835.441 434.822C848.31 434.822 858.839 445.097 859.167 457.916L859.237 461.022C841.15 456.819 829.731 456.819 811.644 461.022L811.714 457.916C812.042 445.097 822.572 434.822 835.441 434.822ZM1155.84 680.737C1153.57 723.915 1163.47 749.58 1183.01 751.14C1196.02 752.191 1212.84 742.313 1226.92 725.36C1241.34 708.033 1251.45 685.312 1255.21 662.173L1155.21 662.196C1155.98 667.754 1156.19 673.872 1155.84 680.737ZM946.234 807.399C966.755 710.609 958.518 679.458 945.579 662.2H816.953C819.667 677.612 826.055 692.206 837.24 708.692C843.16 717.425 864.687 745.191 887.524 769.757C927.723 812.958 940.779 813.004 942.979 812.561C943.54 812.444 945.228 812.116 946.234 807.399ZM1143.02 662.2C1143.89 667.384 1144.17 673.292 1143.79 680.11C1140 751.966 1169.3 762.122 1182.05 763.15C1199.67 764.551 1219.91 752.689 1236.22 733.074C1252.36 713.646 1263.59 688.076 1267.46 662.205H1284.19C1265.58 793.111 1153.08 891 1019.69 891C886.311 891 773.787 793.111 755.188 662.205H804.723C807.484 680.116 814.551 696.765 827.233 715.446C833.527 724.74 855.077 752.598 878.663 777.958C915.563 817.632 932.504 824.731 941.841 824.731C948.603 824.731 955.623 821.134 957.986 809.926C974.084 734.077 974.81 689.619 959.741 662.228L1143.02 662.2ZM1206.43 519.452C1200.63 523.188 1187.01 523.211 1181.02 519.732C1178.14 518.051 1177.16 514.361 1178.84 511.489C1180.53 508.617 1184.2 507.636 1187.1 509.317C1189.23 510.555 1197.96 510.532 1199.93 509.317C1206.88 505.091 1212.98 515.202 1206.43 519.452ZM1161.41 479.567V553.216C1161.41 587.239 1189.14 614.909 1223.21 614.909C1257.3 614.909 1285 587.237 1285 553.216V479.567H1161.41ZM1240.22 519.732C1233.36 515.739 1239.42 505.348 1246.28 509.317C1248.41 510.555 1257.14 510.508 1259.1 509.317C1266.05 505.091 1272.16 515.225 1265.63 519.452C1259.85 523.188 1246.21 523.188 1240.22 519.732ZM1223.21 575.986C1232.89 575.986 1241.72 572.11 1245.65 566.109C1247.47 563.33 1251.22 562.559 1254 564.381C1256.78 566.202 1257.58 569.938 1255.73 572.717C1242.56 592.729 1205.54 593.056 1191.43 573.814C1189.47 571.129 1190.05 567.37 1192.74 565.408C1195.44 563.447 1199.2 564.03 1201.17 566.716C1205.29 572.344 1213.94 575.986 1223.21 575.986ZM1019.68 461.329C999.489 461.329 980.114 458.97 963.478 454.603C959.968 486.945 985.262 514.897 1017.55 514.897C1049.49 514.897 1074.65 487.436 1071.72 455.631C1056.04 459.344 1038.21 461.329 1019.68 461.329ZM925.314 414.813C925.314 431.112 964.086 449.279 1019.68 449.279C1075.3 449.279 1114.05 431.112 1114.05 414.813C1114.05 412.081 1112.97 409.302 1110.87 406.546C1098.79 408.928 1085.55 410.796 1071.49 412.127C1067.95 412.454 1064.89 409.676 1064.89 406.126V373.528C1064.89 368.274 1060.61 364 1055.34 364H984.024C978.759 364 974.477 368.273 974.477 373.528V406.149C974.477 409.699 971.412 412.478 967.878 412.151C953.815 410.82 940.572 408.928 928.498 406.57C926.392 409.325 925.314 412.104 925.314 414.813ZM886.472 554.5C886.472 517.581 858.721 509.828 835.439 509.828C812.157 509.828 784.407 517.581 784.407 554.5C784.407 587.822 807.291 614.907 835.439 614.907C863.564 614.907 886.472 587.796 886.472 554.5ZM918.903 545.907L895.738 563.794L896.136 554.5C896.136 517.091 871.052 500.208 835.462 500.208C797.603 500.208 772.961 519.263 774.884 558.563L775.142 563.771L752 545.907L752.047 544.669C753.661 500.091 790.912 465.132 835.465 465.132C880.017 465.132 917.266 500.066 918.883 544.669L918.903 545.907Z" fill="white"/>
<defs>
<radialGradient id="paint0_radial_153_52" cx="0" cy="0" r="1" gradientUnits="userSpaceOnUse" gradientTransform="translate(968.102 951.819) scale(762.439 712.56)">
<stop stop-color="#1C7CFE"/>
<stop offset="0.02" stop-color="#2682FE"/>
<stop offset="0.12" stop-color="#599FFE"/>
<stop offset="0.23" stop-color="#85B8FE"/>
<stop offset="0.33" stop-color="#AACEFE"/>
<stop offset="0.45" stop-color="#C9E0FE"/>
<stop offset="0.56" stop-color="#E1EDFE"/>
<stop offset="0.69" stop-color="#F1F7FE"/>
<stop offset="0.83" stop-color="#FBFDFE"/>
<stop offset="1" stop-color="white"/>
</radialGradient>
<linearGradient id="paint1_linear_153_52" x1="450.87" y1="474.357" x2="165.09" y2="474.357" gradientUnits="userSpaceOnUse">
<stop stop-color="#002980"/>
<stop offset="0.13" stop-color="#002F8B"/>
<stop offset="0.46" stop-color="#003DA5"/>
<stop offset="0.76" stop-color="#0046B4"/>
<stop offset="1" stop-color="#0049BA"/>
</linearGradient>
<linearGradient id="paint2_linear_153_52" x1="450.87" y1="924.517" x2="165.09" y2="924.517" gradientUnits="userSpaceOnUse">
<stop stop-color="#002980"/>
<stop offset="0.13" stop-color="#002F8B"/>
<stop offset="0.46" stop-color="#003DA5"/>
<stop offset="0.76" stop-color="#0046B4"/>
<stop offset="1" stop-color="#0049BA"/>
</linearGradient>
<linearGradient id="paint3_linear_153_52" x1="1183.03" y1="609.29" x2="747.606" y2="609.29" gradientUnits="userSpaceOnUse">
<stop stop-color="#002980"/>
<stop offset="0.13" stop-color="#002F8B"/>
<stop offset="0.46" stop-color="#003DA5"/>
<stop offset="0.76" stop-color="#0046B4"/>
<stop offset="1" stop-color="#0049BA"/>
</linearGradient>
<linearGradient id="paint4_linear_153_52" x1="497.6" y1="609.348" x2="792.23" y2="609.348" gradientUnits="userSpaceOnUse">
<stop stop-color="white"/>
<stop offset="0.16" stop-color="#9A9A9A"/>
<stop offset="0.36" stop-color="white"/>
<stop offset="0.4" stop-color="#F8F8F8"/>
<stop offset="0.46" stop-color="#E7E7E7"/>
<stop offset="0.52" stop-color="#CACACA"/>
<stop offset="0.6" stop-color="#A2A2A2"/>
<stop offset="0.67" stop-color="#6F6F6F"/>
<stop offset="0.74" stop-color="#3E3E3E"/>
<stop offset="0.89" stop-color="white"/>
<stop offset="1" stop-color="#9A9A9A"/>
</linearGradient>
</defs>
</svg>
