<svg width="1729" height="1665" viewBox="0 0 1729 1665" fill="none" xmlns="http://www.w3.org/2000/svg">
<path style="mix-blend-mode:multiply" d="M966.83 1664.37C1387.49 1664.37 1728.5 1345.35 1728.5 951.819C1728.5 558.289 1387.49 239.27 966.83 239.27C546.171 239.27 205.16 558.289 205.16 951.819C205.16 1345.35 546.171 1664.37 966.83 1664.37Z" fill="url(#paint0_radial_154_154)"/>
<path d="M322.18 193.668C367.13 193.668 408.15 199.338 445.23 210.668C482.31 222.008 514.1 238.138 540.61 259.078C567.12 280.028 587.67 305.378 602.27 335.148C616.87 364.928 624.17 398.068 624.17 434.568C624.17 461.468 619.17 485.288 609.18 506.038C599.18 526.788 586.71 545.518 571.72 562.228C556.73 578.948 540.6 593.838 523.31 606.898C506.02 619.968 489.88 631.968 474.9 642.918C459.91 653.868 447.43 664.338 437.44 674.328C427.44 684.328 422.45 694.498 422.45 704.878V755.048H220.73V670.868C220.73 656.658 224.48 643.208 231.97 630.528C239.46 617.848 248.97 605.558 260.5 593.648C272.02 581.748 284.31 570.018 297.38 558.488C310.43 546.958 322.74 534.958 334.26 522.468C345.79 509.988 355.3 497.018 362.79 483.568C370.28 470.128 374.03 455.328 374.03 439.188C374.03 428.438 372.3 418.068 368.84 408.068C365.38 398.078 360.29 389.338 353.57 381.848C346.85 374.358 338.68 368.308 329.08 363.698C319.47 359.088 308.52 356.778 296.23 356.778C280.09 356.778 267.03 359.658 257.04 365.428C247.04 371.188 239.26 378.688 233.7 387.898C228.12 397.118 224.38 407.688 222.46 419.598C220.53 431.508 219.58 443.618 219.58 455.908V471.758C219.58 476.948 219.96 482.228 220.73 487.608H3.45999C2.68999 479.928 1.91999 472.528 1.14999 465.418C0.379994 458.318 0 450.918 0 443.228C0 404.808 8.06999 370.238 24.21 339.488C40.34 308.758 62.72 282.538 91.35 260.818C119.97 239.108 153.97 222.488 193.36 210.968C232.74 199.438 275.68 193.678 322.17 193.678L322.18 193.668Z" fill="url(#paint1_linear_154_154)"/>
<path d="M425.28 829.338H221.37V1019.69H425.28V829.338Z" fill="url(#paint2_linear_154_154)"/>
<path d="M1268.62 178.407C1476.22 386.007 1502.67 706.107 1348.08 942.437L1405.74 1173.62L1183.12 1111.29C977.02 1253.44 702.98 1254.35 496.07 1113.97V104.727C733.18 -56.1828 1058.5 -31.7027 1268.62 178.407Z" fill="url(#paint3_linear_154_154)"/>
<path d="M555.8 178.407C537.16 150.537 517.11 126.067 496.07 104.727V1113.97C517.11 1092.63 537.15 1068.12 555.8 1040.24C715.02 802.247 715.02 416.397 555.8 178.407Z" fill="url(#paint4_linear_154_154)"/>
<path fill-rule="evenodd" clip-rule="evenodd" d="M1208.91 758.008C1204.4 753.518 1198.29 750.997 1191.92 750.997C1185.56 750.997 1179.45 753.518 1174.94 758.008L1150.05 782.891C1145.6 787.397 1143.1 793.477 1143.1 799.811C1143.1 806.146 1145.6 812.225 1150.05 816.732L1240.89 907.554C1248.73 915.022 1259.18 919.129 1270.01 918.997C1280.84 918.865 1291.19 914.505 1298.85 906.847C1306.5 899.19 1310.86 888.842 1311 878.014C1311.13 867.185 1307.02 856.734 1299.55 848.893L1208.91 758.008ZM1044.29 404.672C1048.51 404.672 1052.56 406.35 1055.55 409.336C1058.54 412.323 1060.22 416.373 1060.22 420.597C1060.22 424.821 1058.54 428.871 1055.55 431.858C1052.56 434.844 1048.51 436.522 1044.29 436.522C1042.77 436.538 1041.26 436.328 1039.81 435.9L987.24 491.202C987.907 492.973 988.264 494.846 988.298 496.738C988.205 500.812 986.554 504.695 983.685 507.588C980.815 510.481 976.946 512.165 972.873 512.292C968.801 512.42 964.834 510.982 961.789 508.273C958.745 505.565 956.854 501.793 956.506 497.734L910.344 477.454C907.523 479.779 903.983 481.054 900.327 481.062C898.326 481.046 896.345 480.666 894.479 479.942L843.713 524.483C844.018 525.745 844.164 527.041 844.148 528.34C844.148 531.489 843.214 534.568 841.464 537.187C839.714 539.806 837.227 541.847 834.317 543.052C831.406 544.258 828.204 544.573 825.115 543.959C822.025 543.344 819.187 541.827 816.96 539.6C814.732 537.373 813.216 534.536 812.601 531.446C811.986 528.357 812.302 525.155 813.507 522.245C814.713 519.335 816.754 516.848 819.373 515.098C821.992 513.349 825.072 512.415 828.222 512.415C830.226 512.395 832.214 512.776 834.07 513.534L884.836 468.994C884.141 466.806 883.928 464.493 884.211 462.214C884.494 459.936 885.266 457.745 886.475 455.793C887.683 453.841 889.3 452.173 891.214 450.904C893.127 449.635 895.293 448.795 897.561 448.441C899.83 448.087 902.149 448.228 904.358 448.854C906.567 449.48 908.615 450.576 910.361 452.067C912.107 453.559 913.51 455.41 914.473 457.494C915.437 459.578 915.938 461.846 915.943 464.142L962.292 484.297C965.119 481.99 968.66 480.736 972.309 480.751C973.824 480.736 975.334 480.945 976.788 481.373L1029.36 426.071C1028.78 424.368 1028.49 422.582 1028.49 420.784C1028.46 418.687 1028.85 416.606 1029.63 414.661C1030.42 412.715 1031.57 410.943 1033.04 409.446C1034.51 407.949 1036.26 406.757 1038.19 405.938C1040.12 405.118 1042.19 404.688 1044.29 404.672ZM1029.23 487.096C1027.98 487.104 1026.74 487.361 1025.58 487.85C1024.43 488.34 1023.38 489.054 1022.5 489.95C1021.62 490.846 1020.93 491.907 1020.46 493.072C1019.99 494.237 1019.76 495.483 1019.78 496.738V675.273C1040.02 662.653 1056.96 645.377 1069.18 624.885V496.738C1069.18 494.225 1068.18 491.813 1066.41 490.03C1064.64 488.247 1062.23 487.237 1059.72 487.221L1029.23 487.096ZM812.979 581.153H843.34C845.853 581.153 848.265 582.148 850.048 583.919C851.832 585.69 852.842 588.095 852.858 590.609V669.425C831.177 653.782 814.13 632.567 803.523 608.027V590.609C803.523 588.101 804.519 585.696 806.293 583.923C808.066 582.15 810.471 581.153 812.979 581.153ZM885.085 525.851C882.577 525.851 880.172 526.848 878.398 528.621C876.625 530.394 875.629 532.799 875.629 535.307V683.36C891.109 690.878 907.784 695.636 924.902 697.418V535.68C924.902 534.438 924.657 533.209 924.182 532.062C923.707 530.914 923.01 529.872 922.132 528.994C921.254 528.116 920.211 527.419 919.064 526.944C917.917 526.469 916.687 526.225 915.445 526.225L885.085 525.851ZM957.191 553.471H987.551C990.07 553.488 992.482 554.496 994.264 556.277C996.045 558.058 997.053 560.47 997.07 562.989V686.968C981.356 693.344 964.674 697.004 947.734 697.792V562.989C947.734 560.475 948.728 558.064 950.5 556.281C952.272 554.498 954.677 553.488 957.191 553.471ZM940.58 384.766C903.185 384.75 866.906 397.503 837.749 420.915C808.592 444.326 788.305 476.992 780.247 513.504C772.188 550.016 776.841 588.185 793.436 621.692C810.031 655.199 837.572 682.035 871.5 697.758C905.428 713.48 943.708 717.146 980.004 708.148C1016.3 699.15 1048.43 678.029 1071.09 648.28C1093.74 618.531 1105.55 581.939 1104.57 544.562C1103.59 507.184 1089.87 471.262 1065.69 442.743C1068.78 439.736 1071.2 436.109 1072.79 432.101C1074.37 428.093 1075.09 423.794 1074.9 419.487C1074.71 415.181 1073.6 410.964 1071.66 407.114C1069.72 403.264 1066.99 399.868 1063.65 397.15C1060.3 394.432 1056.42 392.452 1052.25 391.342C1048.08 390.232 1043.73 390.017 1039.47 390.71C1035.22 391.403 1031.16 392.988 1027.56 395.363C1023.96 397.737 1020.91 400.846 1018.6 404.485C994.642 391.508 967.823 384.729 940.58 384.766ZM1118.57 691.447L1170.33 743.265C1168.33 744.62 1166.45 746.162 1164.74 747.868L1139.85 772.751C1138.14 774.469 1136.6 776.343 1135.25 778.35L1083.48 726.531C1096.42 716.147 1108.19 704.382 1118.57 691.447ZM940.58 335C982.839 334.988 1024.15 347.507 1059.3 370.975C1094.44 394.443 1121.83 427.806 1138.01 466.842C1154.19 505.878 1158.42 548.835 1150.18 590.279C1141.94 631.723 1121.59 669.792 1091.71 699.671C1061.83 729.549 1023.75 749.896 982.306 758.137C940.858 766.377 897.896 762.142 858.856 745.965C819.815 729.789 786.45 702.4 762.979 667.261C739.509 632.122 726.988 590.812 727 548.557C727 491.918 749.502 437.599 789.556 397.549C829.61 357.5 883.935 335 940.58 335Z" fill="white"/>
<defs>
<radialGradient id="paint0_radial_154_154" cx="0" cy="0" r="1" gradientUnits="userSpaceOnUse" gradientTransform="translate(968.102 951.819) scale(762.439 712.56)">
<stop stop-color="#1C7CFE"/>
<stop offset="0.02" stop-color="#2682FE"/>
<stop offset="0.12" stop-color="#599FFE"/>
<stop offset="0.23" stop-color="#85B8FE"/>
<stop offset="0.33" stop-color="#AACEFE"/>
<stop offset="0.45" stop-color="#C9E0FE"/>
<stop offset="0.56" stop-color="#E1EDFE"/>
<stop offset="0.69" stop-color="#F1F7FE"/>
<stop offset="0.83" stop-color="#FBFDFE"/>
<stop offset="1" stop-color="white"/>
</radialGradient>
<linearGradient id="paint1_linear_154_154" x1="450.87" y1="474.358" x2="165.09" y2="474.358" gradientUnits="userSpaceOnUse">
<stop stop-color="#002980"/>
<stop offset="0.13" stop-color="#002F8B"/>
<stop offset="0.46" stop-color="#003DA5"/>
<stop offset="0.76" stop-color="#0046B4"/>
<stop offset="1" stop-color="#0049BA"/>
</linearGradient>
<linearGradient id="paint2_linear_154_154" x1="450.87" y1="924.518" x2="165.09" y2="924.518" gradientUnits="userSpaceOnUse">
<stop stop-color="#002980"/>
<stop offset="0.13" stop-color="#002F8B"/>
<stop offset="0.46" stop-color="#003DA5"/>
<stop offset="0.76" stop-color="#0046B4"/>
<stop offset="1" stop-color="#0049BA"/>
</linearGradient>
<linearGradient id="paint3_linear_154_154" x1="1183.03" y1="609.29" x2="747.607" y2="609.29" gradientUnits="userSpaceOnUse">
<stop stop-color="#002980"/>
<stop offset="0.13" stop-color="#002F8B"/>
<stop offset="0.46" stop-color="#003DA5"/>
<stop offset="0.76" stop-color="#0046B4"/>
<stop offset="1" stop-color="#0049BA"/>
</linearGradient>
<linearGradient id="paint4_linear_154_154" x1="497.6" y1="609.347" x2="792.23" y2="609.347" gradientUnits="userSpaceOnUse">
<stop stop-color="white"/>
<stop offset="0.16" stop-color="#9A9A9A"/>
<stop offset="0.36" stop-color="white"/>
<stop offset="0.4" stop-color="#F8F8F8"/>
<stop offset="0.46" stop-color="#E7E7E7"/>
<stop offset="0.52" stop-color="#CACACA"/>
<stop offset="0.6" stop-color="#A2A2A2"/>
<stop offset="0.67" stop-color="#6F6F6F"/>
<stop offset="0.74" stop-color="#3E3E3E"/>
<stop offset="0.89" stop-color="white"/>
<stop offset="1" stop-color="#9A9A9A"/>
</linearGradient>
</defs>
</svg>
