<svg width="1729" height="1665" viewBox="0 0 1729 1665" fill="none" xmlns="http://www.w3.org/2000/svg">
<path style="mix-blend-mode:multiply" d="M966.83 1664.37C1387.49 1664.37 1728.5 1345.35 1728.5 951.819C1728.5 558.289 1387.49 239.27 966.83 239.27C546.171 239.27 205.16 558.289 205.16 951.819C205.16 1345.35 546.171 1664.37 966.83 1664.37Z" fill="url(#paint0_radial_154_71)"/>
<path d="M322.18 193.667C367.13 193.667 408.15 199.337 445.23 210.667C482.31 222.007 514.1 238.137 540.61 259.077C567.12 280.027 587.67 305.377 602.27 335.147C616.87 364.927 624.17 398.067 624.17 434.567C624.17 461.467 619.17 485.287 609.18 506.037C599.18 526.787 586.71 545.517 571.72 562.227C556.73 578.947 540.6 593.837 523.31 606.897C506.02 619.967 489.88 631.967 474.9 642.917C459.91 653.867 447.43 664.337 437.44 674.327C427.44 684.327 422.45 694.497 422.45 704.877V755.047H220.73V670.867C220.73 656.657 224.48 643.207 231.97 630.527C239.46 617.847 248.97 605.557 260.5 593.647C272.02 581.747 284.31 570.017 297.38 558.487C310.43 546.957 322.74 534.957 334.26 522.467C345.79 509.987 355.3 497.017 362.79 483.567C370.28 470.127 374.03 455.327 374.03 439.187C374.03 428.437 372.3 418.067 368.84 408.067C365.38 398.077 360.29 389.337 353.57 381.847C346.85 374.357 338.68 368.307 329.08 363.697C319.47 359.087 308.52 356.777 296.23 356.777C280.09 356.777 267.03 359.657 257.04 365.427C247.04 371.187 239.26 378.687 233.7 387.897C228.12 397.117 224.38 407.687 222.46 419.597C220.53 431.507 219.58 443.617 219.58 455.907V471.757C219.58 476.947 219.96 482.227 220.73 487.607H3.45999C2.68999 479.927 1.91999 472.527 1.14999 465.417C0.379994 458.317 0 450.917 0 443.227C0 404.807 8.06999 370.237 24.21 339.487C40.34 308.757 62.72 282.537 91.35 260.817C119.97 239.107 153.97 222.487 193.36 210.967C232.74 199.437 275.68 193.677 322.17 193.677L322.18 193.667Z" fill="url(#paint1_linear_154_71)"/>
<path d="M425.28 829.337H221.37V1019.69H425.28V829.337Z" fill="url(#paint2_linear_154_71)"/>
<path d="M1268.62 178.407C1476.22 386.007 1502.67 706.107 1348.08 942.437L1405.74 1173.62L1183.12 1111.29C977.02 1253.44 702.98 1254.35 496.07 1113.97V104.727C733.18 -56.1828 1058.5 -31.7027 1268.62 178.407Z" fill="url(#paint3_linear_154_71)"/>
<path d="M555.8 178.408C537.16 150.538 517.11 126.068 496.07 104.728V1113.97C517.11 1092.63 537.15 1068.12 555.8 1040.24C715.02 802.248 715.02 416.398 555.8 178.408Z" fill="url(#paint4_linear_154_71)"/>
<path d="M971.621 761.913H1138.32C1172.03 746.147 1200.55 721.101 1220.58 690.086C1240.42 659.354 1251.95 622.7 1251.95 583.352C1251.95 579.742 1251.87 576.515 1251.74 573.633L1251.39 568.855C1248.7 568.644 1245.91 569.028 1243.13 570.155C1238.54 572.058 1235.2 575.583 1233.44 579.749C1231.64 583.987 1231.45 588.929 1233.31 593.518L1241.21 613.02C1242.58 616.403 1240.94 620.272 1237.56 621.643L1202.23 635.944C1191.1 640.447 1179.12 639.985 1168.82 635.623C1165.73 634.323 1162.82 632.678 1160.11 630.72C1159.53 634.001 1158.58 637.213 1157.29 640.267C1152.96 650.472 1144.79 659.072 1133.84 663.622L1020.77 709.408C1009.78 713.84 997.96 713.441 987.551 709.157C977.041 704.708 968.379 696.414 963.868 685.285L951 653.503L940.011 657.952C932.203 660.983 923.815 660.607 916.586 657.552C909.389 654.506 903.295 648.773 900.021 641.082L899.606 640.056C896.599 632.263 896.975 623.906 900.029 616.693C903.107 609.433 908.895 603.308 916.641 600.058L927.582 595.625L918.239 572.568C913.751 561.431 914.205 549.463 918.56 539.156C922.93 528.834 931.224 520.164 942.345 515.661L974.096 502.808L968.073 487.928C964.862 479.994 965.183 471.441 968.301 464.071C971.425 456.694 977.354 450.491 985.296 447.272C993.261 444.061 1001.81 444.405 1009.15 447.515C1016.54 450.64 1022.74 456.568 1025.95 464.502L1031.97 479.383L1055.08 470.024C1066.07 465.591 1077.89 465.99 1088.3 470.274C1091.58 471.653 1094.49 473.297 1097.19 475.255C1097.77 471.966 1098.73 468.763 1100.02 465.7C1104.38 455.386 1112.67 446.724 1123.81 442.212L1170.11 423.471C1155.14 412.678 1138.58 403.922 1120.84 397.633C1100.28 390.334 1078.09 386.355 1054.95 386.355C1000.55 386.355 951.297 408.41 915.654 444.053C880.011 479.696 857.956 528.951 857.956 583.352C857.956 622.598 869.43 659.166 889.182 689.851C909.208 720.968 937.819 746.1 971.621 761.913ZM1099.69 499.104C1096.56 491.35 1090.5 485.57 1083.16 482.453C1075.9 479.477 1067.68 479.218 1060.04 482.296L1030.8 494.146C1027.42 495.517 1023.55 493.872 1022.18 490.489L1013.67 469.468C1011.82 464.894 1008.26 461.471 1004.03 459.686C999.793 457.892 994.851 457.696 990.261 459.545C985.68 461.409 982.257 464.972 980.471 469.194C978.678 473.431 978.498 478.38 980.354 482.962L988.859 503.975C990.23 507.359 988.585 511.228 985.202 512.598L947.311 527.941C939.542 531.09 933.762 537.12 930.731 544.279C927.692 551.468 927.379 559.833 930.511 567.602L942.345 596.8C943.716 600.183 942.071 604.052 938.688 605.423L921.841 612.244C917.338 614.108 913.97 617.641 912.2 621.815C910.407 626.044 910.219 630.986 912.145 635.756C914.088 640.345 917.589 643.635 921.708 645.381C925.945 647.175 930.895 647.355 935.477 645.499L952.198 638.748C955.574 637.393 959.427 639.037 960.79 642.405L976.148 680.32C979.289 688.073 985.343 693.861 992.689 696.978C999.949 699.954 1008.17 700.213 1015.81 697.135L1128.81 651.381C1136.44 648.224 1142.11 642.241 1145.11 635.145C1148.15 627.963 1148.47 619.599 1145.33 611.829L1136.99 591.239L1123.52 596.682C1115.68 599.744 1107.28 599.376 1100.03 596.314C1092.65 593.197 1086.45 587.252 1083.23 579.295C1080.02 571.361 1080.35 562.817 1083.46 555.463C1086.58 548.101 1092.51 541.898 1100.46 538.679L1113.57 533.361L1099.69 499.104ZM1111.77 493.661L1128.33 534.536C1129.7 537.919 1128.06 541.788 1124.67 543.159L1105.42 550.951C1100.83 552.8 1097.42 556.363 1095.63 560.585C1093.84 564.83 1093.65 569.787 1095.51 574.377C1097.36 578.951 1100.92 582.358 1105.15 584.143C1109.31 585.905 1114.15 586.117 1118.67 584.378L1138.16 576.476C1141.54 575.105 1145.41 576.75 1146.78 580.133L1157.61 606.879C1160.76 614.625 1166.79 620.405 1173.98 623.452C1181.13 626.483 1189.45 626.804 1197.19 623.695L1226.45 611.845L1221.04 598.484C1217.82 590.503 1218.15 581.974 1221.26 574.627C1224.34 567.383 1230.13 561.266 1238.09 557.914C1245.22 555.024 1252.62 554.93 1260.04 557.272C1260.75 557.515 1261.45 557.789 1262.12 558.063C1269.46 561.164 1275.62 567.038 1278.85 574.894L1284.33 588.427L1310.35 577.885C1317.82 574.761 1323.42 568.934 1326.5 561.838C1329.57 554.625 1329.92 546.424 1326.97 538.788C1311.48 501.179 1296.5 463.32 1281.16 425.648C1278.02 417.886 1271.97 412.106 1264.79 409.06C1257.67 406.044 1249.38 405.715 1241.68 408.778L1128.78 454.485C1121.02 457.61 1115.24 463.664 1112.19 470.854C1109.21 477.887 1108.85 486.04 1111.77 493.661ZM896.168 379.933C899.943 383.896 899.779 390.185 895.816 393.96C891.853 397.735 885.564 397.57 881.789 393.607L821.749 330.756C817.974 326.793 818.138 320.504 822.101 316.729C826.064 312.954 832.353 313.118 836.128 317.081L896.168 379.933ZM831.374 480.464C836.027 483.362 837.46 489.494 834.562 494.146C831.664 498.798 825.532 500.232 820.88 497.334L745.129 450.193C740.477 447.295 739.043 441.163 741.941 436.511C744.839 431.859 750.971 430.425 755.624 433.323L831.374 480.464ZM810.416 581.089C815.906 581.089 820.363 585.545 820.363 591.035C820.363 596.526 815.906 600.982 810.416 600.982H718.947C713.456 600.982 709 596.526 709 591.035C709 585.545 713.456 581.089 718.947 581.089H810.416ZM994.013 856.186H1115.42C1117.81 849.874 1119.6 843.177 1120.75 836.27L1123.08 822.321H986.361L988.695 836.27C989.846 843.177 991.632 849.874 994.013 856.186ZM1109.2 869.454H1000.23C1003.58 875.328 1007.55 880.646 1012.28 885.423C1023.37 896.505 1037.65 903.28 1054.73 903.28C1071.79 903.28 1086.07 896.505 1096.98 885.595C1101.66 880.912 1105.75 875.461 1109.2 869.454ZM984.145 809.054H1125.3L1130.96 775.18H978.482L984.145 809.054Z" fill="white"/>
<defs>
<radialGradient id="paint0_radial_154_71" cx="0" cy="0" r="1" gradientUnits="userSpaceOnUse" gradientTransform="translate(968.102 951.819) scale(762.439 712.56)">
<stop stop-color="#1C7CFE"/>
<stop offset="0.02" stop-color="#2682FE"/>
<stop offset="0.12" stop-color="#599FFE"/>
<stop offset="0.23" stop-color="#85B8FE"/>
<stop offset="0.33" stop-color="#AACEFE"/>
<stop offset="0.45" stop-color="#C9E0FE"/>
<stop offset="0.56" stop-color="#E1EDFE"/>
<stop offset="0.69" stop-color="#F1F7FE"/>
<stop offset="0.83" stop-color="#FBFDFE"/>
<stop offset="1" stop-color="white"/>
</radialGradient>
<linearGradient id="paint1_linear_154_71" x1="450.87" y1="474.357" x2="165.09" y2="474.357" gradientUnits="userSpaceOnUse">
<stop stop-color="#002980"/>
<stop offset="0.13" stop-color="#002F8B"/>
<stop offset="0.46" stop-color="#003DA5"/>
<stop offset="0.76" stop-color="#0046B4"/>
<stop offset="1" stop-color="#0049BA"/>
</linearGradient>
<linearGradient id="paint2_linear_154_71" x1="450.87" y1="924.517" x2="165.09" y2="924.517" gradientUnits="userSpaceOnUse">
<stop stop-color="#002980"/>
<stop offset="0.13" stop-color="#002F8B"/>
<stop offset="0.46" stop-color="#003DA5"/>
<stop offset="0.76" stop-color="#0046B4"/>
<stop offset="1" stop-color="#0049BA"/>
</linearGradient>
<linearGradient id="paint3_linear_154_71" x1="1183.03" y1="609.29" x2="747.607" y2="609.29" gradientUnits="userSpaceOnUse">
<stop stop-color="#002980"/>
<stop offset="0.13" stop-color="#002F8B"/>
<stop offset="0.46" stop-color="#003DA5"/>
<stop offset="0.76" stop-color="#0046B4"/>
<stop offset="1" stop-color="#0049BA"/>
</linearGradient>
<linearGradient id="paint4_linear_154_71" x1="497.6" y1="609.348" x2="792.23" y2="609.348" gradientUnits="userSpaceOnUse">
<stop stop-color="white"/>
<stop offset="0.16" stop-color="#9A9A9A"/>
<stop offset="0.36" stop-color="white"/>
<stop offset="0.4" stop-color="#F8F8F8"/>
<stop offset="0.46" stop-color="#E7E7E7"/>
<stop offset="0.52" stop-color="#CACACA"/>
<stop offset="0.6" stop-color="#A2A2A2"/>
<stop offset="0.67" stop-color="#6F6F6F"/>
<stop offset="0.74" stop-color="#3E3E3E"/>
<stop offset="0.89" stop-color="white"/>
<stop offset="1" stop-color="#9A9A9A"/>
</linearGradient>
</defs>
</svg>
