<svg width="1729" height="1665" viewBox="0 0 1729 1665" fill="none" xmlns="http://www.w3.org/2000/svg">
<path style="mix-blend-mode:multiply" d="M966.83 1664.37C1387.49 1664.37 1728.5 1345.35 1728.5 951.819C1728.5 558.289 1387.49 239.27 966.83 239.27C546.171 239.27 205.16 558.289 205.16 951.819C205.16 1345.35 546.171 1664.37 966.83 1664.37Z" fill="url(#paint0_radial_154_232)"/>
<path d="M322.18 193.667C367.13 193.667 408.15 199.337 445.23 210.667C482.31 222.007 514.1 238.137 540.61 259.077C567.12 280.027 587.67 305.377 602.27 335.147C616.87 364.927 624.17 398.067 624.17 434.567C624.17 461.467 619.17 485.287 609.18 506.037C599.18 526.787 586.71 545.517 571.72 562.227C556.73 578.947 540.6 593.837 523.31 606.897C506.02 619.967 489.88 631.967 474.9 642.917C459.91 653.867 447.43 664.337 437.44 674.327C427.44 684.327 422.45 694.497 422.45 704.877V755.047H220.73V670.867C220.73 656.657 224.48 643.207 231.97 630.527C239.46 617.847 248.97 605.557 260.5 593.647C272.02 581.747 284.31 570.017 297.38 558.487C310.43 546.957 322.74 534.957 334.26 522.467C345.79 509.987 355.3 497.017 362.79 483.567C370.28 470.127 374.03 455.327 374.03 439.187C374.03 428.437 372.3 418.067 368.84 408.067C365.38 398.077 360.29 389.337 353.57 381.847C346.85 374.357 338.68 368.307 329.08 363.697C319.47 359.087 308.52 356.777 296.23 356.777C280.09 356.777 267.03 359.657 257.04 365.427C247.04 371.187 239.26 378.687 233.7 387.897C228.12 397.117 224.38 407.687 222.46 419.597C220.53 431.507 219.58 443.617 219.58 455.907V471.757C219.58 476.947 219.96 482.227 220.73 487.607H3.45999C2.68999 479.927 1.91999 472.527 1.14999 465.417C0.379994 458.317 0 450.917 0 443.227C0 404.807 8.06999 370.237 24.21 339.487C40.34 308.757 62.72 282.537 91.35 260.817C119.97 239.107 153.97 222.487 193.36 210.967C232.74 199.437 275.68 193.677 322.17 193.677L322.18 193.667Z" fill="url(#paint1_linear_154_232)"/>
<path d="M425.28 829.337H221.37V1019.69H425.28V829.337Z" fill="url(#paint2_linear_154_232)"/>
<path d="M1268.62 178.407C1476.22 386.007 1502.67 706.107 1348.08 942.437L1405.74 1173.62L1183.12 1111.29C977.02 1253.44 702.98 1254.35 496.07 1113.97V104.727C733.18 -56.1828 1058.5 -31.7027 1268.62 178.407Z" fill="url(#paint3_linear_154_232)"/>
<path d="M555.8 178.408C537.16 150.538 517.11 126.068 496.07 104.728V1113.97C517.11 1092.63 537.15 1068.12 555.8 1040.24C715.02 802.248 715.02 416.398 555.8 178.408Z" fill="url(#paint4_linear_154_232)"/>
<path fill-rule="evenodd" clip-rule="evenodd" d="M1212.6 346.038C1208.41 343.572 1202.98 345.042 1200.52 349.239L1183.99 377.888C1181.52 382.086 1182.99 387.635 1187.18 389.983C1191.38 392.449 1196.8 390.979 1199.26 386.781L1215.8 358.133C1218.28 353.959 1216.79 348.505 1212.6 346.038Z" fill="white"/>
<path fill-rule="evenodd" clip-rule="evenodd" d="M1278.99 432.264C1283.18 429.797 1284.67 424.367 1282.19 420.169C1279.72 415.971 1274.3 414.477 1270.11 416.967L1241.49 433.521C1237.3 435.987 1235.81 441.418 1238.3 445.616C1240.76 449.932 1246.18 451.308 1250.38 448.817L1278.99 432.264Z" fill="white"/>
<path fill-rule="evenodd" clip-rule="evenodd" d="M1032.38 386.916C1034.84 391.113 1040.26 392.607 1044.46 390.117C1048.65 387.651 1050.14 382.22 1047.65 378.022L1031.12 349.374C1028.66 345.176 1023.23 343.682 1019.04 346.173C1014.85 348.639 1013.36 354.07 1015.84 358.267L1032.38 386.916Z" fill="white"/>
<path fill-rule="evenodd" clip-rule="evenodd" d="M1291.92 512.305H1258.88C1253.96 512.305 1250 516.265 1250 521.198C1250 526.13 1253.96 530.091 1258.88 530.091H1291.95C1296.88 530.091 1300.83 526.13 1300.83 521.198C1300.81 516.265 1296.88 512.305 1291.92 512.305Z" fill="white"/>
<path fill-rule="evenodd" clip-rule="evenodd" d="M1115.89 369.869C1120.82 369.869 1124.77 365.908 1124.77 360.976V327.893C1124.77 322.96 1120.82 319 1115.89 319C1110.96 319 1107.01 322.96 1107.01 327.893V360.999C1107.01 365.932 1110.96 369.869 1115.89 369.869Z" fill="white"/>
<path fill-rule="evenodd" clip-rule="evenodd" d="M1085.55 762.549C1076.29 758.968 1069.63 749.956 1069.63 739.332V728.589C1061.48 724.889 1055.82 716.731 1055.82 707.222C1055.82 700.297 1058.9 694.012 1063.71 689.672C1058.9 685.356 1055.82 679.166 1055.82 672.123C1055.82 662.993 1061.01 655.072 1068.66 651.254C1065.2 621.23 1051.89 603.206 1037.82 584.186C1021.79 562.32 1005.13 539.838 1003.29 499.069C1001.79 467.693 1013.78 437.198 1035.24 415.069C964.179 389.504 865.857 400.129 808.847 483.867C787.008 515.978 773.555 562.913 792.693 595.66C802.309 609.866 799.112 624.688 790.727 638.656C766.165 674.965 766.425 686.822 767.657 690.166C768.77 693.13 774.076 693.51 776.918 693.984C782.839 695.099 789.614 696.332 793.214 702.143C796.554 707.455 795.677 716.111 793.451 721.779C790.869 728.443 789.756 733.518 797.904 734.988C802.357 735.842 804.204 741.154 801.362 744.617C795.061 752.277 799.017 757.968 805.815 763.518C820.856 771.795 813.584 794.893 810.742 803.55C810.363 809.478 812.471 812.063 814.081 813.557C819.624 818.632 834.807 822.83 875.76 814.672C912.639 807.391 935.473 819.866 945.468 853.091H1105.89C1097.25 831.723 1090.85 809.976 1087.13 789.842C1085.29 780.332 1084.79 771.323 1085.55 762.549ZM972.897 530.092H939.832C934.905 530.092 930.95 526.131 930.95 521.199C930.95 516.266 934.905 512.306 939.832 512.306H972.897C977.824 512.306 981.779 516.266 981.779 521.199C981.779 526.131 977.705 530.092 972.897 530.092ZM993.504 445.594C991.04 449.792 985.616 451.286 981.424 448.795L952.811 432.242C948.618 429.776 947.126 424.345 949.613 420.147C952.077 415.949 957.501 414.455 961.693 416.946L990.306 433.499C994.499 435.847 995.967 441.277 993.504 445.594Z" fill="white"/>
<path fill-rule="evenodd" clip-rule="evenodd" d="M1170.8 409.41C1137.35 387.663 1094.17 387.663 1060.87 409.41C1031.02 428.809 1013.5 463.03 1015.23 498.6C1016.96 535.786 1031.76 555.92 1047.56 577.167C1061.75 596.448 1076.43 616.321 1080.5 648.812H1096.42V590.378L1076.55 572.591C1074.09 570.362 1073.97 566.662 1076.05 564.196C1078.28 561.73 1081.97 561.611 1084.44 563.698L1106.16 583.334C1107.39 584.449 1108.12 586.062 1108.12 587.793V648.814H1123.54V587.793C1123.54 586.062 1124.28 584.449 1125.51 583.334L1147.23 563.698C1149.69 561.469 1153.39 561.73 1155.61 564.196C1157.84 566.662 1157.58 570.362 1155.12 572.591L1135.39 590.378V648.812H1151.3C1155.49 614.473 1170.18 595.69 1184.37 577.549C1200.02 557.533 1214.71 538.632 1216.56 498.625C1218.17 463.028 1200.64 428.807 1170.8 409.41Z" fill="white"/>
<path fill-rule="evenodd" clip-rule="evenodd" d="M1152.41 695.741H1079.25C1072.83 695.741 1067.64 700.935 1067.64 707.362C1067.64 713.789 1072.83 718.983 1079.11 718.983H1152.39C1158.69 718.983 1163.85 713.908 1163.85 707.505C1164 700.912 1158.81 695.741 1152.41 695.741Z" fill="white"/>
<path fill-rule="evenodd" clip-rule="evenodd" d="M1081.48 739.332C1081.48 746.613 1087.4 752.304 1094.43 752.304H1137.11C1144.27 752.304 1150.07 746.494 1150.07 739.332V730.558H1081.36L1081.48 739.332Z" fill="white"/>
<path fill-rule="evenodd" clip-rule="evenodd" d="M1152.41 660.785H1079.25C1072.83 660.785 1067.64 665.979 1067.64 672.406C1067.64 678.833 1072.83 684.027 1079.11 684.027H1152.39C1158.69 684.027 1163.85 678.952 1163.85 672.549C1164 665.956 1158.81 660.785 1152.41 660.785Z" fill="white"/>
<defs>
<radialGradient id="paint0_radial_154_232" cx="0" cy="0" r="1" gradientUnits="userSpaceOnUse" gradientTransform="translate(968.102 951.819) scale(762.439 712.56)">
<stop stop-color="#1C7CFE"/>
<stop offset="0.02" stop-color="#2682FE"/>
<stop offset="0.12" stop-color="#599FFE"/>
<stop offset="0.23" stop-color="#85B8FE"/>
<stop offset="0.33" stop-color="#AACEFE"/>
<stop offset="0.45" stop-color="#C9E0FE"/>
<stop offset="0.56" stop-color="#E1EDFE"/>
<stop offset="0.69" stop-color="#F1F7FE"/>
<stop offset="0.83" stop-color="#FBFDFE"/>
<stop offset="1" stop-color="white"/>
</radialGradient>
<linearGradient id="paint1_linear_154_232" x1="450.87" y1="474.357" x2="165.09" y2="474.357" gradientUnits="userSpaceOnUse">
<stop stop-color="#002980"/>
<stop offset="0.13" stop-color="#002F8B"/>
<stop offset="0.46" stop-color="#003DA5"/>
<stop offset="0.76" stop-color="#0046B4"/>
<stop offset="1" stop-color="#0049BA"/>
</linearGradient>
<linearGradient id="paint2_linear_154_232" x1="450.87" y1="924.517" x2="165.09" y2="924.517" gradientUnits="userSpaceOnUse">
<stop stop-color="#002980"/>
<stop offset="0.13" stop-color="#002F8B"/>
<stop offset="0.46" stop-color="#003DA5"/>
<stop offset="0.76" stop-color="#0046B4"/>
<stop offset="1" stop-color="#0049BA"/>
</linearGradient>
<linearGradient id="paint3_linear_154_232" x1="1183.03" y1="609.29" x2="747.607" y2="609.29" gradientUnits="userSpaceOnUse">
<stop stop-color="#002980"/>
<stop offset="0.13" stop-color="#002F8B"/>
<stop offset="0.46" stop-color="#003DA5"/>
<stop offset="0.76" stop-color="#0046B4"/>
<stop offset="1" stop-color="#0049BA"/>
</linearGradient>
<linearGradient id="paint4_linear_154_232" x1="497.6" y1="609.348" x2="792.23" y2="609.348" gradientUnits="userSpaceOnUse">
<stop stop-color="white"/>
<stop offset="0.16" stop-color="#9A9A9A"/>
<stop offset="0.36" stop-color="white"/>
<stop offset="0.4" stop-color="#F8F8F8"/>
<stop offset="0.46" stop-color="#E7E7E7"/>
<stop offset="0.52" stop-color="#CACACA"/>
<stop offset="0.6" stop-color="#A2A2A2"/>
<stop offset="0.67" stop-color="#6F6F6F"/>
<stop offset="0.74" stop-color="#3E3E3E"/>
<stop offset="0.89" stop-color="white"/>
<stop offset="1" stop-color="#9A9A9A"/>
</linearGradient>
</defs>
</svg>
