<svg width="1729" height="1665" viewBox="0 0 1729 1665" fill="none" xmlns="http://www.w3.org/2000/svg">
<path style="mix-blend-mode:multiply" d="M966.83 1664.37C1387.49 1664.37 1728.5 1345.35 1728.5 951.819C1728.5 558.289 1387.49 239.27 966.83 239.27C546.171 239.27 205.16 558.289 205.16 951.819C205.16 1345.35 546.171 1664.37 966.83 1664.37Z" fill="url(#paint0_radial_154_95)"/>
<path d="M322.18 193.667C367.13 193.667 408.15 199.337 445.23 210.667C482.31 222.007 514.1 238.137 540.61 259.077C567.12 280.027 587.67 305.377 602.27 335.147C616.87 364.927 624.17 398.067 624.17 434.567C624.17 461.467 619.17 485.287 609.18 506.037C599.18 526.787 586.71 545.517 571.72 562.227C556.73 578.947 540.6 593.837 523.31 606.897C506.02 619.967 489.88 631.967 474.9 642.917C459.91 653.867 447.43 664.337 437.44 674.327C427.44 684.327 422.45 694.497 422.45 704.877V755.047H220.73V670.867C220.73 656.657 224.48 643.207 231.97 630.527C239.46 617.847 248.97 605.557 260.5 593.647C272.02 581.747 284.31 570.017 297.38 558.487C310.43 546.957 322.74 534.957 334.26 522.467C345.79 509.987 355.3 497.017 362.79 483.567C370.28 470.127 374.03 455.327 374.03 439.187C374.03 428.437 372.3 418.067 368.84 408.067C365.38 398.077 360.29 389.337 353.57 381.847C346.85 374.357 338.68 368.307 329.08 363.697C319.47 359.087 308.52 356.777 296.23 356.777C280.09 356.777 267.03 359.657 257.04 365.427C247.04 371.187 239.26 378.687 233.7 387.897C228.12 397.117 224.38 407.687 222.46 419.597C220.53 431.507 219.58 443.617 219.58 455.907V471.757C219.58 476.947 219.96 482.227 220.73 487.607H3.45999C2.68999 479.927 1.91999 472.527 1.14999 465.417C0.379994 458.317 0 450.917 0 443.227C0 404.807 8.06999 370.237 24.21 339.487C40.34 308.757 62.72 282.537 91.35 260.817C119.97 239.107 153.97 222.487 193.36 210.967C232.74 199.437 275.68 193.677 322.17 193.677L322.18 193.667Z" fill="url(#paint1_linear_154_95)"/>
<path d="M425.28 829.338H221.37V1019.69H425.28V829.338Z" fill="url(#paint2_linear_154_95)"/>
<path d="M1268.62 178.407C1476.22 386.007 1502.67 706.107 1348.08 942.437L1405.74 1173.62L1183.12 1111.29C977.02 1253.44 702.98 1254.35 496.07 1113.97V104.727C733.18 -56.1828 1058.5 -31.7027 1268.62 178.407Z" fill="url(#paint3_linear_154_95)"/>
<path d="M555.8 178.408C537.16 150.538 517.11 126.068 496.07 104.728V1113.97C517.11 1092.63 537.15 1068.12 555.8 1040.24C715.02 802.248 715.02 416.398 555.8 178.408Z" fill="url(#paint4_linear_154_95)"/>
<path d="M1180.15 601.01C1180.15 512.145 1107.87 439.856 1019 439.856C930.142 439.856 857.855 512.145 857.855 601.01C857.855 622.871 862.188 644.071 870.438 663.655C870.658 664.071 870.854 664.512 871.001 664.953C878.981 683.386 890.437 700.326 905.051 714.966C919.69 729.605 936.63 741.062 955.087 749.018C955.503 749.165 955.944 749.336 956.36 749.556C975.919 757.806 997.142 762.163 1019.03 762.163C1107.89 762.163 1180.18 689.875 1180.18 601.01L1180.15 601.01ZM1125.98 692.739L1110.73 707.991C1103.8 714.919 1093.47 715.432 1083.8 709.337L1068.13 699.472C1063.53 701.773 1058.76 703.756 1053.89 705.371L1049.78 723.413C1047.23 734.576 1039.57 741.504 1029.78 741.504H1008.21C998.418 741.504 990.755 734.576 988.21 723.413L984.122 705.396C979.25 703.755 974.477 701.797 969.875 699.496L954.233 709.337C944.563 715.432 934.233 714.918 927.305 707.991L912.055 692.739C905.127 685.811 904.613 675.481 910.708 665.811L920.574 650.144C918.272 645.541 916.29 640.768 914.674 635.896L896.633 631.784C885.471 629.238 878.543 621.576 878.543 611.784V590.217C878.543 580.424 885.471 572.762 896.633 570.216L914.674 566.104C916.314 561.232 918.272 556.458 920.574 551.856L910.708 536.189C904.613 526.519 905.127 516.189 912.055 509.261L927.305 494.01C934.233 487.081 944.563 486.568 954.233 492.663L969.9 502.529C974.502 500.227 979.275 498.245 984.146 496.629L988.259 478.587C990.805 467.424 998.467 460.496 1008.26 460.496H1029.82C1039.62 460.496 1047.28 467.424 1049.82 478.587L1053.94 496.629C1058.81 498.269 1063.56 500.227 1068.18 502.529L1083.85 492.663C1093.54 486.568 1103.85 487.082 1110.78 494.01L1126.03 509.261C1132.96 516.189 1133.47 526.519 1127.37 536.189L1117.53 551.832C1119.83 556.434 1121.82 561.208 1123.43 566.079L1141.45 570.167C1152.61 572.713 1159.54 580.376 1159.54 590.168V611.735C1159.54 621.527 1152.61 629.189 1141.45 631.735L1123.41 635.848C1121.77 640.719 1119.81 645.493 1117.51 650.095L1127.37 665.762C1133.47 675.456 1132.96 685.762 1126.03 692.69L1125.98 692.739ZM1059.93 601.01C1059.93 623.581 1041.57 641.941 1019.01 641.941C996.436 641.941 978.076 623.581 978.076 601.01C978.076 578.44 996.436 560.08 1019.01 560.08C1041.57 560.08 1059.93 578.44 1059.93 601.01ZM1106.32 625.074C1107.28 621.622 1110.04 618.954 1113.54 618.17L1137.07 612.809C1138.76 612.418 1139.66 611.855 1140.01 611.561V590.434C1139.66 590.141 1138.73 589.578 1137.07 589.186L1113.54 583.825C1110.04 583.017 1107.28 580.373 1106.32 576.921C1104.34 569.724 1101.45 562.772 1097.75 556.26C1095.99 553.151 1096.07 549.307 1097.97 546.271L1110.83 525.831C1111.76 524.362 1111.98 523.309 1112.03 522.868L1097.07 507.911C1096.63 507.96 1095.58 508.205 1094.11 509.111L1073.67 521.963C1070.63 523.872 1066.79 523.946 1063.68 522.183C1057.17 518.487 1050.22 515.598 1043.02 513.615C1039.57 512.66 1036.9 509.894 1036.12 506.394L1030.75 482.868C1030.36 481.179 1029.8 480.273 1029.51 479.931H1008.38C1008.09 480.273 1007.52 481.204 1007.13 482.868L1001.77 506.394C1000.96 509.894 998.319 512.661 994.867 513.615C987.671 515.598 980.743 518.462 974.207 522.183C971.098 523.946 967.254 523.872 964.219 521.963L943.779 509.111C942.31 508.18 941.257 507.96 940.817 507.911L925.885 522.844C925.933 523.285 926.154 524.337 927.084 525.806L939.936 546.247C941.845 549.283 941.943 553.126 940.156 556.235C936.46 562.747 933.571 569.699 931.588 576.897C930.634 580.348 927.867 583.017 924.367 583.8L900.843 589.161C899.154 589.553 898.248 590.116 897.905 590.41V611.536C898.248 611.83 899.178 612.393 900.843 612.785L924.367 618.146C927.868 618.954 930.634 621.598 931.588 625.05C933.571 632.247 936.435 639.199 940.156 645.687C941.919 648.796 941.845 652.639 939.936 655.675L927.084 676.116C926.154 677.585 925.934 678.637 925.885 679.078L940.841 694.035C941.282 693.986 942.334 693.766 943.803 692.836L964.243 679.983C967.279 678.074 971.122 677.976 974.231 679.763C980.743 683.459 987.695 686.348 994.892 688.331C998.343 689.286 1001.01 692.052 1001.8 695.552L1007.16 719.078C1007.55 720.767 1008.11 721.673 1008.4 722.016H1029.53C1029.82 721.673 1030.39 720.743 1030.78 719.078L1036.14 695.552C1036.95 692.052 1039.59 689.286 1043.04 688.331C1050.24 686.348 1057.19 683.484 1063.68 679.763C1066.79 678 1070.63 678.074 1073.67 679.983L1094.11 692.836C1095.58 693.766 1096.63 693.986 1097.07 694.035L1112.03 679.078C1111.98 678.637 1111.73 677.585 1110.83 676.116L1097.97 655.675C1096.07 652.639 1095.97 648.796 1097.75 645.687C1101.45 639.175 1104.34 632.223 1106.32 625.05V625.074ZM1018.98 661.403C985.685 661.403 958.587 634.303 958.587 601.01C958.587 567.717 985.685 540.618 1018.98 540.618C1052.27 540.618 1079.37 567.717 1079.37 601.01C1079.37 634.303 1052.27 661.403 1018.98 661.403ZM1204.21 415.771C1194.01 405.563 1188.4 392 1188.4 377.581C1188.4 347.789 1212.64 323.578 1242.4 323.578C1272.19 323.578 1296.4 347.813 1296.4 377.581C1296.4 407.349 1272.17 431.585 1242.4 431.585C1227.98 431.585 1214.42 425.979 1204.21 415.771ZM741.582 377.581C741.582 347.789 765.816 323.578 795.583 323.578C825.35 323.578 849.585 347.813 849.585 377.581C849.585 392 843.979 405.562 833.771 415.771C823.564 425.98 810.002 431.585 795.583 431.585C765.792 431.585 741.582 407.349 741.582 377.581ZM737.004 577.709C741.19 532.176 756.392 488.061 781.067 449.607C785.767 450.562 790.613 451.051 795.583 451.051C815.215 451.051 833.648 443.413 847.528 429.533C861.408 415.653 869.045 397.195 869.045 377.586C869.045 372.617 868.556 367.77 867.601 363.069C906.058 338.369 950.171 323.191 995.699 319.005C1004.93 322.286 1006.37 331.025 1006.37 336.093C1006.37 345.689 1001.35 354.624 994.817 356.828C968.012 359.765 942.064 367.011 917.636 378.321C915.213 379.447 913.352 381.528 912.496 384.05C911.639 386.571 911.884 389.362 913.132 391.712L938.468 439.375C903.463 456.903 874.918 485.447 857.39 520.457L809.728 495.12C807.378 493.871 804.612 493.651 802.066 494.483C799.545 495.34 797.464 497.2 796.338 499.624C785.004 524.055 777.783 550.029 774.821 576.807C772.642 583.344 763.707 588.362 754.087 588.362C748.995 588.362 740.281 586.942 737 577.689L737.004 577.709ZM1006.37 865.913C1006.37 871.004 1004.95 879.719 995.699 883C950.168 878.814 906.054 863.611 867.602 838.936C868.556 834.236 869.046 829.389 869.046 824.419C869.046 783.905 836.097 750.952 795.581 750.952C790.612 750.952 785.765 751.442 781.065 752.397C756.366 713.938 741.188 669.824 737.003 624.294C740.283 615.065 749.022 613.621 754.09 613.621C763.685 613.621 772.62 618.64 774.824 625.176C777.761 651.982 785.007 677.931 796.316 702.36C797.443 704.783 799.523 706.643 802.045 707.5C804.566 708.357 807.357 708.112 809.707 706.864L857.27 681.576C865.862 698.785 877.269 714.698 891.272 728.7C905.274 742.703 921.161 754.11 938.37 762.703L913.082 810.267C911.834 812.618 911.589 815.408 912.446 817.93C913.303 820.451 915.163 822.532 917.586 823.658C942.017 834.993 967.989 842.214 994.767 845.177C1001.3 847.355 1006.32 856.29 1006.32 865.911L1006.37 865.913ZM849.579 824.419C849.579 854.211 825.345 878.422 795.578 878.422C765.787 878.422 741.576 854.187 741.576 824.419C741.576 794.651 765.811 770.415 795.578 770.415C825.369 770.415 849.579 794.651 849.579 824.419ZM1300.98 624.291C1296.79 669.824 1281.59 713.939 1256.91 752.393C1252.21 751.438 1247.37 750.949 1242.4 750.949C1222.76 750.949 1204.33 758.587 1190.45 772.467C1176.57 786.347 1168.93 804.78 1168.93 824.414C1168.93 829.383 1169.42 834.23 1170.38 838.931C1131.92 863.631 1087.81 878.809 1042.28 882.995C1033.05 879.714 1031.61 870.975 1031.61 865.907C1031.61 856.311 1036.63 847.376 1043.16 845.172C1069.97 842.235 1095.92 834.989 1120.34 823.654C1122.77 822.528 1124.63 820.447 1125.48 817.926C1126.34 815.405 1126.1 812.614 1124.85 810.263L1099.51 762.6C1134.52 745.072 1163.06 716.528 1180.59 681.519L1228.25 706.856C1230.6 708.105 1233.39 708.349 1235.91 707.492C1238.43 706.636 1240.52 704.775 1241.64 702.352C1252.98 677.921 1260.2 651.947 1263.16 625.168C1265.34 618.632 1274.27 613.613 1283.89 613.613C1288.98 613.613 1297.72 615.037 1300.98 624.291ZM1031.63 336.087C1031.63 330.996 1033.05 322.281 1042.31 319C1087.84 323.186 1131.95 338.389 1170.4 363.064C1169.45 367.764 1168.96 372.611 1168.96 377.581C1168.96 397.214 1176.6 415.647 1190.48 429.528C1204.36 443.408 1222.79 451.046 1242.42 451.046C1247.39 451.046 1252.24 450.556 1256.94 449.602C1281.64 488.06 1296.81 532.175 1301 577.704C1297.72 586.933 1288.98 588.377 1283.91 588.377C1274.32 588.377 1265.38 583.359 1263.18 576.822C1260.24 550.017 1253 524.067 1241.69 499.639C1240.56 497.215 1238.48 495.355 1235.96 494.498C1233.41 493.641 1230.65 493.886 1228.3 495.134L1180.63 520.471C1163.11 485.465 1134.56 456.919 1099.56 439.39L1124.89 391.727C1126.14 389.377 1126.39 386.586 1125.53 384.064C1124.67 381.543 1122.81 379.462 1120.39 378.336C1095.96 367.002 1069.99 359.78 1043.21 356.818C1036.67 354.639 1031.65 345.704 1031.65 336.083L1031.63 336.087ZM1296.43 824.419C1296.43 854.211 1272.19 878.422 1242.42 878.422C1212.63 878.422 1188.42 854.187 1188.42 824.419C1188.42 810 1194.03 796.438 1204.24 786.229C1214.44 776.021 1228.01 770.415 1242.42 770.415C1272.22 770.415 1296.43 794.651 1296.43 824.419Z" fill="white"/>
<defs>
<radialGradient id="paint0_radial_154_95" cx="0" cy="0" r="1" gradientUnits="userSpaceOnUse" gradientTransform="translate(968.102 951.819) scale(762.439 712.56)">
<stop stop-color="#1C7CFE"/>
<stop offset="0.02" stop-color="#2682FE"/>
<stop offset="0.12" stop-color="#599FFE"/>
<stop offset="0.23" stop-color="#85B8FE"/>
<stop offset="0.33" stop-color="#AACEFE"/>
<stop offset="0.45" stop-color="#C9E0FE"/>
<stop offset="0.56" stop-color="#E1EDFE"/>
<stop offset="0.69" stop-color="#F1F7FE"/>
<stop offset="0.83" stop-color="#FBFDFE"/>
<stop offset="1" stop-color="white"/>
</radialGradient>
<linearGradient id="paint1_linear_154_95" x1="450.87" y1="474.357" x2="165.09" y2="474.357" gradientUnits="userSpaceOnUse">
<stop stop-color="#002980"/>
<stop offset="0.13" stop-color="#002F8B"/>
<stop offset="0.46" stop-color="#003DA5"/>
<stop offset="0.76" stop-color="#0046B4"/>
<stop offset="1" stop-color="#0049BA"/>
</linearGradient>
<linearGradient id="paint2_linear_154_95" x1="450.87" y1="924.518" x2="165.09" y2="924.518" gradientUnits="userSpaceOnUse">
<stop stop-color="#002980"/>
<stop offset="0.13" stop-color="#002F8B"/>
<stop offset="0.46" stop-color="#003DA5"/>
<stop offset="0.76" stop-color="#0046B4"/>
<stop offset="1" stop-color="#0049BA"/>
</linearGradient>
<linearGradient id="paint3_linear_154_95" x1="1183.03" y1="609.29" x2="747.606" y2="609.29" gradientUnits="userSpaceOnUse">
<stop stop-color="#002980"/>
<stop offset="0.13" stop-color="#002F8B"/>
<stop offset="0.46" stop-color="#003DA5"/>
<stop offset="0.76" stop-color="#0046B4"/>
<stop offset="1" stop-color="#0049BA"/>
</linearGradient>
<linearGradient id="paint4_linear_154_95" x1="497.6" y1="609.348" x2="792.23" y2="609.348" gradientUnits="userSpaceOnUse">
<stop stop-color="white"/>
<stop offset="0.16" stop-color="#9A9A9A"/>
<stop offset="0.36" stop-color="white"/>
<stop offset="0.4" stop-color="#F8F8F8"/>
<stop offset="0.46" stop-color="#E7E7E7"/>
<stop offset="0.52" stop-color="#CACACA"/>
<stop offset="0.6" stop-color="#A2A2A2"/>
<stop offset="0.67" stop-color="#6F6F6F"/>
<stop offset="0.74" stop-color="#3E3E3E"/>
<stop offset="0.89" stop-color="white"/>
<stop offset="1" stop-color="#9A9A9A"/>
</linearGradient>
</defs>
</svg>
