<svg width="1729" height="1665" viewBox="0 0 1729 1665" fill="none" xmlns="http://www.w3.org/2000/svg">
<path style="mix-blend-mode:multiply" d="M966.83 1664.37C1387.49 1664.37 1728.5 1345.35 1728.5 951.819C1728.5 558.289 1387.49 239.27 966.83 239.27C546.171 239.27 205.16 558.289 205.16 951.819C205.16 1345.35 546.171 1664.37 966.83 1664.37Z" fill="url(#paint0_radial_154_84)"/>
<path d="M322.18 193.667C367.13 193.667 408.15 199.337 445.23 210.667C482.31 222.007 514.1 238.137 540.61 259.077C567.12 280.027 587.67 305.377 602.27 335.147C616.87 364.927 624.17 398.067 624.17 434.567C624.17 461.467 619.17 485.287 609.18 506.037C599.18 526.787 586.71 545.517 571.72 562.227C556.73 578.947 540.6 593.837 523.31 606.897C506.02 619.967 489.88 631.967 474.9 642.917C459.91 653.867 447.43 664.337 437.44 674.327C427.44 684.327 422.45 694.497 422.45 704.877V755.047H220.73V670.867C220.73 656.657 224.48 643.207 231.97 630.527C239.46 617.847 248.97 605.557 260.5 593.647C272.02 581.747 284.31 570.017 297.38 558.487C310.43 546.957 322.74 534.957 334.26 522.467C345.79 509.987 355.3 497.017 362.79 483.567C370.28 470.127 374.03 455.327 374.03 439.187C374.03 428.437 372.3 418.067 368.84 408.067C365.38 398.077 360.29 389.337 353.57 381.847C346.85 374.357 338.68 368.307 329.08 363.697C319.47 359.087 308.52 356.777 296.23 356.777C280.09 356.777 267.03 359.657 257.04 365.427C247.04 371.187 239.26 378.687 233.7 387.897C228.12 397.117 224.38 407.687 222.46 419.597C220.53 431.507 219.58 443.617 219.58 455.907V471.757C219.58 476.947 219.96 482.227 220.73 487.607H3.45999C2.68999 479.927 1.91999 472.527 1.14999 465.417C0.379994 458.317 0 450.917 0 443.227C0 404.807 8.06999 370.237 24.21 339.487C40.34 308.757 62.72 282.537 91.35 260.817C119.97 239.107 153.97 222.487 193.36 210.967C232.74 199.437 275.68 193.677 322.17 193.677L322.18 193.667Z" fill="url(#paint1_linear_154_84)"/>
<path d="M425.28 829.338H221.37V1019.69H425.28V829.338Z" fill="url(#paint2_linear_154_84)"/>
<path d="M1268.62 178.407C1476.22 386.007 1502.67 706.107 1348.08 942.437L1405.74 1173.62L1183.12 1111.29C977.02 1253.44 702.98 1254.35 496.07 1113.97V104.727C733.18 -56.1828 1058.5 -31.7027 1268.62 178.407Z" fill="url(#paint3_linear_154_84)"/>
<path d="M555.8 178.408C537.16 150.538 517.11 126.068 496.07 104.728V1113.97C517.11 1092.63 537.15 1068.12 555.8 1040.24C715.02 802.248 715.02 416.398 555.8 178.408Z" fill="url(#paint4_linear_154_84)"/>
<path d="M1069.58 325.579C1049.44 305.377 1022.02 294 993.471 294C964.92 294 937.504 305.377 917.359 325.579C886.645 356.201 877.317 402.205 893.632 442.324C909.947 482.48 948.747 508.92 992.126 509.451H994.857H994.822C1038.34 509.203 1077.39 482.799 1093.77 442.501C1110.12 402.239 1100.58 356.062 1069.58 325.579ZM781.027 618.508V680.354C806.244 686.592 826.141 705.872 833.163 730.895C840.186 755.881 833.199 782.746 814.898 801.176C805.571 810.497 793.831 817.09 781.027 820.209V882.197H928.106C946.265 882.197 962.898 888.4 976.518 898.997V671.278C976.34 657.385 971.127 644.059 961.834 633.78C953.251 624.176 940.98 618.646 928.106 618.505L781.027 618.508ZM882.854 584.483H928.251C950.95 584.483 971.84 594.62 986.807 610.781C989.218 613.51 991.346 616.239 993.474 619.11C1008.23 597.596 1032.59 584.66 1058.7 584.483H1103.78C1073.63 558.397 1035.18 543.866 995.285 543.476H991.667C951.625 543.831 913.037 558.362 882.713 584.483L882.854 584.483ZM1010.43 671.281V899C1024.05 888.403 1040.68 882.059 1058.84 882.059H1205.92V820.389C1173.65 812.521 1150.95 783.635 1150.95 750.426C1150.95 717.253 1173.65 688.331 1205.92 680.499V618.511H1058.56C1045.69 618.724 1033.49 624.324 1024.94 633.928C1015.68 644.242 1010.47 657.569 1010.29 671.426L1010.43 671.281ZM790.851 723.452C776.026 708.602 751.98 708.602 737.119 723.452C722.294 738.266 722.294 762.296 737.119 777.112C752.263 789.8 774.607 788.808 788.581 774.843C802.556 760.879 803.548 738.586 790.851 723.452ZM1249.83 723.452C1234.93 708.779 1210.99 708.779 1196.1 723.452C1188.93 730.54 1184.92 740.216 1184.92 750.281C1184.92 760.346 1188.93 770.023 1196.1 777.111C1203.23 784.235 1212.87 788.24 1222.94 788.24C1233.02 788.24 1242.7 784.235 1249.83 777.111C1256.99 770.022 1261 760.346 1261 750.281C1261 740.216 1256.99 730.54 1249.83 723.452Z" fill="white"/>
<defs>
<radialGradient id="paint0_radial_154_84" cx="0" cy="0" r="1" gradientUnits="userSpaceOnUse" gradientTransform="translate(968.102 951.819) scale(762.439 712.56)">
<stop stop-color="#1C7CFE"/>
<stop offset="0.02" stop-color="#2682FE"/>
<stop offset="0.12" stop-color="#599FFE"/>
<stop offset="0.23" stop-color="#85B8FE"/>
<stop offset="0.33" stop-color="#AACEFE"/>
<stop offset="0.45" stop-color="#C9E0FE"/>
<stop offset="0.56" stop-color="#E1EDFE"/>
<stop offset="0.69" stop-color="#F1F7FE"/>
<stop offset="0.83" stop-color="#FBFDFE"/>
<stop offset="1" stop-color="white"/>
</radialGradient>
<linearGradient id="paint1_linear_154_84" x1="450.87" y1="474.357" x2="165.09" y2="474.357" gradientUnits="userSpaceOnUse">
<stop stop-color="#002980"/>
<stop offset="0.13" stop-color="#002F8B"/>
<stop offset="0.46" stop-color="#003DA5"/>
<stop offset="0.76" stop-color="#0046B4"/>
<stop offset="1" stop-color="#0049BA"/>
</linearGradient>
<linearGradient id="paint2_linear_154_84" x1="450.87" y1="924.518" x2="165.09" y2="924.518" gradientUnits="userSpaceOnUse">
<stop stop-color="#002980"/>
<stop offset="0.13" stop-color="#002F8B"/>
<stop offset="0.46" stop-color="#003DA5"/>
<stop offset="0.76" stop-color="#0046B4"/>
<stop offset="1" stop-color="#0049BA"/>
</linearGradient>
<linearGradient id="paint3_linear_154_84" x1="1183.03" y1="609.29" x2="747.607" y2="609.29" gradientUnits="userSpaceOnUse">
<stop stop-color="#002980"/>
<stop offset="0.13" stop-color="#002F8B"/>
<stop offset="0.46" stop-color="#003DA5"/>
<stop offset="0.76" stop-color="#0046B4"/>
<stop offset="1" stop-color="#0049BA"/>
</linearGradient>
<linearGradient id="paint4_linear_154_84" x1="497.6" y1="609.348" x2="792.23" y2="609.348" gradientUnits="userSpaceOnUse">
<stop stop-color="white"/>
<stop offset="0.16" stop-color="#9A9A9A"/>
<stop offset="0.36" stop-color="white"/>
<stop offset="0.4" stop-color="#F8F8F8"/>
<stop offset="0.46" stop-color="#E7E7E7"/>
<stop offset="0.52" stop-color="#CACACA"/>
<stop offset="0.6" stop-color="#A2A2A2"/>
<stop offset="0.67" stop-color="#6F6F6F"/>
<stop offset="0.74" stop-color="#3E3E3E"/>
<stop offset="0.89" stop-color="white"/>
<stop offset="1" stop-color="#9A9A9A"/>
</linearGradient>
</defs>
</svg>
