<svg width="1729" height="1665" viewBox="0 0 1729 1665" fill="none" xmlns="http://www.w3.org/2000/svg">
<path style="mix-blend-mode:multiply" d="M966.83 1664.37C1387.49 1664.37 1728.5 1345.35 1728.5 951.819C1728.5 558.289 1387.49 239.27 966.83 239.27C546.171 239.27 205.16 558.289 205.16 951.819C205.16 1345.35 546.171 1664.37 966.83 1664.37Z" fill="url(#paint0_radial_154_210)"/>
<path d="M322.18 193.667C367.13 193.667 408.15 199.337 445.23 210.667C482.31 222.007 514.1 238.137 540.61 259.077C567.12 280.027 587.67 305.377 602.27 335.147C616.87 364.927 624.17 398.067 624.17 434.567C624.17 461.467 619.17 485.287 609.18 506.037C599.18 526.787 586.71 545.517 571.72 562.227C556.73 578.947 540.6 593.837 523.31 606.897C506.02 619.967 489.88 631.967 474.9 642.917C459.91 653.867 447.43 664.337 437.44 674.327C427.44 684.327 422.45 694.497 422.45 704.877V755.047H220.73V670.867C220.73 656.657 224.48 643.207 231.97 630.527C239.46 617.847 248.97 605.557 260.5 593.647C272.02 581.747 284.31 570.017 297.38 558.487C310.43 546.957 322.74 534.957 334.26 522.467C345.79 509.987 355.3 497.017 362.79 483.567C370.28 470.127 374.03 455.327 374.03 439.187C374.03 428.437 372.3 418.067 368.84 408.067C365.38 398.077 360.29 389.337 353.57 381.847C346.85 374.357 338.68 368.307 329.08 363.697C319.47 359.087 308.52 356.777 296.23 356.777C280.09 356.777 267.03 359.657 257.04 365.427C247.04 371.187 239.26 378.687 233.7 387.897C228.12 397.117 224.38 407.687 222.46 419.597C220.53 431.507 219.58 443.617 219.58 455.907V471.757C219.58 476.947 219.96 482.227 220.73 487.607H3.45999C2.68999 479.927 1.91999 472.527 1.14999 465.417C0.379994 458.317 0 450.917 0 443.227C0 404.807 8.06999 370.237 24.21 339.487C40.34 308.757 62.72 282.537 91.35 260.817C119.97 239.107 153.97 222.487 193.36 210.967C232.74 199.437 275.68 193.677 322.17 193.677L322.18 193.667Z" fill="url(#paint1_linear_154_210)"/>
<path d="M425.28 829.338H221.37V1019.69H425.28V829.338Z" fill="url(#paint2_linear_154_210)"/>
<path d="M1268.62 178.407C1476.22 386.007 1502.67 706.107 1348.08 942.437L1405.74 1173.62L1183.12 1111.29C977.02 1253.44 702.98 1254.35 496.07 1113.97V104.727C733.18 -56.1828 1058.5 -31.7027 1268.62 178.407Z" fill="url(#paint3_linear_154_210)"/>
<path d="M555.8 178.408C537.16 150.538 517.11 126.068 496.07 104.728V1113.97C517.11 1092.63 537.15 1068.12 555.8 1040.24C715.02 802.248 715.02 416.398 555.8 178.408Z" fill="url(#paint4_linear_154_210)"/>
<path d="M905.648 625.418C907.231 666.105 912.885 706.5 922.542 746.056H1001.31V601.309H904.924C905.06 609.496 905.286 617.592 905.648 625.418Z" fill="white"/>
<path d="M1025.42 625.417V746.056H1104.2C1113.85 706.499 1119.51 666.103 1121.09 625.417C1121.45 617.569 1121.7 609.495 1121.81 601.285L1025.42 601.308V625.417Z" fill="white"/>
<path d="M1145.93 601.309C1145.82 609.383 1145.57 617.48 1145.2 625.441V625.418C1143.53 666.061 1138.03 706.454 1128.81 746.057H1243.04C1266.45 705.754 1278.78 659.978 1278.73 613.364V601.309L1145.93 601.309Z" fill="white"/>
<path d="M904.449 770.167H799.507C837.368 821.891 892.69 858.144 955.226 872.214C946.813 862.579 939.44 852.084 933.288 840.867C920.962 818.498 911.279 794.774 904.449 770.167Z" fill="white"/>
<path d="M968.022 850.272C976.254 862.169 987.834 871.374 1001.31 876.689V770.166H929.299C937.237 799.003 950.358 826.14 968.022 850.272Z" fill="white"/>
<path d="M1025.42 770.169V876.692C1038.9 871.377 1050.48 862.172 1058.72 850.275C1076.38 826.143 1089.5 799.003 1097.44 770.166L1025.42 770.169Z" fill="white"/>
<path d="M1122.29 770.166C1115.46 794.773 1105.78 818.498 1093.45 840.867C1087.3 852.084 1079.93 862.579 1071.51 872.214C1134.05 858.146 1189.37 821.891 1227.23 770.167L1122.29 770.166Z" fill="white"/>
<path d="M897.93 746.056C888.702 706.454 883.206 666.063 881.533 625.417C881.171 617.456 880.922 609.382 880.809 601.285L748 601.308V613.362C747.955 659.976 760.281 705.752 783.69 746.055L897.93 746.056Z" fill="white"/>
<path d="M1013.37 348C987.789 348.023 963.273 358.2 945.181 376.294C927.09 394.387 916.91 418.904 916.865 444.481C916.865 494.532 995.753 576.45 1004.8 585.61L1013.37 594.408L1021.95 585.61C1030.99 576.45 1109.88 494.552 1109.88 444.481C1109.84 418.901 1099.66 394.385 1081.57 376.294C1063.47 358.202 1038.96 348.023 1013.38 348H1013.37ZM1013.37 480.67C998.736 480.67 985.528 471.873 979.942 458.347C974.333 444.823 977.431 429.262 987.79 418.904C998.126 408.545 1013.69 405.447 1027.21 411.055C1040.74 416.664 1049.56 429.85 1049.56 444.483C1049.49 464.453 1033.34 480.625 1013.37 480.67Z" fill="white"/>
<path d="M1025.42 444.488C1025.42 460.568 1001.31 460.568 1001.31 444.488C1001.31 428.408 1025.42 428.408 1025.42 444.488Z" fill="white"/>
<defs>
<radialGradient id="paint0_radial_154_210" cx="0" cy="0" r="1" gradientUnits="userSpaceOnUse" gradientTransform="translate(968.102 951.819) scale(762.439 712.56)">
<stop stop-color="#1C7CFE"/>
<stop offset="0.02" stop-color="#2682FE"/>
<stop offset="0.12" stop-color="#599FFE"/>
<stop offset="0.23" stop-color="#85B8FE"/>
<stop offset="0.33" stop-color="#AACEFE"/>
<stop offset="0.45" stop-color="#C9E0FE"/>
<stop offset="0.56" stop-color="#E1EDFE"/>
<stop offset="0.69" stop-color="#F1F7FE"/>
<stop offset="0.83" stop-color="#FBFDFE"/>
<stop offset="1" stop-color="white"/>
</radialGradient>
<linearGradient id="paint1_linear_154_210" x1="450.87" y1="474.357" x2="165.09" y2="474.357" gradientUnits="userSpaceOnUse">
<stop stop-color="#002980"/>
<stop offset="0.13" stop-color="#002F8B"/>
<stop offset="0.46" stop-color="#003DA5"/>
<stop offset="0.76" stop-color="#0046B4"/>
<stop offset="1" stop-color="#0049BA"/>
</linearGradient>
<linearGradient id="paint2_linear_154_210" x1="450.87" y1="924.518" x2="165.09" y2="924.518" gradientUnits="userSpaceOnUse">
<stop stop-color="#002980"/>
<stop offset="0.13" stop-color="#002F8B"/>
<stop offset="0.46" stop-color="#003DA5"/>
<stop offset="0.76" stop-color="#0046B4"/>
<stop offset="1" stop-color="#0049BA"/>
</linearGradient>
<linearGradient id="paint3_linear_154_210" x1="1183.03" y1="609.29" x2="747.607" y2="609.29" gradientUnits="userSpaceOnUse">
<stop stop-color="#002980"/>
<stop offset="0.13" stop-color="#002F8B"/>
<stop offset="0.46" stop-color="#003DA5"/>
<stop offset="0.76" stop-color="#0046B4"/>
<stop offset="1" stop-color="#0049BA"/>
</linearGradient>
<linearGradient id="paint4_linear_154_210" x1="497.6" y1="609.348" x2="792.23" y2="609.348" gradientUnits="userSpaceOnUse">
<stop stop-color="white"/>
<stop offset="0.16" stop-color="#9A9A9A"/>
<stop offset="0.36" stop-color="white"/>
<stop offset="0.4" stop-color="#F8F8F8"/>
<stop offset="0.46" stop-color="#E7E7E7"/>
<stop offset="0.52" stop-color="#CACACA"/>
<stop offset="0.6" stop-color="#A2A2A2"/>
<stop offset="0.67" stop-color="#6F6F6F"/>
<stop offset="0.74" stop-color="#3E3E3E"/>
<stop offset="0.89" stop-color="white"/>
<stop offset="1" stop-color="#9A9A9A"/>
</linearGradient>
</defs>
</svg>
