<svg width="1729" height="1665" viewBox="0 0 1729 1665" fill="none" xmlns="http://www.w3.org/2000/svg">
<path style="mix-blend-mode:multiply" d="M966.83 1664.37C1387.49 1664.37 1728.5 1345.35 1728.5 951.819C1728.5 558.289 1387.49 239.27 966.83 239.27C546.171 239.27 205.16 558.289 205.16 951.819C205.16 1345.35 546.171 1664.37 966.83 1664.37Z" fill="url(#paint0_radial_154_110)"/>
<path d="M322.18 193.668C367.13 193.668 408.15 199.338 445.23 210.668C482.31 222.008 514.1 238.138 540.61 259.078C567.12 280.028 587.67 305.378 602.27 335.148C616.87 364.928 624.17 398.068 624.17 434.568C624.17 461.468 619.17 485.288 609.18 506.038C599.18 526.788 586.71 545.518 571.72 562.228C556.73 578.948 540.6 593.838 523.31 606.898C506.02 619.968 489.88 631.968 474.9 642.918C459.91 653.868 447.43 664.338 437.44 674.328C427.44 684.328 422.45 694.498 422.45 704.878V755.048H220.73V670.868C220.73 656.658 224.48 643.208 231.97 630.528C239.46 617.848 248.97 605.558 260.5 593.648C272.02 581.748 284.31 570.018 297.38 558.488C310.43 546.958 322.74 534.958 334.26 522.468C345.79 509.988 355.3 497.018 362.79 483.568C370.28 470.128 374.03 455.328 374.03 439.188C374.03 428.438 372.3 418.068 368.84 408.068C365.38 398.078 360.29 389.338 353.57 381.848C346.85 374.358 338.68 368.308 329.08 363.698C319.47 359.088 308.52 356.778 296.23 356.778C280.09 356.778 267.03 359.658 257.04 365.428C247.04 371.188 239.26 378.688 233.7 387.898C228.12 397.118 224.38 407.688 222.46 419.598C220.53 431.508 219.58 443.618 219.58 455.908V471.758C219.58 476.948 219.96 482.228 220.73 487.608H3.45999C2.68999 479.928 1.91999 472.528 1.14999 465.418C0.379994 458.318 0 450.918 0 443.228C0 404.808 8.06999 370.238 24.21 339.488C40.34 308.758 62.72 282.538 91.35 260.818C119.97 239.108 153.97 222.488 193.36 210.968C232.74 199.438 275.68 193.678 322.17 193.678L322.18 193.668Z" fill="url(#paint1_linear_154_110)"/>
<path d="M425.28 829.338H221.37V1019.69H425.28V829.338Z" fill="url(#paint2_linear_154_110)"/>
<path d="M1268.62 178.407C1476.22 386.007 1502.67 706.107 1348.08 942.437L1405.74 1173.62L1183.12 1111.29C977.02 1253.44 702.98 1254.35 496.07 1113.97V104.727C733.18 -56.1828 1058.5 -31.7027 1268.62 178.407Z" fill="url(#paint3_linear_154_110)"/>
<path d="M555.8 178.407C537.16 150.537 517.11 126.067 496.07 104.727V1113.97C517.11 1092.63 537.15 1068.12 555.8 1040.24C715.02 802.247 715.02 416.397 555.8 178.407Z" fill="url(#paint4_linear_154_110)"/>
<path d="M1271.04 542.955H1113.48V374.962C1113.48 369.403 1111.27 364.071 1107.34 360.14C1103.41 356.209 1098.07 354 1092.51 354H956.015C950.455 354 945.124 356.209 941.192 360.14C937.261 364.071 935.053 369.403 935.053 374.962V542.955H766.963C764.202 542.955 761.468 543.5 758.918 544.56C756.368 545.619 754.053 547.172 752.105 549.129C750.158 551.086 748.616 553.408 747.568 555.963C746.52 558.518 745.987 561.254 746 564.015V700.515C746 706.074 748.209 711.406 752.14 715.338C756.071 719.269 761.403 721.477 766.963 721.477H934.955V879.037C934.955 881.798 935.5 884.532 936.56 887.082C937.62 889.632 939.172 891.947 941.129 893.895C943.086 895.842 945.409 897.384 947.963 898.432C950.518 899.48 953.254 900.013 956.015 900H1092.51C1098.07 900 1103.41 897.791 1107.34 893.86C1111.27 889.929 1113.48 884.597 1113.48 879.037V721.477H1271.04C1276.6 721.477 1281.93 719.269 1285.86 715.338C1289.79 711.406 1292 706.074 1292 700.515V564.015C1292.01 561.254 1291.48 558.518 1290.43 555.963C1289.38 553.408 1287.84 551.086 1285.89 549.129C1283.95 547.172 1281.63 545.619 1279.08 544.56C1276.53 543.5 1273.8 542.955 1271.04 542.955Z" fill="white"/>
<defs>
<radialGradient id="paint0_radial_154_110" cx="0" cy="0" r="1" gradientUnits="userSpaceOnUse" gradientTransform="translate(968.102 951.819) scale(762.439 712.56)">
<stop stop-color="#1C7CFE"/>
<stop offset="0.02" stop-color="#2682FE"/>
<stop offset="0.12" stop-color="#599FFE"/>
<stop offset="0.23" stop-color="#85B8FE"/>
<stop offset="0.33" stop-color="#AACEFE"/>
<stop offset="0.45" stop-color="#C9E0FE"/>
<stop offset="0.56" stop-color="#E1EDFE"/>
<stop offset="0.69" stop-color="#F1F7FE"/>
<stop offset="0.83" stop-color="#FBFDFE"/>
<stop offset="1" stop-color="white"/>
</radialGradient>
<linearGradient id="paint1_linear_154_110" x1="450.87" y1="474.358" x2="165.09" y2="474.358" gradientUnits="userSpaceOnUse">
<stop stop-color="#002980"/>
<stop offset="0.13" stop-color="#002F8B"/>
<stop offset="0.46" stop-color="#003DA5"/>
<stop offset="0.76" stop-color="#0046B4"/>
<stop offset="1" stop-color="#0049BA"/>
</linearGradient>
<linearGradient id="paint2_linear_154_110" x1="450.87" y1="924.518" x2="165.09" y2="924.518" gradientUnits="userSpaceOnUse">
<stop stop-color="#002980"/>
<stop offset="0.13" stop-color="#002F8B"/>
<stop offset="0.46" stop-color="#003DA5"/>
<stop offset="0.76" stop-color="#0046B4"/>
<stop offset="1" stop-color="#0049BA"/>
</linearGradient>
<linearGradient id="paint3_linear_154_110" x1="1183.03" y1="609.29" x2="747.606" y2="609.29" gradientUnits="userSpaceOnUse">
<stop stop-color="#002980"/>
<stop offset="0.13" stop-color="#002F8B"/>
<stop offset="0.46" stop-color="#003DA5"/>
<stop offset="0.76" stop-color="#0046B4"/>
<stop offset="1" stop-color="#0049BA"/>
</linearGradient>
<linearGradient id="paint4_linear_154_110" x1="497.6" y1="609.347" x2="792.23" y2="609.347" gradientUnits="userSpaceOnUse">
<stop stop-color="white"/>
<stop offset="0.16" stop-color="#9A9A9A"/>
<stop offset="0.36" stop-color="white"/>
<stop offset="0.4" stop-color="#F8F8F8"/>
<stop offset="0.46" stop-color="#E7E7E7"/>
<stop offset="0.52" stop-color="#CACACA"/>
<stop offset="0.6" stop-color="#A2A2A2"/>
<stop offset="0.67" stop-color="#6F6F6F"/>
<stop offset="0.74" stop-color="#3E3E3E"/>
<stop offset="0.89" stop-color="white"/>
<stop offset="1" stop-color="#9A9A9A"/>
</linearGradient>
</defs>
</svg>
