<svg width="1729" height="1665" viewBox="0 0 1729 1665" fill="none" xmlns="http://www.w3.org/2000/svg">
<path style="mix-blend-mode:multiply" d="M966.83 1664.37C1387.49 1664.37 1728.5 1345.35 1728.5 951.819C1728.5 558.289 1387.49 239.27 966.83 239.27C546.171 239.27 205.16 558.289 205.16 951.819C205.16 1345.35 546.171 1664.37 966.83 1664.37Z" fill="url(#paint0_radial_154_128)"/>
<path d="M322.18 193.668C367.13 193.668 408.15 199.338 445.23 210.668C482.31 222.008 514.1 238.138 540.61 259.078C567.12 280.028 587.67 305.378 602.27 335.148C616.87 364.928 624.17 398.068 624.17 434.568C624.17 461.468 619.17 485.288 609.18 506.038C599.18 526.788 586.71 545.518 571.72 562.228C556.73 578.948 540.6 593.838 523.31 606.898C506.02 619.968 489.88 631.968 474.9 642.918C459.91 653.868 447.43 664.338 437.44 674.328C427.44 684.328 422.45 694.498 422.45 704.878V755.048H220.73V670.868C220.73 656.658 224.48 643.208 231.97 630.528C239.46 617.848 248.97 605.558 260.5 593.648C272.02 581.748 284.31 570.018 297.38 558.488C310.43 546.958 322.74 534.958 334.26 522.468C345.79 509.988 355.3 497.018 362.79 483.568C370.28 470.128 374.03 455.328 374.03 439.188C374.03 428.438 372.3 418.068 368.84 408.068C365.38 398.078 360.29 389.338 353.57 381.848C346.85 374.358 338.68 368.308 329.08 363.698C319.47 359.088 308.52 356.778 296.23 356.778C280.09 356.778 267.03 359.658 257.04 365.428C247.04 371.188 239.26 378.688 233.7 387.898C228.12 397.118 224.38 407.688 222.46 419.598C220.53 431.508 219.58 443.618 219.58 455.908V471.758C219.58 476.948 219.96 482.228 220.73 487.608H3.45999C2.68999 479.928 1.91999 472.528 1.14999 465.418C0.379994 458.318 0 450.918 0 443.228C0 404.808 8.06999 370.238 24.21 339.488C40.34 308.758 62.72 282.538 91.35 260.818C119.97 239.108 153.97 222.488 193.36 210.968C232.74 199.438 275.68 193.678 322.17 193.678L322.18 193.668Z" fill="url(#paint1_linear_154_128)"/>
<path d="M425.28 829.338H221.37V1019.69H425.28V829.338Z" fill="url(#paint2_linear_154_128)"/>
<path d="M1268.62 178.407C1476.22 386.007 1502.67 706.107 1348.08 942.437L1405.74 1173.62L1183.12 1111.29C977.02 1253.44 702.98 1254.35 496.07 1113.97V104.727C733.18 -56.1828 1058.5 -31.7027 1268.62 178.407Z" fill="url(#paint3_linear_154_128)"/>
<path d="M555.8 178.407C537.16 150.537 517.11 126.067 496.07 104.727V1113.97C517.11 1092.63 537.15 1068.12 555.8 1040.24C715.02 802.247 715.02 416.397 555.8 178.407Z" fill="url(#paint4_linear_154_128)"/>
<path d="M1062.36 745.027H975.649V903.997H1062.36V745.027Z" fill="white"/>
<path d="M1019 542.715C1032.3 542.715 1043.09 531.931 1043.09 518.629C1043.09 505.327 1032.3 494.543 1019 494.543C1005.7 494.543 994.914 505.327 994.914 518.629C994.914 531.931 1005.7 542.715 1019 542.715Z" fill="white"/>
<path d="M1019.01 413.98L903.391 478.338V903.993H946.746V730.571C946.746 722.672 953.298 716.119 961.198 716.119H1076.81C1084.71 716.119 1091.26 722.672 1091.26 730.571V903.993H1134.62V478.34L1019.01 413.98ZM1057.54 667.948H979.888C971.795 667.948 965.436 661.396 965.436 653.496C965.436 645.596 971.795 639.044 979.888 639.044H1057.54C1065.44 639.044 1071.99 645.596 1071.99 653.496C1071.99 661.396 1065.44 667.948 1057.54 667.948ZM1019.01 571.603C989.715 571.603 966.016 547.902 966.016 518.614C966.016 489.325 989.717 465.624 1019.01 465.624C1048.29 465.624 1071.99 489.325 1071.99 518.614C1071.99 547.902 1048.29 571.603 1019.01 571.603Z" fill="white"/>
<path d="M1192.41 475.256C1190.04 475.256 1187.63 474.672 1185.41 473.44L1019.01 380.99L852.601 473.44C845.619 477.317 836.832 474.786 832.956 467.824C829.079 460.842 831.583 452.046 838.563 448.17L1011.99 351.823C1016.35 349.395 1021.66 349.395 1026.02 351.823L1199.45 448.168C1206.43 452.044 1208.93 460.842 1205.05 467.822C1202.42 472.573 1197.49 475.256 1192.41 475.256Z" fill="white"/>
<path d="M874.482 518.619V634.234H729.964L768.501 518.619H874.482Z" fill="white"/>
<path d="M749.24 663.137V904H874.489V663.137H749.24ZM827.28 836.559H796.451C788.549 836.559 781.999 830.007 781.999 822.107C781.999 814.207 788.549 807.655 796.451 807.655H827.28C835.182 807.655 841.732 814.207 841.732 822.107C841.732 830.007 835.182 836.559 827.28 836.559ZM827.28 759.482H796.451C788.549 759.482 781.999 752.93 781.999 745.03C781.999 737.13 788.549 730.578 796.451 730.578H827.28C835.182 730.578 841.732 737.13 841.732 745.03C841.732 752.93 835.182 759.482 827.28 759.482Z" fill="white"/>
<path d="M1308.04 634.234H1163.52V518.619H1269.5L1308.04 634.234Z" fill="white"/>
<path d="M1163.52 663.137V904H1288.77V663.137H1163.52ZM1241.56 836.559H1210.73C1202.83 836.559 1196.28 830.007 1196.28 822.107C1196.28 814.207 1202.83 807.655 1210.73 807.655H1241.56C1249.46 807.655 1256.01 814.207 1256.01 822.107C1256.01 830.007 1249.46 836.559 1241.56 836.559ZM1241.56 759.482H1210.73C1202.83 759.482 1196.28 752.93 1196.28 745.03C1196.28 737.13 1202.83 730.578 1210.73 730.578H1241.56C1249.46 730.578 1256.01 737.13 1256.01 745.03C1256.01 752.93 1249.46 759.482 1241.56 759.482Z" fill="white"/>
<defs>
<radialGradient id="paint0_radial_154_128" cx="0" cy="0" r="1" gradientUnits="userSpaceOnUse" gradientTransform="translate(968.102 951.819) scale(762.439 712.56)">
<stop stop-color="#1C7CFE"/>
<stop offset="0.02" stop-color="#2682FE"/>
<stop offset="0.12" stop-color="#599FFE"/>
<stop offset="0.23" stop-color="#85B8FE"/>
<stop offset="0.33" stop-color="#AACEFE"/>
<stop offset="0.45" stop-color="#C9E0FE"/>
<stop offset="0.56" stop-color="#E1EDFE"/>
<stop offset="0.69" stop-color="#F1F7FE"/>
<stop offset="0.83" stop-color="#FBFDFE"/>
<stop offset="1" stop-color="white"/>
</radialGradient>
<linearGradient id="paint1_linear_154_128" x1="450.87" y1="474.358" x2="165.09" y2="474.358" gradientUnits="userSpaceOnUse">
<stop stop-color="#002980"/>
<stop offset="0.13" stop-color="#002F8B"/>
<stop offset="0.46" stop-color="#003DA5"/>
<stop offset="0.76" stop-color="#0046B4"/>
<stop offset="1" stop-color="#0049BA"/>
</linearGradient>
<linearGradient id="paint2_linear_154_128" x1="450.87" y1="924.518" x2="165.09" y2="924.518" gradientUnits="userSpaceOnUse">
<stop stop-color="#002980"/>
<stop offset="0.13" stop-color="#002F8B"/>
<stop offset="0.46" stop-color="#003DA5"/>
<stop offset="0.76" stop-color="#0046B4"/>
<stop offset="1" stop-color="#0049BA"/>
</linearGradient>
<linearGradient id="paint3_linear_154_128" x1="1183.03" y1="609.29" x2="747.607" y2="609.29" gradientUnits="userSpaceOnUse">
<stop stop-color="#002980"/>
<stop offset="0.13" stop-color="#002F8B"/>
<stop offset="0.46" stop-color="#003DA5"/>
<stop offset="0.76" stop-color="#0046B4"/>
<stop offset="1" stop-color="#0049BA"/>
</linearGradient>
<linearGradient id="paint4_linear_154_128" x1="497.6" y1="609.347" x2="792.23" y2="609.347" gradientUnits="userSpaceOnUse">
<stop stop-color="white"/>
<stop offset="0.16" stop-color="#9A9A9A"/>
<stop offset="0.36" stop-color="white"/>
<stop offset="0.4" stop-color="#F8F8F8"/>
<stop offset="0.46" stop-color="#E7E7E7"/>
<stop offset="0.52" stop-color="#CACACA"/>
<stop offset="0.6" stop-color="#A2A2A2"/>
<stop offset="0.67" stop-color="#6F6F6F"/>
<stop offset="0.74" stop-color="#3E3E3E"/>
<stop offset="0.89" stop-color="white"/>
<stop offset="1" stop-color="#9A9A9A"/>
</linearGradient>
</defs>
</svg>
