<svg width="1729" height="1665" viewBox="0 0 1729 1665" fill="none" xmlns="http://www.w3.org/2000/svg">
<path style="mix-blend-mode:multiply" d="M966.83 1664.37C1387.49 1664.37 1728.5 1345.35 1728.5 951.819C1728.5 558.289 1387.49 239.27 966.83 239.27C546.171 239.27 205.16 558.289 205.16 951.819C205.16 1345.35 546.171 1664.37 966.83 1664.37Z" fill="url(#paint0_radial_154_192)"/>
<path d="M322.18 193.668C367.13 193.668 408.15 199.338 445.23 210.668C482.31 222.008 514.1 238.138 540.61 259.078C567.12 280.028 587.67 305.378 602.27 335.148C616.87 364.928 624.17 398.068 624.17 434.568C624.17 461.468 619.17 485.288 609.18 506.038C599.18 526.788 586.71 545.518 571.72 562.228C556.73 578.948 540.6 593.838 523.31 606.898C506.02 619.968 489.88 631.968 474.9 642.918C459.91 653.868 447.43 664.338 437.44 674.328C427.44 684.328 422.45 694.498 422.45 704.878V755.048H220.73V670.868C220.73 656.658 224.48 643.208 231.97 630.528C239.46 617.848 248.97 605.558 260.5 593.648C272.02 581.748 284.31 570.018 297.38 558.488C310.43 546.958 322.74 534.958 334.26 522.468C345.79 509.988 355.3 497.018 362.79 483.568C370.28 470.128 374.03 455.328 374.03 439.188C374.03 428.438 372.3 418.068 368.84 408.068C365.38 398.078 360.29 389.338 353.57 381.848C346.85 374.358 338.68 368.308 329.08 363.698C319.47 359.088 308.52 356.778 296.23 356.778C280.09 356.778 267.03 359.658 257.04 365.428C247.04 371.188 239.26 378.688 233.7 387.898C228.12 397.118 224.38 407.688 222.46 419.598C220.53 431.508 219.58 443.618 219.58 455.908V471.758C219.58 476.948 219.96 482.228 220.73 487.608H3.45999C2.68999 479.928 1.91999 472.528 1.14999 465.418C0.379994 458.318 0 450.918 0 443.228C0 404.808 8.06999 370.238 24.21 339.488C40.34 308.758 62.72 282.538 91.35 260.818C119.97 239.108 153.97 222.488 193.36 210.968C232.74 199.438 275.68 193.678 322.17 193.678L322.18 193.668Z" fill="url(#paint1_linear_154_192)"/>
<path d="M425.28 829.338H221.37V1019.69H425.28V829.338Z" fill="url(#paint2_linear_154_192)"/>
<path d="M1268.62 178.407C1476.22 386.007 1502.67 706.107 1348.08 942.437L1405.74 1173.62L1183.12 1111.29C977.02 1253.44 702.98 1254.35 496.07 1113.97V104.727C733.18 -56.1828 1058.5 -31.7027 1268.62 178.407Z" fill="url(#paint3_linear_154_192)"/>
<path d="M555.8 178.407C537.16 150.537 517.11 126.067 496.07 104.727V1113.97C517.11 1092.63 537.15 1068.12 555.8 1040.24C715.02 802.247 715.02 416.397 555.8 178.407Z" fill="url(#paint4_linear_154_192)"/>
<path fill-rule="evenodd" clip-rule="evenodd" d="M727.001 870.552V829.656C727.001 795.763 754.501 768.286 788.397 768.312L870.257 768.286C904.179 768.312 931.653 795.763 931.653 829.656V850.104H1074.91V809.208H1238.6L1238.63 850.104H1279.56C1290.87 850.104 1300.03 859.254 1300 870.552C1300 881.85 1290.84 891 1279.56 891H747.44C736.158 891 727.001 881.85 727.001 870.552ZM853.014 508.899L807.096 463.044L792.642 477.511C784.635 485.486 771.666 485.486 763.684 477.511C755.702 469.511 755.702 456.578 763.684 448.577L908.401 303.981C916.408 296.006 929.352 296.006 937.333 303.981C945.341 311.982 945.341 324.915 937.333 332.915L922.88 347.357L968.773 393.237C976.934 389.326 985.989 387.23 995.225 387.23C1011.49 387.23 1027.12 393.697 1038.64 405.199L1096.53 463.041C1108.04 474.543 1114.51 490.16 1114.51 506.417C1114.51 522.673 1108.04 538.29 1096.53 549.792L1009.7 636.544C998.165 648.072 982.561 654.513 966.291 654.513C950.021 654.513 934.39 648.046 922.879 636.544L864.988 578.702C853.477 567.2 847.004 551.609 847.004 535.327C847.004 526.099 849.1 517.078 853.014 508.899ZM937.331 419.667L893.919 376.292L836.054 434.134L879.466 477.509L937.331 419.667ZM758.619 731.806C763.403 677.184 786.503 627.753 821.754 589.743C825.796 596.158 830.58 602.165 836.054 607.635L893.919 665.452C897.961 669.49 902.284 673.12 906.864 676.391C895.25 691.038 887.064 708.776 883.508 728.253C879.159 727.691 874.734 727.409 870.257 727.409H788.396C778.036 727.409 768.033 728.943 758.619 731.806ZM1128.17 575.89C1142.88 599.763 1139.61 631.049 1119.29 651.368L1111.36 659.292C1091.03 679.612 1059.69 682.858 1035.82 668.161C1036.8 667.292 1037.72 666.398 1038.64 665.452L1125.46 578.7C1126.38 577.779 1127.3 576.862 1128.17 575.89ZM1054.44 768.305C1043.14 768.305 1033.95 759.155 1033.98 747.857C1033.98 736.585 1043.16 727.409 1054.44 727.409H1259.1C1270.38 727.409 1279.56 736.585 1279.56 747.857C1279.56 759.155 1270.4 768.305 1259.1 768.28L1054.44 768.305Z" fill="white"/>
<defs>
<radialGradient id="paint0_radial_154_192" cx="0" cy="0" r="1" gradientUnits="userSpaceOnUse" gradientTransform="translate(968.102 951.819) scale(762.439 712.56)">
<stop stop-color="#1C7CFE"/>
<stop offset="0.02" stop-color="#2682FE"/>
<stop offset="0.12" stop-color="#599FFE"/>
<stop offset="0.23" stop-color="#85B8FE"/>
<stop offset="0.33" stop-color="#AACEFE"/>
<stop offset="0.45" stop-color="#C9E0FE"/>
<stop offset="0.56" stop-color="#E1EDFE"/>
<stop offset="0.69" stop-color="#F1F7FE"/>
<stop offset="0.83" stop-color="#FBFDFE"/>
<stop offset="1" stop-color="white"/>
</radialGradient>
<linearGradient id="paint1_linear_154_192" x1="450.87" y1="474.358" x2="165.09" y2="474.358" gradientUnits="userSpaceOnUse">
<stop stop-color="#002980"/>
<stop offset="0.13" stop-color="#002F8B"/>
<stop offset="0.46" stop-color="#003DA5"/>
<stop offset="0.76" stop-color="#0046B4"/>
<stop offset="1" stop-color="#0049BA"/>
</linearGradient>
<linearGradient id="paint2_linear_154_192" x1="450.87" y1="924.518" x2="165.09" y2="924.518" gradientUnits="userSpaceOnUse">
<stop stop-color="#002980"/>
<stop offset="0.13" stop-color="#002F8B"/>
<stop offset="0.46" stop-color="#003DA5"/>
<stop offset="0.76" stop-color="#0046B4"/>
<stop offset="1" stop-color="#0049BA"/>
</linearGradient>
<linearGradient id="paint3_linear_154_192" x1="1183.03" y1="609.29" x2="747.607" y2="609.29" gradientUnits="userSpaceOnUse">
<stop stop-color="#002980"/>
<stop offset="0.13" stop-color="#002F8B"/>
<stop offset="0.46" stop-color="#003DA5"/>
<stop offset="0.76" stop-color="#0046B4"/>
<stop offset="1" stop-color="#0049BA"/>
</linearGradient>
<linearGradient id="paint4_linear_154_192" x1="497.6" y1="609.347" x2="792.23" y2="609.347" gradientUnits="userSpaceOnUse">
<stop stop-color="white"/>
<stop offset="0.16" stop-color="#9A9A9A"/>
<stop offset="0.36" stop-color="white"/>
<stop offset="0.4" stop-color="#F8F8F8"/>
<stop offset="0.46" stop-color="#E7E7E7"/>
<stop offset="0.52" stop-color="#CACACA"/>
<stop offset="0.6" stop-color="#A2A2A2"/>
<stop offset="0.67" stop-color="#6F6F6F"/>
<stop offset="0.74" stop-color="#3E3E3E"/>
<stop offset="0.89" stop-color="white"/>
<stop offset="1" stop-color="#9A9A9A"/>
</linearGradient>
</defs>
</svg>
