<svg width="92" height="92" viewBox="0 0 92 92" fill="none" xmlns="http://www.w3.org/2000/svg">
<path d="M27.228 47.914C27.5015 54.9413 28.478 61.918 30.146 68.75H43.751V43.75H27.103C27.1265 45.1641 27.1655 46.5624 27.228 47.914Z" fill="#0A37B3"/>
<path d="M47.915 47.9141V68.7501H61.52C63.188 61.9181 64.1645 54.9411 64.438 47.9141C64.5005 46.5586 64.5435 45.1641 64.563 43.7461L47.915 43.75V47.9141Z" fill="#0A37B3"/>
<path d="M68.728 43.75C68.7085 45.1445 68.6655 46.543 68.603 47.918V47.9141C68.3139 54.9336 67.3647 61.9101 65.771 68.7501H85.501C89.544 61.7892 91.6729 53.8831 91.6651 45.8321V43.7501L68.728 43.75Z" fill="#0A37B3"/>
<path d="M27.021 72.9142H8.896C15.4351 81.8478 24.99 88.1092 35.791 90.5392C34.3379 88.8751 33.0644 87.0626 32.0019 85.1251C29.873 81.2618 28.2007 77.1643 27.021 72.9142Z" fill="#0A37B3"/>
<path d="M38.001 86.7496C39.4229 88.8043 41.4229 90.3941 43.751 91.3121V72.9141H31.313C32.6841 77.8946 34.9502 82.5816 38.001 86.7496Z" fill="#0A37B3"/>
<path d="M47.915 72.9136V91.3116C50.2431 90.3936 52.2431 88.8038 53.665 86.7491C56.7158 82.5811 58.9814 77.8936 60.3525 72.9131L47.915 72.9136Z" fill="#0A37B3"/>
<path d="M64.6451 72.9141C63.4654 77.1641 61.7935 81.2618 59.6646 85.1251C58.6021 87.0626 57.3287 88.8751 55.8755 90.5392C66.6765 88.1095 76.2305 81.8478 82.7705 72.9142L64.6451 72.9141Z" fill="#0A37B3"/>
<path d="M25.895 68.7501C24.3012 61.9103 23.352 54.9341 23.063 47.9141C23.0005 46.5391 22.9576 45.1446 22.938 43.7461L2.14277e-05 43.75V45.832C-0.00779157 53.8828 2.12112 61.789 6.16412 68.75L25.895 68.7501Z" fill="#0A37B3"/>
<path d="M45.8331 0C41.4151 0.003906 37.1808 1.7617 34.0561 4.8867C30.9314 8.0117 29.1733 12.2461 29.1655 16.6637C29.1655 25.3082 42.7905 39.4567 44.3535 41.0387L45.834 42.5582L47.3145 41.0387C48.877 39.4567 62.5025 25.3117 62.5025 16.6637C62.4947 12.2457 60.7369 8.0114 57.6119 4.8867C54.4869 1.762 50.2525 0.0039 45.8349 0H45.8331ZM45.8331 22.9141C43.3058 22.9141 41.0245 21.3946 40.0597 19.0586C39.091 16.7227 39.6261 14.0352 41.4152 12.2461C43.2004 10.457 45.8879 9.92189 48.2238 10.8906C50.5597 11.8593 52.0832 14.1367 52.0832 16.664C52.0715 20.1132 49.2823 22.9063 45.8331 22.9141Z" fill="#0A37B3"/>
<path d="M47.9151 16.664C47.9151 19.4413 43.751 19.4413 43.751 16.664C43.751 13.8867 47.9151 13.8867 47.9151 16.664Z" fill="#0A37B3"/>
</svg>
