<svg width="96" height="92" viewBox="0 0 96 92" fill="none" xmlns="http://www.w3.org/2000/svg">
<path d="M55.2003 65.6016H40.8003V92.0016H55.2003V65.6016Z" fill="#0A37B3"/>
<path d="M47.9994 32.0027C50.2085 32.0027 51.9993 30.2119 51.9993 28.0028C51.9993 25.7937 50.2085 24.0029 47.9994 24.0029C45.7903 24.0029 43.9995 25.7937 43.9995 28.0028C43.9995 30.2119 45.7903 32.0027 47.9994 32.0027Z" fill="#0A37B3"/>
<path d="M48.0003 10.626L28.8003 21.3138V92.0019H36.0003V63.2019C36.0003 61.89 37.0884 60.8019 38.4003 60.8019H57.6003C58.9122 60.8019 60.0003 61.89 60.0003 63.2019V92.0019H67.2003V21.3141L48.0003 10.626ZM54.4002 52.8021H41.5041C40.1601 52.8021 39.1041 51.714 39.1041 50.4021C39.1041 49.0902 40.1601 48.0021 41.5041 48.0021H54.4002C55.7121 48.0021 56.8002 49.0902 56.8002 50.4021C56.8002 51.714 55.7121 52.8021 54.4002 52.8021ZM48.0003 36.8022C43.1361 36.8022 39.2004 32.8662 39.2004 28.0023C39.2004 23.1384 43.1364 19.2024 48.0003 19.2024C52.8642 19.2024 56.8002 23.1384 56.8002 28.0023C56.8002 32.8662 52.8642 36.8022 48.0003 36.8022Z" fill="#0A37B3"/>
<path d="M76.7972 20.8008C76.4033 20.8008 76.0034 20.7039 75.6347 20.4993L48.0002 5.1462L20.3657 20.4993C19.2062 21.1431 17.747 20.7228 17.1032 19.5666C16.4594 18.4071 16.8752 16.9464 18.0344 16.3026L46.8347 0.3024C47.5598 -0.1008 48.4409 -0.1008 49.166 0.3024L77.966 16.3023C79.1255 16.9461 79.541 18.4071 78.8972 19.5663C78.4598 20.3553 77.6411 20.8008 76.7972 20.8008Z" fill="#0A37B3"/>
<path d="M24 28.002V47.202H0L6.3999 28.002H24Z" fill="#0A37B3"/>
<path d="M3.20068 52.002V92.0019H24.0006V52.002H3.20068ZM16.1607 80.802H11.0409C9.72868 80.802 8.64088 79.7139 8.64088 78.402C8.64088 77.0901 9.72868 76.002 11.0409 76.002H16.1607C17.4729 76.002 18.5607 77.0901 18.5607 78.402C18.5607 79.7139 17.4729 80.802 16.1607 80.802ZM16.1607 68.0019H11.0409C9.72868 68.0019 8.64088 66.9138 8.64088 65.6019C8.64088 64.29 9.72868 63.2019 11.0409 63.2019H16.1607C17.4729 63.2019 18.5607 64.29 18.5607 65.6019C18.5607 66.9138 17.4729 68.0019 16.1607 68.0019Z" fill="#0A37B3"/>
<path d="M96 47.202H72V28.002H89.6001L96 47.202Z" fill="#0A37B3"/>
<path d="M72 52.002V92.0019H92.7999V52.002H72ZM84.96 80.802H79.8402C78.528 80.802 77.4402 79.7139 77.4402 78.402C77.4402 77.0901 78.528 76.002 79.8402 76.002H84.96C86.2722 76.002 87.36 77.0901 87.36 78.402C87.36 79.7139 86.2722 80.802 84.96 80.802ZM84.96 68.0019H79.8402C78.528 68.0019 77.4402 66.9138 77.4402 65.6019C77.4402 64.29 78.528 63.2019 79.8402 63.2019H84.96C86.2722 63.2019 87.36 64.29 87.36 65.6019C87.36 66.9138 86.2722 68.0019 84.96 68.0019Z" fill="#0A37B3"/>
</svg>
