<svg width="110" height="105" viewBox="0 0 110 105" fill="none" xmlns="http://www.w3.org/2000/svg">
<path d="M46.5941 79.4684H76.1691C82.1497 76.6713 87.2104 72.2275 90.7635 66.725C94.2845 61.2724 96.3299 54.7693 96.3299 47.7883C96.3299 47.1477 96.3161 46.5752 96.2924 46.0639L96.2313 45.2163C95.7533 45.1787 95.2586 45.2468 94.7653 45.4469C93.951 45.7846 93.3577 46.4099 93.0451 47.1491C92.7269 47.9008 92.6935 48.7776 93.0228 49.5919L94.4249 53.0519C94.6681 53.6522 94.3763 54.3386 93.776 54.5818L87.5077 57.1191C85.5332 57.918 83.4086 57.8361 81.5814 57.0621C81.0325 56.8314 80.5156 56.5396 80.0362 56.1922C79.9334 56.7745 79.7638 57.3442 79.5346 57.8861C78.7675 59.6967 77.3182 61.2224 75.3743 62.0297L55.3149 70.153C53.3639 70.9394 51.2671 70.8686 49.4204 70.1085C47.5557 69.3192 46.0188 67.8477 45.2185 65.8732L42.9354 60.2344L40.9859 61.0237C39.6005 61.5614 38.1123 61.4947 36.8298 60.9528C35.5528 60.4123 34.4717 59.3951 33.8909 58.0306L33.8173 57.8486C33.2837 56.466 33.3504 54.9833 33.8923 53.7036C34.4384 52.4155 35.4653 51.3288 36.8395 50.7522L38.7807 49.9657L37.123 45.8749C36.3268 43.899 36.4074 41.7757 37.18 39.9471C37.9553 38.1157 39.4268 36.5775 41.4 35.7785L47.0332 33.4982L45.9646 30.8581C45.3949 29.4505 45.4519 27.9331 46.0049 26.6256C46.5594 25.3166 47.6112 24.2161 49.0202 23.645C50.4334 23.0753 51.9494 23.1364 53.2528 23.6881C54.5631 24.2425 55.6636 25.2944 56.2333 26.702L57.3019 29.3421L61.4011 27.6816C63.352 26.8951 65.4488 26.966 67.2955 27.7261C67.8763 27.9707 68.3932 28.2625 68.8726 28.6098C68.9754 28.0262 69.145 27.4579 69.3742 26.9146C70.1482 25.0846 71.6197 23.5477 73.5957 22.7474L81.8092 19.4222C79.1538 17.5074 76.215 15.9539 73.069 14.8381C69.4201 13.543 65.4835 12.8372 61.3788 12.8372C51.7271 12.8372 42.9882 16.7501 36.6644 23.0739C30.3406 29.3977 26.4277 38.1365 26.4277 47.7883C26.4277 54.7513 28.4634 61.239 31.9678 66.6833C35.5208 72.2039 40.5968 76.663 46.5941 79.4684ZM69.3159 32.841C68.7601 31.4654 67.6859 30.4399 66.3839 29.8868C65.0958 29.3588 63.6368 29.313 62.282 29.859L57.0935 31.9614C56.4932 32.2046 55.8068 31.9128 55.5636 31.3125L54.0545 27.583C53.7266 26.7715 53.0944 26.1642 52.344 25.8474C51.5923 25.5292 50.7155 25.4945 49.9012 25.8224C49.0883 26.1531 48.4811 26.7854 48.1643 27.5343C47.8461 28.2861 47.8141 29.1643 48.1434 29.9771L49.6525 33.7053C49.8956 34.3056 49.6038 34.992 49.0036 35.2352L42.281 37.9573C40.9025 38.5159 39.8771 39.5858 39.3393 40.8559C38.8002 42.1315 38.7446 43.6155 39.3004 44.9939L41.4 50.1741C41.6432 50.7744 41.3514 51.4608 40.7511 51.704L37.7622 52.9143C36.9632 53.245 36.3657 53.8717 36.0516 54.6123C35.7334 55.3627 35.7001 56.2395 36.0419 57.0857C36.3865 57.9 37.0077 58.4836 37.7385 58.7935C38.4903 59.1117 39.3685 59.1436 40.1814 58.8143L43.148 57.6165C43.7469 57.3761 44.4306 57.6679 44.6724 58.2654L47.3973 64.9922C47.9545 66.3679 49.0286 67.3947 50.332 67.9478C51.6201 68.4758 53.0791 68.5216 54.4339 67.9755L74.4822 59.8578C75.8356 59.2979 76.8416 58.2363 77.3752 56.9773C77.9144 55.7031 77.9713 54.2191 77.4127 52.8407L75.9343 49.1876L73.5443 50.1533C72.1533 50.6966 70.6623 50.6313 69.3756 50.088C68.0667 49.5349 66.9662 48.4803 66.3951 47.0685C65.8267 45.6609 65.8851 44.1449 66.4368 42.8401C66.9898 41.534 68.0417 40.4334 69.4521 39.8623L71.7781 38.9188L69.3159 32.841ZM71.4599 31.8753L74.3974 39.1273C74.6406 39.7276 74.3488 40.414 73.7485 40.6572L70.333 42.0398C69.5174 42.3677 68.9129 42.9999 68.5961 43.7489C68.2779 44.502 68.2445 45.3816 68.5739 46.1959C68.9018 47.0074 69.534 47.6118 70.2844 47.9286C71.0222 48.2413 71.881 48.2788 72.6841 47.9703L76.1413 46.5683C76.7416 46.3251 77.428 46.6169 77.6712 47.2172L79.5929 51.9625C80.1501 53.3367 81.2215 54.3622 82.4957 54.9027C83.7643 55.4405 85.2414 55.4975 86.6143 54.9458L91.8056 52.8434L90.8454 50.4729C90.2743 49.0569 90.3327 47.5437 90.8857 46.2403C91.4318 44.955 92.4587 43.8698 93.8705 43.2751C95.1363 42.7623 96.4494 42.7456 97.7653 43.1611C97.8918 43.2042 98.0155 43.2528 98.135 43.3015C99.4356 43.8517 100.529 44.8939 101.102 46.2876L102.074 48.6887L106.692 46.8184C108.016 46.264 109.01 45.2301 109.557 43.9712C110.1 42.6915 110.163 41.2366 109.639 39.8818C106.892 33.2092 104.234 26.4922 101.512 19.8085C100.954 18.4315 99.8816 17.406 98.6074 16.8654C97.3443 16.3305 95.8742 16.2721 94.5083 16.8154L74.4766 24.9248C73.0996 25.4792 72.0741 26.5533 71.5336 27.8289C71.0042 29.0767 70.9403 30.5232 71.4599 31.8753ZM33.2073 11.6977C33.877 12.4008 33.8478 13.5166 33.1447 14.1864C32.4416 14.8562 31.3258 14.827 30.6561 14.1239L20.0038 2.9728C19.3341 2.2697 19.3633 1.15389 20.0664 0.484135C20.7695 -0.185624 21.8853 -0.156444 22.555 0.546664L33.2073 11.6977ZM21.7116 29.5339C22.537 30.048 22.7913 31.136 22.2771 31.9614C21.763 32.7868 20.675 33.0411 19.8496 32.527L6.40995 24.1633C5.58457 23.6492 5.33028 22.5612 5.84441 21.7358C6.35854 20.9104 7.44655 20.6561 8.27194 21.1702L21.7116 29.5339ZM17.9932 47.3867C18.9672 47.3867 19.7579 48.1774 19.7579 49.1514C19.7579 50.1255 18.9672 50.9161 17.9932 50.9161H1.76472C0.790649 50.9161 0 50.1255 0 49.1514C0 48.1774 0.790649 47.3867 1.76472 47.3867H17.9932ZM50.5668 96.1944H72.1075C72.5313 95.0744 72.8481 93.8863 73.0524 92.6608L73.4664 90.186H49.2092L49.6233 92.6608C49.8276 93.8863 50.1444 95.0744 50.5668 96.1944ZM71.0028 98.5482H51.6701C52.2648 99.5904 52.9693 100.534 53.8072 101.382C55.7762 103.348 58.3093 104.55 61.3385 104.55C64.3663 104.55 66.8995 103.348 68.8351 101.412C69.666 100.581 70.3914 99.614 71.0028 98.5482ZM48.816 87.8321H73.8597L74.8643 81.8223H47.8113L48.816 87.8321Z" fill="#0A37B3"/>
</svg>
