<svg width="70" height="70" viewBox="0 0 70 70" fill="none" xmlns="http://www.w3.org/2000/svg">
<path d="M11.25 22.5C17.4536 22.5 22.5 17.4536 22.5 11.25C22.5 5.04639 17.4536 0 11.25 0C5.04639 0 0 5.04639 0 11.25C0 17.4536 5.04639 22.5 11.25 22.5Z" fill="#0A37B3"/>
<path d="M11.25 47.5C5.04639 47.5 0 52.5464 0 58.75C0 64.9536 5.04639 70 11.25 70C17.4536 70 22.5 64.9536 22.5 58.75C22.5 52.5464 17.4536 47.5 11.25 47.5Z" fill="#0A37B3"/>
<path d="M58.75 47.5C52.5464 47.5 47.5 52.5464 47.5 58.75C47.5 64.9536 52.5464 70 58.75 70C64.9536 70 70 64.9536 70 58.75C70 52.5464 64.9536 47.5 58.75 47.5Z" fill="#0A37B3"/>
<path d="M58.75 22.5C64.9536 22.5 70 17.4536 70 11.25C70 5.04639 64.9536 0 58.75 0C52.5464 0 47.5 5.04639 47.5 11.25C47.5 17.4536 52.5464 22.5 58.75 22.5Z" fill="#0A37B3"/>
<path d="M35.0002 32.7832L37.2036 22.5H32.7969L35.0002 32.7832Z" fill="#0A37B3"/>
<path d="M35 15C23.9722 15 15 23.9722 15 35C15 46.0278 23.9722 55 35 55C46.0278 55 55 46.0278 55 35C55 23.9722 46.0278 15 35 15ZM35 47.5C33.6192 47.5 32.5 46.3806 32.5 45C32.5 43.6192 33.6192 42.5 35 42.5C36.3808 42.5 37.5 43.6192 37.5 45C37.5 46.3806 36.3808 47.5 35 47.5ZM36.2219 39.0112C36.0986 39.5874 35.5896 40 35 40C34.4104 40 33.9014 39.5874 33.7781 39.0112L30.0281 21.5112C29.9487 21.1426 30.0403 20.7568 30.2783 20.4639C30.5151 20.1709 30.8728 20 31.25 20H38.75C39.1272 20 39.4849 20.1709 39.7217 20.4639C39.9597 20.7568 40.0513 21.1426 39.9719 21.5112L36.2219 39.0112Z" fill="#0A37B3"/>
</svg>
