<svg width="124" height="128" viewBox="0 0 124 128" fill="none" xmlns="http://www.w3.org/2000/svg">
<path fill-rule="evenodd" clip-rule="evenodd" d="M99.1589 16.7745C98.3011 16.2702 97.1912 16.5708 96.6871 17.4291L93.3041 23.2869C92.8001 24.1452 93.1006 25.28 93.9584 25.76C94.8163 26.2643 95.9261 25.9637 96.4302 25.1054L99.8132 19.2475C100.322 18.3941 100.017 17.2788 99.1589 16.7745Z" fill="#0A37B3"/>
<path fill-rule="evenodd" clip-rule="evenodd" d="M112.744 34.4053C113.602 33.901 113.907 32.7905 113.398 31.9322C112.894 31.0739 111.784 30.7684 110.926 31.2776L105.071 34.6624C104.214 35.1667 103.908 36.2771 104.417 37.1354C104.921 38.018 106.031 38.2992 106.889 37.7901L112.744 34.4053Z" fill="#0A37B3"/>
<path fill-rule="evenodd" clip-rule="evenodd" d="M62.2816 25.1329C62.7856 25.9912 63.8955 26.2967 64.7534 25.7875C65.6112 25.2832 65.9166 24.1728 65.4077 23.3145L62.0247 17.4567C61.5206 16.5983 60.4107 16.2929 59.5529 16.802C58.695 17.3063 58.3897 18.4168 58.8986 19.2751L62.2816 25.1329Z" fill="#0A37B3"/>
<path fill-rule="evenodd" clip-rule="evenodd" d="M115.39 50.7715H108.629C107.621 50.7715 106.812 51.5813 106.812 52.5899C106.812 53.5984 107.621 54.4082 108.629 54.4082H115.395C116.403 54.4082 117.213 53.5984 117.213 52.5899C117.208 51.5812 116.404 50.7715 115.39 50.7715Z" fill="#0A37B3"/>
<path fill-rule="evenodd" clip-rule="evenodd" d="M79.3702 21.6474C80.3783 21.6474 81.1876 20.8376 81.1876 19.829V13.0645C81.1876 12.0558 80.3782 11.2461 79.3702 11.2461C78.3621 11.2461 77.5527 12.0559 77.5527 13.0645V19.8338C77.5527 20.8425 78.3621 21.6474 79.3702 21.6474Z" fill="#0A37B3"/>
<path fill-rule="evenodd" clip-rule="evenodd" d="M73.1614 101.94C71.2664 101.207 69.9044 99.3648 69.9044 97.1924V94.9958C68.2371 94.2393 67.0789 92.5712 67.0789 90.6267C67.0789 89.2108 67.709 87.9257 68.6929 87.0384C67.709 86.1559 67.0789 84.8902 67.0789 83.4501C67.0789 81.5832 68.1403 79.9635 69.7058 79.1828C68.9982 73.0438 66.2744 69.3584 63.3955 65.4693C60.1144 60.9984 56.7072 56.4014 56.3291 48.0652C56.0238 41.6497 58.4762 35.4143 62.8672 30.8895C48.327 25.6621 28.2083 27.8345 16.5429 44.9568C12.0743 51.5225 9.32142 61.1195 13.2374 67.8155C15.2051 70.7201 14.5509 73.7508 12.8352 76.607C7.80918 84.031 7.86253 86.4556 8.11453 87.1393C8.34231 87.7455 9.42797 87.8231 10.0095 87.92C11.2212 88.1479 12.6074 88.4001 13.344 89.5882C14.0274 90.6744 13.8481 92.4444 13.3925 93.6033C12.8642 94.966 12.6364 96.0037 14.3036 96.3043C15.2148 96.4789 15.5929 97.5651 15.0112 98.273C13.722 99.8393 14.5314 101.003 15.9224 102.138C19.0001 103.83 17.5121 108.553 16.9305 110.323C16.853 111.535 17.2843 112.064 17.6139 112.37C18.748 113.407 21.8548 114.265 30.2347 112.597C37.7809 111.109 42.4532 113.659 44.4983 120.453H77.3246C75.5555 116.084 74.2469 111.637 73.4859 107.52C73.1079 105.576 73.0063 103.734 73.1614 101.94ZM50.1109 54.4085H43.345C42.3369 54.4085 41.5276 53.5987 41.5276 52.5901C41.5276 51.5816 42.337 50.7718 43.345 50.7718H50.1109C51.119 50.7718 51.9283 51.5816 51.9283 52.5901C51.9283 53.5987 51.0947 54.4085 50.1109 54.4085ZM54.3274 37.131C53.8234 37.9893 52.7135 38.2948 51.8556 37.7856L46.0008 34.4009C45.143 33.8966 44.8376 32.7861 45.3465 31.9278C45.8506 31.0695 46.9605 30.764 47.8183 31.2732L53.6731 34.6579C54.531 35.138 54.8315 36.2484 54.3274 37.131Z" fill="#0A37B3"/>
<path fill-rule="evenodd" clip-rule="evenodd" d="M90.6053 29.7324C83.7619 25.2858 74.9261 25.2858 68.1119 29.7324C62.0051 33.699 58.4186 40.6963 58.7725 47.9695C59.1263 55.573 62.1555 59.6899 65.3881 64.0342C68.2912 67.9766 71.2962 72.0401 72.1298 78.6837H75.3868V66.7355L71.3205 63.0986C70.8164 62.6428 70.7922 61.8863 71.2187 61.382C71.6743 60.8777 72.4304 60.8535 72.9344 61.2802L77.3787 65.2953C77.6308 65.5232 77.781 65.8529 77.781 66.2069V78.684H80.9362V66.2069C80.9362 65.8529 81.0865 65.5232 81.3385 65.2953L85.7828 61.2802C86.2869 60.8244 87.0429 60.8777 87.4985 61.382C87.9541 61.8863 87.9008 62.6428 87.3967 63.0986L83.3595 66.7355V78.6837H86.6164C87.4743 71.6622 90.4792 67.8217 93.3823 64.1124C96.5859 60.0197 99.5909 56.1549 99.9689 47.9745C100.298 40.6959 96.7121 33.6986 90.6053 29.7324Z" fill="#0A37B3"/>
<path fill-rule="evenodd" clip-rule="evenodd" d="M86.8432 88.2793H71.8725C70.559 88.2793 69.4976 89.3413 69.4976 90.6554C69.4976 91.9696 70.559 93.0315 71.8433 93.0315H86.8389C88.1281 93.0315 89.1846 91.9938 89.1846 90.6846C89.2137 89.3366 88.1518 88.2793 86.8432 88.2793Z" fill="#0A37B3"/>
<path fill-rule="evenodd" clip-rule="evenodd" d="M72.3284 97.1926C72.3284 98.6813 73.5401 99.8451 74.9795 99.8451H83.7132C85.1769 99.8451 86.3643 98.657 86.3643 97.1926V95.3984H72.3042L72.3284 97.1926Z" fill="#0A37B3"/>
<path fill-rule="evenodd" clip-rule="evenodd" d="M86.8432 81.1318H71.8725C70.559 81.1318 69.4976 82.1938 69.4976 83.508C69.4976 84.8221 70.559 85.8841 71.8433 85.8841H86.8389C88.1281 85.8841 89.1846 84.8464 89.1846 83.5371C89.2137 82.1891 88.1518 81.1318 86.8432 81.1318Z" fill="#0A37B3"/>
</svg>
