<svg width="56" height="56" viewBox="0 0 56 56" fill="none" xmlns="http://www.w3.org/2000/svg">
<path d="M53.85 19.38H37.69V2.15C37.69 1.57978 37.4635 1.03292 37.0603 0.62972C36.6571 0.226517 36.1102 0 35.54 0H21.54C20.9698 0 20.4229 0.226517 20.0197 0.62972C19.6165 1.03292 19.39 1.57978 19.39 2.15V19.38H2.15002C1.86684 19.38 1.58644 19.4359 1.32494 19.5446C1.06343 19.6533 0.825974 19.8125 0.626197 20.0133C0.42642 20.214 0.268261 20.4522 0.160803 20.7142C0.0533455 20.9762 -0.00129388 21.2568 2.32579e-05 21.54V35.54C2.32579e-05 36.1102 0.22654 36.6571 0.629743 37.0603C1.03295 37.4635 1.57981 37.69 2.15002 37.69H19.38V53.85C19.38 54.1332 19.436 54.4136 19.5446 54.6751C19.6533 54.9366 19.8126 55.174 20.0133 55.3738C20.214 55.5736 20.4522 55.7318 20.7142 55.8392C20.9762 55.9467 21.2568 56.0013 21.54 56H35.54C36.1102 56 36.6571 55.7735 37.0603 55.3703C37.4635 54.9671 37.69 54.4202 37.69 53.85V37.69H53.85C54.4202 37.69 54.9671 37.4635 55.3703 37.0603C55.7735 36.6571 56 36.1102 56 35.54V21.54C56.0013 21.2568 55.9467 20.9762 55.8392 20.7142C55.7318 20.4522 55.5736 20.214 55.3738 20.0133C55.1741 19.8125 54.9366 19.6533 54.6751 19.5446C54.4136 19.4359 54.1332 19.38 53.85 19.38Z" fill="#0A37B3"/>
</svg>
