<svg width="89" height="89" viewBox="0 0 89 89" fill="none" xmlns="http://www.w3.org/2000/svg">
<path fill-rule="evenodd" clip-rule="evenodd" d="M13.9298 11.8471C16.0782 11.8471 17.836 13.5659 17.8907 15.7104L17.9024 16.2299C14.8829 15.5268 12.9766 15.5268 9.95714 16.2299L9.96886 15.7104C10.0235 13.5659 11.7814 11.8471 13.9298 11.8471ZM67.4178 52.9841C67.0389 60.2068 68.6912 64.5001 71.953 64.7611C74.1249 64.9369 76.9335 63.2845 79.285 60.4486C81.6912 57.5502 83.3788 53.7494 84.0077 49.8786L67.3127 49.8825C67.4416 50.8122 67.4764 51.8356 67.4178 52.9841ZM32.4258 74.1721C35.8516 57.9811 34.4766 52.7701 32.3164 49.8831H10.8434C11.2966 52.4612 12.3629 54.9026 14.2301 57.6604C15.2184 59.1213 18.8121 63.7659 22.6246 67.8754C29.3355 75.102 31.5152 75.1098 31.8824 75.0356C31.9762 75.0161 32.2579 74.9612 32.4258 74.1721ZM65.2778 49.8831C65.4224 50.7503 65.4692 51.7386 65.4067 52.8792C64.7739 64.8992 69.6645 66.5982 71.7934 66.7702C74.7348 67.0046 78.1137 65.0202 80.8364 61.739C83.5317 58.489 85.4067 54.2117 86.0512 49.884H88.8442C85.7387 71.782 66.9572 88.157 44.6882 88.157C22.4222 88.157 3.63723 71.782 0.532234 49.884H8.80173C9.26267 52.8801 10.4423 55.6652 12.5595 58.7902C13.6103 60.3449 17.2079 65.005 21.1454 69.2472C27.3056 75.8839 30.1337 77.0714 31.6924 77.0714C32.8213 77.0714 33.9932 76.4698 34.3877 74.5948C37.0752 61.9068 37.1963 54.4698 34.6807 49.8878L65.2778 49.8831ZM75.8638 26.0041C74.8951 26.6291 72.6216 26.633 71.6216 26.051C71.1412 25.7697 70.9771 25.1525 71.2583 24.6721C71.5396 24.1916 72.1529 24.0276 72.6372 24.3088C72.9927 24.5158 74.4497 24.5119 74.7778 24.3088C75.938 23.6018 76.9576 25.2932 75.8638 26.0041ZM68.3482 19.3322V31.6522C68.3482 37.3436 72.9771 41.9722 78.6642 41.9722C84.3556 41.9722 88.9802 37.3433 88.9802 31.6522V19.3322H68.3482ZM81.5042 26.051C80.3597 25.383 81.3714 23.6448 82.5159 24.3088C82.8714 24.5158 84.3284 24.508 84.6565 24.3088C85.8167 23.6018 86.8362 25.2971 85.7463 26.0041C84.7815 26.6291 82.5042 26.6291 81.5042 26.051ZM78.6644 35.4612C80.2816 35.4612 81.7542 34.8128 82.4105 33.8089C82.7152 33.3441 83.3402 33.2152 83.805 33.5199C84.2699 33.8245 84.4027 34.4495 84.0941 34.9143C81.8949 38.262 75.7152 38.3167 73.3601 35.0979C73.032 34.6487 73.1296 34.0198 73.5788 33.6917C74.0281 33.3636 74.6569 33.4613 74.985 33.9105C75.6725 34.8519 77.1175 35.4612 78.6644 35.4612ZM44.6874 16.2812C41.3163 16.2812 38.0819 15.8867 35.3046 15.1562C34.7187 20.5664 38.9413 25.2422 44.3319 25.2422C49.6639 25.2422 53.8631 20.6484 53.3749 15.3281C50.7577 15.9492 47.7811 16.2812 44.6874 16.2812ZM28.9334 8.50001C28.9334 11.2266 35.4061 14.2656 44.6874 14.2656C53.9726 14.2656 60.4414 11.2265 60.4414 8.50001C60.4414 8.04298 60.2617 7.57813 59.9102 7.11721C57.8946 7.51565 55.6836 7.82815 53.336 8.0508C52.7461 8.10549 52.2344 7.64064 52.2344 7.0469V1.5938C52.2344 0.71489 51.5195 0 50.6406 0H38.7346C37.8557 0 37.1408 0.71484 37.1408 1.5938V7.0508C37.1408 7.64455 36.6291 8.1094 36.0392 8.0547C33.6915 7.83204 31.4806 7.51564 29.465 7.12111C29.1134 7.58205 28.9334 8.04689 28.9334 8.50001ZM22.449 31.867C22.449 25.6912 17.8162 24.3943 13.9295 24.3943C10.0428 24.3943 5.41002 25.6912 5.41002 31.867C5.41002 37.4412 9.23032 41.972 13.9295 41.972C18.6248 41.972 22.449 37.4368 22.449 31.867ZM27.8631 30.4295L23.9959 33.4217L24.0623 31.867C24.0623 25.6092 19.8748 22.785 13.9333 22.785C7.61303 22.785 3.49933 25.9725 3.82033 32.5467L3.8633 33.4178L0 30.4295L0.00781202 30.2225C0.277342 22.7655 6.49611 16.9175 13.9338 16.9175C21.3715 16.9175 27.5898 22.7613 27.8598 30.2225L27.8631 30.4295Z" fill="#0A37B3"/>
</svg>
