<svg width="59" height="67" viewBox="0 0 59 67" fill="none" xmlns="http://www.w3.org/2000/svg">
<path d="M37.8416 3.4805C35.6228 1.2539 32.6033 0 29.4588 0C26.3143 0 23.2947 1.2539 21.076 3.4805C17.6932 6.8555 16.6658 11.9258 18.4627 16.3475C20.2596 20.7733 24.533 23.6873 29.3107 23.7459H29.6115H29.6076C34.4006 23.7186 38.7014 20.8084 40.5056 16.367C42.3064 11.9295 41.2557 6.8402 37.8416 3.4805ZM6.0606 35.7655V42.5819C8.8379 43.2694 11.0294 45.3944 11.8028 48.1522C12.5762 50.9061 11.8067 53.867 9.7911 55.8983C8.7638 56.9256 7.4708 57.6522 6.0606 57.996V64.828H22.2596C24.2596 64.828 26.0916 65.5116 27.5916 66.6796V41.5816C27.5721 40.0504 26.9979 38.5816 25.9744 37.4488C25.0291 36.3902 23.6775 35.7808 22.2596 35.7652L6.0606 35.7655ZM17.2756 32.0155H22.2756C24.7756 32.0155 27.0764 33.1327 28.7248 34.9139C28.9904 35.2147 29.2248 35.5155 29.4592 35.8319C31.0842 33.4608 33.7678 32.035 36.6428 32.0155H41.6076C38.2873 29.1405 34.0529 27.5389 29.6586 27.496H29.2601C24.8499 27.535 20.5999 29.1366 17.2601 32.0155L17.2756 32.0155ZM31.3266 41.5819V66.6799C32.8266 65.5119 34.6586 64.8127 36.6586 64.8127H52.8576V58.0158C49.3029 57.1486 46.8029 53.965 46.8029 50.3049C46.8029 46.6487 49.3029 43.4611 52.8576 42.5979V35.7659H36.6276C35.2096 35.7893 33.8659 36.4065 32.9245 37.4651C31.905 38.6018 31.3307 40.0706 31.3112 41.5979L31.3266 41.5819ZM7.1426 47.3319C5.5098 45.6952 2.8614 45.6952 1.2246 47.3319C-0.4082 48.9647 -0.4082 51.6131 1.2246 53.246C2.8926 54.6444 5.3535 54.5351 6.8926 52.996C8.4317 51.4569 8.541 48.9999 7.1426 47.3319ZM57.6936 47.3319C56.053 45.7147 53.4163 45.7147 51.7756 47.3319C50.9865 48.1132 50.5451 49.1796 50.5451 50.2889C50.5451 51.3982 50.9865 52.4647 51.7756 53.2459C52.5608 54.0311 53.6233 54.4725 54.7326 54.4725C55.842 54.4725 56.9084 54.0311 57.6935 53.2459C58.4826 52.4646 58.924 51.3982 58.924 50.2889C58.924 49.1796 58.4827 48.1131 57.6936 47.3319Z" fill="#0A37B3"/>
</svg>
