<svg width="90" height="90" viewBox="0 0 90 90" fill="none" xmlns="http://www.w3.org/2000/svg">
<path d="M70.7153 44.9998C70.7153 30.8198 59.1804 19.2848 45.0004 19.2848C30.8204 19.2848 19.2854 30.8198 19.2854 44.9998C19.2854 48.4881 19.9768 51.8709 21.2932 54.9959C21.3283 55.0623 21.3596 55.1326 21.383 55.2029C22.6564 58.1443 24.4846 60.8474 26.8166 63.1834C29.1525 65.5193 31.8557 67.3475 34.801 68.617C34.8674 68.6405 34.9377 68.6678 35.0041 68.703C38.1252 70.0194 41.5119 70.7147 45.0041 70.7147C59.1841 70.7147 70.7191 59.1797 70.7191 44.9997L70.7153 44.9998ZM62.0709 59.6368L59.6373 62.0704C58.5318 63.1759 56.8834 63.2579 55.3404 62.2852L52.8404 60.711C52.106 61.0782 51.3443 61.3946 50.567 61.6525L49.9107 64.5313C49.5045 66.3125 48.2818 67.4181 46.7193 67.4181H43.2779C41.7154 67.4181 40.4927 66.3125 40.0865 64.5313L39.4342 61.6563C38.6568 61.3946 37.8951 61.0821 37.1608 60.7149L34.6647 62.2852C33.1217 63.2579 31.4733 63.1759 30.3678 62.0704L27.9342 59.6368C26.8287 58.5313 26.7467 56.8829 27.7193 55.3399L29.2935 52.8399C28.9263 52.1055 28.6099 51.3438 28.3521 50.5665L25.4732 49.9103C23.692 49.504 22.5865 48.2814 22.5865 46.7189V43.2775C22.5865 41.715 23.692 40.4923 25.4732 40.0861L28.3521 39.4298C28.6138 38.6525 28.9263 37.8907 29.2935 37.1564L27.7193 34.6564C26.7467 33.1134 26.8287 31.465 27.9342 30.3595L30.3678 27.9259C31.4733 26.8204 33.1217 26.7384 34.6647 27.7111L37.1647 29.2853C37.899 28.9181 38.6608 28.6017 39.4381 28.3439L40.0943 25.465C40.5006 23.6838 41.7232 22.5782 43.2857 22.5782H46.7271C48.2896 22.5782 49.5123 23.6838 49.9185 25.465L50.5748 28.3439C51.3521 28.6056 52.11 28.9181 52.8482 29.2853L55.3482 27.7111C56.8951 26.7384 58.5396 26.8204 59.6451 27.9259L62.0787 30.3595C63.1842 31.465 63.2662 33.1134 62.2935 34.6564L60.7232 37.1525C61.0904 37.8869 61.4068 38.6486 61.6646 39.4259L64.5396 40.0782C66.3208 40.4845 67.4263 41.7071 67.4263 43.2696V46.711C67.4263 48.2735 66.3208 49.4962 64.5396 49.9024L61.6607 50.5587C61.399 51.336 61.0865 52.0978 60.7193 52.8321L62.2935 55.3321C63.2662 56.879 63.1841 58.5235 62.0787 59.629L62.0709 59.6368ZM51.5319 44.9998C51.5319 48.6014 48.6022 51.531 45.0007 51.531C41.3992 51.531 38.4695 48.6013 38.4695 44.9998C38.4695 41.3983 41.3992 38.4686 45.0007 38.4686C48.6022 38.4686 51.5319 41.3983 51.5319 44.9998ZM58.9342 48.8396C59.0865 48.2888 59.5279 47.863 60.0864 47.738L63.8403 46.8825C64.1099 46.82 64.2544 46.7302 64.3091 46.6833V43.3122C64.2544 43.2653 64.106 43.1755 63.8403 43.113L60.0864 42.2575C59.5279 42.1286 59.0865 41.7067 58.9342 41.1559C58.6177 40.0075 58.1568 38.8981 57.567 37.859C57.2857 37.3629 57.2974 36.7496 57.6021 36.2652L59.6529 33.0035C59.8013 32.7691 59.8365 32.6012 59.8443 32.5309L57.4576 30.1442C57.3873 30.152 57.2193 30.191 56.985 30.3356L53.7233 32.3864C53.2389 32.6911 52.6256 32.7028 52.1295 32.4215C51.0904 31.8317 49.9811 31.3707 48.8326 31.0543C48.2818 30.902 47.856 30.4606 47.731 29.902L46.8755 26.1481C46.813 25.8786 46.7231 25.7341 46.6763 25.6794H43.3052C43.2583 25.7341 43.1684 25.8825 43.1059 26.1481L42.2505 29.902C42.1216 30.4606 41.6997 30.902 41.1489 31.0543C40.0005 31.3707 38.895 31.8278 37.852 32.4215C37.3559 32.7028 36.7426 32.6911 36.2582 32.3864L32.9965 30.3356C32.7621 30.1871 32.5941 30.152 32.5238 30.1442L30.141 32.527C30.1488 32.5973 30.184 32.7652 30.3324 32.9996L32.3832 36.2613C32.6879 36.7457 32.7035 37.359 32.4184 37.8551C31.8285 38.8942 31.3676 40.0035 31.0512 41.152C30.8988 41.7028 30.4574 42.1286 29.8989 42.2536L26.145 43.1091C25.8755 43.1716 25.7309 43.2614 25.6762 43.3083V46.6794C25.7309 46.7263 25.8794 46.8161 26.145 46.8786L29.8989 47.7341C30.4575 47.863 30.8989 48.2849 31.0512 48.8357C31.3676 49.9841 31.8246 51.0935 32.4184 52.1287C32.6996 52.6248 32.6879 53.2381 32.3832 53.7225L30.3324 56.9842C30.184 57.2186 30.1488 57.3865 30.141 57.4569L32.5277 59.8436C32.598 59.8357 32.766 59.8006 33.0004 59.6522L36.2621 57.6014C36.7465 57.2967 37.3598 57.281 37.8559 57.5662C38.895 58.156 40.0043 58.617 41.1528 58.9334C41.7036 59.0857 42.1293 59.5271 42.2544 60.0857L43.1098 63.8396C43.1723 64.1091 43.2622 64.2537 43.3091 64.3083H46.6802C46.727 64.2537 46.8169 64.1052 46.8794 63.8396L47.7349 60.0857C47.8638 59.5271 48.2856 59.0857 48.8365 58.9334C49.9849 58.617 51.0943 58.16 52.1295 57.5662C52.6255 57.2849 53.2389 57.2967 53.7233 57.6014L56.985 59.6522C57.2193 59.8006 57.3873 59.8357 57.4576 59.8436L59.8443 57.4569C59.8365 57.3866 59.7974 57.2186 59.6529 56.9842L57.6021 53.7225C57.2974 53.2381 57.2818 52.6248 57.567 52.1287C58.1568 51.0896 58.6178 49.9803 58.9342 48.8357V48.8396ZM44.9962 54.6365C39.6837 54.6365 35.3595 50.3123 35.3595 44.9998C35.3595 39.6873 39.6837 35.3631 44.9962 35.3631C50.3087 35.3631 54.6329 39.6873 54.6329 44.9998C54.6329 50.3123 50.3087 54.6365 44.9962 54.6365ZM74.5552 15.4415C72.9263 13.8126 72.0318 11.6485 72.0318 9.3477C72.0318 4.5938 75.8989 0.7305 80.6489 0.7305C85.4028 0.7305 89.2662 4.5977 89.2662 9.3477C89.2662 14.0977 85.3989 17.9649 80.6489 17.9649C78.3482 17.9649 76.1842 17.0704 74.5552 15.4415ZM0.73115 9.3477C0.73115 4.5938 4.59835 0.7305 9.34835 0.7305C14.0983 0.7305 17.9655 4.5977 17.9655 9.3477C17.9655 11.6485 17.071 13.8125 15.4421 15.4415C13.8133 17.0705 11.6491 17.9649 9.34835 17.9649C4.59445 17.9649 0.73115 14.0977 0.73115 9.3477ZM0.00067997 41.2817C0.66865 34.0161 3.09448 26.9767 7.03188 20.8407C7.78188 20.993 8.55528 21.0712 9.34828 21.0712C12.4811 21.0712 15.4225 19.8524 17.6374 17.6376C19.8522 15.4228 21.071 12.4774 21.071 9.34847C21.071 8.5555 20.9929 7.78207 20.8405 7.03207C26.9772 3.09067 34.0165 0.66877 41.2815 0.000870228C42.7542 0.52431 42.9846 1.91887 42.9846 2.72747C42.9846 4.25867 42.1838 5.68447 41.1408 6.03607C36.8635 6.50482 32.7228 7.66107 28.8248 9.46577C28.4381 9.64546 28.1412 9.97749 28.0045 10.3798C27.8678 10.7822 27.9068 11.2275 28.1061 11.6025L32.1491 19.208C26.5632 22.0049 22.0081 26.5596 19.2111 32.146L11.6056 28.103C11.2306 27.9038 10.7892 27.8687 10.3829 28.0015C9.98052 28.1382 9.64849 28.4351 9.4688 28.8218C7.6602 32.7202 6.5079 36.8648 6.0352 41.1378C5.68754 42.1808 4.2618 42.9816 2.7266 42.9816C1.9141 42.9816 0.5235 42.755 0 41.2785L0.00067997 41.2817ZM42.9847 87.2697C42.9847 88.0822 42.7581 89.4728 41.2816 89.9963C34.016 89.3283 26.9766 86.9025 20.8406 82.9651C20.9929 82.2151 21.071 81.4417 21.071 80.6487C21.071 74.1839 15.8132 68.9257 9.34805 68.9257C8.55508 68.9257 7.78165 69.0038 7.03165 69.1562C3.09025 63.0195 0.66835 55.9802 0.000450134 48.7152C0.52389 47.2425 1.91845 47.0121 2.72705 47.0121C4.25825 47.0121 5.68405 47.8129 6.03565 48.8559C6.5044 53.1332 7.66065 57.2739 9.46535 61.1719C9.64504 61.5586 9.97707 61.8555 10.3794 61.9922C10.7817 62.1289 11.2271 62.0898 11.6021 61.8906L19.1919 57.8554C20.563 60.6015 22.3833 63.1406 24.6177 65.3749C26.8521 67.6093 29.3872 69.4296 32.1333 70.8007L28.0981 78.3905C27.8989 78.7655 27.8598 79.2108 27.9966 79.6132C28.1333 80.0156 28.4301 80.3476 28.8169 80.5273C32.7153 82.3359 36.8599 83.4882 41.1329 83.9609C42.1759 84.3085 42.9767 85.7343 42.9767 87.2695L42.9847 87.2697ZM17.9647 80.6486C17.9647 85.4025 14.0975 89.2658 9.34748 89.2658C4.59358 89.2658 0.73028 85.3986 0.73028 80.6486C0.73028 75.8986 4.59748 72.0314 9.34748 72.0314C14.1014 72.0314 17.9647 75.8986 17.9647 80.6486ZM89.9957 48.7146C89.3277 55.9802 86.9019 63.0196 82.9645 69.1556C82.2145 69.0033 81.4411 68.9251 80.6481 68.9251C77.5153 68.9251 74.5739 70.1439 72.359 72.3587C70.1441 74.5735 68.9254 77.5149 68.9254 80.6478C68.9254 81.4408 69.0035 82.2142 69.1559 82.9642C63.0192 86.9056 55.9799 89.3275 48.7149 89.9954C47.2422 89.472 47.0117 88.0774 47.0117 87.2688C47.0117 85.7376 47.8125 84.3118 48.8556 83.9602C53.1329 83.4915 57.2736 82.3352 61.1716 80.5266C61.5583 80.3469 61.8551 80.0149 61.9919 79.6126C62.1286 79.2102 62.0895 78.7649 61.8903 78.3899L57.8473 70.7844C63.4332 67.9875 67.9883 63.4328 70.7853 57.8464L78.3908 61.8894C78.7658 62.0886 79.2111 62.1276 79.6135 61.9909C80.0158 61.8542 80.3479 61.5573 80.5276 61.1706C82.3362 57.2722 83.4885 53.1276 83.9612 48.8546C84.3088 47.8116 85.7346 47.0108 87.2698 47.0108C88.0823 47.0108 89.4761 47.2381 89.9957 48.7146ZM47.0157 2.7266C47.0157 1.9141 47.2422 0.5235 48.7188 0C55.9844 0.66797 63.0238 3.0938 69.1598 7.0312C69.0074 7.7812 68.9293 8.5546 68.9293 9.3476C68.9293 12.4804 70.1481 15.4218 72.3629 17.6367C74.5777 19.8515 77.5191 21.0703 80.652 21.0703C81.445 21.0703 82.2184 20.9922 82.9684 20.8398C86.9098 26.9765 89.3317 34.0158 89.9996 41.2808C89.4762 42.7535 88.0816 42.9839 87.273 42.9839C85.7418 42.9839 84.316 42.1832 83.9644 41.1401C83.4957 36.8628 82.3394 32.7221 80.5347 28.8241C80.355 28.4374 80.023 28.1405 79.6207 28.0038C79.2144 27.8671 78.773 27.9062 78.3979 28.1054L70.7924 32.1484C67.9956 26.5625 63.4408 22.0074 57.8545 19.2104L61.8975 11.6049C62.0967 11.2299 62.1357 10.7846 61.999 10.3822C61.8623 9.97984 61.5654 9.64781 61.1787 9.46812C57.2803 7.65952 53.1357 6.50722 48.8627 6.03452C47.8197 5.68686 47.0189 4.26112 47.0189 2.72592L47.0157 2.7266ZM89.2697 80.6486C89.2697 85.4025 85.4025 89.2658 80.6525 89.2658C75.8986 89.2658 72.0353 85.3986 72.0353 80.6486C72.0353 78.3478 72.9298 76.1838 74.5587 74.5548C76.1876 72.9259 78.3517 72.0314 80.6525 72.0314C85.4064 72.0314 89.2697 75.8986 89.2697 80.6486Z" fill="#0A37B3"/>
</svg>
