<svg width="94" height="94" viewBox="0 0 94 94" fill="none" xmlns="http://www.w3.org/2000/svg">
<path fill-rule="evenodd" clip-rule="evenodd" d="M77.46 68C76.7348 67.2782 75.7532 66.873 74.73 66.873C73.7068 66.873 72.7252 67.2782 72 68L68 72C67.2843 72.7244 66.8829 73.7017 66.8829 74.72C66.8829 75.7383 67.2843 76.7156 68 77.44L82.6 92.04C83.8606 93.2406 85.5406 93.9007 87.2813 93.8795C89.022 93.8583 90.6855 93.1573 91.9164 91.9264C93.1474 90.6954 93.8483 89.032 93.8695 87.2913C93.8907 85.5506 93.2306 83.8706 92.03 82.61L77.46 68ZM51 11.2C51.679 11.2 52.3301 11.4697 52.8102 11.9498C53.2903 12.4299 53.56 13.081 53.56 13.76C53.56 14.439 53.2903 15.0901 52.8102 15.5702C52.3301 16.0503 51.679 16.32 51 16.32C50.7564 16.3225 50.5137 16.2888 50.28 16.22L41.83 25.11C41.9371 25.3948 41.9946 25.6958 42 26C41.9851 26.6548 41.7197 27.279 41.2585 27.7441C40.7973 28.2092 40.1754 28.4798 39.5208 28.5003C38.8661 28.5208 38.2285 28.2896 37.7391 27.8543C37.2498 27.4189 36.9459 26.8126 36.89 26.16L29.47 22.9C29.0166 23.2737 28.4476 23.4787 27.86 23.48C27.5384 23.4773 27.2199 23.4163 26.92 23.3L18.76 30.46C18.809 30.663 18.8325 30.8712 18.83 31.08C18.83 31.5863 18.6799 32.0813 18.3986 32.5023C18.1173 32.9232 17.7175 33.2514 17.2497 33.4451C16.7819 33.6389 16.2672 33.6896 15.7706 33.5908C15.274 33.492 14.8178 33.2482 14.4598 32.8902C14.1018 32.5322 13.858 32.076 13.7592 31.5794C13.6604 31.0828 13.7111 30.5681 13.9049 30.1003C14.0986 29.6326 14.4268 29.2327 14.8477 28.9514C15.2687 28.6701 15.7637 28.52 16.27 28.52C16.5922 28.5168 16.9118 28.578 17.21 28.7L25.37 21.54C25.2583 21.1882 25.224 20.8164 25.2695 20.4501C25.315 20.0839 25.4391 19.7317 25.6334 19.4179C25.8276 19.1041 26.0875 18.836 26.3951 18.632C26.7027 18.428 27.0507 18.2929 27.4154 18.236C27.7801 18.1791 28.1528 18.2018 28.5079 18.3024C28.863 18.403 29.1922 18.5792 29.4728 18.819C29.7534 19.0587 29.9789 19.3563 30.1338 19.6913C30.2886 20.0264 30.3692 20.3909 30.37 20.76L37.82 24C38.2744 23.6291 38.8435 23.4276 39.43 23.43C39.6736 23.4275 39.9163 23.4612 40.15 23.53L48.6 14.64C48.5075 14.3662 48.4602 14.0791 48.46 13.79C48.456 13.453 48.5187 13.1185 48.6443 12.8057C48.7699 12.493 48.9561 12.2081 49.1921 11.9675C49.4281 11.7268 49.7093 11.5352 50.0195 11.4035C50.3298 11.2718 50.663 11.2026 51 11.2ZM48.58 24.45C48.3782 24.4513 48.1787 24.4925 47.9929 24.5712C47.8071 24.65 47.6388 24.7647 47.4975 24.9087C47.3562 25.0528 47.2448 25.2234 47.1697 25.4107C47.0947 25.5979 47.0574 25.7982 47.06 26V54.7C50.3144 52.6714 53.0367 49.8942 55 46.6V26C55 25.5959 54.8402 25.2083 54.5554 24.9216C54.2706 24.635 53.884 24.4726 53.48 24.47L48.58 24.45ZM13.82 39.57H18.7C19.1041 39.57 19.4917 39.7298 19.7784 40.0146C20.065 40.2994 20.2274 40.686 20.23 41.09V53.76C16.745 51.2452 14.005 47.8349 12.3 43.89V41.09C12.3 40.6869 12.4601 40.3003 12.7452 40.0152C13.0303 39.7301 13.4169 39.57 13.82 39.57ZM25.41 30.68C25.0069 30.68 24.6203 30.8401 24.3352 31.1252C24.0501 31.4103 23.89 31.7969 23.89 32.2V56C26.3783 57.2086 29.0586 57.9735 31.81 58.26V32.26C31.81 32.0604 31.7707 31.8627 31.6943 31.6783C31.6179 31.4939 31.506 31.3263 31.3648 31.1852C31.2237 31.0441 31.0561 30.9321 30.8717 30.8557C30.6873 30.7793 30.4896 30.74 30.29 30.74L25.41 30.68ZM37 35.12H41.88C42.285 35.1226 42.6726 35.2847 42.959 35.571C43.2453 35.8574 43.4074 36.245 43.41 36.65V56.58C40.8843 57.605 38.2028 58.1934 35.48 58.32V36.65C35.48 36.2459 35.6398 35.8583 35.9246 35.5716C36.2094 35.285 36.596 35.1226 37 35.12ZM34.33 8C28.3193 7.99746 22.488 10.0476 17.8014 13.8111C13.1148 17.5746 9.85396 22.8257 8.55867 28.6951C7.26338 34.5646 8.01133 40.7003 10.6787 46.0867C13.3461 51.4731 17.7729 55.7871 23.2264 58.3145C28.6798 60.8419 34.8329 61.4312 40.6669 59.9848C46.5009 58.5384 51.6661 55.1431 55.3073 50.3608C58.9486 45.5786 60.8475 39.6963 60.6898 33.6877C60.532 27.6792 58.3271 21.9046 54.44 17.32C54.9366 16.8366 55.3252 16.2536 55.5803 15.6093C55.8354 14.965 55.9513 14.2739 55.9202 13.5816C55.8892 12.8893 55.7119 12.2114 55.4001 11.5925C55.0883 10.9737 54.649 10.4278 54.1112 9.99081C53.5733 9.55384 52.949 9.23567 52.2794 9.05724C51.6098 8.8788 50.91 8.84413 50.226 8.95552C49.542 9.0669 48.8893 9.32181 48.3109 9.70349C47.7325 10.0852 47.2414 10.585 46.87 11.17C43.0198 9.08393 38.709 7.99418 34.33 8ZM62.94 57.3L71.26 65.63C70.9374 65.8479 70.6361 66.0956 70.36 66.37L66.36 70.37C66.0856 70.6461 65.8379 70.9474 65.62 71.27L57.3 62.94C59.3794 61.2706 61.2706 59.3794 62.94 57.3ZM34.33 1.45628e-06C41.1227 -0.00197632 47.7633 2.0106 53.412 5.78317C59.0608 9.55574 63.4638 14.9188 66.0641 21.194C68.6645 27.4693 69.3454 34.3747 68.0207 41.0369C66.696 47.6992 63.4252 53.8189 58.622 58.622C53.8189 63.4252 47.6992 66.696 41.0369 68.0207C34.3747 69.3454 27.4693 68.6645 21.194 66.0641C14.9188 63.4638 9.55574 59.0608 5.78317 53.412C2.0106 47.7633 -0.00197632 41.1227 1.45628e-06 34.33C1.45628e-06 25.2251 3.6169 16.4931 10.055 10.055C16.4931 3.6169 25.2251 1.45628e-06 34.33 1.45628e-06Z" fill="#0A37B3"/>
</svg>
