<svg width="88" height="91" viewBox="0 0 88 91" fill="none" xmlns="http://www.w3.org/2000/svg">
<path fill-rule="evenodd" clip-rule="evenodd" d="M0.000194073 87.5009V81.2509C0.000194073 76.0712 4.19939 71.872 9.37519 71.8759L21.8752 71.872C27.0549 71.8759 31.2502 76.0712 31.2502 81.2509V84.3759H53.1252V78.1259H78.1212L78.1251 84.3759H84.3751C86.1017 84.3759 87.5001 85.7743 87.4962 87.5009C87.4962 89.2275 86.0978 90.6259 84.3751 90.6259H3.1211C1.3984 90.6259 0.000194073 89.2275 0.000194073 87.5009ZM19.2422 32.2309L12.2305 25.2231L10.0235 27.434C8.80079 28.6528 6.82039 28.6528 5.60159 27.434C4.38279 26.2113 4.38279 24.2348 5.60159 23.0121L27.6996 0.9141C28.9223 -0.3047 30.8988 -0.3047 32.1176 0.9141C33.3403 2.1368 33.3403 4.1133 32.1176 5.336L29.9106 7.543L36.9184 14.5547C38.1645 13.957 39.5473 13.6367 40.9575 13.6367C43.4419 13.6367 45.8286 14.625 47.5864 16.3828L56.4262 25.2226C58.184 26.9804 59.1723 29.3671 59.1723 31.8515C59.1723 34.3359 58.184 36.7226 56.4262 38.4804L43.1682 51.7384C41.4065 53.5001 39.0237 54.4845 36.5393 54.4845C34.0549 54.4845 31.6682 53.4963 29.9104 51.7384L21.0706 42.8986C19.3128 41.1408 18.3245 38.758 18.3245 36.2697C18.3245 34.8595 18.6445 33.4809 19.2422 32.2309ZM32.1172 18.5939L25.4883 11.965L16.6524 20.8048L23.2813 27.4337L32.1172 18.5939ZM4.82819 66.2969C5.55866 57.9492 9.08599 50.3949 14.4688 44.5859C15.086 45.5664 15.8165 46.4843 16.6524 47.3203L25.4883 56.1562C26.1055 56.7734 26.7656 57.3281 27.4649 57.8281C25.6915 60.0664 24.4415 62.7773 23.8985 65.7539C23.2344 65.668 22.5587 65.625 21.8751 65.625H9.37509C7.79309 65.625 6.26569 65.8594 4.82819 66.2969ZM61.2582 42.4689C63.5043 46.1173 63.0043 50.8986 59.9027 54.0039L58.6918 55.2148C55.5863 58.3203 50.8012 58.8164 47.1568 56.5703C47.3052 56.4375 47.4459 56.3008 47.5865 56.1562L60.8445 42.8982C60.9851 42.7576 61.1254 42.6173 61.2582 42.4689ZM50.0002 71.8749C48.2736 71.8749 46.8713 70.4765 46.8752 68.7499C46.8752 67.0272 48.2775 65.6249 50.0002 65.6249H81.2502C82.9729 65.6249 84.3752 67.0272 84.3752 68.7499C84.3752 70.4765 82.9768 71.8749 81.2502 71.871L50.0002 71.8749Z" fill="#0A37B3"/>
</svg>
