<svg width="481" height="431" viewBox="0 0 481 431" fill="none" xmlns="http://www.w3.org/2000/svg">
<path d="M41.63 102.83L195.47 192.18L170.67 206.58L19.9301 115.43L41.63 102.83Z" fill="#043275"/>
<path d="M126.16 81.42L280.01 170.77L255.21 185.17L104.47 94.02L126.16 81.42Z" fill="#043275"/>
<path d="M94.57 289.64L248.42 378.99L223.62 393.4L72.87 302.24L94.57 289.64Z" fill="#043275"/>
<path d="M258.99 270.48L455.37 384.53L423.71 402.91L231.29 286.57L258.99 270.48Z" fill="#043275"/>
<path d="M131.37 359.2L238.05 421.16L220.85 431.15L116.32 367.94L131.37 359.2Z" fill="#043275"/>
<path d="M383.83 74.41L384.13 175.02L255.69 249.02L256.7 124.72L383.83 74.41Z" fill="#BBC5FF"/>
<path d="M219.41 146.47L147.16 189.2L146.91 95.96L179.2 58.34L219.61 53.67L219.41 146.47Z" fill="#063893"/>
<path d="M278.71 159.61L407.83 234.46L440.12 196.84L480.53 192.17L351.2 117.63L310.84 122.33L278.71 159.61Z" fill="#FFCC7B"/>
<path d="M310.84 122.33L440.12 196.84L480.53 192.17L351.2 117.63L310.84 122.33Z" fill="#FCB735"/>
<path d="M278.71 159.61L278.57 253.26L408.08 327.7L407.83 234.46L278.71 159.61Z" fill="#DEE4FF"/>
<path d="M480.32 284.97L408.08 327.7L407.83 234.46L440.12 196.84L480.53 192.17L480.32 284.97Z" fill="#063893"/>
<path d="M287.95 206.84L310.82 220.08L310.91 208.37C310.98 199.24 306.16 190.76 298.27 186.16C293.84 183.57 288.26 186.72 288.18 191.85L287.95 206.85V206.84Z" fill="#063893"/>
<path d="M326.1 228.64L348.97 241.88L349.06 230.17C349.13 221.04 344.31 212.56 336.42 207.96C331.99 205.37 326.41 208.52 326.33 213.65L326.1 228.65V228.64Z" fill="#063893"/>
<path d="M364.24 250.43L387.11 263.67L387.2 251.96C387.27 242.83 382.45 234.35 374.56 229.75C370.13 227.16 364.55 230.31 364.47 235.44L364.24 250.44V250.43Z" fill="#063893"/>
<path d="M287.95 246.88L310.82 260.12L310.91 248.41C310.98 239.28 306.16 230.8 298.27 226.2C293.84 223.61 288.26 226.76 288.18 231.89L287.95 246.89V246.88Z" fill="#063893"/>
<path d="M326.1 268.68L348.97 281.92L349.06 270.21C349.13 261.08 344.31 252.6 336.42 248C331.99 245.41 326.41 248.56 326.33 253.69L326.1 268.69V268.68Z" fill="#063893"/>
<path d="M364.24 290.47L387.11 303.71L387.2 292C387.27 282.87 382.45 274.39 374.56 269.79C370.13 267.2 364.55 270.35 364.47 275.48L364.24 290.48V290.47Z" fill="#063893"/>
<path d="M266.74 268.92L278.54 262.81L278.72 136.06L267.65 142.73L266.74 268.92Z" fill="#778CE0"/>
<path d="M256.34 136.21L267.65 142.73L266.74 268.92L255.92 261.78L256.34 136.21Z" fill="#DEE4FF"/>
<path d="M157.22 206.09L169.01 199.98L169.19 73.23L158.13 79.9L157.22 206.09Z" fill="#778CE0"/>
<path d="M146.81 73.38L158.13 79.9L157.22 206.09L146.39 198.95L146.81 73.38Z" fill="#DEE4FF"/>
<path d="M169.01 199.98L255.69 249.02L256.34 136.21L267.66 129.86L212.5 60.39L158.12 66.46L169.19 73.23L169.01 199.98Z" fill="#BBC5FF"/>
<path d="M146.81 73.38L158.13 79.9L169.19 73.23L158.12 66.46L146.81 73.38Z" fill="#BBC5FF"/>
<path d="M256.34 136.21L267.8 142.83L278.86 136.15L267.66 129.86L256.34 136.21Z" fill="#BBC5FF"/>
<path d="M146.02 73.25L212.5 60.39L267.8 142.83L388 73.45L319.48 0L257.36 9.85L146.02 73.25Z" fill="#FFCC7B"/>
<path d="M319.48 0L212.5 60.39L267.8 142.83L388 73.45L319.48 0Z" fill="#FCB735"/>
<path d="M181.56 189.68L176.53 192.49L236.33 227.08L241.21 224.2L181.56 189.68Z" fill="#BBC5FF"/>
<path d="M176.31 198.39L176.53 192.49L236.33 227.08L236.42 232.89L176.31 198.39Z" fill="#DEE4FF"/>
<path d="M241.21 224.2L241.25 240.25L236.42 242.95L236.33 227.08L241.21 224.2Z" fill="#778CE0"/>
<path d="M176.31 198.39L171.74 201.19L231.54 235.79L236.42 232.91L176.31 198.39Z" fill="#BBC5FF"/>
<path d="M171.52 207.1L171.74 201.19L231.54 235.79L231.62 241.59L171.52 207.1Z" fill="#DEE4FF"/>
<path d="M236.42 232.91L236.45 238.89L231.62 241.59L231.54 235.79L236.42 232.91Z" fill="#778CE0"/>
<path d="M171.51 207.08L166.94 209.87L226.74 244.47L231.62 241.59L171.51 207.08Z" fill="#BBC5FF"/>
<path d="M166.72 215.78L166.94 209.87L226.74 244.47L226.83 250.27L166.72 215.78Z" fill="#DEE4FF"/>
<path d="M241.32 236.1L241.29 242.08L226.75 250.2L226.73 244.4L241.32 236.1Z" fill="#778CE0"/>
<path d="M226.73 215.8L193.98 196.84V139.74L226.73 161.71V215.8Z" fill="#063893"/>
<path d="M202.17 115.81L218.47 125.25L218.53 116.9C218.58 110.39 215.14 104.35 209.52 101.07C206.36 99.22 202.38 101.47 202.33 105.13L202.17 115.82V115.81Z" fill="#063893"/>
<path d="M48.22 247.73L116.94 287.64C117.14 287.75 117.38 287.75 117.58 287.64L163.18 261.16C163.38 261.05 163.5 260.84 163.5 260.61V259.86C163.5 259.63 163.38 259.42 163.18 259.31L94.46 219.4C94.26 219.29 94.02 219.29 93.82 219.4L48.22 245.88C48.02 245.99 47.9 246.2 47.9 246.43V247.18C47.9 247.41 48.02 247.62 48.22 247.73Z" fill="#EF9E1D"/>
<path d="M48.85 246.62L116.94 286.16C117.14 286.27 117.38 286.27 117.58 286.16L162.55 260.04C162.97 259.8 162.97 259.19 162.55 258.94L94.46 219.4C94.26 219.29 94.02 219.29 93.82 219.4L48.85 245.52C48.43 245.76 48.43 246.37 48.85 246.62Z" fill="#FCB735"/>
<path d="M159.68 259.93L117.26 284.64V272.1L159.68 247.39V259.93Z" fill="#F0F0F0"/>
<path d="M48.22 232.16L116.94 272.07C117.14 272.18 117.38 272.18 117.58 272.07L163.18 245.59C163.38 245.48 163.5 245.27 163.5 245.04V244.29C163.5 244.06 163.38 243.85 163.18 243.74L94.46 203.83C94.26 203.72 94.02 203.72 93.82 203.83L48.22 230.31C48.02 230.42 47.9 230.63 47.9 230.86V231.61C47.9 231.84 48.02 232.05 48.22 232.16Z" fill="#EF9E1D"/>
<path d="M48.85 231.05L116.94 270.59C117.14 270.7 117.38 270.7 117.58 270.59L162.55 244.47C162.97 244.23 162.97 243.62 162.55 243.37L94.46 203.83C94.26 203.72 94.02 203.72 93.82 203.83L48.85 229.95C48.43 230.19 48.43 230.8 48.85 231.05Z" fill="#FCB735"/>
<path d="M47.91 231.61V246.43L117.17 286.97L117.12 271.66L47.91 231.61Z" fill="#FFCC7B"/>
<path d="M50.22 225.14L118.94 265.05C119.14 265.16 119.38 265.16 119.58 265.05L165.18 238.57C165.38 238.46 165.5 238.25 165.5 238.02V237.27C165.5 237.04 165.38 236.83 165.18 236.72L96.46 196.81C96.26 196.7 96.02 196.7 95.82 196.81L50.22 223.29C50.02 223.4 49.9 223.61 49.9 223.84V224.59C49.9 224.82 50.02 225.03 50.22 225.14Z" fill="#EF9E1D"/>
<path d="M50.85 224.03L118.94 263.57C119.14 263.68 119.38 263.68 119.58 263.57L164.55 237.45C164.97 237.21 164.97 236.6 164.55 236.35L96.46 196.81C96.26 196.7 96.02 196.7 95.82 196.81L50.85 222.93C50.43 223.17 50.43 223.78 50.85 224.03Z" fill="#FCB735"/>
<path d="M161.68 237.34L119.26 262.06V249.52L161.68 224.81V237.34Z" fill="#F0F0F0"/>
<path d="M50.22 209.58L118.94 249.49C119.14 249.6 119.38 249.6 119.58 249.49L165.18 223.01C165.38 222.9 165.5 222.69 165.5 222.46V221.71C165.5 221.48 165.38 221.27 165.18 221.16L96.46 181.25C96.26 181.14 96.02 181.14 95.82 181.25L50.22 207.73C50.02 207.84 49.9 208.05 49.9 208.28V209.03C49.9 209.26 50.02 209.47 50.22 209.58Z" fill="#EF9E1D"/>
<path d="M50.85 208.47L118.94 248.01C119.14 248.12 119.38 248.12 119.58 248.01L164.55 221.89C164.97 221.65 164.97 221.04 164.55 220.79L96.46 181.25C96.26 181.14 96.02 181.14 95.82 181.25L50.85 207.37C50.43 207.61 50.43 208.22 50.85 208.47Z" fill="#FCB735"/>
<path d="M49.91 209.03V223.85L119.17 264.39L119.12 249.08L49.91 209.03Z" fill="#FFCC7B"/>
<path d="M202.09 329.95C208.5 333.81 208.29 339.96 201.6 343.69C194.91 347.41 184.29 347.31 177.88 343.45C171.47 339.59 171.68 333.43 178.37 329.7C185.06 325.97 195.68 326.08 202.09 329.94V329.95Z" fill="#063893"/>
<path d="M173.26 339.64L173.21 336.75C173.21 339.16 174.77 341.57 177.88 343.45C184.3 347.31 194.92 347.41 201.6 343.69C205.04 341.77 206.77 339.21 206.76 336.65L206.81 339.54C206.82 342.1 205.09 344.66 201.65 346.58C194.96 350.31 184.34 350.2 177.93 346.34C174.82 344.46 173.26 342.06 173.26 339.64Z" fill="#778CE0"/>
<path d="M185.89 322.16C185.89 322.68 186.27 323.2 187.02 323.59C188.54 324.39 191.02 324.4 192.56 323.59C193.33 323.19 193.71 322.67 193.71 322.14L196.53 335.29C196.53 336.16 195.9 337.04 194.62 337.71C192.05 339.05 187.91 339.04 185.38 337.71C184.13 337.05 183.5 336.19 183.49 335.32L185.89 322.16Z" fill="#778CE0"/>
<path d="M187.04 320.7C185.5 321.5 185.5 322.79 187.01 323.59C188.53 324.39 191.01 324.4 192.55 323.59C194.08 322.79 194.08 321.5 192.56 320.7C191.04 319.9 188.57 319.9 187.04 320.7Z" fill="#063893"/>
<path d="M197.09 318.46L197.11 324.58C192.22 327.4 187.54 329.05 183.23 329.64V323C187.46 322.77 192.15 321.31 197.09 318.46Z" fill="#1252AF"/>
<path d="M189.89 315.73C200.53 315.66 205.98 316.58 211.24 317.46C206.49 320.37 189.41 329 169.32 318.11C175.01 321.3 182.45 320.15 189.89 315.73Z" fill="#00818C"/>
<path d="M189.89 315.73C191.08 315.77 192.27 315.78 193.45 315.74C193.9 315.74 194.49 315.77 194.93 315.77C193.25 315.84 191.57 315.82 189.89 315.73Z" fill="white"/>
<path d="M189.89 315.73C192.13 316.56 194.37 317.19 196.58 317.6C196.52 317.64 196.47 317.69 196.41 317.74C194.26 317.29 192.07 316.61 189.89 315.73ZM197.59 317.96C197.66 317.91 197.72 317.86 197.78 317.8C201.97 318.43 206.02 318.26 209.68 317.19C209.85 317.23 210.07 317.26 210.24 317.29C206.39 318.57 202.07 318.75 197.59 317.96Z" fill="white"/>
<path d="M189.89 315.73C189.82 317.27 189.74 318.61 189.67 319.71C189.58 319.71 189.48 319.71 189.4 319.71C189.57 318.61 189.73 317.27 189.9 315.73H189.89ZM189.3 320.29C189.41 320.29 189.52 320.29 189.63 320.29C189.48 322.34 189.34 323.46 189.2 323.45L188.35 323.43C188.65 323.45 188.97 322.34 189.3 320.28V320.29Z" fill="white"/>
<path d="M189.89 315.73C188.54 317.06 187.19 318.19 185.85 319.09C185.77 319.07 185.68 319.03 185.6 319.01C187.42 317.84 188.19 317.23 189.89 315.74V315.73ZM184.83 319.46C184.92 319.5 185.02 319.53 185.12 319.56C182.29 321.3 179.58 322.01 177.15 321.47C176.89 321.38 176.63 321.29 176.37 321.2C178.94 321.78 181.83 321.14 184.83 319.45V319.46ZM175.72 321.02C175.99 321.12 176.26 321.22 176.54 321.31C176.48 321.29 176.42 321.27 176.36 321.25L175.34 320.89L175.72 321.02Z" fill="white"/>
<path d="M189.89 315.73C191.1 317.11 192.33 318.26 193.52 319.2C193.44 319.23 193.35 319.25 193.26 319.27C192.15 318.31 191.02 317.12 189.89 315.73ZM193.87 319.78C193.97 319.75 194.07 319.73 194.17 319.69C196.71 321.52 199.15 322.3 201.31 321.83C201.04 321.91 200.77 321.99 200.5 322.06C198.49 322.48 196.23 321.65 193.87 319.77V319.78Z" fill="white"/>
<path d="M200.5 322.07C200.77 322 201.05 321.92 201.31 321.84C203.68 321.13 205.91 320.19 207.86 319.02C208.77 318.47 209.59 317.9 210.32 317.3C210.45 317.33 210.62 317.36 210.74 317.38C210.12 317.85 209.45 318.3 208.72 318.74C206.83 319.87 204.71 320.8 202.43 321.51L201.87 321.69C200.17 322.157 198.873 322.48 197.98 322.66C198.83 322.49 199.67 322.3 200.49 322.07H200.5Z" fill="white"/>
<path d="M172.37 319.37C173.62 320.07 174.96 320.68 176.37 321.2C176.63 321.29 176.89 321.38 177.15 321.47C178.68 321.99 180.28 322.41 181.93 322.72C180.93 322.5 179.59 322.2 178.6 321.94L177.43 321.6C177.13 321.51 176.83 321.41 176.53 321.31C176.26 321.22 175.98 321.12 175.71 321.02C174.23 320.48 172.83 319.84 171.52 319.11C171.8 319.2 172.08 319.29 172.37 319.38V319.37Z" fill="white"/>
<path d="M184.33 318.42C184.72 318.65 185.15 318.84 185.6 319.01C185.68 319.04 185.77 319.07 185.85 319.09C186.95 319.47 188.16 319.68 189.39 319.71C189.48 319.71 189.57 319.71 189.66 319.71C190.89 319.73 192.12 319.58 193.26 319.27C193.34 319.25 193.43 319.22 193.52 319.2C194.28 318.98 194.98 318.68 195.6 318.3C195.9 318.12 196.17 317.93 196.41 317.73C196.47 317.68 196.52 317.63 196.58 317.59C197.17 317.06 197.56 316.48 197.74 315.88C198.14 315.9 198.69 315.93 199.1 315.96C198.87 316.6 198.43 317.22 197.8 317.79C197.73 317.85 197.67 317.91 197.61 317.95C197.33 318.19 197.01 318.42 196.65 318.63C195.91 319.07 195.08 319.43 194.19 319.69C194.09 319.72 193.99 319.75 193.89 319.78C192.55 320.15 191.09 320.31 189.64 320.3C189.53 320.3 189.42 320.3 189.31 320.3C187.86 320.25 186.43 320 185.13 319.57C185.03 319.53 184.94 319.5 184.84 319.47C184.31 319.28 183.81 319.04 183.34 318.78C183.68 318.67 184.01 318.56 184.34 318.43L184.33 318.42Z" fill="white"/>
<path d="M169.32 318.11C145.11 304.04 147.93 278.82 148.06 277.76C151.55 249.56 174.33 242.23 178.86 241.05C194.45 236.97 205.78 242.67 209.51 244.54C209.8 244.69 209.94 244.77 210.08 244.85C228.51 255.86 231.52 272.06 231.67 280.73C231.8 288.23 229.99 295.43 226.29 302.12C220.56 312.48 211.42 317.44 211.35 317.46C210.92 317.55 210.34 317.3 209.91 317.22C206.63 316.62 199.67 315.63 189.88 315.72C182.44 320.15 175.01 321.29 169.31 318.1L169.32 318.11Z" fill="#00818C"/>
<path d="M194.93 315.77C194.49 315.77 193.9 315.75 193.45 315.74C194.92 315.69 196.38 315.58 197.84 315.41C197.84 315.46 197.82 315.52 197.81 315.57C196.86 315.66 195.89 315.73 194.93 315.77ZM199.24 315.4C199.25 315.34 199.27 315.27 199.27 315.21C204.82 314.38 210.16 312.61 214.91 309.88C214.89 310.05 214.86 310.22 214.83 310.4C210.1 313.03 204.78 314.69 199.24 315.41V315.4ZM216.04 309.69C216.07 309.51 216.1 309.33 216.12 309.16C217.39 308.37 218.61 307.5 219.78 306.55C222.88 304.07 225.37 301.26 227.25 298.24C227.22 298.49 227.18 298.75 227.13 299C225.26 301.98 222.78 304.74 219.69 307.16C218.53 308.08 217.31 308.92 216.04 309.69ZM227.77 297.94C227.82 297.68 227.86 297.42 227.89 297.16C229.79 293.79 230.96 290.21 231.4 286.54L231.09 288.62L231.02 289.03C230.46 292.11 229.38 295.11 227.77 297.94Z" fill="white"/>
<path d="M210.24 317.29C210.07 317.29 209.85 317.22 209.68 317.19C210.11 317.07 210.52 316.93 210.94 316.79C210.77 316.94 210.6 317.08 210.43 317.23C210.36 317.25 210.3 317.27 210.24 317.3V317.29ZM211.42 316.85C211.6 316.7 211.78 316.55 211.95 316.39C214.73 315.2 215.66 314.44 217.92 312.61L216.74 313.64C216.02 314.25 215.24 314.82 214.42 315.33C213.46 315.92 212.46 316.43 211.41 316.85H211.42Z" fill="white"/>
<path d="M189.89 315.73C192.32 315.08 194.75 314.22 197.13 313.16C197.17 313.21 197.21 313.26 197.25 313.32C194.82 314.32 192.36 315.13 189.89 315.73ZM198.58 312.75C198.53 312.69 198.49 312.63 198.44 312.57C203.51 310.17 208.37 306.89 212.69 302.81C212.82 302.97 212.94 303.13 213.05 303.28C208.66 307.27 203.72 310.45 198.58 312.75ZM214.17 302.24C214.05 302.07 213.92 301.91 213.79 301.74C214.95 300.59 216.06 299.38 217.12 298.1C219.95 294.74 222.21 291.22 223.93 287.67C224.11 287.9 224.29 288.14 224.46 288.37C222.73 291.89 220.43 295.35 217.56 298.66C216.48 299.91 215.34 301.1 214.17 302.23V302.24ZM225.06 287.14C224.89 286.89 224.7 286.66 224.51 286.42C226.69 281.52 227.8 276.59 227.88 271.93C228.09 272.19 228.29 272.45 228.48 272.71C228.4 277.37 227.27 282.28 225.06 287.14ZM228.47 271.52C228.28 271.26 228.08 270.99 227.87 270.73C227.77 266.11 226.62 261.8 224.43 258.08C224.62 258.32 224.8 258.56 224.97 258.8C227.2 262.56 228.37 266.9 228.47 271.52ZM224.38 257.84C224.21 257.61 224.03 257.37 223.85 257.14C223.5 256.61 223.13 256.1 222.74 255.6L223.86 257.1C224.04 257.34 224.21 257.6 224.38 257.85V257.84Z" fill="white"/>
<path d="M189.89 315.73C187.25 315.49 184.61 315.05 182.01 314.41C182.02 314.36 182.04 314.3 182.06 314.26C184.64 314.95 187.27 315.45 189.89 315.73ZM180.65 313.85C180.63 313.91 180.61 313.98 180.59 314.04C175.08 312.51 169.78 310.07 165.07 306.74C165.12 306.57 165.16 306.39 165.22 306.23C169.91 309.66 175.18 312.21 180.65 313.85ZM164.02 305.32C163.96 305.5 163.91 305.67 163.86 305.85C162.6 304.9 161.38 303.88 160.22 302.79C157.13 299.91 154.66 296.79 152.78 293.53C152.85 293.28 152.92 293.02 153 292.77C154.86 296.06 157.33 299.24 160.4 302.18C161.56 303.29 162.77 304.34 164.02 305.31V305.32ZM152.36 291.61C152.28 291.86 152.2 292.13 152.13 292.38C149.74 287.86 148.5 283.12 148.39 278.48C148.47 278.19 148.55 277.91 148.64 277.63C148.74 282.28 149.99 287.04 152.36 291.61ZM148.64 276.44C148.55 276.72 148.46 277 148.39 277.29C148.43 275.07 148.74 272.89 149.3 270.76L149.98 268.44C149.14 271.02 148.69 273.71 148.64 276.44Z" fill="white"/>
<path d="M189.89 315.73C187.79 314.78 185.68 313.62 183.61 312.28C183.67 312.24 183.73 312.19 183.79 312.14C185.8 313.54 187.84 314.74 189.89 315.74V315.73ZM182.69 311.35C182.61 311.41 182.54 311.46 182.47 311.51C178.07 308.49 173.84 304.61 170.08 300C170.27 299.86 170.47 299.72 170.67 299.58C174.33 304.26 178.43 308.23 182.69 311.34V311.35ZM169.74 298.36C169.53 298.5 169.32 298.65 169.13 298.79C168.12 297.5 167.15 296.15 166.22 294.75C163.76 291.04 161.78 287.24 160.28 283.49C160.56 283.27 160.85 283.06 161.15 282.86C162.61 286.65 164.53 290.49 166.92 294.25C167.82 295.67 168.77 297.04 169.75 298.36H169.74ZM160.65 281.52C160.35 281.73 160.05 281.94 159.76 282.16C157.85 276.99 156.86 271.92 156.77 267.25C157.08 267.01 157.41 266.78 157.75 266.55C157.84 271.22 158.81 276.32 160.65 281.52ZM157.75 265.36C157.41 265.59 157.09 265.82 156.77 266.06C156.83 261.46 157.81 257.28 159.69 253.83C159.98 253.62 160.28 253.4 160.58 253.19C158.76 256.6 157.82 260.75 157.75 265.35V265.36ZM161.07 252.33C160.77 252.54 160.48 252.75 160.2 252.96C161.38 251.03 162.86 249.36 164.64 248.01L165.88 247.11C163.93 248.49 162.32 250.25 161.07 252.32V252.33Z" fill="white"/>
<path d="M189.89 315.73C190.19 314.19 190.49 312.45 190.78 310.52C190.87 310.52 190.96 310.52 191.05 310.54C190.67 312.46 190.28 314.2 189.89 315.74V315.73ZM191.27 309.46C191.16 309.46 191.05 309.44 190.94 309.43C191.56 305.18 192.15 300.1 192.67 294.45C192.97 294.47 193.26 294.49 193.54 294.51C192.85 300.16 192.07 305.21 191.26 309.45L191.27 309.46ZM193.73 293.06C193.42 293.03 193.12 293.01 192.81 292.99C192.95 291.41 193.08 289.8 193.21 288.13C193.55 283.73 193.82 279.38 194.02 275.2C194.46 275.23 194.89 275.26 195.32 275.29C195.05 279.47 194.69 283.8 194.25 288.2C194.08 289.86 193.9 291.48 193.72 293.06H193.73ZM195.42 273.83C194.98 273.79 194.53 273.76 194.09 273.73C194.34 268.04 194.47 262.69 194.47 258C194.95 258.03 195.44 258.07 195.92 258.11C195.92 262.81 195.75 268.15 195.41 273.83H195.42ZM195.92 256.91C195.44 256.87 194.95 256.83 194.47 256.8C194.45 252.22 194.29 248.32 194.01 245.4C194.45 245.43 194.9 245.46 195.33 245.5C195.69 248.43 195.89 252.33 195.92 256.91ZM195.24 244.77C194.8 244.73 194.37 244.7 193.93 244.68C193.69 242.51 193.37 240.97 192.98 240.21C192.87 240.01 192.76 239.87 192.66 239.78C192.96 239.8 193.27 239.82 193.57 239.85C193.72 239.94 193.86 240.08 194 240.29C194.52 241.06 194.93 242.61 195.24 244.78V244.77ZM193.39 239.77C193.1 239.74 192.81 239.72 192.52 239.7C192.49 239.69 192.46 239.68 192.43 239.68L193.28 239.74C193.28 239.74 193.35 239.75 193.38 239.76L193.39 239.77Z" fill="white"/>
<path d="M189.89 315.73C191.44 314.47 192.98 312.99 194.51 311.33C194.59 311.36 194.67 311.4 194.75 311.43C192.86 313.31 191.86 314.18 189.89 315.73ZM195.62 310.52C195.53 310.48 195.44 310.44 195.35 310.4C198.57 306.72 201.68 302.21 204.43 297.04C204.68 297.14 204.93 297.25 205.17 297.36C202.28 302.46 199.02 306.91 195.62 310.52ZM205.9 296.03C205.64 295.91 205.38 295.8 205.12 295.69C205.86 294.24 206.57 292.75 207.25 291.21C209.05 287.13 210.49 283.03 211.57 279.05C211.95 279.21 212.31 279.36 212.68 279.53C211.53 283.49 210.02 287.55 208.13 291.59C207.41 293.11 206.67 294.6 205.9 296.03ZM213.07 278.13C212.7 277.97 212.32 277.8 211.94 277.65C213.32 272.2 214.03 266.98 214.08 262.3C214.5 262.47 214.9 262.64 215.32 262.82C215.27 267.5 214.53 272.7 213.08 278.12L213.07 278.13ZM215.31 261.64C214.91 261.46 214.49 261.28 214.07 261.11C214 256.52 213.26 252.49 211.86 249.32C212.24 249.48 212.62 249.63 212.99 249.8C214.46 253 215.24 257.04 215.31 261.64ZM212.59 249C212.23 248.84 211.86 248.68 211.48 248.53C210.29 246.15 208.68 244.33 206.66 243.22C206.34 243.05 206.01 242.89 205.68 242.75L205.75 242.78L206.78 243.23C207.03 243.34 207.28 243.46 207.52 243.59C209.64 244.75 211.33 246.61 212.59 249.01V249Z" fill="white"/>
<path d="M189.89 315.73C187.38 316.26 184.87 316.57 182.39 316.68C182.36 316.63 182.33 316.58 182.3 316.52C184.81 316.47 187.35 316.21 189.89 315.73ZM180.93 316.53C180.96 316.59 181 316.65 181.04 316.72C175.79 316.77 170.74 315.85 166.25 313.87C166.15 313.71 166.06 313.56 165.97 313.39C170.51 315.45 175.62 316.48 180.93 316.53ZM164.8 312.84C164.9 313.01 164.99 313.18 165.1 313.35C163.9 312.76 162.74 312.09 161.63 311.33C158.7 309.34 156.33 306.93 154.54 304.21C154.39 303.97 154.25 303.73 154.11 303.48C155.92 306.23 158.32 308.69 161.29 310.75C162.41 311.52 163.58 312.22 164.8 312.83V312.84ZM153.5 302.5C153.59 302.66 153.68 302.83 153.78 302.99L153.07 301.74C153.21 302 153.35 302.25 153.5 302.5Z" fill="white"/>
<path d="M189.89 315.73C188.88 314.3 187.87 312.66 186.88 310.83C186.97 310.81 187.05 310.79 187.15 310.78C188.05 312.62 188.98 314.28 189.9 315.73H189.89ZM186.65 309.74C186.55 309.77 186.44 309.79 186.33 309.81C184.22 305.78 182.19 300.93 180.38 295.47C180.65 295.4 180.93 295.33 181.21 295.28C182.86 300.78 184.71 305.67 186.64 309.74H186.65ZM180.8 293.85C180.51 293.9 180.21 293.98 179.93 294.04C179.44 292.51 178.98 290.94 178.53 289.33C177.35 285.06 176.39 280.81 175.66 276.71C176.08 276.61 176.49 276.51 176.91 276.42C177.57 280.54 178.44 284.8 179.52 289.1C179.93 290.72 180.35 292.3 180.8 293.84V293.85ZM176.68 274.97C176.26 275.06 175.83 275.16 175.4 275.26C174.48 269.66 174 264.37 173.95 259.68C174.41 259.57 174.88 259.46 175.34 259.36C175.39 264.05 175.83 269.36 176.67 274.98L176.68 274.97ZM175.35 258.16C174.88 258.26 174.42 258.37 173.95 258.48C173.98 253.9 174.44 249.95 175.33 246.93C175.75 246.83 176.17 246.73 176.6 246.65C175.78 249.64 175.36 253.59 175.34 258.17L175.35 258.16ZM176.82 245.89C176.4 245.98 175.98 246.08 175.57 246.18C176.33 243.93 177.37 242.28 178.67 241.38C179.02 241.14 179.39 240.96 179.75 240.83C180.04 240.76 180.34 240.69 180.63 240.63C180.29 240.75 179.96 240.92 179.64 241.15C178.46 242.02 177.51 243.65 176.81 245.88L176.82 245.89Z" fill="white"/>
<path d="M227.13 299C227.17 298.75 227.21 298.49 227.25 298.24C227.65 294.9 226.72 291.51 224.46 288.37C224.29 288.14 224.11 287.9 223.93 287.67C222.05 285.3 219.4 283.09 215.97 281.17C214.92 280.58 213.82 280.03 212.68 279.53C212.32 279.36 211.95 279.21 211.57 279.05C206.64 277.03 201.06 275.78 195.32 275.3C194.89 275.26 194.45 275.23 194.02 275.21C188.27 274.85 182.39 275.25 176.9 276.43C176.48 276.52 176.06 276.61 175.65 276.72C171.01 277.82 166.66 279.49 162.95 281.72C162.32 282.09 161.72 282.48 161.14 282.88C160.84 283.09 160.55 283.3 160.27 283.51C156.51 286.29 154.09 289.49 153 292.79C152.92 293.04 152.85 293.3 152.78 293.55C151.9 296.87 152.35 300.29 154.12 303.5C154.25 303.74 154.4 303.98 154.55 304.23C154.64 304.37 154.73 304.51 154.82 304.66L154.46 304.1L153.79 303.01C153.69 302.85 153.6 302.68 153.51 302.52C151.7 299.25 151.25 295.78 152.15 292.4C152.22 292.14 152.29 291.88 152.38 291.63C153.49 288.27 155.95 285.02 159.77 282.19C160.06 281.97 160.36 281.76 160.66 281.55C161.25 281.15 161.86 280.75 162.5 280.37C166.29 278.11 170.7 276.42 175.42 275.29C175.85 275.19 176.27 275.09 176.7 275C182.29 273.8 188.26 273.39 194.12 273.75C194.56 273.78 195 273.81 195.45 273.85C201.28 274.34 206.96 275.61 211.98 277.67C212.36 277.82 212.74 277.99 213.11 278.15C214.26 278.67 215.38 279.22 216.46 279.83C219.95 281.79 222.64 284.03 224.55 286.44C224.74 286.68 224.92 286.91 225.1 287.16C227.39 290.35 228.34 293.79 227.93 297.19C227.9 297.45 227.86 297.71 227.81 297.97C227.51 299.61 226.9 301.23 225.97 302.8L225.31 303.89L224.95 304.45C226.1 302.69 226.84 300.86 227.18 299.02L227.13 299Z" fill="white"/>
<path d="M210.33 317.29C210.33 317.29 210.4 317.24 210.43 317.22C210.6 317.07 210.78 316.92 210.94 316.78C213.13 314.83 214.42 312.63 214.83 310.4C214.86 310.23 214.89 310.05 214.91 309.88C215.18 307.64 214.56 305.37 213.05 303.28C212.93 303.12 212.82 302.97 212.69 302.81C211.44 301.23 209.66 299.75 207.37 298.46C206.66 298.07 205.92 297.7 205.17 297.37C204.92 297.26 204.67 297.16 204.43 297.05C201.13 295.69 197.4 294.85 193.55 294.53C193.26 294.51 192.97 294.49 192.68 294.47C188.83 294.23 184.9 294.5 181.22 295.29C180.94 295.34 180.66 295.42 180.39 295.48C177.28 296.22 174.37 297.34 171.89 298.82C171.46 299.07 171.07 299.33 170.68 299.6C170.48 299.73 170.29 299.87 170.09 300.02C167.57 301.89 165.95 304.02 165.22 306.24C165.17 306.41 165.12 306.58 165.07 306.75C164.48 308.97 164.78 311.25 165.97 313.41C166.06 313.57 166.15 313.73 166.25 313.89C167.5 315.91 169.55 317.8 172.38 319.39C172.09 319.31 171.82 319.22 171.53 319.12C168.56 317.45 166.41 315.47 165.1 313.36C164.99 313.19 164.9 313.02 164.8 312.85C163.56 310.59 163.24 308.2 163.86 305.87C163.91 305.69 163.96 305.52 164.02 305.34C164.79 303.02 166.48 300.78 169.12 298.82C169.31 298.68 169.52 298.53 169.73 298.39C170.13 298.11 170.55 297.84 170.99 297.58C173.6 296.02 176.64 294.85 179.91 294.07C180.2 294 180.49 293.93 180.78 293.88C184.64 293.05 188.76 292.76 192.8 293.01C193.1 293.04 193.41 293.05 193.72 293.08C197.74 293.41 201.66 294.29 205.12 295.71C205.38 295.82 205.64 295.93 205.9 296.05C206.69 296.4 207.47 296.78 208.21 297.2C210.61 298.55 212.47 300.09 213.79 301.76C213.92 301.93 214.05 302.09 214.17 302.26C215.75 304.46 216.4 306.83 216.12 309.18C216.1 309.36 216.07 309.53 216.04 309.71C215.61 312.05 214.26 314.35 211.96 316.4C211.79 316.56 211.61 316.71 211.43 316.86C211.21 317.04 210.99 317.22 210.76 317.39C210.63 317.37 210.46 317.34 210.34 317.31L210.33 317.29Z" fill="white"/>
<path d="M228.47 272.71C228.28 272.45 228.08 272.19 227.87 271.93C225.77 269.29 222.81 266.81 218.99 264.67C217.81 264.01 216.59 263.4 215.32 262.83C214.91 262.65 214.5 262.47 214.08 262.31C208.57 260.04 202.34 258.64 195.93 258.11C195.45 258.07 194.96 258.03 194.48 258C188.05 257.6 181.48 258.05 175.35 259.37C174.89 259.47 174.42 259.58 173.96 259.69C168.77 260.93 163.92 262.79 159.77 265.27C159.07 265.69 158.4 266.12 157.75 266.57C157.41 266.8 157.09 267.03 156.77 267.27C152.57 270.38 149.87 273.96 148.65 277.65C148.56 277.93 148.47 278.21 148.4 278.5C148.04 279.84 147.88 281.2 147.91 282.55V280.99V280.74C147.94 279.59 148.09 278.44 148.4 277.3C148.48 277.01 148.56 276.73 148.65 276.45C149.86 272.76 152.57 269.19 156.77 266.07C157.08 265.84 157.41 265.6 157.75 265.37C158.39 264.93 159.06 264.5 159.76 264.08C163.92 261.6 168.76 259.73 173.95 258.5C174.42 258.39 174.88 258.28 175.35 258.18C181.48 256.87 188.05 256.41 194.48 256.81C194.96 256.84 195.45 256.88 195.93 256.92C202.34 257.46 208.58 258.85 214.08 261.11C214.5 261.28 214.91 261.46 215.32 261.64C216.59 262.2 217.82 262.82 219 263.48C222.82 265.63 225.79 268.09 227.88 270.74C228.09 271 228.29 271.26 228.48 271.53C230.54 274.4 231.61 277.45 231.69 280.5V280.75V282.31C231.75 279.04 230.68 275.77 228.48 272.72L228.47 272.71Z" fill="white"/>
<path d="M197.73 315.88C197.76 315.77 197.78 315.67 197.8 315.57C197.81 315.52 197.82 315.46 197.83 315.41C197.91 314.7 197.71 313.98 197.24 313.32C197.2 313.27 197.16 313.21 197.12 313.16C196.72 312.66 196.16 312.19 195.43 311.78C195.21 311.65 194.97 311.53 194.74 311.43C194.66 311.4 194.58 311.36 194.5 311.33C193.45 310.9 192.27 310.63 191.05 310.53C190.96 310.52 190.87 310.51 190.78 310.51C189.56 310.43 188.31 310.51 187.15 310.77C187.06 310.79 186.97 310.81 186.88 310.82C185.89 311.06 184.97 311.42 184.18 311.89C184.05 311.97 183.92 312.05 183.8 312.12C183.74 312.17 183.67 312.22 183.62 312.26C182.82 312.85 182.3 313.53 182.07 314.24C182.05 314.29 182.03 314.34 182.02 314.39C181.84 315.09 181.93 315.82 182.31 316.5C182.34 316.55 182.37 316.6 182.4 316.66C182.83 317.27 183.19 317.72 184.35 318.4C184.01 318.53 183.68 318.64 183.35 318.75C182.29 318.16 181.53 317.45 181.06 316.7C181.02 316.63 180.98 316.57 180.95 316.51C180.5 315.7 180.39 314.85 180.61 314.02C180.63 313.96 180.65 313.89 180.67 313.83C180.94 313 181.55 312.2 182.49 311.5C182.56 311.45 182.63 311.4 182.71 311.34C182.86 311.24 183.01 311.15 183.16 311.05C184.09 310.49 185.18 310.07 186.34 309.79C186.45 309.77 186.55 309.75 186.66 309.72C188.04 309.43 189.51 309.32 190.95 309.41C191.06 309.41 191.17 309.43 191.28 309.44C192.72 309.56 194.12 309.87 195.36 310.38C195.45 310.42 195.54 310.46 195.63 310.5C195.91 310.63 196.19 310.77 196.45 310.92C197.31 311.4 197.97 311.95 198.44 312.55C198.49 312.61 198.53 312.67 198.58 312.73C199.14 313.51 199.38 314.36 199.28 315.2C199.28 315.27 199.26 315.33 199.25 315.39C199.22 315.58 199.17 315.76 199.1 315.95C198.69 315.92 198.15 315.89 197.74 315.87L197.73 315.88Z" fill="white"/>
<path d="M193.58 239.84C193.27 239.82 192.97 239.79 192.67 239.77C188.62 239.52 184.5 239.8 180.64 240.63C180.34 240.69 180.05 240.76 179.76 240.83C178.89 241.04 178.03 241.28 177.2 241.53L178.87 241.04C179.72 240.83 180.86 240.56 181.72 240.38C185.21 239.7 188.9 239.47 192.54 239.7C192.83 239.71 193.12 239.74 193.41 239.77C194.88 239.89 196.34 240.09 197.75 240.36C198.83 240.59 200.26 240.93 201.33 241.22L202.23 241.49C199.51 240.64 196.58 240.1 193.59 239.84H193.58Z" fill="white"/>
<path d="M224.97 258.8C224.8 258.56 224.62 258.32 224.43 258.08C222.52 255.67 219.82 253.43 216.34 251.47C215.27 250.87 214.15 250.31 212.99 249.8C212.62 249.63 212.24 249.47 211.86 249.32C206.85 247.26 201.17 245.99 195.33 245.5C194.89 245.46 194.45 245.43 194.01 245.4C188.15 245.03 182.18 245.45 176.6 246.65C176.17 246.74 175.75 246.83 175.33 246.93C170.6 248.06 166.19 249.76 162.4 252.01C161.76 252.4 161.15 252.78 160.56 253.19C160.26 253.4 159.96 253.61 159.67 253.83C157.45 255.62 155.53 257.17 153.67 260.25L154.67 258.63C155.97 256.62 157.81 254.71 160.18 252.96C160.46 252.75 160.76 252.53 161.05 252.33C161.62 251.94 162.23 251.55 162.85 251.17C166.57 248.95 170.91 247.28 175.56 246.18C175.97 246.08 176.39 245.99 176.81 245.89C182.3 244.72 188.18 244.3 193.93 244.67C194.37 244.69 194.8 244.73 195.24 244.76C200.97 245.24 206.56 246.49 211.48 248.51C211.86 248.66 212.22 248.82 212.59 248.98C213.73 249.49 214.83 250.03 215.89 250.62C219.32 252.54 221.96 254.75 223.85 257.12C224.03 257.35 224.21 257.59 224.38 257.82C224.52 258.01 224.65 258.21 224.78 258.41L225.79 260.03L224.97 258.78V258.8Z" fill="white"/>
<path d="M168.23 317.48C168.56 317.68 168.99 317.92 169.32 318.12C169.2 318.05 169.07 317.98 168.95 317.91C157.64 311.11 157.82 289.32 169.35 269.22C175.01 259.36 182.35 251.76 189.69 247.36C182.34 251.76 175.01 259.36 169.35 269.22C157.82 289.32 157.64 311.11 168.95 317.91C169.07 317.98 169.2 318.05 169.32 318.12C192.65 330.44 210.96 318.26 216.01 314.24C229.09 303.82 234.71 285.96 230.01 269.78C226.91 259.13 220.21 250.75 210.08 244.87C209.94 244.79 209.79 244.7 209.64 244.63C184.64 231.96 165.73 247.01 163.65 248.76C142.77 266.46 148.01 288.68 150.11 295.07C151.87 300.42 156.56 310.44 168.22 317.49L168.23 317.48Z" fill="#BBC5FF"/>
<path d="M231.02 289.04L231.09 288.63L231.4 286.55C231.51 285.62 231.57 284.68 231.59 283.74C231.55 284.03 231.51 284.31 231.46 284.6C231.44 286.09 231.29 287.58 231.03 289.05L231.02 289.04ZM231.45 283.4C231.5 283.11 231.54 282.83 231.58 282.54C231.46 277.9 230.2 273.22 227.8 268.84C227.77 269.1 227.73 269.36 227.68 269.62C230.08 274.06 231.34 278.75 231.45 283.4ZM227.04 268.48C227.09 268.22 227.12 267.97 227.16 267.72C225.11 264.29 222.34 261.06 218.87 258.17C217.95 257.4 216.99 256.67 216 255.98C215.98 256.15 215.95 256.33 215.92 256.51C216.9 257.22 217.86 257.97 218.78 258.76C222.24 261.72 224.99 265.01 227.04 268.48ZM214.71 255.67C214.74 255.5 214.77 255.33 214.79 255.16C210.01 252.04 204.66 249.86 199.09 248.6C199.09 248.67 199.07 248.73 199.06 248.79C204.61 250.17 209.95 252.46 214.71 255.67ZM197.62 248.46C197.63 248.41 197.64 248.35 197.65 248.3C195.02 247.78 192.36 247.48 189.7 247.37C192.36 247.53 195.01 247.9 197.62 248.46Z" fill="white"/>
<path d="M216.75 313.63L217.93 312.6C219.45 311.16 219.52 311.06 221.32 308.54C221.07 308.76 220.82 308.98 220.55 309.2C219.52 310.86 218.25 312.35 216.75 313.63ZM221.07 308.31C221.34 308.09 221.6 307.87 221.85 307.64C223.85 304.08 224.89 299.84 224.96 295.24C224.68 295.49 224.4 295.74 224.1 295.97C224.04 300.58 223.03 304.79 221.07 308.31ZM224.1 294.78C224.4 294.53 224.68 294.29 224.96 294.04C224.86 289.37 223.8 284.36 221.77 279.31C221.52 279.53 221.26 279.76 220.99 279.98C222.97 285.07 224 290.11 224.1 294.78ZM220.46 278.67C220.72 278.45 220.98 278.23 221.23 278.01C219.5 274.02 217.18 270.03 214.26 266.19C213.48 265.16 212.67 264.16 211.84 263.21C211.67 263.37 211.49 263.52 211.3 263.68C212.11 264.66 212.9 265.67 213.66 266.7C216.51 270.61 218.78 274.65 220.46 278.68V278.67ZM210.3 262.49C210.47 262.34 210.65 262.2 210.81 262.05C206.79 257.62 202.28 253.96 197.59 251.17C197.53 251.23 197.46 251.28 197.4 251.34C201.97 254.23 206.37 257.98 210.3 262.49ZM196.22 250.61C196.28 250.56 196.33 250.51 196.38 250.47C194.17 249.23 191.93 248.19 189.69 247.35C191.88 248.24 194.06 249.33 196.22 250.62V250.61Z" fill="white"/>
<path d="M188.34 323.44L189.19 323.46C189.19 323.46 189.17 323.46 189.16 323.45C188.87 323.45 188.57 323.44 188.29 323.43C188.3 323.43 188.33 323.44 188.34 323.44ZM188.21 323.36C188.52 323.37 188.82 323.38 189.13 323.38C189.09 323.27 189.06 323.08 189.02 322.77C188.93 321.97 188.85 320.51 188.78 318.51C188.35 318.51 187.91 318.5 187.47 318.48C187.6 320.48 187.77 321.93 187.97 322.74C188.04 323.04 188.13 323.25 188.21 323.35V323.36ZM187.43 317.75C187.87 317.77 188.32 317.78 188.76 317.79C188.68 314.87 188.63 310.96 188.62 306.38C188.13 306.37 187.64 306.36 187.16 306.34C187.18 310.93 187.27 314.83 187.43 317.75ZM187.16 305.15C187.64 305.16 188.13 305.18 188.62 305.18C188.62 300.48 188.63 295.14 188.69 289.45C188.25 289.44 187.8 289.44 187.36 289.42C187.22 295.1 187.15 300.45 187.17 305.15H187.16ZM187.39 287.95C187.83 287.97 188.26 287.98 188.7 287.98C188.75 283.45 188.82 278.72 188.91 273.95C188.93 272.68 188.96 271.43 188.98 270.21C188.68 270.21 188.37 270.2 188.06 270.19C188 271.41 187.94 272.66 187.89 273.93C187.68 278.7 187.52 283.42 187.4 287.95H187.39ZM188.13 268.71C188.42 268.71 188.72 268.73 189.01 268.73C189.14 263.04 189.28 257.95 189.43 253.67C189.32 253.67 189.21 253.67 189.1 253.67C188.75 257.94 188.42 263.02 188.13 268.71ZM189.2 252.58C189.29 252.58 189.38 252.58 189.47 252.59C189.54 250.65 189.62 248.9 189.69 247.35C189.52 248.9 189.35 250.65 189.19 252.58H189.2Z" fill="white"/>
<path d="M175.33 320.89L176.35 321.25C175.77 321.04 175.2 320.77 174.66 320.41C173.08 319.36 171.8 317.71 170.83 315.56C170.44 315.43 170.05 315.29 169.66 315.15C171.69 319.33 174.05 320.34 175.33 320.88V320.89ZM169.31 314.37C169.71 314.51 170.1 314.65 170.5 314.79C169.27 311.68 168.62 307.67 168.56 303.08C168.12 302.94 167.69 302.78 167.26 302.62C167.32 307.22 168.01 311.23 169.31 314.37ZM167.26 301.43C167.69 301.59 168.13 301.74 168.56 301.9C168.6 297.21 169.22 291.96 170.42 286.46C170.02 286.32 169.62 286.19 169.23 286.04C167.95 291.51 167.3 296.75 167.26 301.44V301.43ZM169.58 284.62C169.96 284.76 170.35 284.9 170.75 285.03C171.78 280.66 173.16 276.15 174.91 271.66C175.38 270.45 175.86 269.28 176.36 268.14C176.09 268.05 175.81 267.96 175.54 267.85C175.01 268.98 174.5 270.14 174 271.34C172.14 275.79 170.67 280.27 169.57 284.62H169.58ZM176.2 266.48C176.46 266.58 176.72 266.67 176.98 266.76C179.4 261.44 182.11 256.77 184.93 252.94C184.83 252.91 184.74 252.87 184.64 252.84C181.64 256.61 178.76 261.22 176.2 266.49V266.48ZM185.41 251.88C185.49 251.91 185.57 251.94 185.66 251.96C186.99 250.23 188.34 248.69 189.7 247.35C188.27 248.66 186.83 250.18 185.42 251.88H185.41Z" fill="white"/>
<path d="M223.85 257.09L222.73 255.59C221.01 253.39 218.86 251.47 216.29 249.91C215.44 249.4 214.57 248.94 213.67 248.53C213.81 248.69 213.93 248.86 214.05 249.02C214.96 249.45 215.85 249.93 216.71 250.45C219.63 252.26 222.02 254.5 223.85 257.07V257.09ZM212.92 248.54C212.81 248.37 212.69 248.22 212.57 248.06C208.22 246.3 203.33 245.62 198.26 245.94C198.3 246 198.35 246.06 198.39 246.12C203.54 245.91 208.5 246.69 212.92 248.55V248.54ZM197.06 246.19C197.02 246.14 196.98 246.09 196.94 246.03C194.55 246.26 192.12 246.7 189.7 247.35C192.16 246.76 194.63 246.37 197.06 246.19Z" fill="white"/>
<path d="M201.01 321.93C201.3 321.86 201.58 321.77 201.86 321.69C202.44 321.5 202.99 321.22 203.53 320.84C204.94 319.84 206.07 318.22 206.93 316.1C206.53 316.22 206.12 316.33 205.72 316.44C204.93 318.54 203.88 320.14 202.57 321.12C202.07 321.49 201.55 321.76 201.02 321.93H201.01ZM205.99 315.69C206.41 315.57 206.82 315.46 207.23 315.33C208.31 312.26 208.87 308.28 208.9 303.69C208.45 303.82 208 303.96 207.55 304.08C207.52 308.67 207 312.64 206 315.69H205.99ZM207.53 302.88C207.99 302.76 208.44 302.63 208.89 302.5C208.83 297.81 208.25 292.54 207.14 287.01C206.73 287.13 206.32 287.25 205.9 287.36C206.93 292.91 207.48 298.19 207.53 302.88ZM205.63 285.92C206.04 285.81 206.45 285.69 206.84 285.57C205.9 281.17 204.63 276.62 203.04 272.08C202.62 270.87 202.18 269.67 201.72 268.52C201.44 268.6 201.15 268.69 200.86 268.76C201.29 269.93 201.69 271.13 202.08 272.35C203.56 276.92 204.74 281.49 205.61 285.92H205.63ZM200.36 267.35C200.63 267.28 200.9 267.2 201.17 267.12C198.99 261.73 196.53 256.99 193.99 253.08C193.89 253.11 193.79 253.14 193.69 253.16C196.05 257.12 198.33 261.92 200.37 267.35H200.36ZM193.07 252.15C193.16 252.12 193.24 252.1 193.33 252.07C192.13 250.31 190.91 248.72 189.7 247.34C190.83 248.75 191.96 250.35 193.07 252.14V252.15Z" fill="white"/>
<path d="M149.98 268.44L149.3 270.76C149.91 268.43 150.84 266.19 152.06 264.05C152.13 263.79 152.2 263.53 152.29 263.28C151.33 264.94 150.56 266.67 149.98 268.44ZM152.92 262.25C152.84 262.5 152.76 262.76 152.69 263.01C154.71 259.84 157.42 256.95 160.84 254.49C161.75 253.84 162.7 253.23 163.67 252.66C163.72 252.48 163.77 252.31 163.83 252.13C162.86 252.68 161.92 253.27 161.01 253.91C157.61 256.29 154.9 259.13 152.91 262.26L152.92 262.25ZM165.03 251.49C164.97 251.66 164.92 251.82 164.88 252C169.59 249.48 174.89 247.97 180.4 247.41C180.41 247.35 180.44 247.28 180.45 247.22C174.98 247.66 169.71 249.07 165.03 251.49ZM181.87 247.13C181.86 247.19 181.84 247.24 181.82 247.29C184.42 247.1 187.06 247.13 189.7 247.36C187.08 247.08 184.46 247 181.87 247.13Z" fill="white"/>
<path d="M165.86 247.12L164.62 248.02C165.26 247.53 165.95 247.08 166.67 246.67C167.4 246.27 168.16 245.91 168.93 245.6C169.13 245.46 169.33 245.31 169.54 245.16C168.79 245.45 168.06 245.78 167.35 246.18C166.83 246.47 166.33 246.78 165.85 247.12H165.86ZM170.48 244.84C170.28 244.98 170.08 245.11 169.89 245.26C173.65 244.02 177.88 243.96 182.27 244.88C182.34 244.83 182.41 244.78 182.49 244.73C178.23 243.7 174.13 243.68 170.48 244.84ZM183.59 245.02C183.53 245.06 183.46 245.11 183.4 245.15C186.19 245.85 188.29 246.75 189.68 247.35C187.64 246.36 185.59 245.58 183.58 245.02H183.59Z" fill="white"/>
<path d="M193.29 239.75L192.44 239.69C191.92 239.65 191.35 240.76 190.75 242.81C190.86 242.81 190.97 242.83 191.08 242.84C191.86 240.79 192.62 239.7 193.29 239.76V239.75ZM190.87 243.4C190.78 243.4 190.69 243.39 190.6 243.38C190.3 244.48 190 245.81 189.71 247.34C190.1 245.82 190.49 244.49 190.88 243.39L190.87 243.4Z" fill="white"/>
<path d="M206.79 243.21L205.76 242.76L205.69 242.73C205.46 242.64 205.23 242.56 204.99 242.48C205.25 242.59 205.51 242.7 205.77 242.82C206.12 242.93 206.46 243.06 206.79 243.21ZM205.03 242.6C204.78 242.49 204.54 242.38 204.29 242.29C201.51 241.62 198.39 242.18 195.16 243.77C195.25 243.81 195.35 243.85 195.44 243.89C198.84 242.37 202.12 241.87 205.04 242.6H205.03ZM194.55 244.3C194.48 244.27 194.4 244.24 194.32 244.21C192.27 245.33 190.72 246.54 189.7 247.35C191.9 245.7 193.5 244.86 194.55 244.3Z" fill="white"/>
<path d="M153.06 301.74L153.77 302.99C153.82 303.07 153.87 303.16 153.93 303.24C151.65 299.4 150.47 295.02 150.36 290.4C150.19 290.13 150.03 289.86 149.89 289.59C149.98 293.9 151.04 298.04 153.06 301.73V301.74ZM149.88 288.4C150.03 288.67 150.19 288.94 150.36 289.21C150.44 284.55 151.61 279.69 153.85 274.91C153.7 274.67 153.55 274.43 153.42 274.18C151.15 278.91 149.97 283.75 149.89 288.41L149.88 288.4ZM154.02 272.96C154.15 273.21 154.29 273.44 154.44 273.69C156.36 269.94 158.95 266.27 162.21 262.82C163.08 261.9 163.98 261.02 164.91 260.18C164.8 260.01 164.7 259.84 164.61 259.67C163.67 260.5 162.76 261.36 161.88 262.27C158.58 265.64 155.96 269.26 154.02 272.98V272.96ZM165.77 258.67C165.86 258.84 165.95 258.99 166.06 259.15C170.55 255.28 175.59 252.23 180.84 250.08C180.8 250.03 180.77 249.96 180.74 249.9C175.43 251.94 170.32 254.88 165.78 258.67H165.77ZM182.1 249.4C182.13 249.46 182.16 249.51 182.19 249.56C184.66 248.62 187.18 247.88 189.69 247.35C187.15 247.83 184.61 248.51 182.1 249.39V249.4Z" fill="white"/>
<path d="M181.04 240.52C180.76 240.58 180.48 240.64 180.21 240.71C182.01 240.34 184.03 241.23 186.14 243.18C186.24 243.15 186.35 243.13 186.45 243.11C184.53 241.12 182.68 240.19 181.04 240.52ZM186.94 243.64C186.85 243.66 186.76 243.68 186.68 243.7C187.67 244.69 188.69 245.91 189.69 247.34C188.77 245.89 187.85 244.65 186.94 243.64Z" fill="white"/>
<path d="M154.44 304.08L154.8 304.64C156.69 307.49 159.65 310.16 163.69 312.42C163.53 312.15 163.38 311.87 163.24 311.59C158.93 309.17 155.83 306.31 153.93 303.24C153.88 303.16 153.83 303.07 153.77 302.99L154.44 304.08Z" fill="white"/>
<path d="M163.7 312.42C165.56 313.46 167.56 314.37 169.67 315.15C170.05 315.29 170.44 315.43 170.84 315.56C175.99 317.31 181.7 318.28 187.48 318.48C187.92 318.5 188.35 318.51 188.79 318.51C194.58 318.59 200.38 317.9 205.72 316.45C206.12 316.34 206.53 316.22 206.93 316.11C210.48 315.05 213.79 313.64 216.73 311.89C218.15 311.04 219.42 310.14 220.55 309.21C220.82 308.99 221.07 308.78 221.32 308.55C222.78 307.24 223.98 305.87 224.91 304.44L225.27 303.88L225.93 302.79C224.93 304.48 223.57 306.12 221.85 307.66C221.6 307.88 221.34 308.11 221.07 308.33C219.92 309.28 218.62 310.2 217.18 311.06C214.2 312.84 210.82 314.27 207.22 315.34C206.81 315.47 206.4 315.58 205.98 315.7C200.55 317.18 194.65 317.88 188.76 317.8C188.32 317.79 187.87 317.78 187.43 317.76C181.56 317.56 175.75 316.57 170.51 314.8C170.11 314.66 169.71 314.53 169.32 314.38C167.18 313.59 165.14 312.66 163.25 311.6C163.39 311.88 163.55 312.16 163.7 312.43V312.42Z" fill="white"/>
<path d="M178.6 321.94C179.6 322.19 180.93 322.51 181.93 322.72C184 323.11 186.13 323.34 188.29 323.42C188.58 323.42 188.88 323.43 189.16 323.44C192.14 323.48 195.14 323.22 197.98 322.64C200.45 322.09 200.55 322.07 201.87 321.67L202.43 321.49C202.24 321.56 202.04 321.62 201.84 321.67C201.56 321.75 201.28 321.84 200.99 321.91C197.25 322.93 193.17 323.42 189.11 323.36C188.81 323.36 188.5 323.35 188.19 323.34C184.47 323.22 180.78 322.63 177.41 321.58L178.58 321.92L178.6 321.94Z" fill="white"/>
<path d="M147.9 280.98V282.54C147.97 284.93 148.63 287.31 149.89 289.6C150.04 289.87 150.19 290.13 150.36 290.41C152.91 294.06 154.99 296.25 160.59 299.58C160.59 299.19 160.59 298.79 160.59 298.39C155.86 295.73 152.45 292.59 150.36 289.22C150.19 288.95 150.03 288.68 149.88 288.41C148.51 285.92 147.85 283.33 147.9 280.74V280.99V280.98Z" fill="white"/>
<path d="M160.59 299.57C162.67 300.73 164.91 301.76 167.26 302.62C167.69 302.78 168.12 302.94 168.56 303.08C174.31 305.04 180.69 306.13 187.15 306.34C187.63 306.36 188.13 306.37 188.61 306.38C195.07 306.47 201.56 305.7 207.52 304.08C207.97 303.95 208.42 303.82 208.87 303.69C212.83 302.51 216.54 300.93 219.81 298.98C221.39 298.03 222.82 297.03 224.08 295.98C224.38 295.74 224.66 295.49 224.94 295.25C228.6 291.98 230.76 288.32 231.43 284.59C231.48 284.31 231.53 284.02 231.56 283.73C231.61 283.26 231.65 282.78 231.66 282.3V280.49C231.66 281.17 231.64 281.86 231.56 282.53C231.52 282.82 231.48 283.1 231.43 283.39C230.75 287.12 228.59 290.77 224.94 294.04C224.66 294.29 224.38 294.53 224.08 294.78C222.82 295.82 221.39 296.83 219.81 297.77C216.53 299.72 212.83 301.3 208.87 302.49C208.42 302.62 207.97 302.75 207.51 302.87C201.55 304.5 195.06 305.27 188.6 305.17C188.11 305.17 187.62 305.15 187.14 305.14C180.68 304.92 174.3 303.84 168.55 301.88C168.12 301.73 167.68 301.57 167.25 301.41C164.89 300.54 162.66 299.53 160.58 298.36C160.58 298.76 160.58 299.16 160.58 299.55L160.59 299.57Z" fill="white"/>
<path d="M178.86 241.05L177.19 241.54C174.89 242.26 172.74 243.2 170.82 244.35C170.38 244.61 169.96 244.88 169.55 245.16C169.34 245.31 169.13 245.45 168.94 245.6C166.3 247.56 164.6 249.81 163.84 252.13C163.78 252.31 163.72 252.48 163.68 252.66C163.06 254.99 163.37 257.4 164.62 259.65C164.71 259.82 164.81 259.99 164.92 260.16C166.23 262.27 168.38 264.25 171.36 265.93C171.63 265.5 171.92 265.07 172.21 264.65C169.37 263.05 167.32 261.17 166.07 259.14C165.97 258.98 165.87 258.82 165.78 258.66C164.6 256.5 164.29 254.21 164.88 251.99C164.92 251.81 164.97 251.65 165.03 251.48C165.76 249.26 167.38 247.12 169.9 245.25C170.09 245.11 170.29 244.97 170.49 244.83C170.87 244.56 171.28 244.3 171.7 244.06C174.19 242.56 177.1 241.45 180.22 240.71C180.5 240.64 180.78 240.58 181.05 240.52C181.27 240.47 181.49 240.43 181.71 240.38C180.85 240.57 179.71 240.81 178.86 241.04V241.05Z" fill="white"/>
<path d="M171.35 265.93C172.66 266.67 174.06 267.3 175.54 267.85C175.81 267.95 176.09 268.04 176.36 268.14C179.98 269.36 183.99 270.05 188.05 270.19C188.36 270.2 188.67 270.2 188.97 270.21C193.03 270.26 197.11 269.78 200.86 268.76C201.15 268.68 201.43 268.6 201.72 268.52C204.21 267.78 206.54 266.79 208.6 265.56C209.6 264.96 210.49 264.33 211.29 263.68C211.48 263.52 211.65 263.37 211.83 263.21C214.13 261.15 215.49 258.85 215.92 256.5C215.95 256.32 215.98 256.14 216 255.97C216.28 253.62 215.63 251.24 214.05 249.04C213.93 248.87 213.81 248.7 213.67 248.55C212.35 246.88 210.49 245.33 208.08 243.98C207.34 243.57 206.57 243.18 205.77 242.83C205.51 242.71 205.25 242.61 204.99 242.49C204.09 242.13 203.17 241.79 202.21 241.5L201.31 241.23C200.24 240.95 198.81 240.61 197.73 240.37C200.03 240.81 202.24 241.45 204.28 242.3C204.53 242.4 204.78 242.5 205.02 242.61C205.78 242.95 206.52 243.31 207.23 243.71C209.52 245 211.3 246.48 212.56 248.06C212.68 248.22 212.8 248.37 212.91 248.54C214.42 250.63 215.05 252.9 214.78 255.15C214.76 255.32 214.73 255.49 214.7 255.66C214.3 257.9 213 260.09 210.81 262.05C210.64 262.2 210.47 262.34 210.3 262.49C209.54 263.12 208.69 263.72 207.73 264.29C205.76 265.46 203.54 266.4 201.16 267.12C200.89 267.2 200.62 267.28 200.35 267.35C196.77 268.32 192.88 268.79 189 268.73C188.71 268.73 188.41 268.72 188.12 268.71C184.25 268.57 180.42 267.93 176.97 266.76C176.71 266.67 176.45 266.58 176.19 266.48C174.78 265.96 173.44 265.35 172.19 264.66C171.9 265.08 171.62 265.51 171.34 265.94L171.35 265.93Z" fill="white"/>
<path d="M153.67 260.26C153.21 261.15 152.64 262.35 152.29 263.28C152.21 263.54 152.13 263.8 152.06 264.05C151.16 267.42 151.62 270.9 153.42 274.17C153.56 274.42 153.7 274.66 153.85 274.9C155.75 277.97 158.86 280.84 163.16 283.25C163.3 282.79 163.45 282.34 163.61 281.88C159.38 279.51 156.32 276.69 154.45 273.68C154.3 273.44 154.16 273.2 154.03 272.95C152.26 269.73 151.81 266.32 152.69 263C152.76 262.75 152.83 262.49 152.92 262.24C153.32 261.01 153.91 259.8 154.68 258.62L153.68 260.24L153.67 260.26Z" fill="white"/>
<path d="M163.17 283.26C166.05 284.75 166.49 284.97 169.24 286.03C169.64 286.18 170.04 286.31 170.43 286.45C175.67 288.22 181.48 289.21 187.35 289.41C187.79 289.43 188.24 289.43 188.68 289.44C194.56 289.52 200.47 288.82 205.9 287.34C206.32 287.22 206.73 287.11 207.14 286.99C210.75 285.92 214.12 284.49 217.1 282.7C218.55 281.83 219.84 280.92 220.99 279.97C221.26 279.75 221.52 279.52 221.77 279.3C225.1 276.33 227.07 272.99 227.68 269.6C227.73 269.34 227.77 269.08 227.8 268.82C227.91 266.77 228.06 263.95 225.78 260.04L224.77 258.42C226.74 261.39 227.53 264.56 227.15 267.7C227.11 267.96 227.08 268.21 227.03 268.46C226.43 271.8 224.49 275.08 221.22 278C220.97 278.22 220.72 278.44 220.45 278.66C219.32 279.59 218.04 280.49 216.63 281.34C213.7 283.09 210.38 284.49 206.83 285.56C206.43 285.68 206.03 285.79 205.62 285.91C200.29 287.36 194.48 288.05 188.69 287.97C188.26 287.97 187.82 287.96 187.38 287.94C181.61 287.75 175.89 286.77 170.75 285.02C170.35 284.89 169.96 284.75 169.58 284.61C167.47 283.83 165.47 282.92 163.61 281.87C163.45 282.33 163.31 282.78 163.16 283.24L163.17 283.26Z" fill="white"/>
<path d="M183.14 252.14C183.61 252.4 184.11 252.62 184.64 252.83C184.74 252.86 184.83 252.9 184.93 252.93C186.22 253.37 187.65 253.62 189.1 253.66C189.21 253.66 189.32 253.66 189.43 253.66C190.88 253.69 192.34 253.51 193.68 253.15C193.78 253.13 193.88 253.09 193.98 253.07C194.87 252.8 195.71 252.45 196.44 252.01C196.8 251.79 197.12 251.57 197.4 251.34C197.47 251.28 197.53 251.23 197.59 251.17C198.41 250.44 198.9 249.61 199.05 248.77C199.05 248.71 199.07 248.65 199.08 248.58C199.18 247.74 198.95 246.89 198.38 246.11C198.34 246.05 198.29 245.99 198.25 245.93C197.77 245.34 197.11 244.78 196.25 244.3C195.99 244.16 195.71 244.02 195.43 243.89C195.34 243.85 195.25 243.8 195.15 243.77C193.91 243.26 192.51 242.95 191.07 242.83C190.96 242.82 190.85 242.81 190.74 242.8C189.29 242.71 187.82 242.81 186.44 243.11C186.34 243.13 186.23 243.15 186.13 243.18C184.97 243.45 183.88 243.88 182.94 244.43C182.78 244.52 182.63 244.63 182.48 244.72C182.41 244.77 182.34 244.82 182.26 244.87C181.32 245.58 180.71 246.37 180.44 247.2C180.42 247.26 180.4 247.33 180.39 247.39C180.17 248.22 180.28 249.08 180.73 249.88C180.76 249.95 180.8 250.01 180.83 250.06C181.33 250.78 181.76 251.31 183.13 252.12C183.46 251.83 183.8 251.55 184.13 251.27C183.23 250.77 182.58 250.17 182.19 249.53C182.15 249.48 182.12 249.43 182.1 249.37C181.72 248.69 181.63 247.96 181.81 247.26C181.83 247.2 181.85 247.16 181.86 247.1C182.09 246.4 182.6 245.72 183.41 245.13C183.47 245.08 183.53 245.04 183.6 245C183.72 244.91 183.85 244.84 183.98 244.75C184.77 244.28 185.7 243.93 186.68 243.69C186.77 243.66 186.86 243.65 186.94 243.63C188.11 243.38 189.36 243.29 190.58 243.37C190.67 243.37 190.76 243.38 190.85 243.39C192.07 243.5 193.26 243.76 194.3 244.19C194.38 244.22 194.46 244.26 194.53 244.28C194.78 244.4 195.01 244.51 195.23 244.64C195.96 245.05 196.52 245.52 196.92 246.02C196.96 246.07 197 246.12 197.04 246.18C197.52 246.84 197.72 247.56 197.63 248.27C197.63 248.32 197.62 248.38 197.6 248.43C197.47 249.14 197.07 249.84 196.36 250.46C196.31 250.51 196.26 250.55 196.2 250.6C195.95 250.79 195.69 250.99 195.39 251.17C194.77 251.54 194.06 251.84 193.31 252.06C193.22 252.09 193.14 252.11 193.05 252.14C191.92 252.45 190.68 252.6 189.45 252.58C189.36 252.58 189.27 252.58 189.18 252.57C187.95 252.53 186.73 252.32 185.64 251.95C185.55 251.92 185.47 251.9 185.39 251.87C184.95 251.7 184.52 251.51 184.12 251.29C183.78 251.57 183.45 251.85 183.12 252.14H183.14Z" fill="white"/>
<path d="M163.43 299.28L156.03 294.97L150.71 298.04L158.11 302.35L163.43 299.28Z" fill="#A01E1C"/>
<path d="M196.85 235.24C175.42 247.61 158.04 277.72 158.12 302.35L163.44 299.28C163.38 278.03 178.38 252.05 196.87 241.37L196.85 235.25V235.24Z" fill="#1252AF"/>
<path d="M163.43 299.28C163.47 314.86 171.6 323.63 183.22 323V329.64C168.61 331.63 158.16 321.36 158.11 302.35L163.43 299.28Z" fill="#1252AF"/>
<path d="M163.09 258.09C166.37 252.68 170.18 247.62 174.36 243.16C179 238.22 184.09 234.02 189.45 230.93L196.85 235.24C191.5 238.33 186.4 242.52 181.76 247.46C177.58 251.92 173.77 256.98 170.49 262.39C162.85 274.98 158.07 289.42 158.11 302.35C158.12 307.48 158.9 311.97 160.3 315.77C161.88 320.03 164.26 323.39 167.27 325.77L159.86 321.46C156.85 319.08 154.47 315.71 152.89 311.46C151.48 307.66 150.71 303.17 150.69 298.04C150.65 285.11 155.43 270.67 163.07 258.09H163.09Z" fill="#063893"/>
<path d="M232.4 343.03C226.74 346.34 222.08 343.69 222.04 337.14C222 330.59 226.6 322.53 232.26 319.23C237.92 315.92 242.58 318.57 242.62 325.12C242.66 331.67 238.06 339.73 232.4 343.03Z" fill="#F2F2F2"/>
<path d="M225.07 343.77L266.76 365.96L314.25 394.57L328.47 369.2L278.61 341.99L239.48 318.44L225.07 343.77Z" fill="#F2F2F2"/>
<path d="M321.35 393.75C315.69 397.06 311.03 394.41 310.99 387.86C310.95 381.31 315.55 373.25 321.21 369.95C326.87 366.64 331.53 369.29 331.57 375.84C331.61 382.39 327.01 390.45 321.35 393.75Z" fill="#BBC5FF"/>
<path d="M319.02 393.99C314.64 396.55 311.34 393.59 311 388.54C310.64 383.09 314.44 375.15 318.71 371.84L327.68 377.67C327.71 382.74 323.4 391.44 319.02 394V393.99Z" fill="#063893"/>
<path d="M281.27 347.91C283.07 346.86 284.91 346.37 286.63 346.42C285.89 344.75 284.75 343.4 283.25 342.54C280.52 340.98 277.02 341.21 273.66 343.18C267.89 346.55 263.39 354.43 263.43 361.11C263.45 364.99 265.03 368.11 267.76 369.67C268.97 370.36 270.34 370.7 271.77 370.69C272.51 370.69 273.27 370.57 274.04 370.38C272.73 368.84 271.99 366.69 271.98 364.19C271.94 358.13 276.02 350.97 281.27 347.91Z" fill="#FCB735"/>
<g opacity="0.38">
<path d="M226.952 335.658L224.775 339.435L306.526 386.558L308.703 382.781L226.952 335.658Z" fill="#CECECE"/>
</g>
</svg>
