<svg width="91" height="83" viewBox="0 0 91 83" fill="none" xmlns="http://www.w3.org/2000/svg">
<path d="M58.547 42.098C56.5548 42.098 54.9376 43.7152 54.9376 45.7074V49.3168H73.1406V42.098L58.5466 42.1019L58.547 42.098ZM48.203 42.098H33.601V49.3168H51.812V45.7074C51.8159 43.7191 50.1952 42.098 48.203 42.098ZM28.836 0C22.961 0 18.18 4.7812 18.18 10.656C18.18 16.5308 22.9612 21.312 28.836 21.312C34.7149 21.312 39.492 16.5308 39.492 10.656C39.492 4.7812 34.7108 0 28.836 0ZM38.6993 20.266C36.1915 22.8363 32.6993 24.4379 28.8321 24.4379C24.7696 24.4379 21.1094 22.6684 18.5861 19.8598C11.6759 20.8286 6.3671 26.3598 6.3671 32.7578V46.5308C6.3671 48.066 7.6171 49.312 9.1523 49.312H27.2693V48.7378C27.2693 47.0425 25.9021 45.7925 23.1951 45.0308L15.3904 42.816C14.7185 42.6285 14.2576 42.0113 14.2576 41.316V33.5269C14.2576 32.6636 14.9568 31.9644 15.8201 31.9644C16.6834 31.9644 17.3826 32.6597 17.3826 33.5269V40.1363L24.0545 42.0269C28.1483 43.1831 30.3983 45.5699 30.3983 48.7378V49.312H30.4842L30.4803 40.5386C30.4803 39.6753 31.1796 38.9761 32.0428 38.9761H37.7069V33.5308C37.7069 32.6675 38.4062 31.9683 39.2694 31.9683C40.1327 31.9683 40.8319 32.6636 40.8319 33.5308V38.9761H46.66V31.2066C46.66 26.1714 43.4297 21.7929 38.6993 20.266ZM5.6953 62.469V82.289H84.9293L84.9332 62.469H5.6953ZM0 52.442V59.3482H90.625V52.442H0Z" fill="white"/>
</svg>
