<svg width="623" height="205" viewBox="0 0 623 205" fill="none" xmlns="http://www.w3.org/2000/svg">
<mask id="mask0_433_137" style="mask-type:luminance" maskUnits="userSpaceOnUse" x="0" y="0" width="157" height="205">
<path d="M157 0H0V204.336H157V0Z" fill="white"/>
</mask>
<g mask="url(#mask0_433_137)">
<path fill-rule="evenodd" clip-rule="evenodd" d="M76.0745 1.14796C69.0668 4.94596 65.163 6.80965 56.044 10.7107C38.9719 18.014 19.5799 25.1972 5.44067 29.4551L0.00729942 31.0913L0.0426571 40.5797C0.0621198 45.7985 0.190087 58.8691 0.327138 69.6256C0.464027 80.3819 0.682982 97.6181 0.813385 107.928C1.07013 128.215 1.11084 129.748 1.48307 133.166C3.63858 152.95 14.4651 169.145 34.4603 182.497C43.876 188.784 54.0636 193.88 76.9664 203.756L78.3453 204.351L85.4003 201.247C108.211 191.21 117.933 186.018 127.684 178.665C132.204 175.256 137.816 169.982 140.952 166.194C150.02 155.244 154.702 143.363 155.471 129.352C155.567 127.611 155.786 115.049 155.958 101.436C156.779 36.3976 156.842 32.3106 156.93 38.0582L157.014 43.5763L157.051 37.3218C157.088 31.1731 157.083 31.0667 156.765 31.0427C156.168 30.9976 145.704 27.7818 141.113 26.2321C127.395 21.6027 108.669 14.3108 95.6494 8.52986C89.7893 5.92769 87.5841 4.85864 82.7303 2.26815C80.3917 1.0199 78.412 0.000170169 78.3308 0.00195547C78.2496 0.00374076 77.234 0.51937 76.0745 1.14796ZM75.75 8.29891C62.7821 15.2618 29.4223 28.5591 10.0631 34.4816L6.17052 35.6727L6.12202 36.484C6.08036 37.1818 6.33108 58.0587 7.06161 114.745C7.2684 130.793 7.4416 133.478 8.60694 138.689C9.59354 143.101 10.7446 146.323 12.8973 150.698C14.5987 154.155 17.0428 158.031 19.2661 160.797C27.5303 171.078 39.5555 179.734 57.2985 188.174C63.8948 191.311 77.8997 197.518 78.3826 197.518C78.9309 197.518 95.1158 190.271 101.341 187.238C124.745 175.835 138.419 163.54 145.053 147.935C147.149 143.007 148.397 138.225 149.08 132.517C149.366 130.125 149.494 123.148 150.025 80.9864C150.247 63.4459 150.476 46.0878 150.535 42.413L150.642 35.7315L148.959 35.2214C127.955 28.8571 94.2379 15.5141 80.7389 8.2249C79.4684 7.53885 78.3737 6.98102 78.3061 6.98508C78.2383 6.98932 77.0883 7.58057 75.75 8.29891ZM75.9123 13.7264C66.8431 18.455 45.8298 27.1564 27.2849 33.8626C22.4906 35.5959 12.4588 38.9752 11.4707 39.1895L10.9323 39.3061L11.0335 45.0118C11.0891 48.1499 11.2755 62.0744 11.4475 75.9553C12.0442 124.076 12.0984 127.659 12.2616 129.839C13.6619 148.548 23.8758 163.193 44.2042 175.639C50.1488 179.279 57.0418 182.818 66.262 186.966C71.9927 189.543 78.1379 192.216 78.3243 192.212C78.5728 192.207 88.1037 188.015 93.1045 185.713C107.15 179.245 116.589 173.645 124.326 167.192C126.682 165.227 131.152 160.759 132.84 158.682C139.315 150.715 142.872 142.468 144.196 132.355C144.484 130.156 144.592 124.897 145.005 93.1591C145.147 82.2242 145.363 65.6817 145.484 56.3981C145.605 47.1145 145.654 39.4651 145.593 39.3996C145.531 39.334 143.987 38.8077 142.162 38.2304C130.629 34.5815 110.425 26.9122 95.6185 20.5622C89.9144 18.116 87.0019 16.7871 82.3475 14.5074C80.0885 13.401 78.2274 12.5064 78.2117 12.5192C78.196 12.532 77.161 13.0752 75.9123 13.7264ZM9.09158e-07 37.4088C9.09158e-07 40.8902 0.02141 42.2914 0.0476848 40.5224C0.0739596 38.7537 0.0737974 35.9052 0.0475226 34.1927C0.02141 32.4803 -0.000161324 33.9276 9.09158e-07 37.4088ZM54.4292 33.5262C53.611 33.8815 52.835 34.5172 52.5526 35.0639C52.4166 35.3271 52.3254 35.5416 52.35 35.5406C52.3747 35.5396 52.753 35.4302 53.1909 35.2972C54.8922 34.7808 55.0716 35.1299 53.5096 35.9179L52.435 36.4599L52.9825 36.6884C53.7468 37.0071 54.804 36.9321 55.4853 36.5107C56.054 36.1589 57.8281 34.1108 57.8281 33.8058C57.8281 33.279 55.4499 33.0831 54.4292 33.5262ZM99.1413 33.5279L98.6905 33.7726L99.4657 34.7599C100.446 36.0091 101.209 36.6413 101.992 36.8531C102.601 37.0178 102.893 36.9839 103.771 36.6468L104.22 36.4743L103.447 36.1073C102.496 35.656 101.99 35.2802 102.136 35.1342C102.243 35.0263 103.513 35.2456 104.109 35.4746C104.395 35.5842 104.397 35.565 104.15 35.0868C103.892 34.588 102.929 33.8424 102.058 33.4661C101.427 33.1935 99.6898 33.2304 99.1413 33.5279ZM48.5008 34.3844C47.2585 34.949 46.1498 36.6772 46.0194 38.2523C45.9404 39.2047 46.1054 39.345 46.5066 38.6667C46.8334 38.1147 47.577 37.4028 47.6993 37.5252C47.7492 37.575 47.6034 38.0746 47.3759 38.6353C47.1481 39.1957 46.9928 39.6854 47.0305 39.7233C47.1715 39.8643 47.8117 39.5556 48.3401 39.0911C49.0286 38.4863 49.3369 37.5336 49.4747 35.583C49.5938 33.8975 49.5881 33.8902 48.5008 34.3844ZM107.214 35.723C107.342 37.5556 107.574 38.3089 108.216 38.9794C108.632 39.414 109.51 39.873 109.653 39.7302C109.694 39.6886 109.542 39.1957 109.314 38.6353C109.087 38.0746 108.941 37.5757 108.989 37.5269C109.117 37.3988 109.685 37.9483 110.072 38.575C110.495 39.2595 110.702 39.2583 110.702 38.5708C110.702 36.7126 109.158 34.5399 107.561 34.1504L107.096 34.037L107.214 35.723ZM74.7769 37.428C69.7227 38.1461 66.2009 39.2045 62.3694 41.1566C49.7498 47.5867 41.9364 60.8382 42.473 74.9002C42.6873 80.5177 43.8506 85.1385 46.2699 89.9832C52.8063 103.073 66.5683 111.005 81.0499 110.031C86.2807 109.679 90.6239 108.5 95.1595 106.2C100.784 103.349 105.483 99.1676 108.995 93.8903C112.843 88.1083 114.823 81.881 115.036 74.8863C115.137 71.586 114.953 69.2875 114.345 66.2628C111.711 53.1569 101.584 42.2526 88.6696 38.6171C85.2007 37.6403 83.7426 37.4512 79.3182 37.4031C77.0883 37.3789 75.0445 37.3901 74.7769 37.428ZM76.4799 39.0527C72.9165 39.3864 69.6086 40.1055 66.7906 41.1591C54.3594 45.8073 45.7413 56.9862 44.353 70.2643C44.1158 72.5314 44.2426 77.0363 44.6045 79.2012C46.7372 91.9648 55.6792 102.519 67.7787 106.553C81.6143 111.167 96.7165 106.687 105.823 95.269C108.95 91.3493 111.246 86.6189 112.411 81.7014C113.619 76.6007 113.591 70.2102 112.339 65.3019C111.131 60.5688 108.815 55.9057 105.724 51.9834C104.553 50.4983 101.835 47.7676 100.322 46.5571C95.6043 42.7826 89.8334 40.2872 83.694 39.3674C82.0215 39.1167 77.7743 38.9316 76.4799 39.0527ZM49.8807 39.6096C49.4261 39.8018 48.6331 40.5117 48.4063 40.9296C48.271 41.179 48.3647 41.1967 49.4341 41.121L50.6106 41.038L50.23 41.3722C50.0205 41.5558 49.5644 41.7916 49.2163 41.896C48.8681 42.0004 48.5833 42.1417 48.5833 42.2099C48.5833 42.4726 49.7994 42.7215 50.6891 42.6405C52.0804 42.5145 53.3155 41.7636 53.866 40.7096L54.0917 40.277L53.081 39.9336C51.8641 39.5199 50.4354 39.3754 49.8807 39.6096ZM104.944 39.5481C104.766 39.588 104.165 39.7676 103.609 39.9473L102.597 40.2742L102.824 40.7081C103.392 41.7963 104.631 42.5272 106.108 42.6458C107.053 42.7215 108.107 42.4933 108.107 42.2124C108.107 42.1536 107.797 42.0131 107.418 41.9002C107.039 41.7876 106.546 41.5468 106.323 41.3654L105.917 41.0358L107.173 41.1167C108.574 41.207 108.624 41.1182 107.675 40.2189C106.94 39.5224 106.043 39.3019 104.944 39.5481ZM113.702 41.2827C113.317 43.8317 113.497 44.7253 114.611 45.808C115.391 46.5655 115.849 46.7993 115.678 46.3517C115.493 45.8713 115.213 44.1771 115.27 43.884C115.318 43.6363 115.403 43.6966 115.711 44.1952C115.922 44.5356 116.221 45.1504 116.377 45.5611L116.66 46.3081L116.864 45.6901C117.505 43.7457 116.315 40.6405 114.591 39.7604L113.98 39.4482L113.702 41.2827ZM41.3842 40.2496C40.4714 41.0916 39.7841 42.591 39.6933 43.9381C39.6213 45.0074 39.7571 46.0921 39.9625 46.0921C40.03 46.0921 40.2099 45.7452 40.3625 45.3211C40.515 44.897 40.8188 44.331 41.0376 44.0632L41.4353 43.5763L41.441 44.0696C41.4443 44.341 41.3374 44.9837 41.2035 45.4978C40.9157 46.6037 40.9177 46.579 41.1168 46.579C41.4161 46.579 42.4408 45.5511 42.7538 44.9373C43.1257 44.2079 43.1817 42.279 42.8784 40.6331C42.6462 39.3704 42.4045 39.3084 41.3842 40.2496ZM72.8959 42.3557C67.9479 43.2792 63.2972 45.3689 59.2067 48.506C58.0982 49.356 55.5573 51.7517 55.5573 51.9466C55.5573 52.0794 58.6178 54.3507 59.2117 54.6587C59.5055 54.8112 59.7126 54.6291 61.1286 52.9732C63.9341 49.6924 68.2813 46.0176 72.3698 43.4706C74.4656 42.1648 74.6391 42.052 74.5336 42.0592C74.489 42.0624 73.7521 42.1957 72.8959 42.3557ZM85.3357 43.7925C90.3548 47.1073 94.0869 50.424 97.4223 54.5349L98.0096 55.259L99.5308 54.0854C100.367 53.4402 101.269 52.7178 101.535 52.4801L102.019 52.0482L100.643 50.7559C96.2091 46.5897 91.2163 43.9052 85.4815 42.6044C82.652 41.9625 82.6456 42.0158 85.3357 43.7925ZM76.9328 43.7462C74.1242 46.7589 71.0764 51.2446 69.009 55.4081C68.2118 57.0136 67.5596 58.4564 67.5596 58.6144C67.5596 59.1766 72.9669 60.6378 76.399 61.0034C77.1124 61.0794 77.7153 61.1265 77.7382 61.1083C77.7614 61.0901 77.7614 56.9917 77.7382 52.0011L77.6963 42.9271L76.9328 43.7462ZM79.4041 51.9755L79.3994 61.1858H80.2741C82.5524 61.1858 85.9725 60.642 88.6183 59.8593C89.807 59.5075 89.8087 59.506 89.7126 59.0074C89.6597 58.7328 88.9253 57.111 88.0808 55.4038C85.9834 51.1643 83.2255 47.0711 80.0563 43.4953L79.4091 42.7649L79.4041 51.9755ZM72.1869 45.4547C69.152 47.496 67.1898 49.0706 64.8263 51.3615C63.0794 53.0547 60.7986 55.6164 60.9302 55.7377C61.1266 55.9184 65.6467 58.1023 65.8246 58.1023C65.943 58.1023 66.2089 57.6824 66.4152 57.1691C67.8138 53.6894 70.9436 48.5409 73.936 44.797C74.3657 44.2595 74.6941 43.8202 74.666 43.8207C74.6378 43.821 73.5221 44.5563 72.1869 45.4547ZM82.5785 43.9966C82.6767 44.1227 83.212 44.804 83.768 45.5115C86.5434 49.041 89.1648 53.5967 91.1348 58.3146L91.382 58.9069L92.6487 58.3071C94.2025 57.5715 96.3863 56.3555 96.5082 56.1581C96.7476 55.7706 91.9729 50.7594 89.2929 48.586C87.0047 46.73 82.0903 43.3709 82.5785 43.9966ZM35.8653 46.1197C34.9549 47.184 34.5854 48.3355 34.5717 50.1494C34.5622 51.4115 34.625 51.8334 34.918 52.4743C35.3078 53.3266 35.6039 53.352 35.6151 52.5339C35.6241 51.8743 36.1242 50.3929 36.3378 50.3929C36.429 50.3929 36.5356 51.0692 36.5813 51.9348L36.6622 53.4766L37.125 52.9897C38.5734 51.4654 38.5926 49.6842 37.1968 46.2949C37.0039 45.8262 36.7554 45.4427 36.645 45.4427C36.5346 45.4427 36.1835 45.7474 35.8653 46.1197ZM43.9608 45.5977C43.482 45.8249 42.9829 46.2787 42.6746 46.7669L42.402 47.1985L43.7086 47.109C44.5593 47.0507 45.0151 47.0781 45.0151 47.1875C45.0151 47.3712 44.905 47.4267 43.4977 47.9548L42.5482 48.3111L43.1167 48.581C43.8553 48.9318 45.5303 48.9323 46.5565 48.5822C47.4434 48.28 48.7976 47.0507 48.7151 46.6226C48.5843 45.9418 44.9062 45.1489 43.9608 45.5977ZM109.323 45.8504C108.699 46.0706 108.094 46.2869 107.98 46.3308C107.814 46.3941 107.822 46.5087 108.017 46.886C108.366 47.5616 109.344 48.3178 110.263 48.6236C111.279 48.961 113.33 48.8875 113.718 48.4995C113.962 48.2553 113.953 48.2271 113.599 48.129C112.873 47.9279 111.675 47.3345 111.675 47.1763C111.675 47.0779 112.169 47.0557 112.976 47.118C114.173 47.2104 114.264 47.196 114.125 46.9391C113.927 46.5738 113.148 45.8553 112.7 45.6248C112.096 45.3146 110.549 45.418 109.323 45.8504ZM119.259 46.8656C118.157 49.5606 118.138 51.2403 119.191 52.6186C120.003 53.6809 120.09 53.6154 120.143 51.9057C120.169 51.0736 120.261 50.3929 120.346 50.3929C120.549 50.3929 121.059 52.0208 121.072 52.7058C121.087 53.4661 121.312 53.3565 121.741 52.3811C122.251 51.2172 122.246 49.0407 121.73 47.6655C121.399 46.7828 120.356 45.4427 120 45.4427C119.912 45.4427 119.579 46.0831 119.259 46.8656ZM39.7691 52.0094C39.0013 52.2832 38.4301 52.8015 38.0252 53.592C37.8554 53.9231 37.7164 54.2296 37.7164 54.273C37.7164 54.3164 38.1293 54.2097 38.634 54.036C39.1386 53.8623 39.7352 53.72 39.9597 53.72H40.3682L39.9879 54.125C39.7788 54.3477 39.2552 54.7058 38.8244 54.9206L38.0409 55.3114L38.5517 55.4895C40.1696 56.054 42.7374 54.9605 43.6719 53.3094C44.2673 52.2578 44.2062 52.1611 42.8189 51.9545C41.2489 51.7208 40.5416 51.7335 39.7691 52.0094ZM113.662 51.9697C112.763 52.1078 112.648 52.1671 112.648 52.4925C112.648 52.9929 113.478 54.1008 114.297 54.6949C115.438 55.5214 117.108 55.876 118.094 55.5008L118.534 55.3335L117.578 54.7604C117.052 54.4452 116.515 54.0821 116.385 53.9535C116.177 53.7494 116.209 53.72 116.643 53.72C116.916 53.72 117.552 53.8623 118.056 54.036C118.561 54.2097 118.974 54.3164 118.974 54.273C118.974 53.9844 118.255 52.8783 117.84 52.5294C116.96 51.7878 115.83 51.6366 113.662 51.9697ZM53.2883 54.5643C50.6071 58.1554 48.681 62.356 47.7131 66.723C47.3143 68.5229 46.9614 71.1392 46.9614 72.2972V72.8716H49.7967C53.0513 72.8716 52.6987 73.0851 52.8781 71.0051C53.2327 66.8975 55.026 61.7776 57.4762 57.8763C58.0267 57.0001 58.4725 56.2359 58.4671 56.1783C58.4581 56.0811 54.6938 53.3742 54.4175 53.2658C54.3494 53.2391 53.8413 53.8235 53.2883 54.5643ZM101.863 54.2259C101.328 54.6729 100.443 55.3699 99.8966 55.7749L98.9035 56.5112L99.8839 58.0724C102.429 62.1242 104.23 67.2969 104.643 71.74L104.748 72.8716H107.556H110.366L110.28 71.7759C109.911 67.032 108.841 63.0938 106.867 59.2152C105.675 56.871 103.315 53.3744 102.947 53.4046C102.886 53.4096 102.398 53.7791 101.863 54.2259ZM30.552 54.2364C29.6291 55.6687 29.7278 58.2187 30.7865 60.3034C31.1772 61.0731 32.4616 62.4412 32.6326 62.27C32.6752 62.2271 32.6361 61.9112 32.5459 61.5675C32.2613 60.4831 32.1396 58.9137 32.3405 58.9137C32.5466 58.9137 33.1943 60.1409 33.4971 61.1048C33.8031 62.0789 33.92 62.1001 34.2504 61.2404C35.0279 59.2179 34.4156 57.4651 32.1406 55.2005L30.7942 53.8601L30.552 54.2364ZM124.458 55.3024C122.655 57.1494 122.143 58.114 122.151 59.644C122.155 60.4574 122.25 60.958 122.484 61.4061L122.81 62.0323L123.181 61.0004C123.647 59.7016 124.158 58.8431 124.35 59.035C124.511 59.196 124.271 61.2077 124.009 61.897C123.784 62.4888 124.032 62.4402 124.806 61.7402C126.538 60.1746 127.294 56.5327 126.293 54.5723C126.1 54.1928 125.92 53.8825 125.893 53.8825C125.866 53.8825 125.221 54.5214 124.458 55.3024ZM59.0978 58.2433C57.92 60.0604 56.2915 63.4534 55.6508 65.4253C55.0482 67.2795 54.5206 69.8023 54.3395 71.6949L54.2271 72.8716H58.5416H62.8561V72.1494C62.8561 71.3473 63.2526 68.0886 63.519 66.7041C63.8053 65.2139 64.602 62.1477 65.0192 60.9296L65.4129 59.7806L62.6567 58.3926L59.9007 57.0046L59.0978 58.2433ZM96.5104 58.046C95.9751 58.3717 94.7241 59.0315 93.7303 59.5122L91.923 60.3864L92.4715 62.2062C93.3811 65.2252 93.9879 68.4068 94.2504 71.5327L94.3627 72.8716H98.7209H103.079V72.1624C103.079 69.5673 101.428 63.9545 99.8017 61.0236C99.0588 59.6844 97.6622 57.4529 97.567 57.4534C97.5212 57.4537 97.0457 57.7203 96.5104 58.046ZM37.353 59.3069C36.4193 59.6406 35.9834 59.9854 35.5456 60.7385C35.1112 61.4853 34.8231 62.4058 35.0581 62.2977C35.1376 62.261 35.6151 62.0395 36.119 61.8058C37.3059 61.2548 37.7164 61.1287 37.7164 61.3151C37.7164 61.495 36.3094 62.8347 35.8508 63.0916C35.3606 63.3662 35.6854 63.5267 36.6824 63.5035C37.8223 63.4768 39.1401 62.8536 40.111 61.8823C40.8502 61.1424 41.437 60.0669 41.4433 59.4412C41.4468 59.0844 41.4064 59.0761 39.7033 59.0831C38.6788 59.0873 37.7094 59.1795 37.353 59.3069ZM115.243 59.6393C115.688 61.6171 117.955 63.4554 120.008 63.5035C121.005 63.5267 121.33 63.3662 120.839 63.0916C120.381 62.8347 118.974 61.495 118.974 61.3151C118.974 61.1192 119.472 61.2735 120.674 61.8419C121.208 62.0943 121.674 62.2705 121.711 62.2339C121.874 62.0702 121.158 60.6231 120.673 60.1382C119.885 59.3497 118.901 59.0759 116.853 59.0759H115.115L115.243 59.6393ZM66.7596 60.6784C66.0773 61.9543 64.7451 68.0118 64.5602 70.6804C64.5043 71.4838 64.4251 72.3054 64.3842 72.5062L64.3095 72.8716H71.0435H77.7776V67.7943V62.7173L76.0197 62.5302C73.5059 62.263 69.3606 61.2805 67.1265 60.4225C67.0216 60.3821 66.8563 60.4975 66.7596 60.6784ZM88.401 61.5346C86.29 62.1519 83.6813 62.5942 81.3051 62.7377L79.3994 62.8531V67.8623V72.8716H86.0492H92.699V72.1494C92.699 70.2087 92.007 66.2212 91.1275 63.0928C90.6817 61.508 90.4843 61.028 90.2842 61.042C90.1404 61.0522 89.2929 61.2737 88.401 61.5346ZM26.9993 64.7086C26.5073 66.0034 26.6987 67.6777 27.542 69.4631C28.1466 70.7432 29.5786 72.2321 30.4585 72.4963C31.1401 72.7009 31.162 72.6824 30.8341 72.1761C30.5233 71.6964 29.7256 69.2904 29.8395 69.1763C29.999 69.0171 30.5951 69.6769 31.4 70.9037C32.1778 72.0889 32.1867 72.0963 32.3111 71.6341C32.3801 71.3774 32.4302 70.6839 32.4222 70.0933C32.3961 68.1489 31.4115 66.8858 28.5548 65.132L27.163 64.2775L26.9993 64.7086ZM128.128 65.0884C124.989 66.961 123.699 69.0898 124.317 71.3782L124.505 72.0759L125.283 70.8912C125.711 70.2399 126.218 69.5675 126.41 69.3976C126.757 69.0898 126.759 69.0906 126.759 69.5155C126.759 69.9844 126.05 71.9852 125.76 72.3351C125.505 72.6423 125.619 72.6834 126.252 72.5125C127.625 72.1419 129.499 69.3929 129.845 67.2418C129.999 66.2845 129.833 64.6685 129.554 64.4165C129.489 64.3575 128.847 64.6595 128.128 65.0884ZM38.3653 67.6244C34.9978 67.8648 33.4445 68.9441 32.9284 71.4018L32.811 71.961L33.277 71.6525C34.0899 71.114 35.3574 70.443 35.5675 70.44C35.9827 70.434 35.7414 70.8284 34.7112 71.8392C33.5397 72.9884 33.5711 73.1561 34.9208 72.9565C36.7303 72.6891 38.8341 70.9653 39.489 69.2132C39.9443 67.9959 39.9358 67.507 39.4601 67.5441C39.2592 67.5596 38.7668 67.5957 38.3653 67.6244ZM116.924 68.2633C117.214 70.3866 119.634 72.6862 121.896 72.9899C123.094 73.1504 123.086 72.9732 121.842 71.7063C120.999 70.8469 120.754 70.5077 120.949 70.4701C121.222 70.4175 122.346 70.9476 123.321 71.588L123.856 71.9403L123.752 71.4726C123.362 69.7191 122.551 68.6984 121.125 68.1646C120.425 67.9025 118.186 67.5553 116.965 67.5199C116.886 67.5175 116.867 67.8521 116.924 68.2633ZM25.4876 75.0211C24.9578 77.672 26.8016 81.2062 29.362 82.4464C29.7316 82.6254 30.1906 82.7719 30.3825 82.7719C30.7182 82.7719 30.7127 82.7445 30.2389 82.042C29.6817 81.2154 28.8925 79.3752 29.0345 79.2331C29.1527 79.115 30.7957 80.7268 31.2756 81.4317C31.473 81.7213 31.6981 81.9585 31.7758 81.9593C32.0268 81.961 31.7962 79.1611 31.4987 78.5947C30.7765 77.2194 29.4831 76.2249 27.0354 75.1626L25.5853 74.5329L25.4876 75.0211ZM47.0375 75.9959C47.1932 78.0313 47.4942 79.7694 47.6911 79.7694C47.7803 79.7694 48.9666 79.4053 50.3267 78.9605L52.8001 78.1519V77.5648C52.8001 77.2421 52.753 76.4193 52.6952 75.7362L52.5905 74.4945H49.7565H46.9228L47.0375 75.9959ZM54.2966 76.041C54.3409 76.8917 54.4102 77.6206 54.4503 77.6607C54.4907 77.7011 55.4504 77.5526 56.5828 77.3311C57.7155 77.1093 59.572 76.8354 60.7084 76.722L62.7748 76.5157L62.8232 75.5052L62.8713 74.4945H58.5436H54.2156L54.2966 76.041ZM64.3481 75.4277L64.3967 76.361L67.5596 76.4646C69.2991 76.5214 71.3426 76.652 72.1009 76.7549C73.6916 76.9702 77.0758 77.5481 77.4937 77.6757C77.7509 77.7544 77.7776 77.6094 77.7776 76.1285V74.4945H71.0385H64.2995L64.3481 75.4277ZM79.3994 76.2767C79.3994 77.9914 79.4131 78.0622 79.7642 78.1447C79.9651 78.1918 82.3552 78.7734 85.0761 79.4372C90.0587 80.6528 92.1543 81.1001 92.2776 80.974C92.3743 80.875 92.6624 78.0986 92.7775 76.1581L92.876 74.4945H86.1377H79.3994V76.2767ZM94.3154 75.9959C94.3122 76.8215 94.2102 78.337 94.0886 79.3635C93.967 80.3901 93.9025 81.2665 93.9458 81.3111C93.9889 81.3557 95.3499 81.3846 96.9702 81.3752C99.5542 81.3602 100.086 81.3104 101.295 80.9695L102.674 80.5808L102.864 79.4447C102.969 78.8197 103.107 77.4504 103.171 76.4016L103.287 74.4945H98.8041H94.3209L94.3154 75.9959ZM104.788 75.9147C104.73 76.6959 104.628 77.8641 104.561 78.5115C104.493 79.1586 104.488 79.6882 104.548 79.6882C104.61 79.6882 105.234 79.3131 105.937 78.8549C107.366 77.9236 109.278 76.3637 110.371 75.2389L111.094 74.4945H107.993H104.892L104.788 75.9147ZM129.496 75.2012C127.874 75.9097 127.154 76.3495 126.294 77.1569C125.227 78.1579 124.815 79.1614 124.82 80.743L124.824 82.0415L125.503 81.2299C126.308 80.268 127.408 79.2012 127.594 79.2012C127.819 79.2012 127.011 81.2117 126.455 82.0365L125.928 82.8175L126.531 82.7196C127.442 82.5715 128.782 81.59 129.62 80.4554C130.508 79.2553 130.944 78.3091 131.176 77.0811C131.367 76.0702 131.22 74.6558 130.925 74.6587C130.819 74.66 130.176 74.904 129.496 75.2012ZM37.3012 75.5224C34.1547 76.6398 32.8509 78.055 32.8509 80.3528V81.3523L34.0678 80.1958C34.7371 79.5593 35.3624 79.039 35.4571 79.039C35.804 79.039 35.2393 80.3004 34.3371 81.5406L33.7572 82.338L34.3499 82.2419C35.9071 81.9892 37.6137 80.5202 38.5388 78.6368C38.9961 77.7056 39.1052 77.2797 39.1528 76.2429C39.1979 75.2576 39.1625 74.9834 38.9906 74.9909C38.8697 74.9962 38.1094 75.2354 37.3012 75.5224ZM117.47 75.509C117.247 76.9658 118.012 78.9762 119.347 80.4405C120.161 81.3318 121.79 82.285 122.501 82.285C122.891 82.285 122.89 82.279 122.31 81.4896C121.686 80.6391 121 79.2299 121.14 79.0889C121.277 78.9525 122.068 79.5798 122.988 80.5536L123.839 81.4539L123.836 80.3682C123.83 78.5038 122.955 77.2294 121.001 76.2396C120.131 75.799 117.965 74.9814 117.666 74.9814C117.603 74.9814 117.515 75.2187 117.47 75.509ZM110.702 79.0597C108.295 81.2493 105.282 83.0786 101.944 84.3759C98.3029 85.7906 95.6063 86.343 92.3434 86.3418C90.2496 86.341 89.1319 86.1943 84.3461 85.2909C76.5629 83.822 70.7111 83.596 65.6699 84.5693C60.8076 85.5082 55.7938 87.9787 52.0779 91.2665L51.0066 92.2144L51.6012 93.052C53.1056 95.1713 55.8561 98.1846 57.2734 99.2663L57.8647 99.7176L58.2031 99.2381C58.8434 98.3301 61.4797 95.7181 62.6971 94.7851C64.9514 93.0577 67.6867 91.5568 70.4788 90.5152C74.2034 89.126 75.6336 88.9476 84.4271 88.7751C88.3967 88.6974 92.2285 88.5534 92.9423 88.4549C98.3593 87.7088 103.052 86.1317 106.971 83.7402C108.542 82.7814 110.848 81.0213 111.319 80.4218C111.59 80.0769 111.974 78.3014 111.81 78.1504C111.781 78.123 111.282 78.5322 110.702 79.0597ZM37.9576 83.5548C36.3109 84.958 35.8351 85.5257 35.2368 86.8008C34.8109 87.7086 34.7645 87.9526 34.8361 88.9107C34.8807 89.5068 35.0227 90.2486 35.1516 90.5591L35.3861 91.1242L36.1865 89.5122C37.143 87.5852 37.4928 87.3256 37.3363 88.658C37.2783 89.1522 37.0924 90.0019 36.9232 90.5464C36.7537 91.0906 36.6478 91.5362 36.6874 91.5362C36.9521 91.5362 37.7495 90.9732 38.1802 90.4823C39.4314 89.0565 40.2436 86.6558 40.1035 84.7978C40.0275 83.7861 39.5976 82.4472 39.3489 82.4472C39.2986 82.4472 38.6723 82.9456 37.9576 83.5548ZM116.953 83.056C116.279 84.438 116.503 87.1021 117.451 88.9742C118.057 90.1708 119.421 91.5362 120.011 91.5362C120.055 91.5362 119.946 91.1163 119.768 90.6029C119.59 90.0894 119.406 89.1948 119.359 88.6146L119.272 87.5596L119.612 87.9655C119.91 88.3219 120.504 89.4706 121.039 90.7245L121.212 91.1302L121.506 90.4811C121.704 90.042 121.8 89.4382 121.802 88.6146C121.804 87.2396 121.434 86.3373 120.354 85.0849C119.836 84.4836 117.488 82.4472 117.314 82.4472C117.278 82.4472 117.116 82.7213 116.953 83.056ZM26.4251 87.9837C26.8707 90.8539 30.6215 93.7455 33.2573 93.2508L33.8465 93.1399L33.2269 92.6874C32.4998 92.1561 31.0668 90.648 31.0668 90.4141C31.0668 90.1036 32.738 90.8379 34.2547 91.815C34.6001 92.0375 34.6026 92.0318 34.4498 91.3418C34.0625 89.5927 33.0557 88.4165 31.404 87.7836C30.7127 87.5187 30.0047 87.4173 28.4068 87.354L26.3144 87.2715L26.4251 87.9837ZM126.328 87.4853C124.279 87.891 122.938 89.0338 122.377 90.8541C122.197 91.435 122.071 91.9304 122.096 91.955C122.12 91.9797 122.541 91.7552 123.03 91.4562C124.134 90.7821 125.623 90.1821 125.623 90.4121C125.623 90.6695 124.024 92.3074 123.39 92.6996C122.902 93.0014 122.866 93.0649 123.11 93.2015C123.612 93.4826 125.166 93.2518 126.275 92.7318C128.283 91.7893 129.929 89.8028 130.257 87.9249L130.363 87.3161L128.683 87.3341C127.758 87.3438 126.699 87.4118 126.328 87.4853ZM108.188 88.3909C106.836 89.341 103.612 90.8417 101.295 91.5994C97.8237 92.7348 95.6023 93.1347 88.1575 93.9648C82.8444 94.5571 80.4344 94.9441 77.9764 95.5995C73.8097 96.7101 70.4352 98.4916 67.9491 100.893C66.8793 101.926 65.2888 103.902 65.2888 104.198C65.2888 104.576 69.4588 105.967 72.3389 106.551C75.1689 107.124 75.1679 107.125 75.7373 106.11C76.4393 104.859 78.6161 102.683 80.2778 101.571C83.6755 99.2967 86.8853 98.0129 92.8132 96.5573C97.4963 95.4073 102.17 93.7064 106.153 91.7021L107.42 91.0647L108.257 89.434C108.718 88.5372 109.073 87.8073 109.047 87.812C109.021 87.817 108.634 88.0774 108.188 88.3909ZM41.0004 91.739C39.8356 94.0595 39.6649 94.6249 39.6637 96.1703C39.6627 97.4731 40.1113 98.5937 40.9591 99.4066L41.4468 99.8741L41.4483 98.9917C41.4497 97.9207 41.7371 96.0527 41.9305 95.8574C42.143 95.6428 42.5819 97.3099 42.5846 98.3415C42.5884 99.6605 42.7758 99.8419 43.3061 99.04C44.4781 97.2678 44.6715 93.907 43.7248 91.7597C43.4429 91.1203 42.3417 89.7507 42.1094 89.7507C42.0486 89.7507 41.5494 90.6455 41.0004 91.739ZM113.893 90.3901C113.145 91.2192 112.865 91.7776 112.57 93.0293C112.124 94.9194 112.314 97.04 113.061 98.5252C113.709 99.8115 113.884 99.8175 114.013 98.5566C114.139 97.3191 114.413 96.0697 114.605 95.8569C114.797 95.6436 115.06 96.8001 115.183 98.4018L115.292 99.8242L115.676 99.4634C115.887 99.2648 116.277 98.6665 116.544 98.1335C116.934 97.3515 117.027 96.9588 117.027 96.0951C117.026 95.507 116.95 94.7333 116.857 94.3764C116.666 93.6423 114.751 89.7507 114.581 89.7507C114.52 89.7507 114.21 90.0385 113.893 90.3901ZM46.235 100.179C45.6733 102.053 45.5906 102.537 45.5868 103.952C45.5816 106.003 45.9427 106.908 47.2391 108.094C48.1616 108.938 48.504 109.099 48.3545 108.618C48.0006 107.482 47.8217 104.52 48.1068 104.52C48.3438 104.52 49.1988 106.451 49.4478 107.548C49.6133 108.277 49.6885 108.404 49.844 108.216C51.2351 106.539 50.6639 101.69 48.8178 99.5053C48.3752 98.9817 47.187 98.0281 46.9769 98.0281C46.9231 98.0281 46.5891 98.9957 46.235 100.179ZM109.161 98.3273C107.014 99.6431 105.59 103.521 106.155 106.516C106.359 107.603 106.901 108.681 107.022 108.245C107.482 106.597 108.019 105.115 108.264 104.813C108.554 104.458 108.575 104.454 108.689 104.747C108.804 105.043 108.513 108.175 108.326 108.664C108.16 109.096 108.547 108.912 109.379 108.164C110.953 106.747 111.49 104.741 110.961 102.248C110.655 100.804 109.844 98.0288 109.729 98.0293C109.684 98.0293 109.429 98.1634 109.161 98.3273ZM32.3642 98.6854C31.5169 98.8504 30.8104 98.9892 30.7942 98.9937C30.692 99.0223 31.1179 100.116 31.4558 100.693C32.8927 103.146 36.9486 104.728 39.3442 103.768L40.0053 103.504L38.8889 102.964C38.2751 102.666 37.45 102.124 37.0552 101.758L36.3378 101.094L37.1489 101.2C37.5948 101.258 38.5041 101.478 39.1693 101.689C39.8346 101.9 40.4098 102.041 40.4479 102.003C40.4858 101.965 40.3208 101.532 40.0809 101.042C39.5555 99.9673 38.4568 98.9565 37.4353 98.6082C36.4432 98.27 34.3329 98.3019 32.3642 98.6854ZM119.459 98.5043C118.194 98.8895 116.991 100.036 116.427 101.394L116.105 102.169L117.447 101.72C118.185 101.473 119.141 101.23 119.571 101.18L120.352 101.09L119.635 101.757C119.24 102.123 118.421 102.663 117.815 102.957L116.712 103.491L117.281 103.762C118.071 104.139 119.812 104.114 121.13 103.707C122.583 103.258 124.055 102.234 124.901 101.084C125.558 100.191 125.934 99.2581 125.721 99.0453C125.669 98.9929 124.95 98.8177 124.124 98.6563C122.599 98.3577 120.198 98.2795 119.459 98.5043ZM53.6716 104.95C53.5009 105.631 53.7389 110.032 53.9975 110.975C54.3375 112.213 55.0863 113.452 55.8526 114.042C56.4918 114.534 58.2809 115.32 58.4277 115.173C58.4666 115.134 58.2789 114.668 58.0108 114.136C57.472 113.068 56.8549 111.341 56.8549 110.901C56.8549 110.444 58.3557 112.035 59.0592 113.239C59.7829 114.477 59.907 114.374 59.9252 112.522C59.9553 109.444 57.688 105.808 55.1454 104.856C53.9818 104.421 53.8017 104.432 53.6716 104.95ZM101.183 105.007C98.7702 106.214 96.7392 109.564 96.7068 112.392C96.6998 113.017 96.7511 113.7 96.8212 113.91C96.9388 114.263 96.9961 114.213 97.5705 113.261C98.3012 112.049 99.5876 110.556 99.7581 110.722C99.9495 110.908 99.5368 112.285 98.8505 113.753C98.5001 114.502 98.2135 115.142 98.2135 115.176C98.2135 115.305 99.1346 115.009 99.856 114.648C102.124 113.514 102.931 111.589 102.973 107.214L102.998 104.601L102.592 104.554C102.368 104.527 101.735 104.732 101.183 105.007ZM41.0413 107.744C40.1364 108.021 38.2205 108.763 37.1928 109.235L36.7502 109.438L37.1078 110.075C37.5836 110.922 38.783 112.026 39.7746 112.528C41.9021 113.607 44.6927 113.751 46.4095 112.87C46.9218 112.607 47.3654 112.317 47.3956 112.226C47.4255 112.135 47.01 111.977 46.4725 111.875C45.4206 111.674 43.3931 110.803 43.3931 110.551C43.3931 110.307 44.6453 110.235 46.2166 110.387C47.0113 110.465 47.6971 110.492 47.741 110.448C47.8621 110.327 46.9654 109.097 46.4242 108.641C45.0585 107.491 42.9918 107.147 41.0413 107.744ZM111.832 107.68C111.428 107.811 110.804 108.169 110.446 108.476C109.755 109.067 108.814 110.313 108.952 110.451C108.998 110.497 109.647 110.465 110.395 110.381C111.79 110.224 113.297 110.304 113.297 110.534C113.297 110.836 110.591 111.869 109.405 112.02C109.019 112.069 109.032 112.094 109.673 112.527C111.958 114.071 116.062 113.607 118.34 111.548C119.092 110.867 119.895 109.588 119.685 109.406C119.479 109.227 117.625 108.446 116.298 107.978C114.871 107.476 112.878 107.343 111.832 107.68ZM63.185 109.673C63.197 110.38 63.9915 114.107 64.3092 114.946C65.2283 117.372 67.2 118.94 69.1209 118.771L69.6878 118.721L69.0152 117.829C68.211 116.762 67.1591 114.745 67.4066 114.745C67.7512 114.745 68.9781 115.712 69.9066 116.716L70.8504 117.736L70.7701 116.483C70.6572 114.724 69.8745 113.166 68.2982 111.563C66.8409 110.08 65.5101 109.389 64.1128 109.389C63.3311 109.389 63.181 109.435 63.185 109.673ZM91.1582 109.588C89.5227 110.173 87.5482 112.097 86.5873 114.043C86.0811 115.067 85.9608 115.501 85.9114 116.481L85.8513 117.672L86.9185 116.566C87.99 115.455 89.2929 114.549 89.2929 114.915C89.2929 115.228 88.3634 116.875 87.6698 117.791C87.3137 118.262 87.0224 118.682 87.0224 118.725C87.0224 118.889 88.4291 118.778 89.0175 118.568C90.5703 118.014 91.7543 116.665 92.4521 114.655C92.7893 113.684 93.51 110.242 93.51 109.604C93.51 109.338 91.8889 109.328 91.1582 109.588ZM51.0973 114.801C49.7254 115.256 45.8261 117.545 45.8261 117.895C45.8261 118.005 46.084 118.396 46.399 118.765C47.0773 119.558 48.8153 120.478 50.1625 120.758C51.4641 121.029 53.7904 120.875 54.9213 120.443C55.7956 120.11 57.1794 119.097 57.1794 118.79C57.1794 118.708 56.7739 118.64 56.2788 118.64C55.2368 118.64 53.2948 118.232 52.8756 117.926C52.6134 117.734 52.6366 117.698 53.1403 117.52C53.5873 117.362 56.1484 117.046 57.1724 117.023C57.5133 117.015 56.1061 115.615 55.2443 115.105C54.6462 114.751 54.2931 114.672 53.136 114.633C52.2897 114.604 51.492 114.67 51.0973 114.801ZM101.666 114.98C101.201 115.197 100.471 115.725 100.044 116.154L99.2676 116.935L100.403 117.055C102.103 117.236 103.625 117.502 103.888 117.665C104.071 117.778 104.017 117.85 103.641 117.994C102.596 118.393 101.339 118.641 100.328 118.647L99.2676 118.653L100.022 119.348C101.035 120.282 102.318 120.762 104.087 120.87C105.766 120.973 107.185 120.73 108.423 120.126C109.315 119.691 110.864 118.304 110.864 117.941C110.864 117.721 110.802 117.677 108.447 116.251C105.644 114.554 103.459 114.145 101.666 114.98ZM76.3165 117.382C75.1091 118.107 74.4888 119.126 74.3993 120.531C74.3099 121.937 74.6565 122.811 75.664 123.717C77.3624 125.245 79.5143 125.205 81.0925 123.616C82.7652 121.932 82.7604 119.566 81.081 117.958C80.245 117.158 79.4595 116.855 78.2216 116.855C77.3524 116.855 77.0611 116.936 76.3165 117.382ZM62.7532 119.929C61.8012 120.406 60.996 121.014 59.5813 122.323L57.6853 124.077L58.0908 124.502C58.6928 125.132 60.0655 125.768 61.2325 125.956C64.125 126.422 67.9429 124.948 68.9646 122.971C69.2098 122.497 69.2078 122.491 68.8325 122.6C67.6914 122.934 64.4779 122.894 64.4779 122.545C64.4779 122.306 67.0472 121.342 68.6098 120.995L69.0922 120.888L68.6907 120.565C68.4699 120.387 67.8514 120.028 67.3161 119.766C66.5167 119.375 66.1364 119.289 65.1859 119.289C64.1627 119.289 63.8813 119.363 62.7532 119.929ZM89.7719 119.5C89.1419 119.736 87.608 120.741 87.7149 120.848C87.7515 120.885 88.3412 121.061 89.0247 121.241C90.3829 121.597 91.9477 122.238 92.1137 122.507C92.3464 122.884 89.0801 122.959 87.8739 122.605C87.3262 122.444 87.4266 122.733 88.2285 123.626C89.5964 125.148 91.8176 126.013 94.3209 125.998C96.1321 125.987 97.2894 125.619 98.3381 124.721L99.0045 124.15L97.5371 122.734C94.8831 120.173 93.582 119.424 91.6446 119.34C90.8297 119.305 90.1332 119.364 89.7719 119.5ZM57.0546 135.479C56.9681 135.724 55.2373 140.417 53.2078 145.907C50.8827 152.196 49.3842 156.028 49.1565 156.266C48.9232 156.509 48.5417 156.671 48.0809 156.722C46.7661 156.867 46.637 156.923 46.637 157.339C46.637 158.267 46.5318 158.241 50.4334 158.241C54.2948 158.241 54.4222 158.215 54.4222 157.415C54.4222 156.889 54.1877 156.781 53.0436 156.781C51.9817 156.781 51.665 156.669 51.665 156.296C51.665 156.049 52.5345 153.441 53.3845 151.138L53.6402 150.445L57.54 150.489L61.4398 150.532L62.4551 153.454C63.1743 155.522 63.4223 156.434 63.3056 156.578C63.2085 156.697 62.7601 156.781 62.2184 156.781C61.0294 156.781 60.6441 157.038 60.8602 157.687L61.0177 158.16L65.9315 158.203C69.4219 158.234 70.9097 158.193 71.0677 158.062C71.1898 157.96 71.29 157.668 71.29 157.413C71.29 156.905 71.1848 156.857 69.7716 156.727C69.2973 156.683 68.8622 156.533 68.6803 156.352C68.4575 156.129 60.7475 135.468 60.7475 135.094C60.7475 135.06 59.9518 135.033 58.9794 135.033H57.2111L57.0546 135.479ZM85.2383 136.25V137.305H86.8601C87.752 137.305 88.4949 137.323 88.5111 137.345C88.5268 137.368 88.5817 141.074 88.6327 145.582L88.7252 153.778L89.1586 154.6C89.9523 156.104 91.5103 157.185 93.6301 157.701C95.3013 158.107 99.0431 158.063 100.699 157.617C103.096 156.971 104.522 155.846 105.182 154.08C105.497 153.237 105.512 152.844 105.512 145.251V137.305H107.134H108.756V136.25V135.195H103.485H98.2135V136.25V137.305H99.8425H101.472L101.424 145.217L101.376 153.129L100.996 153.902C100.721 154.459 100.404 154.799 99.8602 155.118C99.1904 155.511 98.9085 155.568 97.352 155.621C94.8584 155.707 93.6438 155.195 93.0066 153.791C92.7275 153.176 92.7058 152.568 92.7025 145.217L92.699 137.305H94.2396H95.7805V136.25V135.195H90.5093H85.2383V136.25ZM72.848 135.614C72.7939 135.755 72.7496 136.04 72.7496 136.248C72.7496 136.58 72.8515 136.639 73.6011 136.742C74.6336 136.883 75.0478 137.031 75.4006 137.384C75.6441 137.628 75.669 138.51 75.669 146.888V156.124L75.3042 156.356C75.1033 156.483 74.6106 156.636 74.2092 156.696C73.0117 156.874 72.9118 156.929 72.9118 157.408C72.9118 158.237 72.9392 158.241 78.277 158.241H83.2526L83.4542 157.754C83.7132 157.129 83.46 156.781 82.745 156.78C81.9251 156.778 81.0494 156.47 80.7827 156.089C80.5672 155.781 80.5348 154.536 80.5348 146.605V137.474L80.9181 137.223C81.1291 137.085 81.7469 136.893 82.2909 136.797C83.3598 136.609 83.6287 136.312 83.2952 135.688C83.123 135.366 82.9837 135.357 78.0325 135.357C73.5443 135.357 72.935 135.387 72.848 135.614ZM55.9423 144.014L54.1378 148.909L55.8207 148.955C56.7465 148.98 58.2617 148.98 59.1883 148.955L60.8726 148.909L59.3662 144.07C58.5378 141.408 57.8346 139.205 57.8034 139.175C57.7725 139.144 56.9349 141.322 55.9423 144.014ZM47.1234 160.514V161.163H76.3177H105.512V160.514V159.864H76.3177H47.1234V160.514ZM57.1428 164.5C56.6107 164.788 56.3685 165.203 56.3685 165.823C56.3685 166.557 56.7712 166.951 57.9073 167.33C59.0639 167.715 59.2516 167.876 58.9575 168.23C58.7026 168.537 57.8734 168.53 57.2709 168.216C56.8298 167.986 56.7717 167.991 56.4809 168.282C56.1006 168.662 56.2257 168.91 56.9506 169.213C58.0359 169.667 59.7375 169.382 59.9979 168.702C60.0533 168.558 60.0989 168.165 60.0989 167.829C60.0989 167.054 59.7597 166.74 58.5314 166.376C57.7944 166.157 57.5734 166.017 57.5338 165.745C57.4642 165.269 58.0908 165.122 58.8463 165.438C59.3742 165.659 59.4467 165.656 59.6804 165.397C60.0717 164.964 59.9947 164.792 59.2845 164.508C58.4818 164.186 57.7252 164.183 57.1428 164.5ZM70.7223 164.476C68.8777 165.296 68.6626 168.083 70.3637 169.121C71.0729 169.554 72.4832 169.552 73.1957 169.117C73.8075 168.744 73.8371 168.62 73.4082 168.232C73.1182 167.969 73.0651 167.967 72.7234 168.207C71.8474 168.821 70.5822 168.289 70.3824 167.224C70.1289 165.872 71.2665 164.935 72.5235 165.46C73.1012 165.702 73.1543 165.699 73.4493 165.404C73.8284 165.025 73.7025 164.776 72.9783 164.473C72.3025 164.191 71.3605 164.192 70.7223 164.476ZM82.7243 164.393C82.5459 164.471 82.2289 164.72 82.0198 164.945L81.6393 165.355L82.0525 165.626C82.4447 165.883 82.4836 165.88 82.8282 165.559C83.3521 165.07 84.0244 165.148 84.1059 165.707C84.1944 166.315 84.0274 166.56 82.8865 167.493C81.8745 168.32 81.6699 168.567 81.6699 168.964V169.44H83.5352H85.4003V168.953V168.466H84.3185H83.2367L84.2375 167.56C85.1957 166.692 85.2383 166.621 85.2383 165.884C85.2383 165.279 85.1541 165.036 84.8428 164.743C84.4109 164.337 83.2763 164.149 82.7243 164.393ZM87.3301 164.615C86.2466 165.339 85.8793 167.017 86.5262 168.286C86.9563 169.129 87.4864 169.44 88.4924 169.44C89.2189 169.44 89.3941 169.371 89.8623 168.903C91.0882 167.676 90.9342 165.398 89.5688 164.565C88.8742 164.141 88.0105 164.16 87.3301 164.615ZM92.2707 164.559C91.5597 164.992 91.4732 165.202 91.8505 165.58L92.1765 165.906L92.6771 165.535C93.1033 165.22 93.2393 165.193 93.5872 165.352C94.3912 165.718 93.97 166.523 92.2996 167.812C91.5786 168.369 91.4014 168.598 91.4014 168.973V169.44H93.2667H95.1318V168.953V168.466H94.0562H92.9809L93.818 167.799C95.0456 166.822 95.3626 166.067 94.9379 165.135C94.5454 164.272 93.2119 163.984 92.2707 164.559ZM96.8119 164.559C96.101 164.992 96.0145 165.202 96.3918 165.58L96.7177 165.906L97.2187 165.535C97.6493 165.217 97.7781 165.192 98.1392 165.356C98.8711 165.69 98.6252 166.27 97.2403 167.476C96.3546 168.247 96.01 168.658 95.9731 168.988L95.922 169.44H97.7978H99.6731V168.953V168.466H98.604H97.5349L98.4178 167.747C99.4343 166.918 99.7581 166.292 99.6018 165.459C99.3997 164.381 97.8977 163.896 96.8119 164.559ZM61.234 166.924V169.44H61.8017H62.3694V166.924V164.409H61.8017H61.234V166.924ZM63.667 166.924V169.44H64.1534H64.6401V167.898C64.6401 167.05 64.6947 166.358 64.7618 166.359C64.8288 166.361 65.3942 167.052 66.0188 167.894C67.0403 169.272 67.207 169.426 67.6812 169.433L68.2083 169.44V166.924V164.409H67.6468H67.0851L67.0385 165.91L66.9919 167.411L65.8598 165.91C64.8368 164.554 64.6765 164.409 64.1973 164.409H63.667V166.924ZM74.8581 166.924V169.44H76.7232H78.5885V168.953V168.466H77.1996H75.8106L75.8614 167.939L75.9123 167.411L77.0883 167.364L78.264 167.316V166.836V166.357H77.0476H75.8313V165.87V165.383H77.2099H78.5885V164.896V164.409H76.7232H74.8581V166.924ZM87.8263 165.518C87.2758 165.964 87.1839 167.408 87.6668 168.02C88.473 169.042 89.5476 168.327 89.5239 166.785C89.5137 166.121 89.4352 165.917 89.0689 165.601C88.5356 165.142 88.3085 165.127 87.8263 165.518Z" fill="#002E9C"/>
</g>
<path d="M207.097 57.069L205.789 52.6416H195.634L194.327 57.069H185.872L195.94 26.3841H205.44L215.508 57.069H207.097ZM197.639 45.8909H203.784L200.69 35.4581L197.639 45.8909ZM228.376 57.7266C225.15 57.7266 222.477 57.0398 220.356 55.6663C218.235 54.2928 216.754 52.437 215.911 50.0992L222.579 46.1978C223.712 48.9156 225.717 50.2745 228.593 50.2745C230.976 50.2745 232.167 49.5877 232.167 48.2142C232.167 47.3083 231.484 46.5777 230.119 46.0225C229.538 45.7887 228.259 45.3942 226.284 44.8389C223.494 44.0206 221.286 42.8809 219.659 41.4197C218.032 39.9293 217.218 37.869 217.218 35.2389C217.218 32.4042 218.221 30.1101 220.226 28.3567C222.26 26.6033 224.787 25.7266 227.809 25.7266C230.366 25.7266 232.632 26.3257 234.608 27.5238C236.583 28.722 238.094 30.4608 239.14 32.7403L232.603 36.5978C231.644 34.3183 230.061 33.1786 227.853 33.1786C226.923 33.1786 226.211 33.3685 225.717 33.7485C225.252 34.1284 225.02 34.6106 225.02 35.1951C225.02 35.8672 225.368 36.437 226.066 36.9046C226.792 37.3723 228.187 37.9129 230.25 38.5266C231.731 38.9649 232.923 39.374 233.823 39.754C234.724 40.1339 235.712 40.6891 236.787 41.4197C237.862 42.1211 238.661 43.0416 239.184 44.1814C239.707 45.2918 239.968 46.6069 239.968 48.1266C239.968 51.1366 238.908 53.4891 236.787 55.1841C234.666 56.8791 231.862 57.7266 228.376 57.7266ZM243.24 26.3841H251.042V57.069H243.24V26.3841ZM274.884 57.069L273.576 52.6416H263.422L262.114 57.069H253.659L263.727 26.3841H273.228L283.295 57.069H274.884ZM265.426 45.8909H271.571L268.477 35.4581L265.426 45.8909ZM296.259 26.3841H304.06V57.069H296.259V26.3841ZM326.116 26.3841H333.874V57.069H327.859L317.094 41.6389V57.069H309.293V26.3841H315.351L326.116 41.8142V26.3841ZM360.058 26.3841V33.9677H352.518V57.069H344.717V33.9677H337.177V26.3841H360.058ZM371.124 49.7046H382.935V57.069H363.323V26.3841H382.717V33.7046H371.124V37.9567H381.628V45.1896H371.124V49.7046ZM402.989 57.069L397.672 47.1622H394.883V57.069H387.082V26.3841H399.285C402.393 26.3841 404.994 27.3923 407.086 29.4088C409.207 31.396 410.268 33.9238 410.268 36.9923C410.268 38.8334 409.802 40.5284 408.873 42.0772C407.943 43.5969 406.68 44.8096 405.081 45.7156L411.357 57.069H402.989ZM394.883 33.617V40.4992H399.198C400.156 40.5284 400.941 40.2216 401.551 39.5786C402.161 38.9357 402.466 38.1028 402.466 37.08C402.466 36.0572 402.161 35.2243 401.551 34.5814C400.941 33.9384 400.156 33.617 399.198 33.617H394.883ZM431.367 26.3841H439.124V57.069H433.11L422.345 41.6389V57.069H414.544V26.3841H420.602L431.367 41.8142V26.3841ZM462.999 57.069L461.691 52.6416H451.536L450.229 57.069H441.774L451.842 26.3841H461.342L471.41 57.069H462.999ZM453.541 45.8909H459.686L456.592 35.4581L453.541 45.8909ZM492.812 26.3841V33.9677H485.272V57.069H477.471V33.9677H469.931V26.3841H492.812ZM496.077 26.3841H503.879V57.069H496.077V26.3841ZM535.261 53.1238C532.181 56.1923 528.404 57.7266 523.93 57.7266C519.455 57.7266 515.663 56.1923 512.555 53.1238C509.475 50.0261 507.935 46.2271 507.935 41.7266C507.935 37.2261 509.475 33.4416 512.555 30.3731C515.663 27.2754 519.455 25.7266 523.93 25.7266C528.404 25.7266 532.181 27.2754 535.261 30.3731C538.369 33.4416 539.924 37.2261 539.924 41.7266C539.924 46.2271 538.369 50.0261 535.261 53.1238ZM518.046 47.732C519.615 49.2809 521.576 50.0553 523.93 50.0553C526.283 50.0553 528.244 49.2809 529.813 47.732C531.382 46.154 532.167 44.1521 532.167 41.7266C532.167 39.301 531.382 37.3137 529.813 35.7649C528.244 34.1868 526.283 33.3978 523.93 33.3978C521.576 33.3978 519.615 34.1868 518.046 35.7649C516.477 37.3137 515.693 39.301 515.693 41.7266C515.693 44.1521 516.477 46.154 518.046 47.732ZM560.801 26.3841H568.559V57.069H562.544L551.78 41.6389V57.069H543.978V26.3841H550.036L560.801 41.8142V26.3841ZM592.434 57.069L591.127 52.6416H580.972L579.665 57.069H571.21L581.277 26.3841H590.778L600.845 57.069H592.434ZM582.977 45.8909H589.122L586.028 35.4581L582.977 45.8909ZM611.301 49.4855H621.804V57.069H603.5V26.3841H611.301V49.4855ZM208.927 100.817C206.69 102.775 203.799 103.754 200.254 103.754C196.71 103.754 193.804 102.775 191.538 100.817C189.301 98.8589 188.182 96.2581 188.182 93.0142V72.4115H195.983V92.269C195.983 94.8408 197.407 96.1266 200.254 96.1266C203.101 96.1266 204.525 94.8408 204.525 92.269V72.4115H212.326V93.0142C212.326 96.2581 211.193 98.8589 208.927 100.817ZM234.091 72.4115H241.848V103.096H235.834L225.069 87.6663V103.096H217.268V72.4115H223.326L234.091 87.8416V72.4115ZM247.113 72.4115H254.915V103.096H247.113V72.4115ZM267.6 103.096L257.75 72.4115H266.292L272.219 93.5403L278.19 72.4115H286.732L276.883 103.096H267.6ZM297.368 95.732H309.179V103.096H289.567V72.4115H308.961V79.732H297.368V83.9841H307.871V91.217H297.368V95.732ZM329.233 103.096L323.916 93.1896H321.127V103.096H313.326V72.4115H325.529C328.637 72.4115 331.238 73.4197 333.33 75.4361C335.451 77.4233 336.511 79.9512 336.511 83.0197C336.511 84.8608 336.046 86.5558 335.117 88.1046C334.187 89.6243 332.923 90.837 331.325 91.743L337.601 103.096H329.233ZM321.127 79.6444V86.5266H325.442C326.4 86.5558 327.185 86.249 327.795 85.606C328.405 84.9631 328.71 84.1302 328.71 83.1074C328.71 82.0846 328.405 81.2517 327.795 80.6088C327.185 79.9658 326.4 79.6444 325.442 79.6444H321.127ZM351.214 103.754C347.989 103.754 345.316 103.067 343.195 101.694C341.074 100.32 339.593 98.4644 338.749 96.1266L345.417 92.2252C346.55 94.943 348.555 96.3019 351.432 96.3019C353.815 96.3019 355.005 95.6151 355.005 94.2416C355.005 93.3357 354.323 92.6051 352.957 92.0498C352.376 91.8161 351.098 91.4216 349.122 90.8663C346.333 90.048 344.125 88.9083 342.497 87.4471C340.871 85.9567 340.057 83.8964 340.057 81.2663C340.057 78.4315 341.059 76.1375 343.064 74.3841C345.098 72.6307 347.626 71.754 350.647 71.754C353.204 71.754 355.471 72.3531 357.446 73.5512C359.422 74.7494 360.933 76.4882 361.979 78.7677L355.441 82.6252C354.482 80.3457 352.899 79.206 350.691 79.206C349.761 79.206 349.05 79.3959 348.555 79.7759C348.091 80.1558 347.858 80.638 347.858 81.2225C347.858 81.8946 348.207 82.4644 348.904 82.932C349.631 83.3997 351.025 83.9403 353.088 84.554C354.57 84.9923 355.762 85.4014 356.662 85.7814C357.563 86.1613 358.551 86.7165 359.625 87.4471C360.701 88.1485 361.499 89.069 362.022 90.2088C362.545 91.3192 362.807 92.6343 362.807 94.154C362.807 97.164 361.746 99.5165 359.625 101.211C357.505 102.907 354.7 103.754 351.214 103.754ZM366.079 72.4115H373.88V103.096H366.079V72.4115ZM400.032 72.4115V79.9951H392.493V103.096H384.691V79.9951H377.152V72.4115H400.032ZM429.273 72.4115L418.987 91.3046V103.096H411.186V91.3923L400.901 72.4115H409.661L415.065 83.7649L420.513 72.4115H429.273Z" fill="#002E9C"/>
<path d="M187.86 127.753H191.619V146.931H187.86V127.753ZM206.453 127.753H210.212V146.931H207.352L199.18 135.205V146.931H195.421V127.753H198.281L206.453 139.451V127.753ZM226.633 127.753V131.369H221.485V146.931H217.726V131.369H212.605V127.753H226.633ZM232.763 143.314H240.798V146.931H229.004V127.753H240.662V131.369H232.763V135.451H239.981V139.013H232.763V143.314ZM254.18 146.931L250.339 140.273H247.479V146.931H243.72V127.753H251.347C253.108 127.753 254.607 128.374 255.841 129.616C257.076 130.858 257.694 132.355 257.694 134.109C257.694 135.296 257.358 136.401 256.686 137.424C256.014 138.429 255.124 139.186 254.016 139.698L258.238 146.931H254.18ZM247.479 131.287V136.958H251.347C252.055 136.958 252.664 136.684 253.172 136.136C253.68 135.57 253.935 134.895 253.935 134.109C253.935 133.323 253.68 132.657 253.172 132.109C252.664 131.561 252.055 131.287 251.347 131.287H247.479ZM271.756 127.753H275.515V146.931H272.655L264.483 135.205V146.931H260.724V127.753H263.584L271.756 139.451V127.753ZM291.582 146.931L290.438 143.479H282.838L281.694 146.931H277.635L284.309 127.753H288.967L295.667 146.931H291.582ZM284.037 139.944H289.266L286.651 132.109L284.037 139.944ZM309.02 127.753V131.369H303.872V146.931H300.113V131.369H294.992V127.753H309.02ZM311.391 127.753H315.149V146.931H311.391V127.753ZM334.995 144.438C333.07 146.355 330.728 147.314 327.967 147.314C325.207 147.314 322.865 146.355 320.939 144.438C319.033 142.501 318.079 140.136 318.079 137.342C318.079 134.547 319.033 132.191 320.939 130.273C322.865 128.337 325.207 127.369 327.967 127.369C330.728 127.369 333.07 128.337 334.995 130.273C336.92 132.191 337.882 134.547 337.882 137.342C337.882 140.136 336.92 142.501 334.995 144.438ZM323.582 141.862C324.763 143.032 326.224 143.616 327.967 143.616C329.71 143.616 331.172 143.032 332.352 141.862C333.533 140.675 334.123 139.169 334.123 137.342C334.123 135.515 333.533 134.008 332.352 132.821C331.172 131.634 329.71 131.04 327.967 131.04C326.224 131.04 324.763 131.634 323.582 132.821C322.402 134.008 321.811 135.515 321.811 137.342C321.811 139.169 322.402 140.675 323.582 141.862ZM351.828 127.753H355.587V146.931H352.727L344.555 135.205V146.931H340.796V127.753H343.657L351.828 139.451V127.753ZM371.655 146.931L370.511 143.479H362.911L361.767 146.931H357.708L364.382 127.753H369.04L375.741 146.931H371.655ZM364.11 139.944H369.339L366.725 132.109L364.11 139.944ZM381.623 143.314H388.896V146.931H377.864V127.753H381.623V143.314ZM402.145 143.314H410.18V146.931H398.386V127.753H410.044V131.369H402.145V135.451H409.363V139.013H402.145V143.314ZM420.675 127.753C423.29 127.753 425.469 128.675 427.212 130.52C428.973 132.364 429.854 134.638 429.854 137.342C429.854 140.045 428.973 142.319 427.212 144.164C425.469 146.008 423.29 146.931 420.675 146.931H413.102V127.753H420.675ZM420.675 143.314C422.327 143.314 423.671 142.766 424.706 141.671C425.741 140.556 426.259 139.114 426.259 137.342C426.259 135.57 425.741 134.136 424.706 133.04C423.671 131.926 422.327 131.369 420.675 131.369H416.861V143.314H420.675ZM439.769 147.314C437.645 147.314 435.901 146.712 434.539 145.506C433.177 144.301 432.496 142.684 432.496 140.657V127.753H436.228V140.355C436.228 141.36 436.509 142.155 437.073 142.739C437.653 143.323 438.552 143.616 439.769 143.616C440.985 143.616 441.875 143.323 442.439 142.739C443.019 142.155 443.31 141.36 443.31 140.355V127.753H447.069V140.657C447.069 142.684 446.388 144.301 445.026 145.506C443.664 146.712 441.911 147.314 439.769 147.314ZM459.771 147.314C456.901 147.314 454.532 146.355 452.662 144.438C450.791 142.52 449.856 140.155 449.856 137.342C449.856 134.511 450.791 132.145 452.662 130.246C454.532 128.328 456.901 127.369 459.771 127.369C461.496 127.369 463.085 127.78 464.538 128.602C466.009 129.406 467.153 130.502 467.97 131.89L464.729 133.78C464.256 132.922 463.585 132.255 462.713 131.78C461.841 131.287 460.861 131.04 459.771 131.04C457.919 131.04 456.421 131.624 455.277 132.794C454.15 133.963 453.588 135.479 453.588 137.342C453.588 139.186 454.15 140.693 455.277 141.862C456.421 143.032 457.919 143.616 459.771 143.616C460.861 143.616 461.841 143.378 462.713 142.903C463.602 142.41 464.274 141.744 464.729 140.903L467.97 142.794C467.153 144.182 466.018 145.287 464.565 146.109C463.112 146.912 461.514 147.314 459.771 147.314ZM482.729 146.931L481.585 143.479H473.985L472.841 146.931H468.783L475.456 127.753H480.114L486.815 146.931H482.729ZM475.184 139.944H480.414L477.799 132.109L475.184 139.944ZM500.166 127.753V131.369H495.019V146.931H491.26V131.369H486.139V127.753H500.166ZM502.537 127.753H506.296V146.931H502.537V127.753ZM526.142 144.438C524.217 146.355 521.875 147.314 519.115 147.314C516.355 147.314 514.012 146.355 512.087 144.438C510.18 142.501 509.227 140.136 509.227 137.342C509.227 134.547 510.18 132.191 512.087 130.273C514.012 128.337 516.355 127.369 519.115 127.369C521.875 127.369 524.217 128.337 526.142 130.273C528.068 132.191 529.03 134.547 529.03 137.342C529.03 140.136 528.068 142.501 526.142 144.438ZM514.729 141.862C515.909 143.032 517.371 143.616 519.115 143.616C520.858 143.616 522.32 143.032 523.5 141.862C524.68 140.675 525.271 139.169 525.271 137.342C525.271 135.515 524.68 134.008 523.5 132.821C522.32 131.634 520.858 131.04 519.115 131.04C517.371 131.04 515.909 131.634 514.729 132.821C513.549 134.008 512.959 135.515 512.959 137.342C512.959 139.169 513.549 140.675 514.729 141.862ZM542.976 127.753H546.735V146.931H543.875L535.703 135.205V146.931H531.944V127.753H534.804L542.976 139.451V127.753ZM562.801 146.931L561.657 143.479H554.058L552.914 146.931H548.855L555.529 127.753H560.187L566.887 146.931H562.801ZM555.256 139.944H560.486L557.871 132.109L555.256 139.944ZM572.77 143.314H580.043V146.931H569.011V127.753H572.77V143.314ZM187.86 156.246H191.619V175.424H187.86V156.246ZM206.453 156.246H210.212V175.424H207.352L199.18 163.698V175.424H195.421V156.246H198.281L206.453 167.944V156.246ZM220.239 175.808C218.35 175.808 216.761 175.388 215.472 174.547C214.183 173.689 213.275 172.529 212.748 171.068L215.962 169.177C216.707 171.131 218.169 172.109 220.348 172.109C221.401 172.109 222.173 171.917 222.663 171.534C223.153 171.15 223.398 170.666 223.398 170.081C223.398 169.405 223.099 168.885 222.5 168.52C221.9 168.136 220.829 167.725 219.285 167.287C218.432 167.032 217.706 166.775 217.106 166.52C216.525 166.264 215.935 165.926 215.336 165.506C214.755 165.068 214.31 164.52 214.001 163.862C213.692 163.205 213.538 162.438 213.538 161.561C213.538 159.826 214.146 158.446 215.363 157.424C216.598 156.383 218.078 155.862 219.803 155.862C221.347 155.862 222.699 156.246 223.862 157.013C225.042 157.761 225.959 158.812 226.613 160.164L223.453 161.999C222.69 160.355 221.474 159.534 219.803 159.534C219.022 159.534 218.405 159.717 217.951 160.081C217.515 160.429 217.297 160.885 217.297 161.451C217.297 162.054 217.542 162.547 218.032 162.931C218.541 163.296 219.503 163.698 220.92 164.136C221.501 164.319 221.937 164.465 222.227 164.575C222.536 164.666 222.944 164.821 223.453 165.04C223.98 165.241 224.379 165.433 224.651 165.616C224.942 165.799 225.269 166.045 225.632 166.355C225.995 166.666 226.268 166.986 226.449 167.314C226.649 167.643 226.812 168.045 226.94 168.52C227.085 168.977 227.157 169.479 227.157 170.027C227.157 171.799 226.513 173.205 225.223 174.246C223.952 175.287 222.291 175.808 220.239 175.808ZM241.801 156.246V159.862H236.653V175.424H232.894V159.862H227.773V156.246H241.801ZM244.172 156.246H247.931V175.424H244.172V156.246ZM264.345 156.246V159.862H259.197V175.424H255.438V159.862H250.317V156.246H264.345ZM273.825 175.808C271.7 175.808 269.957 175.205 268.595 173.999C267.233 172.794 266.552 171.177 266.552 169.15V156.246H270.284V168.849C270.284 169.854 270.565 170.648 271.128 171.232C271.709 171.816 272.608 172.109 273.825 172.109C275.042 172.109 275.931 171.816 276.494 171.232C277.076 170.648 277.366 169.854 277.366 168.849V156.246H281.125V169.15C281.125 171.177 280.444 172.794 279.082 173.999C277.72 175.205 275.968 175.808 273.825 175.808ZM297.395 156.246V159.862H292.247V175.424H288.488V159.862H283.367V156.246H297.395ZM299.766 156.246H303.525V175.424H299.766V156.246ZM323.37 172.931C321.446 174.849 319.103 175.808 316.343 175.808C313.583 175.808 311.24 174.849 309.315 172.931C307.408 170.994 306.455 168.629 306.455 165.835C306.455 163.04 307.408 160.684 309.315 158.766C311.24 156.83 313.583 155.862 316.343 155.862C319.103 155.862 321.446 156.83 323.37 158.766C325.295 160.684 326.257 163.04 326.257 165.835C326.257 168.629 325.295 170.994 323.37 172.931ZM311.957 170.355C313.138 171.525 314.599 172.109 316.343 172.109C318.086 172.109 319.548 171.525 320.728 170.355C321.909 169.169 322.499 167.662 322.499 165.835C322.499 164.008 321.909 162.501 320.728 161.314C319.548 160.127 318.086 159.534 316.343 159.534C314.599 159.534 313.138 160.127 311.957 161.314C310.777 162.501 310.187 164.008 310.187 165.835C310.187 167.662 310.777 169.169 311.957 170.355ZM340.204 156.246H343.963V175.424H341.103L332.931 163.698V175.424H329.172V156.246H332.032L340.204 167.944V156.246Z" fill="#002E9C"/>
</svg>
