<svg width="60" height="60" viewBox="0 0 60 60" fill="none" xmlns="http://www.w3.org/2000/svg">
<rect width="60" height="60" rx="4" fill="#012152"/>
<g clip-path="url(#clip0_1_9345)">
<g clip-path="url(#clip1_1_9345)">
<g clip-path="url(#clip2_1_9345)">
<path fill-rule="evenodd" clip-rule="evenodd" d="M29.3231 41.2543V40.0243C29.37 39.8834 29.3447 39.7281 29.258 39.6089C29.1714 39.4879 29.0323 39.4175 28.8842 39.4175C28.7361 39.4175 28.597 39.4879 28.5085 39.6089C28.4218 39.7281 28.3983 39.8834 28.4453 40.0243V41.4114C28.075 41.5216 27.721 41.6769 27.3905 41.8738V37.6854H30.2857V39.5348H30.2839C30.2388 39.6757 30.2623 39.8292 30.349 39.9502C30.4356 40.0695 30.5765 40.1417 30.7246 40.1417C30.8727 40.1417 31.0118 40.0695 31.0985 39.9502C31.1852 39.8292 31.2104 39.6757 31.1635 39.5348V37.6854H32.2182V41.9027V41.9009C31.4832 41.4584 30.6415 41.2272 29.7854 41.2308C29.6301 41.2308 29.4766 41.2381 29.3231 41.2543ZM42.1264 30.1811V22.7832L31.001 27.0728C30.2207 27.3888 29.3502 27.3888 28.57 27.0728L17.4445 22.7634V30.1612C17.4373 30.732 17.7154 31.2684 18.185 31.5917C20.663 33.3165 24.9365 34.458 29.7858 34.458C34.6351 34.458 38.9083 33.3165 41.3865 31.5917C41.8507 31.272 42.1289 30.7446 42.1271 30.1811H42.1264ZM11.5308 19.5143L13.2917 20.1989V27.0964C12.768 27.2933 12.423 27.7954 12.423 28.3553V32.979C12.4212 33.2047 12.5079 33.4233 12.6668 33.5858C12.8257 33.7484 13.0425 33.8405 13.2701 33.8423H14.1948C14.668 33.8369 15.0473 33.4522 15.0454 32.979V28.3553C15.0454 27.7954 14.6987 27.2933 14.1749 27.0964V20.5364L28.8837 26.242C29.4616 26.4732 30.1082 26.4732 30.6862 26.242L48.0392 19.5141C48.3679 19.3822 48.5847 19.0625 48.5847 18.7068C48.5847 18.351 48.3679 18.0331 48.0392 17.8994L30.7097 11.1734C30.13 10.9422 29.4852 10.9422 28.9072 11.1734L11.5306 17.8994C11.2019 18.0331 10.9852 18.351 10.9852 18.7068C10.9852 19.0625 11.202 19.3825 11.5308 19.5143ZM29.785 50.0397C28.1775 50.0722 26.711 49.1276 26.0734 47.652C25.4359 46.1746 25.7537 44.4606 26.8789 43.3119C28.006 42.1632 29.7145 41.811 31.2028 42.4179C32.6911 43.0265 33.6645 44.4732 33.6645 46.0825C33.6844 48.2462 31.9487 50.0162 29.785 50.0397ZM32.4851 46.0825C32.4887 45.3528 32.2033 44.652 31.694 44.1301C31.1919 43.6153 30.5038 43.3263 29.785 43.3263C29.0661 43.3263 28.378 43.6153 27.8759 44.1301C26.8085 45.2101 26.8085 46.9476 27.8759 48.0277C28.3762 48.546 29.0643 48.8368 29.785 48.8368C30.5056 48.8368 31.1937 48.546 31.694 48.0277C32.2034 47.5075 32.4869 46.8086 32.4851 46.0825ZM29.785 44.233C29.2991 44.2312 28.8331 44.4281 28.4954 44.7785C28.1522 45.1307 27.9626 45.6039 27.9626 46.0952C27.959 46.5864 28.1504 47.0596 28.4954 47.4082C28.8331 47.7568 29.2991 47.9536 29.785 47.9536C30.2708 47.9536 30.7368 47.7568 31.0745 47.4082C31.4195 47.0596 31.611 46.5864 31.6073 46.0952C31.6073 45.6039 31.4177 45.1307 31.0745 44.7785C30.7386 44.4227 30.2726 44.2222 29.785 44.2186V44.233ZM26.0499 49.0823L24.3811 52.0281H24.3793C24.3413 52.0859 24.3413 52.1636 24.3793 52.2214C24.419 52.281 24.4912 52.3081 24.5599 52.2918L25.9939 51.9721C26.0824 51.954 26.1709 52.0064 26.1962 52.0931L26.6586 53.5217C26.6767 53.5886 26.7363 53.6373 26.8067 53.6409C26.8771 53.6518 26.9458 53.6157 26.9783 53.5542L28.555 50.78C27.5562 50.5019 26.6767 49.9059 26.0499 49.0823ZM33.5217 49.0823H33.5199C32.8932 49.9005 32.0137 50.4911 31.0203 50.7656L32.5971 53.5398H32.5953C32.6296 53.6012 32.6982 53.6373 32.7668 53.6265C32.8373 53.6229 32.8969 53.5759 32.9149 53.5073L33.3773 52.0787C33.4044 51.992 33.4929 51.9396 33.5814 51.9577L35.0155 52.2774H35.0137C35.0823 52.2954 35.1564 52.2665 35.1943 52.2087C35.234 52.1491 35.234 52.0733 35.1943 52.0137L33.5217 49.0823ZM46.5836 41.6845H46.5818C46.5583 40.292 46.7805 38.9067 47.2392 37.5918C47.3457 37.3046 47.4758 37.0283 47.6329 36.7646C45.2832 37.0247 42.7309 37.245 40.0131 37.4075C37.7934 37.5412 35.469 37.6297 33.0776 37.6748V42.5819C33.9229 43.4073 34.4376 44.5145 34.5243 45.6939C36.4099 45.7409 38.2395 45.8167 40.0131 45.9251C42.7277 46.0822 45.2831 46.3079 47.6329 46.5825V46.5807C47.4758 46.317 47.3457 46.0407 47.2392 45.7535C46.7804 44.4405 46.5582 43.057 46.5817 41.6663L46.5836 41.6845ZM26.4943 42.6092L26.4925 37.6711C24.1011 37.6242 21.7768 37.5375 19.557 37.4038C16.8424 37.2467 14.2869 37.0246 11.9372 36.7464C12.0943 37.0101 12.2243 37.2865 12.3309 37.5736C12.7897 38.8885 13.0118 40.2738 12.9883 41.6663C13.0118 43.057 12.7897 44.4405 12.3309 45.7535C12.2243 46.0407 12.0943 46.3171 11.9372 46.5807C14.2851 46.308 16.8424 46.0823 19.557 45.9233C21.327 45.8167 23.1638 45.7391 25.0457 45.6921V45.6939C25.1324 44.5145 25.6472 43.4074 26.4924 42.582L26.4943 42.6092ZM11.9894 39.8585H11.1567C11.6011 41.298 11.5667 42.844 11.0592 44.2636C10.9978 44.4117 10.9238 44.5526 10.8425 44.6899H11.7672C12.0128 43.7019 12.132 42.6851 12.123 41.6664C12.1194 41.0613 12.0743 40.4563 11.9894 39.8585ZM9.37595 45.5548C9.68118 46.3044 10.046 46.7993 10.4073 46.7758C10.9708 46.7342 11.2579 46.0641 11.4566 45.5873H9.72813C9.60893 45.5892 9.49154 45.5783 9.37595 45.5548ZM10.2501 43.9167C10.745 42.5043 10.7034 40.9601 10.1345 39.5766C10.0857 39.4393 10.1056 39.2876 10.1851 39.1666C10.2645 39.0474 10.3964 38.9697 10.5409 38.9607H11.8323C11.751 38.5995 11.6462 38.2437 11.5162 37.8969C11.3175 37.384 11.0213 36.5983 10.4073 36.5568C10.0244 36.5297 9.63964 37.0788 9.32542 37.8969C8.91001 39.1088 8.70955 40.3839 8.73303 41.6663C8.7222 42.2876 8.7818 42.9071 8.91364 43.5157C8.97866 43.8029 9.24597 44.6716 9.60178 44.6897C9.87631 44.7077 10.1671 44.1262 10.2501 43.9167ZM50.2447 37.9077C49.9305 37.0896 49.5458 36.5206 49.1629 36.5676C48.5488 36.6092 48.2382 37.3948 48.0539 37.9077V37.9059C47.6367 39.1178 47.4363 40.3948 47.4616 41.6753C47.4363 42.954 47.6368 44.2291 48.0539 45.4392C48.2526 45.9576 48.5488 46.7378 49.1629 46.7848C49.5458 46.7848 49.9305 46.2574 50.2447 45.4392C50.6601 44.2291 50.8606 42.954 50.8371 41.6753C50.8624 40.3911 50.6619 39.1124 50.2447 37.8969V37.9077Z" fill="white"/>
</g>
</g>
</g>
<defs>
<clipPath id="clip0_1_9345">
<rect width="43" height="43" fill="white" transform="translate(8.5 11)"/>
</clipPath>
<clipPath id="clip1_1_9345">
<rect width="43" height="43" fill="white" transform="translate(8.5 11)"/>
</clipPath>
<clipPath id="clip2_1_9345">
<rect width="42.5376" height="43" fill="white" transform="translate(8.73119 11)"/>
</clipPath>
</defs>
</svg>
