<svg width="60" height="60" viewBox="0 0 60 60" fill="none" xmlns="http://www.w3.org/2000/svg">
<rect width="60" height="60" rx="4" fill="#012152"/>
<g clip-path="url(#clip0_1_9329)">
<g clip-path="url(#clip1_1_9329)">
<path d="M33.7572 29.619L34.8967 23.6581H24.6842L25.8237 29.6459C26.319 29.4354 26.8457 29.3083 27.3825 29.2696C27.0364 28.7624 26.8493 28.1636 26.845 27.5496C26.8431 27.0607 26.9559 26.5781 27.1743 26.1406C27.3927 25.7032 27.7105 25.323 28.1024 25.0306C28.4943 24.7382 28.9492 24.5417 29.4308 24.4569C29.9123 24.3721 30.407 24.4014 30.8752 24.5424C31.3434 24.6834 31.772 24.9321 32.1266 25.2687C32.4813 25.6053 32.7521 26.0203 32.9174 26.4805C33.0826 26.9406 33.1377 27.4332 33.0782 27.9185C33.0187 28.4038 32.8462 28.8684 32.5747 29.275C32.9823 29.337 33.3799 29.4527 33.7572 29.619Z" fill="white"/>
<path d="M36.4769 21.1803H23.0985V23.1475H36.4769V21.1803Z" fill="white"/>
<path d="M29.9086 11C30.3137 11 30.7096 11.1201 31.0463 11.3451C31.3831 11.5702 31.6456 11.89 31.8006 12.2642C31.9556 12.6384 31.9961 13.0501 31.9171 13.4474C31.8381 13.8446 31.6431 14.2095 31.3567 14.4959C31.0703 14.7823 30.7054 14.9774 30.3081 15.0564C29.9108 15.1354 29.4991 15.0949 29.1249 14.9399C28.7507 14.7849 28.4309 14.5224 28.2058 14.1856C27.9808 13.8488 27.8607 13.4529 27.8607 13.0479C27.8607 12.5047 28.0765 11.9839 28.4605 11.5998C28.8446 11.2158 29.3654 11 29.9086 11Z" fill="white"/>
<path d="M24.9206 20.8094H26.6513V18.3423H27.1888V20.8094H32.365V18.3154H32.9025V20.804H34.6493V17.9875C34.4612 15.7461 31.8597 15.773 31.8597 15.773H30.4676L29.9301 16.6921L29.3926 15.773H27.7801C24.8185 15.8375 24.9206 17.9875 24.9206 17.9875V20.8094Z" fill="white"/>
<path d="M18.5997 29.9039C19.8821 29.9039 20.9217 28.8643 20.9217 27.5819C20.9217 26.2995 19.8821 25.2599 18.5997 25.2599C17.3173 25.2599 16.2777 26.2995 16.2777 27.5819C16.2777 28.8643 17.3173 29.9039 18.5997 29.9039Z" fill="white"/>
<path d="M29.9516 29.9039C31.2341 29.9039 32.2736 28.8643 32.2736 27.5819C32.2736 26.2995 31.2341 25.2599 29.9516 25.2599C28.6693 25.2599 27.6296 26.2995 27.6296 27.5819C27.6296 28.8643 28.6693 29.9039 29.9516 29.9039Z" fill="white"/>
<path d="M41.3091 29.6136C41.7697 29.6136 42.2198 29.477 42.6027 29.221C42.9855 28.965 43.2838 28.6012 43.4598 28.1756C43.6358 27.7501 43.6816 27.2818 43.5913 26.8302C43.5011 26.3786 43.2789 25.9639 42.9529 25.6386C42.6269 25.3134 42.2116 25.0921 41.7598 25.0029C41.308 24.9137 40.8399 24.9606 40.4147 25.1376C39.9896 25.3145 39.6264 25.6137 39.3713 25.9972C39.1162 26.3806 38.9807 26.8311 38.9817 27.2916C38.9831 27.908 39.2289 28.4985 39.6653 28.9338C40.1016 29.3692 40.6928 29.6136 41.3091 29.6136Z" fill="white"/>
<path d="M26.2483 35.3649H35.3374V33.1719C35.1224 30.6241 32.1662 30.6564 32.1662 30.6564H27.5114C24.1682 30.7209 24.2864 33.1719 24.2864 33.1719V35.3649H26.2483Z" fill="white"/>
<path d="M12.9398 35.3649H23.9908V33.1719C23.7811 30.6241 20.8195 30.6564 20.8195 30.6564H16.1594C12.8215 30.7209 12.9344 33.1719 12.9344 33.1719V35.3649H12.9398Z" fill="white"/>
<path d="M50.3175 40.2239V36.3754H46.684H44.7221H44.0879H38.213H37.5949H35.633H35.332H33.3702H32.7305H26.8557H26.2429H24.2757H23.9854H22.0181H21.3893H15.509H14.8909H12.9344H9.30627V40.2239H13.5471V51.8715H11.8863V54H47.4903V51.8715H46.0713V40.2239H50.3175Z" fill="white"/>
<path d="M35.6438 32.8762V35.3649H46.6948V32.8762C46.4744 30.35 43.5235 30.35 43.5235 30.35H38.8634C35.5202 30.4306 35.6438 32.8762 35.6438 32.8762Z" fill="white"/>
</g>
</g>
<defs>
<clipPath id="clip0_1_9329">
<rect width="43" height="43" fill="white" transform="translate(8.5 11)"/>
</clipPath>
<clipPath id="clip1_1_9329">
<rect width="41.3875" height="43" fill="white" transform="translate(9.30627 11)"/>
</clipPath>
</defs>
</svg>
