<svg width="60" height="60" viewBox="0 0 60 60" fill="none" xmlns="http://www.w3.org/2000/svg">
<rect width="60" height="60" rx="4" fill="#012152"/>
<g clip-path="url(#clip0_1_9351)">
<g clip-path="url(#clip1_1_9351)">
<g clip-path="url(#clip2_1_9351)">
<path fill-rule="evenodd" clip-rule="evenodd" d="M16.1874 50.3508H19.9575L32.7405 53.8563C33.927 54.1744 35.0709 53.962 36.066 53.2421L47.9281 44.6014C49.1886 42.801 47.0069 40.5556 45.1743 41.7633L38.3437 44.8872C38.4811 45.0667 38.5872 45.2788 38.6719 45.4908C38.7991 45.7983 38.8626 46.1366 38.8626 46.4864C38.8626 47.2268 38.5662 47.9052 38.0679 48.4031C37.5808 48.8899 36.9029 49.1969 36.1512 49.1969H27.0112C26.7359 49.1969 26.5134 48.9753 26.5134 48.6888C26.5134 48.4129 26.7359 48.191 27.0112 48.191H36.1512C36.6168 48.191 37.0517 48.0002 37.3588 47.6828C37.6659 47.3754 37.8566 46.9514 37.8566 46.4864C37.8566 46.2636 37.8141 46.0517 37.7397 45.8614C37.6659 45.6599 37.5489 45.4804 37.4012 45.3212C36.9982 44.8873 36.4158 44.6228 35.7912 44.6228H32.4973C31.2053 44.6228 30.1039 44.0505 29.3411 43.0019C28.5468 41.9117 27.4029 41.0961 26.058 40.7254C24.1306 40.1851 22.0541 40.6415 20.5291 41.9436H18.7396L16.1874 50.3508ZM36.5747 11C44.2852 11.5084 50.4494 17.6396 51 25.3271C50.4063 24.2265 49.4219 23.3053 48.0343 22.5636C46.3817 21.6851 44.1581 21.0704 41.3728 20.7104C41.0125 17.9149 40.3981 15.6909 39.5189 14.0493C38.7354 12.5887 37.7613 11.5716 36.5747 11ZM40.2705 20.5833C38.6934 20.3925 37.1044 20.2977 35.5267 20.2977C33.9485 20.2977 32.3703 20.3926 30.7921 20.5833C31.131 18.042 31.6924 16.0293 32.4867 14.5475C33.2809 13.0757 34.287 12.1328 35.5267 11.7299C36.7655 12.1328 37.7821 13.0757 38.5662 14.5475C39.3599 16.0293 39.9219 18.042 40.2705 20.5833ZM29.6908 20.7104C26.9369 21.06 24.7342 21.6639 23.0929 22.5216C21.7053 23.2521 20.7097 24.1632 20.0955 25.2639C20.678 17.6183 26.8104 11.5188 34.4777 11C33.2912 11.5819 32.3171 12.5989 31.544 14.0494C30.665 15.6909 30.0404 17.9149 29.6908 20.7104ZM50.9785 27.8054C50.3325 35.2504 44.4334 41.181 37.0091 41.8794C37.9942 41.2764 38.8308 40.3337 39.519 39.0622C40.3982 37.4108 41.0126 35.1865 41.3728 32.3913C44.1581 32.0415 46.3818 31.417 48.0344 30.5374C49.4004 29.8068 50.3858 28.8964 50.9785 27.8054ZM34.0439 41.8685C26.6615 41.1591 20.7944 35.2714 20.1166 27.8791C20.7308 28.9603 21.7158 29.86 23.093 30.5802C24.7342 31.4381 26.937 32.0415 29.6909 32.3913C30.0405 35.1864 30.665 37.4108 31.544 39.0622C32.2221 40.3336 33.0585 41.2651 34.0439 41.8685ZM30.7922 32.5279C32.3703 32.7086 33.9486 32.8037 35.5268 32.8037C37.1045 32.8037 38.6935 32.7086 40.2706 32.5279C39.922 35.0698 39.36 37.0822 38.5662 38.5541C37.7822 40.0365 36.7657 40.9786 35.5268 41.3812C34.287 40.9785 33.281 40.0365 32.4868 38.5541C31.6924 37.0823 31.131 35.0698 30.7922 32.5279ZM23.5903 23.4748C22.0757 24.2685 21.1117 25.2962 20.6991 26.556C21.1117 27.8054 22.065 28.8334 23.5903 29.6278C25.0629 30.3999 27.0538 30.9511 29.5529 31.2898C29.3729 29.712 29.2776 28.1337 29.2776 26.556C29.2776 24.9785 29.3729 23.3898 29.5529 21.8118C27.0538 22.1509 25.0629 22.7012 23.5903 23.4748ZM30.6547 31.4269C32.2647 31.6282 33.8952 31.7238 35.5268 31.7238C37.168 31.7238 38.7992 31.6282 40.409 31.4269C40.6101 29.8182 40.7054 28.1868 40.7054 26.556C40.7054 24.9144 40.6101 23.2846 40.409 21.6744C38.7991 21.4729 37.168 21.3775 35.5268 21.3775C33.8952 21.3775 32.2647 21.4729 30.6547 21.6744C30.4532 23.2846 30.3471 24.9144 30.3471 26.556C30.3471 28.1867 30.4532 29.8182 30.6547 31.4269ZM41.4996 31.2898C44.0413 30.9511 46.0536 30.379 47.5365 29.5946C49.0086 28.8009 49.9511 27.795 50.3539 26.5559C49.9512 25.3173 49.0086 24.3001 47.5365 23.5166C46.0537 22.7219 44.0413 22.1613 41.4996 21.8117C41.6902 23.3897 41.7853 24.9785 41.7853 26.5559C41.7853 28.1337 41.6902 29.712 41.4996 31.2898ZM18.242 40.1207L14.9163 51.0611C14.6307 51.9708 13.6771 52.4799 12.7665 52.2153L10.8601 51.6323L12.5649 46.0411C12.6392 45.7761 12.4908 45.4905 12.226 45.4158C11.9614 45.3309 11.6856 45.48 11.6015 45.7444L9.90648 51.3353L8 50.7644L11.8239 38.1729L18.242 40.1207Z" fill="white"/>
</g>
</g>
</g>
<defs>
<clipPath id="clip0_1_9351">
<rect width="43" height="43" fill="white" transform="translate(8.5 11)"/>
</clipPath>
<clipPath id="clip1_1_9351">
<rect width="43" height="43" fill="white" transform="translate(8.5 11)"/>
</clipPath>
<clipPath id="clip2_1_9351">
<rect width="42.5376" height="43" fill="white" transform="translate(8.7312 11)"/>
</clipPath>
</defs>
</svg>
