<svg width="464" height="464" viewBox="0 0 464 464" fill="none" xmlns="http://www.w3.org/2000/svg">
<path d="M304 232C304 212.733 301.144 193.904 295.706 176H168.294C162.856 193.904 160 212.733 160 232C160 251.267 162.856 270.096 168.294 288H295.706C301.144 270.096 304 251.267 304 232Z" fill="white"/>
<path d="M164.503 321.99C161.685 316.127 159.164 310.115 156.911 304H134.293L174.852 340.871C171.078 334.754 167.61 328.455 164.503 321.99Z" fill="white"/>
<path d="M116.38 176C113.604 177.621 110.722 179.101 107.741 180.426L90.56 188.062C89.047 188.734 87.509 189.318 85.951 189.819C82.015 203.472 80 217.637 80 232C80 245.646 81.805 259.107 85.357 272.122C86.232 272.041 87.114 272 88 272C95.152 272 102.007 274.65 107.301 279.462L116.693 288H151.736C146.646 269.782 144 250.864 144 232C144 213.135 146.646 194.218 151.736 176H116.38Z" fill="white"/>
<path d="M290.059 160C277.918 129.962 258.169 103.18 232.039 82.276L232 82.245L231.96 82.277C205.83 103.181 186.082 129.963 173.941 160.001H290.059V160Z" fill="white"/>
<path d="M42.758 165.805L59.939 173.441C63.761 175.139 67.818 176 72 176C76.182 176 80.239 175.139 84.062 173.44L101.243 165.804C127.217 154.26 144 128.434 144 100.01V0H0V100.01C0 128.434 16.783 154.26 42.758 165.805ZM111.18 115.759C105.548 132.652 89.803 144 72 144C54.197 144 38.452 132.652 32.821 115.762L32.41 114.528L47.59 109.472L48 110.703C51.449 121.048 61.094 128 72 128C82.906 128 92.551 121.048 96.001 110.701L96.41 109.472L111.59 114.528L111.18 115.759ZM88 40C88 31.163 95.163 24 104 24C112.837 24 120 31.163 120 40V56H88V40ZM64 80H80V112H64V80ZM24 40C24 31.163 31.163 24 40 24C48.837 24 56 31.163 56 40V56H24V40Z" fill="white"/>
<path d="M156.911 160C159.164 153.884 161.685 147.873 164.503 142.009C175.267 119.612 190.198 99.111 208.169 81.887C191.325 84.552 175.017 90.022 160 98.107V100.01C160 122.684 151.258 144.001 136.362 160H156.911Z" fill="white"/>
<path d="M360 80C373.229 80 386.322 83.032 398.189 88.804L459.956 39.39C432.738 13.95 397.44 0 360 0C322.56 0 287.262 13.95 260.044 39.39L321.811 88.804C333.678 83.032 346.771 80 360 80ZM360 24C368.837 24 376 31.163 376 40C376 48.837 368.837 56 360 56C351.163 56 344 48.837 344 40C344 31.163 351.163 24 360 24Z" fill="white"/>
<path d="M299.497 142.009C302.315 147.872 304.836 153.884 307.089 160H309.193L347.193 129.6L323.016 110.259C303.226 95.458 280.131 85.743 255.825 81.883C273.8 99.108 288.732 119.611 299.497 142.009Z" fill="white"/>
<path d="M400 355.314C400 362.308 405.691 368 412.687 368L464 316.686C464 309.692 458.309 304.001 451.314 304.001L400 355.314Z" fill="white"/>
<path d="M373.343 288C380.411 270.201 384 251.39 384 232C384 217.721 382.027 203.658 378.143 190.091C372.218 191.347 366.145 192 360 192C343.212 192 326.946 187.206 312.848 178.147C317.553 195.702 320 213.875 320 232C320 250.864 317.354 269.782 312.264 288H373.343Z" fill="white"/>
<path d="M360 96C351.84 96 343.746 97.42 336.097 100.141C337.72 101.423 339.325 102.732 340.904 104.077L360 119.355L383.982 100.169C376.309 97.429 368.188 96 360 96Z" fill="white"/>
<path d="M360 139.845L325.759 167.238C336.236 172.987 347.955 176 360 176C372.045 176 383.765 172.987 394.241 167.238L360 139.845Z" fill="white"/>
<path d="M160 384H144V432H160V384Z" fill="white"/>
<path d="M64 384H48V432H64V384Z" fill="white"/>
<path d="M32 384H16V432H32V384Z" fill="white"/>
<path d="M191.991 364.729C191.992 364.789 192 364.847 192 364.907C192 369.656 190.246 373.995 187.367 377.339C194.195 379.437 201.152 381.051 208.216 382.158C202.484 376.668 197.067 370.842 191.991 364.729Z" fill="white"/>
<path d="M0 448V464H176C176.007 464 176.01 464 176.01 464L176 448H0Z" fill="white"/>
<path d="M424 379.314C421.4 381.913 418.063 383.499 414.461 383.895C410.299 398.526 398.063 409.767 382.575 412.347L350.267 417.732L355.652 385.423C358.233 369.935 369.474 357.701 384.104 353.538C384.499 349.936 386.086 346.599 388.685 343.999L411.133 321.551L397.662 310.775C392.2 306.406 385.341 304 378.348 304C365.632 304 354.365 311.629 349.642 323.435C344.883 335.331 335.33 344.884 323.435 349.643C311.629 354.365 304 365.633 304 378.349C304 385.342 306.406 392.202 310.775 397.662L343.535 438.613C356.442 454.747 375.695 464 396.356 464C433.655 464 464 433.655 464 396.356C464 381.043 458.66 366.052 449.174 354.14L424 379.314Z" fill="white"/>
<path d="M334.787 317.492C336.802 312.455 339.602 307.918 343.016 304H307.089C304.836 310.115 302.315 316.127 299.497 321.99C288.723 344.406 273.777 364.923 255.785 382.157C266.91 380.413 277.77 377.429 288.278 373.234C290.124 356.076 301.178 341.312 317.494 334.787C325.343 331.646 331.646 325.343 334.787 317.492Z" fill="white"/>
<path d="M173.941 304C186.082 334.038 205.831 360.82 231.961 381.724L232.001 381.756L232.041 381.724C258.171 360.82 277.919 334.038 290.06 304H173.941Z" fill="white"/>
<path d="M96 384H80V432H96V384Z" fill="white"/>
<path d="M371.436 388.055L369.733 398.268L379.946 396.565C388.918 395.07 396.062 388.732 398.794 380.4C394.1 377.79 390.212 373.902 387.601 369.207C379.269 371.939 372.93 379.083 371.436 388.055Z" fill="white"/>
<path d="M3.093 368H18.879L88 305.162L157.121 368H172.907C174.612 368 176 366.612 176 364.907C176 364.038 175.631 363.203 174.987 362.618L96.538 291.302C94.196 289.173 91.164 288 88 288C84.836 288 81.804 289.173 79.461 291.302L1.013 362.619C0.369 363.203 0 364.038 0 364.907C0 366.612 1.388 368 3.093 368Z" fill="white"/>
<path d="M88 326.785L42.666 368H133.334L88 326.785Z" fill="white"/>
<path d="M128 384H112V432H128V384Z" fill="white"/>
</svg>
