<svg width="88" height="94" viewBox="0 0 88 94" fill="none" xmlns="http://www.w3.org/2000/svg">
<path fill-rule="evenodd" clip-rule="evenodd" d="M6.25 9.91045C4.9453 10.3714 3.7422 11.1213 2.7461 12.1213C0.9883 13.8791 0 16.2619 0 18.7502V84.3753C0 86.8636 0.98828 89.2464 2.7461 91.0042C4.5039 92.762 6.8867 93.7503 9.375 93.7503H56.25C58.7383 93.7503 61.1211 92.762 62.8789 91.0042C63.8789 90.0081 64.6289 88.8089 65.0898 87.5003H18.7538C15.4374 87.5003 12.2616 86.1839 9.9179 83.8362C7.5702 81.4924 6.2538 78.3128 6.2538 75.0003V9.91425L6.25 9.91045ZM75 55.4375L67.4922 68.4415C67.1836 68.9766 66.7227 69.4063 66.1719 69.6797L56.0699 74.672C55.1324 75.1368 54.0269 75.1016 53.1246 74.5782C52.2183 74.0548 51.6324 73.1173 51.5699 72.0704L50.8433 60.8284C50.8043 60.2112 50.9449 59.6018 51.2574 59.0667L73.1324 21.1797C73.6402 20.293 74.2769 19.5195 74.9996 18.875V9.375C74.9996 6.8867 74.0113 4.5039 72.2535 2.7461C70.4957 0.9883 68.1129 0 65.6246 0H18.7496C16.2613 0 13.8785 0.98828 12.1207 2.7461C10.3629 4.5039 9.3746 6.8867 9.3746 9.375V75C9.3746 77.4883 10.3629 79.8711 12.1207 81.6289C13.8785 83.3867 16.2613 84.375 18.7496 84.375H65.6246C68.1129 84.375 70.4957 83.3867 72.2535 81.6289C74.0113 79.8711 74.9996 77.4883 74.9996 75L75 55.4375ZM72.6289 28.2964L53.9649 60.6284L54.6915 71.8705L64.7935 66.8783L83.4575 34.5462L72.6335 28.2963L72.6289 28.2964ZM28.1249 68.7455H46.8749C48.6015 68.7455 49.9999 67.3471 49.9999 65.6205C49.9999 63.8939 48.6015 62.4954 46.8749 62.4954H28.1249C26.3983 62.4954 24.9999 63.8939 24.9999 65.6205C24.9999 67.3471 26.3983 68.7455 28.1249 68.7455ZM28.1249 53.1204H49.9999C51.7265 53.1204 53.1249 51.722 53.1249 49.9954C53.1249 48.2688 51.7265 46.8704 49.9999 46.8704H28.1249C26.3983 46.8704 24.9999 48.2688 24.9999 49.9954C24.9999 51.722 26.3983 53.1204 28.1249 53.1204ZM28.1249 37.4954H56.2499C57.9765 37.4954 59.3749 36.097 59.3749 34.3704C59.3749 32.6438 57.9765 31.2455 56.2499 31.2455H28.1249C26.3983 31.2455 24.9999 32.6438 24.9999 34.3704C24.9999 36.097 26.3983 37.4954 28.1249 37.4954ZM74.2729 25.4445L85.0969 31.6945L86.6594 28.9875C88.386 25.9953 87.3586 22.175 84.3703 20.4484C81.3781 18.7218 77.5578 19.7452 75.8312 22.7374L74.2687 25.4445H74.2729ZM28.1249 21.8703H56.2499C57.9765 21.8703 59.3749 20.4719 59.3749 18.7453C59.3749 17.0187 57.9765 15.6203 56.2499 15.6203H28.1249C26.3983 15.6203 24.9999 17.0187 24.9999 18.7453C24.9999 20.4719 26.3983 21.8703 28.1249 21.8703Z" fill="white"/>
</svg>
