<svg width="48" height="48" viewBox="0 0 48 48" fill="none" xmlns="http://www.w3.org/2000/svg">
<g clip-path="url(#clip0_419_149)">
<path d="M44 0H4C1.79086 0 0 1.79086 0 4V44C0 46.2091 1.79086 48 4 48H44C46.2091 48 48 46.2091 48 44V4C48 1.79086 46.2091 0 44 0Z" fill="#F9FAFC"/>
<path d="M44 0.5H4C2.067 0.5 0.5 2.067 0.5 4V44C0.5 45.933 2.067 47.5 4 47.5H44C45.933 47.5 47.5 45.933 47.5 44V4C47.5 2.067 45.933 0.5 44 0.5Z" stroke="#9FABB9" stroke-opacity="0.2"/>
<path d="M35.4914 29.8439C35.4511 29.8745 31.3455 32.9303 27.6288 33.6555H27.6283C27.5875 33.6673 27.5478 33.6811 27.5062 33.691C25.9622 34.0567 24.9563 34.1453 23.8468 34.1453C23.3927 34.1453 22.9216 34.1303 22.3887 34.1137L22.1579 34.1063C21.8811 34.0978 21.6637 33.8665 21.6723 33.5899C21.6806 33.3133 21.9122 33.0899 22.1887 33.1043L22.42 33.1117C24.2313 33.1686 25.2289 33.1998 27.2751 32.7154C27.8476 32.5798 28.1626 32.2188 28.3264 31.94C28.5701 31.5241 28.6416 31.016 28.5178 30.5803C28.3812 30.1008 28.0527 29.474 26.7552 29.5739C24.0274 29.7827 22.1026 29.5379 20.4297 29.2425L20.3876 29.2349C18.512 28.9054 16.5615 28.7364 15.0114 29.7263C14.4357 30.0943 8.28872 33.7802 8.0628 33.9172C8.04253 33.9295 8.02118 33.938 8 33.9471L11.5488 40C11.557 39.9947 11.5638 39.9879 11.5724 39.9829L14.3662 38.3735C15.3626 37.7922 16.5311 37.613 17.6565 37.8696L18.8507 38.1415C22.548 39.0875 24.0729 39.4769 26.4341 38.7424C29.5017 37.7866 34.2589 34.485 38.2712 30.5267C38.4964 30.3045 38.503 29.7296 38.1733 29.3489C37.6691 28.7672 36.6668 28.9522 35.4914 29.8439Z" fill="#001C51"/>
<path d="M28.3678 23.0836C28.3678 22.6747 28.0525 22.3844 27.8644 22.2479C27.589 22.0477 27.2297 21.9119 26.8419 21.8544V24.3944C27.7104 24.2303 28.3678 23.6972 28.3678 23.0836Z" fill="#001C51"/>
<path d="M24.2034 19.4504C24.2034 19.8593 24.5187 20.1496 24.7068 20.2862C24.9822 20.4864 25.3418 20.6223 25.7298 20.6798V18.092C24.861 18.256 24.2034 18.7892 24.2034 19.4026V19.4504Z" fill="#001C51"/>
<path d="M19.1569 21.2438C19.1569 25.1745 22.3547 28.3723 26.2856 28.3723C30.2164 28.3723 33.4143 25.1745 33.4143 21.2438C33.4143 19.9693 33.0765 18.7729 32.4882 17.7366L31.8263 17.4526C30.2278 16.7666 28.5534 16.3888 26.8419 16.321V16.9671C28.3385 17.172 29.4799 18.1848 29.4799 19.4026H28.3678C28.3678 18.7893 27.7104 18.2562 26.8419 18.0921V20.7348C27.4692 20.8002 28.0537 21.0106 28.5182 21.3483C29.1294 21.7922 29.4799 22.4248 29.4799 23.0835C29.4799 24.3014 28.3385 25.3144 26.8419 25.5194V26.5467H25.7298V25.5194C24.2329 25.3146 23.0912 24.3016 23.0912 23.0835H24.2033C24.2033 23.6972 24.861 24.2305 25.7298 24.3945V21.7992C25.1022 21.734 24.5176 21.5235 24.0529 21.1857C23.4417 20.7417 23.0912 20.1091 23.0912 19.4504V19.4026C23.0912 18.1846 24.2329 17.1718 25.7298 16.9671V16.321C24.018 16.3887 22.3433 16.7666 20.7447 17.4526L20.083 17.7365C19.4947 18.7729 19.1569 19.9693 19.1569 21.2438Z" fill="#001C51"/>
<path d="M15.9401 15.7143L15.4596 17.1877C15.3998 17.3712 15.5365 17.5596 15.7295 17.5596H16.632C16.825 17.5596 16.9617 17.3712 16.9019 17.1877L16.4214 15.7142V12.9382L19.3983 14.0718V13.432C19.3983 13.2482 19.503 13.0804 19.6682 12.9995C23.8733 10.9431 28.6973 10.9431 32.9028 12.9995C33.068 13.0804 33.1728 13.2482 33.1728 13.432V14.0712L39.013 11.8472L26.2848 7L13.5566 11.8472L15.9401 12.7549V15.7143Z" fill="#001C51"/>
<path d="M32.2101 14.7536V14.7519V13.7359C28.4279 11.9824 24.1428 11.9824 20.3609 13.7359V16.5583C22.2628 15.742 24.2742 15.3339 26.2855 15.3339C28.2966 15.3339 30.3082 15.742 32.2101 16.5583V14.7536Z" fill="#001C51"/>
</g>
<defs>
<clipPath id="clip0_419_149">
<rect width="48" height="48" fill="white"/>
</clipPath>
</defs>
</svg>
