<svg width="356" height="188" viewBox="0 0 356 188" fill="none" xmlns="http://www.w3.org/2000/svg">
<path d="M10.9092 120C10.0238 120 9.33203 119.585 8.83398 118.755C8.33594 117.869 8.08691 116.873 8.08691 115.767C8.08691 114.494 8.30827 113.691 8.75098 113.359C9.13835 113.027 9.91309 112.806 11.0752 112.695C12.4587 112.529 13.9528 112.419 15.5576 112.363C17.2178 112.308 18.7673 111.893 20.2061 111.118C21.7002 110.288 22.89 108.683 23.7754 106.304L63.6191 0.385742H83.043L122.472 106.304C123.412 108.794 124.658 110.454 126.207 111.284C127.812 112.059 129.472 112.446 131.188 112.446C132.958 112.446 134.508 112.529 135.836 112.695C136.998 112.806 137.773 113.027 138.16 113.359C138.603 113.691 138.824 114.494 138.824 115.767C138.824 116.375 138.575 117.233 138.077 118.34C137.634 119.447 136.943 120 136.002 120H84.3711C83.4303 120 82.7109 119.447 82.2129 118.34C81.7702 117.233 81.5488 116.375 81.5488 115.767C81.5488 113.94 82.4619 112.917 84.2881 112.695C87.5531 112.529 90.1263 112.419 92.0078 112.363C93.8893 112.253 94.8301 111.589 94.8301 110.371C94.8301 109.984 94.7471 109.541 94.5811 109.043L83.126 77.5L87.2764 80.4053L41.6221 80.3223L45.7725 76.6699L34.1514 109.043C33.9854 109.43 33.9023 109.79 33.9023 110.122C33.9023 111.45 35.0921 112.17 37.4717 112.28C39.8512 112.391 42.7288 112.529 46.1045 112.695C47.9307 112.917 48.8438 113.94 48.8438 115.767C48.8438 116.375 48.5947 117.233 48.0967 118.34C47.654 119.447 46.9622 120 46.0215 120H10.9092ZM46.5195 73.9307L45.1084 73.2666H84.5371L81.9639 74.0137L66.1094 21.2207L46.5195 73.9307ZM149.947 120C149.007 120 148.287 119.447 147.789 118.34C147.346 117.233 147.125 116.375 147.125 115.767C147.125 113.94 148.038 112.917 149.864 112.695C152.521 112.474 155.177 112.004 157.833 111.284C160.545 110.509 161.9 109.209 161.9 107.383L161.983 17.5684C161.983 15.1888 161.264 13.4733 159.825 12.4219C158.442 11.3151 156.782 10.5957 154.845 10.2637C152.908 9.8763 151.082 9.62728 149.366 9.5166C148.204 9.40592 147.402 9.18457 146.959 8.85254C146.572 8.46517 146.378 7.66276 146.378 6.44531C146.378 5.83659 146.599 4.97884 147.042 3.87207C147.54 2.7653 148.259 2.21191 149.2 2.21191H201.91C202.851 2.21191 203.543 2.7653 203.985 3.87207C204.483 4.97884 204.732 5.83659 204.732 6.44531C204.732 8.27148 203.819 9.29525 201.993 9.5166C199.171 9.73796 196.459 10.236 193.858 11.0107C191.257 11.7301 189.957 13.0029 189.957 14.8291L189.874 104.644C189.874 107.023 190.566 108.766 191.949 109.873C193.388 110.924 195.076 111.616 197.013 111.948C199.005 112.28 200.831 112.529 202.491 112.695C203.653 112.806 204.428 113.027 204.815 113.359C205.258 113.691 205.479 114.494 205.479 115.767C205.479 116.375 205.23 117.233 204.732 118.34C204.29 119.447 203.598 120 202.657 120H149.947ZM333.81 17.9004L333.644 77.168C333.644 86.2988 331.845 94.2676 328.248 101.074C324.706 107.826 319.588 113.083 312.892 116.846C306.196 120.553 298.116 122.407 288.653 122.407C278.25 122.407 268.897 120.968 260.597 118.091C252.296 115.158 245.766 110.205 241.007 103.232C236.248 96.2598 233.868 86.6862 233.868 74.5117L233.951 17.5684C233.951 15.1888 233.315 13.4733 232.042 12.4219C230.769 11.3151 229.22 10.5957 227.394 10.2637C225.623 9.8763 223.88 9.62728 222.164 9.5166C221.002 9.40592 220.2 9.18457 219.757 8.85254C219.369 8.46517 219.176 7.66276 219.176 6.44531C219.176 5.83659 219.397 4.97884 219.84 3.87207C220.338 2.7653 221.057 2.21191 221.998 2.21191H274.625C275.566 2.21191 276.257 2.7653 276.7 3.87207C277.198 4.97884 277.447 5.83659 277.447 6.44531C277.447 8.32682 276.534 9.35059 274.708 9.5166C272.826 9.62728 270.89 9.8763 268.897 10.2637C266.905 10.651 265.217 11.2044 263.834 11.9238C262.506 12.6432 261.842 13.6117 261.842 14.8291L261.759 76.5039C261.759 90.5046 264 100.355 268.482 106.055C272.965 111.755 279.799 114.604 288.985 114.604C297.175 114.604 303.816 112.806 308.907 109.209C313.998 105.612 317.706 100.991 320.03 95.3467C322.41 89.6468 323.6 83.6426 323.6 77.334V16.7383C323.6 14.8568 322.687 13.4456 320.86 12.5049C319.034 11.5088 316.959 10.8171 314.635 10.4297C312.366 9.98698 310.457 9.68262 308.907 9.5166C307.745 9.40592 306.943 9.18457 306.5 8.85254C306.113 8.46517 305.919 7.66276 305.919 6.44531C305.919 5.83659 306.14 4.97884 306.583 3.87207C307.081 2.7653 307.8 2.21191 308.741 2.21191H347.506C348.447 2.21191 349.138 2.7653 349.581 3.87207C350.079 4.97884 350.328 5.83659 350.328 6.44531C350.328 8.4375 349.415 9.46126 347.589 9.5166C343.328 9.68262 339.952 10.4574 337.462 11.8408C335.027 13.2243 333.81 15.2441 333.81 17.9004Z" fill="white"/>
<g clip-path="url(#clip0_1_9367)">
<path fill-rule="evenodd" clip-rule="evenodd" d="M164.749 -510.791C144.015 -499.61 124.184 -490.282 90.1669 -475.707C33.815 -451.562 -39.7944 -423.393 -93.949 -405.249C-107.948 -400.558 -114.708 -398.416 -129.371 -394.022L-140.718 -390.624L-140.66 -386.111C-140.626 -383.628 -139.498 -294.852 -138.153 -188.831C-136.807 -82.8102 -135.606 6.28754 -135.487 9.16321C-133.723 51.5386 -122.853 88.6856 -102.087 123.303C-88.6179 145.757 -70.4599 167.239 -48.0635 187.213C-34.2038 199.573 -17.1367 212.495 0.533264 224.005C28.6898 242.346 59.7617 258.891 103.29 278.721C122.943 287.674 172.43 309.345 172.911 309.207C173.309 309.094 211.311 292.459 222.481 287.507C268.702 267.021 300.941 250.843 328.353 234.383C390.912 196.816 432.394 155.402 456.614 106.335C471.265 76.6551 479.019 45.8617 480.796 10.2971C480.939 7.45337 485.475 -339.429 485.963 -384.834L486.026 -390.635L474.383 -394.126C460.041 -398.428 456.136 -399.653 444.388 -403.539C390.607 -421.327 312.299 -451.193 255.092 -475.733C220.597 -490.531 201.493 -499.524 180.449 -510.874C177.03 -512.719 173.873 -514.41 173.432 -514.634L172.632 -515.042L164.749 -510.791ZM169.497 -488.694C161.396 -484.401 147.6 -477.677 134.765 -471.765C82.0663 -447.491 -1.89081 -414.168 -70.5645 -390.269C-81.223 -386.56 -102.648 -379.461 -110.427 -377.06C-114.172 -375.905 -117.589 -374.848 -118.022 -374.711L-118.808 -374.463L-118.752 -370.039C-116.578 -195.85 -113.936 5.64404 -113.783 8.96588C-111.868 50.5297 -100.134 87.2354 -78.1438 120.459C-58.028 150.851 -28.9788 178.521 9.55453 203.996C41.274 224.966 77.4551 243.768 134.469 268.91C144.645 273.398 172.565 285.586 172.669 285.586C172.764 285.586 201.698 272.958 210.543 269.056C252.232 250.665 280.431 236.845 305.945 222.299C360.538 191.172 398.87 157.875 423.874 119.857C445.387 87.1479 456.998 50.9695 459.083 10.1497C459.226 7.34723 463.539 -321.015 464.058 -368.656L464.121 -374.459L463.332 -374.71C462.898 -374.848 459.213 -375.997 455.143 -377.263C417.164 -389.074 357.327 -410.856 300.924 -433.4C246.977 -454.963 202.942 -474.422 176.009 -488.601L172.654 -490.367L169.497 -488.694ZM73.4918 -401.336C69.1447 -400.623 64.6855 -398.283 61.9804 -395.294C60.9321 -394.136 59.8189 -392.202 59.5567 -391.084C59.4371 -390.574 59.4641 -390.527 59.7966 -390.665C63.1585 -392.057 66.4143 -392.805 68.6736 -392.705L69.9881 -392.646L68.7307 -391.7C67.6714 -390.903 63.3321 -388.626 60.8672 -387.574L60.1816 -387.281L61.0645 -386.72C62.4207 -385.859 64.7216 -385.035 66.2196 -384.875C68.9261 -384.585 71.2605 -385.132 73.8289 -386.656C75.3692 -387.571 78.6885 -390.8 80.4293 -393.075C81.2269 -394.118 82.5179 -395.799 83.298 -396.81L84.718 -398.648L83.9893 -399.222C81.5102 -401.174 77.4664 -401.988 73.4918 -401.336ZM267.277 -401.497C264.884 -401.147 262.941 -400.412 261.386 -399.264L260.525 -398.631L261.01 -398.104C261.276 -397.815 262.461 -396.291 263.644 -394.718C267.066 -390.166 269.942 -387.38 272.615 -386.032C276.172 -384.235 280.174 -384.41 283.955 -386.524L285.275 -387.262L283.318 -388.093C280.684 -389.212 278.166 -390.57 276.614 -391.707L275.333 -392.646L276.641 -392.705C278.848 -392.803 282.566 -391.953 285.482 -390.682C286.038 -390.44 285.911 -391.141 285.111 -392.741C283.465 -396.03 279.484 -399.068 274.776 -400.625C272.562 -401.357 269.088 -401.762 267.277 -401.497ZM45.2149 -397.264C43.2925 -396.812 40.2977 -394.888 38.5084 -392.955C33.5107 -387.558 30.9956 -379.433 32.8696 -374.739C33.0862 -374.197 33.0892 -374.199 33.9235 -375.663C35.2423 -377.977 36.5357 -379.694 38.2444 -381.4C39.4006 -382.554 39.845 -382.889 39.8968 -382.648C40.0333 -382.012 38.5073 -377.937 37.0596 -375.072L35.5981 -372.18L36.5379 -372.318C40.134 -372.848 43.6598 -375.263 45.4395 -378.417C47.166 -381.475 47.7999 -384.949 47.9739 -392.3L48.0965 -397.479L47.0299 -397.46C46.4432 -397.449 45.6265 -397.36 45.2149 -397.264ZM297.425 -392.597C297.506 -385.305 297.96 -382.461 299.576 -379.131C301.047 -376.101 303.288 -374.105 306.534 -372.934C307.984 -372.411 309.803 -372.07 309.673 -372.347C309.628 -372.442 308.928 -373.853 308.118 -375.48C306.822 -378.082 305.878 -380.511 305.439 -382.372L305.303 -382.949L305.895 -382.527C307.469 -381.406 310.026 -378.217 311.439 -375.61C311.87 -374.812 312.277 -374.246 312.342 -374.351C312.677 -374.895 313.059 -377.026 313.059 -378.361C313.059 -386.002 307.161 -394.918 300.683 -397.072C300.008 -397.297 298.987 -397.479 298.413 -397.479H297.372L297.425 -392.597ZM167.128 -383.946C166.586 -383.906 164.721 -383.777 162.984 -383.659C115.072 -380.398 70.6265 -354.587 43.5634 -314.308C34.3853 -300.648 27.6369 -286.257 23.0739 -270.613C20.0398 -260.212 18.388 -251.208 17.2096 -238.65C16.8094 -234.387 16.875 -217.59 17.3095 -213.001C19.3275 -191.69 24.3035 -174.039 33.4484 -155.754C47.9998 -126.658 70.9742 -103.005 99.9351 -87.3059C132.724 -69.5303 172.09 -64.1671 209.175 -72.4239C258.172 -83.3317 299.418 -117.528 319.459 -163.859C330.289 -188.896 334.383 -216.734 331.298 -244.372C328.294 -271.294 317.941 -297.716 301.79 -319.681C294.229 -329.964 284.463 -340.253 274.48 -348.452C264.831 -356.377 252.691 -364.04 241.676 -369.156C223.734 -377.49 206.876 -381.918 186.369 -383.682C183.98 -383.888 169.125 -384.091 167.128 -383.946ZM168.242 -375.774C141.649 -374.556 116.45 -366.64 94.3493 -352.561C67.5822 -335.51 46.7947 -310.307 35.3035 -280.972C25.4377 -255.786 22.566 -228.26 27.0292 -201.656C31.2431 -176.536 41.6959 -153.108 57.5529 -133.243C65.4862 -123.303 75.092 -114.005 85.2332 -106.447C105.86 -91.0745 129.939 -81.3156 155.296 -78.0528C166.13 -76.6589 178.737 -76.4821 189.625 -77.5715C245.194 -83.1313 293.32 -119.635 313.791 -171.753C323.01 -195.22 326.107 -220.698 322.82 -246.022C318.056 -282.733 299.247 -316.93 270.632 -340.904C246.147 -361.418 216.554 -373.327 184.494 -375.567C180.316 -375.858 172.308 -375.961 168.242 -375.774ZM16.8947 -373.994C13.3119 -372.722 9.86887 -369.272 7.61389 -364.696C6.44801 -362.329 5.75739 -360.34 5.17108 -357.661C4.60684 -355.081 4.55359 -350.063 5.07024 -348.154C5.4339 -346.809 6.5181 -344.405 6.76077 -344.405C6.83853 -344.405 7.19557 -345.315 7.55376 -346.428C8.6288 -349.766 11.0519 -354.408 12.3159 -355.551C12.7039 -355.903 12.712 -355.898 12.712 -355.332C12.712 -353.247 11.847 -348.718 10.7634 -345.128C10.3486 -343.753 10.0422 -342.629 10.0822 -342.629C10.3971 -342.629 12.998 -343.973 14.0972 -344.704C16.9355 -346.59 19.1507 -349.826 20.059 -353.412C20.4414 -354.922 20.5008 -355.666 20.4973 -358.907C20.4929 -362.929 20.4075 -363.641 19.2055 -369.693C18.7816 -371.826 18.4347 -373.757 18.4347 -373.984C18.4347 -374.477 18.2565 -374.478 16.8947 -373.994ZM50.2597 -374.112C47.3795 -373.414 44.4193 -371.032 42.7662 -368.081C41.5563 -365.923 41.5307 -365.821 42.23 -365.975C46.0306 -366.812 47.9242 -367.118 49.9594 -367.225C51.7514 -367.32 52.3767 -367.294 52.3767 -367.121C52.3767 -366.82 49.9274 -365.239 48.3661 -364.532C47.2296 -364.018 44.5574 -363.146 43.2006 -362.848L42.6085 -362.717L43.2992 -362.129C48.4105 -357.772 60.1804 -359.966 65.461 -366.261C66.3551 -367.327 67.6607 -369.705 67.803 -370.527C67.8589 -370.85 67.3215 -371.086 63.8902 -372.246C58.8323 -373.957 56.6951 -374.4 53.6285 -374.379C52.343 -374.369 50.827 -374.249 50.2597 -374.112ZM287.372 -374.007C286.432 -373.808 283.834 -373.039 281.6 -372.298C278.499 -371.268 277.539 -370.872 277.539 -370.624C277.539 -370.445 277.908 -369.555 278.359 -368.647C279.004 -367.35 279.545 -366.632 280.876 -365.301C283.35 -362.829 286.183 -361.31 290.102 -360.358C292.412 -359.798 296.373 -359.754 298.259 -360.267C299.752 -360.674 301.589 -361.604 302.214 -362.269L302.65 -362.734L302.083 -362.857C300.78 -363.137 298.199 -363.982 296.984 -364.527C295.436 -365.221 292.931 -366.806 292.931 -367.091C292.931 -367.624 298.15 -367.142 301.672 -366.285C302.626 -366.053 303.453 -365.909 303.511 -365.966C303.653 -366.108 302.703 -367.949 301.803 -369.276C300.18 -371.67 297.341 -373.642 294.747 -374.179C293.144 -374.511 289.342 -374.422 287.372 -374.007ZM326.873 -373.909C326.873 -373.624 326.515 -371.597 326.077 -369.404C324.717 -362.602 324.426 -358.762 324.99 -355.059C325.817 -349.626 328.613 -345.798 333.499 -343.409C334.375 -342.98 335.136 -342.629 335.19 -342.629C335.244 -342.629 334.903 -343.971 334.433 -345.609C333.283 -349.619 332.247 -355.857 332.732 -355.845C333.08 -355.836 334.868 -353.053 336.027 -350.713C336.7 -349.354 337.511 -347.378 337.827 -346.323C338.145 -345.268 338.461 -344.405 338.531 -344.405C338.781 -344.405 339.871 -346.696 340.22 -347.956C340.78 -349.974 340.732 -355.097 340.129 -357.798C338.718 -364.107 335.405 -369.743 331.545 -372.398C330.457 -373.147 328.453 -374.086 327.514 -374.288C326.919 -374.417 326.873 -374.39 326.873 -373.909ZM189.921 -363.262C189.921 -363.222 191.186 -362.456 192.733 -361.558C203.959 -355.048 215.94 -346.687 225.927 -338.393C231.087 -334.108 235.007 -330.516 240.456 -325.077C247.142 -318.404 251.588 -313.424 256.179 -307.467L257.656 -305.551L258.964 -306.472C264.567 -310.419 275.269 -319.004 275.269 -319.554C275.269 -319.87 271.299 -323.981 268.268 -326.805C250.866 -343.015 230.843 -354.053 208.265 -359.883C204.068 -360.967 197.95 -362.19 193.967 -362.742C192.338 -362.968 190.762 -363.193 190.463 -363.244C190.165 -363.295 189.921 -363.303 189.921 -363.262ZM155.683 -363.012C153.075 -362.671 147.156 -361.615 144.195 -360.964C121.335 -355.933 99.6073 -344.779 82.2738 -329.176C79.1985 -326.408 76.2025 -323.523 74.358 -321.553L73.0056 -320.109L73.4954 -319.717C78.0313 -316.094 90.5688 -307.312 91.206 -307.312C91.3271 -307.312 91.8528 -307.867 92.3732 -308.545C94.1279 -310.83 98.0688 -315.48 100.861 -318.558C104.586 -322.667 112.66 -330.598 116.906 -334.319C127.692 -343.775 140.082 -352.739 152.526 -360.089C154.696 -361.371 156.739 -362.583 157.065 -362.781L157.656 -363.142L156.965 -363.116C156.586 -363.102 156.008 -363.055 155.683 -363.012ZM169.731 -359.525C163.883 -353.283 161.297 -350.335 157.242 -345.293C144.751 -329.756 134.125 -312.037 126.565 -294.135C125.819 -292.367 125.183 -290.783 125.152 -290.613C125.109 -290.381 125.761 -290.064 127.759 -289.338C141.236 -284.452 154.719 -281.531 169.151 -280.371L170.779 -280.24V-320.412C170.779 -342.507 170.757 -360.574 170.73 -360.561C170.703 -360.549 170.253 -360.083 169.731 -359.525ZM177.1 -320.255L177.094 -280.025L182.274 -280.144C195.018 -280.436 206.903 -282.441 218.99 -286.337C223.786 -287.882 223.429 -287.238 221.755 -291.331C216.22 -304.86 209.291 -317.874 200.956 -330.397C194.057 -340.761 186.758 -350.038 178.292 -359.203L177.107 -360.485L177.1 -320.255ZM189.485 -355.947C189.843 -355.513 191.708 -353.204 193.631 -350.817C207.741 -333.298 219.58 -313.24 227.523 -293.402C228.262 -291.557 228.887 -290.018 228.913 -289.982C229.094 -289.733 239.066 -294.435 243.498 -296.859C247.145 -298.853 252.483 -302.059 252.426 -302.22C252.3 -302.576 247.052 -308.993 244.457 -311.966C239.163 -318.029 230.096 -326.856 223.271 -332.593C213.451 -340.849 201.21 -349.527 191.302 -355.255C190.489 -355.726 189.6 -356.252 189.329 -356.423C188.892 -356.7 188.909 -356.646 189.485 -355.947ZM154.583 -354.154C145.266 -348.598 133.845 -340.532 125.687 -333.748C118.675 -327.917 108.537 -318.118 103.44 -312.245C100.389 -308.729 96.7778 -304.28 96.7778 -304.038C96.7778 -303.285 118.798 -292.331 119.279 -292.844C119.362 -292.934 120.142 -294.694 121.011 -296.756C126.279 -309.251 132.732 -321.161 140.681 -333.06C145.684 -340.549 151.743 -348.577 156.804 -354.418C157.767 -355.531 158.524 -356.44 158.485 -356.44C158.448 -356.44 156.691 -355.412 154.583 -354.154ZM-7.91222 -348.696C-12.1883 -346.513 -15.7094 -340.657 -17.0144 -333.556C-17.5042 -330.89 -17.5895 -326.179 -17.1964 -323.491C-16.6156 -319.517 -15.1914 -316.105 -13.3824 -314.354L-12.6067 -313.604L-12.4914 -315.439C-12.2706 -318.964 -11.1872 -323.327 -9.77704 -326.371C-9.15544 -327.712 -9.1434 -327.724 -8.97823 -327.15C-8.4182 -325.204 -8.25182 -319.957 -8.61531 -315.704C-8.73193 -314.338 -8.79451 -313.122 -8.75406 -313.001C-8.71361 -312.88 -7.97794 -313.348 -7.11931 -314.042C-1.4711 -318.603 0.513306 -324.826 -1.11981 -332.851C-1.67203 -335.564 -2.77452 -338.759 -4.67053 -343.144C-5.55719 -345.194 -6.47223 -347.373 -6.70392 -347.985L-7.12503 -349.099L-7.91222 -348.696ZM352.393 -348.803C352.324 -348.609 351.36 -346.319 350.253 -343.714C347.326 -336.831 346.448 -333.945 346.005 -329.74C345.336 -323.401 347.569 -317.954 352.445 -314.032C353.262 -313.374 353.998 -312.836 354.079 -312.836C354.161 -312.836 354.149 -313.48 354.053 -314.267C353.764 -316.647 353.778 -323.977 354.077 -325.908C354.224 -326.857 354.411 -327.634 354.493 -327.634C354.732 -327.634 356.222 -323.731 356.761 -321.697C357.327 -319.555 357.853 -316.463 357.854 -315.27C357.855 -314.349 358.007 -313.823 358.271 -313.823C358.588 -313.823 360.265 -316.255 360.929 -317.676C362.364 -320.749 362.889 -324.069 362.726 -329.015C362.564 -333.941 361.798 -337.255 359.914 -341.181C358.381 -344.378 355.823 -347.298 353.323 -348.704C352.571 -349.127 352.513 -349.133 352.393 -348.803ZM26.8215 -348.805C22.8221 -348.275 19.2688 -345.596 16.9353 -341.352L16.1939 -340.002L16.9688 -340.134C17.3954 -340.205 18.4545 -340.403 19.3228 -340.573C21.3364 -340.967 28.1042 -341.199 28.1042 -340.873C28.1042 -340.585 26.6206 -339.637 24.8482 -338.793C23.317 -338.063 20.1592 -337.046 18.3376 -336.693L17.155 -336.465L18.0179 -335.699C19.0589 -334.776 20.8403 -333.881 22.5788 -333.408C23.585 -333.135 24.5847 -333.064 27.2162 -333.077C30.1692 -333.092 30.7995 -333.155 32.4792 -333.604C38.0216 -335.087 42.5014 -338.323 44.4783 -342.272C44.9153 -343.145 45.2708 -343.959 45.2688 -344.083C45.2645 -344.339 38.1221 -347.14 35.6031 -347.873C32.535 -348.766 29.1979 -349.121 26.8215 -348.805ZM312.961 -348.638C310.409 -348.158 308.662 -347.611 304.423 -345.961C302.222 -345.105 300.335 -344.405 300.229 -344.405C299.934 -344.405 299.991 -344.123 300.528 -342.907C302.49 -338.472 307.532 -334.801 313.553 -333.425C315.526 -332.973 320.859 -332.916 322.532 -333.327C324.124 -333.718 326.677 -334.999 327.437 -335.788L328.099 -336.476L326.944 -336.699C324.978 -337.078 321.915 -338.099 320.28 -338.921C318.3 -339.917 317.18 -340.656 317.317 -340.877C317.376 -340.973 318.64 -341.049 320.126 -341.047C322.669 -341.044 324.736 -340.826 327.619 -340.255C328.301 -340.12 328.91 -340.062 328.972 -340.124C329.034 -340.186 328.654 -340.975 328.127 -341.876C326.285 -345.028 323.288 -347.5 320.164 -348.443C318.62 -348.91 314.935 -349.009 312.961 -348.638ZM9.65321 -321.194C3.9026 -320.545 0.237411 -318.212 -2.11658 -313.703C-3.04997 -311.916 -3.99211 -309.545 -3.8325 -309.384C-3.78395 -309.336 -2.76562 -309.689 -1.56976 -310.169C1.04634 -311.219 3.54242 -311.96 5.77908 -312.351C8.40897 -312.809 8.44453 -312.787 7.12218 -311.541C4.99246 -309.535 1.06151 -307.12 -1.34836 -306.338C-1.75526 -306.206 -2.08842 -306.017 -2.08842 -305.919C-2.08842 -305.576 -0.00509644 -304.556 1.30444 -304.259C8.26688 -302.675 17.9175 -306.822 22.3631 -313.306C23.4539 -314.897 24.7495 -318.055 24.7495 -319.122C24.7495 -319.391 24.0076 -319.577 20.4574 -320.199C14.7685 -321.194 11.9522 -321.454 9.65321 -321.194ZM330.721 -321.106C329.853 -321.017 327.205 -320.607 324.837 -320.195L320.533 -319.446L320.659 -318.756C320.897 -317.448 321.713 -315.376 322.547 -313.96C324.115 -311.299 327.773 -308.061 331.12 -306.374C336.295 -303.763 342.578 -303.202 346.179 -305.026C347.623 -305.758 347.752 -306.018 346.808 -306.301C344.431 -307.013 339.361 -310.19 337.628 -312.053L337.036 -312.689L338.302 -312.552C340.778 -312.283 345.069 -310.994 348.856 -309.38C349.191 -309.237 349.216 -309.282 349.089 -309.796C348.785 -311.013 347.729 -313.389 346.893 -314.734C345.882 -316.36 343.781 -318.425 342.246 -319.302C339.349 -320.956 335.358 -321.582 330.721 -321.106ZM66.9325 -313.083C49.9919 -291.994 39.746 -267.111 37.0969 -240.623C36.8204 -237.858 36.3991 -231.677 36.3944 -230.314L36.3924 -229.772H49.1065H61.8205L61.9234 -230.808C61.9798 -231.377 62.1637 -233.486 62.332 -235.493C64.1548 -257.241 72.2565 -279.487 85.4555 -298.991C86.5817 -300.655 87.4987 -302.076 87.4935 -302.148C87.4883 -302.221 86.0465 -303.213 84.2891 -304.352C80.2924 -306.944 75.6403 -310.242 71.8699 -313.156C70.2725 -314.391 68.927 -315.402 68.8802 -315.402C68.8333 -315.402 67.9569 -314.358 66.9325 -313.083ZM278.804 -314.258C274.575 -310.553 268.048 -305.355 263.77 -302.286C261.463 -300.632 261.36 -300.529 261.622 -300.132C267.52 -291.162 269.599 -287.66 272.698 -281.477C280.225 -266.458 285.116 -249.537 286.416 -234.014C286.535 -232.603 286.678 -231.071 286.734 -230.61L286.838 -229.772H299.159H311.481L311.479 -231.103C311.478 -231.836 311.389 -233.722 311.282 -235.296C309.603 -259.945 302.086 -282.33 288.69 -302.577C285.91 -306.778 280.035 -314.599 279.545 -314.752C279.472 -314.774 279.139 -314.552 278.804 -314.258ZM-34.1121 -311.405C-36.5265 -307.753 -37.3102 -304.792 -37.3099 -299.321C-37.3099 -296.188 -37.235 -295.202 -36.8537 -293.312C-36.1999 -290.072 -35.3852 -287.65 -33.9634 -284.721C-31.769 -280.199 -29.099 -277.114 -26.0404 -275.566C-24.2526 -274.661 -24.126 -274.707 -24.6032 -276.089C-25.0801 -277.47 -25.864 -280.546 -26.1489 -282.156C-26.6849 -285.182 -26.8191 -290.528 -26.352 -290.239C-26.0306 -290.041 -24.2768 -286.84 -23.3428 -284.747C-22.8037 -283.54 -21.8488 -281.014 -21.2208 -279.136L-20.0789 -275.72L-19.3769 -276.974C-18.3766 -278.763 -17.5219 -280.906 -17.0349 -282.847C-16.4494 -285.18 -16.4554 -289.374 -17.0474 -291.562C-17.6457 -293.774 -18.5518 -295.827 -19.8174 -297.839C-22.0171 -301.335 -24.1975 -303.763 -30.2399 -309.442L-33.4283 -312.439L-34.1121 -311.405ZM373.313 -307.169C367.969 -301.901 366.6 -300.315 364.866 -297.373C362.75 -293.782 361.903 -290.785 361.936 -286.99C361.966 -283.434 362.786 -280.513 364.778 -276.855L365.409 -275.697L366.447 -278.828C367.766 -282.808 369.175 -286.087 370.614 -288.524L371.747 -290.442L371.939 -289.653C372.195 -288.603 371.801 -283.573 371.261 -280.972C371.035 -279.886 370.556 -278.089 370.195 -276.976C369.468 -274.734 369.481 -274.707 370.971 -275.346C374.615 -276.908 378.132 -281.356 380.54 -287.453C382.983 -293.634 383.423 -301.675 381.616 -307.102C381.118 -308.596 379.899 -310.931 379.1 -311.924L378.674 -312.452L373.313 -307.169ZM92.1866 -297.89C91.8127 -297.375 90.9759 -296.154 90.3265 -295.178C78.9091 -278.022 71.8632 -259.957 69.1634 -240.919C68.7163 -237.766 68.1637 -232.13 68.1637 -230.721V-229.772H86.9016H105.64L105.738 -230.413C105.792 -230.766 105.889 -232.208 105.954 -233.619C106.651 -248.707 110.487 -267.851 115.985 -283.686C116.579 -285.395 117.007 -286.827 116.936 -286.869C116.865 -286.911 115.253 -287.632 113.354 -288.472C108.879 -290.45 101.4 -294.194 96.7516 -296.781C94.7293 -297.907 93.0278 -298.828 92.9694 -298.828C92.9119 -298.828 92.5588 -298.406 92.1866 -297.89ZM254.056 -295.818C249.16 -292.679 239.499 -287.599 233.927 -285.233C232.57 -284.656 231.386 -284.115 231.293 -284.03C231.202 -283.944 231.706 -282.111 232.414 -279.956C237.361 -264.909 240.452 -249.017 241.455 -233.471L241.694 -229.772H261.096H280.499V-230.369C280.499 -230.697 280.364 -232.274 280.2 -233.871C278.196 -253.355 272.265 -270.922 261.809 -288.347C259.477 -292.233 256.292 -297.06 256.074 -297.036C255.995 -297.028 255.087 -296.479 254.056 -295.818ZM1.66106 -290.034C-4.39665 -289.336 -7.1779 -288.387 -10.1044 -286.018C-12.8849 -283.767 -15.0533 -279.646 -15.7966 -275.2L-15.9369 -274.361L-14.39 -275.28C-11.0597 -277.259 -6.3643 -279.314 -4.09373 -279.788C-3.4684 -279.919 -3.44643 -279.905 -3.65938 -279.507C-4.09608 -278.69 -7.71526 -275.103 -9.28152 -273.933C-10.1551 -273.28 -11.532 -272.382 -12.3412 -271.936L-13.8128 -271.125L-12.8155 -270.673C-7.69258 -268.349 0.930496 -270.969 7.0276 -276.703C10.7331 -280.188 12.9937 -284.401 13.4207 -288.617L13.5558 -289.949H11.7842C10.8098 -289.949 8.28903 -289.987 6.18224 -290.031C4.07545 -290.076 2.04094 -290.077 1.66106 -290.034ZM334.994 -289.999L331.769 -289.939L331.9 -288.711C332.316 -284.821 334.117 -281.126 337.243 -277.751C339.784 -275.006 344.255 -272.112 347.836 -270.894C351.817 -269.54 355.893 -269.485 358.339 -270.752L359.119 -271.157L358.241 -271.602C355.544 -272.969 350.982 -276.781 349.391 -278.998L348.722 -279.93L349.391 -279.791C351.859 -279.28 355.994 -277.492 359.407 -275.461L361.255 -274.361L361.115 -275.29C360.867 -276.944 360.028 -279.552 359.222 -281.169C356.612 -286.409 351.811 -289.266 344.501 -289.929C343.18 -290.049 341.226 -290.127 340.159 -290.103C339.093 -290.078 336.768 -290.031 334.994 -289.999ZM120.989 -279.147C119.019 -273.084 118.231 -270.361 117.009 -265.385C114.363 -254.616 112.635 -243.067 112.054 -232.287L111.919 -229.772H141.349H170.779V-251.853V-273.934L169.25 -274.062C153.761 -275.349 140.055 -278.303 126.107 -283.361C124.494 -283.945 123.068 -284.425 122.939 -284.425C122.806 -284.425 121.958 -282.131 120.989 -279.147ZM224.455 -281.544C223.151 -280.975 216.441 -278.943 212.901 -278.044C202.453 -275.391 192.943 -274.083 182.274 -273.831L177.094 -273.709V-251.74V-229.772H206.298H235.501L235.394 -231.3C234.147 -249.132 231.76 -261.858 226.679 -277.765C225.96 -280.018 225.321 -281.856 225.259 -281.852C225.197 -281.848 224.835 -281.709 224.455 -281.544ZM391.402 -265.546C389.72 -264.548 387.266 -263.092 385.949 -262.31C377.401 -257.242 372.625 -251.575 371.356 -244.996C370.994 -243.121 370.998 -239.095 371.364 -237.186C371.756 -235.133 372.471 -232.534 372.643 -232.534C372.72 -232.534 373.259 -233.395 373.84 -234.448C376.075 -238.492 379.852 -243.719 381.936 -245.655L382.574 -246.246L382.438 -245.161C381.984 -241.529 380.057 -236.158 377.809 -232.256C377.252 -231.289 376.836 -230.459 376.884 -230.41C376.933 -230.361 377.666 -230.461 378.514 -230.632C382.446 -231.424 386.55 -234.579 390.159 -239.585C391.689 -241.706 394.07 -246.386 394.902 -248.91C396.789 -254.627 397.016 -260.317 395.534 -264.757C394.543 -267.726 394.945 -267.649 391.402 -265.546ZM-49.7138 -266.11C-49.9976 -265.479 -50.4254 -264.169 -50.6648 -263.2C-51.2889 -260.674 -51.2917 -256.213 -50.6711 -253.107C-48.8602 -244.044 -42.7551 -234.964 -36.3047 -231.741C-34.8318 -231.005 -31.8151 -230.172 -31.5571 -230.43C-31.4976 -230.489 -31.7746 -231.074 -32.1726 -231.729C-33.3918 -233.735 -34.9597 -237.242 -35.797 -239.834C-36.5723 -242.234 -37.3137 -245.554 -37.1705 -245.984C-37.0668 -246.295 -34.6282 -243.609 -32.8472 -241.221C-31.4781 -239.385 -27.9796 -233.788 -27.6341 -232.879C-27.4015 -232.268 -27.2167 -232.504 -26.7836 -233.965C-25.9798 -236.675 -25.725 -238.45 -25.7282 -241.314C-25.7316 -244.428 -26.1884 -246.682 -27.3243 -249.186C-29.7935 -254.631 -34.3384 -258.77 -43.8253 -264.213C-45.6704 -265.27 -47.5511 -266.389 -48.0049 -266.698C-48.4586 -267.006 -48.9126 -267.259 -49.0141 -267.259C-49.1153 -267.259 -49.4302 -266.742 -49.7138 -266.11ZM5.00842 -253.183C4.95813 -253.136 3.09663 -252.994 0.871658 -252.866C-8.60841 -252.325 -13.2758 -251.137 -17.382 -248.22C-21.3357 -245.412 -24.0007 -240.369 -24.5121 -234.728L-24.6453 -233.259L-23.4803 -234.105C-21.4117 -235.61 -18.5335 -237.437 -16.6251 -238.456C-14.6173 -239.529 -11.5606 -240.729 -11.5606 -240.445C-11.5606 -240.144 -13.7214 -237.235 -15.0525 -235.744C-16.4137 -234.218 -19.2804 -231.724 -20.855 -230.695C-21.3831 -230.35 -21.8166 -230.008 -21.8186 -229.935C-21.8205 -229.863 -21.356 -229.64 -20.7861 -229.442C-19.1133 -228.859 -15.1529 -228.965 -12.863 -229.654C-2.66774 -232.72 5.75459 -242.397 6.0439 -251.376C6.10091 -253.148 6.09995 -253.153 5.60048 -253.21C5.32503 -253.243 5.05855 -253.23 5.00842 -253.183ZM339.305 -251.522C339.305 -246.251 342.629 -239.973 347.758 -235.555C353.3 -230.781 360.185 -228.225 364.968 -229.165C366.222 -229.412 367.136 -229.746 367.121 -229.951C367.117 -230.015 366.482 -230.512 365.713 -231.054C363.629 -232.523 361.276 -234.654 359.805 -236.405C358.409 -238.068 356.869 -240.191 356.869 -240.455C356.869 -240.713 359.573 -239.673 361.621 -238.627C363.42 -237.708 367.25 -235.284 369.054 -233.922L369.892 -233.289V-234.07C369.892 -235.334 369.346 -238.103 368.739 -239.907C366.345 -247.033 360.418 -251.129 350.751 -252.339C349.394 -252.509 346.641 -252.741 344.634 -252.855C342.625 -252.97 340.605 -253.115 340.144 -253.179L339.305 -253.295V-251.522ZM36.4772 -221.041C36.6981 -216.887 36.9866 -213.416 37.3917 -210.041C37.786 -206.757 38.8808 -200.015 39.123 -199.38C39.2402 -199.073 39.5433 -199.149 42.0166 -200.109C45.9714 -201.642 54.608 -204.524 58.9875 -205.772C62.5544 -206.788 62.7344 -206.862 62.6863 -207.306C62.2816 -211.023 62.0129 -214.805 61.9314 -217.934C61.8764 -220.05 61.7854 -222.158 61.7293 -222.619L61.6273 -223.458H48.9881H36.3488L36.4772 -221.041ZM67.9672 -221.337C67.9682 -217.979 68.6152 -208.749 68.868 -208.486C68.9083 -208.444 70.8752 -208.821 73.2393 -209.324C82.9459 -211.39 92.4141 -212.794 101.652 -213.536L105.893 -213.876L105.777 -214.573C105.714 -214.956 105.661 -217.112 105.66 -219.364L105.658 -223.458H86.8118H67.9664L67.9672 -221.337ZM111.776 -221.041C111.777 -219.712 111.834 -217.644 111.902 -216.446L112.028 -214.269L119.943 -214.256C135.983 -214.23 148.851 -212.91 165.789 -209.555C168.274 -209.063 170.413 -208.661 170.543 -208.661C170.722 -208.661 170.779 -210.443 170.779 -216.059V-223.458H141.277H111.775L111.776 -221.041ZM177.094 -215.481V-207.504L176.673 -207.441C176.441 -207.406 178.373 -206.897 180.965 -206.309C183.557 -205.721 192.072 -203.653 199.886 -201.713C216.276 -197.644 222.545 -196.175 228.204 -195.076C233.905 -193.97 233.398 -193.963 233.573 -195.144C234.056 -198.418 234.743 -204.333 235.006 -207.477C235.276 -210.709 235.689 -219.602 235.7 -222.422L235.703 -223.458H206.399H177.094V-215.481ZM241.759 -218.082C241.579 -210.369 240.903 -202.267 239.879 -195.569C239.634 -193.961 239.588 -193.209 239.735 -193.16C240.491 -192.906 247.032 -192.435 251.095 -192.343C257.876 -192.187 262.426 -192.564 268.547 -193.786C271.875 -194.451 278.526 -196.404 278.526 -196.718C278.526 -196.754 278.698 -197.796 278.91 -199.033C279.376 -201.759 280.009 -206.723 280.302 -209.942C280.564 -212.832 280.872 -221.697 280.745 -222.718L280.653 -223.458H261.268H241.883L241.759 -218.082ZM287.009 -220.449C287.006 -215.306 286.435 -207.595 285.651 -202.1C285.461 -200.769 285.398 -199.781 285.504 -199.781C286.044 -199.781 291.538 -203.027 295.102 -205.452C300.97 -209.445 309.507 -216.845 314.022 -221.854L315.47 -223.458H301.24H287.011L287.009 -220.449ZM-55.9578 -222.58C-56.7019 -220.623 -56.8412 -219.566 -56.8428 -215.862C-56.8442 -212.434 -56.7986 -211.931 -56.3096 -209.998C-53.965 -200.727 -47.4154 -192.016 -40.0285 -188.345C-39.1862 -187.927 -38.0115 -187.442 -37.4181 -187.268C-36.21 -186.915 -33.0704 -186.617 -33.0704 -186.855C-33.0704 -186.94 -33.6347 -187.775 -34.3248 -188.71C-37.1644 -192.558 -39.3625 -196.95 -40.5325 -201.116C-40.9722 -202.682 -40.9676 -202.683 -39.5852 -201.576C-36.9035 -199.427 -33.7263 -195.952 -30.6733 -191.827L-28.9482 -189.497L-28.7497 -190.25C-28.2991 -191.958 -28.0903 -194.652 -28.1943 -197.414C-28.3261 -200.912 -28.8641 -203.07 -30.3025 -205.868C-33.4145 -211.923 -38.8312 -215.902 -50.6125 -220.79C-52.6089 -221.618 -54.5861 -222.471 -55.006 -222.685L-55.7698 -223.074L-55.9578 -222.58ZM400.085 -222.576C399.597 -222.325 397.555 -221.442 395.546 -220.61C386.346 -216.803 381.203 -213.54 377.971 -209.457C374.832 -205.49 373.445 -201.426 373.445 -196.192C373.445 -194.293 373.917 -190.292 374.201 -189.784C374.286 -189.633 374.975 -190.408 376.04 -191.85C379.274 -196.233 382.803 -200.029 385.457 -201.979C386.299 -202.599 386.317 -202.602 386.175 -202.135C384.41 -196.34 382.321 -192.113 379.24 -188.106C378.765 -187.491 378.378 -186.922 378.378 -186.843C378.378 -186.535 381.758 -186.955 383.244 -187.449C386.224 -188.437 389.801 -190.863 392.59 -193.786C399.215 -200.732 403.004 -210.177 402.257 -217.886C402.073 -219.803 401.45 -222.573 401.138 -222.872C401.047 -222.959 400.573 -222.826 400.085 -222.576ZM2.44879 -221.279C2.28676 -221.176 0.156357 -220.435 -2.28569 -219.634C-7.47452 -217.932 -9.76796 -217.049 -12.3582 -215.755C-17.6605 -213.106 -21.1182 -209.83 -23.1936 -205.489C-24.3733 -203.022 -24.7994 -201.151 -24.9249 -197.889C-25.0319 -195.109 -24.869 -192.086 -24.6123 -192.086C-24.5375 -192.086 -23.5017 -193.209 -22.3105 -194.581C-19.6794 -197.612 -17.4245 -199.759 -14.852 -201.685C-13.1038 -202.993 -12.5473 -203.321 -12.5473 -203.042C-12.5473 -202.991 -12.8135 -202.278 -13.1389 -201.459C-14.7308 -197.453 -17.0144 -193.73 -19.8716 -190.481C-21.182 -188.991 -21.1524 -188.935 -19.0594 -188.936C-15.3133 -188.938 -10.4656 -191.337 -6.41283 -195.193C0.97879 -202.226 4.75485 -211.669 3.34315 -219.589C3.03998 -221.289 2.89397 -221.565 2.44879 -221.279ZM342.374 -221.304C342.319 -221.215 342.128 -220.309 341.951 -219.291C341.378 -216.016 341.835 -211.755 343.158 -208.068C343.935 -205.899 345.839 -202.319 347.353 -200.176C349.154 -197.629 352.94 -193.864 355.239 -192.334C358.534 -190.14 361.781 -188.931 364.367 -188.934C366.498 -188.936 366.498 -188.937 364.77 -190.992C362.139 -194.121 359.979 -197.657 358.677 -200.965C357.657 -203.558 357.643 -203.492 359.03 -202.55C361.898 -200.603 365.56 -197.14 368.634 -193.468C369.362 -192.599 369.983 -191.915 370.016 -191.946C370.048 -191.98 370.158 -193.045 370.259 -194.316C371.156 -205.539 366.019 -212.68 353.513 -217.592C352.265 -218.082 349.667 -218.984 347.739 -219.597C345.811 -220.21 343.839 -220.882 343.354 -221.089C342.87 -221.296 342.429 -221.393 342.374 -221.304ZM316.71 -207.43C309.01 -198.813 295.937 -189.665 282.571 -183.542C267.324 -176.557 251.048 -172.293 237.72 -171.792C227.634 -171.412 220.548 -172.233 201.366 -176C181.217 -179.958 169.993 -181.389 154.104 -182.021C142.268 -182.492 133.357 -182.108 123.912 -180.717C98.5447 -176.985 74.5236 -165.525 56.2713 -148.449L53.9497 -146.277L55.4688 -144.075C63.0034 -133.152 72.8645 -122.368 82.5536 -114.458C83.7565 -113.476 84.0189 -113.336 84.1662 -113.599C84.501 -114.197 87.5728 -118.207 89.0486 -119.972C91.1737 -122.514 98.0418 -129.317 100.823 -131.635C109.036 -138.481 116.749 -143.456 126.674 -148.308C139.469 -154.565 150.894 -158.018 164.145 -159.634C171.258 -160.502 172.723 -160.551 196.334 -160.719C208.925 -160.809 219.758 -160.932 220.409 -160.994C221.06 -161.055 223.103 -161.201 224.948 -161.318C240.58 -162.307 256.025 -165.254 269.283 -169.775C286.611 -175.684 303.261 -185.262 314.763 -195.937L316.761 -197.793L317.17 -200.02C317.395 -201.246 317.762 -203.535 317.986 -205.109C318.541 -209.009 318.598 -209.452 318.538 -209.433C318.51 -209.425 317.687 -208.523 316.71 -207.43ZM3.2247 -188.809C2.9617 -188.524 1.14798 -186.984 -0.805725 -185.386C-8.43318 -179.146 -11.7052 -175.557 -14.0346 -170.876C-15.6344 -167.662 -16.1526 -165.483 -16.1694 -161.899C-16.187 -158.124 -15.5898 -155.488 -13.8785 -151.785L-13.0793 -150.055L-11.7617 -153.363C-11.0368 -155.182 -9.88914 -157.78 -9.21109 -159.137C-8.02884 -161.502 -5.67796 -165.282 -5.20889 -165.572C-4.82013 -165.813 -5.1777 -160.716 -5.7417 -157.981C-6.27097 -155.412 -7.34328 -151.872 -8.1348 -150.08C-8.39371 -149.493 -8.56067 -148.969 -8.50562 -148.914C-8.33215 -148.741 -6.77475 -149.285 -5.44312 -149.984C-2.02898 -151.777 1.11285 -155.481 3.74448 -160.814C7.70865 -168.848 8.64911 -177.931 6.22581 -184.778C5.69914 -186.267 4.08827 -189.325 3.83095 -189.325C3.7607 -189.325 3.48795 -189.092 3.2247 -188.809ZM340.761 -188.216C336.529 -181.613 336.855 -170.585 341.57 -160.808C342.148 -159.611 343.176 -157.791 343.857 -156.763C345.386 -154.453 348.568 -151.242 350.356 -150.204C351.62 -149.471 353.616 -148.716 353.801 -148.902C353.853 -148.953 353.532 -149.924 353.085 -151.058C351.552 -154.96 350.356 -160.813 350.356 -164.415V-165.924L351.21 -164.75C353.35 -161.807 355.159 -158.302 357.164 -153.218C357.785 -151.645 358.326 -150.321 358.368 -150.277C358.529 -150.106 360.225 -153.998 360.69 -155.608C362.583 -162.157 361.504 -168.296 357.427 -174.168C354.973 -177.704 351.962 -180.689 346.015 -185.486C344.441 -186.756 342.783 -188.151 342.33 -188.585L341.505 -189.378L340.761 -188.216ZM-52.8041 -167.578C-52.8041 -166.359 -52.3981 -163.587 -52.0014 -162.097C-51.4117 -159.881 -49.4818 -156.105 -47.8002 -153.874C-46.2501 -151.819 -43.4454 -148.991 -41.4201 -147.44C-35.2645 -142.728 -27.7963 -140.373 -22.5128 -141.478C-21.1281 -141.768 -19.6429 -142.323 -19.6611 -142.544C-19.6664 -142.609 -20.4293 -143.142 -21.3564 -143.729C-23.6917 -145.206 -25.7375 -146.905 -27.9395 -149.196C-30.3241 -151.677 -32.5046 -154.527 -31.8619 -154.321C-31.7125 -154.274 -30.9688 -154.038 -30.209 -153.797C-27.0238 -152.786 -22.9428 -150.683 -18.6979 -147.864C-17.5766 -147.119 -16.6371 -146.509 -16.6103 -146.509C-16.4978 -146.509 -16.9359 -149.292 -17.2782 -150.751C-19.5713 -160.529 -25.9672 -165.821 -37.3131 -167.33C-38.6574 -167.508 -42.4354 -167.721 -46.0512 -167.823C-49.5547 -167.92 -52.5076 -168.053 -52.6127 -168.118C-52.7218 -168.186 -52.8041 -167.953 -52.8041 -167.578ZM390.12 -167.803C387.297 -167.724 383.968 -167.517 382.719 -167.345C372.203 -165.896 366.051 -161.386 363.263 -153.084C362.717 -151.456 361.999 -148.059 361.999 -147.101V-146.522L364.602 -148.226C368.605 -150.845 373.237 -153.148 376.375 -154.079L377.431 -154.392L377.091 -153.854C374.854 -150.316 370.57 -146.163 366.346 -143.438L364.87 -142.486L365.716 -142.118C369.672 -140.393 375.255 -141.091 381.239 -144.059C384.474 -145.663 386.953 -147.424 389.691 -150.059C394.897 -155.069 397.576 -160.297 398.042 -166.35L398.17 -168.016L396.711 -167.983C395.907 -167.964 392.942 -167.884 390.12 -167.803ZM303.686 -164.234C291.305 -155.721 275.136 -149.007 257.706 -145.142C246.823 -142.728 237.657 -141.406 215.87 -139.11C192.765 -136.676 184.612 -135.427 173.302 -132.589C149.681 -126.661 132.559 -116.593 120.415 -101.489C118.843 -99.534 115.327 -94.4844 115.327 -94.1816C115.327 -93.8299 122.645 -90.8295 127.903 -89.0253C136.918 -85.9313 148.07 -83.3833 157.227 -82.3254L159.559 -82.0559L160.455 -83.8383C167.957 -98.7745 186.936 -112.249 213.01 -121.15C219.718 -123.44 225.828 -125.116 234.223 -126.971C242.197 -128.733 247.989 -130.338 256.424 -133.127C269.033 -137.296 283.777 -143.435 295.76 -149.511C298.292 -150.794 298.537 -150.968 299.137 -151.908C301.339 -155.356 306.858 -166.096 306.389 -166.02C306.313 -166.008 305.097 -165.204 303.686 -164.234ZM15.1184 -156.992C15.0097 -156.68 13.9016 -154.616 12.6558 -152.405C6.19618 -140.938 4.43416 -135.751 4.66707 -128.888C4.78345 -125.458 5.23734 -123.541 6.59761 -120.734C7.74614 -118.363 9.32545 -116.219 11.5133 -114.057L13.1066 -112.484V-115.262C13.1066 -120.267 13.6175 -124.933 14.6127 -129.016C14.96 -130.442 15.1913 -131.066 15.3063 -130.891C15.58 -130.472 16.6206 -127.021 16.9628 -125.398C17.5546 -122.59 17.835 -119.765 17.8387 -116.569C17.8415 -114.364 17.9108 -113.363 18.0604 -113.363C18.1801 -113.363 18.8764 -113.962 19.6073 -114.694C23.2393 -118.333 25.4105 -124.705 25.6792 -132.512C26.0466 -143.19 22.6423 -152.309 16.5941 -156.844C16.0704 -157.237 15.5684 -157.559 15.4788 -157.559C15.3892 -157.559 15.227 -157.303 15.1184 -156.992ZM328.121 -156.325C321.203 -150.734 317.983 -138.101 320.388 -125.99C321.388 -120.95 323.766 -116.184 326.326 -114.087C326.812 -113.689 327.267 -113.363 327.338 -113.363C327.407 -113.363 327.466 -114.672 327.466 -116.273C327.467 -120.902 328.084 -125.009 329.386 -129.048L330.086 -131.219L330.343 -130.482C331.3 -127.735 332.004 -122.518 332.169 -116.937L332.3 -112.52L333.903 -114.113C339.081 -119.257 341.256 -124.989 340.66 -131.919C340.194 -137.341 338.068 -142.918 333.18 -151.541C332.073 -153.494 330.892 -155.647 330.556 -156.325C330.22 -157.003 329.878 -157.559 329.797 -157.559C329.714 -157.559 328.96 -157.003 328.121 -156.325ZM36.1 -121.205C36.0544 -121.07 35.9148 -120.559 35.7897 -120.071C35.6645 -119.582 34.9016 -117.096 34.094 -114.546C31.5622 -106.549 30.6572 -102.551 30.2637 -97.6239C29.621 -89.5774 31.8876 -82.8626 36.8538 -78.1C38.5712 -76.4524 40.3236 -75.1346 42.1646 -74.1039C43.4874 -73.3636 43.4571 -73.2884 42.9091 -75.9519C41.8486 -81.1048 41.215 -87.6612 41.4338 -91.2154C41.509 -92.436 41.6264 -93.4344 41.6949 -93.4344C41.8784 -93.4335 43.5575 -90.4358 44.4787 -88.4653C44.9193 -87.5229 45.6721 -85.569 46.1511 -84.1244C46.8976 -81.8748 47.2474 -80.4713 48.2068 -75.8749L48.3511 -75.1845L49.2794 -76.4402C51.827 -79.8868 52.9696 -84.2863 52.9677 -90.6432C52.9642 -104.223 46.7657 -116.685 37.9376 -120.86C36.5631 -121.511 36.2238 -121.574 36.1 -121.205ZM307.591 -120.962C304.56 -119.585 301.169 -116.565 298.888 -113.215C297.496 -111.17 295.41 -106.962 294.619 -104.604C293.161 -100.257 292.531 -96.615 292.396 -91.7579C292.243 -86.22 292.941 -82.1618 294.631 -78.7773C295.318 -77.4026 296.837 -75.1767 296.986 -75.3254C297.027 -75.3657 297.286 -76.5574 297.562 -77.974C298.63 -83.4533 300.695 -88.9168 303.106 -92.6451L303.68 -93.5333L303.812 -92.4483C304.247 -88.8564 303.746 -82.7725 302.476 -76.1986C302.207 -74.803 302.025 -73.6218 302.074 -73.5728C302.202 -73.445 304.722 -74.985 306.21 -76.0989C308.064 -77.4867 310.717 -80.3645 311.869 -82.2344C314.475 -86.4685 315.577 -91.8279 315.067 -97.7823C314.654 -102.609 313.573 -107.302 311.093 -115.04C310.328 -117.427 309.594 -119.846 309.462 -120.416C309.184 -121.609 309.081 -121.639 307.591 -120.962ZM-19.0594 -119.957C-20.199 -119.807 -23.7067 -119.187 -26.8542 -118.578C-30.0018 -117.969 -32.7769 -117.432 -33.021 -117.386C-33.5832 -117.278 -33.5894 -116.863 -33.0578 -114.937C-30.7347 -106.522 -22.2262 -98.9425 -11.7058 -95.9168C-6.22675 -94.3409 -0.192764 -94.3313 3.64903 -95.8914C5.07303 -96.4698 7.09081 -97.7604 6.86678 -97.9494C6.77124 -98.0299 5.89389 -98.3913 4.91707 -98.7518C2.3618 -99.695 -0.725983 -101.286 -3.092 -102.878C-5.2075 -104.301 -8.60052 -107.119 -8.60052 -107.453C-8.60052 -107.698 -8.31892 -107.687 -5.81097 -107.354C-1.64439 -106.799 2.93205 -105.455 9.02193 -102.999C9.33034 -102.875 9.35954 -102.931 9.24353 -103.423C8.98602 -104.516 7.36093 -108.302 6.55261 -109.691C3.01138 -115.778 -1.91844 -119.088 -8.89001 -120.057C-10.9471 -120.343 -16.5248 -120.288 -19.0594 -119.957ZM354.083 -120.057C346.78 -118.984 341.514 -115.147 338.126 -108.43C337.205 -106.603 335.863 -103.124 336.02 -102.967C336.063 -102.925 336.797 -103.168 337.652 -103.509C343.584 -105.873 348.422 -107.157 352.823 -107.539L354.205 -107.659L352.922 -106.437C349.543 -103.216 343.897 -99.814 339.7 -98.4691C339.103 -98.2784 338.547 -98.0605 338.465 -97.9861C338.087 -97.6449 341.441 -95.8275 343.37 -95.3288C349.303 -93.7949 357.263 -95.1223 364.17 -98.7973C367.307 -100.467 369.446 -102.051 371.976 -104.575C375.694 -108.286 377.76 -111.841 378.659 -116.071L378.921 -117.3L378.205 -117.419C377.812 -117.485 375.048 -118.017 372.063 -118.6C369.078 -119.185 365.529 -119.798 364.176 -119.965C361.567 -120.286 355.988 -120.337 354.083 -120.057ZM65.5071 -85.5209C65.3304 -75.5197 65.5835 -71.5052 66.7119 -66.4196C68.8251 -56.8962 73.91 -50.7307 81.9879 -47.8962C83.5909 -47.3337 87.3052 -46.4268 87.3052 -46.5976C87.3052 -46.6418 86.5111 -48.264 85.5409 -50.2025C83.4706 -54.338 82.2773 -57.0764 81.3115 -59.912C80.4764 -62.3631 79.562 -65.913 79.6483 -66.3628C79.7477 -66.8755 84.2159 -62.2973 86.1554 -59.6958C88.0452 -57.1615 90.3569 -53.3876 91.1877 -51.481C91.4884 -50.7903 91.7979 -50.2253 91.8737 -50.2253C92.0637 -50.2253 92.7837 -52.1878 93.1742 -53.7668C93.624 -55.584 93.6197 -60.9437 93.1673 -63.3459C91.8301 -70.4438 88.6912 -77.2714 84.141 -82.9773C79.3624 -88.971 72.8675 -92.9689 67.2512 -93.374L65.6481 -93.4895L65.5071 -85.5209ZM276.157 -93.1281C268.009 -91.3808 259.919 -83.6668 255.246 -73.1843C252.055 -66.0259 250.998 -58.966 252.288 -53.4302C252.497 -52.5345 252.856 -51.4322 253.086 -50.9807L253.505 -50.1599L254.822 -52.7083C256.454 -55.8667 257.84 -58.0335 259.861 -60.5837C261.375 -62.4948 264.807 -66.0329 265.513 -66.41C265.84 -66.5851 265.843 -66.5264 265.577 -65.3653C264.403 -60.2682 262.206 -54.6147 259.177 -48.8948C258.531 -47.6747 258.003 -46.6402 258.003 -46.596C258.003 -46.449 261.431 -47.2552 263.035 -47.7791C270.501 -50.2187 275.786 -56.0163 278.12 -64.3261C279.577 -69.5137 279.969 -74.1748 279.877 -85.1963L279.808 -93.4335L278.624 -93.4178C277.973 -93.4099 276.862 -93.2795 276.157 -93.1281ZM17.9414 -80.7994C12.7615 -80.3654 8.83087 -79.1614 -0.707047 -75.0891C-3.69171 -73.8152 -6.47026 -72.6637 -6.88152 -72.5298C-7.78947 -72.2358 -7.79085 -72.2428 -6.30154 -69.364C-4.4045 -65.6969 -1.58284 -62.6482 2.28221 -60.0906C13.8587 -52.4302 31.5529 -52.2293 38.8447 -59.6751C39.9153 -60.7686 39.9137 -60.7717 38.1685 -60.973C34.508 -61.3951 29.2814 -62.9632 25.6588 -64.7257C23.5246 -65.7643 20.8803 -67.3375 21.0261 -67.4819C21.2764 -67.7304 24.7827 -67.9929 27.8082 -67.9903C31.4428 -67.9868 34.6868 -67.691 38.8338 -66.9832C40.1225 -66.7635 41.2084 -66.6157 41.2471 -66.6542C41.3698 -66.7767 39.6289 -69.7018 38.4329 -71.3827C36.9609 -73.4511 34.3059 -76.0998 32.4833 -77.3186C30.5834 -78.5891 28.1603 -79.7004 26.2104 -80.1965C24.8754 -80.536 20.5924 -81.0654 19.9147 -80.9744C19.8062 -80.9604 18.9182 -80.8817 17.9414 -80.7994ZM323.519 -80.8755C315.566 -80.3085 309.626 -76.3334 305.057 -68.5214C304.476 -67.5274 304.029 -66.6848 304.066 -66.6489C304.102 -66.613 305.185 -66.7635 306.474 -66.9832C310.621 -67.691 313.865 -67.9868 317.5 -67.9903C320.522 -67.9929 324.031 -67.7304 324.281 -67.4828C324.43 -67.3349 321.758 -65.7354 319.635 -64.7029C316.078 -62.9716 310.795 -61.3948 307.14 -60.973C305.404 -60.7729 305.399 -60.764 306.365 -59.7722C310.399 -55.6306 318.123 -53.5425 326.31 -54.3805C332.787 -55.0438 338.403 -56.9987 343.372 -60.3199C347.135 -62.8358 350.526 -66.6603 352.107 -70.1751C353.085 -72.3486 353.113 -72.206 351.595 -72.7713C350.859 -73.0452 348.2 -74.1617 345.685 -75.2528C338.376 -78.4211 334.048 -79.8509 329.833 -80.4888C327.783 -80.7994 324.913 -80.9744 323.519 -80.8755ZM106.882 -72.5744C106.382 -72.5132 106.255 -72.4178 106.332 -72.1623C106.582 -71.3389 106.897 -69.6151 107.738 -64.4964C109.206 -55.5502 110.254 -51.295 112.1 -46.7724C114.148 -41.7572 116.966 -37.8524 120.444 -35.2101C122.268 -33.8249 125.336 -32.3622 127.648 -31.7757C129.724 -31.249 134.812 -30.7346 135.712 -30.9605L136.243 -31.0936L134.713 -33.0138C131.201 -37.4242 128.458 -41.544 126.685 -45.0752C125.707 -47.0196 124.939 -48.8518 125.052 -48.9651C125.177 -49.0893 128.934 -46.7167 130.29 -45.6584C133.501 -43.1503 136.573 -40.0321 138.861 -36.9565C139.406 -36.2239 139.919 -35.6247 140.001 -35.6247C140.262 -35.6247 140.586 -38.0517 140.586 -40.0051C140.586 -49.5248 133.151 -61.7855 123.415 -68.3184C120.437 -70.316 116.879 -71.8543 113.944 -72.4108C112.441 -72.6951 108.589 -72.7853 106.882 -72.5744ZM231.362 -72.4362C226.436 -71.4098 221.362 -68.5197 216.804 -64.1458C211.115 -58.6858 207.068 -51.9597 205.367 -45.1382C204.915 -43.3249 204.839 -42.602 204.835 -40.064C204.832 -38.2383 204.926 -36.7827 205.08 -36.2645L205.329 -35.4245L206.484 -36.955C209.912 -41.4998 214.124 -45.3416 218.732 -48.1285C219.546 -48.6208 220.238 -48.9482 220.271 -48.8564C220.353 -48.6235 218.92 -45.4836 217.824 -43.4949C216.085 -40.3372 213.061 -35.9586 210.317 -32.6245L209.065 -31.1041L209.773 -30.9716C210.162 -30.8985 211.668 -30.9411 213.12 -31.0664C219.028 -31.5755 223.026 -33.2899 226.835 -36.9465C231.238 -41.1739 234.126 -47.2335 236.174 -56.5389C236.448 -57.7869 237.08 -61.294 237.578 -64.3325C238.076 -67.3708 238.615 -70.4254 238.774 -71.1193C238.934 -71.8132 239.015 -72.4318 238.954 -72.493C238.703 -72.7433 232.618 -72.6978 231.362 -72.4362ZM59.1891 -50.0053C53.3235 -49.1513 47.6626 -46.5614 37.6751 -40.1631C35.1788 -38.5639 32.6268 -36.9693 32.004 -36.6199C30.7026 -35.8895 30.6866 -36.0712 32.2574 -33.7504C36.3752 -27.6659 43.8729 -23.5044 52.8754 -22.3065C55.4133 -21.969 60.8487 -21.9224 63.2354 -22.2178C68.4213 -22.8596 73.0725 -24.4395 76.6497 -26.7737C78.1307 -27.7405 80.9131 -30.4487 81.5372 -31.5307L81.9643 -32.2706H78.8315C75.0702 -32.2706 71.7225 -32.6742 68.2624 -33.5452C65.4154 -34.2617 61.3271 -35.7786 61.5847 -36.0228C61.8177 -36.2437 64.2012 -36.9558 66.2051 -37.4028C69.4164 -38.1196 72.3548 -38.412 77.4882 -38.5254C80.2829 -38.587 82.5693 -38.7054 82.5693 -38.7885C82.5693 -39.1017 79.9882 -42.0987 78.4 -43.6302C74.7381 -47.1607 70.9809 -49.17 66.6085 -49.9356C64.8254 -50.2479 61.0955 -50.2828 59.1891 -50.0053ZM278.496 -49.9166C274.418 -49.1789 270.468 -47.0327 266.908 -43.6207C265.339 -42.1172 262.738 -39.0733 262.738 -38.7398C262.738 -38.6543 264.403 -38.584 266.439 -38.5837C270.596 -38.5829 273.566 -38.36 277.046 -37.7872C279.566 -37.3723 283.853 -36.2506 283.853 -36.0057C283.853 -35.8092 281.388 -34.8016 279.335 -34.1586C275.293 -32.8929 271.051 -32.2706 266.465 -32.2706H263.305L264.146 -31.0719C267.325 -26.5401 274.061 -23.2137 282.073 -22.2186C284.555 -21.9102 290.007 -21.9626 292.566 -22.3194C299.495 -23.2857 305.528 -25.9543 309.816 -29.9496C311.366 -31.3948 313.363 -33.8903 314.058 -35.2546L314.436 -35.9933L313.303 -36.6367C312.681 -36.9907 310.351 -38.4466 308.126 -39.8723C300.866 -44.5242 297.769 -46.2309 293.523 -47.9209C288.255 -50.0172 282.948 -50.7223 278.496 -49.9166ZM170.089 -40.3385C168.374 -40.0913 166.376 -39.4461 164.671 -38.5891C153.198 -32.8203 151.587 -16.959 161.663 -8.9534C166.888 -4.80276 174.204 -3.95886 180.204 -6.81519C183.125 -8.20566 185.396 -10.1053 187.107 -12.5883C189.384 -15.893 190.316 -18.8618 190.316 -22.8189C190.316 -26.1172 189.581 -28.8811 187.927 -31.8118C186.761 -33.876 183.88 -36.7691 181.732 -38.0334C178.288 -40.0598 174.018 -40.905 170.089 -40.3385ZM112.205 -29.6056C108.826 -28.9936 104.661 -27.1799 100.985 -24.72C97.2328 -22.2083 94.4347 -19.8209 88.7853 -14.3123C86.8319 -12.4072 84.6666 -10.3446 83.9745 -9.72864L82.7157 -8.60895L84.3746 -6.96875C88.0967 -3.289 93.1821 -0.926514 99.1349 -0.11145C101.482 0.209778 106.738 0.158386 109.379 -0.211914C116.95 -1.27301 124.592 -4.69858 129.105 -9.0545C130.36 -10.2653 131.973 -12.4482 132.776 -14.02C133.527 -15.4934 133.649 -16.0005 133.21 -15.8321C132.603 -15.5994 128.338 -14.7137 126.674 -14.4752C124.021 -14.0946 117.663 -14.1619 115.229 -14.5966C112.622 -15.0618 112.527 -15.1282 113.58 -15.7411C117.841 -18.2192 124.789 -20.5891 131.97 -22.0147L133.124 -22.2434L132.662 -22.7406C131.721 -23.7534 128.078 -26.327 126.179 -27.3195C122.595 -29.1935 119.72 -29.9144 115.947 -29.8852C114.684 -29.8753 113 -29.7496 112.205 -29.6056ZM225.047 -29.5164C221.065 -28.6649 216.781 -26.3862 213.207 -23.2181L212.122 -22.2565L213.306 -22.0258C216.101 -21.4812 221.064 -20.1621 223.707 -19.2615C228.121 -17.7571 232.916 -15.427 232.303 -15.0841C231.457 -14.6106 227.944 -14.2451 224.159 -14.2368C219.935 -14.2277 217.604 -14.4887 213.898 -15.3855C212.813 -15.6481 211.893 -15.83 211.853 -15.7898C211.812 -15.7495 212.048 -15.1415 212.377 -14.4387C215.676 -7.38943 225.014 -1.74847 235.929 -0.210144C238.564 0.161377 243.775 0.214294 246.172 -0.105957C252.433 -0.942322 258.103 -3.69528 261.61 -7.60016L262.554 -8.65085L261.018 -10.0477C260.173 -10.8159 257.884 -13.0023 255.931 -14.9065C253.976 -16.8105 251.668 -18.9893 250.8 -19.7479C244.361 -25.3746 238.443 -28.6593 233.05 -29.5996C230.718 -30.0063 227.165 -29.9694 225.047 -29.5164ZM48.726 34.1415C48.2918 34.1837 46.9154 34.3157 45.6673 34.4346C29.1333 36.0111 18.2725 42.9295 14.5913 54.2303C13.1352 58.7003 13.2052 57.0364 13.2052 87.1968V114.228L13.6621 116.299C14.888 121.859 16.9312 125.813 20.3889 129.318C26.0231 135.029 33.9417 138.245 45.7659 139.623C48.6881 139.963 60.9988 139.963 63.921 139.623C77.8657 137.997 86.9931 133.543 92.1535 125.845C93.9509 123.165 95.1364 120.265 96.0168 116.398L96.4666 114.424L96.5355 88.1833C96.5843 69.2963 96.5407 61.4167 96.3777 60.0676C95.5906 53.5394 93.2815 48.6254 89.0032 44.3732C83.6206 39.0228 76.016 35.8963 65.0064 34.5066C62.6687 34.2116 50.7529 33.9443 48.726 34.1415ZM115.722 40.7318V45.467L120.31 45.4722L124.898 45.4772L131.534 54.3016C135.183 59.1548 142.397 68.7363 147.564 75.5938L156.96 88.0618L140.949 108.247L124.937 128.433L119.935 128.486L114.932 128.538V133.172V137.805H135.357H155.781V133.169V128.532H149.368C145.841 128.532 142.955 128.484 142.955 128.425C142.955 128.339 164.946 100.222 165.451 99.6626C165.531 99.5739 170.591 106.011 176.694 113.967L187.793 128.433L180.667 128.485L173.542 128.536V133.171V137.805H195.052H216.562V133.169V128.532L212.073 128.526L207.582 128.52L194.262 111.049C186.936 101.44 179.77 92.0402 178.337 90.1612L175.732 86.7449L191.959 66.1553L208.186 45.5657L212.67 45.5126L217.154 45.4596V40.728V35.9965H197.617H178.081V40.7291V45.4614L184.065 45.5135L190.048 45.5657L178.923 59.9689C172.804 67.8906 167.642 74.58 167.452 74.8343L167.106 75.2966L155.918 60.3818L144.729 45.467H151.44H158.15V40.7318V35.9965H136.936H115.722V40.7318ZM233.336 40.7318V45.467H240.829H248.323L248.387 80.8337C248.451 115.929 248.455 116.215 248.866 118.082C250.046 123.428 252.151 127.297 255.718 130.669C261.14 135.795 269.505 138.833 280.795 139.774C283.843 140.028 291.366 140.028 294.411 139.774C311.554 138.343 322.075 131.972 325.557 120.911C326.836 116.848 326.757 119.375 326.823 80.6364L326.884 45.467H334.18H341.476V40.7318V35.9965H317.203H292.931V40.7318V45.467H300.336H307.741L307.68 80.5378C307.62 115.324 307.616 115.623 307.207 117.385C305.568 124.429 301.383 127.917 293.091 129.148C290.952 129.466 284.004 129.466 281.979 129.149C274.748 128.018 270.492 125.101 268.551 119.945C267.317 116.666 267.402 119.412 267.332 80.7351L267.269 45.467H274.574H281.88V40.7318V35.9965H257.608H233.336V40.7318ZM50.7393 44.4833C46.6171 44.8546 43.6513 45.6516 40.646 47.1954C38.1296 48.4884 35.8584 50.7627 34.5587 53.2916C33.5346 55.2839 32.7678 57.8945 32.4534 60.457C32.1621 62.8317 32.1745 111.249 32.4672 113.635C32.8001 116.353 33.3299 118.174 34.4458 120.437C35.3039 122.177 35.7195 122.757 37.0793 124.117C38.4846 125.522 38.9864 125.874 40.9473 126.828C44.873 128.736 48.4778 129.403 54.8434 129.397C61.0941 129.393 64.9439 128.683 68.6571 126.852C73.6548 124.386 76.4161 120.101 77.2311 113.542C77.5126 111.274 77.5161 62.7701 77.2355 60.457C76.912 57.8043 76.3271 55.7858 75.234 53.5585C74.3624 51.7817 73.9771 51.2471 72.5106 49.7813C70.9985 48.2693 70.5446 47.9488 68.546 46.9808C66.025 45.7599 64.2494 45.2167 61.3483 44.7785C58.8962 44.4081 53.3025 44.2526 50.7393 44.4833ZM8.37051 147.967V150.63H172.654H336.937V147.967V145.302H172.654H8.37051V147.967ZM88.8367 161C85.0231 161.924 82.8831 165 83.8228 168.209C84.4792 170.452 86.0787 171.526 90.2925 172.552C93.0531 173.224 93.9422 173.652 94.1305 174.401C94.6213 176.355 89.8313 176.671 86.3498 174.914C85.6873 174.58 85.112 174.306 85.0702 174.306C85.0283 174.306 84.616 175.164 84.154 176.213L83.3146 178.119L83.7809 178.477C84.3937 178.949 86.8615 179.757 88.5648 180.045C90.615 180.392 93.631 180.184 95.2471 179.585C97.9677 178.576 99.3467 176.767 99.3388 174.218C99.3336 172.528 98.9187 171.511 97.8544 170.577C96.8162 169.665 95.8259 169.262 92.6835 168.47C89.745 167.73 89.1505 167.449 88.964 166.707C88.5116 164.905 92.1169 164.224 95.2262 165.524C95.9166 165.813 96.6148 166.091 96.7778 166.141C96.9958 166.21 97.2764 165.734 97.843 164.338C98.7112 162.199 98.7077 162.183 97.1988 161.602C94.8854 160.709 91.145 160.441 88.8367 161ZM138.852 160.999C134.347 162.212 131.509 165.867 131.509 170.459C131.509 176.15 135.791 180.225 141.771 180.225C144.664 180.225 147.077 179.368 148.902 177.69L149.908 176.765L148.207 175.22L146.504 173.675L145.775 174.316C144.64 175.312 143.448 175.761 141.968 175.75C140.493 175.738 139.572 175.406 138.563 174.519C137.421 173.518 136.943 172.318 136.943 170.459C136.943 168.599 137.421 167.4 138.563 166.399C139.572 165.512 140.493 165.18 141.968 165.168C143.448 165.156 144.64 165.606 145.777 166.603L146.508 167.245L148.085 165.822C148.954 165.04 149.664 164.283 149.664 164.139C149.664 163.758 147.941 162.337 146.803 161.779C144.621 160.711 141.178 160.373 138.852 160.999ZM101.711 170.459V179.831H104.375H107.039V170.459V161.087H104.375H101.711V170.459ZM110.986 170.452V179.831H113.548H116.11L116.162 174.932L116.216 170.033L120.169 174.883L124.123 179.732L126.336 179.788L128.549 179.844V170.466V161.087H125.987H123.425L123.372 165.986L123.32 170.885L119.366 166.035L115.413 161.185L113.2 161.13L110.986 161.074V170.452ZM152.032 170.459V179.831H159.636H167.241L167.185 177.809L167.128 175.786L162.244 175.733L157.36 175.681V174.007V172.334H161.504H165.648V170.361V168.387H161.504H157.36V166.809V165.23H162.096H166.833V163.158V161.087H159.432H152.032V170.459ZM199.985 163.134C199.497 163.268 198.742 163.548 198.308 163.756C197.5 164.143 195.644 165.844 195.644 166.197C195.644 166.305 196.405 166.808 197.335 167.316L199.026 168.237L199.555 167.731C200.843 166.497 202.914 166.303 203.729 167.34C204.724 168.604 204.185 169.49 199.966 173.53L196.433 176.913V178.371V179.831H202.847H209.26V177.956V176.082H206.208H203.156L205.496 173.763C208.071 171.213 208.658 170.291 208.816 168.554C209.131 165.085 206.585 162.839 202.382 162.876C201.552 162.884 200.474 162.999 199.985 163.134ZM215.881 163.179C213.769 163.851 212.205 165.457 211.386 167.795C211.012 168.866 210.938 169.486 210.938 171.544C210.938 173.602 211.012 174.223 211.386 175.293C212.551 178.62 215.192 180.403 218.628 180.182C222.781 179.916 225.435 176.549 225.435 171.544C225.435 167.72 223.839 164.737 221.129 163.495C219.722 162.851 217.358 162.708 215.881 163.179ZM230.177 163.134C229.689 163.268 228.934 163.548 228.5 163.756C227.693 164.143 225.836 165.844 225.836 166.197C225.836 166.305 226.597 166.808 227.527 167.316L229.219 168.237L229.748 167.731C231.035 166.497 233.106 166.303 233.921 167.34C234.917 168.604 234.378 169.49 230.159 173.53L226.625 176.913V178.371V179.831H233.039H239.452V177.956V176.082H236.4H233.349L235.689 173.763C238.263 171.213 238.851 170.291 239.009 168.554C239.323 165.085 236.778 162.839 232.575 162.876C231.745 162.884 230.666 162.999 230.177 163.134ZM244.189 163.134C243.7 163.268 242.946 163.548 242.511 163.756C241.704 164.143 239.847 165.844 239.847 166.197C239.847 166.305 240.608 166.808 241.539 167.316L243.23 168.237L243.758 167.731C245.047 166.497 247.117 166.303 247.933 167.34C248.927 168.604 248.39 169.49 244.17 173.53L240.637 176.913V178.371V179.831H247.05H253.464V177.956V176.082H250.412H247.36L249.7 173.763C252.275 171.213 252.861 170.291 253.019 168.554C253.334 165.085 250.789 162.839 246.585 162.876C245.755 162.884 244.677 162.999 244.189 163.134ZM216.697 167.319C215.898 168.118 215.673 169.045 215.673 171.544C215.673 174.043 215.898 174.971 216.697 175.769C217.085 176.157 217.407 176.279 218.042 176.279C219.829 176.279 220.607 174.843 220.607 171.544C220.607 168.245 219.829 166.809 218.042 166.809C217.407 166.809 217.085 166.931 216.697 167.319Z" fill="white"/>
</g>
<defs>
<clipPath id="clip0_1_9367">
<rect width="343" height="47" fill="white" transform="translate(0 141)"/>
</clipPath>
</defs>
</svg>
