<svg width="48" height="48" viewBox="0 0 48 48" fill="none" xmlns="http://www.w3.org/2000/svg">
<g clip-path="url(#clip0_419_149)">
<path d="M44 0H4C1.79086 0 0 1.79086 0 4V44C0 46.2091 1.79086 48 4 48H44C46.2091 48 48 46.2091 48 44V4C48 1.79086 46.2091 0 44 0Z" fill="#F9FAFC"/>
<path d="M44 0.5H4C2.067 0.5 0.5 2.067 0.5 4V44C0.5 45.933 2.067 47.5 4 47.5H44C45.933 47.5 47.5 45.933 47.5 44V4C47.5 2.067 45.933 0.5 44 0.5Z" stroke="#9FABB9" stroke-opacity="0.2"/>
<path d="M20.5631 19.5624H19.3666V21.357H22.8707C22.603 20.3281 21.6743 19.5624 20.5631 19.5624Z" fill="#001C51"/>
<path d="M33.7235 22.5536H19.3662V24.9465H34.9199V23.7501C34.9199 23.0905 34.383 22.5536 33.7235 22.5536Z" fill="#001C51"/>
<path d="M36.7148 12.9822H35.5183V11.1875H38.5094C38.8385 11.1875 39.1077 10.9183 39.1077 10.5893C39.1077 10.2603 38.8385 9.99107 38.5094 9.99107H12.7858V8.79463C12.7858 8.31008 12.5944 7.85543 12.2713 7.53839C12.0978 7.35892 11.8884 7.22133 11.703 7.14955C11.4817 7.04786 11.2424 7 10.9911 7C10.004 7 9.19644 7.80761 9.19644 8.79466V39.3041H8.59822C8.2692 39.3041 8 39.5733 8 39.9023C8 40.2313 8.2692 40.5005 8.59822 40.5005H13.384C13.713 40.5005 13.9822 40.2313 13.9822 39.9023C13.9822 39.5733 13.713 39.3041 13.384 39.3041H12.7858V11.1875H18.768V12.9822H17.5715C16.2495 12.9822 15.1786 14.053 15.1786 15.3751V28.5359C15.1786 29.858 16.2495 30.9288 17.5715 30.9288H36.7146C38.0366 30.9288 39.1074 29.858 39.1074 28.5359V15.3751C39.1074 14.6632 38.7964 13.9992 38.264 13.5565C37.8392 13.1856 37.2891 12.9822 36.7148 12.9822ZM19.9646 11.1875H34.3219V12.9822H19.9646V11.1875ZM36.1168 27.3396C36.1168 27.6702 35.8491 27.9379 35.5185 27.9379C35.188 27.9379 34.9203 27.6702 34.9203 27.3396V26.1432H19.3666V27.3396C19.3666 27.6702 19.0989 27.9379 18.7684 27.9379C18.4379 27.9379 18.1702 27.6702 18.1702 27.3396V16.5717C18.1702 16.2412 18.4379 15.9735 18.7684 15.9735C19.0989 15.9735 19.3666 16.2412 19.3666 16.5717V18.3663H20.563C22.3382 18.3663 23.8129 19.663 24.0985 21.3574H33.724C35.0431 21.3574 36.1169 22.4312 36.1169 23.7503L36.1168 27.3396Z" fill="#001C51"/>
</g>
<defs>
<clipPath id="clip0_419_149">
<rect width="48" height="48" fill="white"/>
</clipPath>
</defs>
</svg>
