<svg width="48" height="48" viewBox="0 0 48 48" fill="none" xmlns="http://www.w3.org/2000/svg">
<g clip-path="url(#clip0_410_73)">
<path d="M44 0H4C1.79086 0 0 1.79086 0 4V44C0 46.2091 1.79086 48 4 48H44C46.2091 48 48 46.2091 48 44V4C48 1.79086 46.2091 0 44 0Z" fill="#F9FAFC"/>
<path d="M44 0.5H4C2.067 0.5 0.5 2.067 0.5 4V44C0.5 45.933 2.067 47.5 4 47.5H44C45.933 47.5 47.5 45.933 47.5 44V4C47.5 2.067 45.933 0.5 44 0.5Z" stroke="#9FABB9" stroke-opacity="0.2"/>
<path fill-rule="evenodd" clip-rule="evenodd" d="M37.0286 18.5016V38.2415H39.25C39.6637 38.2415 40 38.5778 40 38.9915C40 39.4052 39.6637 39.7414 39.25 39.7414H36.2787H29.8536H27.2125H20.7875H18.1464H11.7213H8.74995C8.33625 39.7414 8 39.4052 8 38.9915C8 38.5778 8.33625 38.2415 8.74995 38.2415H10.9714V27.9088C10.9714 27.4951 11.3076 27.1589 11.7213 27.1589H18.1464C18.5601 27.1589 18.8964 27.4951 18.8964 27.9088V38.2415H20.0375V23.9571C20.0375 23.5434 20.3738 23.2072 20.7875 23.2072H27.2125C27.6262 23.2072 27.9625 23.5434 27.9625 23.9571V38.2415H29.1036V18.5016H27.541C27.1263 18.5016 26.791 18.1653 26.791 17.7516C26.791 17.5722 26.8547 17.4065 26.9596 17.2781L32.4514 9.32271C32.6857 8.98254 33.1514 8.89823 33.4916 9.13253C33.5729 9.18841 33.6386 9.25801 33.6906 9.33448L39.2079 17.3281C39.4422 17.6673 39.3569 18.1339 39.0177 18.3682C38.8873 18.4574 38.7393 18.5006 38.5932 18.5006V18.5035H37.0306L37.0286 18.5016Z" fill="#001C51"/>
</g>
<defs>
<clipPath id="clip0_410_73">
<rect width="48" height="48" fill="white"/>
</clipPath>
</defs>
</svg>
