<svg width="679" height="232" viewBox="0 0 679 232" fill="none" xmlns="http://www.w3.org/2000/svg">
<mask id="mask0_433_137" style="mask-type:luminance" maskUnits="userSpaceOnUse" x="18" y="14" width="157" height="205">
<path d="M175 14H18V218.336H175V14Z" fill="white"/>
</mask>
<g mask="url(#mask0_433_137)">
<path fill-rule="evenodd" clip-rule="evenodd" d="M94.0745 15.148C87.0668 18.946 83.163 20.8096 74.044 24.7107C56.9719 32.014 37.5799 39.1972 23.4407 43.4551L18.0073 45.0913L18.0427 54.5797C18.0621 59.7985 18.1901 72.8691 18.3271 83.6256C18.464 94.3819 18.683 111.618 18.8134 121.928C19.0701 142.215 19.1108 143.748 19.4831 147.166C21.6386 166.95 32.4651 183.145 52.4603 196.497C61.876 202.784 72.0636 207.88 94.9664 217.756L96.3453 218.351L103.4 215.247C126.211 205.21 135.933 200.018 145.684 192.665C150.204 189.256 155.816 183.982 158.952 180.194C168.02 169.244 172.702 157.363 173.471 143.352C173.567 141.611 173.786 129.049 173.958 115.436C174.779 50.3976 174.842 46.3106 174.93 52.0582L175.014 57.5763L175.051 51.3218C175.088 45.1731 175.083 45.0667 174.765 45.0427C174.168 44.9976 163.704 41.7818 159.113 40.2321C145.395 35.6027 126.669 28.3108 113.649 22.5299C107.789 19.9277 105.584 18.8586 100.73 16.2682C98.3917 15.0199 96.412 14.0002 96.3308 14.002C96.2496 14.0037 95.234 14.5194 94.0745 15.148ZM93.75 22.2989C80.7821 29.2618 47.4223 42.5591 28.0631 48.4816L24.1705 49.6727L24.122 50.484C24.0804 51.1818 24.3311 72.0587 25.0616 128.745C25.2684 144.793 25.4416 147.478 26.6069 152.689C27.5935 157.101 28.7446 160.323 30.8973 164.698C32.5987 168.155 35.0428 172.031 37.2661 174.797C45.5303 185.078 57.5555 193.734 75.2985 202.174C81.8948 205.311 95.8997 211.518 96.3826 211.518C96.9309 211.518 113.116 204.271 119.341 201.238C142.745 189.835 156.419 177.54 163.053 161.935C165.149 157.007 166.397 152.225 167.08 146.517C167.366 144.125 167.494 137.148 168.025 94.9864C168.247 77.4459 168.476 60.0878 168.535 56.413L168.642 49.7315L166.959 49.2214C145.955 42.8571 112.238 29.5141 98.7389 22.2249C97.4684 21.5389 96.3737 20.981 96.3061 20.9851C96.2383 20.9893 95.0883 21.5806 93.75 22.2989ZM93.9122 27.7264C84.8431 32.455 63.8298 41.1564 45.2849 47.8626C40.4906 49.5959 30.4588 52.9752 29.4707 53.1895L28.9323 53.3061L29.0335 59.0118C29.0891 62.1499 29.2755 76.0744 29.4475 89.9553C30.0442 138.076 30.0984 141.659 30.2616 143.839C31.6619 162.548 41.8758 177.193 62.2042 189.639C68.1488 193.279 75.0418 196.818 84.262 200.966C89.9927 203.543 96.1379 206.216 96.3243 206.212C96.5728 206.207 106.104 202.015 111.104 199.713C125.15 193.245 134.589 187.645 142.326 181.192C144.682 179.227 149.152 174.759 150.84 172.682C157.315 164.715 160.872 156.468 162.196 146.355C162.484 144.156 162.592 138.897 163.005 107.159C163.147 96.2242 163.363 79.6817 163.484 70.3981C163.605 61.1145 163.654 53.4651 163.593 53.3996C163.531 53.334 161.987 52.8077 160.162 52.2304C148.629 48.5815 128.425 40.9122 113.618 34.5622C107.914 32.116 105.002 30.7871 100.348 28.5074C98.0885 27.401 96.2274 26.5064 96.2117 26.5192C96.196 26.532 95.161 27.0752 93.9122 27.7264ZM18 51.4088C18 54.8902 18.0214 56.2914 18.0477 54.5224C18.074 52.7537 18.0738 49.9052 18.0475 48.1927C18.0214 46.4803 17.9998 47.9276 18 51.4088ZM72.4292 47.5262C71.611 47.8815 70.835 48.5172 70.5526 49.0639C70.4166 49.3271 70.3254 49.5416 70.35 49.5406C70.3747 49.5396 70.753 49.4302 71.1909 49.2972C72.8922 48.7808 73.0716 49.1299 71.5096 49.9179L70.435 50.4599L70.9825 50.6884C71.7468 51.0071 72.804 50.9321 73.4853 50.5107C74.054 50.1589 75.8281 48.1108 75.8281 47.8058C75.8281 47.279 73.4499 47.0831 72.4292 47.5262ZM117.141 47.5279L116.69 47.7726L117.466 48.7599C118.446 50.0091 119.209 50.6413 119.992 50.8531C120.601 51.0178 120.893 50.9839 121.771 50.6468L122.22 50.4743L121.447 50.1073C120.496 49.656 119.99 49.2802 120.136 49.1342C120.243 49.0263 121.513 49.2456 122.109 49.4746C122.395 49.5842 122.397 49.565 122.15 49.0868C121.892 48.588 120.929 47.8424 120.058 47.4661C119.426 47.1935 117.69 47.2304 117.141 47.5279ZM66.5008 48.3844C65.2585 48.949 64.1498 50.6772 64.0194 52.2523C63.9404 53.2047 64.1054 53.345 64.5066 52.6667C64.8334 52.1147 65.577 51.4028 65.6993 51.5252C65.7492 51.575 65.6034 52.0746 65.3759 52.6353C65.1481 53.1957 64.9928 53.6854 65.0305 53.7233C65.1715 53.8643 65.8117 53.5556 66.3401 53.0911C67.0286 52.4863 67.3369 51.5336 67.4747 49.583C67.5938 47.8975 67.5881 47.8902 66.5008 48.3844ZM125.214 49.723C125.342 51.5556 125.574 52.3089 126.216 52.9794C126.632 53.414 127.51 53.873 127.653 53.7302C127.694 53.6886 127.542 53.1957 127.314 52.6353C127.087 52.0746 126.941 51.5757 126.989 51.5269C127.117 51.3988 127.685 51.9483 128.072 52.575C128.495 53.2595 128.702 53.2583 128.702 52.5708C128.702 50.7126 127.158 48.5399 125.561 48.1504L125.096 48.037L125.214 49.723ZM92.7769 51.428C87.7227 52.1461 84.2009 53.2045 80.3694 55.1566C67.7498 61.5867 59.9365 74.8382 60.473 88.9002C60.6873 94.5177 61.8506 99.1385 64.2699 103.983C70.8063 117.073 84.5683 125.005 99.0499 124.031C104.281 123.679 108.624 122.5 113.159 120.2C118.784 117.349 123.483 113.168 126.995 107.89C130.843 102.108 132.823 95.881 133.036 88.8863C133.137 85.586 132.953 83.2875 132.345 80.2628C129.711 67.1569 119.584 56.2526 106.67 52.6171C103.201 51.6403 101.743 51.4512 97.3182 51.4031C95.0883 51.3789 93.0445 51.3901 92.7769 51.428ZM94.4799 53.0527C90.9165 53.3864 87.6086 54.1055 84.7906 55.1591C72.3594 59.8073 63.7413 70.9862 62.353 84.2643C62.1158 86.5314 62.2426 91.0363 62.6045 93.2012C64.7372 105.965 73.6792 116.519 85.7787 120.553C99.6143 125.167 114.716 120.687 123.823 109.269C126.95 105.349 129.246 100.619 130.411 95.7014C131.619 90.6007 131.591 84.2102 130.339 79.3019C129.131 74.5688 126.815 69.9057 123.724 65.9834C122.553 64.4983 119.835 61.7676 118.322 60.5571C113.604 56.7826 107.833 54.2872 101.694 53.3674C100.022 53.1167 95.7743 52.9316 94.4799 53.0527ZM67.8806 53.6096C67.4261 53.8018 66.6331 54.5117 66.4063 54.9296C66.271 55.179 66.3647 55.1967 67.4341 55.121L68.6106 55.038L68.23 55.3722C68.0205 55.5558 67.5644 55.7916 67.2163 55.896C66.8681 56.0004 66.5833 56.1417 66.5833 56.2099C66.5833 56.4726 67.7994 56.7215 68.6891 56.6405C70.0804 56.5145 71.3155 55.7636 71.866 54.7096L72.0917 54.277L71.081 53.9336C69.8641 53.5199 68.4354 53.3754 67.8806 53.6096ZM122.944 53.5481C122.766 53.588 122.165 53.7676 121.609 53.9473L120.597 54.2742L120.824 54.7081C121.392 55.7963 122.631 56.5272 124.108 56.6458C125.053 56.7215 126.107 56.4933 126.107 56.2124C126.107 56.1536 125.797 56.0131 125.418 55.9002C125.039 55.7876 124.546 55.5468 124.323 55.3654L123.917 55.0358L125.173 55.1167C126.574 55.207 126.624 55.1182 125.675 54.2189C124.94 53.5224 124.043 53.3019 122.944 53.5481ZM131.702 55.2827C131.317 57.8317 131.497 58.7253 132.611 59.808C133.391 60.5655 133.849 60.7993 133.678 60.3517C133.493 59.8713 133.213 58.1771 133.27 57.884C133.318 57.6363 133.403 57.6966 133.711 58.1952C133.922 58.5356 134.221 59.1504 134.377 59.5611L134.66 60.3081L134.864 59.6901C135.505 57.7457 134.315 54.6405 132.591 53.7604L131.98 53.4482L131.702 55.2827ZM59.3842 54.2496C58.4714 55.0916 57.7841 56.591 57.6933 57.9381C57.6213 59.0074 57.7571 60.0921 57.9625 60.0921C58.03 60.0921 58.2099 59.7452 58.3625 59.3211C58.515 58.897 58.8188 58.331 59.0376 58.0632L59.4353 57.5763L59.441 58.0696C59.4443 58.341 59.3374 58.9837 59.2035 59.4978C58.9157 60.6037 58.9177 60.579 59.1168 60.579C59.4161 60.579 60.4408 59.5511 60.7538 58.9373C61.1257 58.2079 61.1817 56.279 60.8784 54.6331C60.6462 53.3704 60.4045 53.3084 59.3842 54.2496ZM90.8959 56.3557C85.9479 57.2792 81.2972 59.3689 77.2067 62.506C76.0982 63.356 73.5573 65.7517 73.5573 65.9466C73.5573 66.0794 76.6178 68.3507 77.2117 68.6587C77.5055 68.8112 77.7126 68.6291 79.1286 66.9732C81.9341 63.6924 86.2813 60.0176 90.3698 57.4706C92.4656 56.1648 92.6391 56.052 92.5336 56.0592C92.489 56.0624 91.7521 56.1957 90.8959 56.3557ZM103.336 57.7925C108.355 61.1073 112.087 64.424 115.422 68.5349L116.01 69.259L117.531 68.0854C118.367 67.4402 119.269 66.7178 119.535 66.4801L120.019 66.0482L118.643 64.7559C114.209 60.5897 109.216 57.9052 103.482 56.6044C100.652 55.9625 100.646 56.0158 103.336 57.7925ZM94.9328 57.7462C92.1242 60.7589 89.0764 65.2446 87.009 69.4081C86.2118 71.0136 85.5596 72.4564 85.5596 72.6144C85.5596 73.1766 90.9669 74.6378 94.399 75.0034C95.1124 75.0794 95.7153 75.1265 95.7382 75.1083C95.7614 75.0901 95.7614 70.9917 95.7382 66.0011L95.6963 56.9271L94.9328 57.7462ZM97.4041 65.9755L97.3994 75.1858H98.2741C100.552 75.1858 103.972 74.642 106.618 73.8593C107.807 73.5075 107.809 73.506 107.713 73.0074C107.66 72.7328 106.925 71.111 106.081 69.4038C103.983 65.1643 101.225 61.0711 98.0563 57.4953L97.4091 56.7649L97.4041 65.9755ZM90.1869 59.4547C87.152 61.496 85.1898 63.0706 82.8263 65.3615C81.0794 67.0547 78.7986 69.6164 78.9302 69.7377C79.1266 69.9184 83.6467 72.1023 83.8246 72.1023C83.943 72.1023 84.2089 71.6824 84.4152 71.1691C85.8138 67.6894 88.9436 62.5409 91.936 58.797C92.3657 58.2595 92.6941 57.8202 92.666 57.8207C92.6378 57.821 91.5221 58.5563 90.1869 59.4547ZM100.579 57.9966C100.677 58.1227 101.212 58.804 101.768 59.5115C104.543 63.041 107.165 67.5967 109.135 72.3146L109.382 72.9069L110.649 72.3071C112.203 71.5715 114.386 70.3555 114.508 70.1581C114.748 69.7706 109.973 64.7594 107.293 62.586C105.005 60.73 100.09 57.3709 100.579 57.9966ZM53.8653 60.1197C52.9549 61.184 52.5854 62.3355 52.5717 64.1494C52.5622 65.4115 52.625 65.8334 52.918 66.4743C53.3078 67.3266 53.6039 67.352 53.6151 66.5339C53.6241 65.8743 54.1242 64.3929 54.3378 64.3929C54.429 64.3929 54.5356 65.0692 54.5813 65.9348L54.6622 67.4766L55.125 66.9897C56.5734 65.4654 56.5926 63.6842 55.1968 60.2949C55.0039 59.8262 54.7554 59.4427 54.645 59.4427C54.5346 59.4427 54.1835 59.7474 53.8653 60.1197ZM61.9608 59.5977C61.482 59.8249 60.9829 60.2787 60.6746 60.7669L60.402 61.1985L61.7086 61.109C62.5593 61.0507 63.0151 61.0781 63.0151 61.1875C63.0151 61.3712 62.905 61.4267 61.4977 61.9548L60.5482 62.3111L61.1167 62.581C61.8553 62.9318 63.5303 62.9323 64.5565 62.5822C65.4434 62.28 66.7976 61.0507 66.7151 60.6226C66.5843 59.9418 62.9062 59.1489 61.9608 59.5977ZM127.323 59.8504C126.699 60.0706 126.094 60.2869 125.98 60.3308C125.814 60.3941 125.822 60.5087 126.017 60.886C126.366 61.5616 127.344 62.3178 128.263 62.6236C129.279 62.961 131.33 62.8875 131.718 62.4995C131.962 62.2553 131.953 62.2271 131.599 62.129C130.873 61.9279 129.675 61.3345 129.675 61.1763C129.675 61.0779 130.169 61.0557 130.976 61.118C132.173 61.2104 132.264 61.196 132.125 60.9391C131.927 60.5738 131.148 59.8553 130.7 59.6248C130.096 59.3146 128.549 59.418 127.323 59.8504ZM137.259 60.8656C136.157 63.5606 136.138 65.2403 137.191 66.6186C138.003 67.6809 138.09 67.6154 138.143 65.9057C138.169 65.0736 138.261 64.3929 138.346 64.3929C138.549 64.3929 139.059 66.0208 139.072 66.7058C139.087 67.4661 139.312 67.3565 139.741 66.3811C140.251 65.2172 140.246 63.0407 139.73 61.6655C139.399 60.7828 138.356 59.4427 138 59.4427C137.912 59.4427 137.579 60.0831 137.259 60.8656ZM57.7691 66.0093C57.0013 66.2832 56.4301 66.8015 56.0252 67.592C55.8554 67.9231 55.7164 68.2296 55.7164 68.273C55.7164 68.3164 56.1293 68.2097 56.634 68.036C57.1386 67.8623 57.7352 67.72 57.9597 67.72H58.3682L57.9879 68.125C57.7788 68.3477 57.2552 68.7058 56.8244 68.9206L56.0409 69.3114L56.5517 69.4895C58.1696 70.054 60.7374 68.9605 61.6719 67.3094C62.2673 66.2578 62.2062 66.1611 60.8189 65.9545C59.2489 65.7208 58.5416 65.7335 57.7691 66.0093ZM131.662 65.9697C130.763 66.1078 130.648 66.1671 130.648 66.4925C130.648 66.9929 131.478 68.1008 132.297 68.6949C133.438 69.5214 135.108 69.876 136.094 69.5008L136.534 69.3335L135.578 68.7604C135.052 68.4452 134.515 68.0821 134.385 67.9535C134.177 67.7494 134.209 67.72 134.643 67.72C134.916 67.72 135.552 67.8623 136.056 68.036C136.561 68.2097 136.974 68.3164 136.974 68.273C136.974 67.9844 136.255 66.8783 135.84 66.5294C134.96 65.7878 133.83 65.6366 131.662 65.9697ZM71.2883 68.5643C68.6071 72.1554 66.681 76.356 65.7131 80.723C65.3143 82.5229 64.9614 85.1392 64.9614 86.2972V86.8716H67.7967C71.0513 86.8716 70.6987 87.0851 70.8781 85.0051C71.2327 80.8975 73.026 75.7776 75.4762 71.8763C76.0267 71.0001 76.4725 70.2359 76.4671 70.1783C76.4581 70.0811 72.6938 67.3742 72.4175 67.2658C72.3494 67.2391 71.8413 67.8235 71.2883 68.5643ZM119.863 68.2259C119.328 68.6729 118.443 69.3699 117.897 69.7749L116.904 70.5112L117.884 72.0724C120.429 76.1242 122.23 81.2969 122.643 85.74L122.748 86.8716H125.556H128.366L128.28 85.7759C127.911 81.032 126.841 77.0938 124.867 73.2152C123.675 70.871 121.315 67.3744 120.947 67.4046C120.886 67.4095 120.398 67.7791 119.863 68.2259ZM48.552 68.2364C47.6291 69.6687 47.7278 72.2187 48.7865 74.3034C49.1772 75.0731 50.4616 76.4412 50.6326 76.27C50.6752 76.2271 50.6361 75.9112 50.5459 75.5675C50.2613 74.4831 50.1396 72.9137 50.3405 72.9137C50.5466 72.9137 51.1943 74.1409 51.4971 75.1048C51.8031 76.0789 51.92 76.1001 52.2504 75.2404C53.028 73.2179 52.4156 71.4651 50.1406 69.2005L48.7942 67.8601L48.552 68.2364ZM142.458 69.3024C140.655 71.1494 140.143 72.114 140.151 73.644C140.155 74.4574 140.25 74.958 140.484 75.4061L140.81 76.0323L141.181 75.0004C141.647 73.7016 142.158 72.8431 142.35 73.035C142.511 73.196 142.271 75.2077 142.009 75.897C141.784 76.4888 142.032 76.4402 142.806 75.7402C144.538 74.1746 145.294 70.5326 144.293 68.5723C144.1 68.1928 143.92 67.8825 143.893 67.8825C143.866 67.8825 143.221 68.5214 142.458 69.3024ZM77.0978 72.2433C75.92 74.0604 74.2915 77.4534 73.6508 79.4253C73.0482 81.2795 72.5206 83.8023 72.3395 85.6949L72.2271 86.8716H76.5416H80.8561V86.1494C80.8561 85.3473 81.2526 82.0886 81.519 80.7041C81.8053 79.2139 82.602 76.1477 83.0192 74.9296L83.4129 73.7806L80.6567 72.3926L77.9007 71.0046L77.0978 72.2433ZM114.51 72.046C113.975 72.3717 112.724 73.0315 111.73 73.5122L109.923 74.3864L110.472 76.2062C111.381 79.2252 111.988 82.4068 112.25 85.5327L112.363 86.8716H116.721H121.079V86.1624C121.079 83.5673 119.428 77.9545 117.802 75.0236C117.059 73.6844 115.662 71.4529 115.567 71.4534C115.521 71.4537 115.046 71.7203 114.51 72.046ZM55.353 73.3069C54.4193 73.6406 53.9834 73.9854 53.5456 74.7385C53.1112 75.4853 52.8231 76.4058 53.0581 76.2977C53.1376 76.261 53.6151 76.0395 54.119 75.8058C55.3059 75.2548 55.7164 75.1287 55.7164 75.3151C55.7164 75.495 54.3094 76.8347 53.8508 77.0916C53.3606 77.3662 53.6854 77.5267 54.6824 77.5035C55.8223 77.4768 57.1401 76.8536 58.111 75.8823C58.8502 75.1424 59.437 74.0669 59.4433 73.4412C59.4468 73.0844 59.4064 73.0761 57.7033 73.0831C56.6788 73.0873 55.7094 73.1796 55.353 73.3069ZM133.243 73.6393C133.688 75.6171 135.955 77.4554 138.008 77.5035C139.005 77.5267 139.33 77.3662 138.839 77.0916C138.381 76.8347 136.974 75.495 136.974 75.3151C136.974 75.1192 137.472 75.2735 138.674 75.8419C139.208 76.0943 139.674 76.2705 139.711 76.2339C139.874 76.0702 139.158 74.6231 138.673 74.1382C137.885 73.3497 136.901 73.0759 134.853 73.0759H133.115L133.243 73.6393ZM84.7597 74.6784C84.0773 75.9543 82.7451 82.0118 82.5602 84.6804C82.5043 85.4838 82.4251 86.3054 82.3842 86.5062L82.3094 86.8716H89.0435H95.7776V81.7943V76.7173L94.0197 76.5302C91.5059 76.263 87.3606 75.2805 85.1265 74.4225C85.0216 74.3821 84.8563 74.4975 84.7597 74.6784ZM106.401 75.5346C104.29 76.1519 101.681 76.5942 99.3051 76.7377L97.3994 76.8531V81.8623V86.8716H104.049H110.699V86.1494C110.699 84.2087 110.007 80.2212 109.128 77.0928C108.682 75.508 108.484 75.028 108.284 75.042C108.14 75.0522 107.293 75.2737 106.401 75.5346ZM44.9993 78.7086C44.5073 80.0034 44.6987 81.6777 45.542 83.4631C46.1466 84.7432 47.5786 86.2321 48.4585 86.4963C49.1401 86.7009 49.162 86.6824 48.8341 86.1761C48.5233 85.6964 47.7256 83.2904 47.8395 83.1763C47.999 83.0171 48.5951 83.6769 49.4 84.9037C50.1778 86.0889 50.1867 86.0963 50.3111 85.6341C50.3801 85.3774 50.4302 84.6839 50.4222 84.0933C50.3961 82.1489 49.4115 80.8858 46.5548 79.132L45.163 78.2775L44.9993 78.7086ZM146.128 79.0883C142.989 80.961 141.699 83.0898 142.317 85.3782L142.505 86.0759L143.283 84.8912C143.711 84.2399 144.218 83.5675 144.41 83.3976C144.757 83.0898 144.759 83.0906 144.759 83.5155C144.759 83.9844 144.05 85.9852 143.76 86.3351C143.505 86.6423 143.619 86.6834 144.252 86.5125C145.625 86.1419 147.499 83.3929 147.845 81.2419C147.999 80.2845 147.833 78.6685 147.554 78.4165C147.489 78.3575 146.847 78.6595 146.128 79.0883ZM56.3653 81.6244C52.9978 81.8648 51.4445 82.9441 50.9284 85.4018L50.811 85.961L51.277 85.6525C52.0899 85.114 53.3574 84.4429 53.5675 84.44C53.9827 84.434 53.7414 84.8284 52.7112 85.8392C51.5397 86.9884 51.5711 87.1561 52.9208 86.9565C54.7303 86.6891 56.8341 84.9653 57.489 83.2132C57.9443 81.9959 57.9358 81.507 57.4601 81.5441C57.2592 81.5596 56.7668 81.5957 56.3653 81.6244ZM134.924 82.2633C135.214 84.3866 137.634 86.6862 139.896 86.9899C141.094 87.1504 141.086 86.9732 139.842 85.7063C138.999 84.8469 138.754 84.5077 138.949 84.4701C139.222 84.4175 140.346 84.9476 141.321 85.588L141.856 85.9403L141.752 85.4726C141.362 83.7191 140.551 82.6984 139.125 82.1646C138.425 81.9025 136.186 81.5553 134.965 81.52C134.886 81.5175 134.867 81.8521 134.924 82.2633ZM43.4876 89.0211C42.9578 91.672 44.8016 95.2062 47.362 96.4464C47.7316 96.6254 48.1906 96.7719 48.3825 96.7719C48.7182 96.7719 48.7127 96.7445 48.2389 96.042C47.6817 95.2154 46.8925 93.3752 47.0345 93.2331C47.1527 93.115 48.7957 94.7268 49.2756 95.4317C49.473 95.7213 49.6981 95.9585 49.7758 95.9593C50.0268 95.961 49.7962 93.1611 49.4987 92.5947C48.7765 91.2194 47.4831 90.2249 45.0354 89.1626L43.5853 88.5329L43.4876 89.0211ZM65.0375 89.9959C65.1932 92.0313 65.4942 93.7694 65.6911 93.7694C65.7803 93.7694 66.9666 93.4053 68.3267 92.9605L70.8001 92.1519V91.5648C70.8001 91.2421 70.753 90.4193 70.6952 89.7362L70.5905 88.4945H67.7565H64.9228L65.0375 89.9959ZM72.2966 90.041C72.3409 90.8917 72.4102 91.6206 72.4503 91.6607C72.4907 91.7011 73.4504 91.5526 74.5828 91.3311C75.7155 91.1093 77.572 90.8354 78.7084 90.722L80.7748 90.5157L80.8232 89.5052L80.8713 88.4945H76.5436H72.2156L72.2966 90.041ZM82.3481 89.4277L82.3967 90.361L85.5596 90.4646C87.2991 90.5214 89.3426 90.652 90.1009 90.7549C91.6916 90.9702 95.0758 91.5481 95.4937 91.6757C95.7509 91.7544 95.7776 91.6094 95.7776 90.1285V88.4945H89.0385H82.2995L82.3481 89.4277ZM97.3994 90.2767C97.3994 91.9914 97.4131 92.0622 97.7642 92.1447C97.9651 92.1918 100.355 92.7734 103.076 93.4372C108.059 94.6528 110.154 95.1001 110.278 94.974C110.374 94.875 110.662 92.0986 110.778 90.1581L110.876 88.4945H104.138H97.3994V90.2767ZM112.315 89.9959C112.312 90.8215 112.21 92.337 112.089 93.3635C111.967 94.3901 111.902 95.2665 111.946 95.3111C111.989 95.3557 113.35 95.3846 114.97 95.3752C117.554 95.3602 118.086 95.3104 119.295 94.9695L120.674 94.5808L120.864 93.4447C120.969 92.8197 121.107 91.4504 121.171 90.4016L121.287 88.4945H116.804H112.321L112.315 89.9959ZM122.788 89.9147C122.73 90.6959 122.628 91.8641 122.561 92.5115C122.493 93.1586 122.488 93.6882 122.548 93.6882C122.61 93.6882 123.234 93.3131 123.937 92.8549C125.366 91.9236 127.278 90.3637 128.371 89.2389L129.094 88.4945H125.993H122.892L122.788 89.9147ZM147.496 89.2012C145.874 89.9097 145.154 90.3495 144.294 91.1569C143.227 92.1579 142.815 93.1614 142.82 94.743L142.824 96.0415L143.503 95.2299C144.308 94.268 145.408 93.2012 145.594 93.2012C145.819 93.2012 145.011 95.2117 144.455 96.0365L143.928 96.8175L144.531 96.7196C145.442 96.5715 146.782 95.59 147.62 94.4554C148.508 93.2553 148.944 92.3091 149.176 91.0811C149.367 90.0702 149.22 88.6558 148.925 88.6588C148.819 88.66 148.176 88.904 147.496 89.2012ZM55.3012 89.5224C52.1547 90.6398 50.8509 92.055 50.8509 94.3528V95.3523L52.0678 94.1958C52.7371 93.5593 53.3624 93.039 53.4571 93.039C53.804 93.039 53.2393 94.3004 52.3371 95.5406L51.7572 96.3381L52.3499 96.2419C53.9072 95.9892 55.6137 94.5202 56.5388 92.6368C56.9961 91.7056 57.1052 91.2797 57.1528 90.2429C57.1979 89.2576 57.1625 88.9834 56.9906 88.9909C56.8697 88.9962 56.1094 89.2354 55.3012 89.5224ZM135.47 89.509C135.247 90.9658 136.012 92.9762 137.347 94.4405C138.161 95.3318 139.79 96.285 140.501 96.285C140.891 96.285 140.89 96.279 140.31 95.4896C139.686 94.6391 139 93.2299 139.14 93.0889C139.277 92.9525 140.068 93.5798 140.988 94.5536L141.839 95.4539L141.836 94.3682C141.83 92.5038 140.955 91.2294 139.001 90.2396C138.131 89.799 135.965 88.9814 135.666 88.9814C135.603 88.9814 135.515 89.2187 135.47 89.509ZM128.702 93.0597C126.295 95.2493 123.282 97.0786 119.944 98.3759C116.303 99.7906 113.606 100.343 110.343 100.342C108.25 100.341 107.132 100.194 102.346 99.2909C94.5629 97.822 88.7111 97.596 83.6699 98.5693C78.8076 99.5082 73.7938 101.979 70.0779 105.267L69.0066 106.214L69.6012 107.052C71.1056 109.171 73.8561 112.185 75.2734 113.266L75.8647 113.718L76.2031 113.238C76.8434 112.33 79.4797 109.718 80.6971 108.785C82.9514 107.058 85.6867 105.557 88.4788 104.515C92.2034 103.126 93.6336 102.948 102.427 102.775C106.397 102.697 110.229 102.553 110.942 102.455C116.359 101.709 121.052 100.132 124.971 97.7402C126.542 96.7814 128.848 95.0213 129.319 94.4218C129.59 94.0769 129.974 92.3014 129.81 92.1504C129.781 92.123 129.282 92.5322 128.702 93.0597ZM55.9576 97.5548C54.3109 98.958 53.8351 99.5257 53.2368 100.801C52.8109 101.709 52.7645 101.953 52.8361 102.911C52.8807 103.507 53.0227 104.249 53.1516 104.559L53.3861 105.124L54.1865 103.512C55.143 101.585 55.4928 101.326 55.3363 102.658C55.2783 103.152 55.0924 104.002 54.9232 104.546C54.7537 105.091 54.6478 105.536 54.6874 105.536C54.9521 105.536 55.7495 104.973 56.1802 104.482C57.4314 103.056 58.2436 100.656 58.1035 98.7978C58.0275 97.7861 57.5976 96.4472 57.3489 96.4472C57.2986 96.4472 56.6723 96.9456 55.9576 97.5548ZM134.953 97.056C134.279 98.438 134.503 101.102 135.451 102.974C136.057 104.171 137.421 105.536 138.011 105.536C138.055 105.536 137.946 105.116 137.768 104.603C137.59 104.089 137.406 103.195 137.359 102.615L137.272 101.56L137.612 101.966C137.91 102.322 138.504 103.471 139.039 104.725L139.212 105.13L139.506 104.481C139.704 104.042 139.8 103.438 139.802 102.615C139.804 101.24 139.434 100.337 138.354 99.0849C137.836 98.4836 135.488 96.4472 135.314 96.4472C135.278 96.4472 135.116 96.7213 134.953 97.056ZM44.4251 101.984C44.8707 104.854 48.6215 107.745 51.2573 107.251L51.8465 107.14L51.2269 106.687C50.4998 106.156 49.0668 104.648 49.0668 104.414C49.0668 104.104 50.738 104.838 52.2547 105.815C52.6001 106.038 52.6026 106.032 52.4498 105.342C52.0625 103.593 51.0557 102.417 49.404 101.784C48.7127 101.519 48.0047 101.417 46.4068 101.354L44.3144 101.272L44.4251 101.984ZM144.328 101.485C142.279 101.891 140.938 103.034 140.377 104.854C140.197 105.435 140.071 105.93 140.096 105.955C140.12 105.98 140.541 105.755 141.03 105.456C142.134 104.782 143.623 104.182 143.623 104.412C143.623 104.669 142.024 106.307 141.39 106.7C140.902 107.001 140.866 107.065 141.11 107.201C141.612 107.483 143.166 107.252 144.275 106.732C146.283 105.789 147.929 103.803 148.257 101.925L148.363 101.316L146.683 101.334C145.758 101.344 144.699 101.412 144.328 101.485ZM126.188 102.391C124.836 103.341 121.612 104.842 119.295 105.599C115.824 106.735 113.602 107.135 106.158 107.965C100.844 108.557 98.4343 108.944 95.9764 109.599C91.8097 110.71 88.4352 112.492 85.9491 114.893C84.8793 115.926 83.2888 117.902 83.2888 118.198C83.2888 118.576 87.4588 119.967 90.3389 120.551C93.1689 121.124 93.1679 121.125 93.7373 120.11C94.4393 118.859 96.6161 116.683 98.2778 115.571C101.676 113.297 104.885 112.013 110.813 110.557C115.496 109.407 120.17 107.706 124.153 105.702L125.42 105.065L126.257 103.434C126.718 102.537 127.073 101.807 127.047 101.812C127.021 101.817 126.634 102.077 126.188 102.391ZM59.0004 105.739C57.8356 108.059 57.6649 108.625 57.6637 110.17C57.6627 111.473 58.1113 112.594 58.9591 113.407L59.4468 113.874L59.4482 112.992C59.4497 111.921 59.7371 110.053 59.9305 109.857C60.143 109.643 60.5819 111.31 60.5846 112.342C60.5884 113.661 60.7758 113.842 61.3061 113.04C62.4781 111.268 62.6715 107.907 61.7248 105.76C61.4429 105.12 60.3417 103.751 60.1094 103.751C60.0486 103.751 59.5494 104.646 59.0004 105.739ZM131.893 104.39C131.145 105.219 130.865 105.778 130.57 107.029C130.124 108.919 130.314 111.04 131.061 112.525C131.709 113.812 131.884 113.817 132.013 112.557C132.139 111.319 132.413 110.07 132.605 109.857C132.797 109.644 133.06 110.8 133.183 112.402L133.292 113.824L133.676 113.463C133.887 113.265 134.277 112.666 134.544 112.133C134.934 111.352 135.027 110.959 135.027 110.095C135.026 109.507 134.95 108.733 134.857 108.376C134.666 107.642 132.751 103.751 132.581 103.751C132.52 103.751 132.21 104.039 131.893 104.39ZM64.235 114.179C63.6733 116.053 63.5906 116.537 63.5868 117.952C63.5816 120.003 63.9427 120.908 65.2391 122.094C66.1616 122.938 66.504 123.099 66.3545 122.618C66.0006 121.482 65.8217 118.52 66.1068 118.52C66.3438 118.52 67.1988 120.451 67.4478 121.548C67.6133 122.277 67.6885 122.404 67.844 122.216C69.2351 120.539 68.6639 115.69 66.8178 113.505C66.3752 112.982 65.187 112.028 64.9769 112.028C64.9231 112.028 64.5891 112.996 64.235 114.179ZM127.161 112.327C125.014 113.643 123.59 117.521 124.155 120.516C124.359 121.603 124.901 122.681 125.022 122.245C125.482 120.597 126.019 119.115 126.264 118.813C126.554 118.458 126.575 118.454 126.689 118.747C126.804 119.043 126.513 122.175 126.326 122.664C126.16 123.096 126.547 122.912 127.379 122.164C128.953 120.747 129.49 118.741 128.961 116.248C128.655 114.804 127.844 112.029 127.729 112.029C127.684 112.029 127.429 112.163 127.161 112.327ZM50.3642 112.685C49.5169 112.85 48.8104 112.989 48.7942 112.994C48.692 113.022 49.1179 114.116 49.4558 114.693C50.8927 117.146 54.9486 118.728 57.3442 117.768L58.0053 117.504L56.8889 116.964C56.2751 116.666 55.45 116.124 55.0552 115.758L54.3378 115.094L55.1489 115.2C55.5948 115.258 56.5041 115.478 57.1693 115.689C57.8346 115.9 58.4098 116.041 58.4479 116.003C58.4858 115.965 58.3208 115.532 58.0809 115.042C57.5555 113.967 56.4568 112.957 55.4353 112.608C54.4432 112.27 52.3329 112.302 50.3642 112.685ZM137.459 112.504C136.194 112.89 134.991 114.036 134.427 115.394L134.105 116.169L135.447 115.72C136.185 115.473 137.141 115.23 137.571 115.18L138.352 115.09L137.635 115.757C137.24 116.123 136.421 116.663 135.815 116.957L134.712 117.491L135.281 117.762C136.071 118.139 137.812 118.114 139.13 117.707C140.583 117.258 142.055 116.234 142.901 115.084C143.558 114.191 143.934 113.258 143.721 113.045C143.669 112.993 142.95 112.818 142.124 112.656C140.599 112.358 138.198 112.279 137.459 112.504ZM71.6716 118.95C71.5009 119.631 71.7389 124.032 71.9975 124.975C72.3375 126.213 73.0863 127.452 73.8526 128.042C74.4918 128.534 76.2809 129.32 76.4277 129.173C76.4666 129.134 76.2789 128.668 76.0108 128.136C75.472 127.068 74.8549 125.341 74.8549 124.901C74.8549 124.444 76.3557 126.035 77.0592 127.239C77.7829 128.477 77.907 128.374 77.9252 126.522C77.9553 123.444 75.688 119.808 73.1454 118.856C71.9818 118.421 71.8017 118.432 71.6716 118.95ZM119.183 119.007C116.77 120.214 114.739 123.564 114.707 126.392C114.7 127.017 114.751 127.7 114.821 127.91C114.939 128.263 114.996 128.213 115.571 127.261C116.301 126.049 117.588 124.556 117.758 124.722C117.949 124.908 117.537 126.285 116.85 127.753C116.5 128.502 116.213 129.142 116.213 129.176C116.213 129.305 117.135 129.009 117.856 128.648C120.124 127.514 120.931 125.589 120.973 121.214L120.998 118.601L120.592 118.554C120.368 118.527 119.735 118.732 119.183 119.007ZM59.0413 121.744C58.1364 122.021 56.2205 122.763 55.1928 123.235L54.7502 123.438L55.1078 124.075C55.5836 124.922 56.783 126.026 57.7746 126.528C59.9021 127.607 62.6927 127.751 64.4095 126.87C64.9218 126.607 65.3654 126.317 65.3956 126.226C65.4255 126.135 65.01 125.977 64.4725 125.875C63.4206 125.674 61.3931 124.803 61.3931 124.551C61.3931 124.307 62.6453 124.235 64.2166 124.387C65.0113 124.465 65.6971 124.492 65.741 124.448C65.8621 124.327 64.9654 123.097 64.4242 122.641C63.0585 121.491 60.9918 121.147 59.0413 121.744ZM129.832 121.68C129.428 121.811 128.804 122.169 128.446 122.476C127.755 123.067 126.814 124.313 126.952 124.451C126.998 124.497 127.647 124.465 128.395 124.381C129.79 124.224 131.297 124.304 131.297 124.534C131.297 124.836 128.591 125.869 127.405 126.02C127.019 126.069 127.032 126.094 127.673 126.527C129.958 128.071 134.062 127.607 136.34 125.548C137.092 124.867 137.895 123.588 137.685 123.406C137.479 123.227 135.625 122.446 134.298 121.978C132.871 121.476 130.878 121.343 129.832 121.68ZM81.185 123.673C81.197 124.38 81.9915 128.107 82.3092 128.946C83.2283 131.372 85.2 132.94 87.1209 132.771L87.6878 132.721L87.0152 131.829C86.211 130.762 85.1591 128.745 85.4066 128.745C85.7512 128.745 86.9781 129.712 87.9066 130.716L88.8504 131.736L88.7701 130.483C88.6572 128.724 87.8745 127.166 86.2982 125.563C84.8409 124.08 83.5101 123.389 82.1128 123.389C81.3311 123.389 81.181 123.435 81.185 123.673ZM109.158 123.589C107.523 124.173 105.548 126.097 104.587 128.043C104.081 129.067 103.961 129.501 103.911 130.481L103.851 131.672L104.918 130.566C105.99 129.455 107.293 128.549 107.293 128.915C107.293 129.228 106.363 130.875 105.67 131.791C105.314 132.262 105.022 132.682 105.022 132.725C105.022 132.889 106.429 132.778 107.018 132.568C108.57 132.014 109.754 130.665 110.452 128.655C110.789 127.684 111.51 124.242 111.51 123.604C111.51 123.338 109.889 123.328 109.158 123.589ZM69.0973 128.801C67.7254 129.256 63.8261 131.545 63.8261 131.895C63.8261 132.005 64.084 132.396 64.399 132.765C65.0773 133.558 66.8153 134.478 68.1625 134.758C69.4641 135.029 71.7904 134.875 72.9213 134.443C73.7956 134.11 75.1794 133.097 75.1794 132.79C75.1794 132.708 74.7739 132.64 74.2788 132.64C73.2368 132.64 71.2948 132.232 70.8756 131.926C70.6134 131.734 70.6366 131.698 71.1403 131.52C71.5873 131.362 74.1484 131.046 75.1724 131.023C75.5133 131.015 74.1061 129.615 73.2443 129.105C72.6462 128.751 72.2931 128.672 71.136 128.633C70.2897 128.604 69.492 128.67 69.0973 128.801ZM119.666 128.98C119.201 129.197 118.471 129.725 118.044 130.154L117.268 130.935L118.403 131.055C120.103 131.236 121.625 131.502 121.888 131.665C122.071 131.778 122.017 131.85 121.641 131.994C120.596 132.393 119.339 132.641 118.328 132.647L117.268 132.653L118.022 133.348C119.035 134.282 120.318 134.762 122.087 134.87C123.766 134.973 125.185 134.73 126.423 134.126C127.315 133.691 128.864 132.304 128.864 131.941C128.864 131.721 128.802 131.677 126.447 130.251C123.644 128.554 121.459 128.145 119.666 128.98ZM94.3165 131.382C93.1091 132.107 92.4888 133.126 92.3993 134.531C92.3099 135.937 92.6565 136.811 93.664 137.717C95.3624 139.245 97.5143 139.205 99.0925 137.616C100.765 135.932 100.76 133.566 99.081 131.958C98.245 131.158 97.4595 130.855 96.2216 130.855C95.3524 130.855 95.0611 130.936 94.3165 131.382ZM80.7532 133.929C79.8012 134.406 78.996 135.014 77.5813 136.323L75.6853 138.077L76.0908 138.502C76.6928 139.132 78.0655 139.768 79.2325 139.956C82.125 140.422 85.9429 138.948 86.9646 136.971C87.2098 136.497 87.2078 136.491 86.8325 136.6C85.6914 136.934 82.4779 136.894 82.4779 136.545C82.4779 136.306 85.0472 135.342 86.6098 134.995L87.0922 134.888L86.6907 134.565C86.4699 134.387 85.8514 134.028 85.3161 133.766C84.5167 133.375 84.1364 133.289 83.1859 133.289C82.1627 133.289 81.8813 133.363 80.7532 133.929ZM107.772 133.5C107.142 133.736 105.608 134.741 105.715 134.848C105.752 134.885 106.341 135.061 107.025 135.241C108.383 135.597 109.948 136.238 110.114 136.507C110.346 136.884 107.08 136.959 105.874 136.605C105.326 136.444 105.427 136.733 106.229 137.626C107.596 139.148 109.818 140.013 112.321 139.998C114.132 139.987 115.289 139.619 116.338 138.721L117.004 138.15L115.537 136.734C112.883 134.173 111.582 133.424 109.645 133.34C108.83 133.305 108.133 133.364 107.772 133.5ZM75.0546 149.479C74.9681 149.724 73.2373 154.417 71.2078 159.907C68.8827 166.196 67.3842 170.028 67.1565 170.266C66.9232 170.509 66.5417 170.671 66.0809 170.722C64.7661 170.867 64.637 170.923 64.637 171.339C64.637 172.267 64.5318 172.241 68.4334 172.241C72.2948 172.241 72.4222 172.215 72.4222 171.415C72.4222 170.889 72.1877 170.781 71.0436 170.781C69.9817 170.781 69.665 170.669 69.665 170.296C69.665 170.049 70.5345 167.441 71.3845 165.138L71.6402 164.445L75.54 164.489L79.4398 164.532L80.4551 167.454C81.1743 169.522 81.4223 170.434 81.3056 170.578C81.2085 170.697 80.7601 170.781 80.2184 170.781C79.0294 170.781 78.6441 171.038 78.8602 171.687L79.0177 172.16L83.9315 172.203C87.4219 172.234 88.9097 172.193 89.0677 172.062C89.1898 171.96 89.29 171.668 89.29 171.413C89.29 170.905 89.1848 170.857 87.7716 170.727C87.2973 170.683 86.8622 170.533 86.6803 170.352C86.4575 170.129 78.7475 149.468 78.7475 149.094C78.7475 149.06 77.9518 149.033 76.9794 149.033H75.2111L75.0546 149.479ZM103.238 150.25V151.305H104.86C105.752 151.305 106.495 151.323 106.511 151.345C106.527 151.368 106.582 155.074 106.633 159.582L106.725 167.778L107.159 168.6C107.952 170.104 109.51 171.185 111.63 171.701C113.301 172.107 117.043 172.063 118.699 171.617C121.096 170.971 122.522 169.846 123.182 168.08C123.497 167.237 123.512 166.844 123.512 159.251V151.305H125.134H126.756V150.25V149.195H121.485H116.213V150.25V151.305H117.843H119.472L119.424 159.217L119.376 167.129L118.996 167.902C118.721 168.459 118.404 168.799 117.86 169.118C117.19 169.511 116.909 169.568 115.352 169.621C112.858 169.707 111.644 169.195 111.007 167.791C110.727 167.176 110.706 166.568 110.703 159.217L110.699 151.305H112.24H113.78V150.25V149.195H108.509H103.238V150.25ZM90.848 149.614C90.7939 149.755 90.7496 150.04 90.7496 150.248C90.7496 150.58 90.8515 150.639 91.6011 150.742C92.6336 150.883 93.0478 151.031 93.4006 151.384C93.6441 151.628 93.669 152.51 93.669 160.888V170.124L93.3042 170.356C93.1033 170.483 92.6106 170.636 92.2092 170.696C91.0117 170.874 90.9118 170.929 90.9118 171.408C90.9118 172.237 90.9392 172.241 96.277 172.241H101.253L101.454 171.754C101.713 171.129 101.46 170.781 100.745 170.78C99.9251 170.778 99.0494 170.47 98.7827 170.089C98.5672 169.781 98.5348 168.536 98.5348 160.605V151.474L98.9181 151.223C99.1291 151.085 99.7469 150.893 100.291 150.797C101.36 150.609 101.629 150.312 101.295 149.688C101.123 149.366 100.984 149.357 96.0325 149.357C91.5443 149.357 90.935 149.387 90.848 149.614ZM73.9423 158.014L72.1378 162.909L73.8207 162.955C74.7465 162.98 76.2617 162.98 77.1883 162.955L78.8726 162.909L77.3662 158.07C76.5378 155.408 75.8346 153.205 75.8034 153.175C75.7725 153.144 74.9349 155.322 73.9423 158.014ZM65.1234 174.514V175.163H94.3177H123.512V174.514V173.864H94.3177H65.1234V174.514ZM75.1428 178.5C74.6107 178.788 74.3685 179.203 74.3685 179.823C74.3685 180.557 74.7712 180.951 75.9073 181.33C77.0639 181.715 77.2516 181.876 76.9575 182.23C76.7026 182.537 75.8734 182.53 75.2709 182.216C74.8298 181.986 74.7717 181.991 74.4809 182.282C74.1006 182.662 74.2257 182.91 74.9506 183.213C76.0359 183.667 77.7375 183.382 77.9979 182.702C78.0533 182.558 78.0989 182.165 78.0989 181.829C78.0989 181.054 77.7597 180.74 76.5314 180.376C75.7944 180.157 75.5734 180.017 75.5338 179.745C75.4642 179.269 76.0908 179.122 76.8464 179.438C77.3742 179.659 77.4467 179.656 77.6804 179.397C78.0717 178.964 77.9947 178.792 77.2845 178.508C76.4818 178.186 75.7252 178.183 75.1428 178.5ZM88.7223 178.476C86.8777 179.296 86.6626 182.083 88.3637 183.121C89.0729 183.554 90.4832 183.552 91.1957 183.117C91.8075 182.744 91.8371 182.62 91.4082 182.232C91.1181 181.969 91.0651 181.967 90.7234 182.207C89.8474 182.821 88.5822 182.289 88.3824 181.224C88.1289 179.872 89.2665 178.935 90.5235 179.46C91.1012 179.702 91.1543 179.699 91.4493 179.404C91.8284 179.025 91.7025 178.776 90.9783 178.473C90.3025 178.191 89.3605 178.192 88.7223 178.476ZM100.724 178.393C100.546 178.471 100.229 178.72 100.02 178.945L99.6393 179.355L100.052 179.626C100.445 179.883 100.484 179.88 100.828 179.559C101.352 179.07 102.024 179.148 102.106 179.707C102.194 180.315 102.027 180.56 100.887 181.493C99.8745 182.32 99.6699 182.567 99.6699 182.964V183.44H101.535H103.4V182.953V182.466H102.318H101.237L102.237 181.56C103.196 180.692 103.238 180.621 103.238 179.884C103.238 179.279 103.154 179.036 102.843 178.743C102.411 178.337 101.276 178.149 100.724 178.393ZM105.33 178.615C104.247 179.339 103.879 181.017 104.526 182.286C104.956 183.129 105.486 183.44 106.492 183.44C107.219 183.44 107.394 183.371 107.862 182.903C109.088 181.676 108.934 179.398 107.569 178.565C106.874 178.141 106.01 178.16 105.33 178.615ZM110.271 178.559C109.56 178.992 109.473 179.202 109.85 179.58L110.176 179.906L110.677 179.535C111.103 179.22 111.239 179.193 111.587 179.352C112.391 179.718 111.97 180.523 110.3 181.812C109.579 182.369 109.401 182.598 109.401 182.973V183.44H111.267H113.132V182.953V182.466H112.056H110.981L111.818 181.799C113.046 180.822 113.363 180.067 112.938 179.135C112.545 178.272 111.212 177.984 110.271 178.559ZM114.812 178.559C114.101 178.992 114.014 179.202 114.392 179.58L114.718 179.906L115.219 179.535C115.649 179.217 115.778 179.192 116.139 179.356C116.871 179.69 116.625 180.27 115.24 181.476C114.355 182.247 114.01 182.658 113.973 182.988L113.922 183.44H115.798H117.673V182.953V182.466H116.604H115.535L116.418 181.747C117.434 180.918 117.758 180.292 117.602 179.459C117.4 178.381 115.898 177.896 114.812 178.559ZM79.234 180.924V183.44H79.8017H80.3694V180.924V178.409H79.8017H79.234V180.924ZM81.667 180.924V183.44H82.1534H82.6402V181.898C82.6402 181.05 82.6947 180.358 82.7618 180.359C82.8288 180.361 83.3942 181.052 84.0188 181.894C85.0403 183.272 85.207 183.426 85.6812 183.433L86.2083 183.44V180.924V178.409H85.6468H85.0851L85.0385 179.91L84.9919 181.411L83.8598 179.91C82.8368 178.554 82.6765 178.409 82.1973 178.409H81.667V180.924ZM92.8581 180.924V183.44H94.7232H96.5885V182.953V182.466H95.1996H93.8106L93.8614 181.939L93.9122 181.411L95.0883 181.364L96.264 181.316V180.836V180.357H95.0476H93.8313V179.87V179.383H95.2099H96.5885V178.896V178.409H94.7232H92.8581V180.924ZM105.826 179.518C105.276 179.964 105.184 181.408 105.667 182.02C106.473 183.042 107.548 182.327 107.524 180.785C107.514 180.121 107.435 179.917 107.069 179.601C106.536 179.142 106.309 179.127 105.826 179.518Z" fill="#002E9C"/>
</g>
<g clip-path="url(#clip0_433_137)">
<path d="M212.509 68.2604L211.118 63.5562H200.314L198.923 68.2604H189.928L200.639 35.6576H210.747L221.458 68.2604H212.509ZM202.447 56.3836H208.985L205.693 45.2987L202.447 56.3836ZM235.148 68.959C231.717 68.959 228.873 68.2293 226.617 66.7699C224.36 65.3106 222.783 63.3389 221.887 60.8549L228.981 56.7097C230.187 59.5973 232.32 61.0412 235.38 61.0412C237.915 61.0412 239.182 60.3115 239.182 58.8521C239.182 57.8895 238.456 57.1134 237.003 56.5234C236.385 56.275 235.025 55.8558 232.923 55.2658C229.955 54.3964 227.606 53.1854 225.875 51.633C224.144 50.0494 223.278 47.8604 223.278 45.0658C223.278 42.054 224.345 39.6165 226.477 37.7535C228.641 35.8905 231.331 34.959 234.545 34.959C237.266 34.959 239.677 35.5955 241.779 36.8686C243.881 38.1416 245.488 39.9891 246.601 42.411L239.646 46.5097C238.626 44.0878 236.941 42.8768 234.592 42.8768C233.603 42.8768 232.845 43.0786 232.32 43.4823C231.825 43.886 231.578 44.3983 231.578 45.0193C231.578 45.7334 231.949 46.3389 232.691 46.8357C233.464 47.3325 234.947 47.9069 237.142 48.559C238.719 49.0247 239.986 49.4594 240.944 49.8631C241.903 50.2668 242.954 50.8567 244.097 51.633C245.241 52.3782 246.091 53.3562 246.648 54.5672C247.204 55.7471 247.482 57.1443 247.482 58.759C247.482 61.9572 246.354 64.4567 244.097 66.2576C241.841 68.0586 238.858 68.959 235.148 68.959ZM250.963 35.6576H259.263V68.2604H250.963V35.6576ZM284.63 68.2604L283.239 63.5562H272.435L271.044 68.2604H262.048L272.759 35.6576H282.868L293.579 68.2604H284.63ZM274.568 56.3836H281.106L277.813 45.2987L274.568 56.3836ZM307.371 35.6576H315.671V68.2604H307.371V35.6576ZM339.137 35.6576H347.391V68.2604H340.992L329.539 51.8658V68.2604H321.239V35.6576H327.684L339.137 52.0521V35.6576ZM375.249 35.6576V43.7151H367.227V68.2604H358.927V43.7151H350.905V35.6576H375.249ZM387.023 60.4357H399.588V68.2604H378.723V35.6576H399.356V43.4357H387.023V47.9535H398.197V55.6384H387.023V60.4357ZM420.925 68.2604L415.268 57.7343H412.3V68.2604H404V35.6576H416.983C420.291 35.6576 423.058 36.7288 425.283 38.8713C427.54 40.9827 428.668 43.6686 428.668 46.9288C428.668 48.885 428.173 50.686 427.184 52.3316C426.196 53.9462 424.851 55.2347 423.15 56.1973L429.827 68.2604H420.925ZM412.3 43.3425V50.6549H416.891C417.911 50.686 418.745 50.3599 419.394 49.6768C420.044 48.9936 420.368 48.1087 420.368 47.022C420.368 45.9353 420.044 45.0503 419.394 44.3672C418.745 43.6841 417.911 43.3425 416.891 43.3425H412.3ZM451.116 35.6576H459.37V68.2604H452.971L441.518 51.8658V68.2604H433.218V35.6576H439.663L451.116 52.0521V35.6576ZM484.77 68.2604L483.379 63.5562H472.575L471.184 68.2604H462.189L472.9 35.6576H483.008L493.719 68.2604H484.77ZM474.708 56.3836H481.246L477.954 45.2987L474.708 56.3836ZM516.489 35.6576V43.7151H508.468V68.2604H500.168V43.7151H492.146V35.6576H516.489ZM519.964 35.6576H528.263V68.2604H519.964V35.6576ZM561.652 64.0686C558.375 67.3288 554.357 68.959 549.596 68.959C544.835 68.959 540.801 67.3288 537.494 64.0686C534.217 60.7772 532.579 56.7408 532.579 51.959C532.579 47.1772 534.217 43.1562 537.494 39.896C540.801 36.6046 544.835 34.959 549.596 34.959C554.357 34.959 558.375 36.6046 561.652 39.896C564.959 43.1562 566.613 47.1772 566.613 51.959C566.613 56.7408 564.959 60.7772 561.652 64.0686ZM543.337 58.3398C545.006 59.9854 547.092 60.8083 549.596 60.8083C552.1 60.8083 554.187 59.9854 555.856 58.3398C557.525 56.6631 558.36 54.5361 558.36 51.959C558.36 49.3819 557.525 47.2704 555.856 45.6247C554.187 43.948 552.1 43.1097 549.596 43.1097C547.092 43.1097 545.006 43.948 543.337 45.6247C541.667 47.2704 540.833 49.3819 540.833 51.959C540.833 54.5361 541.667 56.6631 543.337 58.3398ZM588.825 35.6576H597.078V68.2604H590.68L579.227 51.8658V68.2604H570.927V35.6576H577.372L588.825 52.0521V35.6576ZM622.48 68.2604L621.089 63.5562H610.285L608.894 68.2604H599.899L610.61 35.6576H620.718L631.429 68.2604H622.48ZM612.418 56.3836H618.956L615.664 45.2987L612.418 56.3836ZM642.553 60.2028H653.728V68.2604H634.253V35.6576H642.553V60.2028ZM214.456 114.743C212.076 116.823 209 117.863 205.229 117.863C201.458 117.863 198.367 116.823 195.956 114.743C193.575 112.662 192.385 109.899 192.385 106.452V84.5617H200.685V105.66C200.685 108.393 202.2 109.759 205.229 109.759C208.259 109.759 209.773 108.393 209.773 105.66V84.5617H218.073V106.452C218.073 109.899 216.868 112.662 214.456 114.743ZM241.229 84.5617H249.483V117.164H243.084L231.631 100.77V117.164H223.331V84.5617H229.776L241.229 100.956V84.5617ZM255.084 84.5617H263.384V117.164H255.084V84.5617ZM276.88 117.164L266.401 84.5617H275.489L281.795 107.011L288.147 84.5617H297.236L286.756 117.164H276.88ZM308.551 109.34H321.117V117.164H300.251V84.5617H320.885V92.3398H308.551V96.8576H319.726V104.543H308.551V109.34ZM342.453 117.164L336.797 106.638H333.829V117.164H325.529V84.5617H338.512C341.819 84.5617 344.586 85.633 346.812 87.7754C349.069 89.8868 350.197 92.5727 350.197 95.833C350.197 97.7891 349.702 99.5901 348.713 101.236C347.724 102.85 346.38 104.139 344.679 105.101L351.356 117.164H342.453ZM333.829 92.2467V99.559H338.419C339.44 99.5901 340.274 99.264 340.923 98.5809C341.572 97.8978 341.897 97.0128 341.897 95.9261C341.897 94.8394 341.572 93.9545 340.923 93.2713C340.274 92.5882 339.44 92.2467 338.419 92.2467H333.829ZM365.839 117.863C362.408 117.863 359.564 117.133 357.308 115.674C355.052 114.215 353.475 112.243 352.578 109.759L359.672 105.614C360.878 108.501 363.011 109.945 366.071 109.945C368.606 109.945 369.873 109.216 369.873 107.756C369.873 106.794 369.148 106.017 367.694 105.427C367.076 105.179 365.716 104.76 363.614 104.17C360.646 103.3 358.297 102.09 356.566 100.537C354.835 98.9535 353.969 96.7645 353.969 93.9699C353.969 90.958 355.035 88.5206 357.168 86.6576C359.333 84.7946 362.022 83.8631 365.236 83.8631C367.957 83.8631 370.368 84.4997 372.47 85.7727C374.573 87.0457 376.179 88.8932 377.292 91.3151L370.337 95.4138C369.317 92.9919 367.633 91.7809 365.283 91.7809C364.294 91.7809 363.537 91.9827 363.011 92.3864C362.517 92.7901 362.269 93.3024 362.269 93.9234C362.269 94.6375 362.64 95.243 363.382 95.7398C364.155 96.2366 365.639 96.811 367.833 97.4631C369.41 97.9288 370.678 98.3635 371.635 98.7672C372.594 99.1709 373.645 99.7608 374.788 100.537C375.932 101.282 376.782 102.26 377.339 103.471C377.895 104.651 378.173 106.048 378.173 107.663C378.173 110.861 377.045 113.361 374.788 115.162C372.532 116.963 369.549 117.863 365.839 117.863ZM381.654 84.5617H389.954V117.164H381.654V84.5617ZM417.779 84.5617V92.6193H409.757V117.164H401.457V92.6193H393.435V84.5617H417.779ZM448.888 84.5617L437.945 104.636V117.164H429.645V104.729L418.702 84.5617H428.022L433.772 96.6247L439.568 84.5617H448.888Z" fill="#002E9C"/>
<path d="M190 139.467H194.61V162.827H190V139.467ZM212.803 139.467H217.414V162.827H213.906L203.884 148.544V162.827H199.273V139.467H202.781L212.803 153.717V139.467ZM237.553 139.467V143.872H231.239V162.827H226.629V143.872H220.348V139.467H237.553ZM245.071 158.422H254.927V162.827H240.461V139.467H254.76V143.872H245.071V148.844H253.924V153.183H245.071V158.422ZM271.339 162.827L266.628 154.718H263.121V162.827H258.51V139.467H267.865C270.025 139.467 271.862 140.224 273.377 141.736C274.891 143.249 275.649 145.074 275.649 147.209C275.649 148.655 275.236 150.002 274.412 151.247C273.588 152.471 272.497 153.394 271.139 154.017L276.317 162.827H271.339ZM263.121 143.772V150.68H267.865C268.733 150.68 269.479 150.346 270.103 149.679C270.726 148.989 271.038 148.166 271.038 147.209C271.038 146.252 270.726 145.441 270.103 144.773C269.479 144.106 268.733 143.772 267.865 143.772H263.121ZM292.895 139.467H297.506V162.827H293.998L283.976 148.544V162.827H279.365V139.467H282.873L292.895 153.717V139.467ZM317.211 162.827L315.808 158.622H306.487L305.084 162.827H300.107L308.291 139.467H314.004L322.222 162.827H317.211ZM307.957 154.317H314.372L311.164 144.773L307.957 154.317ZM338.598 139.467V143.872H332.284V162.827H327.674V143.872H321.393V139.467H338.598ZM341.506 139.467H346.116V162.827H341.506V139.467ZM370.456 159.79C368.096 162.126 365.223 163.294 361.837 163.294C358.452 163.294 355.579 162.126 353.218 159.79C350.879 157.431 349.71 154.551 349.71 151.147C349.71 147.743 350.879 144.873 353.218 142.537C355.579 140.179 358.452 139 361.837 139C365.223 139 368.096 140.179 370.456 142.537C372.817 144.873 373.997 147.743 373.997 151.147C373.997 154.551 372.817 157.431 370.456 159.79ZM356.458 156.653C357.907 158.078 359.699 158.789 361.837 158.789C363.975 158.789 365.768 158.078 367.215 156.653C368.664 155.208 369.387 153.372 369.387 151.147C369.387 148.922 368.664 147.086 367.215 145.641C365.768 144.195 363.975 143.472 361.837 143.472C359.699 143.472 357.907 144.195 356.458 145.641C355.011 147.086 354.287 148.922 354.287 151.147C354.287 153.372 355.011 155.208 356.458 156.653ZM391.102 139.467H395.712V162.827H392.204L382.182 148.544V162.827H377.572V139.467H381.079L391.102 153.717V139.467ZM415.418 162.827L414.015 158.622H404.695L403.292 162.827H398.314L406.499 139.467H412.211L420.43 162.827H415.418ZM406.165 154.317H412.579L409.372 144.773L406.165 154.317ZM427.644 158.422H436.564V162.827H423.034V139.467H427.644V158.422ZM452.814 158.422H462.669V162.827H448.203V139.467H462.502V143.872H452.814V148.844H461.667V153.183H452.814V158.422ZM475.54 139.467C478.747 139.467 481.42 140.591 483.558 142.838C485.717 145.084 486.799 147.854 486.799 151.147C486.799 154.44 485.717 157.21 483.558 159.456C481.42 161.703 478.747 162.827 475.54 162.827H466.253V139.467H475.54ZM475.54 158.422C477.566 158.422 479.215 157.755 480.484 156.42C481.754 155.062 482.389 153.305 482.389 151.147C482.389 148.989 481.754 147.243 480.484 145.908C479.215 144.55 477.566 143.872 475.54 143.872H470.863V158.422H475.54ZM498.959 163.294C496.353 163.294 494.215 162.56 492.545 161.092C490.874 159.623 490.039 157.654 490.039 155.185V139.467H494.616V154.818C494.616 156.042 494.961 157.01 495.652 157.721C496.364 158.433 497.466 158.789 498.959 158.789C500.45 158.789 501.542 158.433 502.233 157.721C502.945 157.01 503.302 156.042 503.302 154.818V139.467H507.912V155.185C507.912 157.654 507.077 159.623 505.407 161.092C503.736 162.56 501.586 163.294 498.959 163.294ZM523.491 163.294C519.971 163.294 517.064 162.126 514.771 159.79C512.477 157.454 511.33 154.574 511.33 151.147C511.33 147.699 512.477 144.817 514.771 142.504C517.064 140.168 519.971 139 523.491 139C525.606 139 527.554 139.501 529.337 140.502C531.141 141.481 532.544 142.815 533.546 144.506L529.571 146.809C528.991 145.764 528.168 144.951 527.099 144.373C526.03 143.772 524.827 143.472 523.491 143.472C521.219 143.472 519.382 144.183 517.978 145.607C516.597 147.032 515.907 148.878 515.907 151.147C515.907 153.394 516.597 155.229 517.978 156.653C519.382 158.078 521.219 158.789 523.491 158.789C524.827 158.789 526.03 158.499 527.099 157.921C528.189 157.321 529.014 156.509 529.571 155.485L533.546 157.788C532.544 159.479 531.152 160.825 529.37 161.826C527.588 162.804 525.629 163.294 523.491 163.294ZM551.648 162.827L550.245 158.622H540.924L539.521 162.827H534.543L542.728 139.467H548.441L556.659 162.827H551.648ZM542.394 154.317H548.808L545.601 144.773L542.394 154.317ZM573.034 139.467V143.872H566.722V162.827H562.111V143.872H555.831V139.467H573.034ZM575.942 139.467H580.552V162.827H575.942V139.467ZM604.893 159.79C602.532 162.126 599.659 163.294 596.274 163.294C592.889 163.294 590.016 162.126 587.655 159.79C585.316 157.431 584.147 154.551 584.147 151.147C584.147 147.743 585.316 144.873 587.655 142.537C590.016 140.179 592.889 139 596.274 139C599.659 139 602.532 140.179 604.893 142.537C607.254 144.873 608.434 147.743 608.434 151.147C608.434 154.551 607.254 157.431 604.893 159.79ZM590.895 156.653C592.342 158.078 594.136 158.789 596.274 158.789C598.412 158.789 600.205 158.078 601.653 156.653C603.1 155.208 603.824 153.372 603.824 151.147C603.824 148.922 603.1 147.086 601.653 145.641C600.205 144.195 598.412 143.472 596.274 143.472C594.136 143.472 592.342 144.195 590.895 145.641C589.448 147.086 588.724 148.922 588.724 151.147C588.724 153.372 589.448 155.208 590.895 156.653ZM625.539 139.467H630.149V162.827H626.641L616.619 148.544V162.827H612.009V139.467H615.517L625.539 153.717V139.467ZM649.854 162.827L648.451 158.622H639.13L637.727 162.827H632.75L640.935 139.467H646.647L654.865 162.827H649.854ZM640.6 154.317H647.015L643.808 144.773L640.6 154.317ZM662.08 158.422H671V162.827H657.47V139.467H662.08V158.422ZM190 174.173H194.61V197.533H190V174.173ZM212.803 174.173H217.414V197.533H213.906L203.884 183.25V197.533H199.273V174.173H202.781L212.803 188.423V174.173ZM229.711 198C227.395 198 225.446 197.489 223.865 196.465C222.284 195.42 221.17 194.006 220.524 192.227L224.466 189.924C225.379 192.304 227.172 193.495 229.845 193.495C231.137 193.495 232.083 193.261 232.684 192.794C233.286 192.327 233.586 191.737 233.586 191.025C233.586 190.202 233.219 189.568 232.484 189.123C231.749 188.656 230.435 188.156 228.542 187.622C227.495 187.311 226.604 186.998 225.869 186.687C225.157 186.376 224.433 185.964 223.698 185.452C222.985 184.919 222.439 184.251 222.061 183.45C221.682 182.649 221.493 181.715 221.493 180.647C221.493 178.534 222.239 176.853 223.731 175.608C225.246 174.34 227.061 173.706 229.177 173.706C231.07 173.706 232.729 174.173 234.154 175.107C235.602 176.019 236.727 177.299 237.529 178.945L233.653 181.181C232.718 179.179 231.226 178.178 229.177 178.178C228.219 178.178 227.462 178.401 226.905 178.845C226.37 179.268 226.103 179.823 226.103 180.514C226.103 181.248 226.404 181.848 227.005 182.316C227.629 182.76 228.809 183.25 230.546 183.784C231.259 184.007 231.794 184.184 232.15 184.318C232.529 184.429 233.03 184.618 233.653 184.885C234.299 185.129 234.789 185.363 235.123 185.586C235.48 185.809 235.881 186.109 236.326 186.487C236.771 186.865 237.105 187.255 237.328 187.655C237.573 188.055 237.774 188.545 237.929 189.123C238.108 189.68 238.197 190.291 238.197 190.959C238.197 193.117 237.406 194.83 235.825 196.098C234.266 197.366 232.228 198 229.711 198ZM256.157 174.173V178.578H249.843V197.533H245.233V178.578H238.952V174.173H256.157ZM259.065 174.173H263.675V197.533H259.065V174.173ZM283.806 174.173V178.578H277.492V197.533H272.882V178.578H266.601V174.173H283.806ZM295.433 198C292.827 198 290.689 197.266 289.019 195.797C287.348 194.329 286.513 192.36 286.513 189.891V174.173H291.09V189.524C291.09 190.748 291.435 191.716 292.126 192.427C292.839 193.139 293.941 193.495 295.433 193.495C296.925 193.495 298.017 193.139 298.707 192.427C299.42 191.716 299.776 190.748 299.776 189.524V174.173H304.386V189.891C304.386 192.36 303.551 194.329 301.881 195.797C300.21 197.266 298.061 198 295.433 198ZM324.341 174.173V178.578H318.027V197.533H313.417V178.578H307.136V174.173H324.341ZM327.249 174.173H331.859V197.533H327.249V174.173ZM356.199 194.496C353.839 196.832 350.966 198 347.58 198C344.195 198 341.322 196.832 338.961 194.496C336.622 192.137 335.453 189.257 335.453 185.853C335.453 182.449 336.622 179.579 338.961 177.243C341.322 174.885 344.195 173.706 347.58 173.706C350.966 173.706 353.839 174.885 356.199 177.243C358.56 179.579 359.74 182.449 359.74 185.853C359.74 189.257 358.56 192.137 356.199 194.496ZM342.201 191.359C343.65 192.783 345.442 193.495 347.58 193.495C349.718 193.495 351.511 192.783 352.958 191.359C354.407 189.914 355.13 188.078 355.13 185.853C355.13 183.628 354.407 181.792 352.958 180.347C351.511 178.901 349.718 178.178 347.58 178.178C345.442 178.178 343.65 178.901 342.201 180.347C340.754 181.792 340.03 183.628 340.03 185.853C340.03 188.078 340.754 189.914 342.201 191.359ZM376.845 174.173H381.455V197.533H377.947L367.925 183.25V197.533H363.315V174.173H366.822L376.845 188.423V174.173Z" fill="#002E9C"/>
</g>
<defs>
<clipPath id="clip0_433_137">
<rect width="466" height="170" fill="white" transform="translate(189 31)"/>
</clipPath>
</defs>
</svg>
