<svg width="263" height="82" viewBox="0 0 263 82" fill="none" xmlns="http://www.w3.org/2000/svg">
<g clip-path="url(#clip0_69_3)">
<path fill-rule="evenodd" clip-rule="evenodd" d="M30.5563 0.461234C27.7443 1.98537 26.1778 2.73327 22.5186 4.29876C15.668 7.22959 7.88651 10.1122 2.2128 11.8209L0.0325311 12.4775L0.0467192 16.2852C0.0545291 18.3795 0.105879 23.6247 0.160874 27.9413C0.215804 32.2578 0.303665 39.1747 0.355992 43.3122C0.459018 51.4531 0.475353 52.0686 0.624718 53.4401C1.48967 61.3792 5.83406 67.8785 13.8576 73.2366C17.6359 75.7597 21.7239 77.8044 30.9142 81.768L31.4675 82.0066L34.2985 80.7609C43.452 76.733 47.353 74.6495 51.2657 71.6988C53.0797 70.3308 55.3314 68.2143 56.5901 66.6942C60.2285 62.3001 62.1074 57.5321 62.4161 51.9095C62.4545 51.211 62.5423 46.1698 62.6113 40.707C62.9409 14.6069 62.966 12.9668 63.0013 15.2733L63.0351 17.4877L63.0501 14.9778C63.0648 12.5103 63.0629 12.4676 62.9351 12.458C62.6956 12.4399 58.497 11.1494 56.6544 10.5275C51.15 8.6697 43.6355 5.74349 38.4112 3.42359C36.0597 2.37934 35.1748 1.95033 33.2271 0.910769C32.2887 0.409846 31.4943 0.000627271 31.4617 0.00134371C31.4291 0.00206015 31.0216 0.208982 30.5563 0.461234ZM30.4261 3.33091C25.2224 6.1251 11.836 11.4613 4.06766 13.838L2.50567 14.316L2.48621 14.6416C2.46949 14.9216 2.5701 23.2995 2.86324 46.0477C2.94622 52.4879 3.01572 53.5653 3.48334 55.6565C3.87924 57.4271 4.34113 58.72 5.20497 60.4757C5.88769 61.8631 6.86842 63.4183 7.76057 64.5284C11.0768 68.6543 15.9022 72.1279 23.022 75.5147C25.6689 76.7738 31.2887 79.2645 31.4825 79.2645C31.7025 79.2645 38.1971 76.3561 40.6949 75.1391C50.0866 70.563 55.5736 65.6292 58.2357 59.367C59.0765 57.3892 59.5776 55.4701 59.8515 53.1795C59.9662 52.2198 60.0176 49.4199 60.2309 32.5004C60.3197 25.4614 60.4117 18.4956 60.4353 17.0209L60.4784 14.3396L59.803 14.1349C51.3747 11.5809 37.8448 6.22637 32.428 3.30121C31.9182 3.0259 31.4789 2.80204 31.4518 2.80367C31.4246 2.80537 30.9631 3.04264 30.4261 3.33091ZM30.4912 5.50896C26.852 7.40655 18.4199 10.8984 10.9783 13.5896C9.05448 14.2852 5.02899 15.6413 4.63251 15.7273L4.41643 15.7741L4.45704 18.0638C4.47937 19.3231 4.55415 24.911 4.6232 30.4814C4.86264 49.7924 4.88438 51.23 4.94985 52.1049C5.51177 59.6127 9.61035 65.4897 17.7676 70.4844C20.153 71.945 22.919 73.3654 26.6188 75.0298C28.9184 76.0642 31.3843 77.137 31.4591 77.1353C31.5588 77.1331 35.3833 75.4511 37.39 74.527C43.0259 71.9314 46.8138 69.6843 49.9184 67.0948C50.8638 66.3062 52.6576 64.513 53.335 63.6795C55.9329 60.4825 57.3603 57.1731 57.8916 53.1144C58.0071 52.232 58.0507 50.1216 58.2162 37.3853C58.2732 32.9971 58.3598 26.3586 58.4085 22.6331C58.4572 18.9076 58.4769 15.8379 58.4521 15.8116C58.4274 15.7853 57.8078 15.5741 57.0753 15.3424C52.4474 13.8781 44.3403 10.8004 38.3988 8.25215C36.1099 7.27049 34.9412 6.7372 33.0735 5.82237C32.167 5.37837 31.4202 5.01937 31.4139 5.02451C31.4076 5.02966 30.9923 5.24765 30.4912 5.50896ZM0.0296024 15.0127C0.0296024 16.4098 0.0381933 16.9721 0.0487367 16.2622C0.0592801 15.5524 0.059215 14.4093 0.0486716 13.7221C0.0381933 13.0349 0.0295373 13.6157 0.0296024 15.0127ZM21.8706 13.4546C21.5423 13.5972 21.2309 13.8523 21.1176 14.0717C21.063 14.1773 21.0264 14.2634 21.0363 14.263C21.0462 14.2626 21.198 14.2187 21.3737 14.1653C22.0564 13.9581 22.1284 14.0982 21.5016 14.4144L21.0704 14.6319L21.2901 14.7236C21.5968 14.8515 22.021 14.8214 22.2944 14.6523C22.5226 14.5111 23.2345 13.6892 23.2345 13.5668C23.2345 13.3554 22.2802 13.2768 21.8706 13.4546ZM39.8124 13.4553L39.6315 13.5535L39.9426 13.9497C40.3359 14.451 40.6422 14.7047 40.9564 14.7897C41.2006 14.8558 41.3178 14.8422 41.6703 14.7069L41.8505 14.6377L41.5402 14.4904C41.1585 14.3093 40.9554 14.1585 41.014 14.0999C41.0571 14.0566 41.5665 14.1446 41.806 14.2365C41.9204 14.2805 41.9212 14.2728 41.8221 14.0809C41.7186 13.8807 41.3325 13.5815 40.9827 13.4305C40.7294 13.3211 40.0325 13.3359 39.8124 13.4553ZM19.4917 13.799C18.9932 14.0256 18.5483 14.7191 18.496 15.3512C18.4643 15.7334 18.5305 15.7897 18.6915 15.5175C18.8226 15.296 19.121 15.0103 19.1701 15.0594C19.1901 15.0794 19.1316 15.2799 19.0403 15.5049C18.9489 15.7298 18.8866 15.9263 18.9017 15.9415C18.9583 15.9981 19.2152 15.8742 19.4272 15.6878C19.7035 15.4451 19.8272 15.0628 19.8825 14.28C19.9303 13.6036 19.928 13.6007 19.4917 13.799ZM43.0516 14.3362C43.1031 15.0716 43.1961 15.3739 43.4538 15.643C43.6207 15.8174 43.9731 16.0016 44.0304 15.9443C44.0471 15.9276 43.986 15.7298 43.8946 15.5049C43.8033 15.2799 43.7446 15.0797 43.7642 15.0601C43.8155 15.0087 44.0432 15.2292 44.1985 15.4807C44.3682 15.7554 44.4514 15.7549 44.4514 15.479C44.4514 14.7333 43.8319 13.8614 43.1909 13.7051L43.0043 13.6596L43.0516 14.3362ZM30.0356 15.0204C28.0075 15.3086 26.5943 15.7333 25.0568 16.5167C19.9929 19.0971 16.8576 24.4149 17.0729 30.058C17.1589 32.3123 17.6257 34.1666 18.5965 36.1108C21.2194 41.3636 26.7417 44.5469 32.5528 44.1559C34.6518 44.0146 36.3946 43.5415 38.2146 42.6187C40.4714 41.4745 42.3571 39.7965 43.7664 37.6787C45.3105 35.3584 46.1049 32.8594 46.1906 30.0524C46.231 28.728 46.1571 27.8056 45.9131 26.5918C44.8561 21.3324 40.7924 16.9565 35.6104 15.4976C34.2184 15.1056 33.6333 15.0297 31.8579 15.0104C30.9631 15.0007 30.143 15.0052 30.0356 15.0204ZM30.719 15.6724C29.2891 15.8063 27.9617 16.0949 26.8309 16.5177C21.8426 18.383 18.3844 22.8691 17.8273 28.1976C17.7321 29.1074 17.783 30.9152 17.9282 31.784C18.784 36.906 22.3722 41.1413 27.2274 42.7604C32.7793 44.6118 38.8394 42.8142 42.4937 38.232C43.7482 36.659 44.6699 34.7607 45.1373 32.7873C45.6221 30.7404 45.6108 28.1759 45.1082 26.2062C44.6236 24.3068 43.6943 22.4355 42.4538 20.8615C41.9841 20.2655 40.8932 19.1697 40.2861 18.6839C38.3931 17.1692 36.0774 16.1678 33.6138 15.7987C32.9427 15.6981 31.2384 15.6238 30.719 15.6724ZM20.0454 15.8959C19.863 15.973 19.5448 16.2579 19.4538 16.4256C19.3995 16.5257 19.4371 16.5328 19.8662 16.5024L20.3383 16.4691L20.1856 16.6032C20.1015 16.6769 19.9185 16.7715 19.7788 16.8134C19.6391 16.8553 19.5248 16.912 19.5248 16.9394C19.5248 17.0448 20.0128 17.1447 20.3698 17.1122C20.9281 17.0616 21.4237 16.7603 21.6446 16.3373L21.7352 16.1637L21.3296 16.0259C20.8413 15.8599 20.268 15.8019 20.0454 15.8959ZM42.141 15.8712C42.0694 15.8872 41.8282 15.9593 41.605 16.0314L41.1991 16.1626L41.29 16.3367C41.518 16.7734 42.0151 17.0667 42.6078 17.1143C42.9873 17.1447 43.4101 17.0531 43.4101 16.9404C43.4101 16.9168 43.2856 16.8604 43.1335 16.8151C42.9814 16.7699 42.7837 16.6733 42.6942 16.6005L42.5315 16.4682L43.0355 16.5007C43.5974 16.5369 43.6174 16.5013 43.2367 16.1404C42.9418 15.8609 42.5819 15.7724 42.141 15.8712ZM45.6554 16.5673C45.5009 17.5902 45.5729 17.9488 46.02 18.3833C46.3329 18.6873 46.5168 18.7811 46.448 18.6015C46.374 18.4087 46.2617 17.7288 46.2843 17.6112C46.3035 17.5118 46.3379 17.536 46.4614 17.7361C46.5459 17.8727 46.6661 18.1194 46.7285 18.2842L46.8422 18.584L46.9241 18.336C47.1814 17.5557 46.7038 16.3096 46.012 15.9564L45.7666 15.8311L45.6554 16.5673ZM16.636 16.1527C16.2697 16.4906 15.9939 17.0923 15.9575 17.6329C15.9286 18.062 15.9831 18.4973 16.0655 18.4973C16.0926 18.4973 16.1648 18.3581 16.226 18.1879C16.2872 18.0177 16.4091 17.7906 16.4969 17.6831L16.6565 17.4877L16.6588 17.6857C16.6601 17.7946 16.6172 18.0525 16.5635 18.2588C16.448 18.7026 16.4488 18.6927 16.5287 18.6927C16.6488 18.6927 17.06 18.2802 17.1856 18.0339C17.3348 17.7412 17.3573 16.9671 17.2356 16.3066C17.1424 15.7999 17.0454 15.775 16.636 16.1527ZM29.2808 16.9979C27.2953 17.3685 25.4291 18.2071 23.7877 19.466C23.3429 19.8071 22.3233 20.7685 22.3233 20.8467C22.3233 20.9 23.5514 21.8115 23.7897 21.9351C23.9076 21.9963 23.9907 21.9232 24.5589 21.2587C25.6847 19.9421 27.4291 18.4674 29.0697 17.4453C29.9107 16.9213 29.9803 16.876 29.938 16.8789C29.9201 16.8802 29.6244 16.9337 29.2808 16.9979ZM34.2726 17.5745C36.2866 18.9047 37.7842 20.2357 39.1226 21.8854L39.3583 22.176L39.9687 21.705C40.3044 21.4461 40.6663 21.1562 40.773 21.0608L40.967 20.8875L40.4151 20.3689C38.6358 18.697 36.6323 17.6197 34.3311 17.0977C33.1957 16.8401 33.1931 16.8615 34.2726 17.5745ZM30.9007 17.5559C29.7737 18.7649 28.5507 20.565 27.7211 22.2358C27.4012 22.8801 27.1395 23.4591 27.1395 23.5225C27.1395 23.7481 29.3093 24.3345 30.6865 24.4812C30.9728 24.5117 31.2147 24.5306 31.2239 24.5233C31.2332 24.516 31.2332 22.8713 31.2239 20.8686L31.2071 17.2272L30.9007 17.5559ZM31.8924 20.8583L31.8905 24.5544H32.2415C33.1557 24.5544 34.5281 24.3362 35.5898 24.0221C36.0668 23.8809 36.0675 23.8803 36.0289 23.6802C36.0077 23.57 35.713 22.9192 35.3741 22.2341C34.5325 20.5328 33.4258 18.8902 32.1541 17.4552L31.8944 17.1621L31.8924 20.8583ZM28.9963 18.2415C27.7785 19.0607 26.9911 19.6926 26.0427 20.6119C25.3417 21.2914 24.4265 22.3194 24.4793 22.3681C24.5581 22.4406 26.3719 23.317 26.4433 23.317C26.4908 23.317 26.5975 23.1485 26.6803 22.9425C27.2415 21.5461 28.4974 19.48 29.6982 17.9776C29.8706 17.7619 30.0024 17.5856 29.9911 17.5858C29.9798 17.5859 29.5321 17.881 28.9963 18.2415ZM33.1662 17.6564C33.2056 17.707 33.4204 17.9804 33.6435 18.2643C34.7572 19.6807 35.8091 21.5089 36.5996 23.4022L36.6988 23.6399L37.2071 23.3992C37.8306 23.104 38.7069 22.616 38.7558 22.5368C38.8519 22.3813 36.9359 20.3703 35.8605 19.4981C34.9423 18.7533 32.9703 17.4053 33.1662 17.6564ZM14.4214 18.5084C14.0561 18.9355 13.9078 19.3976 13.9023 20.1255C13.8985 20.632 13.9237 20.8013 14.0413 21.0585C14.1977 21.4005 14.3165 21.4107 14.321 21.0824C14.3246 20.8177 14.5253 20.2232 14.611 20.2232C14.6476 20.2232 14.6904 20.4946 14.7087 20.842L14.7412 21.4607L14.9269 21.2653C15.5081 20.6536 15.5158 19.9388 14.9557 18.5787C14.8783 18.3906 14.7786 18.2367 14.7343 18.2367C14.69 18.2367 14.5491 18.359 14.4214 18.5084ZM17.6699 18.2989C17.4778 18.3901 17.2775 18.5722 17.1538 18.7681L17.0444 18.9413L17.5687 18.9054C17.9101 18.882 18.093 18.893 18.093 18.9369C18.093 19.0106 18.0488 19.0329 17.4841 19.2448L17.1031 19.3878L17.3312 19.4961C17.6276 19.6369 18.2997 19.6371 18.7115 19.4966C19.0674 19.3753 19.6108 18.882 19.5777 18.7102C19.5252 18.437 18.0493 18.1188 17.6699 18.2989ZM43.8982 18.4003C43.6477 18.4887 43.405 18.5755 43.359 18.5931C43.2926 18.6185 43.2958 18.6645 43.3739 18.8159C43.514 19.087 43.9064 19.3905 44.2753 19.5132C44.683 19.6486 45.506 19.6191 45.6616 19.4634C45.7595 19.3654 45.756 19.3541 45.6139 19.3147C45.3226 19.234 44.8419 18.9959 44.8419 18.9324C44.8419 18.8929 45.0399 18.884 45.3638 18.909C45.8442 18.9461 45.8809 18.9403 45.825 18.8372C45.7455 18.6906 45.4328 18.4023 45.253 18.3098C45.0108 18.1853 44.3899 18.2268 43.8982 18.4003ZM47.8851 18.8077C47.4431 19.8892 47.4352 20.5633 47.858 21.1164C48.1837 21.5427 48.2187 21.5164 48.24 20.8303C48.2503 20.4964 48.287 20.2232 48.3215 20.2232C48.4026 20.2232 48.6076 20.8765 48.6128 21.1514C48.6185 21.4565 48.7091 21.4125 48.8809 21.0211C49.0858 20.554 49.0839 19.6806 48.8767 19.1287C48.7438 18.7745 48.3252 18.2367 48.1824 18.2367C48.1472 18.2367 48.0134 18.4937 47.8851 18.8077ZM15.9879 20.8719C15.6798 20.9818 15.4506 21.1898 15.2881 21.507C15.22 21.6399 15.1642 21.7629 15.1642 21.7803C15.1642 21.7977 15.3299 21.7549 15.5324 21.6852C15.7349 21.6155 15.9743 21.5584 16.0644 21.5584H16.2283L16.0757 21.7209C15.9918 21.8103 15.7817 21.954 15.6088 22.0402L15.2944 22.197L15.4994 22.2685C16.1486 22.495 17.179 22.0562 17.554 21.3936C17.7929 20.9716 17.7684 20.9328 17.2117 20.8499C16.5817 20.7561 16.2979 20.7612 15.9879 20.8719ZM45.6392 20.856C45.2785 20.9114 45.2324 20.9352 45.2324 21.0658C45.2324 21.2666 45.5653 21.7112 45.8941 21.9496C46.3517 22.2813 47.0219 22.4236 47.4177 22.273L47.594 22.2059L47.2104 21.9759C46.9996 21.8494 46.7841 21.7037 46.7317 21.6521C46.6484 21.5702 46.6614 21.5584 46.8354 21.5584C46.9448 21.5584 47.2 21.6155 47.4025 21.6852C47.605 21.7549 47.7707 21.7977 47.7707 21.7803C47.7707 21.6645 47.4822 21.2206 47.3159 21.0806C46.9625 20.783 46.509 20.7223 45.6392 20.856ZM21.4128 21.8972C20.3369 23.3383 19.564 25.024 19.1756 26.7765C19.0156 27.4988 18.874 28.5487 18.874 29.0134V29.2439H20.0117C21.3177 29.2439 21.1762 29.3296 21.2482 28.4949C21.3905 26.8465 22.1101 24.7919 23.0933 23.2263C23.3142 22.8747 23.4931 22.568 23.4909 22.5449C23.4873 22.5059 21.9768 21.4196 21.8659 21.3761C21.8386 21.3654 21.6347 21.5999 21.4128 21.8972ZM40.9044 21.7614C40.6897 21.9408 40.3346 22.2205 40.1155 22.383L39.717 22.6785L40.1104 23.305C41.1316 24.931 41.8543 27.0068 42.0199 28.7898L42.0621 29.2439H43.1892H44.3164L44.2822 28.8042C44.1339 26.9005 43.7045 25.3201 42.9127 23.7636C42.4341 22.8229 41.4874 21.4197 41.3394 21.4318C41.3149 21.4338 41.1192 21.5821 40.9044 21.7614ZM12.2893 21.7656C11.919 22.3404 11.9586 23.3637 12.3834 24.2003C12.5402 24.5092 13.0556 25.0582 13.1242 24.9895C13.1413 24.9723 13.1256 24.8455 13.0894 24.7076C12.9752 24.2724 12.9264 23.6426 13.007 23.6426C13.0897 23.6426 13.3496 24.1351 13.4711 24.5219C13.5939 24.9128 13.6408 24.9213 13.7734 24.5763C14.0854 23.7647 13.8397 23.0613 12.9268 22.1525L12.3865 21.6146L12.2893 21.7656ZM49.9714 22.1934C49.248 22.9346 49.0423 23.3217 49.0457 23.9357C49.0474 24.2621 49.0854 24.463 49.1791 24.6428L49.3101 24.8941L49.4588 24.48C49.6461 23.9588 49.851 23.6143 49.928 23.6913C49.9925 23.7559 49.8962 24.5632 49.7911 24.8398C49.7009 25.0773 49.8004 25.0578 50.1111 24.7769C50.806 24.1486 51.1092 22.6871 50.7078 21.9004C50.6301 21.7481 50.5578 21.6236 50.5471 21.6236C50.5364 21.6236 50.2774 21.88 49.9714 22.1934ZM23.744 23.3736C23.2714 24.1028 22.6179 25.4644 22.3608 26.2557C22.119 26.9998 21.9073 28.0122 21.8346 28.7717L21.7895 29.2439H23.5208H25.2521V28.9541C25.2521 28.6322 25.4112 27.3245 25.5181 26.7689C25.633 26.1709 25.9527 24.9404 26.1201 24.4516L26.2781 23.9905L25.1721 23.4335L24.0662 22.8765L23.744 23.3736ZM38.7567 23.2944C38.5419 23.4251 38.0399 23.6899 37.6411 23.8828L36.9159 24.2336L37.136 24.9639C37.501 26.1754 37.7445 27.4522 37.8498 28.7066L37.8949 29.2439H39.6437H41.3926V28.9593C41.3926 27.9179 40.7299 25.6655 40.0774 24.4893C39.7793 23.9519 39.2189 23.0564 39.1807 23.0566C39.1623 23.0567 38.9715 23.1637 38.7567 23.2944ZM15.0184 23.8004C14.6437 23.9343 14.4688 24.0727 14.2931 24.3749C14.1188 24.6746 14.0032 25.044 14.0975 25.0006C14.1294 24.9859 14.321 24.897 14.5232 24.8032C14.9995 24.5821 15.1642 24.5315 15.1642 24.6063C15.1642 24.6785 14.5996 25.2161 14.4156 25.3192C14.2189 25.4294 14.3492 25.4938 14.7493 25.4845C15.2067 25.4738 15.7355 25.2237 16.1251 24.8339C16.4217 24.537 16.6572 24.1054 16.6597 23.8543C16.6611 23.7111 16.6449 23.7078 15.9615 23.7106C15.5504 23.7123 15.1614 23.7493 15.0184 23.8004ZM46.2734 23.9338C46.4522 24.7275 47.3619 25.4652 48.1856 25.4845C48.5857 25.4938 48.716 25.4294 48.5193 25.3192C48.3353 25.2161 47.7707 24.6785 47.7707 24.6063C47.7707 24.5277 47.9706 24.5896 48.4528 24.8177C48.667 24.919 48.8543 24.9897 48.8691 24.975C48.9346 24.9093 48.647 24.3286 48.4527 24.134C48.1364 23.8176 47.7415 23.7077 46.9198 23.7077H46.2224L46.2734 23.9338ZM26.8185 24.3508C26.5447 24.8628 26.0101 27.2937 25.9359 28.3646C25.9135 28.687 25.8817 29.0167 25.8653 29.0973L25.8353 29.2439H28.5375H31.2397V27.2064V25.169L30.5343 25.0939C29.5256 24.9867 27.8622 24.5924 26.9657 24.2481C26.9236 24.2319 26.8573 24.2782 26.8185 24.3508ZM35.5026 24.6944C34.6555 24.9421 33.6087 25.1196 32.6552 25.1772L31.8905 25.2235V27.2337V29.2439H34.5589H37.2273V28.9541C37.2273 28.1753 36.9496 26.5751 36.5967 25.3197C36.4178 24.6837 36.3386 24.4911 36.2583 24.4967C36.2006 24.5008 35.8605 24.5897 35.5026 24.6944ZM10.8637 25.9681C10.6663 26.4877 10.7431 27.1596 11.0815 27.8761C11.3241 28.3898 11.8987 28.9873 12.2518 29.0933C12.5253 29.1754 12.5341 29.168 12.4025 28.9648C12.2778 28.7723 11.9577 27.8068 12.0034 27.761C12.0674 27.6971 12.3066 27.9619 12.6296 28.4542C12.9417 28.9298 12.9453 28.9328 12.9952 28.7473C13.0229 28.6443 13.043 28.366 13.0398 28.129C13.0293 27.3487 12.6342 26.8418 11.4879 26.138L10.9294 25.7951L10.8637 25.9681ZM51.4442 26.1205C50.1843 26.872 49.6666 27.7263 49.9146 28.6446L49.9902 28.9246L50.3023 28.4492C50.474 28.1878 50.6774 27.918 50.7545 27.8498C50.8938 27.7263 50.8946 27.7266 50.8946 27.8971C50.8946 28.0853 50.61 28.8882 50.4936 29.0286C50.3914 29.1519 50.4373 29.1684 50.6914 29.0998C51.2421 28.9511 51.9941 27.8479 52.1329 26.9847C52.1948 26.6005 52.1281 25.952 52.0163 25.8509C51.99 25.8272 51.7326 25.9484 51.4442 26.1205ZM15.4246 27.1382C14.0733 27.2347 13.45 27.6678 13.2429 28.6541L13.1958 28.8785L13.3828 28.7547C13.709 28.5386 14.2176 28.2693 14.3019 28.2681C14.4685 28.2657 14.3717 28.424 13.9583 28.8296C13.4882 29.2908 13.5008 29.3581 14.0424 29.278C14.7685 29.1707 15.6127 28.4789 15.8755 27.7758C16.0582 27.2873 16.0548 27.0911 15.8639 27.106C15.7833 27.1122 15.5857 27.1267 15.4246 27.1382ZM46.948 27.3946C47.0647 28.2467 48.0355 29.1695 48.9434 29.2914C49.4238 29.3558 49.4208 29.2847 48.9218 28.7763C48.5832 28.4314 48.4849 28.2953 48.5633 28.2802C48.6729 28.2591 49.124 28.4718 49.515 28.7288L49.7299 28.8702L49.6881 28.6825C49.5315 27.9788 49.2062 27.5692 48.6339 27.355C48.3531 27.2498 47.4544 27.1105 46.9645 27.0963C46.9328 27.0953 46.9254 27.2296 46.948 27.3946ZM10.2571 30.1065C10.0445 31.1703 10.7844 32.5886 11.8118 33.0863C11.9601 33.1581 12.1443 33.2169 12.2213 33.2169C12.356 33.2169 12.3538 33.2059 12.1637 32.924C11.9401 32.5923 11.6234 31.8538 11.6804 31.7968C11.7278 31.7494 12.3871 32.3962 12.5797 32.6791C12.6589 32.7953 12.7492 32.8905 12.7804 32.8908C12.8811 32.8915 12.7886 31.7679 12.6692 31.5406C12.3794 30.9887 11.8604 30.5896 10.8782 30.1633L10.2963 29.9106L10.2571 30.1065ZM18.9045 30.4977C18.967 31.3145 19.0878 32.012 19.1668 32.012C19.2026 32.012 19.6786 31.8659 20.2244 31.6874L21.2169 31.3629V31.1273C21.2169 30.9978 21.198 30.6676 21.1748 30.3935L21.1328 29.8952H19.9956H18.8585L18.9045 30.4977ZM21.8174 30.5158C21.8352 30.8572 21.863 31.1497 21.8791 31.1658C21.8953 31.182 22.2804 31.1224 22.7348 31.0335C23.1893 30.9445 23.9343 30.8346 24.3903 30.7891L25.2195 30.7063L25.2389 30.3008L25.2582 29.8952H23.5216H21.7849L21.8174 30.5158ZM25.8508 30.2697L25.8703 30.6442L27.1395 30.6858C27.8375 30.7086 28.6575 30.761 28.9618 30.8023C29.6001 30.8887 30.9581 31.1206 31.1258 31.1718C31.229 31.2034 31.2397 31.1452 31.2397 30.5509V29.8952H28.5355H25.8313L25.8508 30.2697ZM31.8905 30.6104C31.8905 31.2985 31.896 31.3269 32.0369 31.36C32.1175 31.3789 33.0766 31.6123 34.1684 31.8787C36.1678 32.3665 37.0087 32.546 37.0582 32.4954C37.097 32.4557 37.2126 31.3415 37.2588 30.5628L37.2983 29.8952H34.5944H31.8905V30.6104ZM37.8759 30.4977C37.8746 30.829 37.8337 31.4372 37.7849 31.8491C37.7361 32.2611 37.7102 32.6128 37.7276 32.6307C37.7449 32.6486 38.291 32.6602 38.9412 32.6564C39.9781 32.6504 40.1915 32.6304 40.6766 32.4936L41.2298 32.3376L41.3064 31.8817C41.3485 31.6309 41.4039 31.0814 41.4295 30.6605L41.4761 29.8952H39.6771H37.8781L37.8759 30.4977ZM42.0783 30.4651C42.0552 30.7786 42.0142 31.2474 41.987 31.5072C41.9598 31.7669 41.9577 31.9794 41.9821 31.9794C42.0067 31.9794 42.2574 31.8289 42.5394 31.645C43.1126 31.2713 43.88 30.6453 44.3185 30.1939L44.6087 29.8952H43.3644H42.1202L42.0783 30.4651ZM51.9928 30.1788C51.3422 30.4631 51.0532 30.6396 50.708 30.9636C50.28 31.3653 50.1145 31.768 50.1166 32.4027L50.1182 32.9238L50.3907 32.5981C50.7138 32.2121 51.155 31.784 51.2298 31.784C51.32 31.784 50.9958 32.5908 50.7726 32.9218L50.5613 33.2352L50.8032 33.1959C51.1689 33.1365 51.7064 32.7426 52.0429 32.2873C52.3989 31.8057 52.5739 31.426 52.6669 30.9332C52.7436 30.5275 52.6849 29.9599 52.5665 29.9611C52.524 29.9616 52.2658 30.0595 51.9928 30.1788ZM14.9976 30.3077C13.735 30.7561 13.2118 31.324 13.2118 32.2461V32.6472L13.7001 32.1831C13.9687 31.9277 14.2196 31.7189 14.2576 31.7189C14.3968 31.7189 14.1702 32.2251 13.8082 32.7228L13.5755 33.0428L13.8133 33.0042C14.4382 32.9028 15.123 32.3133 15.4942 31.5575C15.6777 31.1838 15.7215 31.0129 15.7406 30.5968C15.7587 30.2014 15.7445 30.0914 15.6755 30.0944C15.627 30.0965 15.3219 30.1925 14.9976 30.3077ZM47.1672 30.3023C47.0776 30.8869 47.3847 31.6937 47.9205 32.2813C48.2469 32.639 48.9006 33.0215 49.1859 33.0215C49.3426 33.0215 49.342 33.0191 49.1096 32.7023C48.8592 32.361 48.5836 31.7955 48.6401 31.7389C48.6948 31.6842 49.0124 31.9359 49.3816 32.3267L49.7231 32.688L49.7217 32.2523C49.7192 31.5041 49.3681 30.9927 48.5842 30.5955C48.2351 30.4187 47.3657 30.0906 47.246 30.0906C47.2205 30.0906 47.1851 30.1858 47.1672 30.3023ZM44.4515 31.7272C43.4857 32.6059 42.2764 33.34 40.937 33.8606C39.476 34.4283 38.3939 34.65 37.0846 34.6495C36.2444 34.6492 35.7959 34.5903 33.8755 34.2278C30.7523 33.6383 28.4041 33.5476 26.3812 33.9382C24.4301 34.315 22.4182 35.3064 20.9271 36.6258L20.4972 37.0062L20.7358 37.3423C21.3395 38.1928 22.4432 39.402 23.0119 39.8361L23.2492 40.0172L23.385 39.8248C23.6419 39.4604 24.6998 38.4122 25.1883 38.0378C26.0929 37.3446 27.1905 36.7423 28.3109 36.3243C29.8055 35.7668 30.3794 35.6952 33.908 35.626C35.5009 35.5948 37.0385 35.537 37.3249 35.4975C39.4986 35.1981 41.3816 34.5652 42.9541 33.6055C43.5845 33.2207 44.5099 32.5144 44.6991 32.2738C44.8078 32.1354 44.9618 31.4229 44.8961 31.3623C44.8842 31.3513 44.6841 31.5155 44.4515 31.7272ZM15.261 33.5311C14.6002 34.0942 14.4093 34.322 14.1692 34.8337C13.9983 35.198 13.9797 35.2959 14.0084 35.6804C14.0263 35.9196 14.0833 36.2173 14.135 36.3419L14.2291 36.5687L14.5503 35.9218C14.9341 35.1485 15.0745 35.0443 15.0117 35.579C14.9884 35.7773 14.9138 36.1183 14.8459 36.3368C14.7779 36.5552 14.7354 36.734 14.7513 36.734C14.8575 36.734 15.1775 36.5081 15.3503 36.3111C15.8524 35.7389 16.1783 34.7755 16.1221 34.0299C16.0916 33.6239 15.9191 33.0866 15.8193 33.0866C15.7991 33.0866 15.5478 33.2866 15.261 33.5311ZM46.9597 33.3309C46.6892 33.8855 46.7791 34.9546 47.1595 35.7059C47.4026 36.1861 47.9502 36.734 48.1869 36.734C48.2047 36.734 48.1608 36.5655 48.0895 36.3595C48.0181 36.1534 47.9442 35.7944 47.9251 35.5616L47.8904 35.1382L48.0266 35.3011C48.1462 35.4441 48.3847 35.9051 48.5993 36.4083L48.6687 36.5711L48.7866 36.3106C48.8663 36.1344 48.9048 35.8921 48.9054 35.5616C48.9064 35.0098 48.758 34.6477 48.3247 34.1451C48.1166 33.9038 47.1746 33.0866 47.1045 33.0866C47.0903 33.0866 47.0253 33.1966 46.9597 33.3309ZM10.6333 35.3084C10.8121 36.4602 12.3172 37.6206 13.3749 37.4221L13.6113 37.3776L13.3627 37.196C13.0709 36.9828 12.4959 36.3776 12.4959 36.2837C12.4959 36.1591 13.1665 36.4538 13.7751 36.8459C13.9137 36.9352 13.9147 36.9329 13.8534 36.656C13.698 35.9541 13.294 35.4821 12.6312 35.2281C12.3538 35.1218 12.0697 35.0811 11.4285 35.0557L10.5889 35.0226L10.6333 35.3084ZM50.7218 35.1084C49.8995 35.2712 49.3616 35.7298 49.1361 36.4603C49.0642 36.6934 49.0135 36.8922 49.0234 36.9021C49.0333 36.912 49.2021 36.8219 49.3985 36.7019C49.8414 36.4314 50.439 36.1906 50.439 36.2829C50.439 36.3862 49.7972 37.0435 49.5427 37.2009C49.3468 37.322 49.3326 37.3475 49.4304 37.4023C49.6318 37.5151 50.2556 37.4225 50.7005 37.2138C51.5064 36.8356 52.1667 36.0384 52.2983 35.2848L52.341 35.0405L51.6666 35.0477C51.2957 35.0516 50.8705 35.0789 50.7218 35.1084ZM43.4427 35.4718C42.8999 35.8531 41.6063 36.4553 40.6766 36.7594C39.2837 37.215 38.3923 37.3755 35.4049 37.7086C33.2729 37.9463 32.3058 38.1016 31.3195 38.3646C29.6475 38.8103 28.2934 39.5252 27.2958 40.4888C26.8665 40.9034 26.2283 41.6964 26.2283 41.8153C26.2283 41.9668 27.9016 42.5252 29.0573 42.7594C30.1929 42.9895 30.1925 42.9896 30.421 42.5825C30.7027 42.0806 31.5762 41.2073 32.243 40.7609C33.6064 39.8483 34.8944 39.3331 37.2731 38.749C39.1523 38.2875 41.0276 37.6049 42.6261 36.8006L43.1345 36.5448L43.4704 35.8904C43.6552 35.5305 43.7977 35.2376 43.7872 35.2395C43.7767 35.2415 43.6216 35.346 43.4427 35.4718ZM16.482 36.8154C16.0146 37.7466 15.9461 37.9735 15.9456 38.5937C15.9452 39.1165 16.1252 39.5662 16.4654 39.8924L16.6611 40.08L16.6617 39.7259C16.6623 39.2961 16.7776 38.5465 16.8552 38.4681C16.9405 38.382 17.1166 39.051 17.1177 39.465C17.1192 39.9943 17.1944 40.0671 17.4072 39.7453C17.8775 39.0341 17.9551 37.6854 17.5752 36.8237C17.4621 36.5671 17.0202 36.0175 16.927 36.0175C16.9026 36.0175 16.7023 36.3766 16.482 36.8154ZM45.7318 36.2741C45.4316 36.6068 45.3192 36.8309 45.2009 37.3332C45.0221 38.0917 45.0982 38.9427 45.3981 39.5387C45.6579 40.0549 45.7283 40.0573 45.7799 39.5513C45.8306 39.0547 45.9405 38.5533 46.0175 38.4679C46.0947 38.3823 46.2001 38.8464 46.2495 39.4892L46.2933 40.06L46.4473 39.9152C46.5321 39.8355 46.6887 39.5954 46.7955 39.3815C46.9522 39.0677 46.9896 38.9101 46.9893 38.5635C46.9891 38.3275 46.9584 38.017 46.9212 37.8738C46.8446 37.5792 46.0762 36.0175 46.0079 36.0175C45.9835 36.0175 45.8592 36.133 45.7318 36.2741ZM18.5825 40.2022C18.3571 40.9546 18.3239 41.1486 18.3224 41.7165C18.3203 42.5397 18.4652 42.9028 18.9854 43.3786C19.3556 43.7172 19.493 43.7818 19.433 43.589C19.291 43.1331 19.2192 41.9444 19.3336 41.9444C19.4287 41.9444 19.7718 42.7195 19.8717 43.1597C19.9381 43.452 19.9683 43.5029 20.0307 43.4277C20.5889 42.7545 20.3597 40.8088 19.6189 39.932C19.4413 39.7219 18.9645 39.3392 18.8802 39.3392C18.8586 39.3392 18.7246 39.7275 18.5825 40.2022ZM43.8332 39.4593C42.9715 39.9873 42.4 41.5437 42.6267 42.7456C42.7088 43.1815 42.9261 43.6143 42.9748 43.4394C43.1594 42.7778 43.3746 42.1831 43.4732 42.0621C43.5895 41.9194 43.5981 41.9181 43.6437 42.0354C43.6898 42.1541 43.5732 43.411 43.4979 43.6075C43.4314 43.7809 43.5866 43.7071 43.9204 43.4068C44.5523 42.8383 44.7677 42.0331 44.5554 41.0326C44.4326 40.4532 44.1073 39.3395 44.0609 39.3397C44.043 39.3397 43.9405 39.3935 43.8332 39.4593ZM13.0165 39.603C12.6765 39.6692 12.393 39.7249 12.3865 39.7267C12.3455 39.7382 12.5164 40.177 12.652 40.4085C13.2286 41.393 14.8561 42.0277 15.8174 41.6428L16.0827 41.5366L15.6347 41.3198C15.3884 41.2005 15.0573 40.9829 14.8989 40.8362L14.611 40.5696L14.9365 40.6119C15.1154 40.6352 15.4803 40.7235 15.7472 40.8082C16.0142 40.8929 16.245 40.9497 16.2603 40.9345C16.2755 40.9191 16.2093 40.7455 16.113 40.5486C15.9022 40.1174 15.4613 39.7118 15.0514 39.572C14.6533 39.4363 13.8065 39.4491 13.0165 39.603ZM47.9655 39.5303C47.4578 39.6849 46.975 40.145 46.7487 40.6899L46.6195 41.0011L47.158 40.8208C47.4542 40.7217 47.8378 40.6242 48.0102 40.6042L48.3239 40.568L48.036 40.8355C47.8776 40.9825 47.549 41.1993 47.3056 41.3171L46.8631 41.5313L47.0913 41.6401C47.4085 41.7915 48.1072 41.7816 48.6359 41.6182C49.219 41.438 49.8097 41.0271 50.1491 40.5657C50.4129 40.2071 50.5635 39.8328 50.4782 39.7474C50.4571 39.7264 50.1688 39.6561 49.8375 39.5913C49.2252 39.4715 48.2618 39.4401 47.9655 39.5303ZM21.5666 42.117C21.4981 42.3904 21.5936 44.1562 21.6974 44.5347C21.8338 45.0318 22.1343 45.5287 22.4418 45.7654C22.6983 45.963 23.4162 46.2783 23.4751 46.2194C23.4907 46.2039 23.4154 46.0167 23.3078 45.8035C23.0916 45.3749 22.844 44.6818 22.844 44.5053C22.844 44.3217 23.4462 44.9602 23.7285 45.4432C24.0189 45.9401 24.0687 45.8988 24.076 45.1555C24.0881 43.9205 23.1783 42.4613 22.158 42.0793C21.6911 41.9045 21.6188 41.9091 21.5666 42.117ZM40.6318 42.14C39.6635 42.6242 38.8485 43.9686 38.8355 45.1033C38.8327 45.3541 38.8533 45.6282 38.8814 45.7125C38.9286 45.8541 38.9516 45.8341 39.1821 45.452C39.4753 44.9659 39.9915 44.3668 40.0599 44.4332C40.1367 44.5078 39.9711 45.0606 39.6957 45.6496C39.5551 45.9501 39.4401 46.2071 39.4401 46.2207C39.4401 46.2724 39.8097 46.1535 40.0992 46.0087C41.0093 45.5537 41.3332 44.7813 41.35 43.0257L41.36 41.977L41.197 41.9579C41.1074 41.9474 40.853 42.0294 40.6318 42.14ZM16.4984 43.2381C16.1353 43.3492 15.3665 43.6472 14.9541 43.8365L14.7765 43.918L14.92 44.1736C15.1109 44.5135 15.5922 44.9564 15.9901 45.1581C16.8438 45.5911 17.9636 45.6487 18.6525 45.2952C18.8581 45.1896 19.0361 45.0734 19.0482 45.0369C19.0602 45.0003 18.8935 44.9369 18.6778 44.8959C18.2557 44.8155 17.4421 44.4657 17.4421 44.3646C17.4421 44.2668 17.9446 44.2378 18.5751 44.299C18.894 44.33 19.1692 44.341 19.1868 44.3234C19.2354 44.2748 18.8756 43.7811 18.6584 43.5982C18.1104 43.1367 17.2811 42.9985 16.4984 43.2381ZM44.905 43.2126C44.7429 43.265 44.4925 43.4086 44.3487 43.5318C44.0715 43.7692 43.6937 44.269 43.7493 44.3247C43.7675 44.3428 44.0281 44.3301 44.3284 44.2964C44.8882 44.2334 45.4928 44.2655 45.4928 44.358C45.4928 44.479 44.4067 44.8936 43.9308 44.9542C43.776 44.9739 43.7812 44.9838 44.0384 45.1576C44.9553 45.7771 46.6021 45.5911 47.5162 44.7646C47.8182 44.4915 48.1405 43.9783 48.056 43.905C47.9734 43.8335 47.2294 43.52 46.6968 43.3323C46.1243 43.1305 45.3247 43.0771 44.905 43.2126ZM25.3841 44.0124C25.3889 44.2961 25.7077 45.7918 25.8352 46.1284C26.204 47.102 26.9952 47.731 27.766 47.6633L27.9935 47.6434L27.7236 47.2852C27.4009 46.857 26.9788 46.0477 27.0781 46.0477C27.2164 46.0477 27.7087 46.4358 28.0813 46.8385L28.46 47.2479L28.4278 46.7452C28.3825 46.0393 28.0684 45.414 27.4359 44.7707C26.8511 44.1758 26.3171 43.8985 25.7564 43.8984C25.4427 43.8984 25.3825 43.9168 25.3841 44.0124ZM36.609 43.9784C35.9527 44.213 35.1604 44.9851 34.7748 45.7659C34.5717 46.1771 34.5234 46.3512 34.5036 46.7442L34.4795 47.2223L34.9077 46.7783C35.3377 46.3326 35.8605 45.9691 35.8605 46.1158C35.8605 46.2414 35.4875 46.9024 35.2092 47.2702C35.0663 47.459 34.9494 47.6275 34.9494 47.6447C34.9494 47.7105 35.5139 47.6662 35.75 47.5819C36.3731 47.3595 36.8482 46.8182 37.1282 46.0115C37.2635 45.6219 37.5527 44.2408 37.5527 43.9847C37.5527 43.878 36.9022 43.8737 36.609 43.9784ZM20.5336 46.0702C19.9831 46.2527 18.4184 47.1713 18.4184 47.3119C18.4184 47.356 18.5219 47.513 18.6483 47.6608C18.9205 47.979 19.6179 48.3485 20.1585 48.4607C20.6808 48.5693 21.6143 48.5076 22.0681 48.3344C22.4189 48.2007 22.9742 47.794 22.9742 47.6709C22.9742 47.6379 22.8115 47.6108 22.6128 47.6108C22.1947 47.6108 21.4154 47.4472 21.2472 47.3241C21.142 47.2472 21.1513 47.2329 21.3534 47.1615C21.5328 47.0981 22.5605 46.9712 22.9714 46.9617C23.1082 46.9586 22.5435 46.397 22.1977 46.1923C21.9577 46.0502 21.816 46.0184 21.3517 46.0027C21.0121 45.9912 20.692 46.0176 20.5336 46.0702ZM40.8255 46.1419C40.6388 46.2289 40.346 46.441 40.1747 46.6132L39.8631 46.9264L40.3187 46.9748C41.001 47.0474 41.6115 47.1542 41.7172 47.2196C41.7906 47.265 41.7689 47.2939 41.6181 47.3514C41.1987 47.5116 40.6943 47.611 40.2887 47.6134L39.8631 47.616L40.1659 47.895C40.5722 48.2695 41.0871 48.4622 41.7971 48.5057C42.4708 48.547 43.0401 48.4493 43.5368 48.2071C43.8947 48.0325 44.5165 47.476 44.5165 47.3303C44.5165 47.2419 44.4915 47.2244 43.5465 46.6521C42.4219 45.9712 41.5448 45.8068 40.8255 46.1419ZM30.6534 47.1061C30.1689 47.3968 29.92 47.8056 29.8841 48.3696C29.8482 48.934 29.9873 49.2846 30.3916 49.6483C31.0731 50.2615 31.9366 50.2455 32.5699 49.6078C33.2411 48.932 33.2392 47.9823 32.5653 47.3372C32.2298 47.0161 31.9146 46.8944 31.4179 46.8944C31.0691 46.8944 30.9522 46.9268 30.6534 47.1061ZM25.2108 48.128C24.8288 48.3196 24.5057 48.5634 23.938 49.0887L23.1772 49.7927L23.3399 49.9631C23.5815 50.2162 24.1323 50.4712 24.6006 50.5467C25.7613 50.7337 27.2933 50.1423 27.7033 49.3487C27.8017 49.1584 27.8009 49.1561 27.6503 49.2001C27.1924 49.334 25.9029 49.3177 25.9029 49.178C25.9029 49.0819 26.9339 48.6949 27.5609 48.5558L27.7545 48.5128L27.5934 48.3832C27.5048 48.312 27.2566 48.1676 27.0418 48.0626C26.721 47.9056 26.5684 47.8714 26.187 47.8714C25.7764 47.8714 25.6635 47.9011 25.2108 48.128ZM36.0527 47.9558C35.7999 48.0505 35.1844 48.454 35.2273 48.4969C35.242 48.5116 35.4786 48.5825 35.7529 48.6544C36.2979 48.7973 36.9258 49.0547 36.9924 49.1625C37.0858 49.3138 35.7751 49.344 35.2911 49.2018C35.0713 49.1373 35.1116 49.2534 35.4334 49.6116C35.9823 50.2225 36.8736 50.5696 37.8781 50.5635C38.6049 50.5591 39.0693 50.4115 39.4901 50.051L39.7575 49.822L39.1687 49.2537C38.1037 48.2261 37.5816 47.9253 36.8042 47.8918C36.4772 47.8778 36.1977 47.9015 36.0527 47.9558ZM22.9241 54.3682C22.8894 54.4667 22.1949 56.3498 21.3805 58.5529C20.4475 61.0768 19.8462 62.6144 19.7548 62.7099C19.6612 62.8075 19.5081 62.8725 19.3232 62.893C18.7956 62.9514 18.7438 62.9736 18.7438 63.1405C18.7438 63.5129 18.7016 63.5028 20.2672 63.5028C21.8167 63.5028 21.8678 63.4922 21.8678 63.1711C21.8678 62.96 21.7737 62.9166 21.3146 62.9166C20.8885 62.9166 20.7614 62.8719 20.7614 62.7221C20.7614 62.623 21.1103 61.5764 21.4514 60.6522L21.554 60.3743L23.1189 60.3916L24.6838 60.4091L25.0912 61.5815C25.3798 62.4117 25.4793 62.7776 25.4325 62.8352C25.3935 62.883 25.2136 62.9166 24.9962 62.9166C24.5191 62.9166 24.3645 63.0199 24.4512 63.2805L24.5144 63.4703L26.4862 63.4875C27.8868 63.4998 28.4838 63.4833 28.5472 63.4307C28.5962 63.3899 28.6364 63.2728 28.6364 63.1705C28.6364 62.9665 28.5942 62.9474 28.0271 62.8951C27.8368 62.8775 27.6622 62.8174 27.5892 62.7444C27.4998 62.6549 24.406 54.364 24.406 54.2138C24.406 54.2002 24.0867 54.1891 23.6965 54.1891H22.9869L22.9241 54.3682ZM34.2335 54.6776V55.1009H34.8843C35.2422 55.1009 35.5403 55.1082 35.5468 55.1172C35.5531 55.1262 35.5751 56.6136 35.5956 58.4226L35.6327 61.7117L35.8066 62.0415C36.1251 62.6452 36.7503 63.0788 37.6009 63.2858C38.2715 63.449 39.773 63.4311 40.4375 63.2521C41.3995 62.9929 41.9715 62.5416 42.2365 61.8329C42.3629 61.4946 42.3688 61.3368 42.3688 58.2899V55.1009H43.0196H43.6704V54.6776V54.2542H41.5553H39.4401V54.6776V55.1009H40.0938H40.7475L40.7283 58.2761L40.7092 61.4512L40.5565 61.7615C40.4464 61.9851 40.3192 62.1214 40.1009 62.2494C39.8321 62.4072 39.719 62.4298 39.0944 62.4513C38.0938 62.4856 37.6064 62.2804 37.3507 61.7169C37.2387 61.47 37.23 61.226 37.2287 58.2761L37.2273 55.1009H37.8455H38.4638V54.6776V54.2542H36.3486H34.2335V54.6776ZM29.2616 54.4224C29.2399 54.479 29.2221 54.5935 29.2221 54.6768C29.2221 54.81 29.263 54.8337 29.5638 54.8749C29.9781 54.9316 30.1443 54.991 30.2859 55.1327C30.3836 55.2305 30.3936 55.5847 30.3936 58.9468V62.6531L30.2472 62.7461C30.1666 62.7972 29.9689 62.8586 29.8078 62.8826C29.3273 62.9541 29.2872 62.9761 29.2872 63.1685C29.2872 63.5011 29.2982 63.5028 31.4401 63.5028H33.4367L33.5176 63.3074C33.6215 63.0563 33.5199 62.9168 33.233 62.9163C32.904 62.9157 32.5526 62.792 32.4456 62.6391C32.3591 62.5156 32.3461 62.0157 32.3461 58.833V55.169L32.4999 55.0682C32.5846 55.0127 32.8325 54.9357 33.0508 54.8972C33.4797 54.8217 33.5876 54.7024 33.4538 54.4521C33.3847 54.3229 33.3288 54.3193 31.342 54.3193C29.541 54.3193 29.2965 54.3315 29.2616 54.4224ZM22.4778 57.7934L21.7537 59.7578L22.429 59.7763C22.8005 59.7864 23.4085 59.7864 23.7803 59.7763L24.4562 59.7578L23.8517 57.8157C23.5193 56.7476 23.2371 55.8636 23.2246 55.8514C23.2122 55.8391 22.8761 56.713 22.4778 57.7934ZM18.939 64.4147V64.6752H30.6539H42.3688V64.4147V64.1541H30.6539H18.939V64.4147ZM22.9595 66.0142C22.746 66.1301 22.6488 66.2964 22.6488 66.5452C22.6488 66.8398 22.8104 66.9981 23.2663 67.1499C23.7304 67.3044 23.8057 67.369 23.6877 67.5112C23.5854 67.6345 23.2527 67.6318 23.0109 67.5056C22.8339 67.4132 22.8106 67.4152 22.6939 67.532C22.5413 67.6846 22.5915 67.7842 22.8824 67.9058C23.3179 68.0879 24.0007 67.9735 24.1052 67.7008C24.1274 67.6429 24.1457 67.4851 24.1457 67.3503C24.1457 67.0393 24.0096 66.9131 23.5167 66.7671C23.221 66.6795 23.1323 66.6233 23.1164 66.5138C23.0885 66.3228 23.3399 66.2641 23.6431 66.3909C23.8549 66.4795 23.884 66.4781 23.9778 66.3743C24.1348 66.2007 24.1039 66.1316 23.8189 66.0175C23.4968 65.8884 23.1932 65.8873 22.9595 66.0142ZM28.4086 66.0046C27.6684 66.3338 27.5821 67.4524 28.2647 67.8689C28.5493 68.0426 29.1152 68.0418 29.4011 67.8673C29.6466 67.7175 29.6585 67.6679 29.4864 67.512C29.37 67.4065 29.3487 67.4057 29.2116 67.5019C28.8601 67.7483 28.3524 67.5351 28.2722 67.1075C28.1705 66.5649 28.627 66.189 29.1314 66.3998C29.3632 66.4968 29.3845 66.4955 29.5029 66.3771C29.655 66.2249 29.6045 66.1253 29.3139 66.0037C29.0427 65.8903 28.6647 65.8907 28.4086 66.0046ZM33.2247 65.9714C33.1531 66.0029 33.0259 66.1027 32.942 66.1931L32.7893 66.3575L32.9551 66.4662C33.1125 66.5695 33.1281 66.5681 33.2664 66.4392C33.4766 66.2431 33.7464 66.2745 33.7791 66.4988C33.8146 66.7428 33.7476 66.841 33.2898 67.2153C32.8837 67.5473 32.8016 67.6466 32.8016 67.8056V67.9969H33.5501H34.2985V67.8015V67.6061H33.8644H33.4303L33.8319 67.2424C34.2164 66.8942 34.2335 66.8656 34.2335 66.5698C34.2335 66.3268 34.1997 66.2293 34.0748 66.1118C33.9015 65.949 33.4462 65.8737 33.2247 65.9714ZM35.0729 66.0605C34.6381 66.3512 34.4907 67.0243 34.7503 67.5336C34.9229 67.8719 35.1356 67.9969 35.5393 67.9969C35.8308 67.9969 35.9011 67.9693 36.089 67.7813C36.5809 67.2889 36.5191 66.3746 35.9712 66.0403C35.6925 65.8702 35.3459 65.878 35.0729 66.0605ZM37.0554 66.0379C36.7701 66.212 36.7354 66.2961 36.8868 66.4476L37.0176 66.5785L37.2185 66.4299C37.3895 66.3035 37.4441 66.2924 37.5837 66.3561C37.9063 66.5031 37.7373 66.8262 37.067 67.3436C36.7777 67.567 36.7066 67.6589 36.7066 67.8094V67.9969H37.4551H38.2035V67.8015V67.6061H37.7719H37.3404L37.6763 67.3384C38.1689 66.946 38.2961 66.6432 38.1257 66.2691C37.9682 65.923 37.4331 65.8074 37.0554 66.0379ZM38.8777 66.0379C38.5924 66.212 38.5577 66.2961 38.7091 66.4476L38.8399 66.5785L39.0409 66.4299C39.2137 66.302 39.2654 66.2919 39.4103 66.358C39.704 66.4919 39.6053 66.7247 39.0496 67.2086C38.6942 67.5181 38.5559 67.683 38.5411 67.8153L38.5206 67.9969H39.2733H40.0258V67.8015V67.6061H39.5968H39.1678L39.5221 67.3173C39.93 66.9848 40.0599 66.7336 39.9972 66.3991C39.9161 65.9665 39.3134 65.772 38.8777 66.0379ZM24.6012 66.9873V67.9969H24.829H25.0568V66.9873V65.9778H24.829H24.6012V66.9873ZM25.5775 66.9873V67.9969H25.7727H25.968V67.3781C25.968 67.0378 25.9899 66.7599 26.0168 66.7605C26.0437 66.7612 26.2706 67.0383 26.5212 67.3763C26.9311 67.9293 26.998 67.9911 27.1883 67.9939L27.3998 67.9969V66.9873V65.9778H27.1745H26.9491L26.9304 66.5803L26.9117 67.1827L26.4574 66.5803C26.0469 66.0359 25.9826 65.9778 25.7903 65.9778H25.5775V66.9873ZM30.0682 66.9873V67.9969H30.8166H31.5651V67.8015V67.6061H31.0078H30.4504L30.4708 67.3944L30.4912 67.1827L30.9631 67.1636L31.4349 67.1444V66.9519V66.7594H30.9468H30.4587V66.564V66.3686H31.0119H31.5651V66.1732V65.9778H30.8166H30.0682V66.9873ZM35.272 66.4229C35.0511 66.6019 35.0142 67.1812 35.208 67.427C35.5315 67.837 35.9627 67.5501 35.9532 66.9313C35.9491 66.6647 35.9176 66.5829 35.7706 66.4564C35.5566 66.2722 35.4655 66.2661 35.272 66.4229Z" fill="#FBFBFB"/>
</g>
<path d="M74.2246 41C74.1204 41 74.0391 40.9512 73.9805 40.8535C73.9219 40.7493 73.8926 40.6322 73.8926 40.502C73.8926 40.3522 73.9186 40.2578 73.9707 40.2188C74.0163 40.1797 74.1074 40.1536 74.2441 40.1406C74.4069 40.1211 74.5827 40.1081 74.7715 40.1016C74.9668 40.0951 75.1491 40.0462 75.3184 39.9551C75.4941 39.8574 75.6341 39.6686 75.7383 39.3887L80.4258 26.9277H82.7109L87.3496 39.3887C87.4603 39.6816 87.6068 39.877 87.7891 39.9746C87.9779 40.0658 88.1732 40.1113 88.375 40.1113C88.5833 40.1113 88.7656 40.1211 88.9219 40.1406C89.0586 40.1536 89.1497 40.1797 89.1953 40.2188C89.2474 40.2578 89.2734 40.3522 89.2734 40.502C89.2734 40.5736 89.2441 40.6745 89.1855 40.8047C89.1335 40.9349 89.0521 41 88.9414 41H82.8672C82.7565 41 82.6719 40.9349 82.6133 40.8047C82.5612 40.6745 82.5352 40.5736 82.5352 40.502C82.5352 40.2871 82.6426 40.1667 82.8574 40.1406C83.2415 40.1211 83.5443 40.1081 83.7656 40.1016C83.987 40.0885 84.0977 40.0104 84.0977 39.8672C84.0977 39.8216 84.0879 39.7695 84.0684 39.7109L82.7207 36L83.209 36.3418L77.8379 36.332L78.3262 35.9023L76.959 39.7109C76.9395 39.7565 76.9297 39.7988 76.9297 39.8379C76.9297 39.9941 77.0697 40.0788 77.3496 40.0918C77.6296 40.1048 77.9681 40.1211 78.3652 40.1406C78.5801 40.1667 78.6875 40.2871 78.6875 40.502C78.6875 40.5736 78.6582 40.6745 78.5996 40.8047C78.5475 40.9349 78.4661 41 78.3555 41H74.2246ZM78.4141 35.5801L78.248 35.502H82.8867L82.584 35.5898L80.7188 29.3789L78.4141 35.5801ZM94.2344 41.293C93.6875 41.293 93.1992 41.2148 92.7695 41.0586C92.3398 40.9089 92.0371 40.7917 91.8613 40.707C91.7572 40.6549 91.6562 40.6289 91.5586 40.6289C91.3828 40.6289 91.2624 40.6647 91.1973 40.7363C91.1387 40.8079 91.0768 40.8796 91.0117 40.9512C90.9466 41.0228 90.8197 41.0586 90.6309 41.0586C90.5072 41.0586 90.3932 41.0326 90.2891 40.9805C90.1849 40.9219 90.1328 40.8503 90.1328 40.7656C90.1328 40.6875 90.1263 40.5182 90.1133 40.2578C90.1068 39.9974 90.097 39.7044 90.084 39.3789C90.0775 39.0534 90.0677 38.7474 90.0547 38.4609C90.0482 38.168 90.0449 37.9531 90.0449 37.8164C90.0449 37.6667 90.097 37.5592 90.2012 37.4941C90.3118 37.429 90.429 37.3965 90.5527 37.3965C90.8132 37.3965 90.9629 37.4681 91.002 37.6113C91.041 37.7546 91.0931 37.9238 91.1582 38.1191C91.2298 38.3079 91.3438 38.5651 91.5 38.8906C91.5911 39.0729 91.7441 39.2878 91.959 39.5352C92.1738 39.7826 92.4603 40.0007 92.8184 40.1895C93.1764 40.3717 93.6094 40.4629 94.1172 40.4629C94.6576 40.4629 95.084 40.3717 95.3965 40.1895C95.709 40.0007 95.8652 39.7207 95.8652 39.3496C95.8652 39.0566 95.7773 38.7962 95.6016 38.5684C95.4323 38.3405 95.1393 38.1191 94.7227 37.9043C94.306 37.6829 93.7266 37.4421 92.9844 37.1816C92.5677 37.0319 92.1478 36.8301 91.7246 36.5762C91.3079 36.3158 90.9564 35.987 90.6699 35.5898C90.39 35.1862 90.25 34.7012 90.25 34.1348C90.25 33.5618 90.4323 33.0475 90.7969 32.5918C91.1615 32.1361 91.6562 31.7747 92.2812 31.5078C92.9062 31.2344 93.6126 31.0977 94.4004 31.0977C95.0189 31.0977 95.5267 31.1855 95.9238 31.3613C96.321 31.5371 96.5911 31.625 96.7344 31.625C96.8776 31.625 96.959 31.5892 96.9785 31.5176C97.0046 31.446 97.0371 31.3743 97.0762 31.3027C97.1152 31.2311 97.1803 31.179 97.2715 31.1465C97.3626 31.1139 97.457 31.0977 97.5547 31.0977C97.6979 31.0977 97.8249 31.127 97.9355 31.1855C98.0527 31.2441 98.1113 31.3288 98.1113 31.4395C98.1113 31.498 98.1048 31.6576 98.0918 31.918C98.0853 32.1784 98.082 32.4616 98.082 32.7676C98.082 32.9564 98.0885 33.1452 98.1016 33.334C98.1211 33.5228 98.1309 33.6921 98.1309 33.8418C98.1309 34.0371 98.0788 34.1771 97.9746 34.2617C97.8704 34.3398 97.75 34.3789 97.6133 34.3789C97.3724 34.3789 97.2292 34.3138 97.1836 34.1836C97.0924 33.9036 96.9557 33.5911 96.7734 33.2461C96.5977 32.8945 96.3307 32.5885 95.9727 32.3281C95.6211 32.0677 95.1361 31.9375 94.5176 31.9375C94.3092 31.9375 94.0911 31.9701 93.8633 32.0352C93.6419 32.0938 93.4531 32.2012 93.2969 32.3574C93.1471 32.5137 93.0723 32.7318 93.0723 33.0117C93.0723 33.4609 93.2513 33.8223 93.6094 34.0957C93.9674 34.3626 94.5241 34.6198 95.2793 34.8672C95.8913 35.069 96.4707 35.3132 97.0176 35.5996C97.5645 35.8861 98.0104 36.2441 98.3555 36.6738C98.7005 37.1035 98.873 37.6374 98.873 38.2754C98.873 39.2585 98.4727 40.0072 97.6719 40.5215C96.8776 41.0358 95.7318 41.293 94.2344 41.293ZM100.465 41C100.354 41 100.27 40.9512 100.211 40.8535C100.159 40.7559 100.133 40.6712 100.133 40.5996C100.133 40.3783 100.24 40.2578 100.455 40.2383C100.696 40.2188 100.943 40.1732 101.197 40.1016C101.451 40.0234 101.578 39.8932 101.578 39.7109L101.588 33.4023C101.588 32.9987 101.503 32.7253 101.334 32.582C101.165 32.4388 100.966 32.3542 100.738 32.3281C100.51 32.3021 100.309 32.2663 100.133 32.2207C100.068 32.1882 100.012 32.1458 99.9668 32.0938C99.9212 32.0417 99.8984 31.9538 99.8984 31.8301C99.8984 31.752 99.918 31.6641 99.957 31.5664C99.9961 31.4622 100.055 31.4069 100.133 31.4004C101.064 31.3418 101.904 31.306 102.652 31.293C103.408 31.2734 103.984 31.2637 104.381 31.2637C104.433 31.2637 104.495 31.2897 104.566 31.3418C104.638 31.3939 104.674 31.498 104.674 31.6543V39.3887C104.674 39.6361 104.739 39.8184 104.869 39.9355C105.006 40.0462 105.165 40.1211 105.348 40.1602C105.536 40.1927 105.709 40.2188 105.865 40.2383C106.002 40.2513 106.093 40.2773 106.139 40.3164C106.191 40.3555 106.217 40.4499 106.217 40.5996C106.217 40.6712 106.188 40.7559 106.129 40.8535C106.077 40.9512 105.995 41 105.885 41H100.465ZM103.062 29.7695C102.555 29.7695 102.122 29.6035 101.764 29.2715C101.406 28.9395 101.227 28.5098 101.227 27.9824C101.227 27.4551 101.406 27.0254 101.764 26.6934C102.122 26.3548 102.555 26.1855 103.062 26.1855C103.564 26.1855 103.993 26.3548 104.352 26.6934C104.716 27.0254 104.898 27.4551 104.898 27.9824C104.898 28.5098 104.716 28.9395 104.352 29.2715C103.993 29.6035 103.564 29.7695 103.062 29.7695ZM107.447 38.6367C107.447 37.9857 107.643 37.4518 108.033 37.0352C108.424 36.612 108.928 36.2767 109.547 36.0293C110.172 35.7754 110.842 35.5833 111.559 35.4531C112.281 35.3229 112.971 35.2253 113.629 35.1602V33.5488C113.629 33.1322 113.567 32.8164 113.443 32.6016C113.32 32.3802 113.147 32.2305 112.926 32.1523C112.704 32.0677 112.447 32.0254 112.154 32.0254C111.829 32.0254 111.591 32.0449 111.441 32.084C111.292 32.1165 111.184 32.1523 111.119 32.1914L109.566 34.7988C109.065 34.7988 108.661 34.6719 108.355 34.418C108.056 34.1576 107.906 33.8255 107.906 33.4219C107.906 32.9987 108.059 32.6406 108.365 32.3477C108.678 32.0547 109.075 31.8171 109.557 31.6348C110.045 31.446 110.556 31.3092 111.09 31.2246C111.624 31.14 112.118 31.0977 112.574 31.0977C113.316 31.0977 113.954 31.166 114.488 31.3027C115.029 31.4395 115.468 31.6315 115.807 31.8789C116.152 32.1198 116.406 32.4062 116.568 32.7383C116.731 33.0638 116.812 33.4219 116.812 33.8125V39.0664C116.812 39.3203 116.848 39.5352 116.92 39.7109C116.992 39.8802 117.079 39.9648 117.184 39.9648C117.275 39.9648 117.418 39.9453 117.613 39.9062C117.815 39.8607 117.936 39.8379 117.975 39.8379C118.085 39.8379 118.16 39.903 118.199 40.0332C118.245 40.1569 118.268 40.2773 118.268 40.3945C118.268 40.4792 118.248 40.5378 118.209 40.5703C118.105 40.6419 117.789 40.7721 117.262 40.9609C116.734 41.1497 116.074 41.2441 115.279 41.2441C114.674 41.2441 114.273 41.1595 114.078 40.9902C113.889 40.821 113.795 40.4694 113.795 39.9355V39.7891C113.372 40.2904 112.864 40.6582 112.271 40.8926C111.679 41.1204 111.041 41.2344 110.357 41.2344C109.967 41.2344 109.544 41.1497 109.088 40.9805C108.639 40.8047 108.251 40.528 107.926 40.1504C107.607 39.7663 107.447 39.2617 107.447 38.6367ZM110.758 38.5391C110.758 38.8646 110.862 39.1608 111.07 39.4277C111.285 39.6947 111.607 39.8281 112.037 39.8281C112.454 39.8281 112.792 39.7435 113.053 39.5742C113.313 39.4049 113.505 39.2422 113.629 39.0859V35.9414C113.193 36.0065 112.753 36.1139 112.311 36.2637C111.868 36.4069 111.497 36.6543 111.197 37.0059C110.904 37.3509 110.758 37.862 110.758 38.5391ZM124.898 41C124.788 41 124.703 40.9349 124.645 40.8047C124.592 40.6745 124.566 40.5736 124.566 40.502C124.566 40.2871 124.674 40.1667 124.889 40.1406C125.201 40.1146 125.514 40.0592 125.826 39.9746C126.145 39.8835 126.305 39.7305 126.305 39.5156L126.314 28.9492C126.314 28.6693 126.23 28.4674 126.061 28.3438C125.898 28.2135 125.702 28.1289 125.475 28.0898C125.247 28.0443 125.032 28.015 124.83 28.002C124.693 27.9889 124.599 27.9629 124.547 27.9238C124.501 27.8783 124.479 27.7839 124.479 27.6406C124.479 27.569 124.505 27.4681 124.557 27.3379C124.615 27.2077 124.7 27.1426 124.811 27.1426H131.012C131.122 27.1426 131.204 27.2077 131.256 27.3379C131.314 27.4681 131.344 27.569 131.344 27.6406C131.344 27.8555 131.236 27.9759 131.021 28.002C130.689 28.028 130.37 28.0866 130.064 28.1777C129.758 28.2624 129.605 28.4121 129.605 28.627L129.596 39.1934C129.596 39.4733 129.677 39.6784 129.84 39.8086C130.009 39.9323 130.208 40.0137 130.436 40.0527C130.67 40.0918 130.885 40.1211 131.08 40.1406C131.217 40.1536 131.308 40.1797 131.354 40.2188C131.406 40.2578 131.432 40.3522 131.432 40.502C131.432 40.5736 131.402 40.6745 131.344 40.8047C131.292 40.9349 131.21 41 131.1 41H124.898ZM133.443 41C133.333 41 133.248 40.9512 133.189 40.8535C133.137 40.7559 133.111 40.6712 133.111 40.5996C133.111 40.3848 133.219 40.2643 133.434 40.2383C133.674 40.2057 133.906 40.1471 134.127 40.0625C134.355 39.9779 134.469 39.8281 134.469 39.6133V33.4023C134.469 32.9987 134.381 32.7253 134.205 32.582C134.029 32.4388 133.827 32.3542 133.6 32.3281C133.372 32.3021 133.176 32.2663 133.014 32.2207C132.949 32.1882 132.893 32.1458 132.848 32.0938C132.802 32.0417 132.779 31.9538 132.779 31.8301C132.779 31.752 132.799 31.6641 132.838 31.5664C132.877 31.4622 132.936 31.4069 133.014 31.4004C133.912 31.3483 134.729 31.3125 135.465 31.293C136.207 31.2734 136.767 31.2637 137.145 31.2637C137.197 31.2637 137.255 31.2897 137.32 31.3418C137.385 31.3939 137.424 31.498 137.438 31.6543V32.748C137.561 32.5983 137.818 32.3932 138.209 32.1328C138.606 31.8724 139.078 31.6348 139.625 31.4199C140.172 31.2051 140.735 31.0977 141.314 31.0977C141.868 31.0977 142.382 31.1725 142.857 31.3223C143.339 31.472 143.727 31.7552 144.02 32.1719C144.312 32.5885 144.459 33.2005 144.459 34.0078V39.291C144.459 39.6035 144.527 39.8216 144.664 39.9453C144.807 40.069 144.973 40.1439 145.162 40.1699C145.357 40.1895 145.536 40.2122 145.699 40.2383C145.81 40.2513 145.891 40.2806 145.943 40.3262C145.995 40.3652 146.021 40.4564 146.021 40.5996C146.021 40.6712 145.992 40.7559 145.934 40.8535C145.882 40.9512 145.8 41 145.689 41H140.445C140.335 41 140.25 40.9512 140.191 40.8535C140.139 40.7559 140.113 40.6712 140.113 40.5996C140.113 40.4954 140.13 40.4141 140.162 40.3555C140.201 40.2904 140.286 40.2513 140.416 40.2383C140.624 40.2122 140.833 40.1471 141.041 40.043C141.249 39.9388 141.354 39.7956 141.354 39.6133V34.0566C141.354 33.8939 141.337 33.6986 141.305 33.4707C141.272 33.2363 141.174 33.0312 141.012 32.8555C140.855 32.6732 140.582 32.582 140.191 32.582C139.84 32.582 139.488 32.6504 139.137 32.7871C138.792 32.9173 138.476 33.0768 138.189 33.2656C137.91 33.4544 137.691 33.6335 137.535 33.8027V39.291C137.535 39.7077 137.643 39.9648 137.857 40.0625C138.079 40.1536 138.31 40.2122 138.551 40.2383C138.688 40.2513 138.779 40.2773 138.824 40.3164C138.876 40.3555 138.902 40.4499 138.902 40.5996C138.902 40.6712 138.873 40.7559 138.814 40.8535C138.762 40.9512 138.681 41 138.57 41H133.443ZM151.031 41.293C150.484 41.293 149.977 41.2246 149.508 41.0879C149.039 40.9512 148.661 40.7038 148.375 40.3457C148.095 39.9876 147.955 39.4798 147.955 38.8223V32.3574H146.91C146.839 32.3509 146.78 32.2988 146.734 32.2012C146.695 32.097 146.676 32.0059 146.676 31.9277C146.676 31.6803 146.757 31.5306 146.92 31.4785C147.473 31.3743 147.919 31.2279 148.258 31.0391C148.596 30.8438 148.867 30.5573 149.068 30.1797C149.277 29.7956 149.452 29.2747 149.596 28.6172C149.622 28.5065 149.687 28.4154 149.791 28.3438C149.902 28.2721 150.087 28.2363 150.348 28.2363C150.628 28.2363 150.82 28.2689 150.924 28.334C151.035 28.3926 151.09 28.4707 151.09 28.5684V31.293H153.248C153.326 31.2995 153.385 31.3385 153.424 31.4102C153.463 31.4753 153.482 31.5469 153.482 31.625C153.482 31.8398 153.45 32.0124 153.385 32.1426C153.326 32.2728 153.261 32.3379 153.189 32.3379H151.09V37.9531C151.09 38.5065 151.116 38.9297 151.168 39.2227C151.227 39.5091 151.321 39.7077 151.451 39.8184C151.588 39.9225 151.77 39.9746 151.998 39.9746C152.226 39.9746 152.483 39.9355 152.77 39.8574C153.062 39.7728 153.329 39.6654 153.57 39.5352C153.668 39.4831 153.749 39.5091 153.814 39.6133C153.88 39.7109 153.922 39.8216 153.941 39.9453C153.961 40.069 153.948 40.1471 153.902 40.1797C153.74 40.362 153.486 40.5378 153.141 40.707C152.802 40.8763 152.441 41.0163 152.057 41.127C151.673 41.2376 151.331 41.293 151.031 41.293ZM160.445 41.2832C158.512 41.2832 157.096 40.8275 156.197 39.916C155.299 38.998 154.85 37.7253 154.85 36.0977C154.85 35.0104 155.1 34.0957 155.602 33.3535C156.109 32.6113 156.777 32.0514 157.604 31.6738C158.43 31.2897 159.326 31.0977 160.289 31.0977C161.298 31.0977 162.115 31.2311 162.74 31.498C163.372 31.765 163.854 32.1458 164.186 32.6406C164.524 33.1354 164.749 33.7279 164.859 34.418C164.898 34.6523 164.921 34.9128 164.928 35.1992C164.941 35.4857 164.947 35.7624 164.947 36.0293L158.17 36.0391C158.17 37.0417 158.326 37.8294 158.639 38.4023C158.951 38.9753 159.339 39.3822 159.801 39.623C160.27 39.8574 160.732 39.9746 161.188 39.9746C161.773 39.9746 162.271 39.8997 162.682 39.75C163.092 39.5938 163.453 39.3333 163.766 38.9688C163.798 38.9362 163.831 38.9004 163.863 38.8613C163.902 38.8223 163.954 38.8092 164.02 38.8223L164.449 39.0273C164.514 39.0534 164.547 39.0924 164.547 39.1445C164.547 39.1706 164.54 39.1966 164.527 39.2227C164.521 39.2487 164.508 39.278 164.488 39.3105C164.156 39.89 163.655 40.3652 162.984 40.7363C162.32 41.1009 161.474 41.2832 160.445 41.2832ZM158.199 35.1309H161.695C161.695 33.998 161.581 33.181 161.354 32.6797C161.126 32.1784 160.761 31.9277 160.26 31.9277C159.941 31.9277 159.635 32.0352 159.342 32.25C159.049 32.4583 158.801 32.7969 158.6 33.2656C158.398 33.7344 158.264 34.3561 158.199 35.1309ZM166.617 41C166.507 41 166.422 40.9512 166.363 40.8535C166.311 40.7559 166.285 40.6712 166.285 40.5996C166.285 40.3848 166.393 40.2643 166.607 40.2383C166.874 40.2188 167.128 40.1732 167.369 40.1016C167.617 40.0234 167.74 39.8932 167.74 39.7109V33.4023C167.74 32.9987 167.656 32.722 167.486 32.5723C167.317 32.4225 167.118 32.3314 166.891 32.2988C166.663 32.2663 166.461 32.2272 166.285 32.1816C166.22 32.1491 166.165 32.1068 166.119 32.0547C166.074 32.0026 166.051 31.9147 166.051 31.791C166.051 31.7129 166.07 31.625 166.109 31.5273C166.155 31.4232 166.214 31.3678 166.285 31.3613C167.216 31.3223 168.036 31.2995 168.746 31.293C169.462 31.2799 170.019 31.2702 170.416 31.2637C170.468 31.2637 170.527 31.2897 170.592 31.3418C170.657 31.3939 170.696 31.498 170.709 31.6543V33.6367C170.891 33.2331 171.155 32.8359 171.5 32.4453C171.852 32.0547 172.258 31.7324 172.721 31.4785C173.189 31.2246 173.688 31.0977 174.215 31.0977C174.618 31.0977 174.938 31.1855 175.172 31.3613C175.413 31.5306 175.585 31.752 175.689 32.0254C175.8 32.2923 175.855 32.5755 175.855 32.875C175.855 33.207 175.777 33.513 175.621 33.793C175.471 34.0729 175.286 34.3008 175.064 34.4766C174.843 34.6458 174.628 34.7305 174.42 34.7305L172.994 32.8652C172.688 32.8652 172.395 32.9727 172.115 33.1875C171.835 33.4023 171.585 33.6758 171.363 34.0078C171.148 34.3398 170.969 34.6784 170.826 35.0234V39.3887C170.826 39.6361 170.921 39.8151 171.109 39.9258C171.298 40.0365 171.529 40.1113 171.803 40.1504C172.076 40.1829 172.34 40.2122 172.594 40.2383C172.73 40.2513 172.822 40.2773 172.867 40.3164C172.919 40.3555 172.945 40.4499 172.945 40.5996C172.945 40.6712 172.916 40.7559 172.857 40.8535C172.805 40.9512 172.724 41 172.613 41H166.617ZM177.057 41C176.946 41 176.861 40.9512 176.803 40.8535C176.751 40.7559 176.725 40.6712 176.725 40.5996C176.725 40.3848 176.832 40.2643 177.047 40.2383C177.288 40.2057 177.519 40.1471 177.74 40.0625C177.968 39.9779 178.082 39.8281 178.082 39.6133V33.4023C178.082 32.9987 177.994 32.7253 177.818 32.582C177.643 32.4388 177.441 32.3542 177.213 32.3281C176.985 32.3021 176.79 32.2663 176.627 32.2207C176.562 32.1882 176.507 32.1458 176.461 32.0938C176.415 32.0417 176.393 31.9538 176.393 31.8301C176.393 31.752 176.412 31.6641 176.451 31.5664C176.49 31.4622 176.549 31.4069 176.627 31.4004C177.525 31.3483 178.342 31.3125 179.078 31.293C179.82 31.2734 180.38 31.2637 180.758 31.2637C180.81 31.2637 180.868 31.2897 180.934 31.3418C180.999 31.3939 181.038 31.498 181.051 31.6543V32.748C181.174 32.5983 181.432 32.3932 181.822 32.1328C182.219 31.8724 182.691 31.6348 183.238 31.4199C183.785 31.2051 184.348 31.0977 184.928 31.0977C185.481 31.0977 185.995 31.1725 186.471 31.3223C186.952 31.472 187.34 31.7552 187.633 32.1719C187.926 32.5885 188.072 33.2005 188.072 34.0078V39.291C188.072 39.6035 188.141 39.8216 188.277 39.9453C188.421 40.069 188.587 40.1439 188.775 40.1699C188.971 40.1895 189.15 40.2122 189.312 40.2383C189.423 40.2513 189.505 40.2806 189.557 40.3262C189.609 40.3652 189.635 40.4564 189.635 40.5996C189.635 40.6712 189.605 40.7559 189.547 40.8535C189.495 40.9512 189.413 41 189.303 41H184.059C183.948 41 183.863 40.9512 183.805 40.8535C183.753 40.7559 183.727 40.6712 183.727 40.5996C183.727 40.4954 183.743 40.4141 183.775 40.3555C183.814 40.2904 183.899 40.2513 184.029 40.2383C184.238 40.2122 184.446 40.1471 184.654 40.043C184.863 39.9388 184.967 39.7956 184.967 39.6133V34.0566C184.967 33.8939 184.951 33.6986 184.918 33.4707C184.885 33.2363 184.788 33.0312 184.625 32.8555C184.469 32.6732 184.195 32.582 183.805 32.582C183.453 32.582 183.102 32.6504 182.75 32.7871C182.405 32.9173 182.089 33.0768 181.803 33.2656C181.523 33.4544 181.305 33.6335 181.148 33.8027V39.291C181.148 39.7077 181.256 39.9648 181.471 40.0625C181.692 40.1536 181.923 40.2122 182.164 40.2383C182.301 40.2513 182.392 40.2773 182.438 40.3164C182.49 40.3555 182.516 40.4499 182.516 40.5996C182.516 40.6712 182.486 40.7559 182.428 40.8535C182.376 40.9512 182.294 41 182.184 41H177.057ZM190.787 38.6367C190.787 37.9857 190.982 37.4518 191.373 37.0352C191.764 36.612 192.268 36.2767 192.887 36.0293C193.512 35.7754 194.182 35.5833 194.898 35.4531C195.621 35.3229 196.311 35.2253 196.969 35.1602V33.5488C196.969 33.1322 196.907 32.8164 196.783 32.6016C196.66 32.3802 196.487 32.2305 196.266 32.1523C196.044 32.0677 195.787 32.0254 195.494 32.0254C195.169 32.0254 194.931 32.0449 194.781 32.084C194.632 32.1165 194.524 32.1523 194.459 32.1914L192.906 34.7988C192.405 34.7988 192.001 34.6719 191.695 34.418C191.396 34.1576 191.246 33.8255 191.246 33.4219C191.246 32.9987 191.399 32.6406 191.705 32.3477C192.018 32.0547 192.415 31.8171 192.896 31.6348C193.385 31.446 193.896 31.3092 194.43 31.2246C194.964 31.14 195.458 31.0977 195.914 31.0977C196.656 31.0977 197.294 31.166 197.828 31.3027C198.368 31.4395 198.808 31.6315 199.146 31.8789C199.492 32.1198 199.745 32.4062 199.908 32.7383C200.071 33.0638 200.152 33.4219 200.152 33.8125V39.0664C200.152 39.3203 200.188 39.5352 200.26 39.7109C200.331 39.8802 200.419 39.9648 200.523 39.9648C200.615 39.9648 200.758 39.9453 200.953 39.9062C201.155 39.8607 201.275 39.8379 201.314 39.8379C201.425 39.8379 201.5 39.903 201.539 40.0332C201.585 40.1569 201.607 40.2773 201.607 40.3945C201.607 40.4792 201.588 40.5378 201.549 40.5703C201.445 40.6419 201.129 40.7721 200.602 40.9609C200.074 41.1497 199.413 41.2441 198.619 41.2441C198.014 41.2441 197.613 41.1595 197.418 40.9902C197.229 40.821 197.135 40.4694 197.135 39.9355V39.7891C196.712 40.2904 196.204 40.6582 195.611 40.8926C195.019 41.1204 194.381 41.2344 193.697 41.2344C193.307 41.2344 192.883 41.1497 192.428 40.9805C191.979 40.8047 191.591 40.528 191.266 40.1504C190.947 39.7663 190.787 39.2617 190.787 38.6367ZM194.098 38.5391C194.098 38.8646 194.202 39.1608 194.41 39.4277C194.625 39.6947 194.947 39.8281 195.377 39.8281C195.794 39.8281 196.132 39.7435 196.393 39.5742C196.653 39.4049 196.845 39.2422 196.969 39.0859V35.9414C196.533 36.0065 196.093 36.1139 195.65 36.2637C195.208 36.4069 194.837 36.6543 194.537 37.0059C194.244 37.3509 194.098 37.862 194.098 38.5391ZM206.559 41.293C206.012 41.293 205.504 41.2246 205.035 41.0879C204.566 40.9512 204.189 40.7038 203.902 40.3457C203.622 39.9876 203.482 39.4798 203.482 38.8223V32.3574H202.438C202.366 32.3509 202.307 32.2988 202.262 32.2012C202.223 32.097 202.203 32.0059 202.203 31.9277C202.203 31.6803 202.285 31.5306 202.447 31.4785C203.001 31.3743 203.447 31.2279 203.785 31.0391C204.124 30.8438 204.394 30.5573 204.596 30.1797C204.804 29.7956 204.98 29.2747 205.123 28.6172C205.149 28.5065 205.214 28.4154 205.318 28.3438C205.429 28.2721 205.615 28.2363 205.875 28.2363C206.155 28.2363 206.347 28.2689 206.451 28.334C206.562 28.3926 206.617 28.4707 206.617 28.5684V31.293H208.775C208.854 31.2995 208.912 31.3385 208.951 31.4102C208.99 31.4753 209.01 31.5469 209.01 31.625C209.01 31.8398 208.977 32.0124 208.912 32.1426C208.854 32.2728 208.788 32.3379 208.717 32.3379H206.617V37.9531C206.617 38.5065 206.643 38.9297 206.695 39.2227C206.754 39.5091 206.848 39.7077 206.979 39.8184C207.115 39.9225 207.298 39.9746 207.525 39.9746C207.753 39.9746 208.01 39.9355 208.297 39.8574C208.59 39.7728 208.857 39.6654 209.098 39.5352C209.195 39.4831 209.277 39.5091 209.342 39.6133C209.407 39.7109 209.449 39.8216 209.469 39.9453C209.488 40.069 209.475 40.1471 209.43 40.1797C209.267 40.362 209.013 40.5378 208.668 40.707C208.329 40.8763 207.968 41.0163 207.584 41.127C207.2 41.2376 206.858 41.293 206.559 41.293ZM210.738 41C210.628 41 210.543 40.9512 210.484 40.8535C210.432 40.7559 210.406 40.6712 210.406 40.5996C210.406 40.3783 210.514 40.2578 210.729 40.2383C210.969 40.2188 211.217 40.1732 211.471 40.1016C211.725 40.0234 211.852 39.8932 211.852 39.7109L211.861 33.4023C211.861 32.9987 211.777 32.7253 211.607 32.582C211.438 32.4388 211.24 32.3542 211.012 32.3281C210.784 32.3021 210.582 32.2663 210.406 32.2207C210.341 32.1882 210.286 32.1458 210.24 32.0938C210.195 32.0417 210.172 31.9538 210.172 31.8301C210.172 31.752 210.191 31.6641 210.23 31.5664C210.27 31.4622 210.328 31.4069 210.406 31.4004C211.337 31.3418 212.177 31.306 212.926 31.293C213.681 31.2734 214.257 31.2637 214.654 31.2637C214.706 31.2637 214.768 31.2897 214.84 31.3418C214.911 31.3939 214.947 31.498 214.947 31.6543V39.3887C214.947 39.6361 215.012 39.8184 215.143 39.9355C215.279 40.0462 215.439 40.1211 215.621 40.1602C215.81 40.1927 215.982 40.2188 216.139 40.2383C216.275 40.2513 216.367 40.2773 216.412 40.3164C216.464 40.3555 216.49 40.4499 216.49 40.5996C216.49 40.6712 216.461 40.7559 216.402 40.8535C216.35 40.9512 216.269 41 216.158 41H210.738ZM213.336 29.7695C212.828 29.7695 212.395 29.6035 212.037 29.2715C211.679 28.9395 211.5 28.5098 211.5 27.9824C211.5 27.4551 211.679 27.0254 212.037 26.6934C212.395 26.3548 212.828 26.1855 213.336 26.1855C213.837 26.1855 214.267 26.3548 214.625 26.6934C214.99 27.0254 215.172 27.4551 215.172 27.9824C215.172 28.5098 214.99 28.9395 214.625 29.2715C214.267 29.6035 213.837 29.7695 213.336 29.7695ZM217.516 36.1953C217.516 35.069 217.753 34.1283 218.229 33.373C218.704 32.6178 219.365 32.0514 220.211 31.6738C221.064 31.2897 222.057 31.0977 223.189 31.0977C224.329 31.0977 225.312 31.2897 226.139 31.6738C226.972 32.0514 227.613 32.6178 228.062 33.373C228.518 34.1283 228.746 35.069 228.746 36.1953C228.746 37.3216 228.515 38.2624 228.053 39.0176C227.59 39.7728 226.936 40.3392 226.09 40.7168C225.25 41.0944 224.26 41.2832 223.121 41.2832C221.982 41.2832 220.992 41.0944 220.152 40.7168C219.319 40.3392 218.671 39.7728 218.209 39.0176C217.747 38.2624 217.516 37.3216 217.516 36.1953ZM220.943 36.1953C220.943 37.5039 221.093 38.526 221.393 39.2617C221.699 39.9909 222.285 40.3555 223.15 40.3555C224.016 40.3555 224.592 39.9909 224.879 39.2617C225.172 38.526 225.318 37.5039 225.318 36.1953C225.318 34.8867 225.165 33.8678 224.859 33.1387C224.56 32.403 223.977 32.0352 223.111 32.0352C222.245 32.0352 221.666 32.403 221.373 33.1387C221.087 33.8743 220.943 34.8932 220.943 36.1953ZM230.514 41C230.403 41 230.318 40.9512 230.26 40.8535C230.208 40.7559 230.182 40.6712 230.182 40.5996C230.182 40.3848 230.289 40.2643 230.504 40.2383C230.745 40.2057 230.976 40.1471 231.197 40.0625C231.425 39.9779 231.539 39.8281 231.539 39.6133V33.4023C231.539 32.9987 231.451 32.7253 231.275 32.582C231.1 32.4388 230.898 32.3542 230.67 32.3281C230.442 32.3021 230.247 32.2663 230.084 32.2207C230.019 32.1882 229.964 32.1458 229.918 32.0938C229.872 32.0417 229.85 31.9538 229.85 31.8301C229.85 31.752 229.869 31.6641 229.908 31.5664C229.947 31.4622 230.006 31.4069 230.084 31.4004C230.982 31.3483 231.799 31.3125 232.535 31.293C233.277 31.2734 233.837 31.2637 234.215 31.2637C234.267 31.2637 234.326 31.2897 234.391 31.3418C234.456 31.3939 234.495 31.498 234.508 31.6543V32.748C234.632 32.5983 234.889 32.3932 235.279 32.1328C235.676 31.8724 236.148 31.6348 236.695 31.4199C237.242 31.2051 237.805 31.0977 238.385 31.0977C238.938 31.0977 239.452 31.1725 239.928 31.3223C240.41 31.472 240.797 31.7552 241.09 32.1719C241.383 32.5885 241.529 33.2005 241.529 34.0078V39.291C241.529 39.6035 241.598 39.8216 241.734 39.9453C241.878 40.069 242.044 40.1439 242.232 40.1699C242.428 40.1895 242.607 40.2122 242.77 40.2383C242.88 40.2513 242.962 40.2806 243.014 40.3262C243.066 40.3652 243.092 40.4564 243.092 40.5996C243.092 40.6712 243.062 40.7559 243.004 40.8535C242.952 40.9512 242.87 41 242.76 41H237.516C237.405 41 237.32 40.9512 237.262 40.8535C237.21 40.7559 237.184 40.6712 237.184 40.5996C237.184 40.4954 237.2 40.4141 237.232 40.3555C237.271 40.2904 237.356 40.2513 237.486 40.2383C237.695 40.2122 237.903 40.1471 238.111 40.043C238.32 39.9388 238.424 39.7956 238.424 39.6133V34.0566C238.424 33.8939 238.408 33.6986 238.375 33.4707C238.342 33.2363 238.245 33.0312 238.082 32.8555C237.926 32.6732 237.652 32.582 237.262 32.582C236.91 32.582 236.559 32.6504 236.207 32.7871C235.862 32.9173 235.546 33.0768 235.26 33.2656C234.98 33.4544 234.762 33.6335 234.605 33.8027V39.291C234.605 39.7077 234.713 39.9648 234.928 40.0625C235.149 40.1536 235.38 40.2122 235.621 40.2383C235.758 40.2513 235.849 40.2773 235.895 40.3164C235.947 40.3555 235.973 40.4499 235.973 40.5996C235.973 40.6712 235.943 40.7559 235.885 40.8535C235.833 40.9512 235.751 41 235.641 41H230.514ZM244.244 38.6367C244.244 37.9857 244.439 37.4518 244.83 37.0352C245.221 36.612 245.725 36.2767 246.344 36.0293C246.969 35.7754 247.639 35.5833 248.355 35.4531C249.078 35.3229 249.768 35.2253 250.426 35.1602V33.5488C250.426 33.1322 250.364 32.8164 250.24 32.6016C250.117 32.3802 249.944 32.2305 249.723 32.1523C249.501 32.0677 249.244 32.0254 248.951 32.0254C248.626 32.0254 248.388 32.0449 248.238 32.084C248.089 32.1165 247.981 32.1523 247.916 32.1914L246.363 34.7988C245.862 34.7988 245.458 34.6719 245.152 34.418C244.853 34.1576 244.703 33.8255 244.703 33.4219C244.703 32.9987 244.856 32.6406 245.162 32.3477C245.475 32.0547 245.872 31.8171 246.354 31.6348C246.842 31.446 247.353 31.3092 247.887 31.2246C248.421 31.14 248.915 31.0977 249.371 31.0977C250.113 31.0977 250.751 31.166 251.285 31.3027C251.826 31.4395 252.265 31.6315 252.604 31.8789C252.949 32.1198 253.202 32.4062 253.365 32.7383C253.528 33.0638 253.609 33.4219 253.609 33.8125V39.0664C253.609 39.3203 253.645 39.5352 253.717 39.7109C253.788 39.8802 253.876 39.9648 253.98 39.9648C254.072 39.9648 254.215 39.9453 254.41 39.9062C254.612 39.8607 254.732 39.8379 254.771 39.8379C254.882 39.8379 254.957 39.903 254.996 40.0332C255.042 40.1569 255.064 40.2773 255.064 40.3945C255.064 40.4792 255.045 40.5378 255.006 40.5703C254.902 40.6419 254.586 40.7721 254.059 40.9609C253.531 41.1497 252.87 41.2441 252.076 41.2441C251.471 41.2441 251.07 41.1595 250.875 40.9902C250.686 40.821 250.592 40.4694 250.592 39.9355V39.7891C250.169 40.2904 249.661 40.6582 249.068 40.8926C248.476 41.1204 247.838 41.2344 247.154 41.2344C246.764 41.2344 246.34 41.1497 245.885 40.9805C245.436 40.8047 245.048 40.528 244.723 40.1504C244.404 39.7663 244.244 39.2617 244.244 38.6367ZM247.555 38.5391C247.555 38.8646 247.659 39.1608 247.867 39.4277C248.082 39.6947 248.404 39.8281 248.834 39.8281C249.251 39.8281 249.589 39.7435 249.85 39.5742C250.11 39.4049 250.302 39.2422 250.426 39.0859V35.9414C249.99 36.0065 249.55 36.1139 249.107 36.2637C248.665 36.4069 248.294 36.6543 247.994 37.0059C247.701 37.3509 247.555 37.862 247.555 38.5391ZM256.002 41C255.891 41 255.807 40.9512 255.748 40.8535C255.696 40.7559 255.67 40.6712 255.67 40.5996C255.67 40.3783 255.777 40.2578 255.992 40.2383C256.233 40.2188 256.48 40.1732 256.734 40.1016C256.988 40.0234 257.115 39.8932 257.115 39.7109L257.125 28.0312C257.125 27.6211 257.024 27.3444 256.822 27.2012C256.627 27.0579 256.399 26.9733 256.139 26.9473C255.885 26.9212 255.663 26.8854 255.475 26.8398C255.41 26.8073 255.354 26.765 255.309 26.7129C255.263 26.6608 255.24 26.5729 255.24 26.4492C255.24 26.3711 255.26 26.2832 255.299 26.1855C255.344 26.0814 255.403 26.026 255.475 26.0195C256.38 25.9609 257.229 25.9219 258.023 25.9023C258.818 25.8828 259.417 25.873 259.82 25.873C259.872 25.873 259.934 25.9023 260.006 25.9609C260.077 26.013 260.113 26.1172 260.113 26.2734V39.3887C260.113 39.6361 260.178 39.8184 260.309 39.9355C260.445 40.0462 260.605 40.1211 260.787 40.1602C260.976 40.1927 261.148 40.2188 261.305 40.2383C261.441 40.2513 261.533 40.2773 261.578 40.3164C261.63 40.3555 261.656 40.4499 261.656 40.5996C261.656 40.6712 261.627 40.7559 261.568 40.8535C261.516 40.9512 261.435 41 261.324 41H256.002ZM88.1113 48.9883L88.0918 55.9609C88.0918 57.0352 87.8802 57.9727 87.457 58.7734C87.0404 59.5677 86.4382 60.1862 85.6504 60.6289C84.8626 61.0651 83.9121 61.2832 82.7988 61.2832C81.5749 61.2832 80.4746 61.1139 79.498 60.7754C78.5215 60.4303 77.7533 59.8477 77.1934 59.0273C76.6335 58.207 76.3535 57.0807 76.3535 55.6484L76.3633 48.9492C76.3633 48.6693 76.2884 48.4674 76.1387 48.3438C75.9889 48.2135 75.8066 48.1289 75.5918 48.0898C75.3835 48.0443 75.1784 48.015 74.9766 48.002C74.8398 47.9889 74.7454 47.9629 74.6934 47.9238C74.6478 47.8783 74.625 47.7839 74.625 47.6406C74.625 47.569 74.651 47.4681 74.7031 47.3379C74.7617 47.2077 74.8464 47.1426 74.957 47.1426H81.1484C81.2591 47.1426 81.3405 47.2077 81.3926 47.3379C81.4512 47.4681 81.4805 47.569 81.4805 47.6406C81.4805 47.862 81.373 47.9824 81.1582 48.002C80.9368 48.015 80.709 48.0443 80.4746 48.0898C80.2402 48.1354 80.0417 48.2005 79.8789 48.2852C79.7227 48.3698 79.6445 48.4837 79.6445 48.627L79.6348 55.8828C79.6348 57.5299 79.8984 58.6888 80.4258 59.3594C80.9531 60.0299 81.7572 60.3652 82.8379 60.3652C83.8014 60.3652 84.5827 60.1536 85.1816 59.7305C85.7806 59.3073 86.2168 58.7637 86.4902 58.0996C86.7702 57.429 86.9102 56.7227 86.9102 55.9805V48.8516C86.9102 48.6302 86.8027 48.4642 86.5879 48.3535C86.373 48.2363 86.1289 48.1549 85.8555 48.1094C85.5885 48.0573 85.3639 48.0215 85.1816 48.002C85.0449 47.9889 84.9505 47.9629 84.8984 47.9238C84.8529 47.8783 84.8301 47.7839 84.8301 47.6406C84.8301 47.569 84.8561 47.4681 84.9082 47.3379C84.9668 47.2077 85.0514 47.1426 85.1621 47.1426H89.7227C89.8333 47.1426 89.9147 47.2077 89.9668 47.3379C90.0254 47.4681 90.0547 47.569 90.0547 47.6406C90.0547 47.875 89.9473 47.9954 89.7324 48.002C89.2311 48.0215 88.834 48.1126 88.541 48.2754C88.2546 48.4382 88.1113 48.6758 88.1113 48.9883ZM91.7051 61C91.5944 61 91.5098 60.9512 91.4512 60.8535C91.3991 60.7559 91.373 60.6712 91.373 60.5996C91.373 60.3848 91.4805 60.2643 91.6953 60.2383C91.9362 60.2057 92.1673 60.1471 92.3887 60.0625C92.6165 59.9779 92.7305 59.8281 92.7305 59.6133V53.4023C92.7305 52.9987 92.6426 52.7253 92.4668 52.582C92.291 52.4388 92.0892 52.3542 91.8613 52.3281C91.6335 52.3021 91.4382 52.2663 91.2754 52.2207C91.2103 52.1882 91.1549 52.1458 91.1094 52.0938C91.0638 52.0417 91.041 51.9538 91.041 51.8301C91.041 51.752 91.0605 51.6641 91.0996 51.5664C91.1387 51.4622 91.1973 51.4069 91.2754 51.4004C92.1738 51.3483 92.9909 51.3125 93.7266 51.293C94.4688 51.2734 95.0286 51.2637 95.4062 51.2637C95.4583 51.2637 95.5169 51.2897 95.582 51.3418C95.6471 51.3939 95.6862 51.498 95.6992 51.6543V52.748C95.8229 52.5983 96.0801 52.3932 96.4707 52.1328C96.8678 51.8724 97.3398 51.6348 97.8867 51.4199C98.4336 51.2051 98.9967 51.0977 99.5762 51.0977C100.13 51.0977 100.644 51.1725 101.119 51.3223C101.601 51.472 101.988 51.7552 102.281 52.1719C102.574 52.5885 102.721 53.2005 102.721 54.0078V59.291C102.721 59.6035 102.789 59.8216 102.926 59.9453C103.069 60.069 103.235 60.1439 103.424 60.1699C103.619 60.1895 103.798 60.2122 103.961 60.2383C104.072 60.2513 104.153 60.2806 104.205 60.3262C104.257 60.3652 104.283 60.4564 104.283 60.5996C104.283 60.6712 104.254 60.7559 104.195 60.8535C104.143 60.9512 104.062 61 103.951 61H98.707C98.5964 61 98.5117 60.9512 98.4531 60.8535C98.401 60.7559 98.375 60.6712 98.375 60.5996C98.375 60.4954 98.3913 60.4141 98.4238 60.3555C98.4629 60.2904 98.5475 60.2513 98.6777 60.2383C98.8861 60.2122 99.0944 60.1471 99.3027 60.043C99.5111 59.9388 99.6152 59.7956 99.6152 59.6133V54.0566C99.6152 53.8939 99.599 53.6986 99.5664 53.4707C99.5339 53.2363 99.4362 53.0312 99.2734 52.8555C99.1172 52.6732 98.8438 52.582 98.4531 52.582C98.1016 52.582 97.75 52.6504 97.3984 52.7871C97.0534 52.9173 96.7376 53.0768 96.4512 53.2656C96.1712 53.4544 95.9531 53.6335 95.7969 53.8027V59.291C95.7969 59.7077 95.9043 59.9648 96.1191 60.0625C96.3405 60.1536 96.5716 60.2122 96.8125 60.2383C96.9492 60.2513 97.0404 60.2773 97.0859 60.3164C97.138 60.3555 97.1641 60.4499 97.1641 60.5996C97.1641 60.6712 97.1348 60.7559 97.0762 60.8535C97.0241 60.9512 96.9427 61 96.832 61H91.7051ZM105.523 61C105.413 61 105.328 60.9512 105.27 60.8535C105.217 60.7559 105.191 60.6712 105.191 60.5996C105.191 60.3783 105.299 60.2578 105.514 60.2383C105.755 60.2188 106.002 60.1732 106.256 60.1016C106.51 60.0234 106.637 59.8932 106.637 59.7109L106.646 53.4023C106.646 52.9987 106.562 52.7253 106.393 52.582C106.223 52.4388 106.025 52.3542 105.797 52.3281C105.569 52.3021 105.367 52.2663 105.191 52.2207C105.126 52.1882 105.071 52.1458 105.025 52.0938C104.98 52.0417 104.957 51.9538 104.957 51.8301C104.957 51.752 104.977 51.6641 105.016 51.5664C105.055 51.4622 105.113 51.4069 105.191 51.4004C106.122 51.3418 106.962 51.306 107.711 51.293C108.466 51.2734 109.042 51.2637 109.439 51.2637C109.492 51.2637 109.553 51.2897 109.625 51.3418C109.697 51.3939 109.732 51.498 109.732 51.6543V59.3887C109.732 59.6361 109.798 59.8184 109.928 59.9355C110.064 60.0462 110.224 60.1211 110.406 60.1602C110.595 60.1927 110.768 60.2188 110.924 60.2383C111.061 60.2513 111.152 60.2773 111.197 60.3164C111.249 60.3555 111.275 60.4499 111.275 60.5996C111.275 60.6712 111.246 60.7559 111.188 60.8535C111.135 60.9512 111.054 61 110.943 61H105.523ZM108.121 49.7695C107.613 49.7695 107.18 49.6035 106.822 49.2715C106.464 48.9395 106.285 48.5098 106.285 47.9824C106.285 47.4551 106.464 47.0254 106.822 46.6934C107.18 46.3548 107.613 46.1855 108.121 46.1855C108.622 46.1855 109.052 46.3548 109.41 46.6934C109.775 47.0254 109.957 47.4551 109.957 47.9824C109.957 48.5098 109.775 48.9395 109.41 49.2715C109.052 49.6035 108.622 49.7695 108.121 49.7695ZM116.52 61.0879L112.525 52.9043C112.363 52.5658 112.2 52.3477 112.037 52.25C111.874 52.1458 111.673 52.0807 111.432 52.0547C111.295 52.0417 111.204 52.0156 111.158 51.9766C111.106 51.931 111.08 51.8366 111.08 51.6934C111.08 51.6217 111.109 51.5371 111.168 51.4395C111.227 51.3418 111.308 51.293 111.412 51.293H116.969C117.079 51.293 117.161 51.3418 117.213 51.4395C117.271 51.5371 117.301 51.6217 117.301 51.6934C117.301 51.9082 117.193 52.0286 116.979 52.0547C116.646 52.0938 116.37 52.1361 116.148 52.1816C115.927 52.2272 115.816 52.3184 115.816 52.4551L118.443 58.5L120.914 52.4844C120.914 52.3802 120.842 52.3021 120.699 52.25C120.556 52.1914 120.39 52.1491 120.201 52.123C120.012 52.0905 119.843 52.0677 119.693 52.0547C119.479 52.0286 119.371 51.9082 119.371 51.6934C119.371 51.6217 119.397 51.5371 119.449 51.4395C119.508 51.3418 119.592 51.293 119.703 51.293H123.268C123.378 51.293 123.46 51.3418 123.512 51.4395C123.57 51.5371 123.6 51.6217 123.6 51.6934C123.6 51.8366 123.574 51.931 123.521 51.9766C123.476 52.0156 123.385 52.0417 123.248 52.0547C123.007 52.0807 122.786 52.1426 122.584 52.2402C122.389 52.3379 122.213 52.5592 122.057 52.9043L118.355 61.0879H116.52ZM129.176 61.2832C127.242 61.2832 125.826 60.8275 124.928 59.916C124.029 58.998 123.58 57.7253 123.58 56.0977C123.58 55.0104 123.831 54.0957 124.332 53.3535C124.84 52.6113 125.507 52.0514 126.334 51.6738C127.161 51.2897 128.056 51.0977 129.02 51.0977C130.029 51.0977 130.846 51.2311 131.471 51.498C132.102 51.765 132.584 52.1458 132.916 52.6406C133.255 53.1354 133.479 53.7279 133.59 54.418C133.629 54.6523 133.652 54.9128 133.658 55.1992C133.671 55.4857 133.678 55.7624 133.678 56.0293L126.9 56.0391C126.9 57.0417 127.057 57.8294 127.369 58.4023C127.682 58.9753 128.069 59.3822 128.531 59.623C129 59.8574 129.462 59.9746 129.918 59.9746C130.504 59.9746 131.002 59.8997 131.412 59.75C131.822 59.5938 132.184 59.3333 132.496 58.9688C132.529 58.9362 132.561 58.9004 132.594 58.8613C132.633 58.8223 132.685 58.8092 132.75 58.8223L133.18 59.0273C133.245 59.0534 133.277 59.0924 133.277 59.1445C133.277 59.1706 133.271 59.1966 133.258 59.2227C133.251 59.2487 133.238 59.278 133.219 59.3105C132.887 59.89 132.385 60.3652 131.715 60.7363C131.051 61.1009 130.204 61.2832 129.176 61.2832ZM126.93 55.1309H130.426C130.426 53.998 130.312 53.181 130.084 52.6797C129.856 52.1784 129.492 51.9277 128.99 51.9277C128.671 51.9277 128.365 52.0352 128.072 52.25C127.779 52.4583 127.532 52.7969 127.33 53.2656C127.128 53.7344 126.995 54.3561 126.93 55.1309ZM135.348 61C135.237 61 135.152 60.9512 135.094 60.8535C135.042 60.7559 135.016 60.6712 135.016 60.5996C135.016 60.3848 135.123 60.2643 135.338 60.2383C135.605 60.2188 135.859 60.1732 136.1 60.1016C136.347 60.0234 136.471 59.8932 136.471 59.7109V53.4023C136.471 52.9987 136.386 52.722 136.217 52.5723C136.048 52.4225 135.849 52.3314 135.621 52.2988C135.393 52.2663 135.191 52.2272 135.016 52.1816C134.951 52.1491 134.895 52.1068 134.85 52.0547C134.804 52.0026 134.781 51.9147 134.781 51.791C134.781 51.7129 134.801 51.625 134.84 51.5273C134.885 51.4232 134.944 51.3678 135.016 51.3613C135.947 51.3223 136.767 51.2995 137.477 51.293C138.193 51.2799 138.749 51.2702 139.146 51.2637C139.199 51.2637 139.257 51.2897 139.322 51.3418C139.387 51.3939 139.426 51.498 139.439 51.6543V53.6367C139.622 53.2331 139.885 52.8359 140.23 52.4453C140.582 52.0547 140.989 51.7324 141.451 51.4785C141.92 51.2246 142.418 51.0977 142.945 51.0977C143.349 51.0977 143.668 51.1855 143.902 51.3613C144.143 51.5306 144.316 51.752 144.42 52.0254C144.531 52.2923 144.586 52.5755 144.586 52.875C144.586 53.207 144.508 53.513 144.352 53.793C144.202 54.0729 144.016 54.3008 143.795 54.4766C143.574 54.6458 143.359 54.7305 143.15 54.7305L141.725 52.8652C141.419 52.8652 141.126 52.9727 140.846 53.1875C140.566 53.4023 140.315 53.6758 140.094 54.0078C139.879 54.3398 139.7 54.6784 139.557 55.0234V59.3887C139.557 59.6361 139.651 59.8151 139.84 59.9258C140.029 60.0365 140.26 60.1113 140.533 60.1504C140.807 60.1829 141.07 60.2122 141.324 60.2383C141.461 60.2513 141.552 60.2773 141.598 60.3164C141.65 60.3555 141.676 60.4499 141.676 60.5996C141.676 60.6712 141.646 60.7559 141.588 60.8535C141.536 60.9512 141.454 61 141.344 61H135.348ZM149.82 61.293C149.273 61.293 148.785 61.2148 148.355 61.0586C147.926 60.9089 147.623 60.7917 147.447 60.707C147.343 60.6549 147.242 60.6289 147.145 60.6289C146.969 60.6289 146.848 60.6647 146.783 60.7363C146.725 60.8079 146.663 60.8796 146.598 60.9512C146.533 61.0228 146.406 61.0586 146.217 61.0586C146.093 61.0586 145.979 61.0326 145.875 60.9805C145.771 60.9219 145.719 60.8503 145.719 60.7656C145.719 60.6875 145.712 60.5182 145.699 60.2578C145.693 59.9974 145.683 59.7044 145.67 59.3789C145.663 59.0534 145.654 58.7474 145.641 58.4609C145.634 58.168 145.631 57.9531 145.631 57.8164C145.631 57.6667 145.683 57.5592 145.787 57.4941C145.898 57.429 146.015 57.3965 146.139 57.3965C146.399 57.3965 146.549 57.4681 146.588 57.6113C146.627 57.7546 146.679 57.9238 146.744 58.1191C146.816 58.3079 146.93 58.5651 147.086 58.8906C147.177 59.0729 147.33 59.2878 147.545 59.5352C147.76 59.7826 148.046 60.0007 148.404 60.1895C148.762 60.3717 149.195 60.4629 149.703 60.4629C150.243 60.4629 150.67 60.3717 150.982 60.1895C151.295 60.0007 151.451 59.7207 151.451 59.3496C151.451 59.0566 151.363 58.7962 151.188 58.5684C151.018 58.3405 150.725 58.1191 150.309 57.9043C149.892 57.6829 149.312 57.4421 148.57 57.1816C148.154 57.0319 147.734 56.8301 147.311 56.5762C146.894 56.3158 146.542 55.987 146.256 55.5898C145.976 55.1862 145.836 54.7012 145.836 54.1348C145.836 53.5618 146.018 53.0475 146.383 52.5918C146.747 52.1361 147.242 51.7747 147.867 51.5078C148.492 51.2344 149.199 51.0977 149.986 51.0977C150.605 51.0977 151.113 51.1855 151.51 51.3613C151.907 51.5371 152.177 51.625 152.32 51.625C152.464 51.625 152.545 51.5892 152.564 51.5176C152.59 51.446 152.623 51.3743 152.662 51.3027C152.701 51.2311 152.766 51.179 152.857 51.1465C152.949 51.1139 153.043 51.0977 153.141 51.0977C153.284 51.0977 153.411 51.127 153.521 51.1855C153.639 51.2441 153.697 51.3288 153.697 51.4395C153.697 51.498 153.691 51.6576 153.678 51.918C153.671 52.1784 153.668 52.4616 153.668 52.7676C153.668 52.9564 153.674 53.1452 153.688 53.334C153.707 53.5228 153.717 53.6921 153.717 53.8418C153.717 54.0371 153.665 54.1771 153.561 54.2617C153.456 54.3398 153.336 54.3789 153.199 54.3789C152.958 54.3789 152.815 54.3138 152.77 54.1836C152.678 53.9036 152.542 53.5911 152.359 53.2461C152.184 52.8945 151.917 52.5885 151.559 52.3281C151.207 52.0677 150.722 51.9375 150.104 51.9375C149.895 51.9375 149.677 51.9701 149.449 52.0352C149.228 52.0938 149.039 52.2012 148.883 52.3574C148.733 52.5137 148.658 52.7318 148.658 53.0117C148.658 53.4609 148.837 53.8223 149.195 54.0957C149.553 54.3626 150.11 54.6198 150.865 54.8672C151.477 55.069 152.057 55.3132 152.604 55.5996C153.15 55.8861 153.596 56.2441 153.941 56.6738C154.286 57.1035 154.459 57.6374 154.459 58.2754C154.459 59.2585 154.059 60.0072 153.258 60.5215C152.464 61.0358 151.318 61.293 149.82 61.293ZM156.051 61C155.94 61 155.855 60.9512 155.797 60.8535C155.745 60.7559 155.719 60.6712 155.719 60.5996C155.719 60.3783 155.826 60.2578 156.041 60.2383C156.282 60.2188 156.529 60.1732 156.783 60.1016C157.037 60.0234 157.164 59.8932 157.164 59.7109L157.174 53.4023C157.174 52.9987 157.089 52.7253 156.92 52.582C156.751 52.4388 156.552 52.3542 156.324 52.3281C156.096 52.3021 155.895 52.2663 155.719 52.2207C155.654 52.1882 155.598 52.1458 155.553 52.0938C155.507 52.0417 155.484 51.9538 155.484 51.8301C155.484 51.752 155.504 51.6641 155.543 51.5664C155.582 51.4622 155.641 51.4069 155.719 51.4004C156.65 51.3418 157.49 51.306 158.238 51.293C158.993 51.2734 159.57 51.2637 159.967 51.2637C160.019 51.2637 160.081 51.2897 160.152 51.3418C160.224 51.3939 160.26 51.498 160.26 51.6543V59.3887C160.26 59.6361 160.325 59.8184 160.455 59.9355C160.592 60.0462 160.751 60.1211 160.934 60.1602C161.122 60.1927 161.295 60.2188 161.451 60.2383C161.588 60.2513 161.679 60.2773 161.725 60.3164C161.777 60.3555 161.803 60.4499 161.803 60.5996C161.803 60.6712 161.773 60.7559 161.715 60.8535C161.663 60.9512 161.581 61 161.471 61H156.051ZM158.648 49.7695C158.141 49.7695 157.708 49.6035 157.35 49.2715C156.992 48.9395 156.812 48.5098 156.812 47.9824C156.812 47.4551 156.992 47.0254 157.35 46.6934C157.708 46.3548 158.141 46.1855 158.648 46.1855C159.15 46.1855 159.579 46.3548 159.938 46.6934C160.302 47.0254 160.484 47.4551 160.484 47.9824C160.484 48.5098 160.302 48.9395 159.938 49.2715C159.579 49.6035 159.15 49.7695 158.648 49.7695ZM166.891 61.293C166.344 61.293 165.836 61.2246 165.367 61.0879C164.898 60.9512 164.521 60.7038 164.234 60.3457C163.954 59.9876 163.814 59.4798 163.814 58.8223V52.3574H162.77C162.698 52.3509 162.639 52.2988 162.594 52.2012C162.555 52.097 162.535 52.0059 162.535 51.9277C162.535 51.6803 162.617 51.5306 162.779 51.4785C163.333 51.3743 163.779 51.2279 164.117 51.0391C164.456 50.8438 164.726 50.5573 164.928 50.1797C165.136 49.7956 165.312 49.2747 165.455 48.6172C165.481 48.5065 165.546 48.4154 165.65 48.3438C165.761 48.2721 165.947 48.2363 166.207 48.2363C166.487 48.2363 166.679 48.2689 166.783 48.334C166.894 48.3926 166.949 48.4707 166.949 48.5684V51.293H169.107C169.186 51.2995 169.244 51.3385 169.283 51.4102C169.322 51.4753 169.342 51.5469 169.342 51.625C169.342 51.8398 169.309 52.0124 169.244 52.1426C169.186 52.2728 169.12 52.3379 169.049 52.3379H166.949V57.9531C166.949 58.5065 166.975 58.9297 167.027 59.2227C167.086 59.5091 167.18 59.7077 167.311 59.8184C167.447 59.9225 167.63 59.9746 167.857 59.9746C168.085 59.9746 168.342 59.9355 168.629 59.8574C168.922 59.7728 169.189 59.6654 169.43 59.5352C169.527 59.4831 169.609 59.5091 169.674 59.6133C169.739 59.7109 169.781 59.8216 169.801 59.9453C169.82 60.069 169.807 60.1471 169.762 60.1797C169.599 60.362 169.345 60.5378 169 60.707C168.661 60.8763 168.3 61.0163 167.916 61.127C167.532 61.2376 167.19 61.293 166.891 61.293ZM172.711 65.3848C172.405 65.3848 172.092 65.3099 171.773 65.1602C171.454 65.0169 171.188 64.8184 170.973 64.5645C170.758 64.3171 170.65 64.0371 170.65 63.7246C170.65 63.3665 170.748 63.0768 170.943 62.8555C171.145 62.6341 171.412 62.5234 171.744 62.5234L172.838 63.7637C173.209 63.7637 173.525 63.6725 173.785 63.4902C174.046 63.3079 174.293 63.0378 174.527 62.6797C174.768 62.3281 175.032 61.8952 175.318 61.3809L171.305 52.9043C171.142 52.5592 170.963 52.3379 170.768 52.2402C170.572 52.1426 170.354 52.0807 170.113 52.0547C169.977 52.0417 169.885 52.0156 169.84 51.9766C169.788 51.931 169.762 51.8366 169.762 51.6934C169.762 51.6217 169.791 51.5371 169.85 51.4395C169.902 51.3418 169.98 51.293 170.084 51.293H175.621C175.732 51.293 175.813 51.3418 175.865 51.4395C175.924 51.5371 175.953 51.6217 175.953 51.6934C175.953 51.9082 175.846 52.0286 175.631 52.0547C175.416 52.0807 175.185 52.1198 174.938 52.1719C174.697 52.224 174.576 52.3249 174.576 52.4746L176.832 58.2461L178.854 52.4844C178.854 52.3281 178.723 52.224 178.463 52.1719C178.209 52.1198 177.971 52.0807 177.75 52.0547C177.535 52.0286 177.428 51.9082 177.428 51.6934C177.428 51.6217 177.454 51.5371 177.506 51.4395C177.564 51.3418 177.649 51.293 177.76 51.293H181.227C181.337 51.293 181.419 51.3418 181.471 51.4395C181.529 51.5371 181.559 51.6217 181.559 51.6934C181.559 51.8366 181.533 51.931 181.48 51.9766C181.435 52.0156 181.344 52.0417 181.207 52.0547C180.966 52.0807 180.761 52.1426 180.592 52.2402C180.423 52.3379 180.263 52.5592 180.113 52.9043L177.389 59.4766C177.057 60.2773 176.731 61.0326 176.412 61.7422C176.1 62.4583 175.768 63.0866 175.416 63.627C175.064 64.1738 174.671 64.6035 174.234 64.916C173.798 65.2285 173.29 65.3848 172.711 65.3848Z" fill="white"/>
<defs>
<clipPath id="clip0_69_3">
<rect width="63" height="82" fill="white"/>
</clipPath>
</defs>
</svg>
