<svg width="63" height="82" viewBox="0 0 63 82" fill="none" xmlns="http://www.w3.org/2000/svg">
<path fill-rule="evenodd" clip-rule="evenodd" d="M30.5563 0.461234C27.7443 1.98537 26.1778 2.73327 22.5186 4.29876C15.668 7.22959 7.88651 10.1122 2.2128 11.8209L0.0325311 12.4775L0.0467192 16.2852C0.0545291 18.3795 0.105879 23.6247 0.160874 27.9413C0.215804 32.2578 0.303665 39.1747 0.355992 43.3122C0.459018 51.4531 0.475353 52.0686 0.624718 53.4401C1.48967 61.3792 5.83406 67.8785 13.8576 73.2366C17.6359 75.7597 21.7239 77.8044 30.9142 81.768L31.4675 82.0066L34.2985 80.7609C43.452 76.733 47.353 74.6495 51.2657 71.6988C53.0797 70.3308 55.3314 68.2143 56.5901 66.6942C60.2285 62.3001 62.1074 57.5321 62.4161 51.9095C62.4545 51.211 62.5423 46.1698 62.6113 40.707C62.9409 14.6069 62.966 12.9668 63.0013 15.2733L63.0351 17.4877L63.0501 14.9778C63.0648 12.5103 63.0629 12.4676 62.9351 12.458C62.6956 12.4399 58.497 11.1494 56.6544 10.5275C51.15 8.6697 43.6355 5.74349 38.4112 3.42359C36.0597 2.37934 35.1748 1.95033 33.2271 0.910769C32.2887 0.409846 31.4943 0.000627271 31.4617 0.00134371C31.4291 0.00206015 31.0216 0.208982 30.5563 0.461234ZM30.4261 3.33091C25.2224 6.1251 11.836 11.4613 4.06766 13.838L2.50567 14.316L2.48621 14.6416C2.46949 14.9216 2.5701 23.2995 2.86324 46.0477C2.94622 52.4879 3.01572 53.5653 3.48334 55.6565C3.87924 57.4271 4.34113 58.72 5.20497 60.4757C5.88769 61.8631 6.86842 63.4183 7.76057 64.5284C11.0768 68.6543 15.9022 72.1279 23.022 75.5147C25.6689 76.7738 31.2887 79.2645 31.4825 79.2645C31.7025 79.2645 38.1971 76.3561 40.6949 75.1391C50.0866 70.563 55.5736 65.6292 58.2357 59.367C59.0765 57.3892 59.5776 55.4701 59.8515 53.1795C59.9662 52.2198 60.0176 49.4199 60.2309 32.5004C60.3197 25.4614 60.4117 18.4956 60.4353 17.0209L60.4784 14.3396L59.803 14.1349C51.3747 11.5809 37.8448 6.22637 32.428 3.30121C31.9182 3.0259 31.4789 2.80204 31.4518 2.80367C31.4246 2.80537 30.9631 3.04264 30.4261 3.33091ZM30.4912 5.50896C26.852 7.40655 18.4199 10.8984 10.9783 13.5896C9.05448 14.2852 5.02899 15.6413 4.63251 15.7273L4.41643 15.7741L4.45704 18.0638C4.47937 19.3231 4.55415 24.911 4.6232 30.4814C4.86264 49.7924 4.88438 51.23 4.94985 52.1049C5.51177 59.6127 9.61035 65.4897 17.7676 70.4844C20.153 71.945 22.919 73.3654 26.6188 75.0298C28.9184 76.0642 31.3843 77.137 31.4591 77.1353C31.5588 77.1331 35.3833 75.4511 37.39 74.527C43.0259 71.9314 46.8138 69.6843 49.9184 67.0948C50.8638 66.3062 52.6576 64.513 53.335 63.6795C55.9329 60.4825 57.3603 57.1731 57.8916 53.1144C58.0071 52.232 58.0507 50.1216 58.2162 37.3853C58.2732 32.9971 58.3598 26.3586 58.4085 22.6331C58.4572 18.9076 58.4769 15.8379 58.4521 15.8116C58.4274 15.7853 57.8078 15.5741 57.0753 15.3424C52.4474 13.8781 44.3403 10.8004 38.3988 8.25215C36.1099 7.27049 34.9412 6.7372 33.0735 5.82237C32.167 5.37837 31.4202 5.01937 31.4139 5.02451C31.4076 5.02966 30.9923 5.24765 30.4912 5.50896ZM0.0296024 15.0127C0.0296024 16.4098 0.0381933 16.9721 0.0487367 16.2622C0.0592801 15.5524 0.059215 14.4093 0.0486716 13.7221C0.0381933 13.0349 0.0295373 13.6157 0.0296024 15.0127ZM21.8706 13.4546C21.5423 13.5972 21.2309 13.8523 21.1176 14.0717C21.063 14.1773 21.0264 14.2634 21.0363 14.263C21.0462 14.2626 21.198 14.2187 21.3737 14.1653C22.0564 13.9581 22.1284 14.0982 21.5016 14.4144L21.0704 14.6319L21.2901 14.7236C21.5968 14.8515 22.021 14.8214 22.2944 14.6523C22.5226 14.5111 23.2345 13.6892 23.2345 13.5668C23.2345 13.3554 22.2802 13.2768 21.8706 13.4546ZM39.8124 13.4553L39.6315 13.5535L39.9426 13.9497C40.3359 14.451 40.6422 14.7047 40.9564 14.7897C41.2006 14.8558 41.3178 14.8422 41.6703 14.7069L41.8505 14.6377L41.5402 14.4904C41.1585 14.3093 40.9554 14.1585 41.014 14.0999C41.0571 14.0566 41.5665 14.1446 41.806 14.2365C41.9204 14.2805 41.9212 14.2728 41.8221 14.0809C41.7186 13.8807 41.3325 13.5815 40.9827 13.4305C40.7294 13.3211 40.0325 13.3359 39.8124 13.4553ZM19.4917 13.799C18.9932 14.0256 18.5483 14.7191 18.496 15.3512C18.4643 15.7334 18.5305 15.7897 18.6915 15.5175C18.8226 15.296 19.121 15.0103 19.1701 15.0594C19.1901 15.0794 19.1316 15.2799 19.0403 15.5049C18.9489 15.7298 18.8866 15.9263 18.9017 15.9415C18.9583 15.9981 19.2152 15.8742 19.4272 15.6878C19.7035 15.4451 19.8272 15.0628 19.8825 14.28C19.9303 13.6036 19.928 13.6007 19.4917 13.799ZM43.0516 14.3362C43.1031 15.0716 43.1961 15.3739 43.4538 15.643C43.6207 15.8174 43.9731 16.0016 44.0304 15.9443C44.0471 15.9276 43.986 15.7298 43.8946 15.5049C43.8033 15.2799 43.7446 15.0797 43.7642 15.0601C43.8155 15.0087 44.0432 15.2292 44.1985 15.4807C44.3682 15.7554 44.4514 15.7549 44.4514 15.479C44.4514 14.7333 43.8319 13.8614 43.1909 13.7051L43.0043 13.6596L43.0516 14.3362ZM30.0356 15.0204C28.0075 15.3086 26.5943 15.7333 25.0568 16.5167C19.9929 19.0971 16.8576 24.4149 17.0729 30.058C17.1589 32.3123 17.6257 34.1666 18.5965 36.1108C21.2194 41.3636 26.7417 44.5469 32.5528 44.1559C34.6518 44.0146 36.3946 43.5415 38.2146 42.6187C40.4714 41.4745 42.3571 39.7965 43.7664 37.6787C45.3105 35.3584 46.1049 32.8594 46.1906 30.0524C46.231 28.728 46.1571 27.8056 45.9131 26.5918C44.8561 21.3324 40.7924 16.9565 35.6104 15.4976C34.2184 15.1056 33.6333 15.0297 31.8579 15.0104C30.9631 15.0007 30.143 15.0052 30.0356 15.0204ZM30.719 15.6724C29.2891 15.8063 27.9617 16.0949 26.8309 16.5177C21.8426 18.383 18.3844 22.8691 17.8273 28.1976C17.7321 29.1074 17.783 30.9152 17.9282 31.784C18.784 36.906 22.3722 41.1413 27.2274 42.7604C32.7793 44.6118 38.8394 42.8142 42.4937 38.232C43.7482 36.659 44.6699 34.7607 45.1373 32.7873C45.6221 30.7404 45.6108 28.1759 45.1082 26.2062C44.6236 24.3068 43.6943 22.4355 42.4538 20.8615C41.9841 20.2655 40.8932 19.1697 40.2861 18.6839C38.3931 17.1692 36.0774 16.1678 33.6138 15.7987C32.9427 15.6981 31.2384 15.6238 30.719 15.6724ZM20.0454 15.8959C19.863 15.973 19.5448 16.2579 19.4538 16.4256C19.3995 16.5257 19.4371 16.5328 19.8662 16.5024L20.3383 16.4691L20.1856 16.6032C20.1015 16.6769 19.9185 16.7715 19.7788 16.8134C19.6391 16.8553 19.5248 16.912 19.5248 16.9394C19.5248 17.0448 20.0128 17.1447 20.3698 17.1122C20.9281 17.0616 21.4237 16.7603 21.6446 16.3373L21.7352 16.1637L21.3296 16.0259C20.8413 15.8599 20.268 15.8019 20.0454 15.8959ZM42.141 15.8712C42.0694 15.8872 41.8282 15.9593 41.605 16.0314L41.1991 16.1626L41.29 16.3367C41.518 16.7734 42.0151 17.0667 42.6078 17.1143C42.9873 17.1447 43.4101 17.0531 43.4101 16.9404C43.4101 16.9168 43.2856 16.8604 43.1335 16.8151C42.9814 16.7699 42.7837 16.6733 42.6942 16.6005L42.5315 16.4682L43.0355 16.5007C43.5974 16.5369 43.6174 16.5013 43.2367 16.1404C42.9418 15.8609 42.5819 15.7724 42.141 15.8712ZM45.6554 16.5673C45.5009 17.5902 45.5729 17.9488 46.02 18.3833C46.3329 18.6873 46.5168 18.7811 46.448 18.6015C46.374 18.4087 46.2617 17.7288 46.2843 17.6112C46.3035 17.5118 46.3379 17.536 46.4614 17.7361C46.5459 17.8727 46.6661 18.1194 46.7285 18.2842L46.8422 18.584L46.9241 18.336C47.1814 17.5557 46.7038 16.3096 46.012 15.9564L45.7666 15.8311L45.6554 16.5673ZM16.636 16.1527C16.2697 16.4906 15.9939 17.0923 15.9575 17.6329C15.9286 18.062 15.9831 18.4973 16.0655 18.4973C16.0926 18.4973 16.1648 18.3581 16.226 18.1879C16.2872 18.0177 16.4091 17.7906 16.4969 17.6831L16.6565 17.4877L16.6588 17.6857C16.6601 17.7946 16.6172 18.0525 16.5635 18.2588C16.448 18.7026 16.4488 18.6927 16.5287 18.6927C16.6488 18.6927 17.06 18.2802 17.1856 18.0339C17.3348 17.7412 17.3573 16.9671 17.2356 16.3066C17.1424 15.7999 17.0454 15.775 16.636 16.1527ZM29.2808 16.9979C27.2953 17.3685 25.4291 18.2071 23.7877 19.466C23.3429 19.8071 22.3233 20.7685 22.3233 20.8467C22.3233 20.9 23.5514 21.8115 23.7897 21.9351C23.9076 21.9963 23.9907 21.9232 24.5589 21.2587C25.6847 19.9421 27.4291 18.4674 29.0697 17.4453C29.9107 16.9213 29.9803 16.876 29.938 16.8789C29.9201 16.8802 29.6244 16.9337 29.2808 16.9979ZM34.2726 17.5745C36.2866 18.9047 37.7842 20.2357 39.1226 21.8854L39.3583 22.176L39.9687 21.705C40.3044 21.4461 40.6663 21.1562 40.773 21.0608L40.967 20.8875L40.4151 20.3689C38.6358 18.697 36.6323 17.6197 34.3311 17.0977C33.1957 16.8401 33.1931 16.8615 34.2726 17.5745ZM30.9007 17.5559C29.7737 18.7649 28.5507 20.565 27.7211 22.2358C27.4012 22.8801 27.1395 23.4591 27.1395 23.5225C27.1395 23.7481 29.3093 24.3345 30.6865 24.4812C30.9728 24.5117 31.2147 24.5306 31.2239 24.5233C31.2332 24.516 31.2332 22.8713 31.2239 20.8686L31.2071 17.2272L30.9007 17.5559ZM31.8924 20.8583L31.8905 24.5544H32.2415C33.1557 24.5544 34.5281 24.3362 35.5898 24.0221C36.0668 23.8809 36.0675 23.8803 36.0289 23.6802C36.0077 23.57 35.713 22.9192 35.3741 22.2341C34.5325 20.5328 33.4258 18.8902 32.1541 17.4552L31.8944 17.1621L31.8924 20.8583ZM28.9963 18.2415C27.7785 19.0607 26.9911 19.6926 26.0427 20.6119C25.3417 21.2914 24.4265 22.3194 24.4793 22.3681C24.5581 22.4406 26.3719 23.317 26.4433 23.317C26.4908 23.317 26.5975 23.1485 26.6803 22.9425C27.2415 21.5461 28.4974 19.48 29.6982 17.9776C29.8706 17.7619 30.0024 17.5856 29.9911 17.5858C29.9798 17.5859 29.5321 17.881 28.9963 18.2415ZM33.1662 17.6564C33.2056 17.707 33.4204 17.9804 33.6435 18.2643C34.7572 19.6807 35.8091 21.5089 36.5996 23.4022L36.6988 23.6399L37.2071 23.3992C37.8306 23.104 38.7069 22.616 38.7558 22.5368C38.8519 22.3813 36.9359 20.3703 35.8605 19.4981C34.9423 18.7533 32.9703 17.4053 33.1662 17.6564ZM14.4214 18.5084C14.0561 18.9355 13.9078 19.3976 13.9023 20.1255C13.8985 20.632 13.9237 20.8013 14.0413 21.0585C14.1977 21.4005 14.3165 21.4107 14.321 21.0824C14.3246 20.8177 14.5253 20.2232 14.611 20.2232C14.6476 20.2232 14.6904 20.4946 14.7087 20.842L14.7412 21.4607L14.9269 21.2653C15.5081 20.6536 15.5158 19.9388 14.9557 18.5787C14.8783 18.3906 14.7786 18.2367 14.7343 18.2367C14.69 18.2367 14.5491 18.359 14.4214 18.5084ZM17.6699 18.2989C17.4778 18.3901 17.2775 18.5722 17.1538 18.7681L17.0444 18.9413L17.5687 18.9054C17.9101 18.882 18.093 18.893 18.093 18.9369C18.093 19.0106 18.0488 19.0329 17.4841 19.2448L17.1031 19.3878L17.3312 19.4961C17.6276 19.6369 18.2997 19.6371 18.7115 19.4966C19.0674 19.3753 19.6108 18.882 19.5777 18.7102C19.5252 18.437 18.0493 18.1188 17.6699 18.2989ZM43.8982 18.4003C43.6477 18.4887 43.405 18.5755 43.359 18.5931C43.2926 18.6185 43.2958 18.6645 43.3739 18.8159C43.514 19.087 43.9064 19.3905 44.2753 19.5132C44.683 19.6486 45.506 19.6191 45.6616 19.4634C45.7595 19.3654 45.756 19.3541 45.6139 19.3147C45.3226 19.234 44.8419 18.9959 44.8419 18.9324C44.8419 18.8929 45.0399 18.884 45.3638 18.909C45.8442 18.9461 45.8809 18.9403 45.825 18.8372C45.7455 18.6906 45.4328 18.4023 45.253 18.3098C45.0108 18.1853 44.3899 18.2268 43.8982 18.4003ZM47.8851 18.8077C47.4431 19.8892 47.4352 20.5633 47.858 21.1164C48.1837 21.5427 48.2187 21.5164 48.24 20.8303C48.2503 20.4964 48.287 20.2232 48.3215 20.2232C48.4026 20.2232 48.6076 20.8765 48.6128 21.1514C48.6185 21.4565 48.7091 21.4125 48.8809 21.0211C49.0858 20.554 49.0839 19.6806 48.8767 19.1287C48.7438 18.7745 48.3252 18.2367 48.1824 18.2367C48.1472 18.2367 48.0134 18.4937 47.8851 18.8077ZM15.9879 20.8719C15.6798 20.9818 15.4506 21.1898 15.2881 21.507C15.22 21.6399 15.1642 21.7629 15.1642 21.7803C15.1642 21.7977 15.3299 21.7549 15.5324 21.6852C15.7349 21.6155 15.9743 21.5584 16.0644 21.5584H16.2283L16.0757 21.7209C15.9918 21.8103 15.7817 21.954 15.6088 22.0402L15.2944 22.197L15.4994 22.2685C16.1486 22.495 17.179 22.0562 17.554 21.3936C17.7929 20.9716 17.7684 20.9328 17.2117 20.8499C16.5817 20.7561 16.2979 20.7612 15.9879 20.8719ZM45.6392 20.856C45.2785 20.9114 45.2324 20.9352 45.2324 21.0658C45.2324 21.2666 45.5653 21.7112 45.8941 21.9496C46.3517 22.2813 47.0219 22.4236 47.4177 22.273L47.594 22.2059L47.2104 21.9759C46.9996 21.8494 46.7841 21.7037 46.7317 21.6521C46.6484 21.5702 46.6614 21.5584 46.8354 21.5584C46.9448 21.5584 47.2 21.6155 47.4025 21.6852C47.605 21.7549 47.7707 21.7977 47.7707 21.7803C47.7707 21.6645 47.4822 21.2206 47.3159 21.0806C46.9625 20.783 46.509 20.7223 45.6392 20.856ZM21.4128 21.8972C20.3369 23.3383 19.564 25.024 19.1756 26.7765C19.0156 27.4988 18.874 28.5487 18.874 29.0134V29.2439H20.0117C21.3177 29.2439 21.1762 29.3296 21.2482 28.4949C21.3905 26.8465 22.1101 24.7919 23.0933 23.2263C23.3142 22.8747 23.4931 22.568 23.4909 22.5449C23.4873 22.5059 21.9768 21.4196 21.8659 21.3761C21.8386 21.3654 21.6347 21.5999 21.4128 21.8972ZM40.9044 21.7614C40.6897 21.9408 40.3346 22.2205 40.1155 22.383L39.717 22.6785L40.1104 23.305C41.1316 24.931 41.8543 27.0068 42.0199 28.7898L42.0621 29.2439H43.1892H44.3164L44.2822 28.8042C44.1339 26.9005 43.7045 25.3201 42.9127 23.7636C42.4341 22.8229 41.4874 21.4197 41.3394 21.4318C41.3149 21.4338 41.1192 21.5821 40.9044 21.7614ZM12.2893 21.7656C11.919 22.3404 11.9586 23.3637 12.3834 24.2003C12.5402 24.5092 13.0556 25.0582 13.1242 24.9895C13.1413 24.9723 13.1256 24.8455 13.0894 24.7076C12.9752 24.2724 12.9264 23.6426 13.007 23.6426C13.0897 23.6426 13.3496 24.1351 13.4711 24.5219C13.5939 24.9128 13.6408 24.9213 13.7734 24.5763C14.0854 23.7647 13.8397 23.0613 12.9268 22.1525L12.3865 21.6146L12.2893 21.7656ZM49.9714 22.1934C49.248 22.9346 49.0423 23.3217 49.0457 23.9357C49.0474 24.2621 49.0854 24.463 49.1791 24.6428L49.3101 24.8941L49.4588 24.48C49.6461 23.9588 49.851 23.6143 49.928 23.6913C49.9925 23.7559 49.8962 24.5632 49.7911 24.8398C49.7009 25.0773 49.8004 25.0578 50.1111 24.7769C50.806 24.1486 51.1092 22.6871 50.7078 21.9004C50.6301 21.7481 50.5578 21.6236 50.5471 21.6236C50.5364 21.6236 50.2774 21.88 49.9714 22.1934ZM23.744 23.3736C23.2714 24.1028 22.6179 25.4644 22.3608 26.2557C22.119 26.9998 21.9073 28.0122 21.8346 28.7717L21.7895 29.2439H23.5208H25.2521V28.9541C25.2521 28.6322 25.4112 27.3245 25.5181 26.7689C25.633 26.1709 25.9527 24.9404 26.1201 24.4516L26.2781 23.9905L25.1721 23.4335L24.0662 22.8765L23.744 23.3736ZM38.7567 23.2944C38.5419 23.4251 38.0399 23.6899 37.6411 23.8828L36.9159 24.2336L37.136 24.9639C37.501 26.1754 37.7445 27.4522 37.8498 28.7066L37.8949 29.2439H39.6437H41.3926V28.9593C41.3926 27.9179 40.7299 25.6655 40.0774 24.4893C39.7793 23.9519 39.2189 23.0564 39.1807 23.0566C39.1623 23.0567 38.9715 23.1637 38.7567 23.2944ZM15.0184 23.8004C14.6437 23.9343 14.4688 24.0727 14.2931 24.3749C14.1188 24.6746 14.0032 25.044 14.0975 25.0006C14.1294 24.9859 14.321 24.897 14.5232 24.8032C14.9995 24.5821 15.1642 24.5315 15.1642 24.6063C15.1642 24.6785 14.5996 25.2161 14.4156 25.3192C14.2189 25.4294 14.3492 25.4938 14.7493 25.4845C15.2067 25.4738 15.7355 25.2237 16.1251 24.8339C16.4217 24.537 16.6572 24.1054 16.6597 23.8543C16.6611 23.7111 16.6449 23.7078 15.9615 23.7106C15.5504 23.7123 15.1614 23.7493 15.0184 23.8004ZM46.2734 23.9338C46.4522 24.7275 47.3619 25.4652 48.1856 25.4845C48.5857 25.4938 48.716 25.4294 48.5193 25.3192C48.3353 25.2161 47.7707 24.6785 47.7707 24.6063C47.7707 24.5277 47.9706 24.5896 48.4528 24.8177C48.667 24.919 48.8543 24.9897 48.8691 24.975C48.9346 24.9093 48.647 24.3286 48.4527 24.134C48.1364 23.8176 47.7415 23.7077 46.9198 23.7077H46.2224L46.2734 23.9338ZM26.8185 24.3508C26.5447 24.8628 26.0101 27.2937 25.9359 28.3646C25.9135 28.687 25.8817 29.0167 25.8653 29.0973L25.8353 29.2439H28.5375H31.2397V27.2064V25.169L30.5343 25.0939C29.5256 24.9867 27.8622 24.5924 26.9657 24.2481C26.9236 24.2319 26.8573 24.2782 26.8185 24.3508ZM35.5026 24.6944C34.6555 24.9421 33.6087 25.1196 32.6552 25.1772L31.8905 25.2235V27.2337V29.2439H34.5589H37.2273V28.9541C37.2273 28.1753 36.9496 26.5751 36.5967 25.3197C36.4178 24.6837 36.3386 24.4911 36.2583 24.4967C36.2006 24.5008 35.8605 24.5897 35.5026 24.6944ZM10.8637 25.9681C10.6663 26.4877 10.7431 27.1596 11.0815 27.8761C11.3241 28.3898 11.8987 28.9873 12.2518 29.0933C12.5253 29.1754 12.5341 29.168 12.4025 28.9648C12.2778 28.7723 11.9577 27.8068 12.0034 27.761C12.0674 27.6971 12.3066 27.9619 12.6296 28.4542C12.9417 28.9298 12.9453 28.9328 12.9952 28.7473C13.0229 28.6443 13.043 28.366 13.0398 28.129C13.0293 27.3487 12.6342 26.8418 11.4879 26.138L10.9294 25.7951L10.8637 25.9681ZM51.4442 26.1205C50.1843 26.872 49.6666 27.7263 49.9146 28.6446L49.9902 28.9246L50.3023 28.4492C50.474 28.1878 50.6774 27.918 50.7545 27.8498C50.8938 27.7263 50.8946 27.7266 50.8946 27.8971C50.8946 28.0853 50.61 28.8882 50.4936 29.0286C50.3914 29.1519 50.4373 29.1684 50.6914 29.0998C51.2421 28.9511 51.9941 27.8479 52.1329 26.9847C52.1948 26.6005 52.1281 25.952 52.0163 25.8509C51.99 25.8272 51.7326 25.9484 51.4442 26.1205ZM15.4246 27.1382C14.0733 27.2347 13.45 27.6678 13.2429 28.6541L13.1958 28.8785L13.3828 28.7547C13.709 28.5386 14.2176 28.2693 14.3019 28.2681C14.4685 28.2657 14.3717 28.424 13.9583 28.8296C13.4882 29.2908 13.5008 29.3581 14.0424 29.278C14.7685 29.1707 15.6127 28.4789 15.8755 27.7758C16.0582 27.2873 16.0548 27.0911 15.8639 27.106C15.7833 27.1122 15.5857 27.1267 15.4246 27.1382ZM46.948 27.3946C47.0647 28.2467 48.0355 29.1695 48.9434 29.2914C49.4238 29.3558 49.4208 29.2847 48.9218 28.7763C48.5832 28.4314 48.4849 28.2953 48.5633 28.2802C48.6729 28.2591 49.124 28.4718 49.515 28.7288L49.7299 28.8702L49.6881 28.6825C49.5315 27.9788 49.2062 27.5692 48.6339 27.355C48.3531 27.2498 47.4544 27.1105 46.9645 27.0963C46.9328 27.0953 46.9254 27.2296 46.948 27.3946ZM10.2571 30.1065C10.0445 31.1703 10.7844 32.5886 11.8118 33.0863C11.9601 33.1581 12.1443 33.2169 12.2213 33.2169C12.356 33.2169 12.3538 33.2059 12.1637 32.924C11.9401 32.5923 11.6234 31.8538 11.6804 31.7968C11.7278 31.7494 12.3871 32.3962 12.5797 32.6791C12.6589 32.7953 12.7492 32.8905 12.7804 32.8908C12.8811 32.8915 12.7886 31.7679 12.6692 31.5406C12.3794 30.9887 11.8604 30.5896 10.8782 30.1633L10.2963 29.9106L10.2571 30.1065ZM18.9045 30.4977C18.967 31.3145 19.0878 32.012 19.1668 32.012C19.2026 32.012 19.6786 31.8659 20.2244 31.6874L21.2169 31.3629V31.1273C21.2169 30.9978 21.198 30.6676 21.1748 30.3935L21.1328 29.8952H19.9956H18.8585L18.9045 30.4977ZM21.8174 30.5158C21.8352 30.8572 21.863 31.1497 21.8791 31.1658C21.8953 31.182 22.2804 31.1224 22.7348 31.0335C23.1893 30.9445 23.9343 30.8346 24.3903 30.7891L25.2195 30.7063L25.2389 30.3008L25.2582 29.8952H23.5216H21.7849L21.8174 30.5158ZM25.8508 30.2697L25.8703 30.6442L27.1395 30.6858C27.8375 30.7086 28.6575 30.761 28.9618 30.8023C29.6001 30.8887 30.9581 31.1206 31.1258 31.1718C31.229 31.2034 31.2397 31.1452 31.2397 30.5509V29.8952H28.5355H25.8313L25.8508 30.2697ZM31.8905 30.6104C31.8905 31.2985 31.896 31.3269 32.0369 31.36C32.1175 31.3789 33.0766 31.6123 34.1684 31.8787C36.1678 32.3665 37.0087 32.546 37.0582 32.4954C37.097 32.4557 37.2126 31.3415 37.2588 30.5628L37.2983 29.8952H34.5944H31.8905V30.6104ZM37.8759 30.4977C37.8746 30.829 37.8337 31.4372 37.7849 31.8491C37.7361 32.2611 37.7102 32.6128 37.7276 32.6307C37.7449 32.6486 38.291 32.6602 38.9412 32.6564C39.9781 32.6504 40.1915 32.6304 40.6766 32.4936L41.2298 32.3376L41.3064 31.8817C41.3485 31.6309 41.4039 31.0814 41.4295 30.6605L41.4761 29.8952H39.6771H37.8781L37.8759 30.4977ZM42.0783 30.4651C42.0552 30.7786 42.0142 31.2474 41.987 31.5072C41.9598 31.7669 41.9577 31.9794 41.9821 31.9794C42.0067 31.9794 42.2574 31.8289 42.5394 31.645C43.1126 31.2713 43.88 30.6453 44.3185 30.1939L44.6087 29.8952H43.3644H42.1202L42.0783 30.4651ZM51.9928 30.1788C51.3422 30.4631 51.0532 30.6396 50.708 30.9636C50.28 31.3653 50.1145 31.768 50.1166 32.4027L50.1182 32.9238L50.3907 32.5981C50.7138 32.2121 51.155 31.784 51.2298 31.784C51.32 31.784 50.9958 32.5908 50.7726 32.9218L50.5613 33.2352L50.8032 33.1959C51.1689 33.1365 51.7064 32.7426 52.0429 32.2873C52.3989 31.8057 52.5739 31.426 52.6669 30.9332C52.7436 30.5275 52.6849 29.9599 52.5665 29.9611C52.524 29.9616 52.2658 30.0595 51.9928 30.1788ZM14.9976 30.3077C13.735 30.7561 13.2118 31.324 13.2118 32.2461V32.6472L13.7001 32.1831C13.9687 31.9277 14.2196 31.7189 14.2576 31.7189C14.3968 31.7189 14.1702 32.2251 13.8082 32.7228L13.5755 33.0428L13.8133 33.0042C14.4382 32.9028 15.123 32.3133 15.4942 31.5575C15.6777 31.1838 15.7215 31.0129 15.7406 30.5968C15.7587 30.2014 15.7445 30.0914 15.6755 30.0944C15.627 30.0965 15.3219 30.1925 14.9976 30.3077ZM47.1672 30.3023C47.0776 30.8869 47.3847 31.6937 47.9205 32.2813C48.2469 32.639 48.9006 33.0215 49.1859 33.0215C49.3426 33.0215 49.342 33.0191 49.1096 32.7023C48.8592 32.361 48.5836 31.7955 48.6401 31.7389C48.6948 31.6842 49.0124 31.9359 49.3816 32.3267L49.7231 32.688L49.7217 32.2523C49.7192 31.5041 49.3681 30.9927 48.5842 30.5955C48.2351 30.4187 47.3657 30.0906 47.246 30.0906C47.2205 30.0906 47.1851 30.1858 47.1672 30.3023ZM44.4515 31.7272C43.4857 32.6059 42.2764 33.34 40.937 33.8606C39.476 34.4283 38.3939 34.65 37.0846 34.6495C36.2444 34.6492 35.7959 34.5903 33.8755 34.2278C30.7523 33.6383 28.4041 33.5476 26.3812 33.9382C24.4301 34.315 22.4182 35.3064 20.9271 36.6258L20.4972 37.0062L20.7358 37.3423C21.3395 38.1928 22.4432 39.402 23.0119 39.8361L23.2492 40.0172L23.385 39.8248C23.6419 39.4604 24.6998 38.4122 25.1883 38.0378C26.0929 37.3446 27.1905 36.7423 28.3109 36.3243C29.8055 35.7668 30.3794 35.6952 33.908 35.626C35.5009 35.5948 37.0385 35.537 37.3249 35.4975C39.4986 35.1981 41.3816 34.5652 42.9541 33.6055C43.5845 33.2207 44.5099 32.5144 44.6991 32.2738C44.8078 32.1354 44.9618 31.4229 44.8961 31.3623C44.8842 31.3513 44.6841 31.5155 44.4515 31.7272ZM15.261 33.5311C14.6002 34.0942 14.4093 34.322 14.1692 34.8337C13.9983 35.198 13.9797 35.2959 14.0084 35.6804C14.0263 35.9196 14.0833 36.2173 14.135 36.3419L14.2291 36.5687L14.5503 35.9218C14.9341 35.1485 15.0745 35.0443 15.0117 35.579C14.9884 35.7773 14.9138 36.1183 14.8459 36.3368C14.7779 36.5552 14.7354 36.734 14.7513 36.734C14.8575 36.734 15.1775 36.5081 15.3503 36.3111C15.8524 35.7389 16.1783 34.7755 16.1221 34.0299C16.0916 33.6239 15.9191 33.0866 15.8193 33.0866C15.7991 33.0866 15.5478 33.2866 15.261 33.5311ZM46.9597 33.3309C46.6892 33.8855 46.7791 34.9546 47.1595 35.7059C47.4026 36.1861 47.9502 36.734 48.1869 36.734C48.2047 36.734 48.1608 36.5655 48.0895 36.3595C48.0181 36.1534 47.9442 35.7944 47.9251 35.5616L47.8904 35.1382L48.0266 35.3011C48.1462 35.4441 48.3847 35.9051 48.5993 36.4083L48.6687 36.5711L48.7866 36.3106C48.8663 36.1344 48.9048 35.8921 48.9054 35.5616C48.9064 35.0098 48.758 34.6477 48.3247 34.1451C48.1166 33.9038 47.1746 33.0866 47.1045 33.0866C47.0903 33.0866 47.0253 33.1966 46.9597 33.3309ZM10.6333 35.3084C10.8121 36.4602 12.3172 37.6206 13.3749 37.4221L13.6113 37.3776L13.3627 37.196C13.0709 36.9828 12.4959 36.3776 12.4959 36.2837C12.4959 36.1591 13.1665 36.4538 13.7751 36.8459C13.9137 36.9352 13.9147 36.9329 13.8534 36.656C13.698 35.9541 13.294 35.4821 12.6312 35.2281C12.3538 35.1218 12.0697 35.0811 11.4285 35.0557L10.5889 35.0226L10.6333 35.3084ZM50.7218 35.1084C49.8995 35.2712 49.3616 35.7298 49.1361 36.4603C49.0642 36.6934 49.0135 36.8922 49.0234 36.9021C49.0333 36.912 49.2021 36.8219 49.3985 36.7019C49.8414 36.4314 50.439 36.1906 50.439 36.2829C50.439 36.3862 49.7972 37.0435 49.5427 37.2009C49.3468 37.322 49.3326 37.3475 49.4304 37.4023C49.6318 37.5151 50.2556 37.4225 50.7005 37.2138C51.5064 36.8356 52.1667 36.0384 52.2983 35.2848L52.341 35.0405L51.6666 35.0477C51.2957 35.0516 50.8705 35.0789 50.7218 35.1084ZM43.4427 35.4718C42.8999 35.8531 41.6063 36.4553 40.6766 36.7594C39.2837 37.215 38.3923 37.3755 35.4049 37.7086C33.2729 37.9463 32.3058 38.1016 31.3195 38.3646C29.6475 38.8103 28.2934 39.5252 27.2958 40.4888C26.8665 40.9034 26.2283 41.6964 26.2283 41.8153C26.2283 41.9668 27.9016 42.5252 29.0573 42.7594C30.1929 42.9895 30.1925 42.9896 30.421 42.5825C30.7027 42.0806 31.5762 41.2073 32.243 40.7609C33.6064 39.8483 34.8944 39.3331 37.2731 38.749C39.1523 38.2875 41.0276 37.6049 42.6261 36.8006L43.1345 36.5448L43.4704 35.8904C43.6552 35.5305 43.7977 35.2376 43.7872 35.2395C43.7767 35.2415 43.6216 35.346 43.4427 35.4718ZM16.482 36.8154C16.0146 37.7466 15.9461 37.9735 15.9456 38.5937C15.9452 39.1165 16.1252 39.5662 16.4654 39.8924L16.6611 40.08L16.6617 39.7259C16.6623 39.2961 16.7776 38.5465 16.8552 38.4681C16.9405 38.382 17.1166 39.051 17.1177 39.465C17.1192 39.9943 17.1944 40.0671 17.4072 39.7453C17.8775 39.0341 17.9551 37.6854 17.5752 36.8237C17.4621 36.5671 17.0202 36.0175 16.927 36.0175C16.9026 36.0175 16.7023 36.3766 16.482 36.8154ZM45.7318 36.2741C45.4316 36.6068 45.3192 36.8309 45.2009 37.3332C45.0221 38.0917 45.0982 38.9427 45.3981 39.5387C45.6579 40.0549 45.7283 40.0573 45.7799 39.5513C45.8306 39.0547 45.9405 38.5533 46.0175 38.4679C46.0947 38.3823 46.2001 38.8464 46.2495 39.4892L46.2933 40.06L46.4473 39.9152C46.5321 39.8355 46.6887 39.5954 46.7955 39.3815C46.9522 39.0677 46.9896 38.9101 46.9893 38.5635C46.9891 38.3275 46.9584 38.017 46.9212 37.8738C46.8446 37.5792 46.0762 36.0175 46.0079 36.0175C45.9835 36.0175 45.8592 36.133 45.7318 36.2741ZM18.5825 40.2022C18.3571 40.9546 18.3239 41.1486 18.3224 41.7165C18.3203 42.5397 18.4652 42.9028 18.9854 43.3786C19.3556 43.7172 19.493 43.7818 19.433 43.589C19.291 43.1331 19.2192 41.9444 19.3336 41.9444C19.4287 41.9444 19.7718 42.7195 19.8717 43.1597C19.9381 43.452 19.9683 43.5029 20.0307 43.4277C20.5889 42.7545 20.3597 40.8088 19.6189 39.932C19.4413 39.7219 18.9645 39.3392 18.8802 39.3392C18.8586 39.3392 18.7246 39.7275 18.5825 40.2022ZM43.8332 39.4593C42.9715 39.9873 42.4 41.5437 42.6267 42.7456C42.7088 43.1815 42.9261 43.6143 42.9748 43.4394C43.1594 42.7778 43.3746 42.1831 43.4732 42.0621C43.5895 41.9194 43.5981 41.9181 43.6437 42.0354C43.6898 42.1541 43.5732 43.411 43.4979 43.6075C43.4314 43.7809 43.5866 43.7071 43.9204 43.4068C44.5523 42.8383 44.7677 42.0331 44.5554 41.0326C44.4326 40.4532 44.1073 39.3395 44.0609 39.3397C44.043 39.3397 43.9405 39.3935 43.8332 39.4593ZM13.0165 39.603C12.6765 39.6692 12.393 39.7249 12.3865 39.7267C12.3455 39.7382 12.5164 40.177 12.652 40.4085C13.2286 41.393 14.8561 42.0277 15.8174 41.6428L16.0827 41.5366L15.6347 41.3198C15.3884 41.2005 15.0573 40.9829 14.8989 40.8362L14.611 40.5696L14.9365 40.6119C15.1154 40.6352 15.4803 40.7235 15.7472 40.8082C16.0142 40.8929 16.245 40.9497 16.2603 40.9345C16.2755 40.9191 16.2093 40.7455 16.113 40.5486C15.9022 40.1174 15.4613 39.7118 15.0514 39.572C14.6533 39.4363 13.8065 39.4491 13.0165 39.603ZM47.9655 39.5303C47.4578 39.6849 46.975 40.145 46.7487 40.6899L46.6195 41.0011L47.158 40.8208C47.4542 40.7217 47.8378 40.6242 48.0102 40.6042L48.3239 40.568L48.036 40.8355C47.8776 40.9825 47.549 41.1993 47.3056 41.3171L46.8631 41.5313L47.0913 41.6401C47.4085 41.7915 48.1072 41.7816 48.6359 41.6182C49.219 41.438 49.8097 41.0271 50.1491 40.5657C50.4129 40.2071 50.5635 39.8328 50.4782 39.7474C50.4571 39.7264 50.1688 39.6561 49.8375 39.5913C49.2252 39.4715 48.2618 39.4401 47.9655 39.5303ZM21.5666 42.117C21.4981 42.3904 21.5936 44.1562 21.6974 44.5347C21.8338 45.0318 22.1343 45.5287 22.4418 45.7654C22.6983 45.963 23.4162 46.2783 23.4751 46.2194C23.4907 46.2039 23.4154 46.0167 23.3078 45.8035C23.0916 45.3749 22.844 44.6818 22.844 44.5053C22.844 44.3217 23.4462 44.9602 23.7285 45.4432C24.0189 45.9401 24.0687 45.8988 24.076 45.1555C24.0881 43.9205 23.1783 42.4613 22.158 42.0793C21.6911 41.9045 21.6188 41.9091 21.5666 42.117ZM40.6318 42.14C39.6635 42.6242 38.8485 43.9686 38.8355 45.1033C38.8327 45.3541 38.8533 45.6282 38.8814 45.7125C38.9286 45.8541 38.9516 45.8341 39.1821 45.452C39.4753 44.9659 39.9915 44.3668 40.0599 44.4332C40.1367 44.5078 39.9711 45.0606 39.6957 45.6496C39.5551 45.9501 39.4401 46.2071 39.4401 46.2207C39.4401 46.2724 39.8097 46.1535 40.0992 46.0087C41.0093 45.5537 41.3332 44.7813 41.35 43.0257L41.36 41.977L41.197 41.9579C41.1074 41.9474 40.853 42.0294 40.6318 42.14ZM16.4984 43.2381C16.1353 43.3492 15.3665 43.6472 14.9541 43.8365L14.7765 43.918L14.92 44.1736C15.1109 44.5135 15.5922 44.9564 15.9901 45.1581C16.8438 45.5911 17.9636 45.6487 18.6525 45.2952C18.8581 45.1896 19.0361 45.0734 19.0482 45.0369C19.0602 45.0003 18.8935 44.9369 18.6778 44.8959C18.2557 44.8155 17.4421 44.4657 17.4421 44.3646C17.4421 44.2668 17.9446 44.2378 18.5751 44.299C18.894 44.33 19.1692 44.341 19.1868 44.3234C19.2354 44.2748 18.8756 43.7811 18.6584 43.5982C18.1104 43.1367 17.2811 42.9985 16.4984 43.2381ZM44.905 43.2126C44.7429 43.265 44.4925 43.4086 44.3487 43.5318C44.0715 43.7692 43.6937 44.269 43.7493 44.3247C43.7675 44.3428 44.0281 44.3301 44.3284 44.2964C44.8882 44.2334 45.4928 44.2655 45.4928 44.358C45.4928 44.479 44.4067 44.8936 43.9308 44.9542C43.776 44.9739 43.7812 44.9838 44.0384 45.1576C44.9553 45.7771 46.6021 45.5911 47.5162 44.7646C47.8182 44.4915 48.1405 43.9783 48.056 43.905C47.9734 43.8335 47.2294 43.52 46.6968 43.3323C46.1243 43.1305 45.3247 43.0771 44.905 43.2126ZM25.3841 44.0124C25.3889 44.2961 25.7077 45.7918 25.8352 46.1284C26.204 47.102 26.9952 47.731 27.766 47.6633L27.9935 47.6434L27.7236 47.2852C27.4009 46.857 26.9788 46.0477 27.0781 46.0477C27.2164 46.0477 27.7087 46.4358 28.0813 46.8385L28.46 47.2479L28.4278 46.7452C28.3825 46.0393 28.0684 45.414 27.4359 44.7707C26.8511 44.1758 26.3171 43.8985 25.7564 43.8984C25.4427 43.8984 25.3825 43.9168 25.3841 44.0124ZM36.609 43.9784C35.9527 44.213 35.1604 44.9851 34.7748 45.7659C34.5717 46.1771 34.5234 46.3512 34.5036 46.7442L34.4795 47.2223L34.9077 46.7783C35.3377 46.3326 35.8605 45.9691 35.8605 46.1158C35.8605 46.2414 35.4875 46.9024 35.2092 47.2702C35.0663 47.459 34.9494 47.6275 34.9494 47.6447C34.9494 47.7105 35.5139 47.6662 35.75 47.5819C36.3731 47.3595 36.8482 46.8182 37.1282 46.0115C37.2635 45.6219 37.5527 44.2408 37.5527 43.9847C37.5527 43.878 36.9022 43.8737 36.609 43.9784ZM20.5336 46.0702C19.9831 46.2527 18.4184 47.1713 18.4184 47.3119C18.4184 47.356 18.5219 47.513 18.6483 47.6608C18.9205 47.979 19.6179 48.3485 20.1585 48.4607C20.6808 48.5693 21.6143 48.5076 22.0681 48.3344C22.4189 48.2007 22.9742 47.794 22.9742 47.6709C22.9742 47.6379 22.8115 47.6108 22.6128 47.6108C22.1947 47.6108 21.4154 47.4472 21.2472 47.3241C21.142 47.2472 21.1513 47.2329 21.3534 47.1615C21.5328 47.0981 22.5605 46.9712 22.9714 46.9617C23.1082 46.9586 22.5435 46.397 22.1977 46.1923C21.9577 46.0502 21.816 46.0184 21.3517 46.0027C21.0121 45.9912 20.692 46.0176 20.5336 46.0702ZM40.8255 46.1419C40.6388 46.2289 40.346 46.441 40.1747 46.6132L39.8631 46.9264L40.3187 46.9748C41.001 47.0474 41.6115 47.1542 41.7172 47.2196C41.7906 47.265 41.7689 47.2939 41.6181 47.3514C41.1987 47.5116 40.6943 47.611 40.2887 47.6134L39.8631 47.616L40.1659 47.895C40.5722 48.2695 41.0871 48.4622 41.7971 48.5057C42.4708 48.547 43.0401 48.4493 43.5368 48.2071C43.8947 48.0325 44.5165 47.476 44.5165 47.3303C44.5165 47.2419 44.4915 47.2244 43.5465 46.6521C42.4219 45.9712 41.5448 45.8068 40.8255 46.1419ZM30.6534 47.1061C30.1689 47.3968 29.92 47.8056 29.8841 48.3696C29.8482 48.934 29.9873 49.2846 30.3916 49.6483C31.0731 50.2615 31.9366 50.2455 32.5699 49.6078C33.2411 48.932 33.2392 47.9823 32.5653 47.3372C32.2298 47.0161 31.9146 46.8944 31.4179 46.8944C31.0691 46.8944 30.9522 46.9268 30.6534 47.1061ZM25.2108 48.128C24.8288 48.3196 24.5057 48.5634 23.938 49.0887L23.1772 49.7927L23.3399 49.9631C23.5815 50.2162 24.1323 50.4712 24.6006 50.5467C25.7613 50.7337 27.2933 50.1423 27.7033 49.3487C27.8017 49.1584 27.8009 49.1561 27.6503 49.2001C27.1924 49.334 25.9029 49.3177 25.9029 49.178C25.9029 49.0819 26.9339 48.6949 27.5609 48.5558L27.7545 48.5128L27.5934 48.3832C27.5048 48.312 27.2566 48.1676 27.0418 48.0626C26.721 47.9056 26.5684 47.8714 26.187 47.8714C25.7764 47.8714 25.6635 47.9011 25.2108 48.128ZM36.0527 47.9558C35.7999 48.0505 35.1844 48.454 35.2273 48.4969C35.242 48.5116 35.4786 48.5825 35.7529 48.6544C36.2979 48.7973 36.9258 49.0547 36.9924 49.1625C37.0858 49.3138 35.7751 49.344 35.2911 49.2018C35.0713 49.1373 35.1116 49.2534 35.4334 49.6116C35.9823 50.2225 36.8736 50.5696 37.8781 50.5635C38.6049 50.5591 39.0693 50.4115 39.4901 50.051L39.7575 49.822L39.1687 49.2537C38.1037 48.2261 37.5816 47.9253 36.8042 47.8918C36.4772 47.8778 36.1977 47.9015 36.0527 47.9558ZM22.9241 54.3682C22.8894 54.4667 22.1949 56.3498 21.3805 58.5529C20.4475 61.0768 19.8462 62.6144 19.7548 62.7099C19.6612 62.8075 19.5081 62.8725 19.3232 62.893C18.7956 62.9514 18.7438 62.9736 18.7438 63.1405C18.7438 63.5129 18.7016 63.5028 20.2672 63.5028C21.8167 63.5028 21.8678 63.4922 21.8678 63.1711C21.8678 62.96 21.7737 62.9166 21.3146 62.9166C20.8885 62.9166 20.7614 62.8719 20.7614 62.7221C20.7614 62.623 21.1103 61.5764 21.4514 60.6522L21.554 60.3743L23.1189 60.3916L24.6838 60.4091L25.0912 61.5815C25.3798 62.4117 25.4793 62.7776 25.4325 62.8352C25.3935 62.883 25.2136 62.9166 24.9962 62.9166C24.5191 62.9166 24.3645 63.0199 24.4512 63.2805L24.5144 63.4703L26.4862 63.4875C27.8868 63.4998 28.4838 63.4833 28.5472 63.4307C28.5962 63.3899 28.6364 63.2728 28.6364 63.1705C28.6364 62.9665 28.5942 62.9474 28.0271 62.8951C27.8368 62.8775 27.6622 62.8174 27.5892 62.7444C27.4998 62.6549 24.406 54.364 24.406 54.2138C24.406 54.2002 24.0867 54.1891 23.6965 54.1891H22.9869L22.9241 54.3682ZM34.2335 54.6776V55.1009H34.8843C35.2422 55.1009 35.5403 55.1082 35.5468 55.1172C35.5531 55.1262 35.5751 56.6136 35.5956 58.4226L35.6327 61.7117L35.8066 62.0415C36.1251 62.6452 36.7503 63.0788 37.6009 63.2858C38.2715 63.449 39.773 63.4311 40.4375 63.2521C41.3995 62.9929 41.9715 62.5416 42.2365 61.8329C42.3629 61.4946 42.3688 61.3368 42.3688 58.2899V55.1009H43.0196H43.6704V54.6776V54.2542H41.5553H39.4401V54.6776V55.1009H40.0938H40.7475L40.7283 58.2761L40.7092 61.4512L40.5565 61.7615C40.4464 61.9851 40.3192 62.1214 40.1009 62.2494C39.8321 62.4072 39.719 62.4298 39.0944 62.4513C38.0938 62.4856 37.6064 62.2804 37.3507 61.7169C37.2387 61.47 37.23 61.226 37.2287 58.2761L37.2273 55.1009H37.8455H38.4638V54.6776V54.2542H36.3486H34.2335V54.6776ZM29.2616 54.4224C29.2399 54.479 29.2221 54.5935 29.2221 54.6768C29.2221 54.81 29.263 54.8337 29.5638 54.8749C29.9781 54.9316 30.1443 54.991 30.2859 55.1327C30.3836 55.2305 30.3936 55.5847 30.3936 58.9468V62.6531L30.2472 62.7461C30.1666 62.7972 29.9689 62.8586 29.8078 62.8826C29.3273 62.9541 29.2872 62.9761 29.2872 63.1685C29.2872 63.5011 29.2982 63.5028 31.4401 63.5028H33.4367L33.5176 63.3074C33.6215 63.0563 33.5199 62.9168 33.233 62.9163C32.904 62.9157 32.5526 62.792 32.4456 62.6391C32.3591 62.5156 32.3461 62.0157 32.3461 58.833V55.169L32.4999 55.0682C32.5846 55.0127 32.8325 54.9357 33.0508 54.8972C33.4797 54.8217 33.5876 54.7024 33.4538 54.4521C33.3847 54.3229 33.3288 54.3193 31.342 54.3193C29.541 54.3193 29.2965 54.3315 29.2616 54.4224ZM22.4778 57.7934L21.7537 59.7578L22.429 59.7763C22.8005 59.7864 23.4085 59.7864 23.7803 59.7763L24.4562 59.7578L23.8517 57.8157C23.5193 56.7476 23.2371 55.8636 23.2246 55.8514C23.2122 55.8391 22.8761 56.713 22.4778 57.7934ZM18.939 64.4147V64.6752H30.6539H42.3688V64.4147V64.1541H30.6539H18.939V64.4147ZM22.9595 66.0142C22.746 66.1301 22.6488 66.2964 22.6488 66.5452C22.6488 66.8398 22.8104 66.9981 23.2663 67.1499C23.7304 67.3044 23.8057 67.369 23.6877 67.5112C23.5854 67.6345 23.2527 67.6318 23.0109 67.5056C22.8339 67.4132 22.8106 67.4152 22.6939 67.532C22.5413 67.6846 22.5915 67.7842 22.8824 67.9058C23.3179 68.0879 24.0007 67.9735 24.1052 67.7008C24.1274 67.6429 24.1457 67.4851 24.1457 67.3503C24.1457 67.0393 24.0096 66.9131 23.5167 66.7671C23.221 66.6795 23.1323 66.6233 23.1164 66.5138C23.0885 66.3228 23.3399 66.2641 23.6431 66.3909C23.8549 66.4795 23.884 66.4781 23.9778 66.3743C24.1348 66.2007 24.1039 66.1316 23.8189 66.0175C23.4968 65.8884 23.1932 65.8873 22.9595 66.0142ZM28.4086 66.0046C27.6684 66.3338 27.5821 67.4524 28.2647 67.8689C28.5493 68.0426 29.1152 68.0418 29.4011 67.8673C29.6466 67.7175 29.6585 67.6679 29.4864 67.512C29.37 67.4065 29.3487 67.4057 29.2116 67.5019C28.8601 67.7483 28.3524 67.5351 28.2722 67.1075C28.1705 66.5649 28.627 66.189 29.1314 66.3998C29.3632 66.4968 29.3845 66.4955 29.5029 66.3771C29.655 66.2249 29.6045 66.1253 29.3139 66.0037C29.0427 65.8903 28.6647 65.8907 28.4086 66.0046ZM33.2247 65.9714C33.1531 66.0029 33.0259 66.1027 32.942 66.1931L32.7893 66.3575L32.9551 66.4662C33.1125 66.5695 33.1281 66.5681 33.2664 66.4392C33.4766 66.2431 33.7464 66.2745 33.7791 66.4988C33.8146 66.7428 33.7476 66.841 33.2898 67.2153C32.8837 67.5473 32.8016 67.6466 32.8016 67.8056V67.9969H33.5501H34.2985V67.8015V67.6061H33.8644H33.4303L33.8319 67.2424C34.2164 66.8942 34.2335 66.8656 34.2335 66.5698C34.2335 66.3268 34.1997 66.2293 34.0748 66.1118C33.9015 65.949 33.4462 65.8737 33.2247 65.9714ZM35.0729 66.0605C34.6381 66.3512 34.4907 67.0243 34.7503 67.5336C34.9229 67.8719 35.1356 67.9969 35.5393 67.9969C35.8308 67.9969 35.9011 67.9693 36.089 67.7813C36.5809 67.2889 36.5191 66.3746 35.9712 66.0403C35.6925 65.8702 35.3459 65.878 35.0729 66.0605ZM37.0554 66.0379C36.7701 66.212 36.7354 66.2961 36.8868 66.4476L37.0176 66.5785L37.2185 66.4299C37.3895 66.3035 37.4441 66.2924 37.5837 66.3561C37.9063 66.5031 37.7373 66.8262 37.067 67.3436C36.7777 67.567 36.7066 67.6589 36.7066 67.8094V67.9969H37.4551H38.2035V67.8015V67.6061H37.7719H37.3404L37.6763 67.3384C38.1689 66.946 38.2961 66.6432 38.1257 66.2691C37.9682 65.923 37.4331 65.8074 37.0554 66.0379ZM38.8777 66.0379C38.5924 66.212 38.5577 66.2961 38.7091 66.4476L38.8399 66.5785L39.0409 66.4299C39.2137 66.302 39.2654 66.2919 39.4103 66.358C39.704 66.4919 39.6053 66.7247 39.0496 67.2086C38.6942 67.5181 38.5559 67.683 38.5411 67.8153L38.5206 67.9969H39.2733H40.0258V67.8015V67.6061H39.5968H39.1678L39.5221 67.3173C39.93 66.9848 40.0599 66.7336 39.9972 66.3991C39.9161 65.9665 39.3134 65.772 38.8777 66.0379ZM24.6012 66.9873V67.9969H24.829H25.0568V66.9873V65.9778H24.829H24.6012V66.9873ZM25.5775 66.9873V67.9969H25.7727H25.968V67.3781C25.968 67.0378 25.9899 66.7599 26.0168 66.7605C26.0437 66.7612 26.2706 67.0383 26.5212 67.3763C26.9311 67.9293 26.998 67.9911 27.1883 67.9939L27.3998 67.9969V66.9873V65.9778H27.1745H26.9491L26.9304 66.5803L26.9117 67.1827L26.4574 66.5803C26.0469 66.0359 25.9826 65.9778 25.7903 65.9778H25.5775V66.9873ZM30.0682 66.9873V67.9969H30.8166H31.5651V67.8015V67.6061H31.0078H30.4504L30.4708 67.3944L30.4912 67.1827L30.9631 67.1636L31.4349 67.1444V66.9519V66.7594H30.9468H30.4587V66.564V66.3686H31.0119H31.5651V66.1732V65.9778H30.8166H30.0682V66.9873ZM35.272 66.4229C35.0511 66.6019 35.0142 67.1812 35.208 67.427C35.5315 67.837 35.9627 67.5501 35.9532 66.9313C35.9491 66.6647 35.9176 66.5829 35.7706 66.4564C35.5566 66.2722 35.4655 66.2661 35.272 66.4229Z" fill="#FBFBFB"/>
</svg>
