<svg width="63" height="82" viewBox="0 0 63 82" fill="none" xmlns="http://www.w3.org/2000/svg">
<g clip-path="url(#clip0_44_464)">
<mask id="mask0_44_464" style="mask-type:luminance" maskUnits="userSpaceOnUse" x="0" y="0" width="63" height="82">
<path d="M63 0H0V82H63V0Z" fill="white"/>
</mask>
<g mask="url(#mask0_44_464)">
<path fill-rule="evenodd" clip-rule="evenodd" d="M30.5562 0.461234C27.7442 1.98537 26.1777 2.73327 22.5185 4.29876C15.6679 7.22959 7.88645 10.1122 2.21274 11.8209L0.0324701 12.4775L0.0466582 16.2852C0.0544681 18.3795 0.105818 23.6247 0.160813 27.9413C0.215743 32.2578 0.303604 39.1747 0.355931 43.3122C0.458957 51.4531 0.475292 52.0686 0.624657 53.4401C1.48961 61.3792 5.834 67.8785 13.8575 73.2366C17.6358 75.7597 21.7238 77.8044 30.9141 81.768L31.4674 82.0066L34.2984 80.7609C43.4519 76.733 47.3529 74.6495 51.2656 71.6988C53.0796 70.3308 55.3313 68.2143 56.59 66.6942C60.2284 62.3001 62.1073 57.5321 62.416 51.9095C62.4544 51.211 62.5422 46.1698 62.6112 40.707C62.9408 14.6069 62.9659 12.9668 63.0012 15.2733L63.035 17.4877L63.05 14.9778C63.0647 12.5103 63.0628 12.4676 62.935 12.458C62.6955 12.4399 58.4969 11.1494 56.6543 10.5275C51.1499 8.6697 43.6354 5.74349 38.4111 3.42359C36.0596 2.37934 35.1747 1.95033 33.227 0.910769C32.2886 0.409846 31.4942 0.000627274 31.4616 0.00134371C31.429 0.00206015 31.0215 0.208982 30.5562 0.461234ZM30.426 3.33091C25.2223 6.1251 11.8359 11.4613 4.0676 13.838L2.50561 14.316L2.48615 14.6416C2.46943 14.9216 2.57004 23.2995 2.86318 46.0477C2.94616 52.4879 3.01566 53.5653 3.48328 55.6565C3.87918 57.4271 4.34107 58.72 5.20491 60.4757C5.88763 61.8631 6.86836 63.4183 7.76051 64.5284C11.0767 68.6543 15.9021 72.1279 23.0219 75.5147C25.6688 76.7738 31.2886 79.2645 31.4824 79.2645C31.7024 79.2645 38.197 76.3561 40.6948 75.1391C50.0865 70.563 55.5735 65.6292 58.2356 59.367C59.0764 57.3892 59.5775 55.4701 59.8514 53.1795C59.9661 52.2198 60.0175 49.4199 60.2308 32.5004C60.3196 25.4614 60.4116 18.4956 60.4352 17.0209L60.4783 14.3396L59.8029 14.1349C51.3746 11.5809 37.8447 6.22637 32.4279 3.30121C31.9181 3.0259 31.4788 2.80204 31.4517 2.80367C31.4245 2.80537 30.963 3.04264 30.426 3.33091ZM30.4911 5.50896C26.8519 7.40655 18.4198 10.8984 10.9782 13.5896C9.05442 14.2852 5.02893 15.6413 4.63245 15.7273L4.41637 15.7741L4.45698 18.0638C4.47931 19.3231 4.55409 24.911 4.62314 30.4814C4.86258 49.7924 4.88432 51.23 4.94979 52.1049C5.51171 59.6127 9.61029 65.4897 17.7675 70.4844C20.1529 71.945 22.9189 73.3654 26.6187 75.0298C28.9183 76.0642 31.3842 77.137 31.459 77.1353C31.5587 77.1331 35.3832 75.4511 37.3899 74.527C43.0258 71.9314 46.8137 69.6843 49.9183 67.0948C50.8637 66.3062 52.6575 64.513 53.3349 63.6795C55.9328 60.4825 57.3602 57.1731 57.8915 53.1144C58.007 52.232 58.0506 50.1216 58.2161 37.3853C58.2731 32.9971 58.3597 26.3586 58.4084 22.6331C58.4571 18.9076 58.4768 15.8379 58.452 15.8116C58.4273 15.7853 57.8077 15.5741 57.0752 15.3424C52.4473 13.8781 44.3402 10.8004 38.3987 8.25215C36.1098 7.27049 34.9411 6.7372 33.0734 5.82237C32.1669 5.37837 31.4201 5.01937 31.4138 5.02451C31.4075 5.02966 30.9922 5.24765 30.4911 5.50896ZM0.0295414 15.0127C0.0295414 16.4098 0.0381323 16.9721 0.0486757 16.2622C0.0592191 15.5524 0.059154 14.4093 0.0486106 13.7221C0.0381323 13.0349 0.0294763 13.6157 0.0295414 15.0127ZM21.8705 13.4546C21.5422 13.5972 21.2308 13.8523 21.1175 14.0717C21.0629 14.1773 21.0263 14.2634 21.0362 14.263C21.0461 14.2626 21.1979 14.2187 21.3736 14.1653C22.0563 13.9581 22.1283 14.0982 21.5015 14.4144L21.0703 14.6319L21.29 14.7236C21.5967 14.8515 22.0209 14.8214 22.2943 14.6523C22.5225 14.5111 23.2344 13.6892 23.2344 13.5668C23.2344 13.3554 22.2801 13.2768 21.8705 13.4546ZM39.8123 13.4553L39.6314 13.5535L39.9425 13.9497C40.3358 14.451 40.6421 14.7047 40.9563 14.7897C41.2005 14.8558 41.3177 14.8422 41.6702 14.7069L41.8504 14.6377L41.5401 14.4904C41.1584 14.3093 40.9553 14.1585 41.0139 14.0999C41.057 14.0566 41.5664 14.1446 41.8059 14.2365C41.9203 14.2805 41.9211 14.2728 41.822 14.0809C41.7185 13.8807 41.3324 13.5815 40.9826 13.4305C40.7293 13.3211 40.0324 13.3359 39.8123 13.4553ZM19.4916 13.799C18.9931 14.0256 18.5482 14.7191 18.4959 15.3512C18.4642 15.7334 18.5304 15.7897 18.6914 15.5175C18.8225 15.296 19.1209 15.0103 19.17 15.0594C19.19 15.0794 19.1315 15.2799 19.0402 15.5049C18.9488 15.7298 18.8865 15.9263 18.9016 15.9415C18.9582 15.9981 19.2151 15.8742 19.4271 15.6878C19.7034 15.4451 19.8271 15.0628 19.8824 14.28C19.9302 13.6036 19.9279 13.6007 19.4916 13.799ZM43.0515 14.3362C43.103 15.0716 43.196 15.3739 43.4537 15.643C43.6206 15.8174 43.973 16.0016 44.0303 15.9443C44.047 15.9276 43.9859 15.7298 43.8945 15.5049C43.8032 15.2799 43.7445 15.0797 43.7641 15.0601C43.8154 15.0087 44.0431 15.2292 44.1984 15.4807C44.3681 15.7554 44.4513 15.7549 44.4513 15.479C44.4513 14.7333 43.8318 13.8614 43.1908 13.7051L43.0042 13.6596L43.0515 14.3362ZM30.0355 15.0204C28.0074 15.3086 26.5942 15.7333 25.0567 16.5167C19.9928 19.0971 16.8575 24.4149 17.0728 30.058C17.1588 32.3123 17.6256 34.1666 18.5964 36.1108C21.2193 41.3636 26.7416 44.5469 32.5527 44.1559C34.6517 44.0146 36.3945 43.5415 38.2145 42.6187C40.4713 41.4745 42.357 39.7965 43.7663 37.6787C45.3104 35.3584 46.1048 32.8594 46.1905 30.0524C46.2309 28.728 46.157 27.8056 45.913 26.5918C44.856 21.3324 40.7923 16.9565 35.6103 15.4976C34.2183 15.1056 33.6332 15.0297 31.8578 15.0104C30.963 15.0007 30.1429 15.0052 30.0355 15.0204ZM30.7189 15.6724C29.289 15.8063 27.9616 16.0949 26.8308 16.5177C21.8425 18.383 18.3843 22.8691 17.8272 28.1976C17.732 29.1074 17.7829 30.9152 17.9281 31.784C18.7839 36.906 22.3721 41.1413 27.2273 42.7604C32.7792 44.6118 38.8393 42.8142 42.4936 38.232C43.7481 36.659 44.6698 34.7607 45.1372 32.7873C45.622 30.7404 45.6107 28.1759 45.1081 26.2062C44.6235 24.3068 43.6942 22.4355 42.4537 20.8615C41.984 20.2655 40.8931 19.1697 40.286 18.6839C38.393 17.1692 36.0773 16.1678 33.6137 15.7987C32.9426 15.6981 31.2383 15.6238 30.7189 15.6724ZM20.0453 15.8959C19.8629 15.973 19.5447 16.2579 19.4537 16.4256C19.3994 16.5257 19.437 16.5328 19.8661 16.5024L20.3382 16.4691L20.1855 16.6032C20.1014 16.6769 19.9184 16.7715 19.7787 16.8134C19.639 16.8553 19.5247 16.912 19.5247 16.9394C19.5247 17.0448 20.0127 17.1447 20.3697 17.1122C20.928 17.0616 21.4236 16.7603 21.6445 16.3373L21.7351 16.1637L21.3295 16.0259C20.8412 15.8599 20.2679 15.8019 20.0453 15.8959ZM42.1409 15.8712C42.0693 15.8872 41.8281 15.9593 41.6049 16.0314L41.199 16.1626L41.2899 16.3367C41.5179 16.7734 42.015 17.0667 42.6077 17.1143C42.9872 17.1447 43.41 17.0531 43.41 16.9404C43.41 16.9168 43.2855 16.8604 43.1334 16.8151C42.9813 16.7699 42.7836 16.6733 42.6941 16.6005L42.5314 16.4682L43.0354 16.5007C43.5973 16.5369 43.6173 16.5013 43.2366 16.1404C42.9417 15.8609 42.5818 15.7724 42.1409 15.8712ZM45.6553 16.5673C45.5008 17.5902 45.5728 17.9488 46.0199 18.3833C46.3328 18.6873 46.5167 18.7811 46.4479 18.6015C46.3739 18.4087 46.2616 17.7288 46.2842 17.6112C46.3034 17.5118 46.3378 17.536 46.4613 17.7361C46.5458 17.8727 46.666 18.1194 46.7284 18.2842L46.8421 18.584L46.924 18.336C47.1813 17.5557 46.7037 16.3096 46.0119 15.9564L45.7665 15.8311L45.6553 16.5673ZM16.6359 16.1527C16.2696 16.4906 15.9938 17.0923 15.9574 17.6329C15.9285 18.062 15.983 18.4973 16.0654 18.4973C16.0925 18.4973 16.1647 18.3581 16.2259 18.1879C16.2871 18.0177 16.409 17.7906 16.4968 17.6831L16.6564 17.4877L16.6587 17.6857C16.66 17.7946 16.6171 18.0525 16.5634 18.2588C16.4479 18.7026 16.4487 18.6927 16.5286 18.6927C16.6487 18.6927 17.0599 18.2802 17.1855 18.0339C17.3347 17.7412 17.3572 16.9671 17.2355 16.3066C17.1423 15.7999 17.0453 15.775 16.6359 16.1527ZM29.2807 16.9979C27.2952 17.3685 25.429 18.2071 23.7876 19.466C23.3428 19.8071 22.3232 20.7685 22.3232 20.8467C22.3232 20.9 23.5513 21.8115 23.7896 21.9351C23.9075 21.9963 23.9906 21.9232 24.5588 21.2587C25.6846 19.9421 27.429 18.4674 29.0696 17.4453C29.9106 16.9213 29.9802 16.876 29.9379 16.8789C29.92 16.8802 29.6243 16.9337 29.2807 16.9979ZM34.2725 17.5745C36.2865 18.9047 37.7841 20.2357 39.1225 21.8854L39.3582 22.176L39.9686 21.705C40.3043 21.4461 40.6662 21.1562 40.7729 21.0608L40.9669 20.8875L40.415 20.3689C38.6357 18.697 36.6322 17.6197 34.331 17.0977C33.1956 16.8401 33.193 16.8615 34.2725 17.5745ZM30.9006 17.5559C29.7736 18.7649 28.5506 20.565 27.721 22.2358C27.4011 22.8801 27.1394 23.4591 27.1394 23.5225C27.1394 23.7481 29.3092 24.3345 30.6864 24.4812C30.9727 24.5117 31.2146 24.5306 31.2238 24.5233C31.2331 24.516 31.2331 22.8713 31.2238 20.8686L31.207 17.2272L30.9006 17.5559ZM31.8923 20.8583L31.8904 24.5544H32.2414C33.1556 24.5544 34.528 24.3362 35.5897 24.0221C36.0667 23.8809 36.0674 23.8803 36.0288 23.6802C36.0076 23.57 35.7129 22.9192 35.374 22.2341C34.5324 20.5328 33.4257 18.8902 32.154 17.4552L31.8943 17.1621L31.8923 20.8583ZM28.9962 18.2415C27.7784 19.0607 26.991 19.6926 26.0426 20.6119C25.3416 21.2914 24.4264 22.3194 24.4792 22.3681C24.558 22.4406 26.3718 23.317 26.4432 23.317C26.4907 23.317 26.5974 23.1485 26.6802 22.9425C27.2414 21.5461 28.4973 19.48 29.6981 17.9776C29.8705 17.7619 30.0023 17.5856 29.991 17.5858C29.9797 17.5859 29.532 17.881 28.9962 18.2415ZM33.1661 17.6564C33.2055 17.707 33.4203 17.9804 33.6434 18.2643C34.7571 19.6807 35.809 21.5089 36.5995 23.4022L36.6987 23.6399L37.207 23.3992C37.8305 23.104 38.7068 22.616 38.7557 22.5368C38.8518 22.3813 36.9358 20.3703 35.8604 19.4981C34.9422 18.7533 32.9702 17.4053 33.1661 17.6564ZM14.4213 18.5084C14.056 18.9355 13.9077 19.3976 13.9022 20.1255C13.8984 20.632 13.9236 20.8013 14.0412 21.0585C14.1976 21.4005 14.3164 21.4107 14.3209 21.0824C14.3245 20.8177 14.5252 20.2232 14.6109 20.2232C14.6475 20.2232 14.6903 20.4946 14.7086 20.842L14.7411 21.4607L14.9268 21.2653C15.508 20.6536 15.5157 19.9388 14.9556 18.5787C14.8782 18.3906 14.7785 18.2367 14.7342 18.2367C14.6899 18.2367 14.549 18.359 14.4213 18.5084ZM17.6698 18.2989C17.4777 18.3901 17.2774 18.5722 17.1537 18.7681L17.0443 18.9413L17.5686 18.9054C17.91 18.882 18.0929 18.893 18.0929 18.9369C18.0929 19.0106 18.0487 19.0329 17.484 19.2448L17.103 19.3878L17.3311 19.4961C17.6275 19.6369 18.2996 19.6371 18.7114 19.4966C19.0673 19.3753 19.6107 18.882 19.5776 18.7102C19.5251 18.437 18.0492 18.1188 17.6698 18.2989ZM43.8981 18.4003C43.6476 18.4887 43.4049 18.5755 43.3589 18.5931C43.2925 18.6185 43.2957 18.6645 43.3738 18.8159C43.5139 19.087 43.9063 19.3905 44.2752 19.5132C44.6829 19.6486 45.5059 19.6191 45.6615 19.4634C45.7594 19.3654 45.7559 19.3541 45.6138 19.3147C45.3225 19.234 44.8418 18.9959 44.8418 18.9324C44.8418 18.8929 45.0398 18.884 45.3637 18.909C45.8441 18.9461 45.8808 18.9403 45.8249 18.8372C45.7454 18.6906 45.4327 18.4023 45.2529 18.3098C45.0107 18.1853 44.3898 18.2268 43.8981 18.4003ZM47.885 18.8077C47.443 19.8892 47.4351 20.5633 47.8579 21.1164C48.1836 21.5427 48.2186 21.5164 48.2399 20.8303C48.2502 20.4964 48.2869 20.2232 48.3214 20.2232C48.4025 20.2232 48.6075 20.8765 48.6127 21.1514C48.6184 21.4565 48.709 21.4125 48.8808 21.0211C49.0857 20.554 49.0838 19.6806 48.8766 19.1287C48.7437 18.7745 48.3251 18.2367 48.1823 18.2367C48.1471 18.2367 48.0133 18.4937 47.885 18.8077ZM15.9878 20.8719C15.6797 20.9818 15.4505 21.1898 15.288 21.507C15.2199 21.6399 15.1641 21.7629 15.1641 21.7803C15.1641 21.7977 15.3298 21.7549 15.5323 21.6852C15.7348 21.6155 15.9742 21.5584 16.0643 21.5584H16.2282L16.0756 21.7209C15.9917 21.8103 15.7816 21.954 15.6087 22.0402L15.2943 22.197L15.4993 22.2685C16.1485 22.495 17.1789 22.0562 17.5539 21.3936C17.7928 20.9716 17.7683 20.9328 17.2116 20.8499C16.5816 20.7561 16.2978 20.7612 15.9878 20.8719ZM45.6391 20.856C45.2784 20.9114 45.2323 20.9352 45.2323 21.0658C45.2323 21.2666 45.5652 21.7112 45.894 21.9496C46.3516 22.2813 47.0218 22.4236 47.4176 22.273L47.5939 22.2059L47.2103 21.9759C46.9995 21.8494 46.784 21.7037 46.7316 21.6521C46.6483 21.5702 46.6613 21.5584 46.8353 21.5584C46.9447 21.5584 47.1999 21.6155 47.4024 21.6852C47.6049 21.7549 47.7706 21.7977 47.7706 21.7803C47.7706 21.6645 47.4821 21.2206 47.3158 21.0806C46.9624 20.783 46.5089 20.7223 45.6391 20.856ZM21.4127 21.8972C20.3368 23.3383 19.5639 25.024 19.1755 26.7765C19.0155 27.4988 18.8739 28.5487 18.8739 29.0134V29.2439H20.0116C21.3176 29.2439 21.1761 29.3296 21.2481 28.4949C21.3904 26.8465 22.11 24.7919 23.0932 23.2263C23.3141 22.8747 23.493 22.568 23.4908 22.5449C23.4872 22.5059 21.9767 21.4196 21.8658 21.3761C21.8385 21.3654 21.6346 21.5999 21.4127 21.8972ZM40.9043 21.7614C40.6896 21.9408 40.3345 22.2205 40.1154 22.383L39.7169 22.6785L40.1103 23.305C41.1315 24.931 41.8542 27.0068 42.0198 28.7898L42.062 29.2439H43.1891H44.3163L44.2821 28.8042C44.1338 26.9005 43.7044 25.3201 42.9126 23.7636C42.434 22.8229 41.4873 21.4197 41.3393 21.4318C41.3148 21.4338 41.1191 21.5821 40.9043 21.7614ZM12.2892 21.7656C11.9189 22.3404 11.9585 23.3637 12.3833 24.2003C12.5401 24.5092 13.0555 25.0582 13.1241 24.9895C13.1412 24.9723 13.1255 24.8455 13.0893 24.7076C12.9751 24.2724 12.9263 23.6426 13.0069 23.6426C13.0896 23.6426 13.3495 24.1351 13.471 24.5219C13.5938 24.9128 13.6407 24.9213 13.7733 24.5763C14.0853 23.7647 13.8396 23.0613 12.9267 22.1525L12.3864 21.6146L12.2892 21.7656ZM49.9713 22.1934C49.2479 22.9346 49.0422 23.3217 49.0456 23.9357C49.0473 24.2621 49.0853 24.463 49.179 24.6428L49.31 24.8941L49.4587 24.48C49.646 23.9588 49.8509 23.6143 49.9279 23.6913C49.9924 23.7559 49.8961 24.5632 49.791 24.8398C49.7008 25.0773 49.8003 25.0578 50.111 24.7769C50.8059 24.1486 51.1091 22.6871 50.7077 21.9004C50.63 21.7481 50.5577 21.6236 50.547 21.6236C50.5363 21.6236 50.2773 21.88 49.9713 22.1934ZM23.7439 23.3736C23.2713 24.1028 22.6178 25.4644 22.3607 26.2557C22.1189 26.9998 21.9072 28.0122 21.8345 28.7717L21.7894 29.2439H23.5207H25.252V28.9541C25.252 28.6322 25.4111 27.3245 25.518 26.7689C25.6329 26.1709 25.9526 24.9404 26.12 24.4516L26.278 23.9905L25.172 23.4335L24.0661 22.8765L23.7439 23.3736ZM38.7566 23.2944C38.5418 23.4251 38.0398 23.6899 37.641 23.8828L36.9158 24.2336L37.1359 24.9639C37.5009 26.1754 37.7444 27.4522 37.8497 28.7066L37.8948 29.2439H39.6436H41.3925V28.9593C41.3925 27.9179 40.7298 25.6655 40.0773 24.4893C39.7792 23.9519 39.2188 23.0564 39.1806 23.0566C39.1622 23.0567 38.9714 23.1637 38.7566 23.2944ZM15.0183 23.8004C14.6436 23.9343 14.4687 24.0727 14.293 24.3749C14.1187 24.6746 14.0031 25.044 14.0974 25.0006C14.1293 24.9859 14.3209 24.897 14.5231 24.8032C14.9994 24.5821 15.1641 24.5315 15.1641 24.6063C15.1641 24.6785 14.5995 25.2161 14.4155 25.3192C14.2188 25.4294 14.3491 25.4938 14.7492 25.4845C15.2066 25.4738 15.7354 25.2237 16.125 24.8339C16.4216 24.537 16.6571 24.1054 16.6596 23.8543C16.661 23.7111 16.6448 23.7078 15.9614 23.7106C15.5503 23.7123 15.1613 23.7493 15.0183 23.8004ZM46.2733 23.9338C46.4521 24.7275 47.3618 25.4652 48.1855 25.4845C48.5856 25.4938 48.7159 25.4294 48.5192 25.3192C48.3352 25.2161 47.7706 24.6785 47.7706 24.6063C47.7706 24.5277 47.9705 24.5896 48.4527 24.8177C48.6669 24.919 48.8542 24.9897 48.869 24.975C48.9345 24.9093 48.6469 24.3286 48.4526 24.134C48.1363 23.8176 47.7414 23.7077 46.9197 23.7077H46.2223L46.2733 23.9338ZM26.8184 24.3508C26.5446 24.8628 26.01 27.2937 25.9358 28.3646C25.9134 28.687 25.8816 29.0167 25.8652 29.0973L25.8352 29.2439H28.5374H31.2396V27.2064V25.169L30.5342 25.0939C29.5255 24.9867 27.8621 24.5924 26.9656 24.2481C26.9235 24.2319 26.8572 24.2782 26.8184 24.3508ZM35.5025 24.6944C34.6554 24.9421 33.6086 25.1196 32.6551 25.1772L31.8904 25.2235V27.2337V29.2439H34.5588H37.2272V28.9541C37.2272 28.1753 36.9495 26.5751 36.5966 25.3197C36.4177 24.6837 36.3385 24.4911 36.2582 24.4967C36.2005 24.5008 35.8604 24.5897 35.5025 24.6944ZM10.8636 25.9681C10.6662 26.4877 10.743 27.1596 11.0814 27.8761C11.324 28.3898 11.8986 28.9873 12.2517 29.0933C12.5252 29.1754 12.534 29.168 12.4024 28.9648C12.2777 28.7723 11.9576 27.8068 12.0033 27.761C12.0673 27.6971 12.3065 27.9619 12.6295 28.4542C12.9416 28.9298 12.9452 28.9328 12.9951 28.7473C13.0228 28.6443 13.0429 28.366 13.0397 28.129C13.0292 27.3487 12.6341 26.8418 11.4878 26.138L10.9293 25.7951L10.8636 25.9681ZM51.4441 26.1205C50.1842 26.872 49.6665 27.7263 49.9145 28.6446L49.9901 28.9246L50.3022 28.4492C50.4739 28.1878 50.6773 27.918 50.7544 27.8498C50.8937 27.7263 50.8945 27.7266 50.8945 27.8971C50.8945 28.0853 50.6099 28.8882 50.4935 29.0286C50.3913 29.1519 50.4372 29.1684 50.6913 29.0998C51.242 28.9511 51.994 27.8479 52.1328 26.9847C52.1947 26.6005 52.128 25.952 52.0162 25.8509C51.9899 25.8272 51.7325 25.9484 51.4441 26.1205ZM15.4245 27.1382C14.0732 27.2347 13.4499 27.6678 13.2428 28.6541L13.1957 28.8785L13.3827 28.7547C13.7089 28.5386 14.2175 28.2693 14.3018 28.2681C14.4684 28.2657 14.3716 28.424 13.9582 28.8296C13.4881 29.2908 13.5007 29.3581 14.0423 29.278C14.7684 29.1707 15.6126 28.4789 15.8754 27.7758C16.0581 27.2873 16.0547 27.0911 15.8638 27.106C15.7832 27.1122 15.5856 27.1267 15.4245 27.1382ZM46.9479 27.3946C47.0646 28.2467 48.0354 29.1695 48.9433 29.2914C49.4237 29.3558 49.4207 29.2847 48.9217 28.7763C48.5831 28.4314 48.4848 28.2953 48.5632 28.2802C48.6728 28.2591 49.1239 28.4718 49.5149 28.7288L49.7298 28.8702L49.688 28.6825C49.5314 27.9788 49.2061 27.5692 48.6338 27.355C48.353 27.2498 47.4543 27.1105 46.9644 27.0963C46.9327 27.0953 46.9253 27.2296 46.9479 27.3946ZM10.257 30.1065C10.0444 31.1703 10.7843 32.5886 11.8117 33.0863C11.96 33.1581 12.1442 33.2169 12.2212 33.2169C12.3559 33.2169 12.3537 33.2059 12.1636 32.924C11.94 32.5923 11.6233 31.8538 11.6803 31.7968C11.7277 31.7494 12.387 32.3962 12.5796 32.6791C12.6588 32.7953 12.7491 32.8905 12.7803 32.8908C12.881 32.8915 12.7885 31.7679 12.6691 31.5406C12.3793 30.9887 11.8603 30.5896 10.8781 30.1633L10.2962 29.9106L10.257 30.1065ZM18.9044 30.4977C18.9669 31.3145 19.0877 32.012 19.1667 32.012C19.2025 32.012 19.6785 31.8659 20.2243 31.6874L21.2168 31.3629V31.1273C21.2168 30.9978 21.1979 30.6676 21.1747 30.3935L21.1327 29.8952H19.9955H18.8584L18.9044 30.4977ZM21.8173 30.5158C21.8351 30.8572 21.8629 31.1497 21.879 31.1658C21.8952 31.182 22.2803 31.1224 22.7347 31.0335C23.1892 30.9445 23.9342 30.8346 24.3902 30.7891L25.2194 30.7063L25.2388 30.3008L25.2581 29.8952H23.5215H21.7848L21.8173 30.5158ZM25.8507 30.2697L25.8702 30.6442L27.1394 30.6858C27.8374 30.7086 28.6574 30.761 28.9617 30.8023C29.6 30.8887 30.958 31.1206 31.1257 31.1718C31.2289 31.2034 31.2396 31.1452 31.2396 30.5509V29.8952H28.5354H25.8312L25.8507 30.2697ZM31.8904 30.6104C31.8904 31.2985 31.8959 31.3269 32.0368 31.36C32.1174 31.3789 33.0765 31.6123 34.1683 31.8787C36.1677 32.3665 37.0086 32.546 37.0581 32.4954C37.0969 32.4557 37.2125 31.3415 37.2587 30.5628L37.2982 29.8952H34.5943H31.8904V30.6104ZM37.8758 30.4977C37.8745 30.829 37.8336 31.4372 37.7848 31.8491C37.736 32.2611 37.7101 32.6128 37.7275 32.6307C37.7448 32.6486 38.2909 32.6602 38.9411 32.6564C39.978 32.6504 40.1914 32.6304 40.6765 32.4936L41.2297 32.3376L41.3063 31.8817C41.3484 31.6309 41.4038 31.0814 41.4294 30.6605L41.476 29.8952H39.677H37.878L37.8758 30.4977ZM42.0782 30.4651C42.0551 30.7786 42.0141 31.2474 41.9869 31.5072C41.9597 31.7669 41.9576 31.9794 41.982 31.9794C42.0066 31.9794 42.2573 31.8289 42.5393 31.645C43.1125 31.2713 43.8799 30.6453 44.3184 30.1939L44.6086 29.8952H43.3643H42.1201L42.0782 30.4651ZM51.9927 30.1788C51.3421 30.4631 51.0531 30.6396 50.7079 30.9636C50.2799 31.3653 50.1144 31.768 50.1165 32.4027L50.1181 32.9238L50.3906 32.5981C50.7137 32.2121 51.1549 31.784 51.2297 31.784C51.3199 31.784 50.9957 32.5908 50.7725 32.9218L50.5612 33.2352L50.8031 33.1959C51.1688 33.1365 51.7063 32.7426 52.0428 32.2873C52.3988 31.8057 52.5738 31.426 52.6668 30.9332C52.7435 30.5275 52.6848 29.9599 52.5664 29.9611C52.5239 29.9616 52.2657 30.0595 51.9927 30.1788ZM14.9975 30.3077C13.7349 30.7561 13.2117 31.324 13.2117 32.2461V32.6472L13.7 32.1831C13.9686 31.9277 14.2195 31.7189 14.2575 31.7189C14.3967 31.7189 14.1701 32.2251 13.8081 32.7228L13.5754 33.0428L13.8132 33.0042C14.4381 32.9028 15.1229 32.3133 15.4941 31.5575C15.6776 31.1838 15.7214 31.0129 15.7405 30.5968C15.7586 30.2014 15.7444 30.0914 15.6754 30.0944C15.6269 30.0965 15.3218 30.1925 14.9975 30.3077ZM47.1671 30.3023C47.0775 30.8869 47.3846 31.6937 47.9204 32.2813C48.2468 32.639 48.9005 33.0215 49.1858 33.0215C49.3425 33.0215 49.3419 33.0191 49.1095 32.7023C48.8591 32.361 48.5835 31.7955 48.64 31.7389C48.6947 31.6842 49.0123 31.9359 49.3815 32.3267L49.723 32.688L49.7216 32.2523C49.7191 31.5041 49.368 30.9927 48.5841 30.5955C48.235 30.4187 47.3656 30.0906 47.2459 30.0906C47.2204 30.0906 47.185 30.1858 47.1671 30.3023ZM44.4514 31.7272C43.4856 32.6059 42.2763 33.34 40.9369 33.8606C39.4759 34.4283 38.3938 34.65 37.0845 34.6495C36.2443 34.6492 35.7958 34.5903 33.8754 34.2278C30.7522 33.6383 28.404 33.5476 26.3811 33.9382C24.43 34.315 22.4181 35.3064 20.927 36.6258L20.4971 37.0062L20.7357 37.3423C21.3394 38.1928 22.4431 39.402 23.0118 39.8361L23.2491 40.0172L23.3849 39.8248C23.6418 39.4604 24.6997 38.4122 25.1882 38.0378C26.0928 37.3446 27.1904 36.7423 28.3108 36.3243C29.8054 35.7668 30.3793 35.6952 33.9079 35.626C35.5008 35.5948 37.0384 35.537 37.3248 35.4975C39.4985 35.1981 41.3815 34.5652 42.954 33.6055C43.5844 33.2207 44.5098 32.5144 44.699 32.2738C44.8077 32.1354 44.9617 31.4229 44.896 31.3623C44.8841 31.3513 44.684 31.5155 44.4514 31.7272ZM15.2609 33.5311C14.6001 34.0942 14.4092 34.322 14.1691 34.8337C13.9982 35.198 13.9796 35.2959 14.0083 35.6804C14.0262 35.9196 14.0832 36.2173 14.1349 36.3419L14.229 36.5687L14.5502 35.9218C14.934 35.1485 15.0744 35.0443 15.0116 35.579C14.9883 35.7773 14.9137 36.1183 14.8458 36.3368C14.7778 36.5552 14.7353 36.734 14.7512 36.734C14.8574 36.734 15.1774 36.5081 15.3502 36.3111C15.8523 35.7389 16.1782 34.7755 16.122 34.0299C16.0915 33.6239 15.919 33.0866 15.8192 33.0866C15.799 33.0866 15.5477 33.2866 15.2609 33.5311ZM46.9596 33.3309C46.6891 33.8855 46.779 34.9546 47.1594 35.7059C47.4025 36.1861 47.9501 36.734 48.1868 36.734C48.2046 36.734 48.1607 36.5655 48.0894 36.3595C48.018 36.1534 47.9441 35.7944 47.925 35.5616L47.8903 35.1382L48.0265 35.3011C48.1461 35.4441 48.3846 35.9051 48.5992 36.4083L48.6686 36.5711L48.7865 36.3106C48.8662 36.1344 48.9047 35.8921 48.9053 35.5616C48.9063 35.0098 48.7579 34.6477 48.3246 34.1451C48.1165 33.9038 47.1745 33.0866 47.1044 33.0866C47.0902 33.0866 47.0252 33.1966 46.9596 33.3309ZM10.6332 35.3084C10.812 36.4602 12.3171 37.6206 13.3748 37.4221L13.6112 37.3776L13.3626 37.196C13.0708 36.9828 12.4958 36.3776 12.4958 36.2837C12.4958 36.1591 13.1664 36.4538 13.775 36.8459C13.9136 36.9352 13.9146 36.9329 13.8533 36.656C13.6979 35.9541 13.2939 35.4821 12.6311 35.2281C12.3537 35.1218 12.0696 35.0811 11.4284 35.0557L10.5888 35.0226L10.6332 35.3084ZM50.7217 35.1084C49.8994 35.2712 49.3615 35.7298 49.136 36.4603C49.0641 36.6934 49.0134 36.8922 49.0233 36.9021C49.0332 36.912 49.202 36.8219 49.3984 36.7019C49.8413 36.4314 50.4389 36.1906 50.4389 36.2829C50.4389 36.3862 49.7971 37.0435 49.5426 37.2009C49.3467 37.322 49.3325 37.3475 49.4303 37.4023C49.6317 37.5151 50.2555 37.4225 50.7004 37.2138C51.5063 36.8356 52.1666 36.0384 52.2982 35.2848L52.3409 35.0405L51.6665 35.0477C51.2956 35.0516 50.8704 35.0789 50.7217 35.1084ZM43.4426 35.4718C42.8998 35.8531 41.6062 36.4553 40.6765 36.7594C39.2836 37.215 38.3922 37.3755 35.4048 37.7086C33.2728 37.9463 32.3057 38.1016 31.3194 38.3646C29.6474 38.8103 28.2933 39.5252 27.2957 40.4888C26.8664 40.9034 26.2282 41.6964 26.2282 41.8153C26.2282 41.9668 27.9015 42.5252 29.0572 42.7594C30.1928 42.9895 30.1924 42.9896 30.4209 42.5825C30.7026 42.0806 31.5761 41.2073 32.2429 40.7609C33.6063 39.8483 34.8943 39.3331 37.273 38.749C39.1522 38.2875 41.0275 37.6049 42.626 36.8006L43.1344 36.5448L43.4703 35.8904C43.6551 35.5305 43.7976 35.2376 43.7871 35.2395C43.7766 35.2415 43.6215 35.346 43.4426 35.4718ZM16.4819 36.8154C16.0145 37.7466 15.946 37.9735 15.9455 38.5937C15.9451 39.1165 16.1251 39.5662 16.4653 39.8924L16.661 40.08L16.6616 39.7259C16.6622 39.2961 16.7775 38.5465 16.8551 38.4681C16.9404 38.382 17.1165 39.051 17.1176 39.465C17.1191 39.9943 17.1943 40.0671 17.4071 39.7453C17.8774 39.0341 17.955 37.6854 17.5751 36.8237C17.462 36.5671 17.0201 36.0175 16.9269 36.0175C16.9025 36.0175 16.7022 36.3766 16.4819 36.8154ZM45.7317 36.2741C45.4315 36.6068 45.3191 36.8309 45.2008 37.3332C45.022 38.0917 45.0981 38.9427 45.398 39.5387C45.6578 40.0549 45.7282 40.0573 45.7798 39.5513C45.8305 39.0547 45.9404 38.5533 46.0174 38.4679C46.0946 38.3823 46.2 38.8464 46.2494 39.4892L46.2932 40.06L46.4472 39.9152C46.532 39.8355 46.6886 39.5954 46.7954 39.3815C46.9521 39.0677 46.9895 38.9101 46.9892 38.5635C46.989 38.3275 46.9583 38.017 46.9211 37.8738C46.8445 37.5792 46.0761 36.0175 46.0078 36.0175C45.9834 36.0175 45.8591 36.133 45.7317 36.2741ZM18.5824 40.2022C18.357 40.9546 18.3238 41.1486 18.3223 41.7165C18.3202 42.5397 18.4651 42.9028 18.9853 43.3786C19.3555 43.7172 19.4929 43.7818 19.4329 43.589C19.2909 43.1331 19.2191 41.9444 19.3335 41.9444C19.4286 41.9444 19.7717 42.7195 19.8716 43.1597C19.938 43.452 19.9682 43.5029 20.0306 43.4277C20.5888 42.7545 20.3596 40.8088 19.6188 39.932C19.4412 39.7219 18.9644 39.3392 18.8801 39.3392C18.8585 39.3392 18.7245 39.7275 18.5824 40.2022ZM43.8331 39.4593C42.9714 39.9873 42.3999 41.5437 42.6266 42.7456C42.7087 43.1815 42.926 43.6143 42.9747 43.4394C43.1593 42.7778 43.3745 42.1831 43.4731 42.0621C43.5894 41.9194 43.598 41.9181 43.6436 42.0354C43.6897 42.1541 43.5731 43.411 43.4978 43.6075C43.4313 43.7809 43.5865 43.7071 43.9203 43.4068C44.5522 42.8383 44.7676 42.0331 44.5553 41.0326C44.4325 40.4532 44.1072 39.3395 44.0608 39.3397C44.0429 39.3397 43.9404 39.3935 43.8331 39.4593ZM13.0164 39.603C12.6764 39.6692 12.3929 39.7249 12.3864 39.7267C12.3454 39.7382 12.5163 40.177 12.6519 40.4085C13.2285 41.393 14.856 42.0277 15.8173 41.6428L16.0826 41.5366L15.6346 41.3198C15.3883 41.2005 15.0572 40.9829 14.8988 40.8362L14.6109 40.5696L14.9364 40.6119C15.1153 40.6352 15.4802 40.7235 15.7471 40.8082C16.0141 40.8929 16.2449 40.9497 16.2602 40.9345C16.2754 40.9191 16.2092 40.7455 16.1129 40.5486C15.9021 40.1174 15.4612 39.7118 15.0513 39.572C14.6532 39.4363 13.8064 39.4491 13.0164 39.603ZM47.9654 39.5303C47.4577 39.6849 46.9749 40.145 46.7486 40.6899L46.6194 41.0011L47.1579 40.8208C47.4541 40.7217 47.8377 40.6242 48.0101 40.6042L48.3238 40.568L48.0359 40.8355C47.8775 40.9825 47.5489 41.1993 47.3055 41.3171L46.863 41.5313L47.0912 41.6401C47.4084 41.7915 48.1071 41.7816 48.6358 41.6182C49.2189 41.438 49.8096 41.0271 50.149 40.5657C50.4128 40.2071 50.5634 39.8328 50.4781 39.7474C50.457 39.7264 50.1687 39.6561 49.8374 39.5913C49.2251 39.4715 48.2617 39.4401 47.9654 39.5303ZM21.5665 42.117C21.498 42.3904 21.5935 44.1562 21.6973 44.5347C21.8337 45.0318 22.1342 45.5287 22.4417 45.7654C22.6982 45.963 23.4161 46.2783 23.475 46.2194C23.4906 46.2039 23.4153 46.0167 23.3077 45.8035C23.0915 45.3749 22.8439 44.6818 22.8439 44.5053C22.8439 44.3217 23.4461 44.9602 23.7284 45.4432C24.0188 45.9401 24.0686 45.8988 24.0759 45.1555C24.088 43.9205 23.1782 42.4613 22.1579 42.0793C21.691 41.9045 21.6187 41.9091 21.5665 42.117ZM40.6317 42.14C39.6634 42.6242 38.8484 43.9686 38.8354 45.1033C38.8326 45.3541 38.8532 45.6282 38.8813 45.7125C38.9285 45.8541 38.9515 45.8341 39.182 45.452C39.4752 44.9659 39.9914 44.3668 40.0598 44.4332C40.1366 44.5078 39.971 45.0606 39.6956 45.6496C39.555 45.9501 39.44 46.2071 39.44 46.2207C39.44 46.2724 39.8096 46.1535 40.0991 46.0087C41.0092 45.5537 41.3331 44.7813 41.3499 43.0257L41.3599 41.977L41.1969 41.9579C41.1073 41.9474 40.8529 42.0294 40.6317 42.14ZM16.4983 43.2381C16.1352 43.3492 15.3664 43.6472 14.954 43.8365L14.7764 43.918L14.9199 44.1736C15.1108 44.5135 15.5921 44.9564 15.99 45.1581C16.8437 45.5911 17.9635 45.6487 18.6524 45.2952C18.858 45.1896 19.036 45.0734 19.0481 45.0369C19.0601 45.0003 18.8934 44.9369 18.6777 44.8959C18.2556 44.8155 17.442 44.4657 17.442 44.3646C17.442 44.2668 17.9445 44.2378 18.575 44.299C18.8939 44.33 19.1691 44.341 19.1867 44.3234C19.2353 44.2748 18.8755 43.7811 18.6583 43.5982C18.1103 43.1367 17.281 42.9985 16.4983 43.2381ZM44.9049 43.2126C44.7428 43.265 44.4924 43.4086 44.3486 43.5318C44.0714 43.7692 43.6936 44.269 43.7492 44.3247C43.7674 44.3428 44.028 44.3301 44.3283 44.2964C44.8881 44.2334 45.4927 44.2655 45.4927 44.358C45.4927 44.479 44.4066 44.8936 43.9307 44.9542C43.7759 44.9739 43.7811 44.9838 44.0383 45.1576C44.9552 45.7771 46.602 45.5911 47.5161 44.7646C47.8181 44.4915 48.1404 43.9783 48.0559 43.905C47.9733 43.8335 47.2293 43.52 46.6967 43.3323C46.1242 43.1305 45.3246 43.0771 44.9049 43.2126ZM25.384 44.0124C25.3888 44.2961 25.7076 45.7918 25.8351 46.1284C26.2039 47.102 26.9951 47.731 27.7659 47.6633L27.9934 47.6434L27.7235 47.2852C27.4008 46.857 26.9787 46.0477 27.078 46.0477C27.2163 46.0477 27.7086 46.4358 28.0812 46.8385L28.4599 47.2479L28.4277 46.7452C28.3824 46.0393 28.0683 45.414 27.4358 44.7707C26.851 44.1758 26.317 43.8985 25.7563 43.8984C25.4426 43.8984 25.3824 43.9168 25.384 44.0124ZM36.6089 43.9784C35.9526 44.213 35.1603 44.9851 34.7747 45.7659C34.5716 46.1771 34.5233 46.3512 34.5035 46.7442L34.4794 47.2223L34.9076 46.7783C35.3376 46.3326 35.8604 45.9691 35.8604 46.1158C35.8604 46.2414 35.4874 46.9024 35.2091 47.2702C35.0662 47.459 34.9493 47.6275 34.9493 47.6447C34.9493 47.7105 35.5138 47.6662 35.7499 47.5819C36.373 47.3595 36.8481 46.8182 37.1281 46.0115C37.2634 45.6219 37.5526 44.2408 37.5526 43.9847C37.5526 43.878 36.9021 43.8737 36.6089 43.9784ZM20.5335 46.0702C19.983 46.2527 18.4183 47.1713 18.4183 47.3119C18.4183 47.356 18.5218 47.513 18.6482 47.6608C18.9204 47.979 19.6178 48.3485 20.1584 48.4607C20.6807 48.5693 21.6142 48.5076 22.068 48.3344C22.4188 48.2007 22.9741 47.794 22.9741 47.6709C22.9741 47.6379 22.8114 47.6108 22.6127 47.6108C22.1946 47.6108 21.4153 47.4472 21.2471 47.3241C21.1419 47.2472 21.1512 47.2329 21.3533 47.1615C21.5327 47.0981 22.5604 46.9712 22.9713 46.9617C23.1081 46.9586 22.5434 46.397 22.1976 46.1923C21.9576 46.0502 21.8159 46.0184 21.3516 46.0027C21.012 45.9912 20.6919 46.0176 20.5335 46.0702ZM40.8254 46.1419C40.6387 46.2289 40.3459 46.441 40.1746 46.6132L39.863 46.9264L40.3186 46.9748C41.0009 47.0474 41.6114 47.1542 41.7171 47.2196C41.7905 47.265 41.7688 47.2939 41.618 47.3514C41.1986 47.5116 40.6942 47.611 40.2886 47.6134L39.863 47.616L40.1658 47.895C40.5721 48.2695 41.087 48.4622 41.797 48.5057C42.4707 48.547 43.04 48.4493 43.5367 48.2071C43.8946 48.0325 44.5164 47.476 44.5164 47.3303C44.5164 47.2419 44.4914 47.2244 43.5464 46.6521C42.4218 45.9712 41.5447 45.8068 40.8254 46.1419ZM30.6533 47.1061C30.1688 47.3968 29.9199 47.8056 29.884 48.3696C29.8481 48.934 29.9872 49.2846 30.3915 49.6483C31.073 50.2615 31.9365 50.2455 32.5698 49.6078C33.241 48.932 33.2391 47.9823 32.5652 47.3372C32.2297 47.0161 31.9145 46.8944 31.4178 46.8944C31.069 46.8944 30.9521 46.9268 30.6533 47.1061ZM25.2107 48.128C24.8287 48.3196 24.5056 48.5634 23.9379 49.0887L23.1771 49.7927L23.3398 49.9631C23.5814 50.2162 24.1322 50.4712 24.6005 50.5467C25.7612 50.7337 27.2932 50.1423 27.7032 49.3487C27.8016 49.1584 27.8008 49.1561 27.6502 49.2001C27.1923 49.334 25.9028 49.3177 25.9028 49.178C25.9028 49.0819 26.9338 48.6949 27.5608 48.5558L27.7544 48.5128L27.5933 48.3832C27.5047 48.312 27.2565 48.1676 27.0417 48.0626C26.7209 47.9056 26.5683 47.8714 26.1869 47.8714C25.7763 47.8714 25.6634 47.9011 25.2107 48.128ZM36.0526 47.9558C35.7998 48.0505 35.1843 48.454 35.2272 48.4969C35.2419 48.5116 35.4785 48.5825 35.7528 48.6544C36.2978 48.7973 36.9257 49.0547 36.9923 49.1625C37.0857 49.3138 35.775 49.344 35.291 49.2018C35.0712 49.1373 35.1115 49.2534 35.4333 49.6116C35.9822 50.2225 36.8735 50.5696 37.878 50.5635C38.6048 50.5591 39.0692 50.4115 39.49 50.051L39.7574 49.822L39.1686 49.2537C38.1036 48.2261 37.5815 47.9253 36.8041 47.8918C36.4771 47.8778 36.1976 47.9015 36.0526 47.9558ZM22.924 54.3682C22.8893 54.4667 22.1948 56.3498 21.3804 58.5529C20.4474 61.0768 19.8461 62.6144 19.7547 62.7099C19.6611 62.8075 19.508 62.8725 19.3231 62.893C18.7955 62.9514 18.7437 62.9736 18.7437 63.1405C18.7437 63.5129 18.7015 63.5028 20.2671 63.5028C21.8166 63.5028 21.8677 63.4922 21.8677 63.1711C21.8677 62.96 21.7736 62.9166 21.3145 62.9166C20.8884 62.9166 20.7613 62.8719 20.7613 62.7221C20.7613 62.623 21.1102 61.5764 21.4513 60.6522L21.5539 60.3743L23.1188 60.3916L24.6837 60.4091L25.0911 61.5815C25.3797 62.4117 25.4792 62.7776 25.4324 62.8352C25.3934 62.883 25.2135 62.9166 24.9961 62.9166C24.519 62.9166 24.3644 63.0199 24.4511 63.2805L24.5143 63.4703L26.4861 63.4875C27.8867 63.4998 28.4837 63.4833 28.5471 63.4307C28.5961 63.3899 28.6363 63.2728 28.6363 63.1705C28.6363 62.9665 28.5941 62.9474 28.027 62.8951C27.8367 62.8775 27.6621 62.8174 27.5891 62.7444C27.4997 62.6549 24.4059 54.364 24.4059 54.2138C24.4059 54.2002 24.0866 54.1891 23.6964 54.1891H22.9868L22.924 54.3682ZM34.2334 54.6776V55.1009H34.8842C35.2421 55.1009 35.5402 55.1082 35.5467 55.1172C35.553 55.1262 35.575 56.6136 35.5955 58.4226L35.6326 61.7117L35.8065 62.0415C36.125 62.6452 36.7502 63.0788 37.6008 63.2858C38.2714 63.449 39.7729 63.4311 40.4374 63.2521C41.3994 62.9929 41.9714 62.5416 42.2364 61.8329C42.3628 61.4946 42.3687 61.3368 42.3687 58.2899V55.1009H43.0195H43.6703V54.6776V54.2542H41.5552H39.44V54.6776V55.1009H40.0937H40.7474L40.7282 58.2761L40.7091 61.4512L40.5564 61.7615C40.4463 61.9851 40.3191 62.1214 40.1008 62.2494C39.832 62.4072 39.7189 62.4298 39.0943 62.4513C38.0937 62.4856 37.6063 62.2804 37.3506 61.7169C37.2386 61.47 37.2299 61.226 37.2286 58.2761L37.2272 55.1009H37.8454H38.4637V54.6776V54.2542H36.3485H34.2334V54.6776ZM29.2615 54.4224C29.2398 54.479 29.222 54.5935 29.222 54.6768C29.222 54.81 29.2629 54.8337 29.5637 54.8749C29.978 54.9316 30.1442 54.991 30.2858 55.1327C30.3835 55.2305 30.3935 55.5847 30.3935 58.9468V62.6531L30.2471 62.7461C30.1665 62.7972 29.9688 62.8586 29.8077 62.8826C29.3272 62.9541 29.2871 62.9761 29.2871 63.1685C29.2871 63.5011 29.2981 63.5028 31.44 63.5028H33.4366L33.5175 63.3074C33.6214 63.0563 33.5198 62.9168 33.2329 62.9163C32.9039 62.9157 32.5525 62.792 32.4455 62.6391C32.359 62.5156 32.346 62.0157 32.346 58.833V55.169L32.4998 55.0682C32.5845 55.0127 32.8324 54.9357 33.0507 54.8972C33.4796 54.8217 33.5875 54.7024 33.4537 54.4521C33.3846 54.3229 33.3287 54.3193 31.3419 54.3193C29.5409 54.3193 29.2964 54.3315 29.2615 54.4224ZM22.4777 57.7934L21.7536 59.7578L22.4289 59.7763C22.8004 59.7864 23.4084 59.7864 23.7802 59.7763L24.4561 59.7578L23.8516 57.8157C23.5192 56.7476 23.237 55.8636 23.2245 55.8514C23.2121 55.8391 22.876 56.713 22.4777 57.7934ZM18.9389 64.4147V64.6752H30.6538H42.3687V64.4147V64.1541H30.6538H18.9389V64.4147ZM22.9594 66.0142C22.7459 66.1301 22.6487 66.2964 22.6487 66.5452C22.6487 66.8398 22.8103 66.9981 23.2662 67.1499C23.7303 67.3044 23.8056 67.369 23.6876 67.5112C23.5853 67.6345 23.2526 67.6318 23.0108 67.5056C22.8338 67.4132 22.8105 67.4152 22.6938 67.532C22.5412 67.6846 22.5914 67.7842 22.8823 67.9058C23.3178 68.0879 24.0006 67.9735 24.1051 67.7008C24.1273 67.6429 24.1456 67.4851 24.1456 67.3503C24.1456 67.0393 24.0095 66.9131 23.5166 66.7671C23.2209 66.6795 23.1322 66.6233 23.1163 66.5138C23.0884 66.3228 23.3398 66.2641 23.643 66.3909C23.8548 66.4795 23.8839 66.4781 23.9777 66.3743C24.1347 66.2007 24.1038 66.1316 23.8188 66.0175C23.4967 65.8884 23.1931 65.8873 22.9594 66.0142ZM28.4085 66.0046C27.6683 66.3338 27.582 67.4524 28.2646 67.8689C28.5492 68.0426 29.1151 68.0418 29.401 67.8673C29.6465 67.7175 29.6584 67.6679 29.4863 67.512C29.3699 67.4065 29.3486 67.4057 29.2115 67.5019C28.86 67.7483 28.3523 67.5351 28.2721 67.1075C28.1704 66.5649 28.6269 66.189 29.1313 66.3998C29.3631 66.4968 29.3844 66.4955 29.5028 66.3771C29.6549 66.2249 29.6044 66.1253 29.3138 66.0037C29.0426 65.8903 28.6646 65.8907 28.4085 66.0046ZM33.2246 65.9714C33.153 66.0029 33.0258 66.1027 32.9419 66.1931L32.7892 66.3575L32.955 66.4662C33.1124 66.5695 33.128 66.5681 33.2663 66.4392C33.4765 66.2431 33.7463 66.2745 33.779 66.4988C33.8145 66.7428 33.7475 66.841 33.2897 67.2153C32.8836 67.5473 32.8015 67.6466 32.8015 67.8056V67.9969H33.55H34.2984V67.8015V67.6061H33.8643H33.4302L33.8318 67.2424C34.2163 66.8942 34.2334 66.8656 34.2334 66.5698C34.2334 66.3268 34.1996 66.2293 34.0747 66.1118C33.9014 65.949 33.4461 65.8737 33.2246 65.9714ZM35.0728 66.0605C34.638 66.3512 34.4906 67.0243 34.7502 67.5336C34.9228 67.8719 35.1355 67.9969 35.5392 67.9969C35.8307 67.9969 35.901 67.9693 36.0889 67.7813C36.5808 67.2889 36.519 66.3746 35.9711 66.0403C35.6924 65.8702 35.3458 65.878 35.0728 66.0605ZM37.0553 66.0379C36.77 66.212 36.7353 66.2961 36.8867 66.4476L37.0175 66.5785L37.2184 66.4299C37.3894 66.3035 37.444 66.2924 37.5836 66.3561C37.9062 66.5031 37.7372 66.8262 37.0669 67.3436C36.7776 67.567 36.7065 67.6589 36.7065 67.8094V67.9969H37.455H38.2034V67.8015V67.6061H37.7718H37.3403L37.6762 67.3384C38.1688 66.946 38.296 66.6432 38.1256 66.2691C37.9681 65.923 37.433 65.8074 37.0553 66.0379ZM38.8776 66.0379C38.5923 66.212 38.5576 66.2961 38.709 66.4476L38.8398 66.5785L39.0408 66.4299C39.2136 66.302 39.2653 66.2919 39.4102 66.358C39.7039 66.4919 39.6052 66.7247 39.0495 67.2086C38.6941 67.5181 38.5558 67.683 38.541 67.8153L38.5205 67.9969H39.2732H40.0257V67.8015V67.6061H39.5967H39.1677L39.522 67.3173C39.9299 66.9848 40.0598 66.7336 39.9971 66.3991C39.916 65.9665 39.3133 65.772 38.8776 66.0379ZM24.6011 66.9873V67.9969H24.8289H25.0567V66.9873V65.9778H24.8289H24.6011V66.9873ZM25.5774 66.9873V67.9969H25.7726H25.9679V67.3781C25.9679 67.0378 25.9898 66.7599 26.0167 66.7605C26.0436 66.7612 26.2705 67.0383 26.5211 67.3763C26.931 67.9293 26.9979 67.9911 27.1882 67.9939L27.3997 67.9969V66.9873V65.9778H27.1744H26.949L26.9303 66.5803L26.9116 67.1827L26.4573 66.5803C26.0468 66.0359 25.9825 65.9778 25.7902 65.9778H25.5774V66.9873ZM30.0681 66.9873V67.9969H30.8165H31.565V67.8015V67.6061H31.0077H30.4503L30.4707 67.3944L30.4911 67.1827L30.963 67.1636L31.4348 67.1444V66.9519V66.7594H30.9467H30.4586V66.564V66.3686H31.0118H31.565V66.1732V65.9778H30.8165H30.0681V66.9873ZM35.2719 66.4229C35.051 66.6019 35.0141 67.1812 35.2079 67.427C35.5314 67.837 35.9626 67.5501 35.9531 66.9313C35.949 66.6647 35.9175 66.5829 35.7705 66.4564C35.5565 66.2722 35.4654 66.2661 35.2719 66.4229Z" fill="white"/>
</g>
</g>
<defs>
<clipPath id="clip0_44_464">
<rect width="63" height="82" fill="white"/>
</clipPath>
</defs>
</svg>
