<svg width="48" height="48" viewBox="0 0 48 48" fill="none" xmlns="http://www.w3.org/2000/svg">
<g clip-path="url(#clip0_422_269)">
<path d="M44 0H4C1.79086 0 0 1.79086 0 4V44C0 46.2091 1.79086 48 4 48H44C46.2091 48 48 46.2091 48 44V4C48 1.79086 46.2091 0 44 0Z" fill="#F9FAFC"/>
<path d="M44 0.5H4C2.067 0.5 0.5 2.067 0.5 4V44C0.5 45.933 2.067 47.5 4 47.5H44C45.933 47.5 47.5 45.933 47.5 44V4C47.5 2.067 45.933 0.5 44 0.5Z" stroke="#9FABB9" stroke-opacity="0.2"/>
<path d="M35.3941 13.5739L37.7049 14.1231L37.129 16.5497L32.4906 18.8844L28.1242 17.8049C27.9603 17.7644 27.7901 17.7565 27.6232 17.7817C27.4563 17.807 27.296 17.8649 27.1515 17.9521C27.0069 18.0394 26.881 18.1542 26.7809 18.2901C26.6808 18.426 26.6084 18.5804 26.568 18.7443L25.3342 23.7318L31.5721 25.2755L32.42 21.8448L38.6276 17.6209L38.2441 16.9903L38.8604 14.3974L41.1707 14.9466L42.4063 9.74775L36.6297 8.375L35.3941 13.5739Z" fill="#001C51"/>
<path d="M27.4764 15.5243C27.1696 15.1029 26.7674 14.76 26.3027 14.5239C25.8379 14.2878 25.3239 14.1651 24.8026 14.1658C24.2813 14.1666 23.7676 14.2908 23.3035 14.5282C22.8394 14.7657 22.4382 15.1097 22.1327 15.532C21.8265 15.324 21.4695 15.2033 21.0999 15.1831C20.7303 15.1628 20.3622 15.2437 20.0351 15.4171C19.7081 15.5905 19.4345 15.8498 19.2439 16.167C19.0532 16.4843 18.9527 16.8476 18.9531 17.2177C18.9531 17.2557 18.962 17.2913 18.9644 17.3287C18.5146 17.1953 18.0384 17.1777 17.58 17.2777C17.1216 17.3776 16.696 17.5919 16.3426 17.9005C15.9892 18.2092 15.7196 18.6021 15.5589 19.0429C15.3982 19.4837 15.3515 19.9579 15.4233 20.4216C14.8973 20.2246 14.3171 20.2282 13.7936 20.4317C13.2701 20.6353 12.8399 21.0245 12.5851 21.525C12.3303 22.0256 12.2688 22.6025 12.4122 23.1455C12.5557 23.6886 12.8942 24.1598 13.363 24.4692C12.9345 24.7663 12.5767 25.154 12.3148 25.6049C12.053 26.0558 11.8935 26.5587 11.8477 27.0781C12.251 26.9325 12.68 26.8719 13.1078 26.9001C13.5356 26.9283 13.953 27.0448 14.3336 27.242C14.7143 27.4393 15.05 27.7133 15.3197 28.0466C15.5893 28.3799 15.7872 28.7654 15.9007 29.1788C16.3688 29.1072 16.8477 29.171 17.2808 29.3628C17.7138 29.5546 18.083 29.8664 18.3445 30.2612L21.1838 34.5594C21.3572 34.8221 21.4192 35.1429 21.3562 35.4513C21.2932 35.7597 21.1103 36.0304 20.8478 36.204L19.2262 37.2752C19.4692 37.8331 19.8741 38.3053 20.3884 38.6306C20.9028 38.9559 21.5029 39.1193 22.1112 39.0998C22.7194 39.0802 23.3078 38.8785 23.8002 38.5208C24.2925 38.1631 24.6662 37.6659 24.8728 37.0935C25.1634 37.6477 25.6314 38.0885 26.202 38.3455C26.7725 38.6025 27.4128 38.6608 28.0204 38.5111C28.628 38.3615 29.1679 38.0124 29.5539 37.5199C29.9398 37.0273 30.1495 36.4195 30.1495 35.7938C30.1492 35.6922 30.1434 35.5907 30.1322 35.4898C30.4782 35.4267 30.8069 35.2913 31.0971 35.0927C31.3872 34.894 31.6322 34.6364 31.8161 34.3367C32 34.037 32.1187 33.7019 32.1645 33.3532C32.2102 33.0046 32.1819 32.6502 32.0815 32.3132C32.5958 32.5259 33.17 32.5436 33.6964 32.3629C34.2228 32.1822 34.6651 31.8155 34.9402 31.3317C35.2153 30.8479 35.3044 30.2804 35.1906 29.7356C35.0768 29.1908 34.7681 28.7063 34.3223 28.3731C34.593 28.4294 34.8723 28.4299 35.1432 28.3745C35.4141 28.3191 35.6708 28.2089 35.8976 28.0508C36.1244 27.8928 36.3165 27.69 36.4623 27.4551C36.608 27.2201 36.7042 26.9579 36.7451 26.6845C36.7859 26.411 36.7705 26.1322 36.6998 25.8649C36.629 25.5976 36.5045 25.3476 36.3338 25.1301C36.163 24.9127 35.9497 24.7324 35.7069 24.6002C35.464 24.4681 35.1968 24.3869 34.9214 24.3617C35.1441 23.9392 35.253 23.466 35.2376 22.9886C35.2222 22.5112 35.083 22.0461 34.8336 21.6388L33.4626 22.5715L32.7228 25.5617C32.6471 25.8673 32.4532 26.1303 32.1836 26.293C31.9141 26.4557 31.591 26.5046 31.2853 26.4291L25.0474 24.8854C24.7417 24.8101 24.4784 24.6165 24.3154 24.3472C24.1524 24.0779 24.103 23.7548 24.1781 23.4491L25.4119 18.4586C25.5275 17.9987 25.7728 17.5817 26.1185 17.2571C26.4643 16.9326 26.8961 16.7143 27.3624 16.6281C27.3337 16.3009 27.3572 15.9712 27.4319 15.6514C27.4437 15.6057 27.4639 15.5671 27.4764 15.5243ZM21.625 23.9562L20.7854 24.7957L19.9459 23.9562L19.1063 24.7957L18.2667 23.9562L19.1063 23.1166L18.2667 22.277L19.1063 21.4375L19.9459 22.277L20.7854 21.4375L21.625 22.277L20.7854 23.1166L21.625 23.9562ZM25.3834 30.0516C25.6761 29.8555 26.0203 29.7505 26.3726 29.75C26.725 29.7495 27.0695 29.8535 27.3627 30.0488C27.6559 30.2442 27.8846 30.522 28.0199 30.8474C28.1551 31.1727 28.1909 31.5308 28.1226 31.8764C28.0544 32.222 27.8851 32.5397 27.6364 32.7891C27.3876 33.0386 27.0704 33.2086 26.725 33.2778C26.3795 33.347 26.0213 33.3122 25.6956 33.1778C25.37 33.0434 25.0915 32.8155 24.8954 32.5228C24.6324 32.1304 24.5361 31.6496 24.6276 31.1861C24.7192 30.7227 24.991 30.3146 25.3834 30.0516Z" fill="#001C51"/>
<path d="M6.67706 14.7023L5.62286 15.249L7.53642 18.9392L8.59062 18.3925L6.67706 14.7023Z" fill="#001C51"/>
<path d="M9.13677 19.4464L8.08264 19.9932L8.62942 21.0473L9.68355 20.5005L9.13677 19.4464Z" fill="#001C51"/>
<path d="M41.2988 36.7237L39.2053 40.3142L40.2317 40.9126L42.3251 37.3221L41.2988 36.7237Z" fill="#001C51"/>
<path d="M38.6068 41.3396L38.0084 42.3654L39.0336 42.9634L39.632 41.9377L38.6068 41.3396Z" fill="#001C51"/>
<path d="M15.4274 11.7243C15.5179 11.4645 15.6651 11.2281 15.8584 11.0323C16.0517 10.8366 16.2862 10.6864 16.5449 10.5927C16.8684 10.4591 17.1529 10.246 17.3721 9.97315C17.5913 9.70028 17.738 9.37647 17.7986 9.03177C17.8593 8.68707 17.8319 8.33263 17.719 8.00135C17.6061 7.67007 17.4113 7.37267 17.1528 7.13674C16.8943 6.90081 16.5803 6.734 16.2401 6.65178C15.8999 6.56956 15.5445 6.5746 15.2067 6.66642C14.869 6.75825 14.5599 6.93388 14.3082 7.17704C14.0564 7.42019 13.8702 7.72299 13.7667 8.05734L14.9008 8.40884C14.9408 8.27863 15.0102 8.15938 15.1037 8.06033C15.1972 7.96127 15.3122 7.88508 15.4399 7.83765C15.5713 7.78933 15.7121 7.77207 15.8512 7.78721C15.9904 7.80235 16.1242 7.84949 16.2421 7.92493C16.3696 8.00675 16.4738 8.1203 16.5442 8.25447C16.6147 8.38864 16.6491 8.53881 16.644 8.69028C16.6401 8.86375 16.5857 9.03231 16.4875 9.17538C16.3894 9.31846 16.2517 9.42986 16.0913 9.496C15.6704 9.65481 15.2905 9.9058 14.9793 10.2306C14.6681 10.5553 14.4335 10.9456 14.2928 11.3728L14.0422 12.1827L15.1763 12.5342L15.4274 11.7243Z" fill="#001C51"/>
<path d="M13.6904 13.3177L13.3389 14.452L14.4732 14.8034L14.8247 13.6691L13.6904 13.3177Z" fill="#001C51"/>
<path d="M33.5077 36.7181L32.436 37.2309L33.2048 38.8377L34.2766 38.3248L33.5077 36.7181Z" fill="#001C51"/>
<path d="M34.3438 35.1586L33.9213 36.2684L35.586 36.9022L36.0085 35.7924L34.3438 35.1586Z" fill="#001C51"/>
<path d="M14.8236 38.7626L20.1935 35.2125L17.3536 30.9167C17.2603 30.7757 17.1402 30.6543 17.0001 30.5597C16.86 30.465 16.7026 30.3989 16.5369 30.3651C16.3712 30.3313 16.2004 30.3305 16.0344 30.3627C15.8684 30.3949 15.7104 30.4595 15.5693 30.5528L13.9585 31.6174C14.2772 31.4067 14.5263 31.1062 14.6742 30.754C14.8221 30.4018 14.8623 30.0136 14.7896 29.6385C14.7169 29.2635 14.5346 28.9184 14.2657 28.647C13.9969 28.3755 13.6536 28.1899 13.2793 28.1136C12.905 28.0373 12.5164 28.0737 12.1628 28.2182C11.8091 28.3627 11.5063 28.6088 11.2925 28.9255C11.0788 29.2421 10.9637 29.615 10.9619 29.9971C10.9602 30.3791 11.0717 30.7531 11.2825 31.0717C11.565 31.4989 12.0057 31.7963 12.5075 31.8986C13.0093 32.001 13.5313 31.8998 13.9585 31.6174L11.8103 33.0376L5.9215 32.3031L5.59375 33.9063L12.8707 35.8063L14.8236 38.7626Z" fill="#001C51"/>
<path d="M29.9933 18.2675C30.3634 18.359 30.7522 18.3386 31.1107 18.2091C31.4692 18.0796 31.7812 17.8467 32.0073 17.5399C32.2335 17.233 32.3635 16.866 32.3811 16.4853C32.3986 16.1045 32.3029 15.7271 32.106 15.4008C31.9091 15.0744 31.6198 14.8138 31.2748 14.6518C30.9297 14.4899 30.5444 14.4338 30.1675 14.4909C29.7906 14.5479 29.4391 14.7154 29.1574 14.9721C28.8758 15.2289 28.6765 15.5635 28.585 15.9335C28.5241 16.1792 28.5122 16.4345 28.55 16.6848C28.5878 16.9352 28.6746 17.1756 28.8054 17.3923C28.9362 17.6091 29.1085 17.798 29.3123 17.9481C29.5161 18.0983 29.7475 18.2068 29.9933 18.2675Z" fill="#001C51"/>
</g>
<defs>
<clipPath id="clip0_422_269">
<rect width="48" height="48" fill="white"/>
</clipPath>
</defs>
</svg>
