<svg width="48" height="48" viewBox="0 0 48 48" fill="none" xmlns="http://www.w3.org/2000/svg">
<g clip-path="url(#clip0_410_2)">
<path d="M44 0H4C1.79086 0 0 1.79086 0 4V44C0 46.2091 1.79086 48 4 48H44C46.2091 48 48 46.2091 48 44V4C48 1.79086 46.2091 0 44 0Z" fill="#F9FAFC"/>
<path d="M44 0.5H4C2.067 0.5 0.5 2.067 0.5 4V44C0.5 45.933 2.067 47.5 4 47.5H44C45.933 47.5 47.5 45.933 47.5 44V4C47.5 2.067 45.933 0.5 44 0.5Z" stroke="#9FABB9" stroke-opacity="0.2"/>
<path d="M24 14.2236C26.1309 14.2236 27.8583 12.4805 27.8583 10.3303C27.8583 8.1801 26.1309 6.43701 24 6.43701C21.8691 6.43701 20.1417 8.1801 20.1417 10.3303C20.1417 12.4805 21.8691 14.2236 24 14.2236Z" fill="#001C51"/>
<path d="M21.4409 20.3019H26.5197H29.7086C29.5512 17.2429 27.0315 14.7798 24 14.7798C20.9291 14.7798 18.4094 17.2032 18.2913 20.3019H21.4409Z" fill="#001C51"/>
<path d="M17.0708 11.0851C17.0708 8.58229 19.5905 8.54257 19.5905 8.54257C19.5905 8.54257 17.0708 8.46311 17.0708 6C17.0708 8.50284 14.5511 8.54257 14.5511 8.54257C14.5511 8.54257 17.0708 8.62202 17.0708 11.0851Z" fill="#001C51"/>
<path d="M12.3465 15.3757C12.3465 13.8661 13.8819 13.8264 13.8819 13.8264C13.8819 13.8264 12.3465 13.7866 12.3465 12.277C12.3465 13.7866 10.811 13.8264 10.811 13.8264C10.811 13.8264 12.3465 13.8661 12.3465 15.3757Z" fill="#001C51"/>
<path d="M12.7401 10.4892C12.7401 9.37686 13.8819 9.33713 13.8819 9.33713C13.8819 9.33713 12.7401 9.2974 12.7401 8.18503C12.7401 9.2974 11.5984 9.33713 11.5984 9.33713C11.5984 9.33713 12.7401 9.41658 12.7401 10.4892Z" fill="#001C51"/>
<path d="M18.1339 27.2543C18.4094 28.3666 18.9606 30.0352 20.1811 30.6708L19.3543 27.2543H18.1339Z" fill="#001C51"/>
<path d="M27.6614 30.7503C29.1181 30.1544 29.7086 28.0885 29.8661 27.294H28.5275L27.6614 30.7503Z" fill="#001C51"/>
<path d="M26.5591 21.5732H21.4409H13.5669V19.0704L14.1969 18.2361C14.6693 18.3156 15.1417 18.1566 15.4961 17.7991L18.5276 14.4223C19.0787 13.8263 19.0394 12.9523 18.4488 12.3962C17.8583 11.84 16.9921 11.8797 16.4409 12.4756L13.4094 15.8525C12.9764 16.3689 12.8976 17.0443 13.1732 17.5607L12.3071 18.6731V21.5732H9V27.8899L12.9764 30.9489V41H21.4409H26.5197H35.0236V30.9489L39 27.8899V21.5732H26.5591ZM27.3071 32.0216C27.189 32.2997 26.9134 32.6572 26.6772 32.8161L24.9843 33.7299C24.9843 33.8093 24.9843 33.849 24.9843 33.9285C24.9843 34.0477 24.9843 34.1669 24.9843 34.286C24.9843 34.8025 25.063 35.319 25.1811 35.8354H25.2992C25.7717 35.8354 26.1654 36.1532 26.2835 36.63C26.5197 36.7492 26.6378 36.9875 26.6378 37.2656C26.6378 37.6629 26.3228 37.9807 25.9291 37.9807H21.9921C21.5984 37.9807 21.2835 37.6629 21.2835 37.2656C21.2835 36.9875 21.4409 36.7889 21.6378 36.63C21.7165 36.193 22.1102 35.8354 22.622 35.8354H22.7008C22.8583 35.1998 22.937 34.6436 22.937 34.0477C22.937 34.008 22.937 33.9285 22.937 33.8888C22.937 33.849 22.937 33.8093 22.937 33.7696L21.1654 32.8161C20.8898 32.6572 20.6142 32.3394 20.4961 31.9818C17.622 31.4257 17.0315 27.5721 16.9134 26.7775C16.874 26.6584 16.9134 26.4994 16.9921 26.3405C17.1102 26.1816 17.2677 26.1419 17.4252 26.1419H18.7244C18.6063 25.983 18.5276 25.7446 18.5276 25.5063C18.5276 25.0295 18.8425 24.6322 19.2756 24.6322H28.5276C28.9213 24.6322 29.2756 25.0295 29.2756 25.5063C29.2756 25.7446 29.1969 25.983 29.0787 26.1419H30.5354C30.7323 26.1419 30.8504 26.2611 30.9685 26.3405L31.0079 26.3803C31.0866 26.4994 31.126 26.6186 31.126 26.7775C31.0866 26.7775 30.6142 31.5051 27.3071 32.0216Z" fill="#001C51"/>
<path d="M38.2913 10.8468L34.4724 6.99319C34.2756 6.79455 33.9606 6.79455 33.8032 6.99319L29.9843 10.8468C29.6693 11.1646 29.9055 11.681 30.3386 11.681H32.3071V14.8592V19.3087C32.3071 19.6266 32.5433 19.8649 32.8583 19.8649H35.4567C35.7717 19.8649 36.0079 19.6266 36.0079 19.3087V14.8592V11.681H37.9764C38.4095 11.681 38.6063 11.1646 38.2913 10.8468Z" fill="#001C51"/>
</g>
<defs>
<clipPath id="clip0_410_2">
<rect width="48" height="48" fill="white"/>
</clipPath>
</defs>
</svg>
