<svg width="88" height="92" viewBox="0 0 88 92" fill="none" xmlns="http://www.w3.org/2000/svg">
<path d="M12.4384 41.117L5.35642 48.199C4.98533 48.5506 4.4072 48.5506 4.03612 48.199C3.86034 48.035 3.75878 47.8045 3.75096 47.5623C3.74314 47.3201 3.83299 47.0857 4.00096 46.91L11.4815 39.4373V23.6913C11.2354 23.6913 11.001 23.5936 10.8291 23.4178L3.09082 15.6717C2.91504 15.4998 2.81348 15.2655 2.81348 15.0194C2.81348 14.7694 2.91504 14.535 3.09082 14.3631C3.2627 14.1834 3.50098 14.0819 3.75098 14.0819C4.00098 14.0819 4.23926 14.1834 4.41114 14.3631L12.0752 22.0272L26.5552 13.6834C26.4263 13.5272 26.3521 13.3319 26.3443 13.1287V3.27325C26.3443 2.76934 26.7545 2.36309 27.2545 2.36309C27.7584 2.36309 28.1646 2.76934 28.1646 3.27325V13.1287C28.1568 13.3319 28.0865 13.5272 27.9537 13.6834L43.0907 22.3631V40.5471L27.3097 49.6369L12.4384 41.117ZM83.5754 14.363L75.9035 22.0349L61.4265 13.6833C61.5593 13.5271 61.6296 13.3318 61.6375 13.1286V3.27314C61.6375 2.76923 61.2312 2.36298 60.7273 2.36298C60.2273 2.36298 59.8171 2.76923 59.8171 3.27314V13.1286C59.821 13.3279 59.8914 13.5232 60.0203 13.6833L44.9113 22.363V40.547L60.6733 49.6368L75.5363 41.0626L82.6183 48.1446C82.9894 48.4962 83.5675 48.4962 83.9386 48.1446C84.2784 47.8126 84.3058 47.2735 84.0011 46.9102L76.5284 39.4375V23.6915C76.7744 23.6915 77.0088 23.5939 77.1846 23.4181L84.9112 15.672C85.087 15.5001 85.1886 15.2657 85.1886 15.0196C85.1886 14.7696 85.087 14.5353 84.9112 14.3634C84.7393 14.1759 84.4972 14.0704 84.2432 14.0704C83.9893 14.0704 83.7473 14.1755 83.5754 14.363ZM60.4274 69.218C60.2555 69.0461 60.0251 68.9524 59.7829 68.9524V51.4524L44.0019 42.3079L28.2209 51.4524V69.1084C28.1623 69.1397 28.1076 69.1748 28.0568 69.2178L20.3654 76.9639C20.1857 77.1358 20.0842 77.374 20.0842 77.6201C20.0842 77.8701 20.1857 78.1084 20.3654 78.2803C20.5373 78.4561 20.7756 78.5537 21.0217 78.5537C21.2678 78.5576 21.51 78.46 21.6857 78.2803L29.3732 70.5459C29.4084 70.4873 29.4357 70.4248 29.4553 70.3623L43.2753 78.3154C43.1464 78.4756 43.076 78.6709 43.076 78.8701V88.7256C43.076 89.2295 43.4823 89.6357 43.9823 89.6357C44.4862 89.6357 44.8925 89.2295 44.8925 88.7256V78.8701C44.8886 78.667 44.8143 78.4716 44.6854 78.3154L58.8694 70.1318L58.8655 70.1357C58.9046 70.2842 58.9788 70.4209 59.0843 70.5341L66.8304 78.2803C67.0023 78.4599 67.2366 78.5576 67.4827 78.5576C67.7327 78.5576 67.9671 78.4599 68.139 78.2803C68.3187 78.1084 68.4202 77.8701 68.4202 77.6201C68.4202 77.374 68.3187 77.1357 68.139 76.9638L60.4274 69.218Z" fill="white"/>
</svg>
