<svg width="67" height="52" viewBox="0 0 67 52" fill="none" xmlns="http://www.w3.org/2000/svg">
<g clip-path="url(#clip0_29_35)">
<path d="M63.8193 0V3.78589C58.4624 5.74323 54.2645 8.83375 51.2255 13.0575C48.1864 17.2297 46.6669 21.5822 46.6669 26.1149C46.6669 27.0936 46.8215 27.8147 47.1305 28.2783C47.3365 28.5874 47.5683 28.7419 47.8259 28.7419C48.0834 28.7419 48.4697 28.5616 48.9848 28.201C50.6331 27.0163 52.7192 26.424 55.2431 26.424C58.1791 26.424 60.7803 27.6344 63.0467 30.0554C65.3131 32.4248 66.4463 35.2577 66.4463 38.5543C66.4463 42.0054 65.1328 45.0444 62.5059 47.6713C59.9304 50.2983 56.7884 51.6118 53.0798 51.6118C48.753 51.6118 45.0187 49.8347 41.8766 46.2806C38.7346 42.7265 37.1636 37.9619 37.1636 31.9869C37.1636 25.0333 39.3012 18.8007 43.5764 13.2893C47.8516 7.77782 54.5993 3.34807 63.8193 0ZM26.6558 0V3.78589C21.2989 5.74323 17.1009 8.83375 14.0619 13.0575C11.0229 17.2297 9.50336 21.5822 9.50336 26.1149C9.50336 27.0936 9.65789 27.8147 9.96694 28.2783C10.173 28.5874 10.4048 28.7419 10.6623 28.7419C10.9199 28.7419 11.3062 28.5616 11.8213 28.201C13.4695 27.0163 15.5556 26.424 18.0796 26.424C21.0156 26.424 23.6168 27.6344 25.8831 30.0554C28.1495 32.4248 29.2827 35.2577 29.2827 38.5543C29.2827 42.0054 27.9693 45.0444 25.3423 47.6713C22.7669 50.2983 19.6248 51.6118 15.9162 51.6118C11.5895 51.6118 7.85508 49.8347 4.71305 46.2806C1.57102 42.7265 0 37.9619 0 31.9869C0 25.0333 2.13761 18.8007 6.41284 13.2893C10.6881 7.77782 17.4357 3.34807 26.6558 0Z" fill="#012C6E" fill-opacity="0.1"/>
</g>
<defs>
<clipPath id="clip0_29_35">
<rect width="67" height="52" fill="white"/>
</clipPath>
</defs>
</svg>
