<svg width="48" height="48" viewBox="0 0 48 48" fill="none" xmlns="http://www.w3.org/2000/svg">
<g clip-path="url(#clip0_411_91)">
<path d="M44 0H4C1.79086 0 0 1.79086 0 4V44C0 46.2091 1.79086 48 4 48H44C46.2091 48 48 46.2091 48 44V4C48 1.79086 46.2091 0 44 0Z" fill="#F9FAFC"/>
<path d="M44 0.5H4C2.067 0.5 0.5 2.067 0.5 4V44C0.5 45.933 2.067 47.5 4 47.5H44C45.933 47.5 47.5 45.933 47.5 44V4C47.5 2.067 45.933 0.5 44 0.5Z" stroke="#9FABB9" stroke-opacity="0.2"/>
<g clip-path="url(#clip1_411_91)">
<path d="M23.5 20.7986C23.2301 20.8014 22.9615 20.7593 22.7053 20.674L12.9271 17.572V22.5073C12.9282 22.9811 13.0813 23.4419 13.3638 23.8212C13.6462 24.2004 14.0429 24.4777 14.4947 24.612L22.8584 27.1053C23.0612 27.1697 23.2727 27.2018 23.4854 27.2006C23.711 27.1999 23.9351 27.1627 24.149 27.0906L31.8199 24.6266C32.2626 24.4855 32.6491 24.206 32.9231 23.8288C33.1972 23.4517 33.3445 22.9965 33.3437 22.5293V17.8067L24.2948 20.6813C24.0373 20.7607 23.7693 20.8003 23.5 20.7986Z" fill="#001C51"/>
<path d="M10.1215 15.7195L22.9795 19.8037C23.3181 19.9126 23.682 19.9126 24.0206 19.8037L34.3684 16.5171L35.1042 19.4132C34.8539 19.5505 34.6439 19.7514 34.495 19.9959C34.3461 20.2404 34.2637 20.5199 34.2558 20.8065C34.248 21.093 34.3151 21.3767 34.4503 21.629C34.5856 21.8814 34.7844 22.0936 35.0267 22.2445L34.1945 27.2667H37.5974L36.7649 22.2445C37.0147 22.0887 37.2179 21.8679 37.3532 21.6055C37.4885 21.3432 37.5509 21.0489 37.5337 20.7538C37.5165 20.4588 37.4203 20.1739 37.2555 19.9292C37.0906 19.6845 36.863 19.4892 36.5969 19.3638L35.7613 16.0749L36.8778 15.7202C37.2274 15.6094 37.5328 15.3894 37.7496 15.0922C37.9663 14.7949 38.0833 14.4359 38.0834 14.0673C38.0834 13.6986 37.9667 13.3396 37.75 13.0422C37.5334 12.7449 37.2281 12.5248 36.8785 12.4138L24.0206 8.32962C23.6826 8.22004 23.3189 8.22004 22.9809 8.32962L10.1222 12.4131C9.77265 12.5239 9.46728 12.7439 9.25049 13.0411C9.0337 13.3384 8.91677 13.6974 8.91669 14.066C8.91661 14.4347 9.03337 14.7937 9.25004 15.0911C9.4667 15.3884 9.77198 15.6086 10.1215 15.7195Z" fill="#001C51"/>
<path d="M35.4414 29.9785C35.4008 29.6847 35.289 29.4054 35.1158 29.1652C34.9427 28.925 34.7135 28.7313 34.4484 28.6012C34.1757 28.4638 33.8732 28.3969 33.5684 28.4064C33.2635 28.416 32.9658 28.5018 32.7022 28.656L26.6413 33.1887C26.3252 33.3687 25.9681 33.4633 25.6047 33.4631H23.024C22.9325 33.4638 22.8418 33.4464 22.7571 33.4117C22.6724 33.377 22.5954 33.3258 22.5304 33.261C22.4655 33.1962 22.414 33.1191 22.3788 33.0342C22.3436 32.9493 22.3255 32.8582 22.3255 32.7662C22.3255 32.6742 22.3436 32.5832 22.3788 32.4982C22.414 32.4133 22.4655 32.3362 22.5304 32.2715C22.5954 32.2067 22.6724 32.1555 22.7571 32.1208C22.8418 32.0861 22.9325 32.0686 23.024 32.0693H24.9172C25.2399 32.0688 25.5494 31.9408 25.779 31.7129C26.0087 31.485 26.1402 31.1754 26.145 30.851V30.829C26.1434 30.5026 26.0133 30.1901 25.7832 29.9598C25.5532 29.7295 25.2418 29.6001 24.9172 29.6H17.0258V37.9025C17.0269 37.9926 17.0197 38.0827 17.0041 38.1714H26.2312C27.1832 38.1719 28.1013 37.8158 28.8064 37.1726L34.7264 31.751C34.9856 31.5411 35.1873 31.2681 35.3124 30.958C35.4375 30.6478 35.4819 30.3107 35.4414 29.9785Z" fill="#001C51"/>
<path d="M12.9244 28.0251H15.1167C15.26 28.0251 15.4019 28.0534 15.5343 28.1086C15.6667 28.1638 15.787 28.2446 15.8883 28.3465C15.9897 28.4484 16.07 28.5694 16.1249 28.7026C16.1797 28.8357 16.2079 28.9784 16.2079 29.1225V37.9021C16.2079 38.0463 16.1797 38.1891 16.1249 38.3223C16.07 38.4555 15.9896 38.5765 15.8882 38.6784C15.7869 38.7804 15.6665 38.8612 15.5341 38.9164C15.4016 38.9716 15.2597 39 15.1163 39H12.9242C12.6348 39 12.3572 38.8844 12.1526 38.6785C11.9479 38.4727 11.8329 38.1936 11.8329 37.9025V29.1227C11.8329 28.8316 11.9479 28.5524 12.1526 28.3466C12.3573 28.1407 12.6349 28.0251 12.9244 28.0251Z" fill="#001C51"/>
</g>
</g>
<defs>
<clipPath id="clip0_411_91">
<rect width="48" height="48" fill="white"/>
</clipPath>
<clipPath id="clip1_411_91">
<rect width="35" height="37" fill="white" transform="translate(6 6)"/>
</clipPath>
</defs>
</svg>
