<svg width="66" height="68" viewBox="0 0 66 68" fill="none" xmlns="http://www.w3.org/2000/svg">
<path d="M35.5697 28.22C36.3997 29 37.7097 28.97 38.4997 28.15L41.5997 24.89C40.2997 23.53 39.5097 21.71 39.5097 19.71C39.5097 15.57 42.8897 12.2 47.0297 12.2C48.8997 12.2 50.6197 12.89 51.9397 14.04L55.9397 9.84001C56.7297 9.02001 56.6997 7.71001 55.8697 6.92001L51.7497 2.98001C50.9197 2.20001 49.6097 2.23001 48.8197 3.05001L31.3797 21.36C30.5897 22.18 30.6197 23.49 31.4497 24.28L35.5697 28.22Z" fill="white"/>
<path d="M38.9798 40.25C38.9798 39.08 38.0298 38.12 36.8498 38.12H24.4298C23.2598 38.12 22.2998 39.07 22.2998 40.25C22.2998 41.42 23.2498 42.38 24.4298 42.38H36.8498C38.0298 42.37 38.9798 41.42 38.9798 40.25Z" fill="white"/>
<path d="M57.7599 60.92H33.7099C32.5799 60.92 31.6699 61.83 31.6699 62.96V65H59.7999V62.96C59.7899 61.83 58.8799 60.92 57.7599 60.92Z" fill="white"/>
<path d="M52.5498 19.71C52.5498 16.66 50.0798 14.19 47.0298 14.19C43.9798 14.19 41.5098 16.66 41.5098 19.71C41.5098 22.76 43.9798 25.23 47.0298 25.23C50.0798 25.23 52.5498 22.76 52.5498 19.71ZM45.1898 19.71C45.1898 18.69 46.0098 17.87 47.0298 17.87C48.0498 17.87 48.8698 18.69 48.8698 19.71C48.8698 20.73 48.0498 21.55 47.0298 21.55C46.0198 21.56 45.1898 20.73 45.1898 19.71Z" fill="white"/>
<path d="M22.9696 26.38C23.8496 24.81 24.3596 22.98 24.3596 21.04C24.3596 15.02 19.4796 10.15 13.4596 10.15C7.43957 10.15 2.55957 15.02 2.55957 21.04C2.55957 27.06 7.43957 31.94 13.4596 31.94C15.3496 31.94 17.1196 31.46 18.6696 30.62L25.0196 32.72L22.9696 26.38ZM6.43957 18.68C6.43957 18.54 6.46957 18.41 6.51957 18.29C6.56957 18.17 6.63957 18.06 6.72957 17.97C6.82957 17.87 6.92957 17.8 7.05957 17.75C7.29957 17.65 7.57957 17.65 7.81957 17.75C7.94957 17.8 8.04957 17.87 8.14957 17.97C8.23957 18.06 8.30957 18.17 8.35957 18.29C8.40957 18.41 8.43957 18.54 8.43957 18.68C8.43957 18.94 8.32957 19.2 8.14957 19.38C8.04957 19.47 7.93957 19.55 7.81957 19.6C7.69957 19.65 7.56957 19.67 7.43957 19.67C7.30957 19.67 7.17957 19.65 7.05957 19.6C6.92957 19.55 6.82957 19.47 6.72957 19.38C6.54957 19.2 6.43957 18.94 6.43957 18.68ZM11.3896 26.87C10.8696 27.39 10.1896 27.65 9.50957 27.65C8.82957 27.65 8.14957 27.39 7.62957 26.87C6.58957 25.83 6.58957 24.15 7.62957 23.11C8.01957 22.72 8.64957 22.72 9.03957 23.11C9.42957 23.5 9.42957 24.13 9.03957 24.52C8.77957 24.78 8.77957 25.2 9.03957 25.45C9.29957 25.71 9.71957 25.71 9.96957 25.45C10.3596 25.06 10.9896 25.06 11.3796 25.45C11.7796 25.84 11.7796 26.48 11.3896 26.87ZM13.2596 21.57C13.1296 21.57 12.9996 21.55 12.8796 21.5C12.7596 21.45 12.6496 21.38 12.5496 21.28C12.4596 21.19 12.3896 21.08 12.3396 20.96C12.2896 20.83 12.2596 20.71 12.2596 20.57C12.2596 20.44 12.2896 20.32 12.3396 20.19C12.3896 20.07 12.4596 19.96 12.5496 19.87C12.6496 19.77 12.7596 19.7 12.8796 19.65C13.1196 19.55 13.3996 19.55 13.6396 19.65C13.7596 19.7 13.8696 19.77 13.9696 19.87C14.0596 19.96 14.1296 20.07 14.1796 20.19C14.2296 20.32 14.2596 20.44 14.2596 20.57C14.2596 20.71 14.2296 20.83 14.1796 20.96C14.1296 21.08 14.0596 21.19 13.9696 21.28C13.8696 21.38 13.7596 21.45 13.6396 21.5C13.5196 21.55 13.3896 21.57 13.2596 21.57ZM15.6296 27.61C15.4396 27.79 15.1796 27.9 14.9196 27.9C14.7896 27.9 14.6596 27.87 14.5396 27.82C14.4096 27.77 14.3096 27.7 14.2096 27.61C14.0296 27.42 13.9196 27.16 13.9196 26.9C13.9196 26.77 13.9496 26.64 13.9996 26.52C14.0496 26.39 14.1196 26.29 14.2096 26.19C14.3096 26.1 14.4096 26.03 14.5396 25.98C14.8996 25.83 15.3496 25.92 15.6296 26.19C15.7196 26.29 15.7896 26.39 15.8396 26.52C15.8896 26.64 15.9196 26.77 15.9196 26.9C15.9196 27.16 15.8096 27.42 15.6296 27.61ZM14.9196 16.6C14.3696 16.6 13.9196 16.15 13.9196 15.6C13.9196 15.24 13.6196 14.94 13.2596 14.94C12.8996 14.94 12.5996 15.24 12.5996 15.6C12.5996 16.15 12.1496 16.6 11.5996 16.6C11.0496 16.6 10.5996 16.15 10.5996 15.6C10.5996 14.13 11.7896 12.94 13.2596 12.94C14.7296 12.94 15.9196 14.13 15.9196 15.6C15.9196 16.15 15.4796 16.6 14.9196 16.6ZM20.4396 22.21C19.9196 22.73 19.2396 22.99 18.5596 22.99C17.8796 22.99 17.1996 22.73 16.6796 22.21C16.2896 21.82 16.2896 21.19 16.6796 20.8C17.0696 20.41 17.6996 20.41 18.0896 20.8C18.3496 21.06 18.7696 21.06 19.0196 20.8C19.2796 20.54 19.2796 20.12 19.0196 19.87C18.6296 19.48 18.6296 18.85 19.0196 18.46C19.4096 18.07 20.0396 18.07 20.4296 18.46C21.4796 19.49 21.4796 21.18 20.4396 22.21Z" fill="white"/>
<path d="M33.7304 29.22L30.3204 25.96C29.6404 26.91 29.7404 28.24 30.6104 29.07C31.4804 29.9 32.8104 29.94 33.7304 29.22Z" fill="white"/>
<path d="M57.5203 4.46001C57.8903 4.07001 57.8703 3.47001 57.4903 3.10001L55.5703 1.27001C55.1803 0.900014 54.5703 0.910014 54.2003 1.30001L53.5703 1.96001L56.8803 5.13001L57.5203 4.46001Z" fill="white"/>
<path d="M37.3504 52.07C37.3804 52.01 37.4004 51.94 37.4404 51.89C38.0804 50.71 38.9804 49.7 40.0604 48.91C37.7004 47.95 35.6604 46.37 34.1404 44.38H29.4004C31.1804 47.69 33.9604 50.4 37.3504 52.07Z" fill="white"/>
<path d="M53.1297 24.1C56.9397 26.63 59.4496 30.95 59.4496 35.85C59.4496 41.76 55.7996 46.82 50.6396 48.92C51.6796 49.7 52.5797 50.71 53.2397 51.89C53.2697 51.95 53.2897 52.01 53.3297 52.07C59.3097 49.12 63.4296 42.97 63.4296 35.85C63.4296 29.22 59.8496 23.41 54.5196 20.27C54.4196 21.69 53.9197 23 53.1297 24.1Z" fill="white"/>
<path d="M39.1795 52.86C38.8795 53.4 38.6595 53.99 38.5095 54.62L37.5195 58.92H53.2195L52.2995 54.93C52.1295 54.2 51.8595 53.5 51.4995 52.86C50.7095 51.45 49.4995 50.32 48.0395 49.7C47.4795 49.46 46.8695 49.29 46.2395 49.21C44.9795 49.06 43.7595 49.24 42.6695 49.7C41.1895 50.32 39.9495 51.44 39.1795 52.86ZM45.1895 52.51C46.2895 52.51 47.1895 53.41 47.1895 54.51C47.1895 55.61 46.2895 56.51 45.1895 56.51C44.0895 56.51 43.1895 55.61 43.1895 54.51C43.1895 53.41 44.0895 52.51 45.1895 52.51Z" fill="white"/>
</svg>
