<svg width="62" height="61" viewBox="0 0 62 61" fill="none" xmlns="http://www.w3.org/2000/svg">
<path d="M14 0C14.552 0 15 0.448 15 1V11C15 11.552 14.552 12 14 12C13.448 12 13 11.552 13 11V1C13 0.448 13.448 0 14 0ZM48 0C48.553 0 49 0.448 49 1V11C49 11.552 48.553 12 48 12C47.447 12 47 11.552 47 11V1C47 0.448 47.447 0 48 0ZM60 7H51H50V11C50 12.104 49.105 13 48 13C46.895 13 46 12.104 46 11V7H45H17H16V11C16 12.104 15.104 13 14 13C12.896 13 12 12.104 12 11V7H11H2C0.985 7 0.131 7.759 0.0130005 8.767L0 9V16H62V9C62 7.896 61.104 7 60 7ZM53 44H45V52H53V44ZM17 44H9V52H17V44ZM53 26H45V34H53V26ZM35 44H27V52H35V44ZM35 26H27V34H35V26ZM0 59C0 60.015 0.759 60.869 1.767 60.986L2 61H60C61.015 61 61.869 60.24 61.986 59.232L62 59V18H0V59ZM43 26C43 24.896 43.896 24 45 24H53C54.104 24 55 24.896 55 26V34C55 35.104 54.104 36 53 36H45C43.896 36 43 35.104 43 34V26ZM43 44C43 42.896 43.896 42 45 42H53C54.104 42 55 42.896 55 44V52C55 53.104 54.104 54 53 54H45C43.896 54 43 53.104 43 52V44ZM25 26C25 24.896 25.896 24 27 24H35C36.104 24 37 24.896 37 26V34C37 35.104 36.104 36 35 36H27C25.896 36 25 35.104 25 34V26ZM25 44C25 42.896 25.896 42 27 42H35C36.104 42 37 42.896 37 44V52C37 53.104 36.104 54 35 54H27C25.896 54 25 53.104 25 52V44ZM7 26C7 24.896 7.896 24 9 24H17C18.104 24 19 24.896 19 26V34C19 35.104 18.104 36 17 36H9C7.896 36 7 35.104 7 34V26ZM7 44C7 42.896 7.896 42 9 42H17C18.104 42 19 42.896 19 44V52C19 53.104 18.104 54 17 54H9C7.896 54 7 53.104 7 52V44Z" fill="white"/>
</svg>
