<svg width="100" height="100" viewBox="0 0 100 100" fill="none" xmlns="http://www.w3.org/2000/svg">
<path d="M93.1852 65.191H56.7592L64.1147 37.847L94.5487 45.972C95.5448 46.2455 96.6307 45.6478 96.9003 44.6126C102.236 26.2806 90.287 5.74562 71.7523 1.21062C52.8113 -3.84408 33.2753 7.39422 28.1973 26.2656C27.9083 27.2578 28.5528 28.375 29.5567 28.625L60.3967 36.8555L52.7756 65.1915H25.1386L12.4356 34.9295C11.4239 32.5233 9.08792 30.9686 6.47862 30.9686C2.07242 30.8436 -1.25578 35.7186 0.459116 39.7772L12.5531 70.8042C14.4554 75.6792 19.0609 78.8315 24.2911 78.8315H28.9473L24.92 90.7845C23.6778 94.1595 26.5138 98.0189 30.1036 97.8548C32.4044 97.8548 34.4474 96.39 35.1817 94.2064L40.3614 78.8314H72.8144L78.0683 96.1864C78.7558 98.4637 80.8183 99.9911 83.1972 99.9911C86.7519 100.202 89.6347 96.4599 88.5019 93.0809L84.1894 78.8309H93.1816C96.9394 78.8309 99.998 75.7723 99.998 72.0106C100.002 68.2489 96.943 65.191 93.1852 65.191ZM79.2872 8.58902C90.3142 15.2062 96.4282 29.151 93.6312 41.745L78.6002 37.7333C79.815 32.5067 82.7403 17.711 79.2872 8.58902ZM32.4712 25.421C36.7329 12.706 48.5302 4.30002 61.5022 3.86602C58.2483 6.60042 55.8538 10.034 53.1819 15.175C50.3186 20.7922 48.385 26.566 47.5061 29.433L32.4712 25.421ZM56.6272 16.8741C59.8538 10.5616 64.9241 3.36612 70.7602 4.92512C81.3932 9.13212 75.9086 30.5381 74.8735 36.7371L51.2215 30.4246C52.0887 27.6316 53.9554 22.1087 56.6272 16.8741Z" fill="white"/>
</svg>
