<svg width="50" height="50" viewBox="0 0 50 50" fill="none" xmlns="http://www.w3.org/2000/svg">
<path fill-rule="evenodd" clip-rule="evenodd" d="M48.1702 11.7615L26.5873 0.397905C26.0998 0.136937 25.5543 0 25.0001 0C24.4458 0 23.9004 0.136937 23.4129 0.397905L1.82993 11.7615C1.15296 12.117 0.615141 12.6857 0.3016 13.3778C-0.011942 14.07 -0.0834882 14.8461 0.0985542 15.5828C0.280597 16.3198 0.705944 16.9754 1.30677 17.4461C1.90782 17.9169 2.65021 18.1757 3.41645 18.1818H46.5824C47.3488 18.1761 48.0915 17.9173 48.6925 17.4466C49.2938 16.9761 49.7189 16.3202 49.9012 15.5835C50.0834 14.8465 50.0123 14.0704 49.6988 13.3781C49.385 12.6859 48.8472 12.1172 48.1702 11.7615ZM3.41426 14.7728L24.9972 3.40921L46.5802 14.7728H3.41426ZM46.5802 46.5908H3.41426C2.95741 46.5908 2.51937 46.7706 2.19642 47.0902C1.87368 47.41 1.69208 47.8434 1.69208 48.2955C1.69208 48.7474 1.87368 49.181 2.19642 49.5006C2.51937 49.8202 2.95741 50 3.41426 50H46.5802C47.0368 50.0002 47.4751 49.8209 47.798 49.5015C48.1212 49.1819 48.303 48.7485 48.3032 48.2966C48.3037 47.8444 48.1225 47.4107 47.7998 47.0909C47.4771 46.7708 47.037 46.5912 46.5802 46.5908ZM46.5802 23.8636C47.0368 23.8636 47.4749 23.684 47.7978 23.3642C48.1208 23.0446 48.3022 22.6113 48.3022 22.1591C48.3022 21.7069 48.1208 21.2736 47.7978 20.954C47.4749 20.6342 47.0368 20.4546 46.5802 20.4546H3.41426C2.95741 20.4546 2.51937 20.6342 2.19642 20.954C1.87368 21.2736 1.69208 21.7069 1.69208 22.1591C1.69208 22.6113 1.87368 23.0446 2.19642 23.3642C2.51937 23.684 2.95741 23.8636 3.41426 23.8636H5.58389V40.909H3.41426C2.95741 40.909 2.51937 41.0888 2.19642 41.4084C1.87368 41.728 1.69208 42.1616 1.69208 42.6137C1.69208 43.0656 1.87368 43.4992 2.19642 43.8188C2.51937 44.1384 2.95741 44.3182 3.41426 44.3182H46.5802C47.0368 44.3182 47.4749 44.1384 47.7978 43.8188C48.1208 43.4992 48.3022 43.0656 48.3022 42.6137C48.3022 42.1616 48.1208 41.728 47.7978 41.4084C47.4749 41.0888 47.0368 40.909 46.5802 40.909H43.4553V23.8636H46.5802ZM20.4521 23.8636H22.7849V40.909H20.4543L20.4521 23.8636ZM17.0447 40.909H14.7486V23.8636H17.0447V40.909ZM26.2291 23.8636H28.5044V40.909H26.2291V23.8636ZM31.9691 23.8636H34.2652V40.909H31.9691V23.8636ZM9.00857 23.8636H11.3149V40.909H9.00857V23.8636ZM40.0054 40.909H37.7093V23.8636H40.0054V40.909Z" fill="white"/>
</svg>
