<svg width="48" height="48" viewBox="0 0 48 48" fill="none" xmlns="http://www.w3.org/2000/svg">
<g clip-path="url(#clip0_419_149)">
<path d="M44 0H4C1.79086 0 0 1.79086 0 4V44C0 46.2091 1.79086 48 4 48H44C46.2091 48 48 46.2091 48 44V4C48 1.79086 46.2091 0 44 0Z" fill="#F9FAFC"/>
<path d="M44 0.5H4C2.067 0.5 0.5 2.067 0.5 4V44C0.5 45.933 2.067 47.5 4 47.5H44C45.933 47.5 47.5 45.933 47.5 44V4C47.5 2.067 45.933 0.5 44 0.5Z" stroke="#9FABB9" stroke-opacity="0.2"/>
<path d="M14.4603 14C13.4393 14.0013 12.5569 14.7434 12.339 15.7841H33.5394C34.6151 15.7846 35.6133 16.3685 36.175 17.3255H38.9997V16.2648C38.9985 15.0147 38.027 14.0013 36.8287 14H14.4603ZM11.1711 16.7449C9.97274 16.7462 9.00127 17.7596 9 19.0097V20.071H35.7102V19.0097C35.7089 17.7596 34.7375 16.7461 33.5391 16.7449H11.1711ZM36.5519 18.2863C36.6046 18.5236 36.6313 18.7663 36.6315 19.0097V20.2819H38.9998V18.2863H36.5519ZM9.00022 21.0317V23.0273H35.7104V21.0317H9.00022ZM36.6318 21.2425V32.2551H36.8289C38.0273 32.2538 38.9987 31.2404 39 29.9903V21.2427L36.6318 21.2425ZM9.00022 23.9878V32.7351C9.00151 33.9853 9.97296 34.9987 11.1713 35H33.5394C34.7378 34.9987 35.7092 33.9853 35.7105 32.7352V23.988L9.00022 23.9878ZM28.0358 26.7226C28.5005 26.7244 28.9698 26.8382 29.4052 27.0729C29.8323 26.8424 30.3059 26.7222 30.7865 26.7226C32.0352 26.7223 33.1546 27.526 33.6 28.7428C34.0453 29.9596 33.7244 31.3372 32.7934 32.2052C31.8625 33.0733 30.5146 33.252 29.4052 32.6542C28.1385 33.337 26.5862 32.9989 25.6868 31.8445C24.7874 30.6905 24.7874 29.0366 25.6868 27.8826C26.2771 27.1251 27.1484 26.7193 28.0358 26.7226ZM28.0233 27.6834C26.8692 27.6834 25.9337 28.6593 25.9337 29.8633C25.935 31.0669 26.8697 32.0425 28.0233 32.0437C29.1774 32.0437 30.1129 31.0679 30.1129 29.8639C30.1129 28.6599 29.1774 27.6834 28.0233 27.6834ZM30.8474 27.6847C30.6509 27.6788 30.452 27.7017 30.256 27.7554C31.2942 28.9519 31.2942 30.7746 30.256 31.9712C30.4292 32.0189 30.6073 32.0436 30.7865 32.0439C31.5975 32.0441 32.3348 31.5547 32.6789 30.7885C33.0228 30.0226 32.9107 29.1184 32.3916 28.4686C32.0023 27.9812 31.4368 27.7026 30.8474 27.6847Z" fill="#001C51"/>
</g>
<defs>
<clipPath id="clip0_419_149">
<rect width="48" height="48" fill="white"/>
</clipPath>
</defs>
</svg>
