<svg width="176" height="134" viewBox="0 0 176 134" fill="none" xmlns="http://www.w3.org/2000/svg">
<path d="M83.3 126C83.3 127.8 81.9 129.3 80.2 129.4L23.9 118.6H23.5C21.6 118.6 20 117 20 115.1V18.7V3.49998C20 1.69998 21.4 0.199976 23.1 0.0999756L79.4 10.9H79.8C81.7 10.9 83.3 12.5 83.3 14.4V18.8V126Z" fill="#292929"/>
<path d="M155.2 115.2C155.2 117.1 153.7 118.7 151.7 118.7H151.3L95.0004 129.5C93.2004 129.3 91.9004 127.9 91.9004 126.1V18.7V14.3C91.9004 12.4 93.4004 10.8 95.4004 10.8H95.8004L120.3 6.1C120.3 10.3 120.3 14.5 120.3 18.7C120.3 26.8 120.3 34.8 120.3 42.9C120.3 44 121.8 44.7 122.6 43.9C125.8 40.5 129 37.1 132.2 33.7C135.4 37.1 138.5 40.4 141.6 43.7C141.6 43.8 141.7 43.8 141.7 43.9C142.1 44.3 142.7 44.3 143.1 44.1C143.6 43.9 144 43.5 144 42.9C144 34.8 144 26.8 144 18.7C144 13 144 7.3 144 1.5L152 0C153.8 0.2 155.1 1.7 155.1 3.4V18.6V115.2H155.2Z" fill="#292929"/>
<path d="M175.2 26.5V125.8C175.2 130.1 171.7 133.6 167.4 133.6H119.6L152.2 127.4C158.7 127.2 163.9 121.8 163.9 115.3V18.7H167.4C171.7 18.7 175.2 22.2 175.2 26.5Z" fill="#292929"/>
<path d="M55.5 133.6H7.8C3.5 133.6 0 130.1 0 125.8V26.5C0 22.2 3.5 18.7 7.8 18.7H11.3V115.2C11.3 121.7 16.5 127.1 22.9 127.3L55.5 133.6Z" fill="#292929"/>
</svg>
