<svg width="1000" height="100" viewBox="0 0 1000 100" fill="none" xmlns="http://www.w3.org/2000/svg">
<g clip-path="url(#clip0_1_5)">
<path d="M999.88 0.119141H90.7899L0.878906 99.1291V99.1111H999.88V0.119141Z" fill="#012C6E"/>
<mask id="mask0_1_5" style="mask-type:luminance" maskUnits="userSpaceOnUse" x="0" y="0" width="1000" height="100">
<path d="M999.88 0.119141H90.7899L0.878906 99.1291V99.1111H999.88V0.119141Z" fill="white"/>
</mask>
<g mask="url(#mask0_1_5)">
<path fill-rule="evenodd" clip-rule="evenodd" d="M98.5518 -10.8717L111.067 1.64436L135.953 1.80636L123.573 -10.5737L98.5518 -10.8717ZM153.16 43.7373L165.675 56.2523L190.561 56.4143L178.181 44.0353L153.16 43.7373ZM180.356 16.5403L192.872 29.0563L193.034 53.9413L180.654 41.5623L180.356 16.5403ZM166.07 41.2483L177.833 41.1213L177.959 29.3593L166.197 29.4853L166.07 41.2483ZM125.156 15.7323L137.67 28.2483L162.556 28.4103L150.176 16.0303L125.156 15.7323ZM179.764 70.3403L192.28 82.8573L217.165 83.0193L204.785 70.6403L179.764 70.3423V70.3403ZM207.068 97.6453L219.584 110.16L244.469 110.322L232.089 97.9433L207.068 97.6453ZM152.352 -11.4637L164.867 1.05236L165.029 25.9373L152.65 13.5583L152.352 -11.4637ZM206.96 43.1453L219.476 55.6603L219.638 80.5453L207.258 68.1663L206.96 43.1453ZM234.264 70.4493L246.78 82.9643L246.942 107.85L234.562 95.4703L234.264 70.4493ZM138.61 13.7883L150.373 13.6613L150.5 1.90036L138.737 2.02736L138.611 13.7893L138.61 13.7883ZM193.277 68.4553L205.04 68.3283L205.166 56.5663L193.404 56.6933L193.277 68.4553ZM220.458 95.6353L232.22 95.5093L232.347 83.7463L220.585 83.8733L220.458 95.6353ZM262.268 98.4533L274.784 110.968L274.946 135.854L262.566 123.474L262.268 98.4533ZM318.895 95.0353L331.41 107.55L356.296 107.712L343.916 95.3333L318.895 95.0353ZM210.378 -13.4817L222.894 -0.965637L247.779 -0.803638L235.4 -13.1837L210.378 -13.4817ZM345.384 68.5453L357.9 81.0603L358.062 105.946L345.682 93.5663L345.384 68.5453ZM331.793 93.6873L343.555 93.5603L343.682 81.7983L331.92 81.9253L331.793 93.6873ZM236.982 13.1223L249.498 25.6383L274.383 25.8003L262.004 13.4203L236.982 13.1223ZM264.287 40.4263L276.802 52.9423L301.687 53.1043L289.308 40.7243L264.287 40.4263ZM372.689 95.8503L385.204 108.365L385.366 133.25L372.987 120.87L372.689 95.8503ZM263.472 -13.3667L275.988 -0.851639L276.15 24.0333L263.77 11.6543L263.472 -13.3667ZM290.776 13.9373L303.292 26.4523L303.454 51.3373L291.074 38.9583L290.776 13.9373ZM249.92 11.8133L261.681 11.6863L261.808 -0.0756378L250.046 0.0513611L249.92 11.8133ZM277.1 38.9943L288.862 38.8673L288.989 27.1053L277.227 27.2313L277.1 38.9943ZM292.29 68.4303L304.806 80.9463L329.692 81.1083L317.312 68.7293L292.291 68.4313L292.29 68.4303ZM318.78 41.9413L331.296 54.4563L331.458 79.3423L319.078 66.9623L318.78 41.9413ZM304.586 66.4803L316.348 66.3533L316.475 54.5913L304.713 54.7183L304.586 66.4803ZM403.663 10.2673L416.178 22.7823L441.064 22.9443L428.684 10.5653L403.663 10.2673ZM485.575 92.1793L498.091 104.694L522.976 104.856L510.596 92.4773L485.575 92.1793ZM430.153 -16.2227L442.668 -3.70764L442.83 21.1783L430.45 8.79836L430.153 -16.2227ZM512.065 65.6903L524.58 78.2043L524.742 103.089L512.363 90.7103L512.065 65.6883V65.6903ZM416.756 8.72536L428.518 8.59836L428.645 -3.16364L416.882 -3.03764L416.756 8.72536ZM498.63 90.5983L510.392 90.4723L510.519 78.7093L498.756 78.8363L498.63 90.5983ZM430.967 37.5703L443.482 50.0863L468.368 50.2483L455.988 37.8693L430.967 37.5713V37.5703ZM457.457 11.0813L469.972 23.5973L470.134 48.4823L457.755 36.1023L457.457 11.0813ZM539.369 92.9933L551.885 105.509L552.046 130.394L539.667 118.015L539.369 92.9933ZM443.963 35.9323L455.725 35.8053L455.852 24.0433L444.09 24.1693L443.963 35.9323ZM377.059 -16.3367L389.574 -3.82164L414.46 -3.65964L402.08 -16.0397L377.059 -16.3367ZM458.271 64.8753L470.787 77.3903L495.672 77.5523L483.292 65.1733L458.271 64.8753ZM484.76 38.3853L497.276 50.9013L497.438 75.7863L485.059 63.4063L484.761 38.3863L484.76 38.3853ZM471.422 63.3913L483.185 63.2653L483.311 51.5023L471.549 51.6293L471.422 63.3913ZM182.122 14.7743L194.638 27.2903L219.523 27.4523L207.144 15.0723L182.122 14.7743ZM317.128 96.8013L329.644 109.316L329.806 134.202L317.426 121.822L317.128 96.8013ZM208.612 -11.7147L221.128 0.800362L221.29 25.6853L208.91 13.3063L208.612 -11.7147ZM194.391 12.9273L206.153 12.8003L206.28 1.03836L194.518 1.16536L194.391 12.9273ZM154.118 -13.2297L166.634 -0.713638L191.519 -0.552639L179.139 -12.9317L154.119 -13.2297H154.118ZM208.726 41.3783L221.242 53.8943L246.127 54.0563L233.748 41.6763L208.726 41.3783ZM236.03 68.6823L248.546 81.1983L273.431 81.3603L261.052 68.9803L236.03 68.6823ZM235.216 14.8893L247.732 27.4043L247.894 52.2893L235.514 39.9103L235.216 14.8893ZM262.52 42.1933L275.036 54.7083L275.198 79.5933L262.818 67.2143L262.52 42.1933ZM221.598 40.1343L233.361 40.0073L233.487 28.2453L221.725 28.3723L221.598 40.1343ZM248.779 67.3153L260.541 67.1883L260.668 55.4263L248.906 55.5523L248.779 67.3153ZM264.035 96.6873L276.55 109.202L301.436 109.364L289.056 96.9853L264.035 96.6873ZM290.524 70.1973L303.04 82.7123L303.202 107.598L290.822 95.2183L290.524 70.1973ZM276.265 94.8003L288.027 94.6743L288.154 82.9123L276.392 83.0393L276.265 94.8003ZM375.407 38.5233L387.922 51.0383L412.808 51.2003L400.428 38.8213L375.407 38.5233ZM401.897 12.0333L414.412 24.5483L414.574 49.4343L402.194 37.0543L401.897 12.0333ZM483.809 93.9453L496.324 106.461L496.486 131.346L484.107 118.967L483.809 93.9453ZM388.435 37.0453L400.197 36.9193L400.324 25.1563L388.562 25.2833L388.435 37.0453ZM402.711 65.8273L415.226 78.3423L440.112 78.5043L427.732 66.1253L402.711 65.8273ZM320.799 -16.0857L333.314 -3.56964L358.199 -3.40764L345.82 -15.7877L320.799 -16.0857ZM429.2 39.3373L441.716 51.8533L441.878 76.7383L429.499 64.3583L429.201 39.3383L429.2 39.3373ZM415.642 64.2523L427.404 64.1263L427.531 52.3633L415.769 52.4903L415.642 64.2523ZM348.803 11.9193L361.318 24.4343L386.204 24.5963L373.824 12.2173L348.803 11.9193ZM430.015 93.1303L442.531 105.646L467.416 105.808L455.036 93.4293L430.016 93.1313L430.015 93.1303ZM375.293 -14.5707L387.808 -2.05564L387.97 22.8303L375.59 10.4503L375.293 -14.5707ZM456.505 66.6413L469.02 79.1573L469.182 104.042L456.803 91.6623L456.505 66.6423V66.6413ZM361.228 9.83836L372.99 9.71136L373.117 -2.05064L361.354 -1.92364L361.228 9.83836ZM443.102 91.7123L454.864 91.5853L454.991 79.8233L443.228 79.9503L443.102 91.7123ZM347.15 66.7793L359.666 79.2943L384.552 79.4563L372.172 67.0773L347.15 66.7793ZM373.64 40.2893L386.156 52.8043L386.318 77.6903L373.938 65.3103L373.64 40.2893ZM360.114 65.3663L371.876 65.2393L372.003 53.4773L360.241 53.6043L360.114 65.3663ZM374.455 94.0833L386.97 106.598L411.856 106.76L399.476 94.3813L374.455 94.0833ZM265.238 -15.1337L277.754 -2.61764L302.639 -2.45564L290.26 -14.8357L265.238 -15.1337ZM292.543 12.1703L305.058 24.6863L329.943 24.8483L317.564 12.4683L292.543 12.1703ZM400.945 67.5933L413.46 80.1103L413.622 104.995L401.243 92.6153L400.945 67.5953V67.5933ZM319.032 -14.3197L331.548 -1.80264L331.71 23.0823L319.33 10.7033L319.032 -14.3177V-14.3197ZM387.321 92.5733L399.083 92.4463L399.21 80.6843L387.448 80.8113L387.321 92.5733ZM305.42 10.6733L317.183 10.5463L317.31 -1.21564L305.547 -1.08864L305.42 10.6733ZM320.547 40.1753L333.062 52.6903L357.948 52.8523L345.568 40.4733L320.547 40.1753ZM347.036 13.6853L359.552 26.2003L359.714 51.0863L347.334 38.7063L347.036 13.6853ZM428.249 94.8973L440.764 107.413L440.926 132.298L428.547 119.918L428.249 94.8973ZM332.907 38.1603L344.669 38.0323L344.796 26.2703L333.034 26.3973L332.907 38.1603ZM431.919 -17.9897L444.434 -5.47264L469.32 -5.31064L456.94 -17.6897L431.919 -17.9877V-17.9897ZM513.831 63.9233L526.347 76.4383L551.232 76.6003L538.852 64.2213L513.831 63.9233ZM540.32 37.4333L552.837 49.9503L552.999 74.8353L540.62 62.4563L540.322 37.4343L540.32 37.4333ZM594.93 92.0423L607.445 104.557L607.607 129.442L595.227 117.063L594.93 92.0423ZM526.95 62.2783L538.713 62.1513L538.839 50.3893L527.077 50.5153L526.95 62.2783ZM459.223 9.31536L471.738 21.8303L496.624 21.9923L484.244 9.61336L459.223 9.31536ZM541.135 91.2273L553.651 103.743L578.536 103.905L566.157 91.5253L541.135 91.2273ZM485.713 -17.1747L498.228 -4.65864L498.39 20.2263L486.011 7.84636L485.713 -17.1747ZM567.625 64.7373L580.141 77.2533L580.302 102.138L567.923 89.7593L567.625 64.7373ZM472.284 7.61036L484.046 7.48436L484.173 -4.27764L472.41 -4.15064L472.284 7.61036ZM554.157 89.4853L565.92 89.3583L566.046 77.5963L554.284 77.7233L554.157 89.4853ZM486.527 36.6193L499.043 49.1343L523.928 49.2963L511.548 36.9173L486.528 36.6193H486.527ZM513.017 10.1303L525.532 22.6453L525.694 47.5303L513.315 35.1503L513.017 10.1303ZM499.743 35.0703L511.506 34.9443L511.632 23.1823L499.87 23.3083L499.743 35.0713V35.0703ZM542.087 35.6673L554.603 48.1823L579.488 48.3443L567.109 35.9653L542.087 35.6673ZM596.696 90.2753L609.211 102.791L634.096 102.953L621.717 90.5733L596.696 90.2753ZM568.577 9.17736L581.092 21.6933L581.254 46.5783L568.875 34.1993L568.577 9.17736ZM623.185 63.7863L635.701 76.3003L635.863 101.185L623.483 88.8063L623.185 63.7863ZM555.271 33.9573L567.033 33.8303L567.16 22.0683L555.398 22.1953L555.271 33.9573ZM609.938 88.6243L621.7 88.4973L621.827 76.7353L610.065 76.8613L609.938 88.6243ZM487.479 -18.9407L499.995 -6.42564L524.88 -6.26364L512.5 -18.6427L487.479 -18.9407ZM569.391 62.9713L581.907 75.4873L606.792 75.6483L594.413 63.2693L569.391 62.9713ZM595.881 36.4813L608.397 48.9973L608.559 73.8823L596.179 61.5033L595.881 36.4813ZM650.49 91.0903L663.005 103.605L663.167 128.49L650.787 116.111L650.49 91.0903ZM582.478 61.1643L594.241 61.0373L594.367 49.2753L582.605 49.4023L582.478 61.1643ZM514.783 8.36336L527.3 20.8783L552.185 21.0403L539.805 8.66136L514.785 8.36336H514.783ZM541.273 -18.1267L553.788 -5.60964L553.95 19.2753L541.571 6.89536L541.273 -18.1247V-18.1267ZM528.064 6.75036L539.826 6.62336L539.953 -5.13864L528.191 -5.01164L528.064 6.75036ZM598.6 -20.8447L611.114 -8.32964L636 -8.16764L623.621 -20.5467L598.6 -20.8447ZM653.208 33.7633L665.723 46.2803L690.608 46.4423L678.229 34.0623L653.208 33.7633ZM679.697 7.27336L692.213 19.7903L692.375 44.6753L679.995 32.2963L679.697 7.27336ZM666.58 31.9823L678.342 31.8553L678.469 20.0933L666.707 20.2203L666.58 31.9823ZM625.903 6.45936L638.42 18.9753L663.305 19.1363L650.926 6.75736L625.903 6.45936ZM680.512 61.0673L693.027 73.5833L717.912 73.7453L705.533 61.3653L680.512 61.0673ZM707.816 88.3713L720.331 100.887L745.217 101.049L732.837 88.6693L707.816 88.3713ZM652.393 -20.0297L664.91 -7.51564L665.072 17.3693L652.692 4.99036L652.394 -20.0317L652.393 -20.0297ZM707.001 34.5783L719.517 47.0933L719.679 71.9783L707.299 59.5993L707.001 34.5783ZM734.305 61.8823L746.821 74.3973L746.983 99.2823L734.603 86.9033L734.305 61.8823ZM639.12 4.52236L650.882 4.39536L651.009 -7.36664L639.247 -7.23964L639.12 4.52236ZM693.787 59.1903L705.549 59.0623L705.676 47.3003L693.914 47.4273L693.787 59.1903ZM720.967 86.3703L732.73 86.2433L732.856 74.4813L721.094 74.6073L720.967 86.3703ZM42.0397 45.6403L54.5547 58.1563L79.4398 58.3183L67.0607 45.9383L42.0397 45.6403ZM96.6478 100.249L109.163 112.764L134.049 112.926L121.669 100.547L96.6478 100.249ZM68.5298 19.1503L81.0447 31.6663L81.2067 56.5523L68.8268 44.1723L68.5287 19.1513L68.5298 19.1503ZM123.138 73.7603L135.653 86.2753L135.815 111.16L123.436 98.7803L123.138 73.7603ZM54.7618 43.2223L66.5237 43.0963L66.6508 31.3343L54.8887 31.4603L54.7618 43.2223ZM109.429 97.8903L121.191 97.7633L121.318 86.0003L109.556 86.1273L109.429 97.8903ZM-13.2692 -9.66764L-0.753205 2.84836L24.1318 3.01036L11.7527 -9.36964L-13.2692 -9.66764ZM68.6437 72.2443L81.1588 84.7603L106.045 84.9223L93.6647 72.5423L68.6437 72.2443ZM765.986 -24.4067L778.502 -11.8917L803.387 -11.7297L791.007 -24.1087L765.986 -24.4067ZM793.29 2.89736L805.806 15.4123L830.691 15.5743L818.311 3.19536L793.291 2.89736H793.29ZM13.2208 -36.1577L25.7368 -23.6417L25.8978 1.24336L13.5187 -11.1357L13.2208 -36.1577ZM95.1328 45.7553L107.65 58.2703L107.812 83.1563L95.4318 70.7763L95.1328 45.7553ZM149.742 100.363L162.257 112.879L162.419 137.764L150.04 125.384L149.742 100.363ZM819.78 -23.5927L832.295 -11.0767L832.457 13.8083L820.078 1.42936L819.78 -23.5927ZM81.9688 70.4303L93.7308 70.3033L93.8577 58.5413L82.0958 58.6673L81.9688 70.4303ZM805.93 1.40736L817.692 1.28036L817.819 -10.4817L806.057 -10.3547L805.93 1.40736ZM14.7358 18.3363L27.2498 30.8523L52.1348 31.0143L39.7557 18.6343L14.7347 18.3363H14.7358ZM41.2247 -8.15264L53.7408 4.36236L53.9028 29.2473L41.5228 16.8683L41.2247 -8.15264ZM27.5547 16.0153L39.3168 15.8893L39.4437 4.12636L27.6818 4.25336L27.5547 16.0153ZM570.343 7.41036L582.86 19.9273L607.745 20.0893L595.365 7.71036L570.343 7.41236V7.41036ZM624.952 62.0203L637.467 74.5353L662.352 74.6973L649.973 62.3173L624.952 62.0203ZM596.833 -19.0787L609.348 -6.56264L609.51 18.3223L597.131 5.94236L596.833 -19.0787ZM651.441 35.5303L663.957 48.0453L664.119 72.9303L651.739 60.5513L651.441 35.5303ZM583.592 5.63636L595.354 5.50936L595.481 -6.25264L583.719 -6.12564L583.592 5.63636ZM638.259 60.3033L650.021 60.1763L650.148 48.4143L638.386 48.5413L638.259 60.3033ZM597.647 34.7153L610.163 47.2313L635.048 47.3923L622.669 35.0133L597.647 34.7153ZM652.256 89.3233L664.77 101.84L689.655 102.002L677.276 89.6223L652.255 89.3243L652.256 89.3233ZM624.137 8.22536L636.653 20.7413L636.815 45.6263L624.435 33.2473L624.137 8.22536ZM678.745 62.8343L691.261 75.3493L691.423 100.234L679.043 87.8553L678.745 62.8343ZM706.05 90.1383L718.565 102.653L718.727 127.538L706.347 115.159L706.05 90.1383ZM610.8 32.8433L622.561 32.7163L622.688 20.9543L610.926 21.0813L610.8 32.8433ZM665.466 87.5103L677.228 87.3833L677.355 75.6213L665.593 75.7483L665.466 87.5103ZM543.04 -19.8927L555.554 -7.37764L580.439 -7.21564L568.059 -19.5947L543.04 -19.8927ZM13.7838 73.8963L26.2988 86.4123L51.1838 86.5743L38.8047 74.1943L13.7838 73.8963ZM709.72 -22.7487L722.235 -10.2327L747.12 -10.0707L734.741 -22.4507L709.72 -22.7487ZM40.2728 47.4073L52.7897 59.9223L52.9518 84.8083L40.5718 72.4283L40.2728 47.4073ZM26.4407 71.5433L38.2028 71.4173L38.3298 59.6543L26.5677 59.7813L26.4407 71.5433ZM40.3878 100.5L52.9028 113.016L77.7878 113.178L65.4088 100.798L40.3878 100.5ZM737.024 4.55536L749.539 17.0713L774.424 17.2333L762.045 4.85336L737.024 4.55536ZM764.328 31.8603L776.843 44.3753L801.729 44.5373L789.349 32.1573L764.328 31.8603ZM-15.0352 -7.90164L-2.5192 4.61436L-2.35819 29.4993L-14.7372 17.1203L-15.0352 -7.90164ZM66.8768 74.0103L79.3928 86.5263L79.5547 111.412L67.1747 99.0323L66.8768 74.0103ZM764.22 -22.6397L776.735 -10.1247L776.897 14.7603L764.518 2.38036L764.22 -22.6397ZM791.524 4.66336L804.039 17.1803L804.201 42.0653L791.822 29.6863L791.524 4.66336ZM53.6478 98.7503L65.4097 98.6243L65.5367 86.8613L53.7748 86.9883L53.6478 98.7503ZM750.429 2.54736L762.191 2.42136L762.318 -9.34164L750.555 -9.21464L750.429 2.54736ZM777.61 29.7283L789.371 29.6013L789.498 17.8393L777.736 17.9663L777.61 29.7283ZM-13.5203 46.5923L-1.00522 59.1083L23.8798 59.2703L11.5007 46.8903L-13.5203 46.5923ZM12.9697 20.1033L25.4847 32.6183L25.6467 57.5033L13.2668 45.1243L12.9697 20.1033ZM-0.766206 44.3363L10.9957 44.2093L11.1227 32.4473L-0.639192 32.5743L-0.766206 44.3363ZM-14.4722 102.152L-1.95718 114.668L22.9277 114.83L10.5488 102.45L-14.4722 102.152ZM681.464 5.50736L693.979 18.0233L718.864 18.1853L706.485 5.80536L681.464 5.50736ZM12.0168 75.6633L24.5328 88.1783L24.6948 113.064L12.3148 100.684L12.0168 75.6633ZM707.953 -20.9827L720.47 -8.46664L720.632 16.4183L708.25 4.04036L707.952 -20.9817L707.953 -20.9827ZM-1.88022 99.8643L9.8818 99.7373L10.0087 87.9753L-1.7532 88.1023L-1.88022 99.8643ZM694.9 3.66136L706.663 3.53436L706.79 -8.22764L695.027 -8.10064L694.9 3.66136ZM654.16 -21.7967L666.674 -9.28164L691.559 -9.11964L679.18 -21.4987L654.158 -21.7967H654.16ZM708.768 32.8113L721.283 45.3273L746.168 45.4893L733.789 33.1093L708.768 32.8113ZM736.072 60.1153L748.587 72.6313L773.473 72.7933L761.093 60.4133L736.072 60.1153ZM735.257 6.32236L747.773 18.8373L747.935 43.7223L735.555 31.3433L735.257 6.32236ZM762.561 33.6263L775.077 46.1403L775.239 71.0253L762.859 58.6463L762.561 33.6263ZM722.108 30.8683L733.87 30.7413L733.997 18.9793L722.234 19.1063L722.108 30.8683ZM749.288 58.0493L761.05 57.9223L761.177 46.1603L749.415 46.2873L749.288 58.0493ZM-15.2872 48.3593L-2.77121 60.8743L-2.60922 85.7593L-14.9893 73.3803L-15.2872 48.3593ZM70.2958 17.3843L82.8098 29.9003L107.695 30.0623L95.3157 17.6823L70.2947 17.3843H70.2958ZM124.904 71.9933L137.419 84.5083L162.305 84.6703L149.925 72.2913L124.904 71.9933ZM96.7847 -9.10464L109.301 3.41036L109.463 28.2963L97.0828 15.9163L96.7847 -9.10464ZM151.394 45.5033L163.909 58.0193L164.071 82.9043L151.692 70.5243L151.394 45.5033ZM83.0828 14.9023L94.8447 14.7753L94.9717 3.01336L83.2098 3.13936L83.0828 14.9023ZM137.75 69.5693L149.512 69.4423L149.639 57.6803L137.876 57.8063L137.75 69.5693ZM96.8998 43.9883L109.415 56.5043L134.301 56.6663L121.921 44.2863L96.8998 43.9883ZM151.508 98.5973L164.023 111.112L188.909 111.274L176.529 98.8953L151.508 98.5973ZM821.546 -25.3597L834.062 -12.8437L858.947 -12.6817L846.567 -25.0607L821.547 -25.3587L821.546 -25.3597ZM123.39 17.4993L135.905 30.0143L136.067 54.9003L123.687 42.5203L123.389 17.4993H123.39ZM177.998 72.1073L190.513 84.6233L190.675 109.508L178.296 97.1283L177.998 72.1073ZM205.302 99.4113L217.817 111.927L217.979 136.812L205.6 124.432L205.302 99.4113ZM110.29 42.1093L122.052 41.9823L122.179 30.2203L110.417 30.3473L110.29 42.1093ZM164.957 96.7763L176.719 96.6493L176.846 84.8873L165.083 85.0133L164.957 96.7763ZM42.9918 -9.91964L55.5068 2.59636L80.3918 2.75836L68.0128 -9.62164L42.9918 -9.91964ZM69.4808 -36.4097L81.9968 -23.8937L82.1588 0.991364L69.7787 -11.3877L69.4808 -36.4097Z" stroke="#194E89" stroke-width="0.5"/>
</g>
<mask id="mask1_1_5" style="mask-type:luminance" maskUnits="userSpaceOnUse" x="0" y="0" width="1000" height="100">
<path d="M999.88 0.119141H90.7899L0.878906 99.1291V99.1111H999.88V0.119141Z" fill="white"/>
</mask>
<g mask="url(#mask1_1_5)">
<path fill-rule="evenodd" clip-rule="evenodd" d="M761.53 88.7261L774.045 101.242L774.207 126.127L761.828 113.748L761.53 88.7261ZM817.09 87.7751L829.605 100.29L829.767 125.175L817.388 112.796L817.09 87.7751ZM763.296 86.9601L775.812 99.4761L800.697 99.6381L788.317 87.2581L763.296 86.9601ZM789.786 60.4701L802.3 72.9861L802.462 97.8711L790.083 85.4921L789.786 60.4701ZM775.765 85.0661L787.527 84.9401L787.654 73.1771L775.892 73.3041L775.765 85.0661ZM818.856 86.0081L831.372 98.5241L856.257 98.6861L843.878 86.3061L818.856 86.0081ZM845.346 59.5191L857.86 72.0341L858.022 96.9191L845.643 84.5401L845.346 59.5191ZM831.293 83.9531L843.055 83.8261L843.182 72.0641L831.42 72.1911L831.293 83.9531ZM845.46 112.612L857.976 125.128L882.861 125.29L870.482 112.91L845.46 112.612ZM871.95 86.1231L884.465 98.6381L884.627 123.523L872.248 111.144L871.95 86.1231ZM858.5 111.16L870.262 111.033L870.389 99.2711L858.627 99.3981L858.5 111.16ZM791.552 58.7041L804.068 71.2201L828.953 71.3811L816.573 59.0021L791.552 58.7041ZM818.042 32.2141L830.557 44.7301L830.719 69.6151L818.34 57.2361L818.042 32.2141ZM804.086 56.7461L815.848 56.6191L815.975 44.8571L804.212 44.9831L804.086 56.7461ZM875.368 29.4961L887.884 42.0121L912.769 42.1741L900.39 29.7941L875.368 29.4961ZM957.28 111.409L969.796 123.924L994.681 124.086L982.302 111.706L957.28 111.409ZM901.858 3.00619L914.373 15.5221L914.535 40.4072L902.156 28.0281L901.858 3.00619ZM983.77 84.9191L996.286 97.4341L996.448 122.32L984.068 109.94L983.77 84.9191ZM887.934 27.3111L899.697 27.1841L899.823 15.4221L888.061 15.5491L887.934 27.3111ZM969.808 109.185L981.571 109.058L981.697 97.2961L969.935 97.4231L969.808 109.185ZM901.972 56.1001L914.488 68.6161L939.373 68.7781L926.994 56.3981L901.972 56.1001ZM928.462 29.6101L940.977 42.1261L941.139 67.0111L928.76 54.6321L928.462 29.6101ZM915.142 54.5181L926.904 54.3911L927.031 42.6292L915.268 42.7561L915.142 54.5181ZM848.064 2.19218L860.58 14.7081L885.465 14.8691L873.085 2.49018L848.064 2.19218ZM929.977 84.1041L942.492 96.6201L967.377 96.7821L954.998 84.4021L929.977 84.1041ZM874.554 -24.2979L887.069 -11.7819L887.231 13.1031L874.852 0.724188L874.554 -24.2979ZM956.466 57.6151L968.982 70.1301L969.144 95.0151L956.764 82.6361L956.466 57.6151ZM860.727 0.104189L872.49 -0.0228119L872.616 -11.7849L860.854 -11.6579L860.727 0.104189ZM942.601 81.9781L954.363 81.8511L954.49 70.0891L942.728 70.2161L942.601 81.9781ZM847.112 57.7521L859.628 70.2681L884.513 70.4301L872.134 58.0501L847.112 57.7521ZM873.602 31.2621L886.117 43.7781L886.279 68.6631L873.9 56.2841L873.602 31.2621ZM859.614 55.6321L871.376 55.5051L871.503 43.7431L859.74 43.8701L859.614 55.6321ZM873.716 84.3561L886.232 96.8721L911.117 97.0341L898.738 84.6541L873.716 84.3561ZM900.206 57.8671L912.721 70.3821L912.883 95.2671L900.504 82.8881L900.206 57.8671ZM886.82 82.8391L898.583 82.7121L898.71 70.9501L886.947 71.0771L886.82 82.8391ZM819.808 30.4481L832.324 42.9641L857.209 43.1251L844.829 30.7461L819.809 30.4481H819.808ZM901.72 112.36L914.236 124.876L939.121 125.038L926.742 112.658L901.72 112.36ZM846.298 3.95819L858.813 16.4741L858.975 41.3591L846.596 28.9801L846.298 3.95819ZM928.21 85.8701L940.726 98.3871L940.888 123.272L928.508 110.893L928.21 85.8721V85.8701ZM832.407 28.4251L844.169 28.2981L844.296 16.5361L832.533 16.6631L832.407 28.4251ZM914.28 110.299L926.043 110.172L926.169 98.4101L914.407 98.5371L914.28 110.299ZM958.484 -0.411812L971 12.1041L995.885 12.2661L983.506 -0.113811L958.484 -0.411812ZM984.974 -26.9019L997.49 -14.3859L997.65 10.4991L985.272 -1.87981L984.974 -26.9019ZM986.489 27.5921L999.004 40.1081L1023.89 40.2701L1011.51 27.8901L986.489 27.5921ZM999.243 25.3361L1011 25.2091L1011.13 13.4471L999.37 13.5741L999.243 25.3361ZM903.624 1.24018L916.14 13.7561L941.025 13.9181L928.646 1.53819L903.624 1.24018ZM985.537 83.1521L998.052 95.6681L1022.94 95.8301L1010.56 83.4501L985.537 83.1521ZM930.114 -25.2499L942.629 -12.7339L942.791 12.1511L930.412 -0.227812L930.114 -25.2499ZM1012.03 56.6631L1024.54 69.1781L1024.7 94.0641L1012.32 81.6841L1012.03 56.6631ZM998.13 80.8641L1009.89 80.7371L1010.02 68.9751L998.256 69.1021L998.13 80.8641ZM930.228 27.8441L942.744 40.3601L967.629 40.5221L955.25 28.1421L930.228 27.8441ZM956.718 1.35419L969.233 13.8701L969.395 38.7551L957.016 26.3761L956.718 1.35419ZM943.462 26.1971L955.225 26.0711L955.351 14.3081L943.589 14.4351L943.462 26.1971ZM958.233 55.8481L970.748 68.3641L995.633 68.5261L983.254 56.1461L958.233 55.8481ZM984.722 29.3591L997.238 41.8741L997.4 66.7601L985.02 54.3801L984.722 29.3591ZM970.922 53.6572L982.684 53.5301L982.811 41.7681L971.049 41.8951L970.922 53.6572Z" stroke="#194E89" stroke-width="0.5"/>
</g>
</g>
<defs>
<clipPath id="clip0_1_5">
<rect width="1000" height="100" fill="white"/>
</clipPath>
</defs>
</svg>
