<svg width="279" height="111" viewBox="0 0 279 111" fill="none" xmlns="http://www.w3.org/2000/svg">
<g clip-path="url(#clip0_57_33)">
<mask id="mask0_57_33" style="mask-type:luminance" maskUnits="userSpaceOnUse" x="0" y="0" width="279" height="111">
<path d="M275 0H4C1.79086 0 0 1.79086 0 4V107C0 109.209 1.79086 111 4 111H275C277.209 111 279 109.209 279 107V4C279 1.79086 277.209 0 275 0Z" fill="white"/>
</mask>
<g mask="url(#mask0_57_33)">
<path d="M275 0H4C1.79086 0 0 1.79086 0 4V107C0 109.209 1.79086 111 4 111H275C277.209 111 279 109.209 279 107V4C279 1.79086 277.209 0 275 0Z" fill="#012C6E"/>
<g opacity="0.15">
<path d="M28.6009 59.4973H46.0069V58.0911C46.0069 56.7552 45.4757 55.47 44.5303 54.5247C43.585 53.5794 42.3037 53.0481 40.9678 53.0481H31.8506C29.8975 53.0559 28.0498 52.1614 26.8428 50.6223L24.917 48.1653H24.9131C23.6904 46.6067 21.8193 45.7005 19.8428 45.7044H11.3076L11.3115 64.8844C13.1631 64.8961 14.9365 65.6461 16.2373 66.9664L16.6436 67.3726C18.8936 69.5992 21.9366 70.8414 25.1006 70.8218H47.6316C50.9988 70.8179 54.2058 69.3882 56.4558 66.8843L65.9441 56.3223C67.1082 54.8496 66.9753 52.7403 65.6355 51.4278C64.2957 50.1153 62.1824 50.0216 60.7371 51.2169L51.3621 60.1857C50.4519 61.0646 49.2332 61.5529 47.9676 61.549H28.6006C28.0264 61.549 27.5615 61.0842 27.5615 60.5099C27.5615 59.9318 28.0263 59.4669 28.6006 59.4669L28.6009 59.4973Z" fill="white"/>
<path d="M2.082 40.1223H7.1445C8.2968 40.1223 9.2265 41.2746 9.2265 42.2043V67.9853C9.2265 69.1376 8.29291 70.0673 7.1445 70.0673H2.082C0.9297 70.0673 0 68.915 0 67.9853V42.2043C0 41.052 0.93359 40.1223 2.082 40.1223Z" fill="white"/>
<path d="M53.789 31.8523C53.2539 32.6687 52.6563 33.45 52.0079 34.1843C51.5469 34.7233 51.0508 35.2351 50.5312 35.7155L64.7613 45.0905H64.7573C65.3003 45.4538 65.9409 45.6452 66.5932 45.6413C67.7065 45.6413 68.7455 45.0827 69.3627 44.153L71.2377 41.321C72.2455 39.7898 71.8237 37.7312 70.3002 36.7155L56.0702 27.3405C55.832 28.0045 55.5546 28.6569 55.2382 29.2897C54.8202 30.1764 54.3359 31.032 53.789 31.8523ZM66.539 36.7585L69.1562 38.528C69.7188 38.9108 69.8711 39.6764 69.5 40.2468L67.625 43.071C67.4453 43.3444 67.1641 43.5358 66.8438 43.6022C66.5234 43.6686 66.1875 43.6061 65.9141 43.4225L63.3008 41.653L66.539 36.7585Z" fill="white"/>
<path d="M37.664 24.7273H33.3437C31.0898 24.7312 29.2695 26.5593 29.2695 28.8093V30.4655C33.1289 32.7233 37.9101 32.7233 41.7695 30.4655C41.7656 30.4225 41.7656 30.3835 41.7695 30.3405V28.8093C41.7656 27.7234 41.332 26.6843 40.5625 25.9187C39.793 25.1531 38.7499 24.7234 37.664 24.7273Z" fill="white"/>
<path d="M45.832 26.6023C48.0039 23.3289 48.4922 19.2195 47.1484 15.5283C45.8086 11.8369 42.7929 9.00098 39.0273 7.88378C35.2617 6.76658 31.1914 7.50487 28.0543 9.86818C24.9176 12.2315 23.0855 15.9463 23.1246 19.8722C24.5934 21.587 25.398 23.7706 25.3941 26.0284C25.4098 26.3018 25.4098 26.5792 25.3941 26.8526C25.9215 27.6182 26.5347 28.3174 27.2261 28.9346V28.7979C27.2261 25.3995 29.9839 22.6377 33.3823 22.6338H37.6635C41.0697 22.6377 43.8276 25.3955 43.8315 28.7979V28.9229C44.5933 28.2354 45.2656 27.4538 45.832 26.6023ZM35.508 21.2585C33.3635 21.2624 31.426 19.9733 30.6018 17.9929C29.7776 16.0085 30.2307 13.7273 31.7463 12.2117C33.2619 10.6922 35.5432 10.2351 37.5236 11.0555C39.508 11.8758 40.8009 13.8094 40.8009 15.9539C40.797 18.8758 38.4299 21.2468 35.508 21.2585Z" fill="white"/>
<path d="M35.507 12.7353C34.2062 12.7314 33.0304 13.5126 32.5265 14.7158C32.0265 15.9189 32.2999 17.3056 33.2179 18.2275C34.1398 19.1494 35.5226 19.4267 36.7257 18.9306C37.9327 18.4306 38.7179 17.2587 38.7179 15.954C38.7179 14.1806 37.2804 12.7432 35.507 12.7353Z" fill="white"/>
<path d="M15.8741 33.4773C18.8858 33.4773 21.6007 31.6609 22.753 28.8796C23.9053 26.0944 23.2686 22.8913 21.1397 20.7624C19.0108 18.6296 15.8038 17.9929 13.0225 19.1452C10.2413 20.3014 8.4248 23.0163 8.4248 26.028C8.4248 30.1413 11.7608 33.4773 15.8741 33.4773ZM11.6241 25.0476C12.0304 24.6452 12.6866 24.6452 13.0929 25.0476L14.8624 26.8171L18.6436 23.0359V23.0398C19.0499 22.6296 19.71 22.6296 20.1163 23.032C20.5265 23.4382 20.5265 24.0984 20.1241 24.5086L16.3429 28.2898C15.9484 28.6804 15.4171 28.9031 14.8624 28.9031C14.3116 28.8991 13.7843 28.6804 13.3936 28.2898L11.6241 26.5203V26.5164C11.2179 26.1101 11.2179 25.4539 11.6241 25.0476Z" fill="white"/>
<path d="M23.394 11.7983C25.4995 8.60299 28.7885 6.36859 32.5385 5.59519C36.2885 4.82175 40.1908 5.56784 43.3905 7.66939C46.5936 9.77099 48.828 13.0561 49.6053 16.8022C50.3865 20.5522 49.6443 24.4584 47.5467 27.6612C45.449 30.8643 42.1678 33.1026 38.4217 33.8878C34.6717 34.669 30.7655 33.9347 27.5627 31.8409C26.5432 31.1612 25.6135 30.3604 24.7893 29.4542C24.1213 31.1769 22.9729 32.673 21.4768 33.7589C22.4299 34.7159 23.4768 35.5714 24.6018 36.3214C29.387 39.4698 35.3008 40.3917 40.8168 38.8526C46.3324 37.3096 50.9108 33.4542 53.3678 28.2826C55.8248 23.1107 55.9186 17.1266 53.6295 11.8766C51.3404 6.62659 46.8873 2.62659 41.4225 0.911589C35.9577 -0.807211 30.0205 -0.0727806 25.1375 2.92329C20.2586 5.91549 16.9109 10.8803 15.9695 16.5283C17.825 16.54 19.6336 17.0986 21.1765 18.1338C21.3952 15.8721 22.157 13.7002 23.3953 11.7979L23.394 11.7983Z" fill="white"/>
</g>
</g>
</g>
<defs>
<clipPath id="clip0_57_33">
<rect width="279" height="111" fill="white"/>
</clipPath>
</defs>
</svg>
