<?xml version="1.0" encoding="UTF-8"?>
<!-- Generator: Adobe Illustrator 23.0.2, SVG Export Plug-In . SVG Version: 6.00 Build 0)  -->
<svg version="1.1" id="Слой_1" xmlns="http://www.w3.org/2000/svg" xmlns:xlink="http://www.w3.org/1999/xlink" x="0px" y="0px" viewBox="0 0 1522.1 1522.9" style="enable-background:new 0 0 1522.1 1522.9;" xml:space="preserve">
<style type="text/css">
	.st0{fill:#DADADA;}
	.st1{fill:#DADADA;fill-opacity:0.8;}
	.st2{fill:#DADADA;fill-opacity:0.702;}
	.st3{fill:#DADADA;fill-opacity:0.502;}
	.st4{fill:#DADADA;fill-opacity:0.302;}
	.st5{fill:#DADADA;fill-opacity:0.102;}
</style>
<g id="_2097550481984">
	<polygon class="st0" points="1193.6,911.1 1093.6,811.1 1230.2,774.6  "/>
	<polygon class="st0" points="938.3,1166.4 838.2,1066.4 974.8,1029.9  "/>
	<polygon class="st0" points="1029.1,975.6 1065.7,839 1165.7,939  "/>
	<polygon class="st0" points="773.8,1230.9 810.3,1094.3 910.3,1194.4  "/>
	<polygon class="st0" points="1522.1,729 1496.3,703.2 1522.1,696.3  "/>
	<polygon class="st0" points="921.3,1378.4 957.8,1241.8 1057.9,1341.8  "/>
	<polygon class="st0" points="1486.1,666.6 1522.1,532 1522.1,656.9  "/>
	<polygon class="st0" points="1395.2,857.4 1295.2,757.4 1431.8,720.9  "/>
	<polygon class="st0" points="1230.8,921.9 1267.3,785.3 1367.3,885.3  "/>
	<polygon class="st0" points="1139.9,1112.8 1039.9,1012.8 1176.5,976.2  "/>
	<polygon class="st0" points="975.5,1177.3 1012,1040.7 1112,1140.7  "/>
	<polygon class="st0" points="884.6,1368.1 784.6,1268.1 921.2,1231.6  "/>
	<polygon class="st0" points="720.1,1432.6 756.7,1296 856.7,1396  "/>
	<polygon class="st0" points="1431.9,867.7 1468.4,731.1 1522.1,784.8 1522.1,843.5  "/>
	<polygon class="st0" points="1341.1,1058.6 1241.1,958.6 1377.7,922.1  "/>
	<polygon class="st0" points="1085.8,1313.9 985.7,1213.9 1122.3,1177.4  "/>
	<polygon class="st0" points="1176.6,1123.1 1213.2,986.5 1313.2,1086.5  "/>
	<polygon class="st0" points="842.8,1522.9 784,1522.9 730.4,1469.3 867,1432.7  "/>
	<polygon class="st0" points="728.2,1522.9 695.6,1522.9 702.5,1497.2  "/>
	<polygon class="st0" points="1078.9,1522.9 1069.3,1522.9 1105.1,1389.1 1205.1,1489.1  "/>
	<polygon class="st0" points="656.2,1522.9 531.2,1522.9 665.8,1486.9  "/>
	<polygon class="st0" points="1522.1,984.3 1442.2,904.4 1522.1,883.1  "/>
	<polygon class="st0" points="1377.8,1068.9 1414.3,932.3 1514.4,1032.4  "/>
	<polygon class="st0" points="1286.9,1259.8 1186.9,1159.8 1323.5,1123.2  "/>
	<polygon class="st0" points="1122.5,1324.3 1159,1187.7 1259,1287.7  "/>
	<polygon class="st0" points="1031.6,1515.1 931.6,1415.1 1068.2,1378.6  "/>
	<polygon class="st0" points="983.6,1522.9 882.3,1522.9 903.7,1443  "/>
	<polygon class="st0" points="1488.3,1205.9 1522.1,1079.7 1522.1,1070.1 1388.3,1105.9  "/>
	<polygon class="st0" points="1233,1461.2 1269.6,1324.7 1133,1361.2  "/>
	<polygon class="st0" points="1460.4,1233.8 1323.9,1270.4 1360.4,1133.8  "/>
	<polygon class="st0" points="1522.1,1404.1 1471.3,1417.7 1507.8,1281.1 1522.1,1295.5  "/>
	<polygon class="st0" points="1403.4,1522.9 1417,1472.1 1280.4,1508.6 1294.7,1522.9  "/>
	<polygon class="st0" points="1522.1,1443.8 1481.7,1454.6 1522.1,1495  "/>
	<polygon class="st0" points="1443.1,1522.9 1453.9,1482.5 1494.3,1522.9  "/>
	<polygon class="st0" points="1434.3,1407.2 1470.9,1270.7 1334.3,1307.2  "/>
	<polygon class="st0" points="1406.5,1435.1 1269.9,1471.7 1306.4,1335.1  "/>
	<polygon class="st1" points="1448.9,655.8 1348.9,555.8 1485.5,519.2  "/>
	<polygon class="st1" points="1284.5,720.3 1321,583.7 1421,683.7  "/>
	<polygon class="st1" points="682.9,1421.8 582.9,1321.8 719.5,1285.2  "/>
	<polygon class="st1" points="518.5,1486.3 555,1349.7 655,1449.7  "/>
	<polygon class="st1" points="987.8,949.8 907.8,869.8 1017.1,840.6  "/>
	<polygon class="st1" points="1095.2,762.5 1124.4,653.3 1204.4,733.3  "/>
	<polygon class="st1" points="1243.2,694.5 1163.2,614.5 1272.5,585.3  "/>
	<polygon class="st2" points="350.2,1522.9 330.7,1522.9 358.4,1419.3 438.4,1499.3  "/>
	<polygon class="st2" points="477.2,1460.5 397.2,1380.5 506.5,1351.3  "/>
	<polygon class="st2" points="732.5,1205.2 652.5,1125.2 761.8,1095.9  "/>
	<polygon class="st2" points="1350.5,507.2 1379.7,397.9 1459.8,477.9  "/>
	<polygon class="st2" points="1522.1,201 1475.5,154.4 1522.1,142  "/>
	<polygon class="st2" points="1498.5,439.2 1418.5,359.2 1522.1,331.4 1522.1,351  "/>
	<polygon class="st2" points="839.8,1017.9 869.1,908.6 949.1,988.6  "/>
	<polygon class="st2" points="584.5,1273.2 613.7,1163.9 693.7,1244  "/>
	<polygon class="st2" points="1400.9,308.7 1430.1,199.4 1510.1,279.4  "/>
	<polygon class="st2" points="789.4,1000.3 709.4,920.3 818.7,891.1  "/>
	<polygon class="st2" points="635,1074.8 664.2,965.5 744.2,1045.5  "/>
	<polygon class="st3" points="534.1,1255.6 454.1,1175.6 563.3,1146.4  "/>
	<polygon class="st3" points="278.7,1511 198.7,1431 308,1401.7  "/>
	<polygon class="st3" points="379.6,1330.1 408.8,1220.8 488.9,1300.8  "/>
	<polygon class="st3" points="200.3,1522.9 140.8,1522.9 153.4,1476  "/>
	<polygon class="st3" points="1348,284.7 1278,214.7 1373.6,189.1  "/>
	<polygon class="st3" points="1465,97.6 1490.5,2 1522.1,33.6 1522.1,82.3  "/>
	<polygon class="st4" points="693.4,869.3 719,773.7 789,843.7  "/>
	<polygon class="st4" points="438.1,1124.6 463.7,1029 533.7,1099  "/>
	<polygon class="st4" points="332.2,1300.5 262.2,1230.5 357.8,1204.9  "/>
	<polygon class="st4" points="81.1,1522.9 32.9,1522.9 0.9,1491 96.5,1465.4  "/>
	<polygon class="st5" points="509.5,904.9 524.8,847.6 566.8,889.6  "/>
	<polygon class="st5" points="1275.7,139.1 1291,81.8 1333,123.8  "/>
	<polygon class="st5" points="1399.4,57.4 1357.4,15.4 1414.8,0  "/>
	<polygon class="st2" points="1300,489.5 1220,409.5 1329.3,380.3  "/>
	<polygon class="st2" points="1145.5,564 1174.8,454.7 1254.8,534.7  "/>
	<polygon class="st3" points="1092.7,540 1022.6,470 1118.3,444.5  "/>
	<polygon class="st4" points="1209.7,353 1235.3,257.4 1305.3,327.4  "/>
	<polygon class="st5" points="1020.3,394.4 1035.7,337.1 1077.7,379.1  "/>
	<polygon class="st5" points="633.2,823.2 591.2,781.2 648.6,765.8  "/>
	<polygon class="st5" points="377.9,1078.5 335.9,1036.5 393.2,1021.2  "/>
	<polygon class="st5" points="254.1,1160.3 269.5,1102.9 311.5,1144.9  "/>
	<polygon class="st2" points="1044.7,744.9 964.6,664.9 1073.9,635.6  "/>
	<polygon class="st2" points="890.2,819.3 919.4,710.1 999.4,790.1  "/>
	<polygon class="st3" points="843,789.7 773,719.7 868.6,694.1  "/>
	<polygon class="st5" points="765,649.8 780.4,592.4 822.4,634.4  "/>
	<polygon class="st5" points="888.8,568.1 846.8,526 904.1,510.7  "/>
	<polygon class="st4" points="951.2,611.5 976.8,515.9 1046.8,585.9  "/>
	<polygon class="st5" points="1146.2,310.3 1104.2,268.3 1161.6,252.9  "/>
	<polygon class="st3" points="587.7,1032.5 517.7,962.5 613.3,936.9  "/>
	<polygon class="st4" points="184,1373.3 209.5,1277.7 279.5,1347.7  "/>
	<polygon class="st5" points="123.8,1327.2 81.8,1285.2 139.1,1269.8  "/>
	<polygon class="st5" points="0,1409 15.4,1351.6 57.4,1393.6  "/>
</g>
</svg>